<?xml version="1.0" encoding="UTF-8"?>
<svg xmlns="http://www.w3.org/2000/svg" xmlns:xlink="http://www.w3.org/1999/xlink" width="612pt" height="792pt" viewBox="0 0 612 792" version="1.1">
<defs>
<g>
<symbol overflow="visible" id="glyph0-0">
<path style="stroke:none;" d=""/>
</symbol>
<symbol overflow="visible" id="glyph0-1">
<path style="stroke:none;" d="M 5.0625 -3.3125 L 5.0625 0 L 6.5625 0 L 6.5625 -7.296875 L 5.0625 -7.296875 L 5.0625 -4.5625 L 2.1875 -4.5625 L 2.1875 -7.296875 L 0.6875 -7.296875 L 0.6875 0 L 2.1875 0 L 2.1875 -3.3125 L 5.0625 -3.3125 Z M 5.0625 -3.3125 "/>
</symbol>
<symbol overflow="visible" id="glyph0-2">
<path style="stroke:none;" d="M 0.59375 -7.296875 L 0.59375 0 L 1.984375 0 L 1.984375 -0.546875 C 2.328125 -0.015625 2.796875 0.234375 3.484375 0.234375 C 4.765625 0.234375 5.75 -1 5.75 -2.625 C 5.75 -3.359375 5.53125 -4.09375 5.171875 -4.625 C 4.796875 -5.15625 4.140625 -5.484375 3.484375 -5.484375 C 2.8125 -5.484375 2.328125 -5.234375 1.984375 -4.703125 L 1.984375 -7.296875 L 0.59375 -7.296875 Z M 3.171875 -4.3125 C 3.859375 -4.3125 4.34375 -3.625 4.34375 -2.625 C 4.34375 -1.640625 3.859375 -0.9375 3.171875 -0.9375 C 2.453125 -0.9375 1.984375 -1.625 1.984375 -2.65625 C 1.984375 -3.625 2.46875 -4.3125 3.171875 -4.3125 Z M 3.171875 -4.3125 "/>
</symbol>
<symbol overflow="visible" id="glyph0-3">
<path style="stroke:none;" d="M 5.015625 -1.46875 L 5.484375 0 L 7.03125 0 L 4.515625 -7.296875 L 2.84375 -7.296875 L 0.265625 0 L 1.796875 0 L 2.28125 -1.46875 L 5.015625 -1.46875 Z M 4.59375 -2.71875 L 2.703125 -2.71875 L 3.65625 -5.5625 L 4.59375 -2.71875 Z M 4.59375 -2.71875 "/>
</symbol>
<symbol overflow="visible" id="glyph0-4">
<path style="stroke:none;" d="M 2.984375 -3.421875 L 0.265625 -3.421875 L 0.265625 -2.0625 L 2.984375 -2.0625 L 2.984375 -3.421875 Z M 2.984375 -3.421875 "/>
</symbol>
<symbol overflow="visible" id="glyph0-5">
<path style="stroke:none;" d="M 2.0625 -7.296875 L 0.671875 -7.296875 L 0.671875 0 L 2.0625 0 L 2.0625 -7.296875 Z M 2.0625 -7.296875 "/>
</symbol>
<symbol overflow="visible" id="glyph0-6">
<path style="stroke:none;" d="M 3.015625 -5.484375 C 1.359375 -5.484375 0.34375 -4.40625 0.34375 -2.625 C 0.34375 -0.84375 1.359375 0.234375 3.015625 0.234375 C 4.65625 0.234375 5.6875 -0.859375 5.6875 -2.59375 C 5.6875 -4.421875 4.703125 -5.484375 3.015625 -5.484375 Z M 3.015625 -4.359375 C 3.796875 -4.359375 4.296875 -3.671875 4.296875 -2.609375 C 4.296875 -1.59375 3.765625 -0.90625 3.015625 -0.90625 C 2.265625 -0.90625 1.75 -1.59375 1.75 -2.625 C 1.75 -3.65625 2.265625 -4.359375 3.015625 -4.359375 Z M 3.015625 -4.359375 "/>
</symbol>
<symbol overflow="visible" id="glyph0-7">
<path style="stroke:none;" d="M 4.046875 0 L 5.453125 0 L 5.453125 -7.296875 L 4.046875 -7.296875 L 4.046875 -4.703125 C 3.703125 -5.234375 3.234375 -5.484375 2.5625 -5.484375 C 1.265625 -5.484375 0.296875 -4.25 0.296875 -2.625 C 0.296875 -1.890625 0.515625 -1.15625 0.875 -0.625 C 1.234375 -0.109375 1.90625 0.234375 2.5625 0.234375 C 3.234375 0.234375 3.703125 -0.015625 4.046875 -0.546875 L 4.046875 0 Z M 2.875 -4.3125 C 3.578125 -4.3125 4.046875 -3.625 4.046875 -2.59375 C 4.046875 -1.625 3.5625 -0.9375 2.875 -0.9375 C 2.171875 -0.9375 1.6875 -1.625 1.6875 -2.625 C 1.6875 -3.625 2.171875 -4.3125 2.875 -4.3125 Z M 2.875 -4.3125 "/>
</symbol>
<symbol overflow="visible" id="glyph0-8">
<path style="stroke:none;" d="M 5.78125 1.203125 L -0.21875 1.203125 L -0.21875 1.890625 L 5.78125 1.890625 L 5.78125 1.203125 Z M 5.78125 1.203125 "/>
</symbol>
<symbol overflow="visible" id="glyph0-9">
<path style="stroke:none;" d="M 5.21875 -3.375 C 5.125 -4.703125 4.234375 -5.484375 2.890625 -5.484375 C 1.28125 -5.484375 0.34375 -4.4375 0.34375 -2.59375 C 0.34375 -0.8125 1.265625 0.234375 2.875 0.234375 C 4.1875 0.234375 5.09375 -0.578125 5.21875 -1.875 L 3.875 -1.875 C 3.703125 -1.171875 3.421875 -0.90625 2.875 -0.90625 C 2.171875 -0.90625 1.734375 -1.546875 1.734375 -2.59375 C 1.734375 -3.09375 1.84375 -3.578125 2.015625 -3.90625 C 2.171875 -4.203125 2.484375 -4.359375 2.875 -4.359375 C 3.453125 -4.359375 3.71875 -4.09375 3.875 -3.375 L 5.21875 -3.375 Z M 5.21875 -3.375 "/>
</symbol>
<symbol overflow="visible" id="glyph0-10">
<path style="stroke:none;" d="M 5.234375 -0.171875 C 4.984375 -0.40625 4.921875 -0.546875 4.921875 -0.828125 L 4.921875 -3.828125 C 4.921875 -4.9375 4.171875 -5.484375 2.703125 -5.484375 C 1.25 -5.484375 0.484375 -4.875 0.40625 -3.625 L 1.75 -3.625 C 1.8125 -4.1875 2.046875 -4.359375 2.734375 -4.359375 C 3.28125 -4.359375 3.546875 -4.1875 3.546875 -3.8125 C 3.546875 -3.640625 3.453125 -3.484375 3.3125 -3.40625 C 3.125 -3.296875 3.125 -3.296875 2.4375 -3.1875 L 1.875 -3.09375 C 0.796875 -2.90625 0.28125 -2.359375 0.28125 -1.390625 C 0.28125 -0.9375 0.40625 -0.546875 0.65625 -0.28125 C 0.96875 0.046875 1.4375 0.234375 1.921875 0.234375 C 2.515625 0.234375 3.0625 -0.03125 3.5625 -0.546875 C 3.5625 -0.265625 3.59375 -0.15625 3.71875 0 L 5.234375 0 L 5.234375 -0.171875 Z M 3.546875 -2.171875 C 3.546875 -1.359375 3.15625 -0.90625 2.4375 -0.90625 C 1.96875 -0.90625 1.6875 -1.15625 1.6875 -1.546875 C 1.6875 -1.96875 1.90625 -2.171875 2.484375 -2.296875 L 2.953125 -2.375 C 3.328125 -2.453125 3.390625 -2.46875 3.546875 -2.546875 L 3.546875 -2.171875 Z M 3.546875 -2.171875 "/>
</symbol>
<symbol overflow="visible" id="glyph0-11">
<path style="stroke:none;" d="M 0.59375 -5.40625 L 0.59375 0 L 2 0 L 2 -3.234375 C 2 -3.90625 2.359375 -4.296875 2.953125 -4.296875 C 3.4375 -4.296875 3.71875 -4.03125 3.71875 -3.59375 L 3.71875 0 L 5.125 0 L 5.125 -3.234375 C 5.125 -3.90625 5.484375 -4.296875 6.078125 -4.296875 C 6.546875 -4.296875 6.84375 -4.03125 6.84375 -3.59375 L 6.84375 0 L 8.234375 0 L 8.234375 -3.8125 C 8.234375 -4.875 7.59375 -5.484375 6.515625 -5.484375 C 5.84375 -5.484375 5.359375 -5.25 4.9375 -4.6875 C 4.6875 -5.203125 4.140625 -5.484375 3.46875 -5.484375 C 2.84375 -5.484375 2.453125 -5.28125 1.984375 -4.734375 L 1.984375 -5.40625 L 0.59375 -5.40625 Z M 0.59375 -5.40625 "/>
</symbol>
<symbol overflow="visible" id="glyph0-12">
<path style="stroke:none;" d="M 2.125 -7.296875 L 0.625 -7.296875 L 0.625 0 L 2.125 0 L 2.125 -7.296875 Z M 2.125 -7.296875 "/>
</symbol>
<symbol overflow="visible" id="glyph0-13">
<path style="stroke:none;" d="M 2.296875 -7.296875 L 0.796875 -7.296875 L 0.796875 0 L 5.796875 0 L 5.796875 -1.25 L 2.296875 -1.25 L 2.296875 -7.296875 Z M 2.296875 -7.296875 "/>
</symbol>
<symbol overflow="visible" id="glyph0-14">
<path style="stroke:none;" d="M 5.40625 0 L 5.40625 -5.40625 L 4.015625 -5.40625 L 4.015625 -2.015625 C 4.015625 -1.375 3.5625 -0.953125 2.875 -0.953125 C 2.28125 -0.953125 1.984375 -1.28125 1.984375 -1.9375 L 1.984375 -5.40625 L 0.578125 -5.40625 L 0.578125 -1.640625 C 0.578125 -0.453125 1.234375 0.234375 2.390625 0.234375 C 3.125 0.234375 3.609375 -0.046875 4.015625 -0.640625 L 4.015625 0 L 5.40625 0 Z M 5.40625 0 "/>
</symbol>
<symbol overflow="visible" id="glyph0-15">
<path style="stroke:none;" d="M 2.0625 -5.40625 L 0.671875 -5.40625 L 0.671875 0 L 2.0625 0 L 2.0625 -5.40625 Z M 2.0625 -7.296875 L 0.671875 -7.296875 L 0.671875 -6.046875 L 2.0625 -6.046875 L 2.0625 -7.296875 Z M 2.0625 -7.296875 "/>
</symbol>
<symbol overflow="visible" id="glyph0-16">
<path style="stroke:none;" d="M 0.625 -5.40625 L 0.625 0 L 2.03125 0 L 2.03125 -3.234375 C 2.03125 -3.875 2.484375 -4.296875 3.15625 -4.296875 C 3.765625 -4.296875 4.0625 -3.96875 4.0625 -3.328125 L 4.0625 0 L 5.453125 0 L 5.453125 -3.625 C 5.453125 -4.8125 4.796875 -5.484375 3.65625 -5.484375 C 2.921875 -5.484375 2.4375 -5.21875 2.03125 -4.625 L 2.03125 -5.40625 L 0.625 -5.40625 Z M 0.625 -5.40625 "/>
</symbol>
<symbol overflow="visible" id="glyph0-17">
<path style="stroke:none;" d="M 5.234375 -2.265625 C 5.25 -2.375 5.25 -2.4375 5.25 -2.5 C 5.25 -3.046875 5.171875 -3.546875 5.046875 -3.921875 C 4.6875 -4.90625 3.8125 -5.484375 2.71875 -5.484375 C 1.171875 -5.484375 0.21875 -4.375 0.21875 -2.5625 C 0.21875 -0.828125 1.15625 0.234375 2.6875 0.234375 C 3.90625 0.234375 4.875 -0.453125 5.1875 -1.515625 L 3.8125 -1.515625 C 3.640625 -1.09375 3.25 -0.84375 2.734375 -0.84375 C 2.34375 -0.84375 2.015625 -1.015625 1.8125 -1.3125 C 1.6875 -1.515625 1.640625 -1.75 1.625 -2.265625 L 5.234375 -2.265625 Z M 1.640625 -3.1875 C 1.734375 -4.015625 2.078125 -4.421875 2.703125 -4.421875 C 3.046875 -4.421875 3.375 -4.25 3.5625 -3.96875 C 3.703125 -3.765625 3.765625 -3.5625 3.796875 -3.1875 L 1.640625 -3.1875 Z M 1.640625 -3.1875 "/>
</symbol>
<symbol overflow="visible" id="glyph0-18">
<path style="stroke:none;" d="M 3.015625 -5.296875 L 2.234375 -5.296875 L 2.234375 -6.734375 L 0.828125 -6.734375 L 0.828125 -5.296875 L 0.140625 -5.296875 L 0.140625 -4.359375 L 0.828125 -4.359375 L 0.828125 -1.046875 C 0.828125 -0.1875 1.28125 0.234375 2.203125 0.234375 C 2.515625 0.234375 2.765625 0.203125 3.015625 0.125 L 3.015625 -0.859375 C 2.875 -0.84375 2.796875 -0.828125 2.6875 -0.828125 C 2.3125 -0.828125 2.234375 -0.9375 2.234375 -1.421875 L 2.234375 -4.359375 L 3.015625 -4.359375 L 3.015625 -5.296875 Z M 3.015625 -5.296875 "/>
</symbol>
<symbol overflow="visible" id="glyph0-19">
<path style="stroke:none;" d="M 3.9375 -5.40625 L 2.8125 -1.46875 L 1.625 -5.40625 L 0.09375 -5.40625 L 2.09375 0.21875 L 2.09375 0.234375 L 2.09375 0.265625 C 2.09375 0.765625 1.71875 1.15625 1.234375 1.15625 C 1.125 1.15625 1.046875 1.15625 0.859375 1.09375 L 0.859375 2.15625 C 1.0625 2.1875 1.1875 2.1875 1.359375 2.1875 C 1.703125 2.1875 2.125 2.125 2.375 2.015625 C 2.765625 1.859375 2.9375 1.625 3.15625 0.984375 L 5.375 -5.40625 L 3.9375 -5.40625 Z M 3.9375 -5.40625 "/>
</symbol>
<symbol overflow="visible" id="glyph0-20">
<path style="stroke:none;" d="M 3.125 -5.296875 L 2.296875 -5.296875 L 2.296875 -5.8125 C 2.296875 -6.09375 2.421875 -6.234375 2.6875 -6.234375 C 2.796875 -6.234375 2.953125 -6.234375 3.078125 -6.203125 L 3.078125 -7.265625 C 2.8125 -7.28125 2.46875 -7.296875 2.28125 -7.296875 C 1.34375 -7.296875 0.90625 -6.84375 0.90625 -5.9375 L 0.90625 -5.296875 L 0.140625 -5.296875 L 0.140625 -4.359375 L 0.90625 -4.359375 L 0.90625 0 L 2.296875 0 L 2.296875 -4.359375 L 3.125 -4.359375 L 3.125 -5.296875 Z M 3.125 -5.296875 "/>
</symbol>
<symbol overflow="visible" id="glyph0-21">
<path style="stroke:none;" d="M 5.046875 -3.65625 C 5.03125 -4.796875 4.15625 -5.484375 2.703125 -5.484375 C 1.328125 -5.484375 0.484375 -4.796875 0.484375 -3.6875 C 0.484375 -3.328125 0.59375 -3.015625 0.78125 -2.8125 C 0.96875 -2.625 1.140625 -2.53125 1.65625 -2.359375 L 3.328125 -1.84375 C 3.6875 -1.734375 3.796875 -1.625 3.796875 -1.40625 C 3.796875 -1.0625 3.40625 -0.875 2.765625 -0.875 C 2.40625 -0.875 2.109375 -0.9375 1.9375 -1.0625 C 1.78125 -1.171875 1.71875 -1.28125 1.65625 -1.5625 L 0.296875 -1.5625 C 0.328125 -0.390625 1.203125 0.234375 2.84375 0.234375 C 3.59375 0.234375 4.15625 0.0625 4.5625 -0.25 C 4.953125 -0.5625 5.203125 -1.0625 5.203125 -1.59375 C 5.203125 -2.296875 4.84375 -2.75 4.140625 -2.953125 L 2.375 -3.46875 C 1.984375 -3.59375 1.875 -3.671875 1.875 -3.890625 C 1.875 -4.1875 2.203125 -4.390625 2.6875 -4.390625 C 3.359375 -4.390625 3.6875 -4.15625 3.703125 -3.65625 L 5.046875 -3.65625 Z M 5.046875 -3.65625 "/>
</symbol>
<symbol overflow="visible" id="glyph0-22">
<path style="stroke:none;" d="M 0.671875 -7.296875 L 0.671875 0 L 2.0625 0 L 2.0625 -3.234375 C 2.0625 -3.859375 2.515625 -4.296875 3.15625 -4.296875 C 3.453125 -4.296875 3.6875 -4.1875 3.84375 -3.96875 C 3.96875 -3.796875 4.015625 -3.65625 4.015625 -3.296875 L 4.015625 0 L 5.40625 0 L 5.40625 -3.625 C 5.40625 -4.296875 5.234375 -4.765625 4.859375 -5.078125 C 4.546875 -5.34375 4.09375 -5.484375 3.65625 -5.484375 C 2.953125 -5.484375 2.453125 -5.203125 2.0625 -4.625 L 2.0625 -7.296875 L 0.671875 -7.296875 Z M 0.671875 -7.296875 "/>
</symbol>
<symbol overflow="visible" id="glyph0-23">
<path style="stroke:none;" d="M 0.625 -5.40625 L 0.625 0 L 2.03125 0 L 2.03125 -2.875 C 2.03125 -3.6875 2.4375 -4.09375 3.265625 -4.09375 C 3.40625 -4.09375 3.515625 -4.09375 3.703125 -4.0625 L 3.703125 -5.484375 C 3.625 -5.484375 3.5625 -5.484375 3.53125 -5.484375 C 2.890625 -5.484375 2.328125 -5.0625 2.03125 -4.34375 L 2.03125 -5.40625 L 0.625 -5.40625 Z M 0.625 -5.40625 "/>
</symbol>
<symbol overflow="visible" id="glyph0-24">
<path style="stroke:none;" d="M 1.984375 -5.40625 L 0.578125 -5.40625 L 0.578125 2.1875 L 1.984375 2.1875 L 1.984375 -0.640625 C 2.3125 -0.046875 2.796875 0.234375 3.484375 0.234375 C 4.78125 0.234375 5.734375 -0.984375 5.734375 -2.625 C 5.734375 -3.375 5.515625 -4.140625 5.15625 -4.640625 C 4.796875 -5.15625 4.125 -5.484375 3.484375 -5.484375 C 2.796875 -5.484375 2.3125 -5.203125 1.984375 -4.59375 L 1.984375 -5.40625 Z M 3.15625 -4.3125 C 3.875 -4.3125 4.34375 -3.625 4.34375 -2.59375 C 4.34375 -1.625 3.84375 -0.9375 3.15625 -0.9375 C 2.453125 -0.9375 1.984375 -1.609375 1.984375 -2.625 C 1.984375 -3.625 2.453125 -4.3125 3.15625 -4.3125 Z M 3.15625 -4.3125 "/>
</symbol>
<symbol overflow="visible" id="glyph0-25">
<path style="stroke:none;" d="M 4.078125 -5.40625 L 4.078125 -4.5625 C 3.65625 -5.203125 3.203125 -5.484375 2.578125 -5.484375 C 1.296875 -5.484375 0.34375 -4.234375 0.34375 -2.5625 C 0.34375 -0.890625 1.21875 0.234375 2.546875 0.234375 C 3.1875 0.234375 3.5625 0.046875 4.078125 -0.546875 L 4.078125 0.1875 C 4.078125 0.828125 3.59375 1.28125 2.890625 1.28125 C 2.359375 1.28125 2.015625 1.0625 1.90625 0.65625 L 0.453125 0.65625 C 0.453125 1.0625 0.625 1.359375 0.984375 1.65625 C 1.40625 2.015625 2.015625 2.1875 2.84375 2.1875 C 4.46875 2.1875 5.40625 1.453125 5.40625 0.1875 L 5.40625 -5.40625 L 4.078125 -5.40625 Z M 2.875 -4.3125 C 3.578125 -4.3125 4.09375 -3.59375 4.09375 -2.59375 C 4.09375 -1.609375 3.59375 -0.9375 2.859375 -0.9375 C 2.203125 -0.9375 1.734375 -1.609375 1.734375 -2.59375 C 1.734375 -3.609375 2.203125 -4.3125 2.875 -4.3125 Z M 2.875 -4.3125 "/>
</symbol>
<symbol overflow="visible" id="glyph0-26">
<path style="stroke:none;" d="M 1.984375 -3.296875 L 1.984375 -7.296875 L 0.59375 -7.296875 L 0.59375 0 L 1.984375 0 L 1.984375 -1.765625 L 2.546875 -2.375 L 3.84375 0 L 5.484375 0 L 3.515625 -3.359375 L 5.34375 -5.40625 L 3.765625 -5.40625 L 1.984375 -3.296875 Z M 1.984375 -3.296875 "/>
</symbol>
<symbol overflow="visible" id="glyph0-27">
<path style="stroke:none;" d="M 5.21875 -2.734375 L 4.484375 -2.734375 L 4.484375 -7.09375 L 2.828125 -7.09375 L 0.234375 -2.75 L 0.234375 -1.5625 L 3.078125 -1.5625 L 3.078125 0 L 4.484375 0 L 4.484375 -1.5625 L 5.21875 -1.5625 L 5.21875 -2.734375 Z M 3.078125 -2.734375 L 1.234375 -2.734375 L 3.078125 -5.765625 L 3.078125 -2.734375 Z M 3.078125 -2.734375 "/>
</symbol>
<symbol overflow="visible" id="glyph0-28">
<path style="stroke:none;" d="M 2.375 -4.890625 L 2.375 0 L 3.78125 0 L 3.78125 -7.09375 L 2.84375 -7.09375 C 2.625 -6.25 1.90625 -5.8125 0.6875 -5.8125 L 0.6875 -4.890625 L 2.375 -4.890625 Z M 2.375 -4.890625 "/>
</symbol>
<symbol overflow="visible" id="glyph0-29">
<path style="stroke:none;" d="M 2.171875 -3.171875 C 2.65625 -3.171875 2.75 -3.15625 2.984375 -3.09375 C 3.453125 -2.96875 3.765625 -2.5625 3.765625 -2.046875 C 3.765625 -1.421875 3.3125 -0.96875 2.703125 -0.96875 C 2.046875 -0.96875 1.6875 -1.34375 1.65625 -2.078125 L 0.296875 -2.078125 C 0.296875 -0.65625 1.234375 0.234375 2.6875 0.234375 C 4.1875 0.234375 5.15625 -0.65625 5.15625 -2.046875 C 5.15625 -2.875 4.796875 -3.40625 4 -3.796875 C 4.65625 -4.203125 4.9375 -4.65625 4.9375 -5.3125 C 4.9375 -6.484375 4.046875 -7.234375 2.6875 -7.234375 C 1.875 -7.234375 1.1875 -6.953125 0.796875 -6.4375 C 0.515625 -6.09375 0.375 -5.609375 0.375 -4.984375 L 0.375 -4.859375 L 1.6875 -4.859375 C 1.6875 -5.234375 1.71875 -5.4375 1.796875 -5.609375 C 1.921875 -5.921875 2.234375 -6.109375 2.65625 -6.109375 C 3.203125 -6.109375 3.53125 -5.765625 3.53125 -5.1875 C 3.53125 -4.46875 3.125 -4.109375 2.296875 -4.109375 L 2.171875 -4.109375 L 2.171875 -3.171875 Z M 2.171875 -3.171875 "/>
</symbol>
<symbol overflow="visible" id="glyph0-30">
<path style="stroke:none;" d="M 4.09375 -3.859375 C 4.328125 -3.984375 4.4375 -4.0625 4.546875 -4.15625 C 4.84375 -4.4375 5.015625 -4.859375 5.015625 -5.3125 C 5.015625 -6.4375 4.046875 -7.234375 2.734375 -7.234375 C 1.421875 -7.234375 0.453125 -6.4375 0.453125 -5.3125 C 0.453125 -4.625 0.734375 -4.203125 1.375 -3.859375 C 0.5625 -3.421875 0.21875 -2.875 0.21875 -2.046875 C 0.21875 -0.703125 1.25 0.234375 2.734375 0.234375 C 4.21875 0.234375 5.25 -0.703125 5.25 -2.046875 C 5.25 -2.875 4.90625 -3.421875 4.09375 -3.859375 Z M 2.75 -6.109375 C 3.375 -6.109375 3.796875 -5.734375 3.796875 -5.1875 C 3.796875 -4.640625 3.359375 -4.25 2.75 -4.25 C 2.125 -4.25 1.6875 -4.640625 1.6875 -5.1875 C 1.6875 -5.734375 2.125 -6.109375 2.75 -6.109375 Z M 2.734375 -3.296875 C 3.421875 -3.296875 3.84375 -2.84375 3.84375 -2.09375 C 3.84375 -1.421875 3.40625 -0.96875 2.734375 -0.96875 C 2.046875 -0.96875 1.625 -1.421875 1.625 -2.125 C 1.625 -2.84375 2.0625 -3.296875 2.734375 -3.296875 Z M 2.734375 -3.296875 "/>
</symbol>
<symbol overflow="visible" id="glyph0-31">
<path style="stroke:none;" d="M 0.765625 0 L 3.625 0 C 4.734375 0 5.4375 -0.265625 5.921875 -0.84375 C 6.5 -1.53125 6.8125 -2.515625 6.8125 -3.65625 C 6.8125 -4.765625 6.5 -5.765625 5.921875 -6.453125 C 5.4375 -7.046875 4.734375 -7.296875 3.625 -7.296875 L 0.765625 -7.296875 L 0.765625 0 Z M 2.265625 -1.25 L 2.265625 -6.046875 L 3.625 -6.046875 C 4.75 -6.046875 5.3125 -5.25 5.3125 -3.640625 C 5.3125 -2.046875 4.75 -1.25 3.625 -1.25 L 2.265625 -1.25 Z M 2.265625 -1.25 "/>
</symbol>
<symbol overflow="visible" id="glyph0-32">
<path style="stroke:none;" d="M 4.59375 -5.40625 L 0.390625 -5.40625 L 0.390625 -4.265625 L 2.875 -4.265625 L 0.203125 -1.125 L 0.203125 0 L 4.6875 0 L 4.6875 -1.125 L 1.9375 -1.125 L 4.59375 -4.265625 L 4.59375 -5.40625 Z M 4.59375 -5.40625 "/>
</symbol>
</g>
</defs>
<g id="surface0">
<path style="fill:none;stroke-width:0.000632624;stroke-linecap:butt;stroke-linejoin:miter;stroke:rgb(0%,0%,0%);stroke-opacity:1;stroke-miterlimit:10;" d="M -0.0985283 0.00603227 L -0.0369847 0.00270975 " transform="matrix(3161.435566,0,0,3161.435566,408.21756,389.577818)"/>
<path style="fill:none;stroke-width:0.000632624;stroke-linecap:butt;stroke-linejoin:miter;stroke:rgb(0%,0%,0%);stroke-opacity:1;stroke-miterlimit:10;" d="M -0.10665 -0.0419285 L -0.0715887 -0.00849708 " transform="matrix(3161.435566,0,0,3161.435566,408.21756,389.577818)"/>
<path style="fill:none;stroke-width:0.000632624;stroke-linecap:butt;stroke-linejoin:miter;stroke:rgb(0%,0%,0%);stroke-opacity:1;stroke-miterlimit:10;" d="M -0.109766 -0.0136236 L -0.0715887 -0.00849708 " transform="matrix(3161.435566,0,0,3161.435566,408.21756,389.577818)"/>
<path style="fill:none;stroke-width:0.000632624;stroke-linecap:butt;stroke-linejoin:miter;stroke:rgb(0%,0%,0%);stroke-opacity:1;stroke-miterlimit:10;" d="M -0.0787477 -0.0588834 L -0.0603238 -0.0488911 " transform="matrix(3161.435566,0,0,3161.435566,408.21756,389.577818)"/>
<path style="fill:none;stroke-width:0.000632624;stroke-linecap:butt;stroke-linejoin:miter;stroke:rgb(0%,0%,0%);stroke-opacity:1;stroke-miterlimit:10;" d="M -0.0689507 -0.0678155 L -0.0603238 -0.0488911 " transform="matrix(3161.435566,0,0,3161.435566,408.21756,389.577818)"/>
<path style="fill:none;stroke-width:0.000632624;stroke-linecap:butt;stroke-linejoin:miter;stroke:rgb(0%,0%,0%);stroke-opacity:1;stroke-miterlimit:10;" d="M 0.0206817 0.0170463 L 0.0130322 0.0086369 " transform="matrix(3161.435566,0,0,3161.435566,408.21756,389.577818)"/>
<path style="fill:none;stroke-width:0.000632624;stroke-linecap:butt;stroke-linejoin:miter;stroke:rgb(0%,0%,0%);stroke-opacity:1;stroke-miterlimit:10;" d="M 0.0250743 0.0138202 L 0.0130322 0.0086369 " transform="matrix(3161.435566,0,0,3161.435566,408.21756,389.577818)"/>
<path style="fill:none;stroke-width:0.000632624;stroke-linecap:butt;stroke-linejoin:miter;stroke:rgb(0%,0%,0%);stroke-opacity:1;stroke-miterlimit:10;" d="M -0.0251192 -0.0781277 L -0.0435246 -0.0357852 " transform="matrix(3161.435566,0,0,3161.435566,408.21756,389.577818)"/>
<path style="fill:none;stroke-width:0.000632624;stroke-linecap:butt;stroke-linejoin:miter;stroke:rgb(0%,0%,0%);stroke-opacity:1;stroke-miterlimit:10;" d="M 0.0448438 0.0100665 L 0.0196747 -0.0119024 " transform="matrix(3161.435566,0,0,3161.435566,408.21756,389.577818)"/>
<path style="fill:none;stroke-width:0.000632624;stroke-linecap:butt;stroke-linejoin:miter;stroke:rgb(0%,0%,0%);stroke-opacity:1;stroke-miterlimit:10;" d="M -0.00373482 -0.0623751 L -0.0000675813 -0.0486045 " transform="matrix(3161.435566,0,0,3161.435566,408.21756,389.577818)"/>
<path style="fill:none;stroke-width:0.000632624;stroke-linecap:butt;stroke-linejoin:miter;stroke:rgb(0%,0%,0%);stroke-opacity:1;stroke-miterlimit:10;" d="M 0.00656261 -0.0786454 L -0.0000675813 -0.0486045 " transform="matrix(3161.435566,0,0,3161.435566,408.21756,389.577818)"/>
<path style="fill:none;stroke-width:0.000632624;stroke-linecap:butt;stroke-linejoin:miter;stroke:rgb(0%,0%,0%);stroke-opacity:1;stroke-miterlimit:10;" d="M 0.0268486 -0.0607442 L 0.00904122 -0.0528611 " transform="matrix(3161.435566,0,0,3161.435566,408.21756,389.577818)"/>
<path style="fill:none;stroke-width:0.000632624;stroke-linecap:butt;stroke-linejoin:miter;stroke:rgb(0%,0%,0%);stroke-opacity:1;stroke-miterlimit:10;" d="M 0.0263828 -0.082519 L 0.00904122 -0.0528611 " transform="matrix(3161.435566,0,0,3161.435566,408.21756,389.577818)"/>
<path style="fill:none;stroke-width:0.000632624;stroke-linecap:butt;stroke-linejoin:miter;stroke:rgb(0%,0%,0%);stroke-opacity:1;stroke-miterlimit:10;" d="M -0.027069 0.0930069 L -0.0302247 0.0386816 " transform="matrix(3161.435566,0,0,3161.435566,408.21756,389.577818)"/>
<path style="fill:none;stroke-width:0.000632624;stroke-linecap:butt;stroke-linejoin:miter;stroke:rgb(0%,0%,0%);stroke-opacity:1;stroke-miterlimit:10;" d="M -0.104119 0.0479955 L -0.0800574 0.0279369 " transform="matrix(3161.435566,0,0,3161.435566,408.21756,389.577818)"/>
<path style="fill:none;stroke-width:0.000632624;stroke-linecap:butt;stroke-linejoin:miter;stroke:rgb(0%,0%,0%);stroke-opacity:1;stroke-miterlimit:10;" d="M -0.108905 0.0249937 L -0.0800574 0.0279369 " transform="matrix(3161.435566,0,0,3161.435566,408.21756,389.577818)"/>
<path style="fill:none;stroke-width:0.000632624;stroke-linecap:butt;stroke-linejoin:miter;stroke:rgb(0%,0%,0%);stroke-opacity:1;stroke-miterlimit:10;" d="M -0.0745887 -0.0413466 L -0.0488772 -0.0234206 " transform="matrix(3161.435566,0,0,3161.435566,408.21756,389.577818)"/>
<path style="fill:none;stroke-width:0.000632624;stroke-linecap:butt;stroke-linejoin:miter;stroke:rgb(0%,0%,0%);stroke-opacity:1;stroke-miterlimit:10;" d="M 0.0393602 -0.0110263 L 0.0196747 -0.0119024 " transform="matrix(3161.435566,0,0,3161.435566,408.21756,389.577818)"/>
<path style="fill:none;stroke-width:0.000632624;stroke-linecap:butt;stroke-linejoin:miter;stroke:rgb(0%,0%,0%);stroke-opacity:1;stroke-miterlimit:10;" d="M 0.0220829 0.0883265 L -0.00521136 0.0728556 " transform="matrix(3161.435566,0,0,3161.435566,408.21756,389.577818)"/>
<path style="fill:none;stroke-width:0.000632624;stroke-linecap:butt;stroke-linejoin:miter;stroke:rgb(0%,0%,0%);stroke-opacity:1;stroke-miterlimit:10;" d="M -0.000362888 0.0923237 L -0.00521136 0.0728556 " transform="matrix(3161.435566,0,0,3161.435566,408.21756,389.577818)"/>
<path style="fill:none;stroke-width:0.000632624;stroke-linecap:butt;stroke-linejoin:miter;stroke:rgb(0%,0%,0%);stroke-opacity:1;stroke-miterlimit:10;" d="M -0.050203 -0.0889441 L -0.0435246 -0.0357852 " transform="matrix(3161.435566,0,0,3161.435566,408.21756,389.577818)"/>
<path style="fill:none;stroke-width:0.000632624;stroke-linecap:butt;stroke-linejoin:miter;stroke:rgb(0%,0%,0%);stroke-opacity:1;stroke-miterlimit:10;" d="M -0.0622513 0.0671398 L -0.0501647 0.0192766 " transform="matrix(3161.435566,0,0,3161.435566,408.21756,389.577818)"/>
<path style="fill:none;stroke-width:0.000632624;stroke-linecap:butt;stroke-linejoin:miter;stroke:rgb(0%,0%,0%);stroke-opacity:1;stroke-miterlimit:10;" d="M 0.0451008 -0.0303881 L 0.0182414 -0.0297542 " transform="matrix(3161.435566,0,0,3161.435566,408.21756,389.577818)"/>
<path style="fill:none;stroke-width:0.000632624;stroke-linecap:butt;stroke-linejoin:miter;stroke:rgb(0%,0%,0%);stroke-opacity:1;stroke-miterlimit:10;" d="M -0.0418529 0.0668161 L -0.0302247 0.0386816 " transform="matrix(3161.435566,0,0,3161.435566,408.21756,389.577818)"/>
<path style="fill:none;stroke-width:0.000632624;stroke-linecap:butt;stroke-linejoin:miter;stroke:rgb(0%,0%,0%);stroke-opacity:1;stroke-miterlimit:10;" d="M 0.0407021 -0.0495151 L 0.0182414 -0.0297542 " transform="matrix(3161.435566,0,0,3161.435566,408.21756,389.577818)"/>
<path style="fill:none;stroke-width:0.000632624;stroke-linecap:butt;stroke-linejoin:miter;stroke:rgb(0%,0%,0%);stroke-opacity:1;stroke-miterlimit:10;" d="M -0.0841015 0.0623074 L -0.0501647 0.0192766 " transform="matrix(3161.435566,0,0,3161.435566,408.21756,389.577818)"/>
<path style="fill:none;stroke-width:0.000632624;stroke-linecap:butt;stroke-linejoin:miter;stroke:rgb(0%,0%,0%);stroke-opacity:1;stroke-miterlimit:10;" d="M 0.029216 0.0570166 L 0.0101743 0.0492966 " transform="matrix(3161.435566,0,0,3161.435566,408.21756,389.577818)"/>
<path style="fill:none;stroke-width:0.000632624;stroke-linecap:butt;stroke-linejoin:miter;stroke:rgb(0%,0%,0%);stroke-opacity:1;stroke-miterlimit:10;" d="M 0.0255154 0.0444716 L 0.0101743 0.0492966 " transform="matrix(3161.435566,0,0,3161.435566,408.21756,389.577818)"/>
<path style="fill:none;stroke-width:0.000632624;stroke-linecap:butt;stroke-linejoin:miter;stroke:rgb(0%,0%,0%);stroke-opacity:1;stroke-miterlimit:10;" d="M -0.0369847 0.00270975 L -0.0715887 -0.00849708 " transform="matrix(3161.435566,0,0,3161.435566,408.21756,389.577818)"/>
<path style="fill:none;stroke-width:0.000632624;stroke-linecap:butt;stroke-linejoin:miter;stroke:rgb(0%,0%,0%);stroke-opacity:1;stroke-miterlimit:10;" d="M -0.0488772 -0.0234206 L -0.0603238 -0.0488911 " transform="matrix(3161.435566,0,0,3161.435566,408.21756,389.577818)"/>
<path style="fill:none;stroke-width:0.000632624;stroke-linecap:butt;stroke-linejoin:miter;stroke:rgb(0%,0%,0%);stroke-opacity:1;stroke-miterlimit:10;" d="M -0.00934318 -0.00856875 L 0.0130322 0.0086369 " transform="matrix(3161.435566,0,0,3161.435566,408.21756,389.577818)"/>
<path style="fill:none;stroke-width:0.000632624;stroke-linecap:butt;stroke-linejoin:miter;stroke:rgb(0%,0%,0%);stroke-opacity:1;stroke-miterlimit:10;" d="M 0.00149792 -0.0406855 L -0.0000675813 -0.0486045 " transform="matrix(3161.435566,0,0,3161.435566,408.21756,389.577818)"/>
<path style="fill:none;stroke-width:0.000632624;stroke-linecap:butt;stroke-linejoin:miter;stroke:rgb(0%,0%,0%);stroke-opacity:1;stroke-miterlimit:10;" d="M 0.00149792 -0.0406855 L 0.00904122 -0.0528611 " transform="matrix(3161.435566,0,0,3161.435566,408.21756,389.577818)"/>
<path style="fill:none;stroke-width:0.000632624;stroke-linecap:butt;stroke-linejoin:miter;stroke:rgb(0%,0%,0%);stroke-opacity:1;stroke-miterlimit:10;" d="M -0.0369847 0.00270975 L -0.0800574 0.0279369 " transform="matrix(3161.435566,0,0,3161.435566,408.21756,389.577818)"/>
<path style="fill:none;stroke-width:0.000632624;stroke-linecap:butt;stroke-linejoin:miter;stroke:rgb(0%,0%,0%);stroke-opacity:1;stroke-miterlimit:10;" d="M -0.00934318 -0.00856875 L 0.0196747 -0.0119024 " transform="matrix(3161.435566,0,0,3161.435566,408.21756,389.577818)"/>
<path style="fill:none;stroke-width:0.000632624;stroke-linecap:butt;stroke-linejoin:miter;stroke:rgb(0%,0%,0%);stroke-opacity:1;stroke-miterlimit:10;" d="M -0.0301901 0.0238372 L -0.00521136 0.0728556 " transform="matrix(3161.435566,0,0,3161.435566,408.21756,389.577818)"/>
<path style="fill:none;stroke-width:0.000632624;stroke-linecap:butt;stroke-linejoin:miter;stroke:rgb(0%,0%,0%);stroke-opacity:1;stroke-miterlimit:10;" d="M -0.0438397 -0.0156746 L -0.0435246 -0.0357852 " transform="matrix(3161.435566,0,0,3161.435566,408.21756,389.577818)"/>
<path style="fill:none;stroke-width:0.000632624;stroke-linecap:butt;stroke-linejoin:miter;stroke:rgb(0%,0%,0%);stroke-opacity:1;stroke-miterlimit:10;" d="M -0.0301901 0.0238372 L -0.0302247 0.0386816 " transform="matrix(3161.435566,0,0,3161.435566,408.21756,389.577818)"/>
<path style="fill:none;stroke-width:0.000632624;stroke-linecap:butt;stroke-linejoin:miter;stroke:rgb(0%,0%,0%);stroke-opacity:1;stroke-miterlimit:10;" d="M -0.00934318 -0.00856875 L 0.0182414 -0.0297542 " transform="matrix(3161.435566,0,0,3161.435566,408.21756,389.577818)"/>
<path style="fill:none;stroke-width:0.000632624;stroke-linecap:butt;stroke-linejoin:miter;stroke:rgb(0%,0%,0%);stroke-opacity:1;stroke-miterlimit:10;" d="M -0.0369847 0.00270975 L -0.0501647 0.0192766 " transform="matrix(3161.435566,0,0,3161.435566,408.21756,389.577818)"/>
<path style="fill:none;stroke-width:0.000632624;stroke-linecap:butt;stroke-linejoin:miter;stroke:rgb(0%,0%,0%);stroke-opacity:1;stroke-miterlimit:10;" d="M -0.0301901 0.0238372 L 0.0101743 0.0492966 " transform="matrix(3161.435566,0,0,3161.435566,408.21756,389.577818)"/>
<path style="fill:none;stroke-width:0.000632624;stroke-linecap:butt;stroke-linejoin:miter;stroke:rgb(0%,0%,0%);stroke-opacity:1;stroke-miterlimit:10;" d="M -0.0438397 -0.0156746 L -0.0488772 -0.0234206 " transform="matrix(3161.435566,0,0,3161.435566,408.21756,389.577818)"/>
<path style="fill:none;stroke-width:0.000632624;stroke-linecap:butt;stroke-linejoin:miter;stroke:rgb(0%,0%,0%);stroke-opacity:1;stroke-miterlimit:10;" d="M -0.00934318 -0.00856875 L 0.00149792 -0.0406855 " transform="matrix(3161.435566,0,0,3161.435566,408.21756,389.577818)"/>
<path style="fill:none;stroke-width:0.000632624;stroke-linecap:butt;stroke-linejoin:miter;stroke:rgb(0%,0%,0%);stroke-opacity:1;stroke-miterlimit:10;" d="M -0.0369847 0.00270975 L -0.0301901 0.0238372 " transform="matrix(3161.435566,0,0,3161.435566,408.21756,389.577818)"/>
<path style="fill:none;stroke-width:0.000632624;stroke-linecap:butt;stroke-linejoin:miter;stroke:rgb(0%,0%,0%);stroke-opacity:1;stroke-miterlimit:10;" d="M -0.0369847 0.00270975 L -0.0438397 -0.0156746 " transform="matrix(3161.435566,0,0,3161.435566,408.21756,389.577818)"/>
<path style="fill:none;stroke-width:0.000632624;stroke-linecap:butt;stroke-linejoin:miter;stroke:rgb(0%,0%,0%);stroke-opacity:1;stroke-miterlimit:10;" d="M -0.0369847 0.00270975 L -0.00934318 -0.00856875 " transform="matrix(3161.435566,0,0,3161.435566,408.21756,389.577818)"/>
<path style="fill-rule:nonzero;fill:rgb(100%,100%,100%);fill-opacity:1;stroke-width:0.000316312;stroke-linecap:butt;stroke-linejoin:miter;stroke:rgb(0%,0%,0%);stroke-opacity:1;stroke-dasharray:0.00189787,0.00189787;stroke-miterlimit:10;" d="M -0.0286246 0.0238372 C -0.0286246 0.0259253 -0.0317569 0.0259253 -0.0317569 0.0238372 C -0.0317569 0.021749 -0.0286246 0.021749 -0.0286246 0.0238372 " transform="matrix(3161.435566,0,0,3161.435566,408.21756,389.577818)"/>
<path style="fill-rule:nonzero;fill:rgb(100%,100%,100%);fill-opacity:1;stroke-width:0.000316312;stroke-linecap:butt;stroke-linejoin:miter;stroke:rgb(0%,0%,0%);stroke-opacity:1;stroke-dasharray:0.00189787,0.00189787;stroke-miterlimit:10;" d="M -0.00469982 -0.00856875 C -0.00469982 -0.00600489 -0.00677809 -0.00392538 -0.00934318 -0.00392538 C -0.011907 -0.00392538 -0.0139865 -0.00600489 -0.0139865 -0.00856875 C -0.0139865 -0.0111326 -0.011907 -0.0132121 -0.00934318 -0.0132121 C -0.00677809 -0.0132121 -0.00469982 -0.0111326 -0.00469982 -0.00856875 " transform="matrix(3161.435566,0,0,3161.435566,408.21756,389.577818)"/>
<path style="fill-rule:nonzero;fill:rgb(100%,100%,100%);fill-opacity:1;stroke-width:0.000316312;stroke-linecap:butt;stroke-linejoin:miter;stroke:rgb(0%,0%,0%);stroke-opacity:1;stroke-dasharray:0.00189787,0.00189787;stroke-miterlimit:10;" d="M -0.0274916 0.00270975 C -0.0274916 0.00795238 -0.031742 0.0122028 -0.0369847 0.0122028 C -0.0422273 0.0122028 -0.0464765 0.00795238 -0.0464765 0.00270975 C -0.0464765 -0.00253287 -0.0422273 -0.00678208 -0.0369847 -0.00678208 C -0.031742 -0.00678208 -0.0274916 -0.00253287 -0.0274916 0.00270975 " transform="matrix(3161.435566,0,0,3161.435566,408.21756,389.577818)"/>
<g style="fill:rgb(0%,0%,0%);fill-opacity:1;">
  <use xlink:href="#glyph0-1" x="15.476562" y="413.597656"/>
  <use xlink:href="#glyph0-2" x="22.696548" y="413.597656"/>
  <use xlink:href="#glyph0-3" x="28.806549" y="413.597656"/>
  <use xlink:href="#glyph0-4" x="36.026535" y="413.597656"/>
  <use xlink:href="#glyph0-2" x="39.356537" y="413.597656"/>
  <use xlink:href="#glyph0-5" x="45.466537" y="413.597656"/>
  <use xlink:href="#glyph0-6" x="48.246536" y="413.597656"/>
  <use xlink:href="#glyph0-6" x="54.356537" y="413.597656"/>
  <use xlink:href="#glyph0-7" x="60.466537" y="413.597656"/>
  <use xlink:href="#glyph0-8" x="66.576538" y="413.597656"/>
  <use xlink:href="#glyph0-9" x="72.136536" y="413.597656"/>
  <use xlink:href="#glyph0-5" x="77.696533" y="413.597656"/>
  <use xlink:href="#glyph0-10" x="80.476532" y="413.597656"/>
  <use xlink:href="#glyph0-11" x="86.03653" y="413.597656"/>
</g>
<g style="fill:rgb(0%,0%,0%);fill-opacity:1;">
  <use xlink:href="#glyph0-1" x="18.265625" y="256.8125"/>
  <use xlink:href="#glyph0-2" x="25.485611" y="256.8125"/>
  <use xlink:href="#glyph0-12" x="31.595612" y="256.8125"/>
  <use xlink:href="#glyph0-4" x="34.37561" y="256.8125"/>
  <use xlink:href="#glyph0-13" x="37.705612" y="256.8125"/>
  <use xlink:href="#glyph0-14" x="43.815613" y="256.8125"/>
  <use xlink:href="#glyph0-9" x="49.925613" y="256.8125"/>
  <use xlink:href="#glyph0-15" x="55.485611" y="256.8125"/>
  <use xlink:href="#glyph0-16" x="58.26561" y="256.8125"/>
  <use xlink:href="#glyph0-10" x="64.37561" y="256.8125"/>
</g>
<g style="fill:rgb(0%,0%,0%);fill-opacity:1;">
  <use xlink:href="#glyph0-1" x="4.847656" y="349.503906"/>
  <use xlink:href="#glyph0-2" x="12.067642" y="349.503906"/>
  <use xlink:href="#glyph0-12" x="18.177643" y="349.503906"/>
  <use xlink:href="#glyph0-12" x="20.957642" y="349.503906"/>
  <use xlink:href="#glyph0-4" x="23.73764" y="349.503906"/>
  <use xlink:href="#glyph0-13" x="27.067642" y="349.503906"/>
  <use xlink:href="#glyph0-14" x="33.177643" y="349.503906"/>
  <use xlink:href="#glyph0-9" x="39.287643" y="349.503906"/>
  <use xlink:href="#glyph0-15" x="44.847641" y="349.503906"/>
  <use xlink:href="#glyph0-16" x="47.62764" y="349.503906"/>
  <use xlink:href="#glyph0-10" x="53.73764" y="349.503906"/>
</g>
<g style="fill:rgb(0%,0%,0%);fill-opacity:1;">
  <use xlink:href="#glyph0-2" x="128.679687" y="204.4375"/>
  <use xlink:href="#glyph0-17" x="134.789688" y="204.4375"/>
  <use xlink:href="#glyph0-17" x="140.349686" y="204.4375"/>
  <use xlink:href="#glyph0-18" x="145.909683" y="204.4375"/>
  <use xlink:href="#glyph0-5" x="149.239685" y="204.4375"/>
  <use xlink:href="#glyph0-17" x="152.019684" y="204.4375"/>
</g>
<g style="fill:rgb(0%,0%,0%);fill-opacity:1;">
  <use xlink:href="#glyph0-9" x="136.777344" y="173.789062"/>
  <use xlink:href="#glyph0-19" x="142.337341" y="173.789062"/>
  <use xlink:href="#glyph0-18" x="147.897339" y="173.789062"/>
  <use xlink:href="#glyph0-6" x="151.227341" y="173.789062"/>
  <use xlink:href="#glyph0-4" x="157.337341" y="173.789062"/>
  <use xlink:href="#glyph0-2" x="160.667343" y="173.789062"/>
  <use xlink:href="#glyph0-17" x="166.777344" y="173.789062"/>
  <use xlink:href="#glyph0-17" x="172.337341" y="173.789062"/>
  <use xlink:href="#glyph0-18" x="177.897339" y="173.789062"/>
  <use xlink:href="#glyph0-5" x="181.227341" y="173.789062"/>
  <use xlink:href="#glyph0-17" x="184.007339" y="173.789062"/>
</g>
<g style="fill:rgb(0%,0%,0%);fill-opacity:1;">
  <use xlink:href="#glyph0-9" x="475.742187" y="453.199219"/>
  <use xlink:href="#glyph0-19" x="481.302185" y="453.199219"/>
  <use xlink:href="#glyph0-18" x="486.862183" y="453.199219"/>
  <use xlink:href="#glyph0-6" x="490.192184" y="453.199219"/>
  <use xlink:href="#glyph0-4" x="496.302185" y="453.199219"/>
  <use xlink:href="#glyph0-20" x="499.632187" y="453.199219"/>
  <use xlink:href="#glyph0-15" x="502.962189" y="453.199219"/>
  <use xlink:href="#glyph0-21" x="505.742187" y="453.199219"/>
  <use xlink:href="#glyph0-22" x="511.302185" y="453.199219"/>
</g>
<g style="fill:rgb(0%,0%,0%);fill-opacity:1;">
  <use xlink:href="#glyph0-9" x="490.414062" y="440.679688"/>
  <use xlink:href="#glyph0-19" x="495.97406" y="440.679688"/>
  <use xlink:href="#glyph0-18" x="501.534058" y="440.679688"/>
  <use xlink:href="#glyph0-6" x="504.864059" y="440.679688"/>
  <use xlink:href="#glyph0-4" x="510.97406" y="440.679688"/>
  <use xlink:href="#glyph0-22" x="514.304062" y="440.679688"/>
  <use xlink:href="#glyph0-14" x="520.414062" y="440.679688"/>
  <use xlink:href="#glyph0-11" x="526.524063" y="440.679688"/>
  <use xlink:href="#glyph0-10" x="535.414047" y="440.679688"/>
  <use xlink:href="#glyph0-16" x="540.974045" y="440.679688"/>
</g>
<g style="fill:rgb(0%,0%,0%);fill-opacity:1;">
  <use xlink:href="#glyph0-7" x="330.074219" y="141.140625"/>
  <use xlink:href="#glyph0-23" x="336.184219" y="141.140625"/>
  <use xlink:href="#glyph0-6" x="340.074219" y="141.140625"/>
  <use xlink:href="#glyph0-21" x="346.184219" y="141.140625"/>
  <use xlink:href="#glyph0-6" x="351.744217" y="141.140625"/>
  <use xlink:href="#glyph0-24" x="357.854218" y="141.140625"/>
  <use xlink:href="#glyph0-22" x="363.964218" y="141.140625"/>
  <use xlink:href="#glyph0-15" x="370.074219" y="141.140625"/>
  <use xlink:href="#glyph0-5" x="372.854218" y="141.140625"/>
  <use xlink:href="#glyph0-10" x="375.634216" y="141.140625"/>
</g>
<g style="fill:rgb(0%,0%,0%);fill-opacity:1;">
  <use xlink:href="#glyph0-22" x="552.386719" y="430.578125"/>
  <use xlink:href="#glyph0-10" x="558.496719" y="430.578125"/>
  <use xlink:href="#glyph0-25" x="564.056717" y="430.578125"/>
  <use xlink:href="#glyph0-20" x="570.166718" y="430.578125"/>
  <use xlink:href="#glyph0-15" x="573.496719" y="430.578125"/>
  <use xlink:href="#glyph0-21" x="576.276718" y="430.578125"/>
  <use xlink:href="#glyph0-22" x="581.836716" y="430.578125"/>
</g>
<g style="fill:rgb(0%,0%,0%);fill-opacity:1;">
  <use xlink:href="#glyph0-22" x="304.6875" y="190.609375"/>
  <use xlink:href="#glyph0-17" x="310.797501" y="190.609375"/>
  <use xlink:href="#glyph0-11" x="316.357498" y="190.609375"/>
  <use xlink:href="#glyph0-6" x="325.247482" y="190.609375"/>
  <use xlink:href="#glyph0-4" x="331.357483" y="190.609375"/>
  <use xlink:href="#glyph0-10" x="334.687485" y="190.609375"/>
  <use xlink:href="#glyph0-5" x="340.247482" y="190.609375"/>
  <use xlink:href="#glyph0-24" x="343.027481" y="190.609375"/>
  <use xlink:href="#glyph0-22" x="349.137482" y="190.609375"/>
  <use xlink:href="#glyph0-10" x="355.247482" y="190.609375"/>
  <use xlink:href="#glyph0-4" x="360.80748" y="190.609375"/>
  <use xlink:href="#glyph0-22" x="364.137482" y="190.609375"/>
  <use xlink:href="#glyph0-14" x="370.247482" y="190.609375"/>
  <use xlink:href="#glyph0-11" x="376.357483" y="190.609375"/>
  <use xlink:href="#glyph0-10" x="385.247467" y="190.609375"/>
  <use xlink:href="#glyph0-16" x="390.807465" y="190.609375"/>
</g>
<g style="fill:rgb(0%,0%,0%);fill-opacity:1;">
  <use xlink:href="#glyph0-22" x="429.652344" y="139.101562"/>
  <use xlink:href="#glyph0-17" x="435.762344" y="139.101562"/>
  <use xlink:href="#glyph0-11" x="441.322342" y="139.101562"/>
  <use xlink:href="#glyph0-6" x="450.212326" y="139.101562"/>
  <use xlink:href="#glyph0-4" x="456.322327" y="139.101562"/>
  <use xlink:href="#glyph0-10" x="459.652328" y="139.101562"/>
  <use xlink:href="#glyph0-5" x="465.212326" y="139.101562"/>
  <use xlink:href="#glyph0-24" x="467.992325" y="139.101562"/>
  <use xlink:href="#glyph0-22" x="474.102325" y="139.101562"/>
  <use xlink:href="#glyph0-10" x="480.212326" y="139.101562"/>
  <use xlink:href="#glyph0-4" x="485.772324" y="139.101562"/>
  <use xlink:href="#glyph0-21" x="489.102325" y="139.101562"/>
  <use xlink:href="#glyph0-22" x="494.662323" y="139.101562"/>
  <use xlink:href="#glyph0-10" x="500.772324" y="139.101562"/>
  <use xlink:href="#glyph0-23" x="506.332321" y="139.101562"/>
  <use xlink:href="#glyph0-26" x="510.222321" y="139.101562"/>
</g>
<g style="fill:rgb(0%,0%,0%);fill-opacity:1;">
  <use xlink:href="#glyph0-22" x="495.789062" y="198.972656"/>
  <use xlink:href="#glyph0-17" x="501.899063" y="198.972656"/>
  <use xlink:href="#glyph0-11" x="507.459061" y="198.972656"/>
  <use xlink:href="#glyph0-6" x="516.349045" y="198.972656"/>
  <use xlink:href="#glyph0-4" x="522.459045" y="198.972656"/>
  <use xlink:href="#glyph0-2" x="525.789047" y="198.972656"/>
  <use xlink:href="#glyph0-17" x="531.899048" y="198.972656"/>
  <use xlink:href="#glyph0-18" x="537.459045" y="198.972656"/>
  <use xlink:href="#glyph0-10" x="540.789047" y="198.972656"/>
  <use xlink:href="#glyph0-4" x="546.349045" y="198.972656"/>
  <use xlink:href="#glyph0-22" x="549.679047" y="198.972656"/>
  <use xlink:href="#glyph0-14" x="555.789047" y="198.972656"/>
  <use xlink:href="#glyph0-11" x="561.899048" y="198.972656"/>
  <use xlink:href="#glyph0-10" x="570.789032" y="198.972656"/>
  <use xlink:href="#glyph0-16" x="576.34903" y="198.972656"/>
</g>
<g style="fill:rgb(0%,0%,0%);fill-opacity:1;">
  <use xlink:href="#glyph0-22" x="493.109375" y="127.488281"/>
  <use xlink:href="#glyph0-17" x="499.219376" y="127.488281"/>
  <use xlink:href="#glyph0-11" x="504.779373" y="127.488281"/>
  <use xlink:href="#glyph0-6" x="513.669357" y="127.488281"/>
  <use xlink:href="#glyph0-4" x="519.779358" y="127.488281"/>
  <use xlink:href="#glyph0-2" x="523.10936" y="127.488281"/>
  <use xlink:href="#glyph0-17" x="529.21936" y="127.488281"/>
  <use xlink:href="#glyph0-18" x="534.779358" y="127.488281"/>
  <use xlink:href="#glyph0-10" x="538.10936" y="127.488281"/>
  <use xlink:href="#glyph0-4" x="543.669357" y="127.488281"/>
  <use xlink:href="#glyph0-21" x="546.999359" y="127.488281"/>
  <use xlink:href="#glyph0-22" x="552.559357" y="127.488281"/>
  <use xlink:href="#glyph0-10" x="558.669357" y="127.488281"/>
  <use xlink:href="#glyph0-23" x="564.229355" y="127.488281"/>
  <use xlink:href="#glyph0-26" x="568.119354" y="127.488281"/>
</g>
<g style="fill:rgb(0%,0%,0%);fill-opacity:1;">
  <use xlink:href="#glyph0-22" x="322.824219" y="695.085938"/>
  <use xlink:href="#glyph0-17" x="328.934219" y="695.085938"/>
  <use xlink:href="#glyph0-11" x="334.494217" y="695.085938"/>
  <use xlink:href="#glyph0-6" x="343.384201" y="695.085938"/>
  <use xlink:href="#glyph0-4" x="349.494202" y="695.085938"/>
  <use xlink:href="#glyph0-24" x="352.824203" y="695.085938"/>
  <use xlink:href="#glyph0-6" x="358.934204" y="695.085938"/>
  <use xlink:href="#glyph0-5" x="365.044205" y="695.085938"/>
  <use xlink:href="#glyph0-19" x="367.824203" y="695.085938"/>
  <use xlink:href="#glyph0-9" x="373.384201" y="695.085938"/>
  <use xlink:href="#glyph0-22" x="378.944199" y="695.085938"/>
  <use xlink:href="#glyph0-10" x="385.054199" y="695.085938"/>
  <use xlink:href="#glyph0-17" x="390.614197" y="695.085938"/>
  <use xlink:href="#glyph0-18" x="396.174194" y="695.085938"/>
  <use xlink:href="#glyph0-17" x="399.504196" y="695.085938"/>
  <use xlink:href="#glyph0-4" x="405.064194" y="695.085938"/>
  <use xlink:href="#glyph0-27" x="408.394196" y="695.085938"/>
</g>
<g style="fill:rgb(0%,0%,0%);fill-opacity:1;">
  <use xlink:href="#glyph0-22" x="2.011719" y="548.769531"/>
  <use xlink:href="#glyph0-17" x="8.121719" y="548.769531"/>
  <use xlink:href="#glyph0-11" x="13.681717" y="548.769531"/>
  <use xlink:href="#glyph0-6" x="22.571701" y="548.769531"/>
  <use xlink:href="#glyph0-4" x="28.681702" y="548.769531"/>
  <use xlink:href="#glyph0-18" x="32.011703" y="548.769531"/>
  <use xlink:href="#glyph0-14" x="35.341705" y="548.769531"/>
  <use xlink:href="#glyph0-16" x="41.451706" y="548.769531"/>
  <use xlink:href="#glyph0-15" x="47.561707" y="548.769531"/>
  <use xlink:href="#glyph0-9" x="50.341705" y="548.769531"/>
  <use xlink:href="#glyph0-10" x="55.901703" y="548.769531"/>
  <use xlink:href="#glyph0-18" x="61.4617" y="548.769531"/>
  <use xlink:href="#glyph0-17" x="64.791702" y="548.769531"/>
  <use xlink:href="#glyph0-4" x="70.3517" y="548.769531"/>
  <use xlink:href="#glyph0-28" x="73.681702" y="548.769531"/>
</g>
<g style="fill:rgb(0%,0%,0%);fill-opacity:1;">
  <use xlink:href="#glyph0-22" x="-15.160156" y="471.773438"/>
  <use xlink:href="#glyph0-17" x="-9.050156" y="471.773438"/>
  <use xlink:href="#glyph0-11" x="-3.490158" y="471.773438"/>
  <use xlink:href="#glyph0-6" x="5.399826" y="471.773438"/>
  <use xlink:href="#glyph0-4" x="11.509827" y="471.773438"/>
  <use xlink:href="#glyph0-18" x="14.839828" y="471.773438"/>
  <use xlink:href="#glyph0-14" x="18.16983" y="471.773438"/>
  <use xlink:href="#glyph0-16" x="24.279831" y="471.773438"/>
  <use xlink:href="#glyph0-15" x="30.389832" y="471.773438"/>
  <use xlink:href="#glyph0-9" x="33.16983" y="471.773438"/>
  <use xlink:href="#glyph0-10" x="38.729828" y="471.773438"/>
  <use xlink:href="#glyph0-18" x="44.289825" y="471.773438"/>
  <use xlink:href="#glyph0-17" x="47.619827" y="471.773438"/>
  <use xlink:href="#glyph0-4" x="53.179825" y="471.773438"/>
  <use xlink:href="#glyph0-29" x="56.509827" y="471.773438"/>
</g>
<g style="fill:rgb(0%,0%,0%);fill-opacity:1;">
  <use xlink:href="#glyph0-22" x="124.101562" y="259.75"/>
  <use xlink:href="#glyph0-6" x="130.211563" y="259.75"/>
  <use xlink:href="#glyph0-16" x="136.321564" y="259.75"/>
  <use xlink:href="#glyph0-17" x="142.431564" y="259.75"/>
  <use xlink:href="#glyph0-19" x="147.991562" y="259.75"/>
  <use xlink:href="#glyph0-2" x="153.551559" y="259.75"/>
  <use xlink:href="#glyph0-17" x="159.66156" y="259.75"/>
  <use xlink:href="#glyph0-17" x="165.221558" y="259.75"/>
</g>
<g style="fill:rgb(0%,0%,0%);fill-opacity:1;">
  <use xlink:href="#glyph0-5" x="535.832031" y="359.761719"/>
  <use xlink:href="#glyph0-10" x="538.61203" y="359.761719"/>
  <use xlink:href="#glyph0-11" x="544.172028" y="359.761719"/>
  <use xlink:href="#glyph0-24" x="553.062012" y="359.761719"/>
  <use xlink:href="#glyph0-23" x="559.172012" y="359.761719"/>
  <use xlink:href="#glyph0-17" x="563.062012" y="359.761719"/>
  <use xlink:href="#glyph0-19" x="568.622009" y="359.761719"/>
</g>
<g style="fill:rgb(0%,0%,0%);fill-opacity:1;">
  <use xlink:href="#glyph0-5" x="480.804688" y="676.882812"/>
  <use xlink:href="#glyph0-17" x="483.584686" y="676.882812"/>
  <use xlink:href="#glyph0-25" x="489.144684" y="676.882812"/>
  <use xlink:href="#glyph0-22" x="495.254684" y="676.882812"/>
  <use xlink:href="#glyph0-17" x="501.364685" y="676.882812"/>
  <use xlink:href="#glyph0-11" x="506.924683" y="676.882812"/>
  <use xlink:href="#glyph0-6" x="515.814667" y="676.882812"/>
  <use xlink:href="#glyph0-4" x="521.924667" y="676.882812"/>
  <use xlink:href="#glyph0-24" x="525.254669" y="676.882812"/>
  <use xlink:href="#glyph0-17" x="531.36467" y="676.882812"/>
  <use xlink:href="#glyph0-10" x="536.924667" y="676.882812"/>
</g>
<g style="fill:rgb(0%,0%,0%);fill-opacity:1;">
  <use xlink:href="#glyph0-5" x="407.839844" y="692.734375"/>
  <use xlink:href="#glyph0-17" x="410.619843" y="692.734375"/>
  <use xlink:href="#glyph0-25" x="416.17984" y="692.734375"/>
  <use xlink:href="#glyph0-22" x="422.289841" y="692.734375"/>
  <use xlink:href="#glyph0-17" x="428.399841" y="692.734375"/>
  <use xlink:href="#glyph0-11" x="433.959839" y="692.734375"/>
  <use xlink:href="#glyph0-6" x="442.849823" y="692.734375"/>
  <use xlink:href="#glyph0-4" x="448.959824" y="692.734375"/>
  <use xlink:href="#glyph0-23" x="452.289825" y="692.734375"/>
  <use xlink:href="#glyph0-15" x="456.179825" y="692.734375"/>
  <use xlink:href="#glyph0-9" x="458.959824" y="692.734375"/>
  <use xlink:href="#glyph0-17" x="464.519821" y="692.734375"/>
</g>
<g style="fill:rgb(0%,0%,0%);fill-opacity:1;">
  <use xlink:href="#glyph0-11" x="211.671875" y="106.4375"/>
  <use xlink:href="#glyph0-15" x="220.561859" y="106.4375"/>
  <use xlink:href="#glyph0-7" x="223.341858" y="106.4375"/>
  <use xlink:href="#glyph0-25" x="229.451859" y="106.4375"/>
  <use xlink:href="#glyph0-17" x="235.561859" y="106.4375"/>
  <use xlink:href="#glyph0-4" x="241.121857" y="106.4375"/>
  <use xlink:href="#glyph0-30" x="244.451859" y="106.4375"/>
</g>
<g style="fill:rgb(0%,0%,0%);fill-opacity:1;">
  <use xlink:href="#glyph0-11" x="143.203125" y="613.113281"/>
  <use xlink:href="#glyph0-19" x="152.093109" y="613.113281"/>
  <use xlink:href="#glyph0-6" x="157.653107" y="613.113281"/>
  <use xlink:href="#glyph0-4" x="163.763107" y="613.113281"/>
  <use xlink:href="#glyph0-31" x="167.093109" y="613.113281"/>
  <use xlink:href="#glyph0-6" x="174.313095" y="613.113281"/>
  <use xlink:href="#glyph0-5" x="180.423096" y="613.113281"/>
  <use xlink:href="#glyph0-10" x="183.203094" y="613.113281"/>
  <use xlink:href="#glyph0-2" x="188.763092" y="613.113281"/>
  <use xlink:href="#glyph0-17" x="194.873093" y="613.113281"/>
  <use xlink:href="#glyph0-5" x="200.43309" y="613.113281"/>
  <use xlink:href="#glyph0-5" x="203.213089" y="613.113281"/>
  <use xlink:href="#glyph0-10" x="205.993088" y="613.113281"/>
</g>
<g style="fill:rgb(0%,0%,0%);fill-opacity:1;">
  <use xlink:href="#glyph0-11" x="553.984375" y="298.089844"/>
  <use xlink:href="#glyph0-19" x="562.874359" y="298.089844"/>
  <use xlink:href="#glyph0-6" x="568.434357" y="298.089844"/>
  <use xlink:href="#glyph0-4" x="574.544357" y="298.089844"/>
  <use xlink:href="#glyph0-22" x="577.874359" y="298.089844"/>
  <use xlink:href="#glyph0-14" x="583.98436" y="298.089844"/>
  <use xlink:href="#glyph0-11" x="590.09436" y="298.089844"/>
  <use xlink:href="#glyph0-10" x="598.984344" y="298.089844"/>
  <use xlink:href="#glyph0-16" x="604.544342" y="298.089844"/>
</g>
<g style="fill:rgb(0%,0%,0%);fill-opacity:1;">
  <use xlink:href="#glyph0-11" x="199.460937" y="611.785156"/>
  <use xlink:href="#glyph0-19" x="208.350922" y="611.785156"/>
  <use xlink:href="#glyph0-6" x="213.910919" y="611.785156"/>
  <use xlink:href="#glyph0-4" x="220.02092" y="611.785156"/>
  <use xlink:href="#glyph0-24" x="223.350922" y="611.785156"/>
  <use xlink:href="#glyph0-6" x="229.460922" y="611.785156"/>
  <use xlink:href="#glyph0-5" x="235.570923" y="611.785156"/>
  <use xlink:href="#glyph0-19" x="238.350922" y="611.785156"/>
  <use xlink:href="#glyph0-9" x="243.910919" y="611.785156"/>
  <use xlink:href="#glyph0-22" x="249.470917" y="611.785156"/>
  <use xlink:href="#glyph0-10" x="255.580917" y="611.785156"/>
  <use xlink:href="#glyph0-17" x="261.140915" y="611.785156"/>
  <use xlink:href="#glyph0-18" x="266.700912" y="611.785156"/>
  <use xlink:href="#glyph0-17" x="270.030914" y="611.785156"/>
</g>
<g style="fill:rgb(0%,0%,0%);fill-opacity:1;">
  <use xlink:href="#glyph0-11" x="539.285156" y="233.328125"/>
  <use xlink:href="#glyph0-19" x="548.17514" y="233.328125"/>
  <use xlink:href="#glyph0-6" x="553.735138" y="233.328125"/>
  <use xlink:href="#glyph0-4" x="559.845139" y="233.328125"/>
  <use xlink:href="#glyph0-21" x="563.17514" y="233.328125"/>
  <use xlink:href="#glyph0-22" x="568.735138" y="233.328125"/>
  <use xlink:href="#glyph0-10" x="574.845139" y="233.328125"/>
  <use xlink:href="#glyph0-23" x="580.405136" y="233.328125"/>
  <use xlink:href="#glyph0-26" x="584.295135" y="233.328125"/>
</g>
<g style="fill:rgb(0%,0%,0%);fill-opacity:1;">
  <use xlink:href="#glyph0-11" x="94.996094" y="596.59375"/>
  <use xlink:href="#glyph0-19" x="103.886078" y="596.59375"/>
  <use xlink:href="#glyph0-6" x="109.446075" y="596.59375"/>
  <use xlink:href="#glyph0-4" x="115.556076" y="596.59375"/>
  <use xlink:href="#glyph0-21" x="118.886078" y="596.59375"/>
  <use xlink:href="#glyph0-16" x="124.446075" y="596.59375"/>
  <use xlink:href="#glyph0-10" x="130.556076" y="596.59375"/>
  <use xlink:href="#glyph0-15" x="136.116074" y="596.59375"/>
  <use xlink:href="#glyph0-5" x="138.896072" y="596.59375"/>
</g>
<g style="fill:rgb(0%,0%,0%);fill-opacity:1;">
  <use xlink:href="#glyph0-16" x="503.308594" y="575.761719"/>
  <use xlink:href="#glyph0-17" x="509.418594" y="575.761719"/>
  <use xlink:href="#glyph0-14" x="514.978592" y="575.761719"/>
  <use xlink:href="#glyph0-23" x="521.088593" y="575.761719"/>
  <use xlink:href="#glyph0-6" x="524.978592" y="575.761719"/>
  <use xlink:href="#glyph0-4" x="531.088593" y="575.761719"/>
  <use xlink:href="#glyph0-22" x="534.418594" y="575.761719"/>
  <use xlink:href="#glyph0-14" x="540.528595" y="575.761719"/>
  <use xlink:href="#glyph0-11" x="546.638596" y="575.761719"/>
  <use xlink:href="#glyph0-10" x="555.52858" y="575.761719"/>
  <use xlink:href="#glyph0-16" x="561.088577" y="575.761719"/>
</g>
<g style="fill:rgb(0%,0%,0%);fill-opacity:1;">
  <use xlink:href="#glyph0-16" x="491.6875" y="532.207031"/>
  <use xlink:href="#glyph0-17" x="497.797501" y="532.207031"/>
  <use xlink:href="#glyph0-14" x="503.357498" y="532.207031"/>
  <use xlink:href="#glyph0-23" x="509.467499" y="532.207031"/>
  <use xlink:href="#glyph0-6" x="513.357498" y="532.207031"/>
  <use xlink:href="#glyph0-4" x="519.467499" y="532.207031"/>
  <use xlink:href="#glyph0-32" x="522.797501" y="532.207031"/>
  <use xlink:href="#glyph0-17" x="527.797501" y="532.207031"/>
  <use xlink:href="#glyph0-2" x="533.357498" y="532.207031"/>
  <use xlink:href="#glyph0-23" x="539.467499" y="532.207031"/>
  <use xlink:href="#glyph0-10" x="543.357498" y="532.207031"/>
  <use xlink:href="#glyph0-20" x="548.917496" y="532.207031"/>
  <use xlink:href="#glyph0-15" x="552.247498" y="532.207031"/>
  <use xlink:href="#glyph0-21" x="555.027496" y="532.207031"/>
  <use xlink:href="#glyph0-22" x="560.587494" y="532.207031"/>
</g>
</g>
</svg>
