<?xml version="1.0" encoding="UTF-8"?>
<svg xmlns="http://www.w3.org/2000/svg" xmlns:xlink="http://www.w3.org/1999/xlink" width="612pt" height="792pt" viewBox="0 0 612 792" version="1.1">
<defs>
<g>
<symbol overflow="visible" id="glyph0-0">
<path style="stroke:none;" d=""/>
</symbol>
<symbol overflow="visible" id="glyph0-1">
<path style="stroke:none;" d="M 5.0625 -3.3125 L 5.0625 0 L 6.5625 0 L 6.5625 -7.296875 L 5.0625 -7.296875 L 5.0625 -4.5625 L 2.1875 -4.5625 L 2.1875 -7.296875 L 0.6875 -7.296875 L 0.6875 0 L 2.1875 0 L 2.1875 -3.3125 L 5.0625 -3.3125 Z M 5.0625 -3.3125 "/>
</symbol>
<symbol overflow="visible" id="glyph0-2">
<path style="stroke:none;" d="M 0.59375 -7.296875 L 0.59375 0 L 1.984375 0 L 1.984375 -0.546875 C 2.328125 -0.015625 2.796875 0.234375 3.484375 0.234375 C 4.765625 0.234375 5.75 -1 5.75 -2.625 C 5.75 -3.359375 5.53125 -4.09375 5.171875 -4.625 C 4.796875 -5.15625 4.140625 -5.484375 3.484375 -5.484375 C 2.8125 -5.484375 2.328125 -5.234375 1.984375 -4.703125 L 1.984375 -7.296875 L 0.59375 -7.296875 Z M 3.171875 -4.3125 C 3.859375 -4.3125 4.34375 -3.625 4.34375 -2.625 C 4.34375 -1.640625 3.859375 -0.9375 3.171875 -0.9375 C 2.453125 -0.9375 1.984375 -1.625 1.984375 -2.65625 C 1.984375 -3.625 2.46875 -4.3125 3.171875 -4.3125 Z M 3.171875 -4.3125 "/>
</symbol>
<symbol overflow="visible" id="glyph0-3">
<path style="stroke:none;" d="M 5.015625 -1.46875 L 5.484375 0 L 7.03125 0 L 4.515625 -7.296875 L 2.84375 -7.296875 L 0.265625 0 L 1.796875 0 L 2.28125 -1.46875 L 5.015625 -1.46875 Z M 4.59375 -2.71875 L 2.703125 -2.71875 L 3.65625 -5.5625 L 4.59375 -2.71875 Z M 4.59375 -2.71875 "/>
</symbol>
<symbol overflow="visible" id="glyph0-4">
<path style="stroke:none;" d="M 2.984375 -3.421875 L 0.265625 -3.421875 L 0.265625 -2.0625 L 2.984375 -2.0625 L 2.984375 -3.421875 Z M 2.984375 -3.421875 "/>
</symbol>
<symbol overflow="visible" id="glyph0-5">
<path style="stroke:none;" d="M 2.0625 -7.296875 L 0.671875 -7.296875 L 0.671875 0 L 2.0625 0 L 2.0625 -7.296875 Z M 2.0625 -7.296875 "/>
</symbol>
<symbol overflow="visible" id="glyph0-6">
<path style="stroke:none;" d="M 3.015625 -5.484375 C 1.359375 -5.484375 0.34375 -4.40625 0.34375 -2.625 C 0.34375 -0.84375 1.359375 0.234375 3.015625 0.234375 C 4.65625 0.234375 5.6875 -0.859375 5.6875 -2.59375 C 5.6875 -4.421875 4.703125 -5.484375 3.015625 -5.484375 Z M 3.015625 -4.359375 C 3.796875 -4.359375 4.296875 -3.671875 4.296875 -2.609375 C 4.296875 -1.59375 3.765625 -0.90625 3.015625 -0.90625 C 2.265625 -0.90625 1.75 -1.59375 1.75 -2.625 C 1.75 -3.65625 2.265625 -4.359375 3.015625 -4.359375 Z M 3.015625 -4.359375 "/>
</symbol>
<symbol overflow="visible" id="glyph0-7">
<path style="stroke:none;" d="M 4.046875 0 L 5.453125 0 L 5.453125 -7.296875 L 4.046875 -7.296875 L 4.046875 -4.703125 C 3.703125 -5.234375 3.234375 -5.484375 2.5625 -5.484375 C 1.265625 -5.484375 0.296875 -4.25 0.296875 -2.625 C 0.296875 -1.890625 0.515625 -1.15625 0.875 -0.625 C 1.234375 -0.109375 1.90625 0.234375 2.5625 0.234375 C 3.234375 0.234375 3.703125 -0.015625 4.046875 -0.546875 L 4.046875 0 Z M 2.875 -4.3125 C 3.578125 -4.3125 4.046875 -3.625 4.046875 -2.59375 C 4.046875 -1.625 3.5625 -0.9375 2.875 -0.9375 C 2.171875 -0.9375 1.6875 -1.625 1.6875 -2.625 C 1.6875 -3.625 2.171875 -4.3125 2.875 -4.3125 Z M 2.875 -4.3125 "/>
</symbol>
<symbol overflow="visible" id="glyph0-8">
<path style="stroke:none;" d="M 5.78125 1.203125 L -0.21875 1.203125 L -0.21875 1.890625 L 5.78125 1.890625 L 5.78125 1.203125 Z M 5.78125 1.203125 "/>
</symbol>
<symbol overflow="visible" id="glyph0-9">
<path style="stroke:none;" d="M 5.21875 -3.375 C 5.125 -4.703125 4.234375 -5.484375 2.890625 -5.484375 C 1.28125 -5.484375 0.34375 -4.4375 0.34375 -2.59375 C 0.34375 -0.8125 1.265625 0.234375 2.875 0.234375 C 4.1875 0.234375 5.09375 -0.578125 5.21875 -1.875 L 3.875 -1.875 C 3.703125 -1.171875 3.421875 -0.90625 2.875 -0.90625 C 2.171875 -0.90625 1.734375 -1.546875 1.734375 -2.59375 C 1.734375 -3.09375 1.84375 -3.578125 2.015625 -3.90625 C 2.171875 -4.203125 2.484375 -4.359375 2.875 -4.359375 C 3.453125 -4.359375 3.71875 -4.09375 3.875 -3.375 L 5.21875 -3.375 Z M 5.21875 -3.375 "/>
</symbol>
<symbol overflow="visible" id="glyph0-10">
<path style="stroke:none;" d="M 5.234375 -0.171875 C 4.984375 -0.40625 4.921875 -0.546875 4.921875 -0.828125 L 4.921875 -3.828125 C 4.921875 -4.9375 4.171875 -5.484375 2.703125 -5.484375 C 1.25 -5.484375 0.484375 -4.875 0.40625 -3.625 L 1.75 -3.625 C 1.8125 -4.1875 2.046875 -4.359375 2.734375 -4.359375 C 3.28125 -4.359375 3.546875 -4.1875 3.546875 -3.8125 C 3.546875 -3.640625 3.453125 -3.484375 3.3125 -3.40625 C 3.125 -3.296875 3.125 -3.296875 2.4375 -3.1875 L 1.875 -3.09375 C 0.796875 -2.90625 0.28125 -2.359375 0.28125 -1.390625 C 0.28125 -0.9375 0.40625 -0.546875 0.65625 -0.28125 C 0.96875 0.046875 1.4375 0.234375 1.921875 0.234375 C 2.515625 0.234375 3.0625 -0.03125 3.5625 -0.546875 C 3.5625 -0.265625 3.59375 -0.15625 3.71875 0 L 5.234375 0 L 5.234375 -0.171875 Z M 3.546875 -2.171875 C 3.546875 -1.359375 3.15625 -0.90625 2.4375 -0.90625 C 1.96875 -0.90625 1.6875 -1.15625 1.6875 -1.546875 C 1.6875 -1.96875 1.90625 -2.171875 2.484375 -2.296875 L 2.953125 -2.375 C 3.328125 -2.453125 3.390625 -2.46875 3.546875 -2.546875 L 3.546875 -2.171875 Z M 3.546875 -2.171875 "/>
</symbol>
<symbol overflow="visible" id="glyph0-11">
<path style="stroke:none;" d="M 0.59375 -5.40625 L 0.59375 0 L 2 0 L 2 -3.234375 C 2 -3.90625 2.359375 -4.296875 2.953125 -4.296875 C 3.4375 -4.296875 3.71875 -4.03125 3.71875 -3.59375 L 3.71875 0 L 5.125 0 L 5.125 -3.234375 C 5.125 -3.90625 5.484375 -4.296875 6.078125 -4.296875 C 6.546875 -4.296875 6.84375 -4.03125 6.84375 -3.59375 L 6.84375 0 L 8.234375 0 L 8.234375 -3.8125 C 8.234375 -4.875 7.59375 -5.484375 6.515625 -5.484375 C 5.84375 -5.484375 5.359375 -5.25 4.9375 -4.6875 C 4.6875 -5.203125 4.140625 -5.484375 3.46875 -5.484375 C 2.84375 -5.484375 2.453125 -5.28125 1.984375 -4.734375 L 1.984375 -5.40625 L 0.59375 -5.40625 Z M 0.59375 -5.40625 "/>
</symbol>
<symbol overflow="visible" id="glyph0-12">
<path style="stroke:none;" d="M 2.125 -7.296875 L 0.625 -7.296875 L 0.625 0 L 2.125 0 L 2.125 -7.296875 Z M 2.125 -7.296875 "/>
</symbol>
<symbol overflow="visible" id="glyph0-13">
<path style="stroke:none;" d="M 2.296875 -7.296875 L 0.796875 -7.296875 L 0.796875 0 L 5.796875 0 L 5.796875 -1.25 L 2.296875 -1.25 L 2.296875 -7.296875 Z M 2.296875 -7.296875 "/>
</symbol>
<symbol overflow="visible" id="glyph0-14">
<path style="stroke:none;" d="M 5.40625 0 L 5.40625 -5.40625 L 4.015625 -5.40625 L 4.015625 -2.015625 C 4.015625 -1.375 3.5625 -0.953125 2.875 -0.953125 C 2.28125 -0.953125 1.984375 -1.28125 1.984375 -1.9375 L 1.984375 -5.40625 L 0.578125 -5.40625 L 0.578125 -1.640625 C 0.578125 -0.453125 1.234375 0.234375 2.390625 0.234375 C 3.125 0.234375 3.609375 -0.046875 4.015625 -0.640625 L 4.015625 0 L 5.40625 0 Z M 5.40625 0 "/>
</symbol>
<symbol overflow="visible" id="glyph0-15">
<path style="stroke:none;" d="M 2.0625 -5.40625 L 0.671875 -5.40625 L 0.671875 0 L 2.0625 0 L 2.0625 -5.40625 Z M 2.0625 -7.296875 L 0.671875 -7.296875 L 0.671875 -6.046875 L 2.0625 -6.046875 L 2.0625 -7.296875 Z M 2.0625 -7.296875 "/>
</symbol>
<symbol overflow="visible" id="glyph0-16">
<path style="stroke:none;" d="M 0.625 -5.40625 L 0.625 0 L 2.03125 0 L 2.03125 -3.234375 C 2.03125 -3.875 2.484375 -4.296875 3.15625 -4.296875 C 3.765625 -4.296875 4.0625 -3.96875 4.0625 -3.328125 L 4.0625 0 L 5.453125 0 L 5.453125 -3.625 C 5.453125 -4.8125 4.796875 -5.484375 3.65625 -5.484375 C 2.921875 -5.484375 2.4375 -5.21875 2.03125 -4.625 L 2.03125 -5.40625 L 0.625 -5.40625 Z M 0.625 -5.40625 "/>
</symbol>
<symbol overflow="visible" id="glyph0-17">
<path style="stroke:none;" d="M 5.234375 -2.265625 C 5.25 -2.375 5.25 -2.4375 5.25 -2.5 C 5.25 -3.046875 5.171875 -3.546875 5.046875 -3.921875 C 4.6875 -4.90625 3.8125 -5.484375 2.71875 -5.484375 C 1.171875 -5.484375 0.21875 -4.375 0.21875 -2.5625 C 0.21875 -0.828125 1.15625 0.234375 2.6875 0.234375 C 3.90625 0.234375 4.875 -0.453125 5.1875 -1.515625 L 3.8125 -1.515625 C 3.640625 -1.09375 3.25 -0.84375 2.734375 -0.84375 C 2.34375 -0.84375 2.015625 -1.015625 1.8125 -1.3125 C 1.6875 -1.515625 1.640625 -1.75 1.625 -2.265625 L 5.234375 -2.265625 Z M 1.640625 -3.1875 C 1.734375 -4.015625 2.078125 -4.421875 2.703125 -4.421875 C 3.046875 -4.421875 3.375 -4.25 3.5625 -3.96875 C 3.703125 -3.765625 3.765625 -3.5625 3.796875 -3.1875 L 1.640625 -3.1875 Z M 1.640625 -3.1875 "/>
</symbol>
<symbol overflow="visible" id="glyph0-18">
<path style="stroke:none;" d="M 3.015625 -5.296875 L 2.234375 -5.296875 L 2.234375 -6.734375 L 0.828125 -6.734375 L 0.828125 -5.296875 L 0.140625 -5.296875 L 0.140625 -4.359375 L 0.828125 -4.359375 L 0.828125 -1.046875 C 0.828125 -0.1875 1.28125 0.234375 2.203125 0.234375 C 2.515625 0.234375 2.765625 0.203125 3.015625 0.125 L 3.015625 -0.859375 C 2.875 -0.84375 2.796875 -0.828125 2.6875 -0.828125 C 2.3125 -0.828125 2.234375 -0.9375 2.234375 -1.421875 L 2.234375 -4.359375 L 3.015625 -4.359375 L 3.015625 -5.296875 Z M 3.015625 -5.296875 "/>
</symbol>
<symbol overflow="visible" id="glyph0-19">
<path style="stroke:none;" d="M 3.9375 -5.40625 L 2.8125 -1.46875 L 1.625 -5.40625 L 0.09375 -5.40625 L 2.09375 0.21875 L 2.09375 0.234375 L 2.09375 0.265625 C 2.09375 0.765625 1.71875 1.15625 1.234375 1.15625 C 1.125 1.15625 1.046875 1.15625 0.859375 1.09375 L 0.859375 2.15625 C 1.0625 2.1875 1.1875 2.1875 1.359375 2.1875 C 1.703125 2.1875 2.125 2.125 2.375 2.015625 C 2.765625 1.859375 2.9375 1.625 3.15625 0.984375 L 5.375 -5.40625 L 3.9375 -5.40625 Z M 3.9375 -5.40625 "/>
</symbol>
<symbol overflow="visible" id="glyph0-20">
<path style="stroke:none;" d="M 3.125 -5.296875 L 2.296875 -5.296875 L 2.296875 -5.8125 C 2.296875 -6.09375 2.421875 -6.234375 2.6875 -6.234375 C 2.796875 -6.234375 2.953125 -6.234375 3.078125 -6.203125 L 3.078125 -7.265625 C 2.8125 -7.28125 2.46875 -7.296875 2.28125 -7.296875 C 1.34375 -7.296875 0.90625 -6.84375 0.90625 -5.9375 L 0.90625 -5.296875 L 0.140625 -5.296875 L 0.140625 -4.359375 L 0.90625 -4.359375 L 0.90625 0 L 2.296875 0 L 2.296875 -4.359375 L 3.125 -4.359375 L 3.125 -5.296875 Z M 3.125 -5.296875 "/>
</symbol>
<symbol overflow="visible" id="glyph0-21">
<path style="stroke:none;" d="M 5.046875 -3.65625 C 5.03125 -4.796875 4.15625 -5.484375 2.703125 -5.484375 C 1.328125 -5.484375 0.484375 -4.796875 0.484375 -3.6875 C 0.484375 -3.328125 0.59375 -3.015625 0.78125 -2.8125 C 0.96875 -2.625 1.140625 -2.53125 1.65625 -2.359375 L 3.328125 -1.84375 C 3.6875 -1.734375 3.796875 -1.625 3.796875 -1.40625 C 3.796875 -1.0625 3.40625 -0.875 2.765625 -0.875 C 2.40625 -0.875 2.109375 -0.9375 1.9375 -1.0625 C 1.78125 -1.171875 1.71875 -1.28125 1.65625 -1.5625 L 0.296875 -1.5625 C 0.328125 -0.390625 1.203125 0.234375 2.84375 0.234375 C 3.59375 0.234375 4.15625 0.0625 4.5625 -0.25 C 4.953125 -0.5625 5.203125 -1.0625 5.203125 -1.59375 C 5.203125 -2.296875 4.84375 -2.75 4.140625 -2.953125 L 2.375 -3.46875 C 1.984375 -3.59375 1.875 -3.671875 1.875 -3.890625 C 1.875 -4.1875 2.203125 -4.390625 2.6875 -4.390625 C 3.359375 -4.390625 3.6875 -4.15625 3.703125 -3.65625 L 5.046875 -3.65625 Z M 5.046875 -3.65625 "/>
</symbol>
<symbol overflow="visible" id="glyph0-22">
<path style="stroke:none;" d="M 0.671875 -7.296875 L 0.671875 0 L 2.0625 0 L 2.0625 -3.234375 C 2.0625 -3.859375 2.515625 -4.296875 3.15625 -4.296875 C 3.453125 -4.296875 3.6875 -4.1875 3.84375 -3.96875 C 3.96875 -3.796875 4.015625 -3.65625 4.015625 -3.296875 L 4.015625 0 L 5.40625 0 L 5.40625 -3.625 C 5.40625 -4.296875 5.234375 -4.765625 4.859375 -5.078125 C 4.546875 -5.34375 4.09375 -5.484375 3.65625 -5.484375 C 2.953125 -5.484375 2.453125 -5.203125 2.0625 -4.625 L 2.0625 -7.296875 L 0.671875 -7.296875 Z M 0.671875 -7.296875 "/>
</symbol>
<symbol overflow="visible" id="glyph0-23">
<path style="stroke:none;" d="M 0.625 -5.40625 L 0.625 0 L 2.03125 0 L 2.03125 -2.875 C 2.03125 -3.6875 2.4375 -4.09375 3.265625 -4.09375 C 3.40625 -4.09375 3.515625 -4.09375 3.703125 -4.0625 L 3.703125 -5.484375 C 3.625 -5.484375 3.5625 -5.484375 3.53125 -5.484375 C 2.890625 -5.484375 2.328125 -5.0625 2.03125 -4.34375 L 2.03125 -5.40625 L 0.625 -5.40625 Z M 0.625 -5.40625 "/>
</symbol>
<symbol overflow="visible" id="glyph0-24">
<path style="stroke:none;" d="M 1.984375 -5.40625 L 0.578125 -5.40625 L 0.578125 2.1875 L 1.984375 2.1875 L 1.984375 -0.640625 C 2.3125 -0.046875 2.796875 0.234375 3.484375 0.234375 C 4.78125 0.234375 5.734375 -0.984375 5.734375 -2.625 C 5.734375 -3.375 5.515625 -4.140625 5.15625 -4.640625 C 4.796875 -5.15625 4.125 -5.484375 3.484375 -5.484375 C 2.796875 -5.484375 2.3125 -5.203125 1.984375 -4.59375 L 1.984375 -5.40625 Z M 3.15625 -4.3125 C 3.875 -4.3125 4.34375 -3.625 4.34375 -2.59375 C 4.34375 -1.625 3.84375 -0.9375 3.15625 -0.9375 C 2.453125 -0.9375 1.984375 -1.609375 1.984375 -2.625 C 1.984375 -3.625 2.453125 -4.3125 3.15625 -4.3125 Z M 3.15625 -4.3125 "/>
</symbol>
<symbol overflow="visible" id="glyph0-25">
<path style="stroke:none;" d="M 4.078125 -5.40625 L 4.078125 -4.5625 C 3.65625 -5.203125 3.203125 -5.484375 2.578125 -5.484375 C 1.296875 -5.484375 0.34375 -4.234375 0.34375 -2.5625 C 0.34375 -0.890625 1.21875 0.234375 2.546875 0.234375 C 3.1875 0.234375 3.5625 0.046875 4.078125 -0.546875 L 4.078125 0.1875 C 4.078125 0.828125 3.59375 1.28125 2.890625 1.28125 C 2.359375 1.28125 2.015625 1.0625 1.90625 0.65625 L 0.453125 0.65625 C 0.453125 1.0625 0.625 1.359375 0.984375 1.65625 C 1.40625 2.015625 2.015625 2.1875 2.84375 2.1875 C 4.46875 2.1875 5.40625 1.453125 5.40625 0.1875 L 5.40625 -5.40625 L 4.078125 -5.40625 Z M 2.875 -4.3125 C 3.578125 -4.3125 4.09375 -3.59375 4.09375 -2.59375 C 4.09375 -1.609375 3.59375 -0.9375 2.859375 -0.9375 C 2.203125 -0.9375 1.734375 -1.609375 1.734375 -2.59375 C 1.734375 -3.609375 2.203125 -4.3125 2.875 -4.3125 Z M 2.875 -4.3125 "/>
</symbol>
<symbol overflow="visible" id="glyph0-26">
<path style="stroke:none;" d="M 1.984375 -3.296875 L 1.984375 -7.296875 L 0.59375 -7.296875 L 0.59375 0 L 1.984375 0 L 1.984375 -1.765625 L 2.546875 -2.375 L 3.84375 0 L 5.484375 0 L 3.515625 -3.359375 L 5.34375 -5.40625 L 3.765625 -5.40625 L 1.984375 -3.296875 Z M 1.984375 -3.296875 "/>
</symbol>
<symbol overflow="visible" id="glyph0-27">
<path style="stroke:none;" d="M 5.21875 -2.734375 L 4.484375 -2.734375 L 4.484375 -7.09375 L 2.828125 -7.09375 L 0.234375 -2.75 L 0.234375 -1.5625 L 3.078125 -1.5625 L 3.078125 0 L 4.484375 0 L 4.484375 -1.5625 L 5.21875 -1.5625 L 5.21875 -2.734375 Z M 3.078125 -2.734375 L 1.234375 -2.734375 L 3.078125 -5.765625 L 3.078125 -2.734375 Z M 3.078125 -2.734375 "/>
</symbol>
<symbol overflow="visible" id="glyph0-28">
<path style="stroke:none;" d="M 2.171875 -3.171875 C 2.65625 -3.171875 2.75 -3.15625 2.984375 -3.09375 C 3.453125 -2.96875 3.765625 -2.5625 3.765625 -2.046875 C 3.765625 -1.421875 3.3125 -0.96875 2.703125 -0.96875 C 2.046875 -0.96875 1.6875 -1.34375 1.65625 -2.078125 L 0.296875 -2.078125 C 0.296875 -0.65625 1.234375 0.234375 2.6875 0.234375 C 4.1875 0.234375 5.15625 -0.65625 5.15625 -2.046875 C 5.15625 -2.875 4.796875 -3.40625 4 -3.796875 C 4.65625 -4.203125 4.9375 -4.65625 4.9375 -5.3125 C 4.9375 -6.484375 4.046875 -7.234375 2.6875 -7.234375 C 1.875 -7.234375 1.1875 -6.953125 0.796875 -6.4375 C 0.515625 -6.09375 0.375 -5.609375 0.375 -4.984375 L 0.375 -4.859375 L 1.6875 -4.859375 C 1.6875 -5.234375 1.71875 -5.4375 1.796875 -5.609375 C 1.921875 -5.921875 2.234375 -6.109375 2.65625 -6.109375 C 3.203125 -6.109375 3.53125 -5.765625 3.53125 -5.1875 C 3.53125 -4.46875 3.125 -4.109375 2.296875 -4.109375 L 2.171875 -4.109375 L 2.171875 -3.171875 Z M 2.171875 -3.171875 "/>
</symbol>
<symbol overflow="visible" id="glyph0-29">
<path style="stroke:none;" d="M 4.09375 -3.859375 C 4.328125 -3.984375 4.4375 -4.0625 4.546875 -4.15625 C 4.84375 -4.4375 5.015625 -4.859375 5.015625 -5.3125 C 5.015625 -6.4375 4.046875 -7.234375 2.734375 -7.234375 C 1.421875 -7.234375 0.453125 -6.4375 0.453125 -5.3125 C 0.453125 -4.625 0.734375 -4.203125 1.375 -3.859375 C 0.5625 -3.421875 0.21875 -2.875 0.21875 -2.046875 C 0.21875 -0.703125 1.25 0.234375 2.734375 0.234375 C 4.21875 0.234375 5.25 -0.703125 5.25 -2.046875 C 5.25 -2.875 4.90625 -3.421875 4.09375 -3.859375 Z M 2.75 -6.109375 C 3.375 -6.109375 3.796875 -5.734375 3.796875 -5.1875 C 3.796875 -4.640625 3.359375 -4.25 2.75 -4.25 C 2.125 -4.25 1.6875 -4.640625 1.6875 -5.1875 C 1.6875 -5.734375 2.125 -6.109375 2.75 -6.109375 Z M 2.734375 -3.296875 C 3.421875 -3.296875 3.84375 -2.84375 3.84375 -2.09375 C 3.84375 -1.421875 3.40625 -0.96875 2.734375 -0.96875 C 2.046875 -0.96875 1.625 -1.421875 1.625 -2.125 C 1.625 -2.84375 2.0625 -3.296875 2.734375 -3.296875 Z M 2.734375 -3.296875 "/>
</symbol>
<symbol overflow="visible" id="glyph0-30">
<path style="stroke:none;" d="M 0.765625 0 L 3.625 0 C 4.734375 0 5.4375 -0.265625 5.921875 -0.84375 C 6.5 -1.53125 6.8125 -2.515625 6.8125 -3.65625 C 6.8125 -4.765625 6.5 -5.765625 5.921875 -6.453125 C 5.4375 -7.046875 4.734375 -7.296875 3.625 -7.296875 L 0.765625 -7.296875 L 0.765625 0 Z M 2.265625 -1.25 L 2.265625 -6.046875 L 3.625 -6.046875 C 4.75 -6.046875 5.3125 -5.25 5.3125 -3.640625 C 5.3125 -2.046875 4.75 -1.25 3.625 -1.25 L 2.265625 -1.25 Z M 2.265625 -1.25 "/>
</symbol>
<symbol overflow="visible" id="glyph0-31">
<path style="stroke:none;" d="M 4.59375 -5.40625 L 0.390625 -5.40625 L 0.390625 -4.265625 L 2.875 -4.265625 L 0.203125 -1.125 L 0.203125 0 L 4.6875 0 L 4.6875 -1.125 L 1.9375 -1.125 L 4.59375 -4.265625 L 4.59375 -5.40625 Z M 4.59375 -5.40625 "/>
</symbol>
</g>
</defs>
<g id="surface0">
<path style="fill:none;stroke-width:0.00067787;stroke-linecap:butt;stroke-linejoin:miter;stroke:rgb(0%,0%,0%);stroke-opacity:1;stroke-miterlimit:10;" d="M 0.0636042 0.0283391 L 0.00558673 -0.00473887 " transform="matrix(2950.419088,0,0,2950.419088,278.485553,410.212107)"/>
<path style="fill:none;stroke-width:0.00067787;stroke-linecap:butt;stroke-linejoin:miter;stroke:rgb(0%,0%,0%);stroke-opacity:1;stroke-miterlimit:10;" d="M 0.010353 0.0842567 L 0.0113566 0.03612 " transform="matrix(2950.419088,0,0,2950.419088,278.485553,410.212107)"/>
<path style="fill:none;stroke-width:0.00067787;stroke-linecap:butt;stroke-linejoin:miter;stroke:rgb(0%,0%,0%);stroke-opacity:1;stroke-miterlimit:10;" d="M 0.0314874 0.0693303 L 0.0113566 0.03612 " transform="matrix(2950.419088,0,0,2950.419088,278.485553,410.212107)"/>
<path style="fill:none;stroke-width:0.00067787;stroke-linecap:butt;stroke-linejoin:miter;stroke:rgb(0%,0%,0%);stroke-opacity:1;stroke-miterlimit:10;" d="M -0.05065 0.0561039 L -0.0375626 0.0397106 " transform="matrix(2950.419088,0,0,2950.419088,278.485553,410.212107)"/>
<path style="fill:none;stroke-width:0.00067787;stroke-linecap:butt;stroke-linejoin:miter;stroke:rgb(0%,0%,0%);stroke-opacity:1;stroke-miterlimit:10;" d="M -0.0580271 0.0431489 L -0.0375626 0.0397106 " transform="matrix(2950.419088,0,0,2950.419088,278.485553,410.212107)"/>
<path style="fill:none;stroke-width:0.00067787;stroke-linecap:butt;stroke-linejoin:miter;stroke:rgb(0%,0%,0%);stroke-opacity:1;stroke-miterlimit:10;" d="M -0.050838 -0.0534435 L -0.0428439 -0.0453223 " transform="matrix(2950.419088,0,0,2950.419088,278.485553,410.212107)"/>
<path style="fill:none;stroke-width:0.00067787;stroke-linecap:butt;stroke-linejoin:miter;stroke:rgb(0%,0%,0%);stroke-opacity:1;stroke-miterlimit:10;" d="M -0.0546682 -0.0508949 L -0.0428439 -0.0453223 " transform="matrix(2950.419088,0,0,2950.419088,278.485553,410.212107)"/>
<path style="fill:none;stroke-width:0.00067787;stroke-linecap:butt;stroke-linejoin:miter;stroke:rgb(0%,0%,0%);stroke-opacity:1;stroke-miterlimit:10;" d="M -0.0371111 0.0744157 L -0.0180328 0.032303 " transform="matrix(2950.419088,0,0,2950.419088,278.485553,410.212107)"/>
<path style="fill:none;stroke-width:0.00067787;stroke-linecap:butt;stroke-linejoin:miter;stroke:rgb(0%,0%,0%);stroke-opacity:1;stroke-miterlimit:10;" d="M -0.0733811 -0.0448404 L -0.0483225 -0.0227262 " transform="matrix(2950.419088,0,0,2950.419088,278.485553,410.212107)"/>
<path style="fill:none;stroke-width:0.00067787;stroke-linecap:butt;stroke-linejoin:miter;stroke:rgb(0%,0%,0%);stroke-opacity:1;stroke-miterlimit:10;" d="M -0.0139788 -0.084652 L -0.0147666 -0.070438 " transform="matrix(2950.419088,0,0,2950.419088,278.485553,410.212107)"/>
<path style="fill:none;stroke-width:0.00067787;stroke-linecap:butt;stroke-linejoin:miter;stroke:rgb(0%,0%,0%);stroke-opacity:1;stroke-miterlimit:10;" d="M 0.00368419 -0.0950452 L -0.0147666 -0.070438 " transform="matrix(2950.419088,0,0,2950.419088,278.485553,410.212107)"/>
<path style="fill:none;stroke-width:0.00067787;stroke-linecap:butt;stroke-linejoin:miter;stroke:rgb(0%,0%,0%);stroke-opacity:1;stroke-miterlimit:10;" d="M -0.0317557 -0.0928633 L -0.0264426 -0.0741371 " transform="matrix(2950.419088,0,0,2950.419088,278.485553,410.212107)"/>
<path style="fill:none;stroke-width:0.00067787;stroke-linecap:butt;stroke-linejoin:miter;stroke:rgb(0%,0%,0%);stroke-opacity:1;stroke-miterlimit:10;" d="M -0.0595311 -0.0833585 L -0.0264426 -0.0741371 " transform="matrix(2950.419088,0,0,2950.419088,278.485553,410.212107)"/>
<path style="fill:none;stroke-width:0.00067787;stroke-linecap:butt;stroke-linejoin:miter;stroke:rgb(0%,0%,0%);stroke-opacity:1;stroke-miterlimit:10;" d="M 0.053644 -0.0714773 L 0.0254621 -0.0250763 " transform="matrix(2950.419088,0,0,2950.419088,278.485553,410.212107)"/>
<path style="fill:none;stroke-width:0.00067787;stroke-linecap:butt;stroke-linejoin:miter;stroke:rgb(0%,0%,0%);stroke-opacity:1;stroke-miterlimit:10;" d="M 0.0922508 -0.00124492 L 0.060567 -0.00181158 " transform="matrix(2950.419088,0,0,2950.419088,278.485553,410.212107)"/>
<path style="fill:none;stroke-width:0.00067787;stroke-linecap:butt;stroke-linejoin:miter;stroke:rgb(0%,0%,0%);stroke-opacity:1;stroke-miterlimit:10;" d="M 0.0822813 0.0168418 L 0.060567 -0.00181158 " transform="matrix(2950.419088,0,0,2950.419088,278.485553,410.212107)"/>
<path style="fill:none;stroke-width:0.00067787;stroke-linecap:butt;stroke-linejoin:miter;stroke:rgb(0%,0%,0%);stroke-opacity:1;stroke-miterlimit:10;" d="M -0.0497086 0.0258023 L -0.0193369 0.0184835 " transform="matrix(2950.419088,0,0,2950.419088,278.485553,410.212107)"/>
<path style="fill:none;stroke-width:0.00067787;stroke-linecap:butt;stroke-linejoin:miter;stroke:rgb(0%,0%,0%);stroke-opacity:1;stroke-miterlimit:10;" d="M -0.0678205 -0.025304 L -0.0483225 -0.0227262 " transform="matrix(2950.419088,0,0,2950.419088,278.485553,410.212107)"/>
<path style="fill:none;stroke-width:0.00067787;stroke-linecap:butt;stroke-linejoin:miter;stroke:rgb(0%,0%,0%);stroke-opacity:1;stroke-miterlimit:10;" d="M 0.0894281 -0.0466185 L 0.072202 -0.0204887 " transform="matrix(2950.419088,0,0,2950.419088,278.485553,410.212107)"/>
<path style="fill:none;stroke-width:0.00067787;stroke-linecap:butt;stroke-linejoin:miter;stroke:rgb(0%,0%,0%);stroke-opacity:1;stroke-miterlimit:10;" d="M 0.0922971 -0.0214619 L 0.072202 -0.0204887 " transform="matrix(2950.419088,0,0,2950.419088,278.485553,410.212107)"/>
<path style="fill:none;stroke-width:0.00067787;stroke-linecap:butt;stroke-linejoin:miter;stroke:rgb(0%,0%,0%);stroke-opacity:1;stroke-miterlimit:10;" d="M -0.0116182 0.0854112 L -0.0180328 0.032303 " transform="matrix(2950.419088,0,0,2950.419088,278.485553,410.212107)"/>
<path style="fill:none;stroke-width:0.00067787;stroke-linecap:butt;stroke-linejoin:miter;stroke:rgb(0%,0%,0%);stroke-opacity:1;stroke-miterlimit:10;" d="M 0.0413788 0.0487414 L 0.00558673 -0.00473887 " transform="matrix(2950.419088,0,0,2950.419088,278.485553,410.212107)"/>
<path style="fill:none;stroke-width:0.00067787;stroke-linecap:butt;stroke-linejoin:miter;stroke:rgb(0%,0%,0%);stroke-opacity:1;stroke-miterlimit:10;" d="M -0.0736459 -0.00276748 L -0.0473004 -0.00775486 " transform="matrix(2950.419088,0,0,2950.419088,278.485553,410.212107)"/>
<path style="fill:none;stroke-width:0.00067787;stroke-linecap:butt;stroke-linejoin:miter;stroke:rgb(0%,0%,0%);stroke-opacity:1;stroke-miterlimit:10;" d="M 0.0492299 -0.0442473 L 0.0254621 -0.0250763 " transform="matrix(2950.419088,0,0,2950.419088,278.485553,410.212107)"/>
<path style="fill:none;stroke-width:0.00067787;stroke-linecap:butt;stroke-linejoin:miter;stroke:rgb(0%,0%,0%);stroke-opacity:1;stroke-miterlimit:10;" d="M -0.0670089 0.0147711 L -0.0473004 -0.00775486 " transform="matrix(2950.419088,0,0,2950.419088,278.485553,410.212107)"/>
<path style="fill:none;stroke-width:0.00067787;stroke-linecap:butt;stroke-linejoin:miter;stroke:rgb(0%,0%,0%);stroke-opacity:1;stroke-miterlimit:10;" d="M 0.0568983 0.0434918 L 0.00558673 -0.00473887 " transform="matrix(2950.419088,0,0,2950.419088,278.485553,410.212107)"/>
<path style="fill:none;stroke-width:0.00067787;stroke-linecap:butt;stroke-linejoin:miter;stroke:rgb(0%,0%,0%);stroke-opacity:1;stroke-miterlimit:10;" d="M 0.0226222 -0.0833188 L 0.0242096 -0.0628278 " transform="matrix(2950.419088,0,0,2950.419088,278.485553,410.212107)"/>
<path style="fill:none;stroke-width:0.00067787;stroke-linecap:butt;stroke-linejoin:miter;stroke:rgb(0%,0%,0%);stroke-opacity:1;stroke-miterlimit:10;" d="M 0.0330047 -0.0762621 L 0.0242096 -0.0628278 " transform="matrix(2950.419088,0,0,2950.419088,278.485553,410.212107)"/>
<path style="fill:none;stroke-width:0.00067787;stroke-linecap:butt;stroke-linejoin:miter;stroke:rgb(0%,0%,0%);stroke-opacity:1;stroke-miterlimit:10;" d="M 0.00558673 -0.00473887 L 0.0113566 0.03612 " transform="matrix(2950.419088,0,0,2950.419088,278.485553,410.212107)"/>
<path style="fill:none;stroke-width:0.00067787;stroke-linecap:butt;stroke-linejoin:miter;stroke:rgb(0%,0%,0%);stroke-opacity:1;stroke-miterlimit:10;" d="M -0.0193369 0.0184835 L -0.0375626 0.0397106 " transform="matrix(2950.419088,0,0,2950.419088,278.485553,410.212107)"/>
<path style="fill:none;stroke-width:0.00067787;stroke-linecap:butt;stroke-linejoin:miter;stroke:rgb(0%,0%,0%);stroke-opacity:1;stroke-miterlimit:10;" d="M -0.0198294 -0.029072 L -0.0428439 -0.0453223 " transform="matrix(2950.419088,0,0,2950.419088,278.485553,410.212107)"/>
<path style="fill:none;stroke-width:0.00067787;stroke-linecap:butt;stroke-linejoin:miter;stroke:rgb(0%,0%,0%);stroke-opacity:1;stroke-miterlimit:10;" d="M -0.0175151 -0.062898 L -0.0147666 -0.070438 " transform="matrix(2950.419088,0,0,2950.419088,278.485553,410.212107)"/>
<path style="fill:none;stroke-width:0.00067787;stroke-linecap:butt;stroke-linejoin:miter;stroke:rgb(0%,0%,0%);stroke-opacity:1;stroke-miterlimit:10;" d="M -0.0175151 -0.062898 L -0.0264426 -0.0741371 " transform="matrix(2950.419088,0,0,2950.419088,278.485553,410.212107)"/>
<path style="fill:none;stroke-width:0.00067787;stroke-linecap:butt;stroke-linejoin:miter;stroke:rgb(0%,0%,0%);stroke-opacity:1;stroke-miterlimit:10;" d="M 0.00558673 -0.00473887 L 0.060567 -0.00181158 " transform="matrix(2950.419088,0,0,2950.419088,278.485553,410.212107)"/>
<path style="fill:none;stroke-width:0.00067787;stroke-linecap:butt;stroke-linejoin:miter;stroke:rgb(0%,0%,0%);stroke-opacity:1;stroke-miterlimit:10;" d="M -0.0198294 -0.029072 L -0.0483225 -0.0227262 " transform="matrix(2950.419088,0,0,2950.419088,278.485553,410.212107)"/>
<path style="fill:none;stroke-width:0.00067787;stroke-linecap:butt;stroke-linejoin:miter;stroke:rgb(0%,0%,0%);stroke-opacity:1;stroke-miterlimit:10;" d="M 0.00558673 -0.00473887 L 0.072202 -0.0204887 " transform="matrix(2950.419088,0,0,2950.419088,278.485553,410.212107)"/>
<path style="fill:none;stroke-width:0.00067787;stroke-linecap:butt;stroke-linejoin:miter;stroke:rgb(0%,0%,0%);stroke-opacity:1;stroke-miterlimit:10;" d="M -0.0118366 0.0130949 L -0.0180328 0.032303 " transform="matrix(2950.419088,0,0,2950.419088,278.485553,410.212107)"/>
<path style="fill:none;stroke-width:0.00067787;stroke-linecap:butt;stroke-linejoin:miter;stroke:rgb(0%,0%,0%);stroke-opacity:1;stroke-miterlimit:10;" d="M 0.00558673 -0.00473887 L 0.0254621 -0.0250763 " transform="matrix(2950.419088,0,0,2950.419088,278.485553,410.212107)"/>
<path style="fill:none;stroke-width:0.00067787;stroke-linecap:butt;stroke-linejoin:miter;stroke:rgb(0%,0%,0%);stroke-opacity:1;stroke-miterlimit:10;" d="M -0.0198294 -0.029072 L -0.0473004 -0.00775486 " transform="matrix(2950.419088,0,0,2950.419088,278.485553,410.212107)"/>
<path style="fill:none;stroke-width:0.00067787;stroke-linecap:butt;stroke-linejoin:miter;stroke:rgb(0%,0%,0%);stroke-opacity:1;stroke-miterlimit:10;" d="M 0.00558673 -0.00473887 L 0.0242096 -0.0628278 " transform="matrix(2950.419088,0,0,2950.419088,278.485553,410.212107)"/>
<path style="fill:none;stroke-width:0.00067787;stroke-linecap:butt;stroke-linejoin:miter;stroke:rgb(0%,0%,0%);stroke-opacity:1;stroke-miterlimit:10;" d="M -0.0118366 0.0130949 L -0.0193369 0.0184835 " transform="matrix(2950.419088,0,0,2950.419088,278.485553,410.212107)"/>
<path style="fill:none;stroke-width:0.00067787;stroke-linecap:butt;stroke-linejoin:miter;stroke:rgb(0%,0%,0%);stroke-opacity:1;stroke-miterlimit:10;" d="M -0.0198294 -0.029072 L -0.0175151 -0.062898 " transform="matrix(2950.419088,0,0,2950.419088,278.485553,410.212107)"/>
<path style="fill:none;stroke-width:0.00067787;stroke-linecap:butt;stroke-linejoin:miter;stroke:rgb(0%,0%,0%);stroke-opacity:1;stroke-miterlimit:10;" d="M 0.00558673 -0.00473887 L -0.0118366 0.0130949 " transform="matrix(2950.419088,0,0,2950.419088,278.485553,410.212107)"/>
<path style="fill:none;stroke-width:0.00067787;stroke-linecap:butt;stroke-linejoin:miter;stroke:rgb(0%,0%,0%);stroke-opacity:1;stroke-miterlimit:10;" d="M 0.00558673 -0.00473887 L -0.0198294 -0.029072 " transform="matrix(2950.419088,0,0,2950.419088,278.485553,410.212107)"/>
<path style="fill-rule:nonzero;fill:rgb(100%,100%,100%);fill-opacity:1;stroke-width:0.000338935;stroke-linecap:butt;stroke-linejoin:miter;stroke:rgb(0%,0%,0%);stroke-opacity:1;stroke-dasharray:0.00203361,0.00203361;stroke-miterlimit:10;" d="M -0.0151982 -0.029072 C -0.0151982 -0.0265154 -0.0172715 -0.0244421 -0.0198294 -0.0244421 C -0.0223873 -0.0244421 -0.0244606 -0.0265154 -0.0244606 -0.029072 C -0.0244606 -0.0316299 -0.0223873 -0.0337032 -0.0198294 -0.0337032 C -0.0172715 -0.0337032 -0.0151982 -0.0316299 -0.0151982 -0.029072 " transform="matrix(2950.419088,0,0,2950.419088,278.485553,410.212107)"/>
<path style="fill-rule:nonzero;fill:rgb(100%,100%,100%);fill-opacity:1;stroke-width:0.000338935;stroke-linecap:butt;stroke-linejoin:miter;stroke:rgb(0%,0%,0%);stroke-opacity:1;stroke-dasharray:0.00203361,0.00203361;stroke-miterlimit:10;" d="M 0.0203847 -0.00473887 C 0.0203847 0.00343397 0.0137596 0.0100578 0.00558673 0.0100578 C -0.00258478 0.0100578 -0.0092099 0.00343397 -0.0092099 -0.00473887 C -0.0092099 -0.0129117 -0.00258478 -0.0195355 0.00558673 -0.0195355 C 0.0137596 -0.0195355 0.0203847 -0.0129117 0.0203847 -0.00473887 " transform="matrix(2950.419088,0,0,2950.419088,278.485553,410.212107)"/>
<g style="fill:rgb(0%,0%,0%);fill-opacity:1;">
  <use xlink:href="#glyph0-1" x="468.878906" y="501.683594"/>
  <use xlink:href="#glyph0-2" x="476.098892" y="501.683594"/>
  <use xlink:href="#glyph0-3" x="482.208893" y="501.683594"/>
  <use xlink:href="#glyph0-4" x="489.428879" y="501.683594"/>
  <use xlink:href="#glyph0-2" x="492.758881" y="501.683594"/>
  <use xlink:href="#glyph0-5" x="498.868881" y="501.683594"/>
  <use xlink:href="#glyph0-6" x="501.64888" y="501.683594"/>
  <use xlink:href="#glyph0-6" x="507.758881" y="501.683594"/>
  <use xlink:href="#glyph0-7" x="513.868881" y="501.683594"/>
  <use xlink:href="#glyph0-8" x="519.978882" y="501.683594"/>
  <use xlink:href="#glyph0-9" x="525.538879" y="501.683594"/>
  <use xlink:href="#glyph0-5" x="531.098877" y="501.683594"/>
  <use xlink:href="#glyph0-10" x="533.878876" y="501.683594"/>
  <use xlink:href="#glyph0-11" x="539.438873" y="501.683594"/>
</g>
<g style="fill:rgb(0%,0%,0%);fill-opacity:1;">
  <use xlink:href="#glyph0-1" x="258.3125" y="668.335938"/>
  <use xlink:href="#glyph0-2" x="265.532486" y="668.335938"/>
  <use xlink:href="#glyph0-12" x="271.642487" y="668.335938"/>
  <use xlink:href="#glyph0-4" x="274.422485" y="668.335938"/>
  <use xlink:href="#glyph0-13" x="277.752487" y="668.335938"/>
  <use xlink:href="#glyph0-14" x="283.862488" y="668.335938"/>
  <use xlink:href="#glyph0-9" x="289.972488" y="668.335938"/>
  <use xlink:href="#glyph0-15" x="295.532486" y="668.335938"/>
  <use xlink:href="#glyph0-16" x="298.312485" y="668.335938"/>
  <use xlink:href="#glyph0-10" x="304.422485" y="668.335938"/>
</g>
<g style="fill:rgb(0%,0%,0%);fill-opacity:1;">
  <use xlink:href="#glyph0-1" x="372.910156" y="623.460938"/>
  <use xlink:href="#glyph0-2" x="380.130142" y="623.460938"/>
  <use xlink:href="#glyph0-12" x="386.240143" y="623.460938"/>
  <use xlink:href="#glyph0-12" x="389.020142" y="623.460938"/>
  <use xlink:href="#glyph0-4" x="391.80014" y="623.460938"/>
  <use xlink:href="#glyph0-13" x="395.130142" y="623.460938"/>
  <use xlink:href="#glyph0-14" x="401.240143" y="623.460938"/>
  <use xlink:href="#glyph0-9" x="407.350143" y="623.460938"/>
  <use xlink:href="#glyph0-15" x="412.910141" y="623.460938"/>
  <use xlink:href="#glyph0-16" x="415.69014" y="623.460938"/>
  <use xlink:href="#glyph0-10" x="421.80014" y="623.460938"/>
</g>
<g style="fill:rgb(0%,0%,0%);fill-opacity:1;">
  <use xlink:href="#glyph0-2" x="99.21875" y="584.011719"/>
  <use xlink:href="#glyph0-17" x="105.328751" y="584.011719"/>
  <use xlink:href="#glyph0-17" x="110.888748" y="584.011719"/>
  <use xlink:href="#glyph0-18" x="116.448746" y="584.011719"/>
  <use xlink:href="#glyph0-5" x="119.778748" y="584.011719"/>
  <use xlink:href="#glyph0-17" x="122.558746" y="584.011719"/>
</g>
<g style="fill:rgb(0%,0%,0%);fill-opacity:1;">
  <use xlink:href="#glyph0-9" x="52.003906" y="543.378906"/>
  <use xlink:href="#glyph0-19" x="57.563904" y="543.378906"/>
  <use xlink:href="#glyph0-18" x="63.123901" y="543.378906"/>
  <use xlink:href="#glyph0-6" x="66.453903" y="543.378906"/>
  <use xlink:href="#glyph0-4" x="72.563904" y="543.378906"/>
  <use xlink:href="#glyph0-2" x="75.893906" y="543.378906"/>
  <use xlink:href="#glyph0-17" x="82.003906" y="543.378906"/>
  <use xlink:href="#glyph0-17" x="87.563904" y="543.378906"/>
  <use xlink:href="#glyph0-18" x="93.123901" y="543.378906"/>
  <use xlink:href="#glyph0-5" x="96.453903" y="543.378906"/>
  <use xlink:href="#glyph0-17" x="99.233902" y="543.378906"/>
</g>
<g style="fill:rgb(0%,0%,0%);fill-opacity:1;">
  <use xlink:href="#glyph0-9" x="85.632813" y="252.46875"/>
  <use xlink:href="#glyph0-19" x="91.19281" y="252.46875"/>
  <use xlink:href="#glyph0-18" x="96.752808" y="252.46875"/>
  <use xlink:href="#glyph0-6" x="100.082809" y="252.46875"/>
  <use xlink:href="#glyph0-4" x="106.19281" y="252.46875"/>
  <use xlink:href="#glyph0-20" x="109.522812" y="252.46875"/>
  <use xlink:href="#glyph0-15" x="112.852814" y="252.46875"/>
  <use xlink:href="#glyph0-21" x="115.632813" y="252.46875"/>
  <use xlink:href="#glyph0-22" x="121.19281" y="252.46875"/>
</g>
<g style="fill:rgb(0%,0%,0%);fill-opacity:1;">
  <use xlink:href="#glyph0-9" x="58.640625" y="261.921875"/>
  <use xlink:href="#glyph0-19" x="64.200623" y="261.921875"/>
  <use xlink:href="#glyph0-18" x="69.76062" y="261.921875"/>
  <use xlink:href="#glyph0-6" x="73.090622" y="261.921875"/>
  <use xlink:href="#glyph0-4" x="79.200623" y="261.921875"/>
  <use xlink:href="#glyph0-22" x="82.530624" y="261.921875"/>
  <use xlink:href="#glyph0-14" x="88.640625" y="261.921875"/>
  <use xlink:href="#glyph0-11" x="94.750626" y="261.921875"/>
  <use xlink:href="#glyph0-10" x="103.64061" y="261.921875"/>
  <use xlink:href="#glyph0-16" x="109.200607" y="261.921875"/>
</g>
<g style="fill:rgb(0%,0%,0%);fill-opacity:1;">
  <use xlink:href="#glyph0-7" x="117.183594" y="640.652344"/>
  <use xlink:href="#glyph0-23" x="123.293594" y="640.652344"/>
  <use xlink:href="#glyph0-6" x="127.183594" y="640.652344"/>
  <use xlink:href="#glyph0-21" x="133.293594" y="640.652344"/>
  <use xlink:href="#glyph0-6" x="138.853592" y="640.652344"/>
  <use xlink:href="#glyph0-24" x="144.963593" y="640.652344"/>
  <use xlink:href="#glyph0-22" x="151.073593" y="640.652344"/>
  <use xlink:href="#glyph0-15" x="157.183594" y="640.652344"/>
  <use xlink:href="#glyph0-5" x="159.963593" y="640.652344"/>
  <use xlink:href="#glyph0-10" x="162.743591" y="640.652344"/>
</g>
<g style="fill:rgb(0%,0%,0%);fill-opacity:1;">
  <use xlink:href="#glyph0-22" x="25.410156" y="278.195312"/>
  <use xlink:href="#glyph0-10" x="31.520157" y="278.195312"/>
  <use xlink:href="#glyph0-25" x="37.080154" y="278.195312"/>
  <use xlink:href="#glyph0-20" x="43.190155" y="278.195312"/>
  <use xlink:href="#glyph0-15" x="46.520157" y="278.195312"/>
  <use xlink:href="#glyph0-21" x="49.300156" y="278.195312"/>
  <use xlink:href="#glyph0-22" x="54.860153" y="278.195312"/>
</g>
<g style="fill:rgb(0%,0%,0%);fill-opacity:1;">
  <use xlink:href="#glyph0-22" x="237.421875" y="158.464844"/>
  <use xlink:href="#glyph0-17" x="243.531876" y="158.464844"/>
  <use xlink:href="#glyph0-11" x="249.091873" y="158.464844"/>
  <use xlink:href="#glyph0-6" x="257.981857" y="158.464844"/>
  <use xlink:href="#glyph0-4" x="264.091858" y="158.464844"/>
  <use xlink:href="#glyph0-10" x="267.42186" y="158.464844"/>
  <use xlink:href="#glyph0-5" x="272.981857" y="158.464844"/>
  <use xlink:href="#glyph0-24" x="275.761856" y="158.464844"/>
  <use xlink:href="#glyph0-22" x="281.871857" y="158.464844"/>
  <use xlink:href="#glyph0-10" x="287.981857" y="158.464844"/>
  <use xlink:href="#glyph0-4" x="293.541855" y="158.464844"/>
  <use xlink:href="#glyph0-22" x="296.871857" y="158.464844"/>
  <use xlink:href="#glyph0-14" x="302.981857" y="158.464844"/>
  <use xlink:href="#glyph0-11" x="309.091858" y="158.464844"/>
  <use xlink:href="#glyph0-10" x="317.981842" y="158.464844"/>
  <use xlink:href="#glyph0-16" x="323.54184" y="158.464844"/>
</g>
<g style="fill:rgb(0%,0%,0%);fill-opacity:1;">
  <use xlink:href="#glyph0-22" x="291.269531" y="129.136719"/>
  <use xlink:href="#glyph0-17" x="297.379532" y="129.136719"/>
  <use xlink:href="#glyph0-11" x="302.939529" y="129.136719"/>
  <use xlink:href="#glyph0-6" x="311.829514" y="129.136719"/>
  <use xlink:href="#glyph0-4" x="317.939514" y="129.136719"/>
  <use xlink:href="#glyph0-10" x="321.269516" y="129.136719"/>
  <use xlink:href="#glyph0-5" x="326.829514" y="129.136719"/>
  <use xlink:href="#glyph0-24" x="329.609512" y="129.136719"/>
  <use xlink:href="#glyph0-22" x="335.719513" y="129.136719"/>
  <use xlink:href="#glyph0-10" x="341.829514" y="129.136719"/>
  <use xlink:href="#glyph0-4" x="347.389511" y="129.136719"/>
  <use xlink:href="#glyph0-21" x="350.719513" y="129.136719"/>
  <use xlink:href="#glyph0-22" x="356.27951" y="129.136719"/>
  <use xlink:href="#glyph0-10" x="362.389511" y="129.136719"/>
  <use xlink:href="#glyph0-23" x="367.949509" y="129.136719"/>
  <use xlink:href="#glyph0-26" x="371.839508" y="129.136719"/>
</g>
<g style="fill:rgb(0%,0%,0%);fill-opacity:1;">
  <use xlink:href="#glyph0-22" x="98.652344" y="134.445312"/>
  <use xlink:href="#glyph0-17" x="104.762344" y="134.445312"/>
  <use xlink:href="#glyph0-11" x="110.322342" y="134.445312"/>
  <use xlink:href="#glyph0-6" x="119.212326" y="134.445312"/>
  <use xlink:href="#glyph0-4" x="125.322327" y="134.445312"/>
  <use xlink:href="#glyph0-2" x="128.652328" y="134.445312"/>
  <use xlink:href="#glyph0-17" x="134.762329" y="134.445312"/>
  <use xlink:href="#glyph0-18" x="140.322327" y="134.445312"/>
  <use xlink:href="#glyph0-10" x="143.652328" y="134.445312"/>
  <use xlink:href="#glyph0-4" x="149.212326" y="134.445312"/>
  <use xlink:href="#glyph0-22" x="152.542328" y="134.445312"/>
  <use xlink:href="#glyph0-14" x="158.652328" y="134.445312"/>
  <use xlink:href="#glyph0-11" x="164.762329" y="134.445312"/>
  <use xlink:href="#glyph0-10" x="173.652313" y="134.445312"/>
  <use xlink:href="#glyph0-16" x="179.212311" y="134.445312"/>
</g>
<g style="fill:rgb(0%,0%,0%);fill-opacity:1;">
  <use xlink:href="#glyph0-22" x="20.1875" y="166.488281"/>
  <use xlink:href="#glyph0-17" x="26.297501" y="166.488281"/>
  <use xlink:href="#glyph0-11" x="31.857498" y="166.488281"/>
  <use xlink:href="#glyph0-6" x="40.747482" y="166.488281"/>
  <use xlink:href="#glyph0-4" x="46.857483" y="166.488281"/>
  <use xlink:href="#glyph0-2" x="50.187485" y="166.488281"/>
  <use xlink:href="#glyph0-17" x="56.297485" y="166.488281"/>
  <use xlink:href="#glyph0-18" x="61.857483" y="166.488281"/>
  <use xlink:href="#glyph0-10" x="65.187485" y="166.488281"/>
  <use xlink:href="#glyph0-4" x="70.747482" y="166.488281"/>
  <use xlink:href="#glyph0-21" x="74.077484" y="166.488281"/>
  <use xlink:href="#glyph0-22" x="79.637482" y="166.488281"/>
  <use xlink:href="#glyph0-10" x="85.747482" y="166.488281"/>
  <use xlink:href="#glyph0-23" x="91.30748" y="166.488281"/>
  <use xlink:href="#glyph0-26" x="95.197479" y="166.488281"/>
</g>
<g style="fill:rgb(0%,0%,0%);fill-opacity:1;">
  <use xlink:href="#glyph0-22" x="438.410156" y="198.300781"/>
  <use xlink:href="#glyph0-17" x="444.520157" y="198.300781"/>
  <use xlink:href="#glyph0-11" x="450.080154" y="198.300781"/>
  <use xlink:href="#glyph0-6" x="458.970139" y="198.300781"/>
  <use xlink:href="#glyph0-4" x="465.080139" y="198.300781"/>
  <use xlink:href="#glyph0-24" x="468.410141" y="198.300781"/>
  <use xlink:href="#glyph0-6" x="474.520142" y="198.300781"/>
  <use xlink:href="#glyph0-5" x="480.630142" y="198.300781"/>
  <use xlink:href="#glyph0-19" x="483.410141" y="198.300781"/>
  <use xlink:href="#glyph0-9" x="488.970139" y="198.300781"/>
  <use xlink:href="#glyph0-22" x="494.530136" y="198.300781"/>
  <use xlink:href="#glyph0-10" x="500.640137" y="198.300781"/>
  <use xlink:href="#glyph0-17" x="506.200134" y="198.300781"/>
  <use xlink:href="#glyph0-18" x="511.760132" y="198.300781"/>
  <use xlink:href="#glyph0-17" x="515.090134" y="198.300781"/>
  <use xlink:href="#glyph0-4" x="520.650131" y="198.300781"/>
  <use xlink:href="#glyph0-27" x="523.980133" y="198.300781"/>
</g>
<g style="fill:rgb(0%,0%,0%);fill-opacity:1;">
  <use xlink:href="#glyph0-22" x="553.605469" y="410.40625"/>
  <use xlink:href="#glyph0-17" x="559.715469" y="410.40625"/>
  <use xlink:href="#glyph0-11" x="565.275467" y="410.40625"/>
  <use xlink:href="#glyph0-6" x="574.165451" y="410.40625"/>
  <use xlink:href="#glyph0-4" x="580.275452" y="410.40625"/>
  <use xlink:href="#glyph0-18" x="583.605453" y="410.40625"/>
  <use xlink:href="#glyph0-14" x="586.935455" y="410.40625"/>
  <use xlink:href="#glyph0-16" x="593.045456" y="410.40625"/>
  <use xlink:href="#glyph0-15" x="599.155457" y="410.40625"/>
  <use xlink:href="#glyph0-9" x="601.935455" y="410.40625"/>
  <use xlink:href="#glyph0-10" x="607.495453" y="410.40625"/>
  <use xlink:href="#glyph0-18" x="613.05545" y="410.40625"/>
  <use xlink:href="#glyph0-17" x="616.385452" y="410.40625"/>
  <use xlink:href="#glyph0-4" x="621.94545" y="410.40625"/>
</g>
<g style="fill:rgb(0%,0%,0%);fill-opacity:1;">
  <use xlink:href="#glyph0-22" x="523.480469" y="467.421875"/>
  <use xlink:href="#glyph0-17" x="529.590469" y="467.421875"/>
  <use xlink:href="#glyph0-11" x="535.150467" y="467.421875"/>
  <use xlink:href="#glyph0-6" x="544.040451" y="467.421875"/>
  <use xlink:href="#glyph0-4" x="550.150452" y="467.421875"/>
  <use xlink:href="#glyph0-18" x="553.480453" y="467.421875"/>
  <use xlink:href="#glyph0-14" x="556.810455" y="467.421875"/>
  <use xlink:href="#glyph0-16" x="562.920456" y="467.421875"/>
  <use xlink:href="#glyph0-15" x="569.030457" y="467.421875"/>
  <use xlink:href="#glyph0-9" x="571.810455" y="467.421875"/>
  <use xlink:href="#glyph0-10" x="577.370453" y="467.421875"/>
  <use xlink:href="#glyph0-18" x="582.93045" y="467.421875"/>
  <use xlink:href="#glyph0-17" x="586.260452" y="467.421875"/>
  <use xlink:href="#glyph0-4" x="591.82045" y="467.421875"/>
  <use xlink:href="#glyph0-28" x="595.150452" y="467.421875"/>
</g>
<g style="fill:rgb(0%,0%,0%);fill-opacity:1;">
  <use xlink:href="#glyph0-22" x="83.03125" y="492.660156"/>
  <use xlink:href="#glyph0-6" x="89.141251" y="492.660156"/>
  <use xlink:href="#glyph0-16" x="95.251251" y="492.660156"/>
  <use xlink:href="#glyph0-17" x="101.361252" y="492.660156"/>
  <use xlink:href="#glyph0-19" x="106.921249" y="492.660156"/>
  <use xlink:href="#glyph0-2" x="112.481247" y="492.660156"/>
  <use xlink:href="#glyph0-17" x="118.591248" y="492.660156"/>
  <use xlink:href="#glyph0-17" x="124.151245" y="492.660156"/>
</g>
<g style="fill:rgb(0%,0%,0%);fill-opacity:1;">
  <use xlink:href="#glyph0-5" x="37.734375" y="339.410156"/>
  <use xlink:href="#glyph0-10" x="40.514374" y="339.410156"/>
  <use xlink:href="#glyph0-11" x="46.074371" y="339.410156"/>
  <use xlink:href="#glyph0-24" x="54.964355" y="339.410156"/>
  <use xlink:href="#glyph0-23" x="61.074356" y="339.410156"/>
  <use xlink:href="#glyph0-17" x="64.964355" y="339.410156"/>
  <use xlink:href="#glyph0-19" x="70.524353" y="339.410156"/>
</g>
<g style="fill:rgb(0%,0%,0%);fill-opacity:1;">
  <use xlink:href="#glyph0-5" x="544.089844" y="271.78125"/>
  <use xlink:href="#glyph0-17" x="546.869843" y="271.78125"/>
  <use xlink:href="#glyph0-25" x="552.42984" y="271.78125"/>
  <use xlink:href="#glyph0-22" x="558.539841" y="271.78125"/>
  <use xlink:href="#glyph0-17" x="564.649841" y="271.78125"/>
  <use xlink:href="#glyph0-11" x="570.209839" y="271.78125"/>
  <use xlink:href="#glyph0-6" x="579.099823" y="271.78125"/>
  <use xlink:href="#glyph0-4" x="585.209824" y="271.78125"/>
  <use xlink:href="#glyph0-24" x="588.539825" y="271.78125"/>
  <use xlink:href="#glyph0-17" x="594.649826" y="271.78125"/>
  <use xlink:href="#glyph0-10" x="600.209824" y="271.78125"/>
</g>
<g style="fill:rgb(0%,0%,0%);fill-opacity:1;">
  <use xlink:href="#glyph0-5" x="553.980469" y="351.308594"/>
  <use xlink:href="#glyph0-17" x="556.760468" y="351.308594"/>
  <use xlink:href="#glyph0-25" x="562.320465" y="351.308594"/>
  <use xlink:href="#glyph0-22" x="568.430466" y="351.308594"/>
  <use xlink:href="#glyph0-17" x="574.540466" y="351.308594"/>
  <use xlink:href="#glyph0-11" x="580.100464" y="351.308594"/>
  <use xlink:href="#glyph0-6" x="588.990448" y="351.308594"/>
  <use xlink:href="#glyph0-4" x="595.100449" y="351.308594"/>
  <use xlink:href="#glyph0-23" x="598.43045" y="351.308594"/>
  <use xlink:href="#glyph0-15" x="602.32045" y="351.308594"/>
  <use xlink:href="#glyph0-9" x="605.100449" y="351.308594"/>
  <use xlink:href="#glyph0-17" x="610.660446" y="351.308594"/>
</g>
<g style="fill:rgb(0%,0%,0%);fill-opacity:1;">
  <use xlink:href="#glyph0-11" x="244.589844" y="673.644531"/>
  <use xlink:href="#glyph0-15" x="253.479828" y="673.644531"/>
  <use xlink:href="#glyph0-7" x="256.259827" y="673.644531"/>
  <use xlink:href="#glyph0-25" x="262.369827" y="673.644531"/>
  <use xlink:href="#glyph0-17" x="268.479828" y="673.644531"/>
  <use xlink:href="#glyph0-4" x="274.039825" y="673.644531"/>
  <use xlink:href="#glyph0-29" x="277.369827" y="673.644531"/>
</g>
<g style="fill:rgb(0%,0%,0%);fill-opacity:1;">
  <use xlink:href="#glyph0-11" x="402.34375" y="564.363281"/>
  <use xlink:href="#glyph0-19" x="411.233734" y="564.363281"/>
  <use xlink:href="#glyph0-6" x="416.793732" y="564.363281"/>
  <use xlink:href="#glyph0-4" x="422.903732" y="564.363281"/>
  <use xlink:href="#glyph0-30" x="426.233734" y="564.363281"/>
  <use xlink:href="#glyph0-6" x="433.45372" y="564.363281"/>
  <use xlink:href="#glyph0-5" x="439.563721" y="564.363281"/>
  <use xlink:href="#glyph0-10" x="442.343719" y="564.363281"/>
  <use xlink:href="#glyph0-2" x="447.903717" y="564.363281"/>
  <use xlink:href="#glyph0-17" x="454.013718" y="564.363281"/>
  <use xlink:href="#glyph0-5" x="459.573715" y="564.363281"/>
  <use xlink:href="#glyph0-5" x="462.353714" y="564.363281"/>
  <use xlink:href="#glyph0-10" x="465.133713" y="564.363281"/>
</g>
<g style="fill:rgb(0%,0%,0%);fill-opacity:1;">
  <use xlink:href="#glyph0-11" x="2.652344" y="408.042969"/>
  <use xlink:href="#glyph0-19" x="11.542328" y="408.042969"/>
  <use xlink:href="#glyph0-6" x="17.102325" y="408.042969"/>
  <use xlink:href="#glyph0-4" x="23.212326" y="408.042969"/>
  <use xlink:href="#glyph0-22" x="26.542328" y="408.042969"/>
  <use xlink:href="#glyph0-14" x="32.652328" y="408.042969"/>
  <use xlink:href="#glyph0-11" x="38.762329" y="408.042969"/>
  <use xlink:href="#glyph0-10" x="47.652313" y="408.042969"/>
  <use xlink:href="#glyph0-16" x="53.212311" y="408.042969"/>
</g>
<g style="fill:rgb(0%,0%,0%);fill-opacity:1;">
  <use xlink:href="#glyph0-11" x="426.214844" y="280.171875"/>
  <use xlink:href="#glyph0-19" x="435.104828" y="280.171875"/>
  <use xlink:href="#glyph0-6" x="440.664825" y="280.171875"/>
  <use xlink:href="#glyph0-4" x="446.774826" y="280.171875"/>
  <use xlink:href="#glyph0-24" x="450.104828" y="280.171875"/>
  <use xlink:href="#glyph0-6" x="456.214828" y="280.171875"/>
  <use xlink:href="#glyph0-5" x="462.324829" y="280.171875"/>
  <use xlink:href="#glyph0-19" x="465.104828" y="280.171875"/>
  <use xlink:href="#glyph0-9" x="470.664825" y="280.171875"/>
  <use xlink:href="#glyph0-22" x="476.224823" y="280.171875"/>
  <use xlink:href="#glyph0-10" x="482.334824" y="280.171875"/>
  <use xlink:href="#glyph0-17" x="487.894821" y="280.171875"/>
  <use xlink:href="#glyph0-18" x="493.454819" y="280.171875"/>
  <use xlink:href="#glyph0-17" x="496.784821" y="280.171875"/>
</g>
<g style="fill:rgb(0%,0%,0%);fill-opacity:1;">
  <use xlink:href="#glyph0-11" x="28.785156" y="463.609375"/>
  <use xlink:href="#glyph0-19" x="37.67514" y="463.609375"/>
  <use xlink:href="#glyph0-6" x="43.235138" y="463.609375"/>
  <use xlink:href="#glyph0-4" x="49.345139" y="463.609375"/>
  <use xlink:href="#glyph0-21" x="52.67514" y="463.609375"/>
  <use xlink:href="#glyph0-22" x="58.235138" y="463.609375"/>
  <use xlink:href="#glyph0-10" x="64.345139" y="463.609375"/>
  <use xlink:href="#glyph0-23" x="69.905136" y="463.609375"/>
  <use xlink:href="#glyph0-26" x="73.795135" y="463.609375"/>
</g>
<g style="fill:rgb(0%,0%,0%);fill-opacity:1;">
  <use xlink:href="#glyph0-11" x="448.683594" y="547.890625"/>
  <use xlink:href="#glyph0-19" x="457.573578" y="547.890625"/>
  <use xlink:href="#glyph0-6" x="463.133575" y="547.890625"/>
  <use xlink:href="#glyph0-4" x="469.243576" y="547.890625"/>
  <use xlink:href="#glyph0-21" x="472.573578" y="547.890625"/>
  <use xlink:href="#glyph0-16" x="478.133575" y="547.890625"/>
  <use xlink:href="#glyph0-10" x="484.243576" y="547.890625"/>
  <use xlink:href="#glyph0-15" x="489.803574" y="547.890625"/>
  <use xlink:href="#glyph0-5" x="492.583572" y="547.890625"/>
</g>
<g style="fill:rgb(0%,0%,0%);fill-opacity:1;">
  <use xlink:href="#glyph0-16" x="282.398438" y="162.40625"/>
  <use xlink:href="#glyph0-17" x="288.508438" y="162.40625"/>
  <use xlink:href="#glyph0-14" x="294.068436" y="162.40625"/>
  <use xlink:href="#glyph0-23" x="300.178436" y="162.40625"/>
  <use xlink:href="#glyph0-6" x="304.068436" y="162.40625"/>
  <use xlink:href="#glyph0-4" x="310.178436" y="162.40625"/>
  <use xlink:href="#glyph0-22" x="313.508438" y="162.40625"/>
  <use xlink:href="#glyph0-14" x="319.618439" y="162.40625"/>
  <use xlink:href="#glyph0-11" x="325.728439" y="162.40625"/>
  <use xlink:href="#glyph0-10" x="334.618423" y="162.40625"/>
  <use xlink:href="#glyph0-16" x="340.178421" y="162.40625"/>
</g>
<g style="fill:rgb(0%,0%,0%);fill-opacity:1;">
  <use xlink:href="#glyph0-16" x="377.476562" y="184.148437"/>
  <use xlink:href="#glyph0-17" x="383.586563" y="184.148437"/>
  <use xlink:href="#glyph0-14" x="389.146561" y="184.148437"/>
  <use xlink:href="#glyph0-23" x="395.256561" y="184.148437"/>
  <use xlink:href="#glyph0-6" x="399.146561" y="184.148437"/>
  <use xlink:href="#glyph0-4" x="405.256561" y="184.148437"/>
  <use xlink:href="#glyph0-31" x="408.586563" y="184.148437"/>
  <use xlink:href="#glyph0-17" x="413.586563" y="184.148437"/>
  <use xlink:href="#glyph0-2" x="419.146561" y="184.148437"/>
  <use xlink:href="#glyph0-23" x="425.256561" y="184.148437"/>
  <use xlink:href="#glyph0-10" x="429.146561" y="184.148437"/>
  <use xlink:href="#glyph0-20" x="434.706558" y="184.148437"/>
  <use xlink:href="#glyph0-15" x="438.03656" y="184.148437"/>
  <use xlink:href="#glyph0-21" x="440.816559" y="184.148437"/>
  <use xlink:href="#glyph0-22" x="446.376556" y="184.148437"/>
</g>
</g>
</svg>
