<?xml version="1.0" encoding="UTF-8"?>
<svg xmlns="http://www.w3.org/2000/svg" xmlns:xlink="http://www.w3.org/1999/xlink" width="612pt" height="792pt" viewBox="0 0 612 792" version="1.1">
<defs>
<g>
<symbol overflow="visible" id="glyph0-0">
<path style="stroke:none;" d=""/>
</symbol>
<symbol overflow="visible" id="glyph0-1">
<path style="stroke:none;" d="M 5.015625 -1.46875 L 5.484375 0 L 7.03125 0 L 4.515625 -7.296875 L 2.84375 -7.296875 L 0.265625 0 L 1.796875 0 L 2.28125 -1.46875 L 5.015625 -1.46875 Z M 4.59375 -2.71875 L 2.703125 -2.71875 L 3.65625 -5.5625 L 4.59375 -2.71875 Z M 4.59375 -2.71875 "/>
</symbol>
<symbol overflow="visible" id="glyph0-2">
<path style="stroke:none;" d="M 4.078125 -5.40625 L 4.078125 -4.5625 C 3.65625 -5.203125 3.203125 -5.484375 2.578125 -5.484375 C 1.296875 -5.484375 0.34375 -4.234375 0.34375 -2.5625 C 0.34375 -0.890625 1.21875 0.234375 2.546875 0.234375 C 3.1875 0.234375 3.5625 0.046875 4.078125 -0.546875 L 4.078125 0.1875 C 4.078125 0.828125 3.59375 1.28125 2.890625 1.28125 C 2.359375 1.28125 2.015625 1.0625 1.90625 0.65625 L 0.453125 0.65625 C 0.453125 1.0625 0.625 1.359375 0.984375 1.65625 C 1.40625 2.015625 2.015625 2.1875 2.84375 2.1875 C 4.46875 2.1875 5.40625 1.453125 5.40625 0.1875 L 5.40625 -5.40625 L 4.078125 -5.40625 Z M 2.875 -4.3125 C 3.578125 -4.3125 4.09375 -3.59375 4.09375 -2.59375 C 4.09375 -1.609375 3.59375 -0.9375 2.859375 -0.9375 C 2.203125 -0.9375 1.734375 -1.609375 1.734375 -2.59375 C 1.734375 -3.609375 2.203125 -4.3125 2.875 -4.3125 Z M 2.875 -4.3125 "/>
</symbol>
<symbol overflow="visible" id="glyph0-3">
<path style="stroke:none;" d="M 0.625 -5.40625 L 0.625 0 L 2.03125 0 L 2.03125 -2.875 C 2.03125 -3.6875 2.4375 -4.09375 3.265625 -4.09375 C 3.40625 -4.09375 3.515625 -4.09375 3.703125 -4.0625 L 3.703125 -5.484375 C 3.625 -5.484375 3.5625 -5.484375 3.53125 -5.484375 C 2.890625 -5.484375 2.328125 -5.0625 2.03125 -4.34375 L 2.03125 -5.40625 L 0.625 -5.40625 Z M 0.625 -5.40625 "/>
</symbol>
<symbol overflow="visible" id="glyph0-4">
<path style="stroke:none;" d="M 3.015625 -5.484375 C 1.359375 -5.484375 0.34375 -4.40625 0.34375 -2.625 C 0.34375 -0.84375 1.359375 0.234375 3.015625 0.234375 C 4.65625 0.234375 5.6875 -0.859375 5.6875 -2.59375 C 5.6875 -4.421875 4.703125 -5.484375 3.015625 -5.484375 Z M 3.015625 -4.359375 C 3.796875 -4.359375 4.296875 -3.671875 4.296875 -2.609375 C 4.296875 -1.59375 3.765625 -0.90625 3.015625 -0.90625 C 2.265625 -0.90625 1.75 -1.59375 1.75 -2.625 C 1.75 -3.65625 2.265625 -4.359375 3.015625 -4.359375 Z M 3.015625 -4.359375 "/>
</symbol>
<symbol overflow="visible" id="glyph0-5">
<path style="stroke:none;" d="M 0.59375 -7.296875 L 0.59375 0 L 1.984375 0 L 1.984375 -0.546875 C 2.328125 -0.015625 2.796875 0.234375 3.484375 0.234375 C 4.765625 0.234375 5.75 -1 5.75 -2.625 C 5.75 -3.359375 5.53125 -4.09375 5.171875 -4.625 C 4.796875 -5.15625 4.140625 -5.484375 3.484375 -5.484375 C 2.8125 -5.484375 2.328125 -5.234375 1.984375 -4.703125 L 1.984375 -7.296875 L 0.59375 -7.296875 Z M 3.171875 -4.3125 C 3.859375 -4.3125 4.34375 -3.625 4.34375 -2.625 C 4.34375 -1.640625 3.859375 -0.9375 3.171875 -0.9375 C 2.453125 -0.9375 1.984375 -1.625 1.984375 -2.65625 C 1.984375 -3.625 2.46875 -4.3125 3.171875 -4.3125 Z M 3.171875 -4.3125 "/>
</symbol>
<symbol overflow="visible" id="glyph0-6">
<path style="stroke:none;" d="M 5.234375 -0.171875 C 4.984375 -0.40625 4.921875 -0.546875 4.921875 -0.828125 L 4.921875 -3.828125 C 4.921875 -4.9375 4.171875 -5.484375 2.703125 -5.484375 C 1.25 -5.484375 0.484375 -4.875 0.40625 -3.625 L 1.75 -3.625 C 1.8125 -4.1875 2.046875 -4.359375 2.734375 -4.359375 C 3.28125 -4.359375 3.546875 -4.1875 3.546875 -3.8125 C 3.546875 -3.640625 3.453125 -3.484375 3.3125 -3.40625 C 3.125 -3.296875 3.125 -3.296875 2.4375 -3.1875 L 1.875 -3.09375 C 0.796875 -2.90625 0.28125 -2.359375 0.28125 -1.390625 C 0.28125 -0.9375 0.40625 -0.546875 0.65625 -0.28125 C 0.96875 0.046875 1.4375 0.234375 1.921875 0.234375 C 2.515625 0.234375 3.0625 -0.03125 3.5625 -0.546875 C 3.5625 -0.265625 3.59375 -0.15625 3.71875 0 L 5.234375 0 L 5.234375 -0.171875 Z M 3.546875 -2.171875 C 3.546875 -1.359375 3.15625 -0.90625 2.4375 -0.90625 C 1.96875 -0.90625 1.6875 -1.15625 1.6875 -1.546875 C 1.6875 -1.96875 1.90625 -2.171875 2.484375 -2.296875 L 2.953125 -2.375 C 3.328125 -2.453125 3.390625 -2.46875 3.546875 -2.546875 L 3.546875 -2.171875 Z M 3.546875 -2.171875 "/>
</symbol>
<symbol overflow="visible" id="glyph0-7">
<path style="stroke:none;" d="M 5.21875 -3.375 C 5.125 -4.703125 4.234375 -5.484375 2.890625 -5.484375 C 1.28125 -5.484375 0.34375 -4.4375 0.34375 -2.59375 C 0.34375 -0.8125 1.265625 0.234375 2.875 0.234375 C 4.1875 0.234375 5.09375 -0.578125 5.21875 -1.875 L 3.875 -1.875 C 3.703125 -1.171875 3.421875 -0.90625 2.875 -0.90625 C 2.171875 -0.90625 1.734375 -1.546875 1.734375 -2.59375 C 1.734375 -3.09375 1.84375 -3.578125 2.015625 -3.90625 C 2.171875 -4.203125 2.484375 -4.359375 2.875 -4.359375 C 3.453125 -4.359375 3.71875 -4.09375 3.875 -3.375 L 5.21875 -3.375 Z M 5.21875 -3.375 "/>
</symbol>
<symbol overflow="visible" id="glyph0-8">
<path style="stroke:none;" d="M 3.015625 -5.296875 L 2.234375 -5.296875 L 2.234375 -6.734375 L 0.828125 -6.734375 L 0.828125 -5.296875 L 0.140625 -5.296875 L 0.140625 -4.359375 L 0.828125 -4.359375 L 0.828125 -1.046875 C 0.828125 -0.1875 1.28125 0.234375 2.203125 0.234375 C 2.515625 0.234375 2.765625 0.203125 3.015625 0.125 L 3.015625 -0.859375 C 2.875 -0.84375 2.796875 -0.828125 2.6875 -0.828125 C 2.3125 -0.828125 2.234375 -0.9375 2.234375 -1.421875 L 2.234375 -4.359375 L 3.015625 -4.359375 L 3.015625 -5.296875 Z M 3.015625 -5.296875 "/>
</symbol>
<symbol overflow="visible" id="glyph0-9">
<path style="stroke:none;" d="M 5.234375 -2.265625 C 5.25 -2.375 5.25 -2.4375 5.25 -2.5 C 5.25 -3.046875 5.171875 -3.546875 5.046875 -3.921875 C 4.6875 -4.90625 3.8125 -5.484375 2.71875 -5.484375 C 1.171875 -5.484375 0.21875 -4.375 0.21875 -2.5625 C 0.21875 -0.828125 1.15625 0.234375 2.6875 0.234375 C 3.90625 0.234375 4.875 -0.453125 5.1875 -1.515625 L 3.8125 -1.515625 C 3.640625 -1.09375 3.25 -0.84375 2.734375 -0.84375 C 2.34375 -0.84375 2.015625 -1.015625 1.8125 -1.3125 C 1.6875 -1.515625 1.640625 -1.75 1.625 -2.265625 L 5.234375 -2.265625 Z M 1.640625 -3.1875 C 1.734375 -4.015625 2.078125 -4.421875 2.703125 -4.421875 C 3.046875 -4.421875 3.375 -4.25 3.5625 -3.96875 C 3.703125 -3.765625 3.765625 -3.5625 3.796875 -3.1875 L 1.640625 -3.1875 Z M 1.640625 -3.1875 "/>
</symbol>
<symbol overflow="visible" id="glyph0-10">
<path style="stroke:none;" d="M 2.0625 -5.40625 L 0.671875 -5.40625 L 0.671875 0 L 2.0625 0 L 2.0625 -5.40625 Z M 2.0625 -7.296875 L 0.671875 -7.296875 L 0.671875 -6.046875 L 2.0625 -6.046875 L 2.0625 -7.296875 Z M 2.0625 -7.296875 "/>
</symbol>
<symbol overflow="visible" id="glyph0-11">
<path style="stroke:none;" d="M 5.40625 0 L 5.40625 -5.40625 L 4.015625 -5.40625 L 4.015625 -2.015625 C 4.015625 -1.375 3.5625 -0.953125 2.875 -0.953125 C 2.28125 -0.953125 1.984375 -1.28125 1.984375 -1.9375 L 1.984375 -5.40625 L 0.578125 -5.40625 L 0.578125 -1.640625 C 0.578125 -0.453125 1.234375 0.234375 2.390625 0.234375 C 3.125 0.234375 3.609375 -0.046875 4.015625 -0.640625 L 4.015625 0 L 5.40625 0 Z M 5.40625 0 "/>
</symbol>
<symbol overflow="visible" id="glyph0-12">
<path style="stroke:none;" d="M 0.59375 -5.40625 L 0.59375 0 L 2 0 L 2 -3.234375 C 2 -3.90625 2.359375 -4.296875 2.953125 -4.296875 C 3.4375 -4.296875 3.71875 -4.03125 3.71875 -3.59375 L 3.71875 0 L 5.125 0 L 5.125 -3.234375 C 5.125 -3.90625 5.484375 -4.296875 6.078125 -4.296875 C 6.546875 -4.296875 6.84375 -4.03125 6.84375 -3.59375 L 6.84375 0 L 8.234375 0 L 8.234375 -3.8125 C 8.234375 -4.875 7.59375 -5.484375 6.515625 -5.484375 C 5.84375 -5.484375 5.359375 -5.25 4.9375 -4.6875 C 4.6875 -5.203125 4.140625 -5.484375 3.46875 -5.484375 C 2.84375 -5.484375 2.453125 -5.28125 1.984375 -4.734375 L 1.984375 -5.40625 L 0.59375 -5.40625 Z M 0.59375 -5.40625 "/>
</symbol>
<symbol overflow="visible" id="glyph0-13">
<path style="stroke:none;" d="M 4.046875 0 L 5.453125 0 L 5.453125 -7.296875 L 4.046875 -7.296875 L 4.046875 -4.703125 C 3.703125 -5.234375 3.234375 -5.484375 2.5625 -5.484375 C 1.265625 -5.484375 0.296875 -4.25 0.296875 -2.625 C 0.296875 -1.890625 0.515625 -1.15625 0.875 -0.625 C 1.234375 -0.109375 1.90625 0.234375 2.5625 0.234375 C 3.234375 0.234375 3.703125 -0.015625 4.046875 -0.546875 L 4.046875 0 Z M 2.875 -4.3125 C 3.578125 -4.3125 4.046875 -3.625 4.046875 -2.59375 C 4.046875 -1.625 3.5625 -0.9375 2.875 -0.9375 C 2.171875 -0.9375 1.6875 -1.625 1.6875 -2.625 C 1.6875 -3.625 2.171875 -4.3125 2.875 -4.3125 Z M 2.875 -4.3125 "/>
</symbol>
<symbol overflow="visible" id="glyph0-14">
<path style="stroke:none;" d="M 4.046875 -5.40625 L 4.046875 -4.59375 C 3.703125 -5.1875 3.203125 -5.484375 2.546875 -5.484375 C 1.234375 -5.484375 0.28125 -4.265625 0.28125 -2.625 C 0.28125 -1.859375 0.5 -1.09375 0.859375 -0.609375 C 1.21875 -0.09375 1.890625 0.234375 2.53125 0.234375 C 3.203125 0.234375 3.703125 -0.046875 4.046875 -0.640625 L 4.046875 2.1875 L 5.4375 2.1875 L 5.4375 -5.40625 L 4.046875 -5.40625 Z M 2.859375 -4.3125 C 3.5625 -4.3125 4.046875 -3.640625 4.046875 -2.59375 C 4.046875 -1.609375 3.5625 -0.9375 2.859375 -0.9375 C 2.15625 -0.9375 1.6875 -1.609375 1.6875 -2.625 C 1.6875 -3.625 2.15625 -4.3125 2.859375 -4.3125 Z M 2.859375 -4.3125 "/>
</symbol>
<symbol overflow="visible" id="glyph0-15">
<path style="stroke:none;" d="M 3.125 -5.296875 L 2.296875 -5.296875 L 2.296875 -5.8125 C 2.296875 -6.09375 2.421875 -6.234375 2.6875 -6.234375 C 2.796875 -6.234375 2.953125 -6.234375 3.078125 -6.203125 L 3.078125 -7.265625 C 2.8125 -7.28125 2.46875 -7.296875 2.28125 -7.296875 C 1.34375 -7.296875 0.90625 -6.84375 0.90625 -5.9375 L 0.90625 -5.296875 L 0.140625 -5.296875 L 0.140625 -4.359375 L 0.90625 -4.359375 L 0.90625 0 L 2.296875 0 L 2.296875 -4.359375 L 3.125 -4.359375 L 3.125 -5.296875 Z M 3.125 -5.296875 "/>
</symbol>
<symbol overflow="visible" id="glyph0-16">
<path style="stroke:none;" d="M 3.546875 -2.71875 L 5.3125 -5.40625 L 3.625 -5.40625 L 2.765625 -3.765625 L 1.875 -5.40625 L 0.203125 -5.40625 L 1.953125 -2.71875 L 0.15625 0 L 1.84375 0 L 2.765625 -1.6875 L 3.671875 0 L 5.34375 0 L 3.546875 -2.71875 Z M 3.546875 -2.71875 "/>
</symbol>
<symbol overflow="visible" id="glyph0-17">
<path style="stroke:none;" d="M 0.671875 -7.296875 L 0.671875 0 L 2.0625 0 L 2.0625 -3.234375 C 2.0625 -3.859375 2.515625 -4.296875 3.15625 -4.296875 C 3.453125 -4.296875 3.6875 -4.1875 3.84375 -3.96875 C 3.96875 -3.796875 4.015625 -3.65625 4.015625 -3.296875 L 4.015625 0 L 5.40625 0 L 5.40625 -3.625 C 5.40625 -4.296875 5.234375 -4.765625 4.859375 -5.078125 C 4.546875 -5.34375 4.09375 -5.484375 3.65625 -5.484375 C 2.953125 -5.484375 2.453125 -5.203125 2.0625 -4.625 L 2.0625 -7.296875 L 0.671875 -7.296875 Z M 0.671875 -7.296875 "/>
</symbol>
<symbol overflow="visible" id="glyph0-18">
<path style="stroke:none;" d="M 2.0625 -7.296875 L 0.671875 -7.296875 L 0.671875 0 L 2.0625 0 L 2.0625 -7.296875 Z M 2.0625 -7.296875 "/>
</symbol>
<symbol overflow="visible" id="glyph0-19">
<path style="stroke:none;" d="M 5.046875 -3.65625 C 5.03125 -4.796875 4.15625 -5.484375 2.703125 -5.484375 C 1.328125 -5.484375 0.484375 -4.796875 0.484375 -3.6875 C 0.484375 -3.328125 0.59375 -3.015625 0.78125 -2.8125 C 0.96875 -2.625 1.140625 -2.53125 1.65625 -2.359375 L 3.328125 -1.84375 C 3.6875 -1.734375 3.796875 -1.625 3.796875 -1.40625 C 3.796875 -1.0625 3.40625 -0.875 2.765625 -0.875 C 2.40625 -0.875 2.109375 -0.9375 1.9375 -1.0625 C 1.78125 -1.171875 1.71875 -1.28125 1.65625 -1.5625 L 0.296875 -1.5625 C 0.328125 -0.390625 1.203125 0.234375 2.84375 0.234375 C 3.59375 0.234375 4.15625 0.0625 4.5625 -0.25 C 4.953125 -0.5625 5.203125 -1.0625 5.203125 -1.59375 C 5.203125 -2.296875 4.84375 -2.75 4.140625 -2.953125 L 2.375 -3.46875 C 1.984375 -3.59375 1.875 -3.671875 1.875 -3.890625 C 1.875 -4.1875 2.203125 -4.390625 2.6875 -4.390625 C 3.359375 -4.390625 3.6875 -4.15625 3.703125 -3.65625 L 5.046875 -3.65625 Z M 5.046875 -3.65625 "/>
</symbol>
<symbol overflow="visible" id="glyph0-20">
<path style="stroke:none;" d="M 0.8125 0 L 4.09375 0 C 4.9375 0 5.5 -0.15625 5.9375 -0.53125 C 6.375 -0.90625 6.65625 -1.515625 6.65625 -2.09375 C 6.65625 -2.8125 6.265625 -3.390625 5.453125 -3.875 C 6.171875 -4.328125 6.453125 -4.75 6.453125 -5.375 C 6.453125 -5.875 6.203125 -6.40625 5.796875 -6.765625 C 5.359375 -7.125 4.84375 -7.296875 4.0625 -7.296875 L 0.8125 -7.296875 L 0.8125 0 Z M 2.3125 -6.046875 L 3.953125 -6.046875 C 4.640625 -6.046875 5.015625 -5.75 5.015625 -5.203125 C 5.015625 -4.6875 4.640625 -4.390625 3.953125 -4.390625 L 2.3125 -4.390625 L 2.3125 -6.046875 Z M 2.3125 -3.140625 L 4.109375 -3.140625 C 4.84375 -3.140625 5.21875 -2.8125 5.21875 -2.1875 C 5.21875 -1.578125 4.84375 -1.25 4.109375 -1.25 L 2.3125 -1.25 L 2.3125 -3.140625 Z M 2.3125 -3.140625 "/>
</symbol>
<symbol overflow="visible" id="glyph0-21">
<path style="stroke:none;" d="M 6.8125 -4.8125 C 6.765625 -5.453125 6.640625 -5.84375 6.328125 -6.265625 C 5.765625 -7 4.875 -7.40625 3.78125 -7.40625 C 1.71875 -7.40625 0.4375 -5.9375 0.4375 -3.578125 C 0.4375 -1.234375 1.703125 0.234375 3.734375 0.234375 C 5.546875 0.234375 6.765625 -0.8125 6.84375 -2.484375 L 5.390625 -2.484375 C 5.296875 -1.5625 4.703125 -1.03125 3.78125 -1.03125 C 2.625 -1.03125 1.9375 -1.96875 1.9375 -3.5625 C 1.9375 -5.171875 2.65625 -6.125 3.828125 -6.125 C 4.34375 -6.125 4.78125 -5.953125 5.0625 -5.59375 C 5.21875 -5.40625 5.296875 -5.203125 5.390625 -4.8125 L 6.8125 -4.8125 Z M 6.8125 -4.8125 "/>
</symbol>
<symbol overflow="visible" id="glyph0-22">
<path style="stroke:none;" d="M 0.625 -5.40625 L 0.625 0 L 2.03125 0 L 2.03125 -3.234375 C 2.03125 -3.875 2.484375 -4.296875 3.15625 -4.296875 C 3.765625 -4.296875 4.0625 -3.96875 4.0625 -3.328125 L 4.0625 0 L 5.453125 0 L 5.453125 -3.625 C 5.453125 -4.8125 4.796875 -5.484375 3.65625 -5.484375 C 2.921875 -5.484375 2.4375 -5.21875 2.03125 -4.625 L 2.03125 -5.40625 L 0.625 -5.40625 Z M 0.625 -5.40625 "/>
</symbol>
<symbol overflow="visible" id="glyph0-23">
<path style="stroke:none;" d="M 1.984375 -5.40625 L 0.578125 -5.40625 L 0.578125 2.1875 L 1.984375 2.1875 L 1.984375 -0.640625 C 2.3125 -0.046875 2.796875 0.234375 3.484375 0.234375 C 4.78125 0.234375 5.734375 -0.984375 5.734375 -2.625 C 5.734375 -3.375 5.515625 -4.140625 5.15625 -4.640625 C 4.796875 -5.15625 4.125 -5.484375 3.484375 -5.484375 C 2.796875 -5.484375 2.3125 -5.203125 1.984375 -4.59375 L 1.984375 -5.40625 Z M 3.15625 -4.3125 C 3.875 -4.3125 4.34375 -3.625 4.34375 -2.59375 C 4.34375 -1.625 3.84375 -0.9375 3.15625 -0.9375 C 2.453125 -0.9375 1.984375 -1.609375 1.984375 -2.625 C 1.984375 -3.625 2.453125 -4.3125 3.15625 -4.3125 Z M 3.15625 -4.3125 "/>
</symbol>
<symbol overflow="visible" id="glyph0-24">
<path style="stroke:none;" d="M 3.9375 -5.40625 L 2.8125 -1.46875 L 1.625 -5.40625 L 0.09375 -5.40625 L 2.09375 0.21875 L 2.09375 0.234375 L 2.09375 0.265625 C 2.09375 0.765625 1.71875 1.15625 1.234375 1.15625 C 1.125 1.15625 1.046875 1.15625 0.859375 1.09375 L 0.859375 2.15625 C 1.0625 2.1875 1.1875 2.1875 1.359375 2.1875 C 1.703125 2.1875 2.125 2.125 2.375 2.015625 C 2.765625 1.859375 2.9375 1.625 3.15625 0.984375 L 5.375 -5.40625 L 3.9375 -5.40625 Z M 3.9375 -5.40625 "/>
</symbol>
<symbol overflow="visible" id="glyph0-25">
<path style="stroke:none;" d="M 0.765625 0 L 3.625 0 C 4.734375 0 5.4375 -0.265625 5.921875 -0.84375 C 6.5 -1.53125 6.8125 -2.515625 6.8125 -3.65625 C 6.8125 -4.765625 6.5 -5.765625 5.921875 -6.453125 C 5.4375 -7.046875 4.734375 -7.296875 3.625 -7.296875 L 0.765625 -7.296875 L 0.765625 0 Z M 2.265625 -1.25 L 2.265625 -6.046875 L 3.625 -6.046875 C 4.75 -6.046875 5.3125 -5.25 5.3125 -3.640625 C 5.3125 -2.046875 4.75 -1.25 3.625 -1.25 L 2.265625 -1.25 Z M 2.265625 -1.25 "/>
</symbol>
<symbol overflow="visible" id="glyph0-26">
<path style="stroke:none;" d="M 2.296875 -3.140625 L 5.78125 -3.140625 L 5.78125 -4.390625 L 2.296875 -4.390625 L 2.296875 -6.046875 L 6.0625 -6.046875 L 6.0625 -7.296875 L 0.796875 -7.296875 L 0.796875 0 L 6.234375 0 L 6.234375 -1.25 L 2.296875 -1.25 L 2.296875 -3.140625 Z M 2.296875 -3.140625 "/>
</symbol>
<symbol overflow="visible" id="glyph0-27">
<path style="stroke:none;" d="M 2.234375 -3.140625 L 5.4375 -3.140625 L 5.4375 -4.390625 L 2.234375 -4.390625 L 2.234375 -6.046875 L 5.859375 -6.046875 L 5.859375 -7.296875 L 0.734375 -7.296875 L 0.734375 0 L 2.234375 0 L 2.234375 -3.140625 Z M 2.234375 -3.140625 "/>
</symbol>
<symbol overflow="visible" id="glyph0-28">
<path style="stroke:none;" d="M 3.5 0 L 5.359375 -5.40625 L 3.875 -5.40625 L 2.796875 -1.453125 L 1.625 -5.40625 L 0.140625 -5.40625 L 2.03125 0 L 3.5 0 Z M 3.5 0 "/>
</symbol>
<symbol overflow="visible" id="glyph0-29">
<path style="stroke:none;" d="M 7.109375 -3.921875 L 4.1875 -3.921875 L 4.1875 -2.671875 L 5.84375 -2.671875 C 5.8125 -2.265625 5.703125 -2.015625 5.484375 -1.75 C 5.125 -1.3125 4.578125 -1.046875 4 -1.046875 C 2.796875 -1.046875 1.921875 -2.109375 1.921875 -3.609375 C 1.921875 -5.1875 2.6875 -6.125 3.953125 -6.125 C 4.484375 -6.125 4.921875 -5.984375 5.25 -5.6875 C 5.453125 -5.515625 5.5625 -5.34375 5.703125 -4.953125 L 7.109375 -4.953125 C 6.9375 -6.453125 5.703125 -7.40625 3.953125 -7.40625 C 1.84375 -7.40625 0.421875 -5.859375 0.421875 -3.59375 C 0.421875 -1.375 1.859375 0.234375 3.828125 0.234375 C 4.8125 0.234375 5.46875 -0.125 6.03125 -0.9375 L 6.203125 0.015625 L 7.109375 0.015625 L 7.109375 -3.921875 Z M 7.109375 -3.921875 "/>
</symbol>
<symbol overflow="visible" id="glyph0-30">
<path style="stroke:none;" d="M 5.0625 -3.3125 L 5.0625 0 L 6.5625 0 L 6.5625 -7.296875 L 5.0625 -7.296875 L 5.0625 -4.5625 L 2.1875 -4.5625 L 2.1875 -7.296875 L 0.6875 -7.296875 L 0.6875 0 L 2.1875 0 L 2.1875 -3.3125 L 5.0625 -3.3125 Z M 5.0625 -3.3125 "/>
</symbol>
<symbol overflow="visible" id="glyph0-31">
<path style="stroke:none;" d="M 2.15625 -5.6875 L 3.46875 0 L 4.96875 0 L 6.265625 -5.6875 L 6.265625 0 L 7.765625 0 L 7.765625 -7.296875 L 5.5 -7.296875 L 4.21875 -1.484375 L 2.90625 -7.296875 L 0.65625 -7.296875 L 0.65625 0 L 2.15625 0 L 2.15625 -5.6875 Z M 2.15625 -5.6875 "/>
</symbol>
<symbol overflow="visible" id="glyph0-32">
<path style="stroke:none;" d="M 2.140625 -1.453125 L 0.640625 -1.453125 L 0.640625 0 L 2.140625 0 L 2.140625 -1.453125 Z M 2.140625 -1.453125 "/>
</symbol>
<symbol overflow="visible" id="glyph0-33">
<path style="stroke:none;" d="M 5.109375 0 L 6.609375 0 L 6.609375 -7.296875 L 5.109375 -7.296875 L 5.109375 -2.328125 L 2.21875 -7.296875 L 0.6875 -7.296875 L 0.6875 0 L 2.1875 0 L 2.1875 -5.046875 L 5.109375 0 Z M 5.109375 0 "/>
</symbol>
<symbol overflow="visible" id="glyph0-34">
<path style="stroke:none;" d="M 2.265625 -2.59375 L 4.125 -2.59375 C 5.46875 -2.59375 6.328125 -3.546875 6.328125 -5.03125 C 6.328125 -6.484375 5.5 -7.296875 3.984375 -7.296875 L 0.765625 -7.296875 L 0.765625 0 L 2.265625 0 L 2.265625 -2.59375 Z M 2.265625 -3.84375 L 2.265625 -6.046875 L 3.65625 -6.046875 C 4.453125 -6.046875 4.828125 -5.6875 4.828125 -4.9375 C 4.828125 -4.203125 4.453125 -3.84375 3.65625 -3.84375 L 2.265625 -3.84375 Z M 2.265625 -3.84375 "/>
</symbol>
<symbol overflow="visible" id="glyph0-35">
<path style="stroke:none;" d="M 6.0625 -5.0625 C 6.0625 -5.734375 5.921875 -6.1875 5.5625 -6.578125 C 5.0625 -7.125 4.265625 -7.40625 3.203125 -7.40625 C 1.453125 -7.40625 0.453125 -6.59375 0.453125 -5.171875 C 0.453125 -4.046875 1.015625 -3.484375 2.5 -3.203125 L 3.515625 -3.015625 C 4.515625 -2.8125 4.890625 -2.546875 4.890625 -1.953125 C 4.890625 -1.34375 4.328125 -0.96875 3.421875 -0.96875 C 2.40625 -0.96875 1.828125 -1.40625 1.78125 -2.1875 L 0.3125 -2.1875 C 0.40625 -0.625 1.484375 0.234375 3.34375 0.234375 C 5.21875 0.234375 6.328125 -0.65625 6.328125 -2.125 C 6.328125 -3.28125 5.75 -3.875 4.40625 -4.140625 L 3.265625 -4.359375 C 2.1875 -4.5625 1.875 -4.78125 1.875 -5.3125 C 1.875 -5.859375 2.375 -6.203125 3.140625 -6.203125 C 4.09375 -6.203125 4.625 -5.8125 4.671875 -5.0625 L 6.0625 -5.0625 Z M 6.0625 -5.0625 "/>
</symbol>
<symbol overflow="visible" id="glyph0-36">
<path style="stroke:none;" d="M 3.84375 -6.046875 L 5.984375 -6.046875 L 5.984375 -7.296875 L 0.140625 -7.296875 L 0.140625 -6.046875 L 2.34375 -6.046875 L 2.34375 0 L 3.84375 0 L 3.84375 -6.046875 Z M 3.84375 -6.046875 "/>
</symbol>
<symbol overflow="visible" id="glyph0-37">
<path style="stroke:none;" d="M 4.1875 -3.71875 L 6.4375 -7.296875 L 4.703125 -7.296875 L 3.359375 -4.890625 L 2.078125 -7.296875 L 0.296875 -7.296875 L 2.515625 -3.671875 L 0.21875 0 L 1.953125 0 L 3.34375 -2.53125 L 4.75 0 L 6.53125 0 L 4.1875 -3.71875 Z M 4.1875 -3.71875 "/>
</symbol>
<symbol overflow="visible" id="glyph0-38">
<path style="stroke:none;" d="M 5.78125 -7.296875 L 0.296875 -7.296875 L 0.296875 -6.046875 L 4.03125 -6.046875 L 0.296875 -1.25 L 0.296875 0 L 5.78125 0 L 5.78125 -1.25 L 2.0625 -1.25 L 5.78125 -6.046875 L 5.78125 -7.296875 Z M 5.78125 -7.296875 "/>
</symbol>
</g>
</defs>
<g id="surface0">
<path style="fill:none;stroke-width:0.00805273;stroke-linecap:butt;stroke-linejoin:miter;stroke:rgb(0%,0%,0%);stroke-opacity:1;stroke-miterlimit:10;" d="M 0.231377 1.594821 L 0.181236 1.27441 " transform="matrix(248.362938,0,0,248.362938,371.507212,280.511068)"/>
<path style="fill:none;stroke-width:0.00805273;stroke-linecap:butt;stroke-linejoin:miter;stroke:rgb(0%,0%,0%);stroke-opacity:1;stroke-miterlimit:10;" d="M -0.00934001 -0.540458 L -0.00315891 -0.514429 " transform="matrix(248.362938,0,0,248.362938,371.507212,280.511068)"/>
<path style="fill:none;stroke-width:0.00805273;stroke-linecap:butt;stroke-linejoin:miter;stroke:rgb(0%,0%,0%);stroke-opacity:1;stroke-miterlimit:10;" d="M 0.354952 1.179665 L 0.272238 1.1545 " transform="matrix(248.362938,0,0,248.362938,371.507212,280.511068)"/>
<path style="fill:none;stroke-width:0.00805273;stroke-linecap:butt;stroke-linejoin:miter;stroke:rgb(0%,0%,0%);stroke-opacity:1;stroke-miterlimit:10;" d="M -0.734778 0.239367 L -0.653606 0.450845 " transform="matrix(248.362938,0,0,248.362938,371.507212,280.511068)"/>
<path style="fill:none;stroke-width:0.00805273;stroke-linecap:butt;stroke-linejoin:miter;stroke:rgb(0%,0%,0%);stroke-opacity:1;stroke-miterlimit:10;" d="M 0.602038 1.186664 L 0.427725 1.079902 " transform="matrix(248.362938,0,0,248.362938,371.507212,280.511068)"/>
<path style="fill:none;stroke-width:0.00805273;stroke-linecap:butt;stroke-linejoin:miter;stroke:rgb(0%,0%,0%);stroke-opacity:1;stroke-miterlimit:10;" d="M 0.352058 -0.421586 L 0.147562 -0.313205 " transform="matrix(248.362938,0,0,248.362938,371.507212,280.511068)"/>
<path style="fill:none;stroke-width:0.00805273;stroke-linecap:butt;stroke-linejoin:miter;stroke:rgb(0%,0%,0%);stroke-opacity:1;stroke-miterlimit:10;" d="M 0.575159 1.73587 L 0.104137 1.06213 " transform="matrix(248.362938,0,0,248.362938,371.507212,280.511068)"/>
<path style="fill:none;stroke-width:0.00805273;stroke-linecap:butt;stroke-linejoin:miter;stroke:rgb(0%,0%,0%);stroke-opacity:1;stroke-miterlimit:10;" d="M -0.35015 -0.752362 L -0.305671 -0.725687 " transform="matrix(248.362938,0,0,248.362938,371.507212,280.511068)"/>
<path style="fill:none;stroke-width:0.00805273;stroke-linecap:butt;stroke-linejoin:miter;stroke:rgb(0%,0%,0%);stroke-opacity:1;stroke-miterlimit:10;" d="M 0.313839 1.291302 L 0.104137 1.06213 " transform="matrix(248.362938,0,0,248.362938,371.507212,280.511068)"/>
<path style="fill:none;stroke-width:0.00805273;stroke-linecap:butt;stroke-linejoin:miter;stroke:rgb(0%,0%,0%);stroke-opacity:1;stroke-miterlimit:10;" d="M 0.295956 -0.323381 L 0.24668 -0.300968 " transform="matrix(248.362938,0,0,248.362938,371.507212,280.511068)"/>
<path style="fill:none;stroke-width:0.00805273;stroke-linecap:butt;stroke-linejoin:miter;stroke:rgb(0%,0%,0%);stroke-opacity:1;stroke-miterlimit:10;" d="M -0.351267 -0.242051 L -0.138451 -0.239079 " transform="matrix(248.362938,0,0,248.362938,371.507212,280.511068)"/>
<path style="fill:none;stroke-width:0.00805273;stroke-linecap:butt;stroke-linejoin:miter;stroke:rgb(0%,0%,0%);stroke-opacity:1;stroke-miterlimit:10;" d="M -1.197086 0.399777 L -1.069391 0.281424 " transform="matrix(248.362938,0,0,248.362938,371.507212,280.511068)"/>
<path style="fill:none;stroke-width:0.00805273;stroke-linecap:butt;stroke-linejoin:miter;stroke:rgb(0%,0%,0%);stroke-opacity:1;stroke-miterlimit:10;" d="M 0.108478 -0.805868 L 0.0457551 -0.380143 " transform="matrix(248.362938,0,0,248.362938,371.507212,280.511068)"/>
<path style="fill:none;stroke-width:0.00805273;stroke-linecap:butt;stroke-linejoin:miter;stroke:rgb(0%,0%,0%);stroke-opacity:1;stroke-miterlimit:10;" d="M 0.234963 -0.485693 L 0.147562 -0.313205 " transform="matrix(248.362938,0,0,248.362938,371.507212,280.511068)"/>
<path style="fill:none;stroke-width:0.00805273;stroke-linecap:butt;stroke-linejoin:miter;stroke:rgb(0%,0%,0%);stroke-opacity:1;stroke-miterlimit:10;" d="M -0.105595 1.494649 L 0.181236 1.27441 " transform="matrix(248.362938,0,0,248.362938,371.507212,280.511068)"/>
<path style="fill:none;stroke-width:0.00805273;stroke-linecap:butt;stroke-linejoin:miter;stroke:rgb(0%,0%,0%);stroke-opacity:1;stroke-miterlimit:10;" d="M 0.141193 -0.406283 L 0.00365131 -0.233479 " transform="matrix(248.362938,0,0,248.362938,371.507212,280.511068)"/>
<path style="fill:none;stroke-width:0.00805273;stroke-linecap:butt;stroke-linejoin:miter;stroke:rgb(0%,0%,0%);stroke-opacity:1;stroke-miterlimit:10;" d="M 0.721901 0.835961 L 0.359183 1.017085 " transform="matrix(248.362938,0,0,248.362938,371.507212,280.511068)"/>
<path style="fill:none;stroke-width:0.00805273;stroke-linecap:butt;stroke-linejoin:miter;stroke:rgb(0%,0%,0%);stroke-opacity:1;stroke-miterlimit:10;" d="M 0.0505522 -0.0276157 L -0.0694367 -0.0420698 " transform="matrix(248.362938,0,0,248.362938,371.507212,280.511068)"/>
<path style="fill:none;stroke-width:0.00805273;stroke-linecap:butt;stroke-linejoin:miter;stroke:rgb(0%,0%,0%);stroke-opacity:1;stroke-miterlimit:10;" d="M 0.514009 1.073737 L 0.427725 1.079902 " transform="matrix(248.362938,0,0,248.362938,371.507212,280.511068)"/>
<path style="fill:none;stroke-width:0.00805273;stroke-linecap:butt;stroke-linejoin:miter;stroke:rgb(0%,0%,0%);stroke-opacity:1;stroke-miterlimit:10;" d="M -0.544045 0.973785 L -0.409193 0.685161 " transform="matrix(248.362938,0,0,248.362938,371.507212,280.511068)"/>
<path style="fill:none;stroke-width:0.00805273;stroke-linecap:butt;stroke-linejoin:miter;stroke:rgb(0%,0%,0%);stroke-opacity:1;stroke-miterlimit:10;" d="M -0.542126 0.893478 L -0.409193 0.685161 " transform="matrix(248.362938,0,0,248.362938,371.507212,280.511068)"/>
<path style="fill:none;stroke-width:0.00805273;stroke-linecap:butt;stroke-linejoin:miter;stroke:rgb(0%,0%,0%);stroke-opacity:1;stroke-miterlimit:10;" d="M -0.611958 0.926444 L -0.409193 0.685161 " transform="matrix(248.362938,0,0,248.362938,371.507212,280.511068)"/>
<path style="fill:none;stroke-width:0.00805273;stroke-linecap:butt;stroke-linejoin:miter;stroke:rgb(0%,0%,0%);stroke-opacity:1;stroke-miterlimit:10;" d="M -0.758338 1.004628 L -0.409193 0.685161 " transform="matrix(248.362938,0,0,248.362938,371.507212,280.511068)"/>
<path style="fill:none;stroke-width:0.00805273;stroke-linecap:butt;stroke-linejoin:miter;stroke:rgb(0%,0%,0%);stroke-opacity:1;stroke-miterlimit:10;" d="M 0.268086 -0.295699 L 0.24668 -0.300968 " transform="matrix(248.362938,0,0,248.362938,371.507212,280.511068)"/>
<path style="fill:none;stroke-width:0.00805273;stroke-linecap:butt;stroke-linejoin:miter;stroke:rgb(0%,0%,0%);stroke-opacity:1;stroke-miterlimit:10;" d="M -1.100957 0.76075 L -1.030118 0.698247 " transform="matrix(248.362938,0,0,248.362938,371.507212,280.511068)"/>
<path style="fill:none;stroke-width:0.00805273;stroke-linecap:butt;stroke-linejoin:miter;stroke:rgb(0%,0%,0%);stroke-opacity:1;stroke-miterlimit:10;" d="M -0.842121 0.545874 L -0.72899 0.584062 " transform="matrix(248.362938,0,0,248.362938,371.507212,280.511068)"/>
<path style="fill:none;stroke-width:0.00805273;stroke-linecap:butt;stroke-linejoin:miter;stroke:rgb(0%,0%,0%);stroke-opacity:1;stroke-miterlimit:10;" d="M -0.859532 0.562593 L -0.831175 0.572045 " transform="matrix(248.362938,0,0,248.362938,371.507212,280.511068)"/>
<path style="fill:none;stroke-width:0.00805273;stroke-linecap:butt;stroke-linejoin:miter;stroke:rgb(0%,0%,0%);stroke-opacity:1;stroke-miterlimit:10;" d="M -0.928767 0.577047 L -0.831175 0.572045 " transform="matrix(248.362938,0,0,248.362938,371.507212,280.511068)"/>
<path style="fill:none;stroke-width:0.00805273;stroke-linecap:butt;stroke-linejoin:miter;stroke:rgb(0%,0%,0%);stroke-opacity:1;stroke-miterlimit:10;" d="M -0.849278 0.992832 L -0.409193 0.685161 " transform="matrix(248.362938,0,0,248.362938,371.507212,280.511068)"/>
<path style="fill:none;stroke-width:0.00805273;stroke-linecap:butt;stroke-linejoin:miter;stroke:rgb(0%,0%,0%);stroke-opacity:1;stroke-miterlimit:10;" d="M -0.60065 1.370068 L -0.496263 1.039812 " transform="matrix(248.362938,0,0,248.362938,371.507212,280.511068)"/>
<path style="fill:none;stroke-width:0.00805273;stroke-linecap:butt;stroke-linejoin:miter;stroke:rgb(0%,0%,0%);stroke-opacity:1;stroke-miterlimit:10;" d="M -1.090105 0.684312 L -1.030118 0.698247 " transform="matrix(248.362938,0,0,248.362938,371.507212,280.511068)"/>
<path style="fill:none;stroke-width:0.00805273;stroke-linecap:butt;stroke-linejoin:miter;stroke:rgb(0%,0%,0%);stroke-opacity:1;stroke-miterlimit:10;" d="M -0.52127 1.181065 L -0.496263 1.039812 " transform="matrix(248.362938,0,0,248.362938,371.507212,280.511068)"/>
<path style="fill:none;stroke-width:0.00805273;stroke-linecap:butt;stroke-linejoin:miter;stroke:rgb(0%,0%,0%);stroke-opacity:1;stroke-miterlimit:10;" d="M -0.99959 0.991951 L -0.409193 0.685161 " transform="matrix(248.362938,0,0,248.362938,371.507212,280.511068)"/>
<path style="fill:none;stroke-width:0.00805273;stroke-linecap:butt;stroke-linejoin:miter;stroke:rgb(0%,0%,0%);stroke-opacity:1;stroke-miterlimit:10;" d="M -0.686933 0.786009 L -0.409193 0.685161 " transform="matrix(248.362938,0,0,248.362938,371.507212,280.511068)"/>
<path style="fill:none;stroke-width:0.00805273;stroke-linecap:butt;stroke-linejoin:miter;stroke:rgb(0%,0%,0%);stroke-opacity:1;stroke-miterlimit:10;" d="M -0.589435 -0.423474 L -0.252007 -0.341279 " transform="matrix(248.362938,0,0,248.362938,371.507212,280.511068)"/>
<path style="fill:none;stroke-width:0.00805273;stroke-linecap:butt;stroke-linejoin:miter;stroke:rgb(0%,0%,0%);stroke-opacity:1;stroke-miterlimit:10;" d="M 0.0967296 -0.451013 L 0.0457551 -0.380143 " transform="matrix(248.362938,0,0,248.362938,371.507212,280.511068)"/>
<path style="fill:none;stroke-width:0.00805273;stroke-linecap:butt;stroke-linejoin:miter;stroke:rgb(0%,0%,0%);stroke-opacity:1;stroke-miterlimit:10;" d="M -0.979773 0.0494986 L -0.783456 0.368069 " transform="matrix(248.362938,0,0,248.362938,371.507212,280.511068)"/>
<path style="fill:none;stroke-width:0.00805273;stroke-linecap:butt;stroke-linejoin:miter;stroke:rgb(0%,0%,0%);stroke-opacity:1;stroke-miterlimit:10;" d="M -0.405308 1.052347 L -0.401895 1.031083 " transform="matrix(248.362938,0,0,248.362938,371.507212,280.511068)"/>
<path style="fill:none;stroke-width:0.00805273;stroke-linecap:butt;stroke-linejoin:miter;stroke:rgb(0%,0%,0%);stroke-opacity:1;stroke-miterlimit:10;" d="M -0.290729 -0.790502 L -0.305671 -0.725687 " transform="matrix(248.362938,0,0,248.362938,371.507212,280.511068)"/>
<path style="fill:none;stroke-width:0.00805273;stroke-linecap:butt;stroke-linejoin:miter;stroke:rgb(0%,0%,0%);stroke-opacity:1;stroke-miterlimit:10;" d="M 0.402372 0.929165 L 0.359183 1.017085 " transform="matrix(248.362938,0,0,248.362938,371.507212,280.511068)"/>
<path style="fill:none;stroke-width:0.00805273;stroke-linecap:butt;stroke-linejoin:miter;stroke:rgb(0%,0%,0%);stroke-opacity:1;stroke-miterlimit:10;" d="M 0.390859 1.303067 L 0.104137 1.06213 " transform="matrix(248.362938,0,0,248.362938,371.507212,280.511068)"/>
<path style="fill:none;stroke-width:0.00805273;stroke-linecap:butt;stroke-linejoin:miter;stroke:rgb(0%,0%,0%);stroke-opacity:1;stroke-miterlimit:10;" d="M -1.249413 0.248584 L -1.069391 0.281424 " transform="matrix(248.362938,0,0,248.362938,371.507212,280.511068)"/>
<path style="fill:none;stroke-width:0.00805273;stroke-linecap:butt;stroke-linejoin:miter;stroke:rgb(0%,0%,0%);stroke-opacity:1;stroke-miterlimit:10;" d="M -0.389973 1.088773 L -0.401895 1.031083 " transform="matrix(248.362938,0,0,248.362938,371.507212,280.511068)"/>
<path style="fill:none;stroke-width:0.00805273;stroke-linecap:butt;stroke-linejoin:miter;stroke:rgb(0%,0%,0%);stroke-opacity:1;stroke-miterlimit:10;" d="M -1.009546 0.817795 L -0.409193 0.685161 " transform="matrix(248.362938,0,0,248.362938,371.507212,280.511068)"/>
<path style="fill:none;stroke-width:0.00805273;stroke-linecap:butt;stroke-linejoin:miter;stroke:rgb(0%,0%,0%);stroke-opacity:1;stroke-miterlimit:10;" d="M 0.525349 1.328939 L 0.272238 1.1545 " transform="matrix(248.362938,0,0,248.362938,371.507212,280.511068)"/>
<path style="fill:none;stroke-width:0.00805273;stroke-linecap:butt;stroke-linejoin:miter;stroke:rgb(0%,0%,0%);stroke-opacity:1;stroke-miterlimit:10;" d="M 0.106638 1.460991 L 0.181236 1.27441 " transform="matrix(248.362938,0,0,248.362938,371.507212,280.511068)"/>
<path style="fill:none;stroke-width:0.00805273;stroke-linecap:butt;stroke-linejoin:miter;stroke:rgb(0%,0%,0%);stroke-opacity:1;stroke-miterlimit:10;" d="M 0.270996 -0.270346 L 0.223403 -0.301015 " transform="matrix(248.362938,0,0,248.362938,371.507212,280.511068)"/>
<path style="fill:none;stroke-width:0.00805273;stroke-linecap:butt;stroke-linejoin:miter;stroke:rgb(0%,0%,0%);stroke-opacity:1;stroke-miterlimit:10;" d="M -0.411049 -0.524196 L -0.252007 -0.341279 " transform="matrix(248.362938,0,0,248.362938,371.507212,280.511068)"/>
<path style="fill:none;stroke-width:0.00805273;stroke-linecap:butt;stroke-linejoin:miter;stroke:rgb(0%,0%,0%);stroke-opacity:1;stroke-miterlimit:10;" d="M 0.313587 1.085218 L 0.427725 1.079902 " transform="matrix(248.362938,0,0,248.362938,371.507212,280.511068)"/>
<path style="fill:none;stroke-width:0.00805273;stroke-linecap:butt;stroke-linejoin:miter;stroke:rgb(0%,0%,0%);stroke-opacity:1;stroke-miterlimit:10;" d="M 0.223403 -0.301015 L 0.24668 -0.300968 " transform="matrix(248.362938,0,0,248.362938,371.507212,280.511068)"/>
<path style="fill:none;stroke-width:0.00805273;stroke-linecap:butt;stroke-linejoin:miter;stroke:rgb(0%,0%,0%);stroke-opacity:1;stroke-miterlimit:10;" d="M -0.72899 0.584062 L -0.831175 0.572045 " transform="matrix(248.362938,0,0,248.362938,371.507212,280.511068)"/>
<path style="fill:none;stroke-width:0.00805273;stroke-linecap:butt;stroke-linejoin:miter;stroke:rgb(0%,0%,0%);stroke-opacity:1;stroke-miterlimit:10;" d="M -0.409193 0.685161 L -1.030118 0.698247 " transform="matrix(248.362938,0,0,248.362938,371.507212,280.511068)"/>
<path style="fill:none;stroke-width:0.00805273;stroke-linecap:butt;stroke-linejoin:miter;stroke:rgb(0%,0%,0%);stroke-opacity:1;stroke-miterlimit:10;" d="M -0.409193 0.685161 L -0.496263 1.039812 " transform="matrix(248.362938,0,0,248.362938,371.507212,280.511068)"/>
<path style="fill:none;stroke-width:0.00805273;stroke-linecap:butt;stroke-linejoin:miter;stroke:rgb(0%,0%,0%);stroke-opacity:1;stroke-miterlimit:10;" d="M -0.00315891 -0.514429 L -0.305671 -0.725687 " transform="matrix(248.362938,0,0,248.362938,371.507212,280.511068)"/>
<path style="fill:none;stroke-width:0.00805273;stroke-linecap:butt;stroke-linejoin:miter;stroke:rgb(0%,0%,0%);stroke-opacity:1;stroke-miterlimit:10;" d="M 0.313587 1.085218 L 0.359183 1.017085 " transform="matrix(248.362938,0,0,248.362938,371.507212,280.511068)"/>
<path style="fill:none;stroke-width:0.00805273;stroke-linecap:butt;stroke-linejoin:miter;stroke:rgb(0%,0%,0%);stroke-opacity:1;stroke-miterlimit:10;" d="M -0.783456 0.368069 L -1.069391 0.281424 " transform="matrix(248.362938,0,0,248.362938,371.507212,280.511068)"/>
<path style="fill:none;stroke-width:0.00805273;stroke-linecap:butt;stroke-linejoin:miter;stroke:rgb(0%,0%,0%);stroke-opacity:1;stroke-miterlimit:10;" d="M -0.409193 0.685161 L -0.401895 1.031083 " transform="matrix(248.362938,0,0,248.362938,371.507212,280.511068)"/>
<path style="fill:none;stroke-width:0.00805273;stroke-linecap:butt;stroke-linejoin:miter;stroke:rgb(0%,0%,0%);stroke-opacity:1;stroke-miterlimit:10;" d="M 0.104137 1.06213 L 0.272238 1.1545 " transform="matrix(248.362938,0,0,248.362938,371.507212,280.511068)"/>
<path style="fill:none;stroke-width:0.00805273;stroke-linecap:butt;stroke-linejoin:miter;stroke:rgb(0%,0%,0%);stroke-opacity:1;stroke-miterlimit:10;" d="M 0.104137 1.06213 L 0.181236 1.27441 " transform="matrix(248.362938,0,0,248.362938,371.507212,280.511068)"/>
<path style="fill:none;stroke-width:0.00805273;stroke-linecap:butt;stroke-linejoin:miter;stroke:rgb(0%,0%,0%);stroke-opacity:1;stroke-miterlimit:10;" d="M -0.138451 -0.239079 L -0.252007 -0.341279 " transform="matrix(248.362938,0,0,248.362938,371.507212,280.511068)"/>
<path style="fill:none;stroke-width:0.00805273;stroke-linecap:butt;stroke-linejoin:miter;stroke:rgb(0%,0%,0%);stroke-opacity:1;stroke-miterlimit:10;" d="M 0.147562 -0.313205 L 0.223403 -0.301015 " transform="matrix(248.362938,0,0,248.362938,371.507212,280.511068)"/>
<path style="fill:none;stroke-width:0.00805273;stroke-linecap:butt;stroke-linejoin:miter;stroke:rgb(0%,0%,0%);stroke-opacity:1;stroke-miterlimit:10;" d="M -0.409193 0.685161 L -0.72899 0.584062 " transform="matrix(248.362938,0,0,248.362938,371.507212,280.511068)"/>
<path style="fill:none;stroke-width:0.00805273;stroke-linecap:butt;stroke-linejoin:miter;stroke:rgb(0%,0%,0%);stroke-opacity:1;stroke-miterlimit:10;" d="M 0.0457551 -0.380143 L -0.00315891 -0.514429 " transform="matrix(248.362938,0,0,248.362938,371.507212,280.511068)"/>
<path style="fill:none;stroke-width:0.00805273;stroke-linecap:butt;stroke-linejoin:miter;stroke:rgb(0%,0%,0%);stroke-opacity:1;stroke-miterlimit:10;" d="M 0.104137 1.06213 L 0.313587 1.085218 " transform="matrix(248.362938,0,0,248.362938,371.507212,280.511068)"/>
<path style="fill:none;stroke-width:0.00805273;stroke-linecap:butt;stroke-linejoin:miter;stroke:rgb(0%,0%,0%);stroke-opacity:1;stroke-miterlimit:10;" d="M -0.653606 0.450845 L -0.783456 0.368069 " transform="matrix(248.362938,0,0,248.362938,371.507212,280.511068)"/>
<path style="fill:none;stroke-width:0.00805273;stroke-linecap:butt;stroke-linejoin:miter;stroke:rgb(0%,0%,0%);stroke-opacity:1;stroke-miterlimit:10;" d="M -0.0493206 -0.166934 L -0.138451 -0.239079 " transform="matrix(248.362938,0,0,248.362938,371.507212,280.511068)"/>
<path style="fill:none;stroke-width:0.00805273;stroke-linecap:butt;stroke-linejoin:miter;stroke:rgb(0%,0%,0%);stroke-opacity:1;stroke-miterlimit:10;" d="M 0.00365131 -0.233479 L 0.147562 -0.313205 " transform="matrix(248.362938,0,0,248.362938,371.507212,280.511068)"/>
<path style="fill:none;stroke-width:0.00805273;stroke-linecap:butt;stroke-linejoin:miter;stroke:rgb(0%,0%,0%);stroke-opacity:1;stroke-miterlimit:10;" d="M 0.00365131 -0.233479 L 0.0457551 -0.380143 " transform="matrix(248.362938,0,0,248.362938,371.507212,280.511068)"/>
<path style="fill:none;stroke-width:0.00805273;stroke-linecap:butt;stroke-linejoin:miter;stroke:rgb(0%,0%,0%);stroke-opacity:1;stroke-miterlimit:10;" d="M -0.409193 0.685161 L 0.104137 1.06213 " transform="matrix(248.362938,0,0,248.362938,371.507212,280.511068)"/>
<path style="fill:none;stroke-width:0.00805273;stroke-linecap:butt;stroke-linejoin:miter;stroke:rgb(0%,0%,0%);stroke-opacity:1;stroke-miterlimit:10;" d="M -0.409193 0.685161 L -0.653606 0.450845 " transform="matrix(248.362938,0,0,248.362938,371.507212,280.511068)"/>
<path style="fill:none;stroke-width:0.00805273;stroke-linecap:butt;stroke-linejoin:miter;stroke:rgb(0%,0%,0%);stroke-opacity:1;stroke-miterlimit:10;" d="M -0.0493206 -0.166934 L 0.00365131 -0.233479 " transform="matrix(248.362938,0,0,248.362938,371.507212,280.511068)"/>
<path style="fill:none;stroke-width:0.00805273;stroke-linecap:butt;stroke-linejoin:miter;stroke:rgb(0%,0%,0%);stroke-opacity:1;stroke-miterlimit:10;" d="M -0.0694367 -0.0420698 L -0.409193 0.685161 " transform="matrix(248.362938,0,0,248.362938,371.507212,280.511068)"/>
<path style="fill:none;stroke-width:0.00805273;stroke-linecap:butt;stroke-linejoin:miter;stroke:rgb(0%,0%,0%);stroke-opacity:1;stroke-miterlimit:10;" d="M -0.0694367 -0.0420698 L -0.0493206 -0.166934 " transform="matrix(248.362938,0,0,248.362938,371.507212,280.511068)"/>
<path style="fill-rule:nonzero;fill:rgb(100%,100%,100%);fill-opacity:1;stroke-width:0.00402637;stroke-linecap:butt;stroke-linejoin:miter;stroke:rgb(0%,0%,0%);stroke-opacity:1;stroke-dasharray:0.0241582,0.0241582;stroke-miterlimit:10;" d="M 0.192324 1.27441 C 0.192324 1.28921 0.170132 1.28921 0.170132 1.27441 C 0.170132 1.25961 0.192324 1.25961 0.192324 1.27441 " transform="matrix(248.362938,0,0,248.362938,371.507212,280.511068)"/>
<path style="fill-rule:nonzero;fill:rgb(100%,100%,100%);fill-opacity:1;stroke-width:0.00402637;stroke-linecap:butt;stroke-linejoin:miter;stroke:rgb(0%,0%,0%);stroke-opacity:1;stroke-dasharray:0.0241582,0.0241582;stroke-miterlimit:10;" d="M 0.15659 -0.313205 C 0.15659 -0.301157 0.138535 -0.301157 0.138535 -0.313205 C 0.138535 -0.325236 0.15659 -0.325236 0.15659 -0.313205 " transform="matrix(248.362938,0,0,248.362938,371.507212,280.511068)"/>
<path style="fill-rule:nonzero;fill:rgb(100%,100%,100%);fill-opacity:1;stroke-width:0.00402637;stroke-linecap:butt;stroke-linejoin:miter;stroke:rgb(0%,0%,0%);stroke-opacity:1;stroke-dasharray:0.0241582,0.0241582;stroke-miterlimit:10;" d="M 0.0734207 -0.380143 C 0.0734207 -0.364855 0.061027 -0.352462 0.0457551 -0.352462 C 0.0304675 -0.352462 0.0180739 -0.364855 0.0180739 -0.380143 C 0.0180739 -0.395415 0.0304675 -0.407808 0.0457551 -0.407808 C 0.061027 -0.407808 0.0734207 -0.395415 0.0734207 -0.380143 " transform="matrix(248.362938,0,0,248.362938,371.507212,280.511068)"/>
<path style="fill-rule:nonzero;fill:rgb(100%,100%,100%);fill-opacity:1;stroke-width:0.00402637;stroke-linecap:butt;stroke-linejoin:miter;stroke:rgb(0%,0%,0%);stroke-opacity:1;stroke-dasharray:0.0241582,0.0241582;stroke-miterlimit:10;" d="M 0.232069 1.06213 C 0.232069 1.13278 0.174788 1.190045 0.104137 1.190045 C 0.0334873 1.190045 -0.0237783 1.13278 -0.0237783 1.06213 C -0.0237783 0.991479 0.0334873 0.934198 0.104137 0.934198 C 0.174788 0.934198 0.232069 0.991479 0.232069 1.06213 " transform="matrix(248.362938,0,0,248.362938,371.507212,280.511068)"/>
<path style="fill-rule:nonzero;fill:rgb(100%,100%,100%);fill-opacity:1;stroke-width:0.00402637;stroke-linecap:butt;stroke-linejoin:miter;stroke:rgb(0%,0%,0%);stroke-opacity:1;stroke-dasharray:0.0241582,0.0241582;stroke-miterlimit:10;" d="M 0.0179795 -0.233479 C 0.0179795 -0.214386 -0.0106769 -0.214386 -0.0106769 -0.233479 C -0.0106769 -0.252589 0.0179795 -0.252589 0.0179795 -0.233479 " transform="matrix(248.362938,0,0,248.362938,371.507212,280.511068)"/>
<path style="fill-rule:nonzero;fill:rgb(100%,100%,100%);fill-opacity:1;stroke-width:0.00402637;stroke-linecap:butt;stroke-linejoin:miter;stroke:rgb(0%,0%,0%);stroke-opacity:1;stroke-dasharray:0.0241582,0.0241582;stroke-miterlimit:10;" d="M -0.183134 0.685161 C -0.183134 0.81001 -0.284344 0.911219 -0.409193 0.911219 C -0.534042 0.911219 -0.635267 0.81001 -0.635267 0.685161 C -0.635267 0.560297 -0.534042 0.459087 -0.409193 0.459087 C -0.284344 0.459087 -0.183134 0.560297 -0.183134 0.685161 " transform="matrix(248.362938,0,0,248.362938,371.507212,280.511068)"/>
<g style="fill:rgb(0%,0%,0%);fill-opacity:1;">
  <use xlink:href="#glyph0-1" x="429.464844" y="688.007812"/>
  <use xlink:href="#glyph0-2" x="436.68483" y="688.007812"/>
  <use xlink:href="#glyph0-3" x="442.79483" y="688.007812"/>
  <use xlink:href="#glyph0-4" x="446.68483" y="688.007812"/>
  <use xlink:href="#glyph0-5" x="452.79483" y="688.007812"/>
  <use xlink:href="#glyph0-6" x="458.904831" y="688.007812"/>
  <use xlink:href="#glyph0-7" x="464.464828" y="688.007812"/>
  <use xlink:href="#glyph0-8" x="470.024826" y="688.007812"/>
  <use xlink:href="#glyph0-9" x="473.354828" y="688.007812"/>
  <use xlink:href="#glyph0-3" x="478.914825" y="688.007812"/>
  <use xlink:href="#glyph0-10" x="482.804825" y="688.007812"/>
  <use xlink:href="#glyph0-11" x="485.584824" y="688.007812"/>
  <use xlink:href="#glyph0-12" x="491.694824" y="688.007812"/>
</g>
<g style="fill:rgb(0%,0%,0%);fill-opacity:1;">
  <use xlink:href="#glyph0-1" x="308.871094" y="144.4375"/>
  <use xlink:href="#glyph0-12" x="316.09108" y="144.4375"/>
  <use xlink:href="#glyph0-4" x="324.981064" y="144.4375"/>
  <use xlink:href="#glyph0-9" x="331.091064" y="144.4375"/>
  <use xlink:href="#glyph0-5" x="336.651062" y="144.4375"/>
  <use xlink:href="#glyph0-10" x="342.761063" y="144.4375"/>
  <use xlink:href="#glyph0-13" x="345.541061" y="144.4375"/>
  <use xlink:href="#glyph0-10" x="351.651062" y="144.4375"/>
  <use xlink:href="#glyph0-11" x="354.431061" y="144.4375"/>
  <use xlink:href="#glyph0-12" x="360.541061" y="144.4375"/>
</g>
<g style="fill:rgb(0%,0%,0%);fill-opacity:1;">
  <use xlink:href="#glyph0-1" x="462.710938" y="580.199219"/>
  <use xlink:href="#glyph0-14" x="469.930923" y="580.199219"/>
  <use xlink:href="#glyph0-11" x="476.040924" y="580.199219"/>
  <use xlink:href="#glyph0-10" x="482.150925" y="580.199219"/>
  <use xlink:href="#glyph0-15" x="484.930923" y="580.199219"/>
  <use xlink:href="#glyph0-9" x="488.260925" y="580.199219"/>
  <use xlink:href="#glyph0-16" x="493.820923" y="580.199219"/>
</g>
<g style="fill:rgb(0%,0%,0%);fill-opacity:1;">
  <use xlink:href="#glyph0-1" x="121.265625" y="338.410156"/>
  <use xlink:href="#glyph0-3" x="128.485611" y="338.410156"/>
  <use xlink:href="#glyph0-7" x="132.37561" y="338.410156"/>
  <use xlink:href="#glyph0-17" x="137.935608" y="338.410156"/>
  <use xlink:href="#glyph0-9" x="144.045609" y="338.410156"/>
  <use xlink:href="#glyph0-4" x="149.605606" y="338.410156"/>
  <use xlink:href="#glyph0-2" x="155.715607" y="338.410156"/>
  <use xlink:href="#glyph0-18" x="161.825607" y="338.410156"/>
  <use xlink:href="#glyph0-4" x="164.605606" y="338.410156"/>
  <use xlink:href="#glyph0-5" x="170.715607" y="338.410156"/>
  <use xlink:href="#glyph0-11" x="176.825607" y="338.410156"/>
  <use xlink:href="#glyph0-19" x="182.935608" y="338.410156"/>
</g>
<g style="fill:rgb(0%,0%,0%);fill-opacity:1;">
  <use xlink:href="#glyph0-20" x="523.539062" y="582.011719"/>
  <use xlink:href="#glyph0-6" x="530.759048" y="582.011719"/>
  <use xlink:href="#glyph0-7" x="536.319046" y="582.011719"/>
  <use xlink:href="#glyph0-10" x="541.879044" y="582.011719"/>
  <use xlink:href="#glyph0-18" x="544.659042" y="582.011719"/>
  <use xlink:href="#glyph0-18" x="547.439041" y="582.011719"/>
  <use xlink:href="#glyph0-11" x="550.21904" y="582.011719"/>
  <use xlink:href="#glyph0-19" x="556.329041" y="582.011719"/>
</g>
<g style="fill:rgb(0%,0%,0%);fill-opacity:1;">
  <use xlink:href="#glyph0-21" x="461.554688" y="176.898438"/>
  <use xlink:href="#glyph0-6" x="468.774673" y="176.898438"/>
  <use xlink:href="#glyph0-9" x="474.334671" y="176.898438"/>
  <use xlink:href="#glyph0-22" x="479.894669" y="176.898438"/>
  <use xlink:href="#glyph0-4" x="486.004669" y="176.898438"/>
  <use xlink:href="#glyph0-3" x="492.11467" y="176.898438"/>
  <use xlink:href="#glyph0-17" x="496.004669" y="176.898438"/>
  <use xlink:href="#glyph0-6" x="502.11467" y="176.898438"/>
  <use xlink:href="#glyph0-5" x="507.674667" y="176.898438"/>
  <use xlink:href="#glyph0-13" x="513.784668" y="176.898438"/>
  <use xlink:href="#glyph0-10" x="519.894669" y="176.898438"/>
  <use xlink:href="#glyph0-8" x="522.674667" y="176.898438"/>
  <use xlink:href="#glyph0-10" x="526.004669" y="176.898438"/>
  <use xlink:href="#glyph0-19" x="528.784668" y="176.898438"/>
</g>
<g style="fill:rgb(0%,0%,0%);fill-opacity:1;">
  <use xlink:href="#glyph0-21" x="516.191406" y="722.003906"/>
  <use xlink:href="#glyph0-6" x="523.411392" y="722.003906"/>
  <use xlink:href="#glyph0-12" x="528.97139" y="722.003906"/>
  <use xlink:href="#glyph0-23" x="537.861374" y="722.003906"/>
  <use xlink:href="#glyph0-24" x="543.971375" y="722.003906"/>
  <use xlink:href="#glyph0-18" x="549.531372" y="722.003906"/>
  <use xlink:href="#glyph0-4" x="552.311371" y="722.003906"/>
  <use xlink:href="#glyph0-5" x="558.421371" y="722.003906"/>
  <use xlink:href="#glyph0-6" x="564.531372" y="722.003906"/>
  <use xlink:href="#glyph0-7" x="570.09137" y="722.003906"/>
  <use xlink:href="#glyph0-8" x="575.651367" y="722.003906"/>
  <use xlink:href="#glyph0-9" x="578.981369" y="722.003906"/>
  <use xlink:href="#glyph0-3" x="584.541367" y="722.003906"/>
</g>
<g style="fill:rgb(0%,0%,0%);fill-opacity:1;">
  <use xlink:href="#glyph0-21" x="243.320312" y="94.476563"/>
  <use xlink:href="#glyph0-6" x="250.540298" y="94.476563"/>
  <use xlink:href="#glyph0-22" x="256.100296" y="94.476563"/>
  <use xlink:href="#glyph0-13" x="262.210297" y="94.476563"/>
  <use xlink:href="#glyph0-10" x="268.320297" y="94.476563"/>
  <use xlink:href="#glyph0-13" x="271.100296" y="94.476563"/>
  <use xlink:href="#glyph0-6" x="277.210297" y="94.476563"/>
</g>
<g style="fill:rgb(0%,0%,0%);fill-opacity:1;">
  <use xlink:href="#glyph0-21" x="451.613281" y="611.035156"/>
  <use xlink:href="#glyph0-17" x="458.833267" y="611.035156"/>
  <use xlink:href="#glyph0-18" x="464.943268" y="611.035156"/>
  <use xlink:href="#glyph0-6" x="467.723267" y="611.035156"/>
  <use xlink:href="#glyph0-12" x="473.283264" y="611.035156"/>
  <use xlink:href="#glyph0-24" x="482.173248" y="611.035156"/>
  <use xlink:href="#glyph0-13" x="487.733246" y="611.035156"/>
  <use xlink:href="#glyph0-10" x="493.843246" y="611.035156"/>
  <use xlink:href="#glyph0-6" x="496.623245" y="611.035156"/>
</g>
<g style="fill:rgb(0%,0%,0%);fill-opacity:1;">
  <use xlink:href="#glyph0-21" x="447.921875" y="202.175781"/>
  <use xlink:href="#glyph0-3" x="455.141861" y="202.175781"/>
  <use xlink:href="#glyph0-24" x="459.03186" y="202.175781"/>
  <use xlink:href="#glyph0-23" x="464.591858" y="202.175781"/>
  <use xlink:href="#glyph0-8" x="470.701859" y="202.175781"/>
  <use xlink:href="#glyph0-4" x="474.03186" y="202.175781"/>
  <use xlink:href="#glyph0-5" x="480.141861" y="202.175781"/>
  <use xlink:href="#glyph0-3" x="486.251862" y="202.175781"/>
  <use xlink:href="#glyph0-6" x="490.141861" y="202.175781"/>
  <use xlink:href="#glyph0-22" x="495.701859" y="202.175781"/>
  <use xlink:href="#glyph0-7" x="501.811859" y="202.175781"/>
  <use xlink:href="#glyph0-17" x="507.371857" y="202.175781"/>
  <use xlink:href="#glyph0-11" x="513.481857" y="202.175781"/>
  <use xlink:href="#glyph0-19" x="519.591858" y="202.175781"/>
</g>
<g style="fill:rgb(0%,0%,0%);fill-opacity:1;">
  <use xlink:href="#glyph0-21" x="201.601562" y="225.097656"/>
  <use xlink:href="#glyph0-3" x="208.821548" y="225.097656"/>
  <use xlink:href="#glyph0-24" x="212.711548" y="225.097656"/>
  <use xlink:href="#glyph0-23" x="218.271545" y="225.097656"/>
  <use xlink:href="#glyph0-8" x="224.381546" y="225.097656"/>
  <use xlink:href="#glyph0-4" x="227.711548" y="225.097656"/>
  <use xlink:href="#glyph0-19" x="233.821548" y="225.097656"/>
  <use xlink:href="#glyph0-23" x="239.381546" y="225.097656"/>
  <use xlink:href="#glyph0-4" x="245.491547" y="225.097656"/>
  <use xlink:href="#glyph0-3" x="251.601547" y="225.097656"/>
  <use xlink:href="#glyph0-10" x="255.491547" y="225.097656"/>
  <use xlink:href="#glyph0-13" x="258.271545" y="225.097656"/>
  <use xlink:href="#glyph0-10" x="264.381546" y="225.097656"/>
  <use xlink:href="#glyph0-11" x="267.161545" y="225.097656"/>
  <use xlink:href="#glyph0-12" x="273.271545" y="225.097656"/>
</g>
<g style="fill:rgb(0%,0%,0%);fill-opacity:1;">
  <use xlink:href="#glyph0-25" x="-7.972656" y="387.484375"/>
  <use xlink:href="#glyph0-9" x="-0.75267" y="387.484375"/>
  <use xlink:href="#glyph0-19" x="4.807327" y="387.484375"/>
  <use xlink:href="#glyph0-11" x="10.367325" y="387.484375"/>
  <use xlink:href="#glyph0-18" x="16.477325" y="387.484375"/>
  <use xlink:href="#glyph0-15" x="19.257324" y="387.484375"/>
  <use xlink:href="#glyph0-11" x="22.587326" y="387.484375"/>
  <use xlink:href="#glyph0-3" x="28.697327" y="387.484375"/>
  <use xlink:href="#glyph0-4" x="32.587326" y="387.484375"/>
  <use xlink:href="#glyph0-7" x="38.697327" y="387.484375"/>
  <use xlink:href="#glyph0-4" x="44.257324" y="387.484375"/>
  <use xlink:href="#glyph0-7" x="50.367325" y="387.484375"/>
  <use xlink:href="#glyph0-7" x="55.927322" y="387.484375"/>
  <use xlink:href="#glyph0-11" x="61.48732" y="387.484375"/>
  <use xlink:href="#glyph0-19" x="67.597321" y="387.484375"/>
</g>
<g style="fill:rgb(0%,0%,0%);fill-opacity:1;">
  <use xlink:href="#glyph0-25" x="398.914062" y="78.433594"/>
  <use xlink:href="#glyph0-10" x="406.134048" y="78.433594"/>
  <use xlink:href="#glyph0-7" x="408.914047" y="78.433594"/>
  <use xlink:href="#glyph0-8" x="414.474045" y="78.433594"/>
  <use xlink:href="#glyph0-24" x="417.804047" y="78.433594"/>
  <use xlink:href="#glyph0-4" x="423.364044" y="78.433594"/>
  <use xlink:href="#glyph0-19" x="429.474045" y="78.433594"/>
  <use xlink:href="#glyph0-8" x="435.034042" y="78.433594"/>
  <use xlink:href="#glyph0-9" x="438.364044" y="78.433594"/>
  <use xlink:href="#glyph0-18" x="443.924042" y="78.433594"/>
  <use xlink:href="#glyph0-10" x="446.704041" y="78.433594"/>
  <use xlink:href="#glyph0-11" x="449.484039" y="78.433594"/>
  <use xlink:href="#glyph0-12" x="455.59404" y="78.433594"/>
</g>
<g style="fill:rgb(0%,0%,0%);fill-opacity:1;">
  <use xlink:href="#glyph0-25" x="431.304688" y="158.609375"/>
  <use xlink:href="#glyph0-3" x="438.524673" y="158.609375"/>
  <use xlink:href="#glyph0-4" x="442.414673" y="158.609375"/>
  <use xlink:href="#glyph0-19" x="448.524673" y="158.609375"/>
  <use xlink:href="#glyph0-4" x="454.084671" y="158.609375"/>
  <use xlink:href="#glyph0-23" x="460.194672" y="158.609375"/>
  <use xlink:href="#glyph0-17" x="466.304672" y="158.609375"/>
  <use xlink:href="#glyph0-10" x="472.414673" y="158.609375"/>
  <use xlink:href="#glyph0-18" x="475.194672" y="158.609375"/>
  <use xlink:href="#glyph0-6" x="477.97467" y="158.609375"/>
</g>
<g style="fill:rgb(0%,0%,0%);fill-opacity:1;">
  <use xlink:href="#glyph0-26" x="287.933594" y="659.003906"/>
  <use xlink:href="#glyph0-19" x="294.603592" y="659.003906"/>
  <use xlink:href="#glyph0-7" x="300.163589" y="659.003906"/>
  <use xlink:href="#glyph0-17" x="305.723587" y="659.003906"/>
  <use xlink:href="#glyph0-9" x="311.833588" y="659.003906"/>
  <use xlink:href="#glyph0-3" x="317.393585" y="659.003906"/>
  <use xlink:href="#glyph0-10" x="321.283585" y="659.003906"/>
  <use xlink:href="#glyph0-7" x="324.063583" y="659.003906"/>
  <use xlink:href="#glyph0-17" x="329.623581" y="659.003906"/>
  <use xlink:href="#glyph0-10" x="335.733582" y="659.003906"/>
  <use xlink:href="#glyph0-6" x="338.51358" y="659.003906"/>
</g>
<g style="fill:rgb(0%,0%,0%);fill-opacity:1;">
  <use xlink:href="#glyph0-26" x="408.554688" y="179.070313"/>
  <use xlink:href="#glyph0-11" x="415.224686" y="179.070313"/>
  <use xlink:href="#glyph0-2" x="421.334686" y="179.070313"/>
  <use xlink:href="#glyph0-18" x="427.444687" y="179.070313"/>
  <use xlink:href="#glyph0-9" x="430.224686" y="179.070313"/>
  <use xlink:href="#glyph0-22" x="435.784683" y="179.070313"/>
  <use xlink:href="#glyph0-6" x="441.894684" y="179.070313"/>
</g>
<g style="fill:rgb(0%,0%,0%);fill-opacity:1;">
  <use xlink:href="#glyph0-27" x="553.429688" y="489.324219"/>
  <use xlink:href="#glyph0-18" x="559.539688" y="489.324219"/>
  <use xlink:href="#glyph0-6" x="562.319687" y="489.324219"/>
  <use xlink:href="#glyph0-28" x="567.879684" y="489.324219"/>
  <use xlink:href="#glyph0-4" x="573.439682" y="489.324219"/>
  <use xlink:href="#glyph0-5" x="579.549683" y="489.324219"/>
  <use xlink:href="#glyph0-6" x="585.659683" y="489.324219"/>
  <use xlink:href="#glyph0-7" x="591.219681" y="489.324219"/>
  <use xlink:href="#glyph0-8" x="596.779678" y="489.324219"/>
  <use xlink:href="#glyph0-9" x="600.10968" y="489.324219"/>
  <use xlink:href="#glyph0-3" x="605.669678" y="489.324219"/>
  <use xlink:href="#glyph0-10" x="609.559677" y="489.324219"/>
  <use xlink:href="#glyph0-11" x="612.339676" y="489.324219"/>
  <use xlink:href="#glyph0-12" x="618.449677" y="489.324219"/>
</g>
<g style="fill:rgb(0%,0%,0%);fill-opacity:1;">
  <use xlink:href="#glyph0-29" x="386.996094" y="278.167969"/>
  <use xlink:href="#glyph0-9" x="394.776093" y="278.167969"/>
  <use xlink:href="#glyph0-18" x="400.33609" y="278.167969"/>
  <use xlink:href="#glyph0-10" x="403.116089" y="278.167969"/>
  <use xlink:href="#glyph0-13" x="405.896088" y="278.167969"/>
  <use xlink:href="#glyph0-10" x="412.006088" y="278.167969"/>
  <use xlink:href="#glyph0-11" x="414.786087" y="278.167969"/>
  <use xlink:href="#glyph0-12" x="420.896088" y="278.167969"/>
</g>
<g style="fill:rgb(0%,0%,0%);fill-opacity:1;">
  <use xlink:href="#glyph0-29" x="502.117188" y="550.589844"/>
  <use xlink:href="#glyph0-9" x="509.897186" y="550.589844"/>
  <use xlink:href="#glyph0-4" x="515.457184" y="550.589844"/>
  <use xlink:href="#glyph0-5" x="521.567184" y="550.589844"/>
  <use xlink:href="#glyph0-6" x="527.677185" y="550.589844"/>
  <use xlink:href="#glyph0-7" x="533.237183" y="550.589844"/>
  <use xlink:href="#glyph0-10" x="538.79718" y="550.589844"/>
  <use xlink:href="#glyph0-18" x="541.577179" y="550.589844"/>
  <use xlink:href="#glyph0-18" x="544.357178" y="550.589844"/>
  <use xlink:href="#glyph0-11" x="547.137177" y="550.589844"/>
  <use xlink:href="#glyph0-19" x="553.247177" y="550.589844"/>
</g>
<g style="fill:rgb(0%,0%,0%);fill-opacity:1;">
  <use xlink:href="#glyph0-30" x="185.027344" y="531.351562"/>
  <use xlink:href="#glyph0-6" x="192.24733" y="531.351562"/>
  <use xlink:href="#glyph0-18" x="197.807327" y="531.351562"/>
  <use xlink:href="#glyph0-4" x="200.587326" y="531.351562"/>
  <use xlink:href="#glyph0-6" x="206.697327" y="531.351562"/>
  <use xlink:href="#glyph0-3" x="212.257324" y="531.351562"/>
  <use xlink:href="#glyph0-7" x="216.147324" y="531.351562"/>
  <use xlink:href="#glyph0-11" x="221.707321" y="531.351562"/>
  <use xlink:href="#glyph0-18" x="227.817322" y="531.351562"/>
  <use xlink:href="#glyph0-6" x="230.597321" y="531.351562"/>
</g>
<g style="fill:rgb(0%,0%,0%);fill-opacity:1;">
  <use xlink:href="#glyph0-30" x="167.164062" y="511.042969"/>
  <use xlink:href="#glyph0-6" x="174.384048" y="511.042969"/>
  <use xlink:href="#glyph0-18" x="179.944046" y="511.042969"/>
  <use xlink:href="#glyph0-4" x="182.724045" y="511.042969"/>
  <use xlink:href="#glyph0-5" x="188.834045" y="511.042969"/>
  <use xlink:href="#glyph0-6" x="194.944046" y="511.042969"/>
  <use xlink:href="#glyph0-7" x="200.504044" y="511.042969"/>
  <use xlink:href="#glyph0-8" x="206.064041" y="511.042969"/>
  <use xlink:href="#glyph0-9" x="209.394043" y="511.042969"/>
  <use xlink:href="#glyph0-3" x="214.954041" y="511.042969"/>
  <use xlink:href="#glyph0-10" x="218.84404" y="511.042969"/>
  <use xlink:href="#glyph0-11" x="221.624039" y="511.042969"/>
  <use xlink:href="#glyph0-12" x="227.734039" y="511.042969"/>
</g>
<g style="fill:rgb(0%,0%,0%);fill-opacity:1;">
  <use xlink:href="#glyph0-30" x="172.960938" y="518.78125"/>
  <use xlink:href="#glyph0-6" x="180.180923" y="518.78125"/>
  <use xlink:href="#glyph0-18" x="185.740921" y="518.78125"/>
  <use xlink:href="#glyph0-4" x="188.52092" y="518.78125"/>
  <use xlink:href="#glyph0-15" x="194.63092" y="518.78125"/>
  <use xlink:href="#glyph0-9" x="197.960922" y="518.78125"/>
  <use xlink:href="#glyph0-3" x="203.52092" y="518.78125"/>
  <use xlink:href="#glyph0-6" x="207.410919" y="518.78125"/>
  <use xlink:href="#glyph0-16" x="212.970917" y="518.78125"/>
</g>
<g style="fill:rgb(0%,0%,0%);fill-opacity:1;">
  <use xlink:href="#glyph0-30" x="125.664062" y="537.679688"/>
  <use xlink:href="#glyph0-6" x="132.884048" y="537.679688"/>
  <use xlink:href="#glyph0-18" x="138.444046" y="537.679688"/>
  <use xlink:href="#glyph0-4" x="141.224045" y="537.679688"/>
  <use xlink:href="#glyph0-3" x="147.334045" y="537.679688"/>
  <use xlink:href="#glyph0-11" x="151.224045" y="537.679688"/>
  <use xlink:href="#glyph0-5" x="157.334045" y="537.679688"/>
  <use xlink:href="#glyph0-3" x="163.444046" y="537.679688"/>
  <use xlink:href="#glyph0-11" x="167.334045" y="537.679688"/>
  <use xlink:href="#glyph0-12" x="173.444046" y="537.679688"/>
</g>
<g style="fill:rgb(0%,0%,0%);fill-opacity:1;">
  <use xlink:href="#glyph0-30" x="440.945312" y="212.21875"/>
  <use xlink:href="#glyph0-4" x="448.165298" y="212.21875"/>
  <use xlink:href="#glyph0-12" x="454.275299" y="212.21875"/>
  <use xlink:href="#glyph0-4" x="463.165283" y="212.21875"/>
</g>
<g style="fill:rgb(0%,0%,0%);fill-opacity:1;">
  <use xlink:href="#glyph0-31" x="21.308594" y="477.035156"/>
  <use xlink:href="#glyph0-9" x="29.63858" y="477.035156"/>
  <use xlink:href="#glyph0-8" x="35.198578" y="477.035156"/>
  <use xlink:href="#glyph0-17" x="38.52858" y="477.035156"/>
  <use xlink:href="#glyph0-6" x="44.63858" y="477.035156"/>
  <use xlink:href="#glyph0-22" x="50.198578" y="477.035156"/>
  <use xlink:href="#glyph0-4" x="56.308578" y="477.035156"/>
  <use xlink:href="#glyph0-7" x="62.418579" y="477.035156"/>
  <use xlink:href="#glyph0-4" x="67.978577" y="477.035156"/>
  <use xlink:href="#glyph0-7" x="74.088577" y="477.035156"/>
  <use xlink:href="#glyph0-7" x="79.648575" y="477.035156"/>
  <use xlink:href="#glyph0-11" x="85.208572" y="477.035156"/>
  <use xlink:href="#glyph0-19" x="91.318573" y="477.035156"/>
</g>
<g style="fill:rgb(0%,0%,0%);fill-opacity:1;">
  <use xlink:href="#glyph0-31" x="92.804688" y="418.007812"/>
  <use xlink:href="#glyph0-9" x="101.134674" y="418.007812"/>
  <use xlink:href="#glyph0-8" x="106.694672" y="418.007812"/>
  <use xlink:href="#glyph0-17" x="110.024673" y="418.007812"/>
  <use xlink:href="#glyph0-6" x="116.134674" y="418.007812"/>
  <use xlink:href="#glyph0-22" x="121.694672" y="418.007812"/>
  <use xlink:href="#glyph0-4" x="127.804672" y="418.007812"/>
  <use xlink:href="#glyph0-18" x="133.914673" y="418.007812"/>
  <use xlink:href="#glyph0-4" x="136.694672" y="418.007812"/>
  <use xlink:href="#glyph0-5" x="142.804672" y="418.007812"/>
  <use xlink:href="#glyph0-11" x="148.914673" y="418.007812"/>
  <use xlink:href="#glyph0-19" x="155.024673" y="418.007812"/>
</g>
<g style="fill:rgb(0%,0%,0%);fill-opacity:1;">
  <use xlink:href="#glyph0-31" x="80.09375" y="422.175781"/>
  <use xlink:href="#glyph0-9" x="88.423737" y="422.175781"/>
  <use xlink:href="#glyph0-8" x="93.983734" y="422.175781"/>
  <use xlink:href="#glyph0-17" x="97.313736" y="422.175781"/>
  <use xlink:href="#glyph0-6" x="103.423737" y="422.175781"/>
  <use xlink:href="#glyph0-22" x="108.983734" y="422.175781"/>
  <use xlink:href="#glyph0-4" x="115.093735" y="422.175781"/>
  <use xlink:href="#glyph0-19" x="121.203735" y="422.175781"/>
  <use xlink:href="#glyph0-6" x="126.763733" y="422.175781"/>
  <use xlink:href="#glyph0-3" x="132.32373" y="422.175781"/>
  <use xlink:href="#glyph0-7" x="136.21373" y="422.175781"/>
  <use xlink:href="#glyph0-10" x="141.773727" y="422.175781"/>
  <use xlink:href="#glyph0-22" x="144.553726" y="422.175781"/>
  <use xlink:href="#glyph0-6" x="150.663727" y="422.175781"/>
</g>
<g style="fill:rgb(0%,0%,0%);fill-opacity:1;">
  <use xlink:href="#glyph0-31" x="54.285156" y="427.890625"/>
  <use xlink:href="#glyph0-9" x="62.615143" y="427.890625"/>
  <use xlink:href="#glyph0-8" x="68.17514" y="427.890625"/>
  <use xlink:href="#glyph0-17" x="71.505142" y="427.890625"/>
  <use xlink:href="#glyph0-6" x="77.615143" y="427.890625"/>
  <use xlink:href="#glyph0-22" x="83.17514" y="427.890625"/>
  <use xlink:href="#glyph0-4" x="89.285141" y="427.890625"/>
  <use xlink:href="#glyph0-19" x="95.395142" y="427.890625"/>
  <use xlink:href="#glyph0-6" x="100.955139" y="427.890625"/>
  <use xlink:href="#glyph0-3" x="106.515137" y="427.890625"/>
  <use xlink:href="#glyph0-7" x="110.405136" y="427.890625"/>
  <use xlink:href="#glyph0-10" x="115.965134" y="427.890625"/>
  <use xlink:href="#glyph0-22" x="118.745132" y="427.890625"/>
  <use xlink:href="#glyph0-6" x="124.855133" y="427.890625"/>
  <use xlink:href="#glyph0-32" x="130.415131" y="427.890625"/>
  <use xlink:href="#glyph0-28" x="133.195129" y="427.890625"/>
</g>
<g style="fill:rgb(0%,0%,0%);fill-opacity:1;">
  <use xlink:href="#glyph0-31" x="76.488281" y="535.699219"/>
  <use xlink:href="#glyph0-9" x="84.818268" y="535.699219"/>
  <use xlink:href="#glyph0-8" x="90.378265" y="535.699219"/>
  <use xlink:href="#glyph0-17" x="93.708267" y="535.699219"/>
  <use xlink:href="#glyph0-6" x="99.818268" y="535.699219"/>
  <use xlink:href="#glyph0-22" x="105.378265" y="535.699219"/>
  <use xlink:href="#glyph0-4" x="111.488266" y="535.699219"/>
  <use xlink:href="#glyph0-19" x="117.598267" y="535.699219"/>
  <use xlink:href="#glyph0-23" x="123.158264" y="535.699219"/>
  <use xlink:href="#glyph0-10" x="129.268265" y="535.699219"/>
  <use xlink:href="#glyph0-3" x="132.048264" y="535.699219"/>
  <use xlink:href="#glyph0-10" x="135.938263" y="535.699219"/>
  <use xlink:href="#glyph0-18" x="138.718262" y="535.699219"/>
  <use xlink:href="#glyph0-18" x="141.49826" y="535.699219"/>
  <use xlink:href="#glyph0-11" x="144.278259" y="535.699219"/>
  <use xlink:href="#glyph0-12" x="150.38826" y="535.699219"/>
</g>
<g style="fill:rgb(0%,0%,0%);fill-opacity:1;">
  <use xlink:href="#glyph0-31" x="117.273438" y="630.050781"/>
  <use xlink:href="#glyph0-9" x="125.603424" y="630.050781"/>
  <use xlink:href="#glyph0-8" x="131.163422" y="630.050781"/>
  <use xlink:href="#glyph0-17" x="134.493423" y="630.050781"/>
  <use xlink:href="#glyph0-6" x="140.603424" y="630.050781"/>
  <use xlink:href="#glyph0-22" x="146.163422" y="630.050781"/>
  <use xlink:href="#glyph0-4" x="152.273422" y="630.050781"/>
  <use xlink:href="#glyph0-8" x="158.383423" y="630.050781"/>
  <use xlink:href="#glyph0-17" x="161.713425" y="630.050781"/>
  <use xlink:href="#glyph0-9" x="167.823425" y="630.050781"/>
  <use xlink:href="#glyph0-3" x="173.383423" y="630.050781"/>
  <use xlink:href="#glyph0-12" x="177.273422" y="630.050781"/>
  <use xlink:href="#glyph0-4" x="186.163406" y="630.050781"/>
  <use xlink:href="#glyph0-5" x="192.273407" y="630.050781"/>
  <use xlink:href="#glyph0-6" x="198.383408" y="630.050781"/>
  <use xlink:href="#glyph0-7" x="203.943405" y="630.050781"/>
  <use xlink:href="#glyph0-8" x="209.503403" y="630.050781"/>
  <use xlink:href="#glyph0-9" x="212.833405" y="630.050781"/>
  <use xlink:href="#glyph0-3" x="218.393402" y="630.050781"/>
</g>
<g style="fill:rgb(0%,0%,0%);fill-opacity:1;">
  <use xlink:href="#glyph0-31" x="-10.546875" y="452.925781"/>
  <use xlink:href="#glyph0-9" x="-2.216888" y="452.925781"/>
  <use xlink:href="#glyph0-8" x="3.343109" y="452.925781"/>
  <use xlink:href="#glyph0-17" x="6.673111" y="452.925781"/>
  <use xlink:href="#glyph0-6" x="12.783112" y="452.925781"/>
  <use xlink:href="#glyph0-22" x="18.343109" y="452.925781"/>
  <use xlink:href="#glyph0-4" x="24.45311" y="452.925781"/>
  <use xlink:href="#glyph0-8" x="30.56311" y="452.925781"/>
  <use xlink:href="#glyph0-17" x="33.893112" y="452.925781"/>
  <use xlink:href="#glyph0-9" x="40.003113" y="452.925781"/>
  <use xlink:href="#glyph0-3" x="45.56311" y="452.925781"/>
  <use xlink:href="#glyph0-12" x="49.45311" y="452.925781"/>
  <use xlink:href="#glyph0-4" x="58.343094" y="452.925781"/>
  <use xlink:href="#glyph0-7" x="64.453094" y="452.925781"/>
  <use xlink:href="#glyph0-4" x="70.013092" y="452.925781"/>
  <use xlink:href="#glyph0-7" x="76.123093" y="452.925781"/>
  <use xlink:href="#glyph0-7" x="81.68309" y="452.925781"/>
  <use xlink:href="#glyph0-11" x="87.243088" y="452.925781"/>
  <use xlink:href="#glyph0-19" x="93.353088" y="452.925781"/>
</g>
<g style="fill:rgb(0%,0%,0%);fill-opacity:1;">
  <use xlink:href="#glyph0-31" x="161.984375" y="583.289062"/>
  <use xlink:href="#glyph0-9" x="170.314362" y="583.289062"/>
  <use xlink:href="#glyph0-8" x="175.874359" y="583.289062"/>
  <use xlink:href="#glyph0-17" x="179.204361" y="583.289062"/>
  <use xlink:href="#glyph0-6" x="185.314362" y="583.289062"/>
  <use xlink:href="#glyph0-22" x="190.874359" y="583.289062"/>
  <use xlink:href="#glyph0-4" x="196.98436" y="583.289062"/>
  <use xlink:href="#glyph0-8" x="203.09436" y="583.289062"/>
  <use xlink:href="#glyph0-17" x="206.424362" y="583.289062"/>
  <use xlink:href="#glyph0-9" x="212.534363" y="583.289062"/>
  <use xlink:href="#glyph0-3" x="218.09436" y="583.289062"/>
  <use xlink:href="#glyph0-12" x="221.98436" y="583.289062"/>
  <use xlink:href="#glyph0-11" x="230.874344" y="583.289062"/>
  <use xlink:href="#glyph0-19" x="236.984344" y="583.289062"/>
</g>
<g style="fill:rgb(0%,0%,0%);fill-opacity:1;">
  <use xlink:href="#glyph0-33" x="49.738281" y="533.296875"/>
  <use xlink:href="#glyph0-6" x="56.958267" y="533.296875"/>
  <use xlink:href="#glyph0-22" x="62.518265" y="533.296875"/>
  <use xlink:href="#glyph0-4" x="68.628265" y="533.296875"/>
  <use xlink:href="#glyph0-6" x="74.738266" y="533.296875"/>
  <use xlink:href="#glyph0-3" x="80.298264" y="533.296875"/>
  <use xlink:href="#glyph0-7" x="84.188263" y="533.296875"/>
  <use xlink:href="#glyph0-17" x="89.74826" y="533.296875"/>
  <use xlink:href="#glyph0-6" x="95.858261" y="533.296875"/>
  <use xlink:href="#glyph0-9" x="101.418259" y="533.296875"/>
  <use xlink:href="#glyph0-11" x="106.978256" y="533.296875"/>
  <use xlink:href="#glyph0-12" x="113.088257" y="533.296875"/>
</g>
<g style="fill:rgb(0%,0%,0%);fill-opacity:1;">
  <use xlink:href="#glyph0-33" x="150.25" y="481.460938"/>
  <use xlink:href="#glyph0-6" x="157.469986" y="481.460938"/>
  <use xlink:href="#glyph0-8" x="163.029984" y="481.460938"/>
  <use xlink:href="#glyph0-3" x="166.359985" y="481.460938"/>
  <use xlink:href="#glyph0-10" x="170.249985" y="481.460938"/>
  <use xlink:href="#glyph0-22" x="173.029984" y="481.460938"/>
  <use xlink:href="#glyph0-9" x="179.139984" y="481.460938"/>
  <use xlink:href="#glyph0-12" x="184.699982" y="481.460938"/>
  <use xlink:href="#glyph0-6" x="193.589966" y="481.460938"/>
</g>
<g style="fill:rgb(0%,0%,0%);fill-opacity:1;">
  <use xlink:href="#glyph0-33" x="184.367188" y="177.738281"/>
  <use xlink:href="#glyph0-4" x="191.587173" y="177.738281"/>
  <use xlink:href="#glyph0-19" x="197.697174" y="177.738281"/>
  <use xlink:href="#glyph0-9" x="203.257172" y="177.738281"/>
  <use xlink:href="#glyph0-12" x="208.817169" y="177.738281"/>
  <use xlink:href="#glyph0-6" x="217.707153" y="177.738281"/>
</g>
<g style="fill:rgb(0%,0%,0%);fill-opacity:1;">
  <use xlink:href="#glyph0-34" x="397.390625" y="167.765625"/>
  <use xlink:href="#glyph0-17" x="404.060623" y="167.765625"/>
  <use xlink:href="#glyph0-24" x="410.170624" y="167.765625"/>
  <use xlink:href="#glyph0-19" x="415.730621" y="167.765625"/>
  <use xlink:href="#glyph0-6" x="421.290619" y="167.765625"/>
  <use xlink:href="#glyph0-3" x="426.850616" y="167.765625"/>
  <use xlink:href="#glyph0-11" x="430.740616" y="167.765625"/>
  <use xlink:href="#glyph0-12" x="436.850616" y="167.765625"/>
</g>
<g style="fill:rgb(0%,0%,0%);fill-opacity:1;">
  <use xlink:href="#glyph0-34" x="64.570312" y="291.808594"/>
  <use xlink:href="#glyph0-24" x="71.240311" y="291.808594"/>
  <use xlink:href="#glyph0-3" x="76.800308" y="291.808594"/>
  <use xlink:href="#glyph0-4" x="80.690308" y="291.808594"/>
  <use xlink:href="#glyph0-5" x="86.800308" y="291.808594"/>
  <use xlink:href="#glyph0-6" x="92.910309" y="291.808594"/>
  <use xlink:href="#glyph0-7" x="98.470306" y="291.808594"/>
  <use xlink:href="#glyph0-11" x="104.030304" y="291.808594"/>
  <use xlink:href="#glyph0-18" x="110.140305" y="291.808594"/>
  <use xlink:href="#glyph0-11" x="112.920303" y="291.808594"/>
  <use xlink:href="#glyph0-12" x="119.030304" y="291.808594"/>
</g>
<g style="fill:rgb(0%,0%,0%);fill-opacity:1;">
  <use xlink:href="#glyph0-34" x="214.773438" y="553.273438"/>
  <use xlink:href="#glyph0-24" x="221.443436" y="553.273438"/>
  <use xlink:href="#glyph0-3" x="227.003433" y="553.273438"/>
  <use xlink:href="#glyph0-4" x="230.893433" y="553.273438"/>
  <use xlink:href="#glyph0-7" x="237.003433" y="553.273438"/>
  <use xlink:href="#glyph0-4" x="242.563431" y="553.273438"/>
  <use xlink:href="#glyph0-7" x="248.673431" y="553.273438"/>
  <use xlink:href="#glyph0-7" x="254.233429" y="553.273438"/>
  <use xlink:href="#glyph0-11" x="259.793427" y="553.273438"/>
  <use xlink:href="#glyph0-19" x="265.903427" y="553.273438"/>
</g>
<g style="fill:rgb(0%,0%,0%);fill-opacity:1;">
  <use xlink:href="#glyph0-35" x="300.019531" y="82.355469"/>
  <use xlink:href="#glyph0-6" x="306.689529" y="82.355469"/>
  <use xlink:href="#glyph0-7" x="312.249527" y="82.355469"/>
  <use xlink:href="#glyph0-7" x="317.809525" y="82.355469"/>
  <use xlink:href="#glyph0-17" x="323.369522" y="82.355469"/>
  <use xlink:href="#glyph0-6" x="329.479523" y="82.355469"/>
  <use xlink:href="#glyph0-3" x="335.03952" y="82.355469"/>
  <use xlink:href="#glyph0-4" x="338.92952" y="82.355469"/>
  <use xlink:href="#glyph0-12" x="345.03952" y="82.355469"/>
  <use xlink:href="#glyph0-24" x="353.929504" y="82.355469"/>
  <use xlink:href="#glyph0-7" x="359.489502" y="82.355469"/>
  <use xlink:href="#glyph0-9" x="365.0495" y="82.355469"/>
  <use xlink:href="#glyph0-19" x="370.609497" y="82.355469"/>
</g>
<g style="fill:rgb(0%,0%,0%);fill-opacity:1;">
  <use xlink:href="#glyph0-35" x="472.851562" y="509.980469"/>
  <use xlink:href="#glyph0-23" x="479.521561" y="509.980469"/>
  <use xlink:href="#glyph0-10" x="485.631561" y="509.980469"/>
  <use xlink:href="#glyph0-3" x="488.41156" y="509.980469"/>
  <use xlink:href="#glyph0-4" x="492.301559" y="509.980469"/>
  <use xlink:href="#glyph0-7" x="498.41156" y="509.980469"/>
  <use xlink:href="#glyph0-17" x="503.971558" y="509.980469"/>
  <use xlink:href="#glyph0-6" x="510.081558" y="509.980469"/>
  <use xlink:href="#glyph0-9" x="515.641556" y="509.980469"/>
  <use xlink:href="#glyph0-8" x="521.201553" y="509.980469"/>
  <use xlink:href="#glyph0-6" x="524.531555" y="509.980469"/>
</g>
<g style="fill:rgb(0%,0%,0%);fill-opacity:1;">
  <use xlink:href="#glyph0-35" x="471.03125" y="613.3125"/>
  <use xlink:href="#glyph0-8" x="477.701248" y="613.3125"/>
  <use xlink:href="#glyph0-3" x="481.03125" y="613.3125"/>
  <use xlink:href="#glyph0-9" x="484.921249" y="613.3125"/>
  <use xlink:href="#glyph0-23" x="490.481247" y="613.3125"/>
  <use xlink:href="#glyph0-8" x="496.591248" y="613.3125"/>
  <use xlink:href="#glyph0-4" x="499.921249" y="613.3125"/>
  <use xlink:href="#glyph0-12" x="506.03125" y="613.3125"/>
  <use xlink:href="#glyph0-24" x="514.921234" y="613.3125"/>
  <use xlink:href="#glyph0-7" x="520.481232" y="613.3125"/>
  <use xlink:href="#glyph0-9" x="526.041229" y="613.3125"/>
  <use xlink:href="#glyph0-19" x="531.601227" y="613.3125"/>
</g>
<g style="fill:rgb(0%,0%,0%);fill-opacity:1;">
  <use xlink:href="#glyph0-35" x="7.292969" y="345.027344"/>
  <use xlink:href="#glyph0-11" x="13.962967" y="345.027344"/>
  <use xlink:href="#glyph0-18" x="20.072968" y="345.027344"/>
  <use xlink:href="#glyph0-15" x="22.852966" y="345.027344"/>
  <use xlink:href="#glyph0-4" x="26.182968" y="345.027344"/>
  <use xlink:href="#glyph0-18" x="32.292969" y="345.027344"/>
  <use xlink:href="#glyph0-4" x="35.072968" y="345.027344"/>
  <use xlink:href="#glyph0-5" x="41.182968" y="345.027344"/>
  <use xlink:href="#glyph0-11" x="47.292969" y="345.027344"/>
  <use xlink:href="#glyph0-19" x="53.402969" y="345.027344"/>
</g>
<g style="fill:rgb(0%,0%,0%);fill-opacity:1;">
  <use xlink:href="#glyph0-36" x="275.246094" y="560.335938"/>
  <use xlink:href="#glyph0-17" x="281.356094" y="560.335938"/>
  <use xlink:href="#glyph0-9" x="287.466095" y="560.335938"/>
  <use xlink:href="#glyph0-3" x="293.026093" y="560.335938"/>
  <use xlink:href="#glyph0-12" x="296.916092" y="560.335938"/>
  <use xlink:href="#glyph0-4" x="305.806076" y="560.335938"/>
  <use xlink:href="#glyph0-7" x="311.916077" y="560.335938"/>
  <use xlink:href="#glyph0-4" x="317.476074" y="560.335938"/>
  <use xlink:href="#glyph0-7" x="323.586075" y="560.335938"/>
  <use xlink:href="#glyph0-7" x="329.146072" y="560.335938"/>
  <use xlink:href="#glyph0-11" x="334.70607" y="560.335938"/>
  <use xlink:href="#glyph0-19" x="340.816071" y="560.335938"/>
</g>
<g style="fill:rgb(0%,0%,0%);fill-opacity:1;">
  <use xlink:href="#glyph0-36" x="47" y="489.816406"/>
  <use xlink:href="#glyph0-17" x="53.110001" y="489.816406"/>
  <use xlink:href="#glyph0-9" x="59.220001" y="489.816406"/>
  <use xlink:href="#glyph0-3" x="64.779999" y="489.816406"/>
  <use xlink:href="#glyph0-12" x="68.669998" y="489.816406"/>
  <use xlink:href="#glyph0-4" x="77.559982" y="489.816406"/>
  <use xlink:href="#glyph0-23" x="83.669983" y="489.816406"/>
  <use xlink:href="#glyph0-18" x="89.779984" y="489.816406"/>
  <use xlink:href="#glyph0-6" x="92.559982" y="489.816406"/>
  <use xlink:href="#glyph0-19" x="98.11998" y="489.816406"/>
  <use xlink:href="#glyph0-12" x="103.679977" y="489.816406"/>
  <use xlink:href="#glyph0-6" x="112.569962" y="489.816406"/>
</g>
<g style="fill:rgb(0%,0%,0%);fill-opacity:1;">
  <use xlink:href="#glyph0-36" x="504.609375" y="619.140625"/>
  <use xlink:href="#glyph0-17" x="510.719376" y="619.140625"/>
  <use xlink:href="#glyph0-9" x="516.829376" y="619.140625"/>
  <use xlink:href="#glyph0-3" x="522.389374" y="619.140625"/>
  <use xlink:href="#glyph0-12" x="526.279373" y="619.140625"/>
  <use xlink:href="#glyph0-4" x="535.169357" y="619.140625"/>
  <use xlink:href="#glyph0-8" x="541.279358" y="619.140625"/>
  <use xlink:href="#glyph0-4" x="544.60936" y="619.140625"/>
  <use xlink:href="#glyph0-2" x="550.71936" y="619.140625"/>
  <use xlink:href="#glyph0-6" x="556.829361" y="619.140625"/>
</g>
<g style="fill:rgb(0%,0%,0%);fill-opacity:1;">
  <use xlink:href="#glyph0-36" x="355.164062" y="652.484375"/>
  <use xlink:href="#glyph0-17" x="361.274063" y="652.484375"/>
  <use xlink:href="#glyph0-9" x="367.384064" y="652.484375"/>
  <use xlink:href="#glyph0-3" x="372.944061" y="652.484375"/>
  <use xlink:href="#glyph0-12" x="376.834061" y="652.484375"/>
  <use xlink:href="#glyph0-11" x="385.724045" y="652.484375"/>
  <use xlink:href="#glyph0-19" x="391.834045" y="652.484375"/>
</g>
<g style="fill:rgb(0%,0%,0%);fill-opacity:1;">
  <use xlink:href="#glyph0-37" x="441.492188" y="221.761719"/>
  <use xlink:href="#glyph0-9" x="448.162186" y="221.761719"/>
  <use xlink:href="#glyph0-22" x="453.722183" y="221.761719"/>
  <use xlink:href="#glyph0-4" x="459.832184" y="221.761719"/>
  <use xlink:href="#glyph0-23" x="465.942184" y="221.761719"/>
  <use xlink:href="#glyph0-11" x="472.052185" y="221.761719"/>
  <use xlink:href="#glyph0-19" x="478.162186" y="221.761719"/>
</g>
<g style="fill:rgb(0%,0%,0%);fill-opacity:1;">
  <use xlink:href="#glyph0-38" x="250.882812" y="149.734375"/>
  <use xlink:href="#glyph0-9" x="256.992813" y="149.734375"/>
  <use xlink:href="#glyph0-6" x="262.552811" y="149.734375"/>
</g>
</g>
</svg>
