<?xml version="1.0" encoding="UTF-8"?>
<svg xmlns="http://www.w3.org/2000/svg" xmlns:xlink="http://www.w3.org/1999/xlink" width="612pt" height="792pt" viewBox="0 0 612 792" version="1.1">
<defs>
<g>
<symbol overflow="visible" id="glyph0-0">
<path style="stroke:none;" d=""/>
</symbol>
<symbol overflow="visible" id="glyph0-1">
<path style="stroke:none;" d="M 5.015625 -1.46875 L 5.484375 0 L 7.03125 0 L 4.515625 -7.296875 L 2.84375 -7.296875 L 0.265625 0 L 1.796875 0 L 2.28125 -1.46875 L 5.015625 -1.46875 Z M 4.59375 -2.71875 L 2.703125 -2.71875 L 3.65625 -5.5625 L 4.59375 -2.71875 Z M 4.59375 -2.71875 "/>
</symbol>
<symbol overflow="visible" id="glyph0-2">
<path style="stroke:none;" d="M 4.078125 -5.40625 L 4.078125 -4.5625 C 3.65625 -5.203125 3.203125 -5.484375 2.578125 -5.484375 C 1.296875 -5.484375 0.34375 -4.234375 0.34375 -2.5625 C 0.34375 -0.890625 1.21875 0.234375 2.546875 0.234375 C 3.1875 0.234375 3.5625 0.046875 4.078125 -0.546875 L 4.078125 0.1875 C 4.078125 0.828125 3.59375 1.28125 2.890625 1.28125 C 2.359375 1.28125 2.015625 1.0625 1.90625 0.65625 L 0.453125 0.65625 C 0.453125 1.0625 0.625 1.359375 0.984375 1.65625 C 1.40625 2.015625 2.015625 2.1875 2.84375 2.1875 C 4.46875 2.1875 5.40625 1.453125 5.40625 0.1875 L 5.40625 -5.40625 L 4.078125 -5.40625 Z M 2.875 -4.3125 C 3.578125 -4.3125 4.09375 -3.59375 4.09375 -2.59375 C 4.09375 -1.609375 3.59375 -0.9375 2.859375 -0.9375 C 2.203125 -0.9375 1.734375 -1.609375 1.734375 -2.59375 C 1.734375 -3.609375 2.203125 -4.3125 2.875 -4.3125 Z M 2.875 -4.3125 "/>
</symbol>
<symbol overflow="visible" id="glyph0-3">
<path style="stroke:none;" d="M 0.625 -5.40625 L 0.625 0 L 2.03125 0 L 2.03125 -2.875 C 2.03125 -3.6875 2.4375 -4.09375 3.265625 -4.09375 C 3.40625 -4.09375 3.515625 -4.09375 3.703125 -4.0625 L 3.703125 -5.484375 C 3.625 -5.484375 3.5625 -5.484375 3.53125 -5.484375 C 2.890625 -5.484375 2.328125 -5.0625 2.03125 -4.34375 L 2.03125 -5.40625 L 0.625 -5.40625 Z M 0.625 -5.40625 "/>
</symbol>
<symbol overflow="visible" id="glyph0-4">
<path style="stroke:none;" d="M 3.015625 -5.484375 C 1.359375 -5.484375 0.34375 -4.40625 0.34375 -2.625 C 0.34375 -0.84375 1.359375 0.234375 3.015625 0.234375 C 4.65625 0.234375 5.6875 -0.859375 5.6875 -2.59375 C 5.6875 -4.421875 4.703125 -5.484375 3.015625 -5.484375 Z M 3.015625 -4.359375 C 3.796875 -4.359375 4.296875 -3.671875 4.296875 -2.609375 C 4.296875 -1.59375 3.765625 -0.90625 3.015625 -0.90625 C 2.265625 -0.90625 1.75 -1.59375 1.75 -2.625 C 1.75 -3.65625 2.265625 -4.359375 3.015625 -4.359375 Z M 3.015625 -4.359375 "/>
</symbol>
<symbol overflow="visible" id="glyph0-5">
<path style="stroke:none;" d="M 0.59375 -7.296875 L 0.59375 0 L 1.984375 0 L 1.984375 -0.546875 C 2.328125 -0.015625 2.796875 0.234375 3.484375 0.234375 C 4.765625 0.234375 5.75 -1 5.75 -2.625 C 5.75 -3.359375 5.53125 -4.09375 5.171875 -4.625 C 4.796875 -5.15625 4.140625 -5.484375 3.484375 -5.484375 C 2.8125 -5.484375 2.328125 -5.234375 1.984375 -4.703125 L 1.984375 -7.296875 L 0.59375 -7.296875 Z M 3.171875 -4.3125 C 3.859375 -4.3125 4.34375 -3.625 4.34375 -2.625 C 4.34375 -1.640625 3.859375 -0.9375 3.171875 -0.9375 C 2.453125 -0.9375 1.984375 -1.625 1.984375 -2.65625 C 1.984375 -3.625 2.46875 -4.3125 3.171875 -4.3125 Z M 3.171875 -4.3125 "/>
</symbol>
<symbol overflow="visible" id="glyph0-6">
<path style="stroke:none;" d="M 5.234375 -0.171875 C 4.984375 -0.40625 4.921875 -0.546875 4.921875 -0.828125 L 4.921875 -3.828125 C 4.921875 -4.9375 4.171875 -5.484375 2.703125 -5.484375 C 1.25 -5.484375 0.484375 -4.875 0.40625 -3.625 L 1.75 -3.625 C 1.8125 -4.1875 2.046875 -4.359375 2.734375 -4.359375 C 3.28125 -4.359375 3.546875 -4.1875 3.546875 -3.8125 C 3.546875 -3.640625 3.453125 -3.484375 3.3125 -3.40625 C 3.125 -3.296875 3.125 -3.296875 2.4375 -3.1875 L 1.875 -3.09375 C 0.796875 -2.90625 0.28125 -2.359375 0.28125 -1.390625 C 0.28125 -0.9375 0.40625 -0.546875 0.65625 -0.28125 C 0.96875 0.046875 1.4375 0.234375 1.921875 0.234375 C 2.515625 0.234375 3.0625 -0.03125 3.5625 -0.546875 C 3.5625 -0.265625 3.59375 -0.15625 3.71875 0 L 5.234375 0 L 5.234375 -0.171875 Z M 3.546875 -2.171875 C 3.546875 -1.359375 3.15625 -0.90625 2.4375 -0.90625 C 1.96875 -0.90625 1.6875 -1.15625 1.6875 -1.546875 C 1.6875 -1.96875 1.90625 -2.171875 2.484375 -2.296875 L 2.953125 -2.375 C 3.328125 -2.453125 3.390625 -2.46875 3.546875 -2.546875 L 3.546875 -2.171875 Z M 3.546875 -2.171875 "/>
</symbol>
<symbol overflow="visible" id="glyph0-7">
<path style="stroke:none;" d="M 5.21875 -3.375 C 5.125 -4.703125 4.234375 -5.484375 2.890625 -5.484375 C 1.28125 -5.484375 0.34375 -4.4375 0.34375 -2.59375 C 0.34375 -0.8125 1.265625 0.234375 2.875 0.234375 C 4.1875 0.234375 5.09375 -0.578125 5.21875 -1.875 L 3.875 -1.875 C 3.703125 -1.171875 3.421875 -0.90625 2.875 -0.90625 C 2.171875 -0.90625 1.734375 -1.546875 1.734375 -2.59375 C 1.734375 -3.09375 1.84375 -3.578125 2.015625 -3.90625 C 2.171875 -4.203125 2.484375 -4.359375 2.875 -4.359375 C 3.453125 -4.359375 3.71875 -4.09375 3.875 -3.375 L 5.21875 -3.375 Z M 5.21875 -3.375 "/>
</symbol>
<symbol overflow="visible" id="glyph0-8">
<path style="stroke:none;" d="M 3.015625 -5.296875 L 2.234375 -5.296875 L 2.234375 -6.734375 L 0.828125 -6.734375 L 0.828125 -5.296875 L 0.140625 -5.296875 L 0.140625 -4.359375 L 0.828125 -4.359375 L 0.828125 -1.046875 C 0.828125 -0.1875 1.28125 0.234375 2.203125 0.234375 C 2.515625 0.234375 2.765625 0.203125 3.015625 0.125 L 3.015625 -0.859375 C 2.875 -0.84375 2.796875 -0.828125 2.6875 -0.828125 C 2.3125 -0.828125 2.234375 -0.9375 2.234375 -1.421875 L 2.234375 -4.359375 L 3.015625 -4.359375 L 3.015625 -5.296875 Z M 3.015625 -5.296875 "/>
</symbol>
<symbol overflow="visible" id="glyph0-9">
<path style="stroke:none;" d="M 5.234375 -2.265625 C 5.25 -2.375 5.25 -2.4375 5.25 -2.5 C 5.25 -3.046875 5.171875 -3.546875 5.046875 -3.921875 C 4.6875 -4.90625 3.8125 -5.484375 2.71875 -5.484375 C 1.171875 -5.484375 0.21875 -4.375 0.21875 -2.5625 C 0.21875 -0.828125 1.15625 0.234375 2.6875 0.234375 C 3.90625 0.234375 4.875 -0.453125 5.1875 -1.515625 L 3.8125 -1.515625 C 3.640625 -1.09375 3.25 -0.84375 2.734375 -0.84375 C 2.34375 -0.84375 2.015625 -1.015625 1.8125 -1.3125 C 1.6875 -1.515625 1.640625 -1.75 1.625 -2.265625 L 5.234375 -2.265625 Z M 1.640625 -3.1875 C 1.734375 -4.015625 2.078125 -4.421875 2.703125 -4.421875 C 3.046875 -4.421875 3.375 -4.25 3.5625 -3.96875 C 3.703125 -3.765625 3.765625 -3.5625 3.796875 -3.1875 L 1.640625 -3.1875 Z M 1.640625 -3.1875 "/>
</symbol>
<symbol overflow="visible" id="glyph0-10">
<path style="stroke:none;" d="M 2.0625 -5.40625 L 0.671875 -5.40625 L 0.671875 0 L 2.0625 0 L 2.0625 -5.40625 Z M 2.0625 -7.296875 L 0.671875 -7.296875 L 0.671875 -6.046875 L 2.0625 -6.046875 L 2.0625 -7.296875 Z M 2.0625 -7.296875 "/>
</symbol>
<symbol overflow="visible" id="glyph0-11">
<path style="stroke:none;" d="M 5.40625 0 L 5.40625 -5.40625 L 4.015625 -5.40625 L 4.015625 -2.015625 C 4.015625 -1.375 3.5625 -0.953125 2.875 -0.953125 C 2.28125 -0.953125 1.984375 -1.28125 1.984375 -1.9375 L 1.984375 -5.40625 L 0.578125 -5.40625 L 0.578125 -1.640625 C 0.578125 -0.453125 1.234375 0.234375 2.390625 0.234375 C 3.125 0.234375 3.609375 -0.046875 4.015625 -0.640625 L 4.015625 0 L 5.40625 0 Z M 5.40625 0 "/>
</symbol>
<symbol overflow="visible" id="glyph0-12">
<path style="stroke:none;" d="M 0.59375 -5.40625 L 0.59375 0 L 2 0 L 2 -3.234375 C 2 -3.90625 2.359375 -4.296875 2.953125 -4.296875 C 3.4375 -4.296875 3.71875 -4.03125 3.71875 -3.59375 L 3.71875 0 L 5.125 0 L 5.125 -3.234375 C 5.125 -3.90625 5.484375 -4.296875 6.078125 -4.296875 C 6.546875 -4.296875 6.84375 -4.03125 6.84375 -3.59375 L 6.84375 0 L 8.234375 0 L 8.234375 -3.8125 C 8.234375 -4.875 7.59375 -5.484375 6.515625 -5.484375 C 5.84375 -5.484375 5.359375 -5.25 4.9375 -4.6875 C 4.6875 -5.203125 4.140625 -5.484375 3.46875 -5.484375 C 2.84375 -5.484375 2.453125 -5.28125 1.984375 -4.734375 L 1.984375 -5.40625 L 0.59375 -5.40625 Z M 0.59375 -5.40625 "/>
</symbol>
<symbol overflow="visible" id="glyph0-13">
<path style="stroke:none;" d="M 4.046875 0 L 5.453125 0 L 5.453125 -7.296875 L 4.046875 -7.296875 L 4.046875 -4.703125 C 3.703125 -5.234375 3.234375 -5.484375 2.5625 -5.484375 C 1.265625 -5.484375 0.296875 -4.25 0.296875 -2.625 C 0.296875 -1.890625 0.515625 -1.15625 0.875 -0.625 C 1.234375 -0.109375 1.90625 0.234375 2.5625 0.234375 C 3.234375 0.234375 3.703125 -0.015625 4.046875 -0.546875 L 4.046875 0 Z M 2.875 -4.3125 C 3.578125 -4.3125 4.046875 -3.625 4.046875 -2.59375 C 4.046875 -1.625 3.5625 -0.9375 2.875 -0.9375 C 2.171875 -0.9375 1.6875 -1.625 1.6875 -2.625 C 1.6875 -3.625 2.171875 -4.3125 2.875 -4.3125 Z M 2.875 -4.3125 "/>
</symbol>
<symbol overflow="visible" id="glyph0-14">
<path style="stroke:none;" d="M 4.046875 -5.40625 L 4.046875 -4.59375 C 3.703125 -5.1875 3.203125 -5.484375 2.546875 -5.484375 C 1.234375 -5.484375 0.28125 -4.265625 0.28125 -2.625 C 0.28125 -1.859375 0.5 -1.09375 0.859375 -0.609375 C 1.21875 -0.09375 1.890625 0.234375 2.53125 0.234375 C 3.203125 0.234375 3.703125 -0.046875 4.046875 -0.640625 L 4.046875 2.1875 L 5.4375 2.1875 L 5.4375 -5.40625 L 4.046875 -5.40625 Z M 2.859375 -4.3125 C 3.5625 -4.3125 4.046875 -3.640625 4.046875 -2.59375 C 4.046875 -1.609375 3.5625 -0.9375 2.859375 -0.9375 C 2.15625 -0.9375 1.6875 -1.609375 1.6875 -2.625 C 1.6875 -3.625 2.15625 -4.3125 2.859375 -4.3125 Z M 2.859375 -4.3125 "/>
</symbol>
<symbol overflow="visible" id="glyph0-15">
<path style="stroke:none;" d="M 3.125 -5.296875 L 2.296875 -5.296875 L 2.296875 -5.8125 C 2.296875 -6.09375 2.421875 -6.234375 2.6875 -6.234375 C 2.796875 -6.234375 2.953125 -6.234375 3.078125 -6.203125 L 3.078125 -7.265625 C 2.8125 -7.28125 2.46875 -7.296875 2.28125 -7.296875 C 1.34375 -7.296875 0.90625 -6.84375 0.90625 -5.9375 L 0.90625 -5.296875 L 0.140625 -5.296875 L 0.140625 -4.359375 L 0.90625 -4.359375 L 0.90625 0 L 2.296875 0 L 2.296875 -4.359375 L 3.125 -4.359375 L 3.125 -5.296875 Z M 3.125 -5.296875 "/>
</symbol>
<symbol overflow="visible" id="glyph0-16">
<path style="stroke:none;" d="M 3.546875 -2.71875 L 5.3125 -5.40625 L 3.625 -5.40625 L 2.765625 -3.765625 L 1.875 -5.40625 L 0.203125 -5.40625 L 1.953125 -2.71875 L 0.15625 0 L 1.84375 0 L 2.765625 -1.6875 L 3.671875 0 L 5.34375 0 L 3.546875 -2.71875 Z M 3.546875 -2.71875 "/>
</symbol>
<symbol overflow="visible" id="glyph0-17">
<path style="stroke:none;" d="M 0.671875 -7.296875 L 0.671875 0 L 2.0625 0 L 2.0625 -3.234375 C 2.0625 -3.859375 2.515625 -4.296875 3.15625 -4.296875 C 3.453125 -4.296875 3.6875 -4.1875 3.84375 -3.96875 C 3.96875 -3.796875 4.015625 -3.65625 4.015625 -3.296875 L 4.015625 0 L 5.40625 0 L 5.40625 -3.625 C 5.40625 -4.296875 5.234375 -4.765625 4.859375 -5.078125 C 4.546875 -5.34375 4.09375 -5.484375 3.65625 -5.484375 C 2.953125 -5.484375 2.453125 -5.203125 2.0625 -4.625 L 2.0625 -7.296875 L 0.671875 -7.296875 Z M 0.671875 -7.296875 "/>
</symbol>
<symbol overflow="visible" id="glyph0-18">
<path style="stroke:none;" d="M 2.0625 -7.296875 L 0.671875 -7.296875 L 0.671875 0 L 2.0625 0 L 2.0625 -7.296875 Z M 2.0625 -7.296875 "/>
</symbol>
<symbol overflow="visible" id="glyph0-19">
<path style="stroke:none;" d="M 5.046875 -3.65625 C 5.03125 -4.796875 4.15625 -5.484375 2.703125 -5.484375 C 1.328125 -5.484375 0.484375 -4.796875 0.484375 -3.6875 C 0.484375 -3.328125 0.59375 -3.015625 0.78125 -2.8125 C 0.96875 -2.625 1.140625 -2.53125 1.65625 -2.359375 L 3.328125 -1.84375 C 3.6875 -1.734375 3.796875 -1.625 3.796875 -1.40625 C 3.796875 -1.0625 3.40625 -0.875 2.765625 -0.875 C 2.40625 -0.875 2.109375 -0.9375 1.9375 -1.0625 C 1.78125 -1.171875 1.71875 -1.28125 1.65625 -1.5625 L 0.296875 -1.5625 C 0.328125 -0.390625 1.203125 0.234375 2.84375 0.234375 C 3.59375 0.234375 4.15625 0.0625 4.5625 -0.25 C 4.953125 -0.5625 5.203125 -1.0625 5.203125 -1.59375 C 5.203125 -2.296875 4.84375 -2.75 4.140625 -2.953125 L 2.375 -3.46875 C 1.984375 -3.59375 1.875 -3.671875 1.875 -3.890625 C 1.875 -4.1875 2.203125 -4.390625 2.6875 -4.390625 C 3.359375 -4.390625 3.6875 -4.15625 3.703125 -3.65625 L 5.046875 -3.65625 Z M 5.046875 -3.65625 "/>
</symbol>
<symbol overflow="visible" id="glyph0-20">
<path style="stroke:none;" d="M 0.8125 0 L 4.09375 0 C 4.9375 0 5.5 -0.15625 5.9375 -0.53125 C 6.375 -0.90625 6.65625 -1.515625 6.65625 -2.09375 C 6.65625 -2.8125 6.265625 -3.390625 5.453125 -3.875 C 6.171875 -4.328125 6.453125 -4.75 6.453125 -5.375 C 6.453125 -5.875 6.203125 -6.40625 5.796875 -6.765625 C 5.359375 -7.125 4.84375 -7.296875 4.0625 -7.296875 L 0.8125 -7.296875 L 0.8125 0 Z M 2.3125 -6.046875 L 3.953125 -6.046875 C 4.640625 -6.046875 5.015625 -5.75 5.015625 -5.203125 C 5.015625 -4.6875 4.640625 -4.390625 3.953125 -4.390625 L 2.3125 -4.390625 L 2.3125 -6.046875 Z M 2.3125 -3.140625 L 4.109375 -3.140625 C 4.84375 -3.140625 5.21875 -2.8125 5.21875 -2.1875 C 5.21875 -1.578125 4.84375 -1.25 4.109375 -1.25 L 2.3125 -1.25 L 2.3125 -3.140625 Z M 2.3125 -3.140625 "/>
</symbol>
<symbol overflow="visible" id="glyph0-21">
<path style="stroke:none;" d="M 6.8125 -4.8125 C 6.765625 -5.453125 6.640625 -5.84375 6.328125 -6.265625 C 5.765625 -7 4.875 -7.40625 3.78125 -7.40625 C 1.71875 -7.40625 0.4375 -5.9375 0.4375 -3.578125 C 0.4375 -1.234375 1.703125 0.234375 3.734375 0.234375 C 5.546875 0.234375 6.765625 -0.8125 6.84375 -2.484375 L 5.390625 -2.484375 C 5.296875 -1.5625 4.703125 -1.03125 3.78125 -1.03125 C 2.625 -1.03125 1.9375 -1.96875 1.9375 -3.5625 C 1.9375 -5.171875 2.65625 -6.125 3.828125 -6.125 C 4.34375 -6.125 4.78125 -5.953125 5.0625 -5.59375 C 5.21875 -5.40625 5.296875 -5.203125 5.390625 -4.8125 L 6.8125 -4.8125 Z M 6.8125 -4.8125 "/>
</symbol>
<symbol overflow="visible" id="glyph0-22">
<path style="stroke:none;" d="M 0.625 -5.40625 L 0.625 0 L 2.03125 0 L 2.03125 -3.234375 C 2.03125 -3.875 2.484375 -4.296875 3.15625 -4.296875 C 3.765625 -4.296875 4.0625 -3.96875 4.0625 -3.328125 L 4.0625 0 L 5.453125 0 L 5.453125 -3.625 C 5.453125 -4.8125 4.796875 -5.484375 3.65625 -5.484375 C 2.921875 -5.484375 2.4375 -5.21875 2.03125 -4.625 L 2.03125 -5.40625 L 0.625 -5.40625 Z M 0.625 -5.40625 "/>
</symbol>
<symbol overflow="visible" id="glyph0-23">
<path style="stroke:none;" d="M 1.984375 -5.40625 L 0.578125 -5.40625 L 0.578125 2.1875 L 1.984375 2.1875 L 1.984375 -0.640625 C 2.3125 -0.046875 2.796875 0.234375 3.484375 0.234375 C 4.78125 0.234375 5.734375 -0.984375 5.734375 -2.625 C 5.734375 -3.375 5.515625 -4.140625 5.15625 -4.640625 C 4.796875 -5.15625 4.125 -5.484375 3.484375 -5.484375 C 2.796875 -5.484375 2.3125 -5.203125 1.984375 -4.59375 L 1.984375 -5.40625 Z M 3.15625 -4.3125 C 3.875 -4.3125 4.34375 -3.625 4.34375 -2.59375 C 4.34375 -1.625 3.84375 -0.9375 3.15625 -0.9375 C 2.453125 -0.9375 1.984375 -1.609375 1.984375 -2.625 C 1.984375 -3.625 2.453125 -4.3125 3.15625 -4.3125 Z M 3.15625 -4.3125 "/>
</symbol>
<symbol overflow="visible" id="glyph0-24">
<path style="stroke:none;" d="M 3.9375 -5.40625 L 2.8125 -1.46875 L 1.625 -5.40625 L 0.09375 -5.40625 L 2.09375 0.21875 L 2.09375 0.234375 L 2.09375 0.265625 C 2.09375 0.765625 1.71875 1.15625 1.234375 1.15625 C 1.125 1.15625 1.046875 1.15625 0.859375 1.09375 L 0.859375 2.15625 C 1.0625 2.1875 1.1875 2.1875 1.359375 2.1875 C 1.703125 2.1875 2.125 2.125 2.375 2.015625 C 2.765625 1.859375 2.9375 1.625 3.15625 0.984375 L 5.375 -5.40625 L 3.9375 -5.40625 Z M 3.9375 -5.40625 "/>
</symbol>
<symbol overflow="visible" id="glyph0-25">
<path style="stroke:none;" d="M 0.765625 0 L 3.625 0 C 4.734375 0 5.4375 -0.265625 5.921875 -0.84375 C 6.5 -1.53125 6.8125 -2.515625 6.8125 -3.65625 C 6.8125 -4.765625 6.5 -5.765625 5.921875 -6.453125 C 5.4375 -7.046875 4.734375 -7.296875 3.625 -7.296875 L 0.765625 -7.296875 L 0.765625 0 Z M 2.265625 -1.25 L 2.265625 -6.046875 L 3.625 -6.046875 C 4.75 -6.046875 5.3125 -5.25 5.3125 -3.640625 C 5.3125 -2.046875 4.75 -1.25 3.625 -1.25 L 2.265625 -1.25 Z M 2.265625 -1.25 "/>
</symbol>
<symbol overflow="visible" id="glyph0-26">
<path style="stroke:none;" d="M 2.296875 -3.140625 L 5.78125 -3.140625 L 5.78125 -4.390625 L 2.296875 -4.390625 L 2.296875 -6.046875 L 6.0625 -6.046875 L 6.0625 -7.296875 L 0.796875 -7.296875 L 0.796875 0 L 6.234375 0 L 6.234375 -1.25 L 2.296875 -1.25 L 2.296875 -3.140625 Z M 2.296875 -3.140625 "/>
</symbol>
<symbol overflow="visible" id="glyph0-27">
<path style="stroke:none;" d="M 2.234375 -3.140625 L 5.4375 -3.140625 L 5.4375 -4.390625 L 2.234375 -4.390625 L 2.234375 -6.046875 L 5.859375 -6.046875 L 5.859375 -7.296875 L 0.734375 -7.296875 L 0.734375 0 L 2.234375 0 L 2.234375 -3.140625 Z M 2.234375 -3.140625 "/>
</symbol>
<symbol overflow="visible" id="glyph0-28">
<path style="stroke:none;" d="M 3.5 0 L 5.359375 -5.40625 L 3.875 -5.40625 L 2.796875 -1.453125 L 1.625 -5.40625 L 0.140625 -5.40625 L 2.03125 0 L 3.5 0 Z M 3.5 0 "/>
</symbol>
<symbol overflow="visible" id="glyph0-29">
<path style="stroke:none;" d="M 7.109375 -3.921875 L 4.1875 -3.921875 L 4.1875 -2.671875 L 5.84375 -2.671875 C 5.8125 -2.265625 5.703125 -2.015625 5.484375 -1.75 C 5.125 -1.3125 4.578125 -1.046875 4 -1.046875 C 2.796875 -1.046875 1.921875 -2.109375 1.921875 -3.609375 C 1.921875 -5.1875 2.6875 -6.125 3.953125 -6.125 C 4.484375 -6.125 4.921875 -5.984375 5.25 -5.6875 C 5.453125 -5.515625 5.5625 -5.34375 5.703125 -4.953125 L 7.109375 -4.953125 C 6.9375 -6.453125 5.703125 -7.40625 3.953125 -7.40625 C 1.84375 -7.40625 0.421875 -5.859375 0.421875 -3.59375 C 0.421875 -1.375 1.859375 0.234375 3.828125 0.234375 C 4.8125 0.234375 5.46875 -0.125 6.03125 -0.9375 L 6.203125 0.015625 L 7.109375 0.015625 L 7.109375 -3.921875 Z M 7.109375 -3.921875 "/>
</symbol>
<symbol overflow="visible" id="glyph0-30">
<path style="stroke:none;" d="M 5.0625 -3.3125 L 5.0625 0 L 6.5625 0 L 6.5625 -7.296875 L 5.0625 -7.296875 L 5.0625 -4.5625 L 2.1875 -4.5625 L 2.1875 -7.296875 L 0.6875 -7.296875 L 0.6875 0 L 2.1875 0 L 2.1875 -3.3125 L 5.0625 -3.3125 Z M 5.0625 -3.3125 "/>
</symbol>
<symbol overflow="visible" id="glyph0-31">
<path style="stroke:none;" d="M 2.15625 -5.6875 L 3.46875 0 L 4.96875 0 L 6.265625 -5.6875 L 6.265625 0 L 7.765625 0 L 7.765625 -7.296875 L 5.5 -7.296875 L 4.21875 -1.484375 L 2.90625 -7.296875 L 0.65625 -7.296875 L 0.65625 0 L 2.15625 0 L 2.15625 -5.6875 Z M 2.15625 -5.6875 "/>
</symbol>
<symbol overflow="visible" id="glyph0-32">
<path style="stroke:none;" d="M 2.140625 -1.453125 L 0.640625 -1.453125 L 0.640625 0 L 2.140625 0 L 2.140625 -1.453125 Z M 2.140625 -1.453125 "/>
</symbol>
<symbol overflow="visible" id="glyph0-33">
<path style="stroke:none;" d="M 5.109375 0 L 6.609375 0 L 6.609375 -7.296875 L 5.109375 -7.296875 L 5.109375 -2.328125 L 2.21875 -7.296875 L 0.6875 -7.296875 L 0.6875 0 L 2.1875 0 L 2.1875 -5.046875 L 5.109375 0 Z M 5.109375 0 "/>
</symbol>
<symbol overflow="visible" id="glyph0-34">
<path style="stroke:none;" d="M 2.265625 -2.59375 L 4.125 -2.59375 C 5.46875 -2.59375 6.328125 -3.546875 6.328125 -5.03125 C 6.328125 -6.484375 5.5 -7.296875 3.984375 -7.296875 L 0.765625 -7.296875 L 0.765625 0 L 2.265625 0 L 2.265625 -2.59375 Z M 2.265625 -3.84375 L 2.265625 -6.046875 L 3.65625 -6.046875 C 4.453125 -6.046875 4.828125 -5.6875 4.828125 -4.9375 C 4.828125 -4.203125 4.453125 -3.84375 3.65625 -3.84375 L 2.265625 -3.84375 Z M 2.265625 -3.84375 "/>
</symbol>
<symbol overflow="visible" id="glyph0-35">
<path style="stroke:none;" d="M 6.0625 -5.0625 C 6.0625 -5.734375 5.921875 -6.1875 5.5625 -6.578125 C 5.0625 -7.125 4.265625 -7.40625 3.203125 -7.40625 C 1.453125 -7.40625 0.453125 -6.59375 0.453125 -5.171875 C 0.453125 -4.046875 1.015625 -3.484375 2.5 -3.203125 L 3.515625 -3.015625 C 4.515625 -2.8125 4.890625 -2.546875 4.890625 -1.953125 C 4.890625 -1.34375 4.328125 -0.96875 3.421875 -0.96875 C 2.40625 -0.96875 1.828125 -1.40625 1.78125 -2.1875 L 0.3125 -2.1875 C 0.40625 -0.625 1.484375 0.234375 3.34375 0.234375 C 5.21875 0.234375 6.328125 -0.65625 6.328125 -2.125 C 6.328125 -3.28125 5.75 -3.875 4.40625 -4.140625 L 3.265625 -4.359375 C 2.1875 -4.5625 1.875 -4.78125 1.875 -5.3125 C 1.875 -5.859375 2.375 -6.203125 3.140625 -6.203125 C 4.09375 -6.203125 4.625 -5.8125 4.671875 -5.0625 L 6.0625 -5.0625 Z M 6.0625 -5.0625 "/>
</symbol>
<symbol overflow="visible" id="glyph0-36">
<path style="stroke:none;" d="M 3.84375 -6.046875 L 5.984375 -6.046875 L 5.984375 -7.296875 L 0.140625 -7.296875 L 0.140625 -6.046875 L 2.34375 -6.046875 L 2.34375 0 L 3.84375 0 L 3.84375 -6.046875 Z M 3.84375 -6.046875 "/>
</symbol>
<symbol overflow="visible" id="glyph0-37">
<path style="stroke:none;" d="M 4.1875 -3.71875 L 6.4375 -7.296875 L 4.703125 -7.296875 L 3.359375 -4.890625 L 2.078125 -7.296875 L 0.296875 -7.296875 L 2.515625 -3.671875 L 0.21875 0 L 1.953125 0 L 3.34375 -2.53125 L 4.75 0 L 6.53125 0 L 4.1875 -3.71875 Z M 4.1875 -3.71875 "/>
</symbol>
<symbol overflow="visible" id="glyph0-38">
<path style="stroke:none;" d="M 5.78125 -7.296875 L 0.296875 -7.296875 L 0.296875 -6.046875 L 4.03125 -6.046875 L 0.296875 -1.25 L 0.296875 0 L 5.78125 0 L 5.78125 -1.25 L 2.0625 -1.25 L 5.78125 -6.046875 L 5.78125 -7.296875 Z M 5.78125 -7.296875 "/>
</symbol>
</g>
</defs>
<g id="surface0">
<path style="fill:none;stroke-width:0.00875904;stroke-linecap:butt;stroke-linejoin:miter;stroke:rgb(0%,0%,0%);stroke-opacity:1;stroke-miterlimit:10;" d="M 0.156688 1.603981 L 0.377049 1.385416 " transform="matrix(228.335551,0,0,228.335551,61.207046,231.992338)"/>
<path style="fill:none;stroke-width:0.00875904;stroke-linecap:butt;stroke-linejoin:miter;stroke:rgb(0%,0%,0%);stroke-opacity:1;stroke-miterlimit:10;" d="M 1.954686 -0.0580122 L 1.940213 -0.0792426 " transform="matrix(228.335551,0,0,228.335551,61.207046,231.992338)"/>
<path style="fill:none;stroke-width:0.00875904;stroke-linecap:butt;stroke-linejoin:miter;stroke:rgb(0%,0%,0%);stroke-opacity:1;stroke-miterlimit:10;" d="M 0.433367 1.162864 L 0.458703 1.252371 " transform="matrix(228.335551,0,0,228.335551,61.207046,231.992338)"/>
<path style="fill:none;stroke-width:0.00875904;stroke-linecap:butt;stroke-linejoin:miter;stroke:rgb(0%,0%,0%);stroke-opacity:1;stroke-miterlimit:10;" d="M 0.847505 1.594316 L 0.894979 1.37794 " transform="matrix(228.335551,0,0,228.335551,61.207046,231.992338)"/>
<path style="fill:none;stroke-width:0.00875904;stroke-linecap:butt;stroke-linejoin:miter;stroke:rgb(0%,0%,0%);stroke-opacity:1;stroke-miterlimit:10;" d="M 0.0319567 1.301897 L 0.23362 1.314796 " transform="matrix(228.335551,0,0,228.335551,61.207046,231.992338)"/>
<path style="fill:none;stroke-width:0.00875904;stroke-linecap:butt;stroke-linejoin:miter;stroke:rgb(0%,0%,0%);stroke-opacity:1;stroke-miterlimit:10;" d="M 1.777229 -0.552316 L 1.795073 -0.338096 " transform="matrix(228.335551,0,0,228.335551,61.207046,231.992338)"/>
<path style="fill:none;stroke-width:0.00875904;stroke-linecap:butt;stroke-linejoin:miter;stroke:rgb(0%,0%,0%);stroke-opacity:1;stroke-miterlimit:10;" d="M 0.0392103 2.09163 L 0.480652 1.505545 " transform="matrix(228.335551,0,0,228.335551,61.207046,231.992338)"/>
<path style="fill:none;stroke-width:0.00875904;stroke-linecap:butt;stroke-linejoin:miter;stroke:rgb(0%,0%,0%);stroke-opacity:1;stroke-miterlimit:10;" d="M 2.144185 0.276593 L 2.089647 0.272094 " transform="matrix(228.335551,0,0,228.335551,61.207046,231.992338)"/>
<path style="fill:none;stroke-width:0.00875904;stroke-linecap:butt;stroke-linejoin:miter;stroke:rgb(0%,0%,0%);stroke-opacity:1;stroke-miterlimit:10;" d="M 0.496306 1.720637 L 0.480652 1.505545 " transform="matrix(228.335551,0,0,228.335551,61.207046,231.992338)"/>
<path style="fill:none;stroke-width:0.00875904;stroke-linecap:butt;stroke-linejoin:miter;stroke:rgb(0%,0%,0%);stroke-opacity:1;stroke-miterlimit:10;" d="M 1.85914 -0.452768 L 1.844873 -0.401599 " transform="matrix(228.335551,0,0,228.335551,61.207046,231.992338)"/>
<path style="fill:none;stroke-width:0.00875904;stroke-linecap:butt;stroke-linejoin:miter;stroke:rgb(0%,0%,0%);stroke-opacity:1;stroke-miterlimit:10;" d="M 1.40947 -0.314796 L 1.629404 -0.28508 " transform="matrix(228.335551,0,0,228.335551,61.207046,231.992338)"/>
<path style="fill:none;stroke-width:0.00875904;stroke-linecap:butt;stroke-linejoin:miter;stroke:rgb(0%,0%,0%);stroke-opacity:1;stroke-miterlimit:10;" d="M 0.93359 2.016905 L 0.896279 1.853751 " transform="matrix(228.335551,0,0,228.335551,61.207046,231.992338)"/>
<path style="fill:none;stroke-width:0.00875904;stroke-linecap:butt;stroke-linejoin:miter;stroke:rgb(0%,0%,0%);stroke-opacity:1;stroke-miterlimit:10;" d="M 2.141277 -0.404388 L 1.797605 -0.189056 " transform="matrix(228.335551,0,0,228.335551,61.207046,231.992338)"/>
<path style="fill:none;stroke-width:0.00875904;stroke-linecap:butt;stroke-linejoin:miter;stroke:rgb(0%,0%,0%);stroke-opacity:1;stroke-miterlimit:10;" d="M 1.830622 -0.515894 L 1.795073 -0.338096 " transform="matrix(228.335551,0,0,228.335551,61.207046,231.992338)"/>
<path style="fill:none;stroke-width:0.00875904;stroke-linecap:butt;stroke-linejoin:miter;stroke:rgb(0%,0%,0%);stroke-opacity:1;stroke-miterlimit:10;" d="M -0.0000342813 1.411334 L 0.351166 1.394979 " transform="matrix(228.335551,0,0,228.335551,61.207046,231.992338)"/>
<path style="fill:none;stroke-width:0.00875904;stroke-linecap:butt;stroke-linejoin:miter;stroke:rgb(0%,0%,0%);stroke-opacity:1;stroke-miterlimit:10;" d="M 1.68437 -0.428475 L 1.702607 -0.223407 " transform="matrix(228.335551,0,0,228.335551,61.207046,231.992338)"/>
<path style="fill:none;stroke-width:0.00875904;stroke-linecap:butt;stroke-linejoin:miter;stroke:rgb(0%,0%,0%);stroke-opacity:1;stroke-miterlimit:10;" d="M 0.130872 0.907107 L 0.267134 1.291975 " transform="matrix(228.335551,0,0,228.335551,61.207046,231.992338)"/>
<path style="fill:none;stroke-width:0.00875904;stroke-linecap:butt;stroke-linejoin:miter;stroke:rgb(0%,0%,0%);stroke-opacity:1;stroke-miterlimit:10;" d="M 1.375699 -0.137049 L 1.521643 -0.0875055 " transform="matrix(228.335551,0,0,228.335551,61.207046,231.992338)"/>
<path style="fill:none;stroke-width:0.00875904;stroke-linecap:butt;stroke-linejoin:miter;stroke:rgb(0%,0%,0%);stroke-opacity:1;stroke-miterlimit:10;" d="M 0.142317 1.320938 L 0.23362 1.314796 " transform="matrix(228.335551,0,0,228.335551,61.207046,231.992338)"/>
<path style="fill:none;stroke-width:0.00875904;stroke-linecap:butt;stroke-linejoin:miter;stroke:rgb(0%,0%,0%);stroke-opacity:1;stroke-miterlimit:10;" d="M 0.880951 0.539176 L 0.969328 0.566788 " transform="matrix(228.335551,0,0,228.335551,61.207046,231.992338)"/>
<path style="fill:none;stroke-width:0.00875904;stroke-linecap:butt;stroke-linejoin:miter;stroke:rgb(0%,0%,0%);stroke-opacity:1;stroke-miterlimit:10;" d="M 0.931401 0.581586 L 0.952391 0.588206 " transform="matrix(228.335551,0,0,228.335551,61.207046,231.992338)"/>
<path style="fill:none;stroke-width:0.00875904;stroke-linecap:butt;stroke-linejoin:miter;stroke:rgb(0%,0%,0%);stroke-opacity:1;stroke-miterlimit:10;" d="M 0.905141 0.476614 L 0.977009 0.530879 " transform="matrix(228.335551,0,0,228.335551,61.207046,231.992338)"/>
<path style="fill:none;stroke-width:0.00875904;stroke-linecap:butt;stroke-linejoin:miter;stroke:rgb(0%,0%,0%);stroke-opacity:1;stroke-miterlimit:10;" d="M 0.946968 0.215126 L 1.123141 0.372601 " transform="matrix(228.335551,0,0,228.335551,61.207046,231.992338)"/>
<path style="fill:none;stroke-width:0.00875904;stroke-linecap:butt;stroke-linejoin:miter;stroke:rgb(0%,0%,0%);stroke-opacity:1;stroke-miterlimit:10;" d="M 1.858524 -0.418895 L 1.844873 -0.401599 " transform="matrix(228.335551,0,0,228.335551,61.207046,231.992338)"/>
<path style="fill:none;stroke-width:0.00875904;stroke-linecap:butt;stroke-linejoin:miter;stroke:rgb(0%,0%,0%);stroke-opacity:1;stroke-miterlimit:10;" d="M 1.488335 1.508539 L 1.387401 1.484451 " transform="matrix(228.335551,0,0,228.335551,61.207046,231.992338)"/>
<path style="fill:none;stroke-width:0.00875904;stroke-linecap:butt;stroke-linejoin:miter;stroke:rgb(0%,0%,0%);stroke-opacity:1;stroke-miterlimit:10;" d="M 0.828037 0.618384 L 0.896108 0.711415 " transform="matrix(228.335551,0,0,228.335551,61.207046,231.992338)"/>
<path style="fill:none;stroke-width:0.00875904;stroke-linecap:butt;stroke-linejoin:miter;stroke:rgb(0%,0%,0%);stroke-opacity:1;stroke-miterlimit:10;" d="M 0.781214 0.670596 L 0.794455 0.697181 " transform="matrix(228.335551,0,0,228.335551,61.207046,231.992338)"/>
<path style="fill:none;stroke-width:0.00875904;stroke-linecap:butt;stroke-linejoin:miter;stroke:rgb(0%,0%,0%);stroke-opacity:1;stroke-miterlimit:10;" d="M 0.703169 0.672923 L 0.794455 0.697181 " transform="matrix(228.335551,0,0,228.335551,61.207046,231.992338)"/>
<path style="fill:none;stroke-width:0.00875904;stroke-linecap:butt;stroke-linejoin:miter;stroke:rgb(0%,0%,0%);stroke-opacity:1;stroke-miterlimit:10;" d="M 1.436482 0.683547 L 1.084324 0.764311 " transform="matrix(228.335551,0,0,228.335551,61.207046,231.992338)"/>
<path style="fill:none;stroke-width:0.00875904;stroke-linecap:butt;stroke-linejoin:miter;stroke:rgb(0%,0%,0%);stroke-opacity:1;stroke-miterlimit:10;" d="M 1.340646 1.655988 L 1.180349 1.340817 " transform="matrix(228.335551,0,0,228.335551,61.207046,231.992338)"/>
<path style="fill:none;stroke-width:0.00875904;stroke-linecap:butt;stroke-linejoin:miter;stroke:rgb(0%,0%,0%);stroke-opacity:1;stroke-miterlimit:10;" d="M 1.412652 1.532027 L 1.387401 1.484451 " transform="matrix(228.335551,0,0,228.335551,61.207046,231.992338)"/>
<path style="fill:none;stroke-width:0.00875904;stroke-linecap:butt;stroke-linejoin:miter;stroke:rgb(0%,0%,0%);stroke-opacity:1;stroke-miterlimit:10;" d="M 1.261404 1.458927 L 1.180349 1.340817 " transform="matrix(228.335551,0,0,228.335551,61.207046,231.992338)"/>
<path style="fill:none;stroke-width:0.00875904;stroke-linecap:butt;stroke-linejoin:miter;stroke:rgb(0%,0%,0%);stroke-opacity:1;stroke-miterlimit:10;" d="M 1.535843 0.979558 L 1.08636 0.951313 " transform="matrix(228.335551,0,0,228.335551,61.207046,231.992338)"/>
<path style="fill:none;stroke-width:0.00875904;stroke-linecap:butt;stroke-linejoin:miter;stroke:rgb(0%,0%,0%);stroke-opacity:1;stroke-miterlimit:10;" d="M 0.956993 0.424796 L 1.011104 0.468471 " transform="matrix(228.335551,0,0,228.335551,61.207046,231.992338)"/>
<path style="fill:none;stroke-width:0.00875904;stroke-linecap:butt;stroke-linejoin:miter;stroke:rgb(0%,0%,0%);stroke-opacity:1;stroke-miterlimit:10;" d="M 1.207721 -0.557021 L 1.527973 -0.410512 " transform="matrix(228.335551,0,0,228.335551,61.207046,231.992338)"/>
<path style="fill:none;stroke-width:0.00875904;stroke-linecap:butt;stroke-linejoin:miter;stroke:rgb(0%,0%,0%);stroke-opacity:1;stroke-miterlimit:10;" d="M 1.943651 -0.166457 L 1.885965 -0.186678 " transform="matrix(228.335551,0,0,228.335551,61.207046,231.992338)"/>
<path style="fill:none;stroke-width:0.00875904;stroke-linecap:butt;stroke-linejoin:miter;stroke:rgb(0%,0%,0%);stroke-opacity:1;stroke-miterlimit:10;" d="M 0.965496 1.893816 L 0.902438 1.540632 " transform="matrix(228.335551,0,0,228.335551,61.207046,231.992338)"/>
<path style="fill:none;stroke-width:0.00875904;stroke-linecap:butt;stroke-linejoin:miter;stroke:rgb(0%,0%,0%);stroke-opacity:1;stroke-miterlimit:10;" d="M 0.978703 1.345744 L 0.975795 1.32595 " transform="matrix(228.335551,0,0,228.335551,61.207046,231.992338)"/>
<path style="fill:none;stroke-width:0.00875904;stroke-linecap:butt;stroke-linejoin:miter;stroke:rgb(0%,0%,0%);stroke-opacity:1;stroke-miterlimit:10;" d="M 2.092965 0.33895 L 2.089647 0.272094 " transform="matrix(228.335551,0,0,228.335551,61.207046,231.992338)"/>
<path style="fill:none;stroke-width:0.00875904;stroke-linecap:butt;stroke-linejoin:miter;stroke:rgb(0%,0%,0%);stroke-opacity:1;stroke-miterlimit:10;" d="M 0.185651 1.236923 L 0.267134 1.291975 " transform="matrix(228.335551,0,0,228.335551,61.207046,231.992338)"/>
<path style="fill:none;stroke-width:0.00875904;stroke-linecap:butt;stroke-linejoin:miter;stroke:rgb(0%,0%,0%);stroke-opacity:1;stroke-miterlimit:10;" d="M 0.589918 1.48505 L 0.615665 1.26876 " transform="matrix(228.335551,0,0,228.335551,61.207046,231.992338)"/>
<path style="fill:none;stroke-width:0.00875904;stroke-linecap:butt;stroke-linejoin:miter;stroke:rgb(0%,0%,0%);stroke-opacity:1;stroke-miterlimit:10;" d="M 0.789443 2.011071 L 0.896279 1.853751 " transform="matrix(228.335551,0,0,228.335551,61.207046,231.992338)"/>
<path style="fill:none;stroke-width:0.00875904;stroke-linecap:butt;stroke-linejoin:miter;stroke:rgb(0%,0%,0%);stroke-opacity:1;stroke-miterlimit:10;" d="M 0.998411 1.370464 L 0.975795 1.32595 " transform="matrix(228.335551,0,0,228.335551,61.207046,231.992338)"/>
<path style="fill:none;stroke-width:0.00875904;stroke-linecap:butt;stroke-linejoin:miter;stroke:rgb(0%,0%,0%);stroke-opacity:1;stroke-miterlimit:10;" d="M 1.438073 1.172051 L 1.05762 1.052607 " transform="matrix(228.335551,0,0,228.335551,61.207046,231.992338)"/>
<path style="fill:none;stroke-width:0.00875904;stroke-linecap:butt;stroke-linejoin:miter;stroke:rgb(0%,0%,0%);stroke-opacity:1;stroke-miterlimit:10;" d="M 0.462741 0.937439 L 0.458703 1.252371 " transform="matrix(228.335551,0,0,228.335551,61.207046,231.992338)"/>
<path style="fill:none;stroke-width:0.00875904;stroke-linecap:butt;stroke-linejoin:miter;stroke:rgb(0%,0%,0%);stroke-opacity:1;stroke-miterlimit:10;" d="M 0.18021 1.477608 L 0.351166 1.394979 " transform="matrix(228.335551,0,0,228.335551,61.207046,231.992338)"/>
<path style="fill:none;stroke-width:0.00875904;stroke-linecap:butt;stroke-linejoin:miter;stroke:rgb(0%,0%,0%);stroke-opacity:1;stroke-miterlimit:10;" d="M 1.876282 -0.420298 L 1.83584 -0.38131 " transform="matrix(228.335551,0,0,228.335551,61.207046,231.992338)"/>
<path style="fill:none;stroke-width:0.00875904;stroke-linecap:butt;stroke-linejoin:miter;stroke:rgb(0%,0%,0%);stroke-opacity:1;stroke-miterlimit:10;" d="M 1.51983 -0.655081 L 1.527973 -0.410512 " transform="matrix(228.335551,0,0,228.335551,61.207046,231.992338)"/>
<path style="fill:none;stroke-width:0.00875904;stroke-linecap:butt;stroke-linejoin:miter;stroke:rgb(0%,0%,0%);stroke-opacity:1;stroke-miterlimit:10;" d="M 0.525097 1.281214 L 0.480652 1.505545 " transform="matrix(228.335551,0,0,228.335551,61.207046,231.992338)"/>
<path style="fill:none;stroke-width:0.00875904;stroke-linecap:butt;stroke-linejoin:miter;stroke:rgb(0%,0%,0%);stroke-opacity:1;stroke-miterlimit:10;" d="M 1.795842 -0.320167 L 1.795073 -0.338096 " transform="matrix(228.335551,0,0,228.335551,61.207046,231.992338)"/>
<path style="fill:none;stroke-width:0.00875904;stroke-linecap:butt;stroke-linejoin:miter;stroke:rgb(0%,0%,0%);stroke-opacity:1;stroke-miterlimit:10;" d="M 0.352158 1.314608 L 0.23362 1.314796 " transform="matrix(228.335551,0,0,228.335551,61.207046,231.992338)"/>
<path style="fill:none;stroke-width:0.00875904;stroke-linecap:butt;stroke-linejoin:miter;stroke:rgb(0%,0%,0%);stroke-opacity:1;stroke-miterlimit:10;" d="M 1.83584 -0.38131 L 1.844873 -0.401599 " transform="matrix(228.335551,0,0,228.335551,61.207046,231.992338)"/>
<path style="fill:none;stroke-width:0.00875904;stroke-linecap:butt;stroke-linejoin:miter;stroke:rgb(0%,0%,0%);stroke-opacity:1;stroke-miterlimit:10;" d="M 0.896108 0.711415 L 0.794455 0.697181 " transform="matrix(228.335551,0,0,228.335551,61.207046,231.992338)"/>
<path style="fill:none;stroke-width:0.00875904;stroke-linecap:butt;stroke-linejoin:miter;stroke:rgb(0%,0%,0%);stroke-opacity:1;stroke-miterlimit:10;" d="M 1.097925 1.202023 L 1.387401 1.484451 " transform="matrix(228.335551,0,0,228.335551,61.207046,231.992338)"/>
<path style="fill:none;stroke-width:0.00875904;stroke-linecap:butt;stroke-linejoin:miter;stroke:rgb(0%,0%,0%);stroke-opacity:1;stroke-miterlimit:10;" d="M 1.097925 1.202023 L 1.180349 1.340817 " transform="matrix(228.335551,0,0,228.335551,61.207046,231.992338)"/>
<path style="fill:none;stroke-width:0.00875904;stroke-linecap:butt;stroke-linejoin:miter;stroke:rgb(0%,0%,0%);stroke-opacity:1;stroke-miterlimit:10;" d="M 1.940213 -0.0792426 L 2.089647 0.272094 " transform="matrix(228.335551,0,0,228.335551,61.207046,231.992338)"/>
<path style="fill:none;stroke-width:0.00875904;stroke-linecap:butt;stroke-linejoin:miter;stroke:rgb(0%,0%,0%);stroke-opacity:1;stroke-miterlimit:10;" d="M 0.352158 1.314608 L 0.267134 1.291975 " transform="matrix(228.335551,0,0,228.335551,61.207046,231.992338)"/>
<path style="fill:none;stroke-width:0.00875904;stroke-linecap:butt;stroke-linejoin:miter;stroke:rgb(0%,0%,0%);stroke-opacity:1;stroke-miterlimit:10;" d="M 0.902438 1.540632 L 0.896279 1.853751 " transform="matrix(228.335551,0,0,228.335551,61.207046,231.992338)"/>
<path style="fill:none;stroke-width:0.00875904;stroke-linecap:butt;stroke-linejoin:miter;stroke:rgb(0%,0%,0%);stroke-opacity:1;stroke-miterlimit:10;" d="M 0.947584 1.21056 L 0.975795 1.32595 " transform="matrix(228.335551,0,0,228.335551,61.207046,231.992338)"/>
<path style="fill:none;stroke-width:0.00875904;stroke-linecap:butt;stroke-linejoin:miter;stroke:rgb(0%,0%,0%);stroke-opacity:1;stroke-miterlimit:10;" d="M 0.487803 1.307611 L 0.458703 1.252371 " transform="matrix(228.335551,0,0,228.335551,61.207046,231.992338)"/>
<path style="fill:none;stroke-width:0.00875904;stroke-linecap:butt;stroke-linejoin:miter;stroke:rgb(0%,0%,0%);stroke-opacity:1;stroke-miterlimit:10;" d="M 0.377049 1.385416 L 0.351166 1.394979 " transform="matrix(228.335551,0,0,228.335551,61.207046,231.992338)"/>
<path style="fill:none;stroke-width:0.00875904;stroke-linecap:butt;stroke-linejoin:miter;stroke:rgb(0%,0%,0%);stroke-opacity:1;stroke-miterlimit:10;" d="M 1.629404 -0.28508 L 1.527973 -0.410512 " transform="matrix(228.335551,0,0,228.335551,61.207046,231.992338)"/>
<path style="fill:none;stroke-width:0.00875904;stroke-linecap:butt;stroke-linejoin:miter;stroke:rgb(0%,0%,0%);stroke-opacity:1;stroke-miterlimit:10;" d="M 1.795842 -0.320167 L 1.83584 -0.38131 " transform="matrix(228.335551,0,0,228.335551,61.207046,231.992338)"/>
<path style="fill:none;stroke-width:0.00875904;stroke-linecap:butt;stroke-linejoin:miter;stroke:rgb(0%,0%,0%);stroke-opacity:1;stroke-miterlimit:10;" d="M 0.994955 0.715606 L 0.896108 0.711415 " transform="matrix(228.335551,0,0,228.335551,61.207046,231.992338)"/>
<path style="fill:none;stroke-width:0.00875904;stroke-linecap:butt;stroke-linejoin:miter;stroke:rgb(0%,0%,0%);stroke-opacity:1;stroke-miterlimit:10;" d="M 1.027955 1.11315 L 1.097925 1.202023 " transform="matrix(228.335551,0,0,228.335551,61.207046,231.992338)"/>
<path style="fill:none;stroke-width:0.00875904;stroke-linecap:butt;stroke-linejoin:miter;stroke:rgb(0%,0%,0%);stroke-opacity:1;stroke-miterlimit:10;" d="M 1.885965 -0.186678 L 1.940213 -0.0792426 " transform="matrix(228.335551,0,0,228.335551,61.207046,231.992338)"/>
<path style="fill:none;stroke-width:0.00875904;stroke-linecap:butt;stroke-linejoin:miter;stroke:rgb(0%,0%,0%);stroke-opacity:1;stroke-miterlimit:10;" d="M 0.441048 1.326173 L 0.352158 1.314608 " transform="matrix(228.335551,0,0,228.335551,61.207046,231.992338)"/>
<path style="fill:none;stroke-width:0.00875904;stroke-linecap:butt;stroke-linejoin:miter;stroke:rgb(0%,0%,0%);stroke-opacity:1;stroke-miterlimit:10;" d="M 0.894979 1.37794 L 0.902438 1.540632 " transform="matrix(228.335551,0,0,228.335551,61.207046,231.992338)"/>
<path style="fill:none;stroke-width:0.00875904;stroke-linecap:butt;stroke-linejoin:miter;stroke:rgb(0%,0%,0%);stroke-opacity:1;stroke-miterlimit:10;" d="M 0.441048 1.326173 L 0.377049 1.385416 " transform="matrix(228.335551,0,0,228.335551,61.207046,231.992338)"/>
<path style="fill:none;stroke-width:0.00875904;stroke-linecap:butt;stroke-linejoin:miter;stroke:rgb(0%,0%,0%);stroke-opacity:1;stroke-miterlimit:10;" d="M 1.6254 -0.167055 L 1.629404 -0.28508 " transform="matrix(228.335551,0,0,228.335551,61.207046,231.992338)"/>
<path style="fill:none;stroke-width:0.00875904;stroke-linecap:butt;stroke-linejoin:miter;stroke:rgb(0%,0%,0%);stroke-opacity:1;stroke-miterlimit:10;" d="M 1.702607 -0.223407 L 1.795842 -0.320167 " transform="matrix(228.335551,0,0,228.335551,61.207046,231.992338)"/>
<path style="fill:none;stroke-width:0.00875904;stroke-linecap:butt;stroke-linejoin:miter;stroke:rgb(0%,0%,0%);stroke-opacity:1;stroke-miterlimit:10;" d="M 1.797605 -0.189056 L 1.885965 -0.186678 " transform="matrix(228.335551,0,0,228.335551,61.207046,231.992338)"/>
<path style="fill:none;stroke-width:0.00875904;stroke-linecap:butt;stroke-linejoin:miter;stroke:rgb(0%,0%,0%);stroke-opacity:1;stroke-miterlimit:10;" d="M 0.897665 1.241183 L 0.894979 1.37794 " transform="matrix(228.335551,0,0,228.335551,61.207046,231.992338)"/>
<path style="fill:none;stroke-width:0.00875904;stroke-linecap:butt;stroke-linejoin:miter;stroke:rgb(0%,0%,0%);stroke-opacity:1;stroke-miterlimit:10;" d="M 0.487803 1.307611 L 0.441048 1.326173 " transform="matrix(228.335551,0,0,228.335551,61.207046,231.992338)"/>
<path style="fill:none;stroke-width:0.00875904;stroke-linecap:butt;stroke-linejoin:miter;stroke:rgb(0%,0%,0%);stroke-opacity:1;stroke-miterlimit:10;" d="M 1.685242 -0.190527 L 1.702607 -0.223407 " transform="matrix(228.335551,0,0,228.335551,61.207046,231.992338)"/>
<path style="fill:none;stroke-width:0.00875904;stroke-linecap:butt;stroke-linejoin:miter;stroke:rgb(0%,0%,0%);stroke-opacity:1;stroke-miterlimit:10;" d="M 1.685242 -0.190527 L 1.797605 -0.189056 " transform="matrix(228.335551,0,0,228.335551,61.207046,231.992338)"/>
<path style="fill:none;stroke-width:0.00875904;stroke-linecap:butt;stroke-linejoin:miter;stroke:rgb(0%,0%,0%);stroke-opacity:1;stroke-miterlimit:10;" d="M 0.525097 1.281214 L 0.487803 1.307611 " transform="matrix(228.335551,0,0,228.335551,61.207046,231.992338)"/>
<path style="fill:none;stroke-width:0.00875904;stroke-linecap:butt;stroke-linejoin:miter;stroke:rgb(0%,0%,0%);stroke-opacity:1;stroke-miterlimit:10;" d="M 1.6254 -0.167055 L 1.685242 -0.190527 " transform="matrix(228.335551,0,0,228.335551,61.207046,231.992338)"/>
<path style="fill:none;stroke-width:0.00875904;stroke-linecap:butt;stroke-linejoin:miter;stroke:rgb(0%,0%,0%);stroke-opacity:1;stroke-miterlimit:10;" d="M 0.615665 1.26876 L 0.525097 1.281214 " transform="matrix(228.335551,0,0,228.335551,61.207046,231.992338)"/>
<path style="fill:none;stroke-width:0.00875904;stroke-linecap:butt;stroke-linejoin:miter;stroke:rgb(0%,0%,0%);stroke-opacity:1;stroke-miterlimit:10;" d="M 1.521643 -0.0875055 L 1.6254 -0.167055 " transform="matrix(228.335551,0,0,228.335551,61.207046,231.992338)"/>
<path style="fill:none;stroke-width:0.00875904;stroke-linecap:butt;stroke-linejoin:miter;stroke:rgb(0%,0%,0%);stroke-opacity:1;stroke-miterlimit:10;" d="M 0.897665 1.241183 L 0.615665 1.26876 " transform="matrix(228.335551,0,0,228.335551,61.207046,231.992338)"/>
<path style="fill:none;stroke-width:0.00875904;stroke-linecap:butt;stroke-linejoin:miter;stroke:rgb(0%,0%,0%);stroke-opacity:1;stroke-miterlimit:10;" d="M 1.123141 0.372601 L 1.521643 -0.0875055 " transform="matrix(228.335551,0,0,228.335551,61.207046,231.992338)"/>
<path style="fill:none;stroke-width:0.00875904;stroke-linecap:butt;stroke-linejoin:miter;stroke:rgb(0%,0%,0%);stroke-opacity:1;stroke-miterlimit:10;" d="M 0.947584 1.21056 L 0.897665 1.241183 " transform="matrix(228.335551,0,0,228.335551,61.207046,231.992338)"/>
<path style="fill:none;stroke-width:0.00875904;stroke-linecap:butt;stroke-linejoin:miter;stroke:rgb(0%,0%,0%);stroke-opacity:1;stroke-miterlimit:10;" d="M 1.011104 0.468471 L 1.123141 0.372601 " transform="matrix(228.335551,0,0,228.335551,61.207046,231.992338)"/>
<path style="fill:none;stroke-width:0.00875904;stroke-linecap:butt;stroke-linejoin:miter;stroke:rgb(0%,0%,0%);stroke-opacity:1;stroke-miterlimit:10;" d="M 1.027955 1.11315 L 0.947584 1.21056 " transform="matrix(228.335551,0,0,228.335551,61.207046,231.992338)"/>
<path style="fill:none;stroke-width:0.00875904;stroke-linecap:butt;stroke-linejoin:miter;stroke:rgb(0%,0%,0%);stroke-opacity:1;stroke-miterlimit:10;" d="M 0.977009 0.530879 L 1.011104 0.468471 " transform="matrix(228.335551,0,0,228.335551,61.207046,231.992338)"/>
<path style="fill:none;stroke-width:0.00875904;stroke-linecap:butt;stroke-linejoin:miter;stroke:rgb(0%,0%,0%);stroke-opacity:1;stroke-miterlimit:10;" d="M 1.05762 1.052607 L 1.027955 1.11315 " transform="matrix(228.335551,0,0,228.335551,61.207046,231.992338)"/>
<path style="fill:none;stroke-width:0.00875904;stroke-linecap:butt;stroke-linejoin:miter;stroke:rgb(0%,0%,0%);stroke-opacity:1;stroke-miterlimit:10;" d="M 0.969328 0.566788 L 0.977009 0.530879 " transform="matrix(228.335551,0,0,228.335551,61.207046,231.992338)"/>
<path style="fill:none;stroke-width:0.00875904;stroke-linecap:butt;stroke-linejoin:miter;stroke:rgb(0%,0%,0%);stroke-opacity:1;stroke-miterlimit:10;" d="M 1.08636 0.951313 L 1.05762 1.052607 " transform="matrix(228.335551,0,0,228.335551,61.207046,231.992338)"/>
<path style="fill:none;stroke-width:0.00875904;stroke-linecap:butt;stroke-linejoin:miter;stroke:rgb(0%,0%,0%);stroke-opacity:1;stroke-miterlimit:10;" d="M 0.952391 0.588206 L 0.969328 0.566788 " transform="matrix(228.335551,0,0,228.335551,61.207046,231.992338)"/>
<path style="fill:none;stroke-width:0.00875904;stroke-linecap:butt;stroke-linejoin:miter;stroke:rgb(0%,0%,0%);stroke-opacity:1;stroke-miterlimit:10;" d="M 1.084324 0.764311 L 1.08636 0.951313 " transform="matrix(228.335551,0,0,228.335551,61.207046,231.992338)"/>
<path style="fill:none;stroke-width:0.00875904;stroke-linecap:butt;stroke-linejoin:miter;stroke:rgb(0%,0%,0%);stroke-opacity:1;stroke-miterlimit:10;" d="M 0.994955 0.715606 L 0.952391 0.588206 " transform="matrix(228.335551,0,0,228.335551,61.207046,231.992338)"/>
<path style="fill:none;stroke-width:0.00875904;stroke-linecap:butt;stroke-linejoin:miter;stroke:rgb(0%,0%,0%);stroke-opacity:1;stroke-miterlimit:10;" d="M 0.994955 0.715606 L 1.084324 0.764311 " transform="matrix(228.335551,0,0,228.335551,61.207046,231.992338)"/>
<g style="fill:rgb(0%,0%,0%);fill-opacity:1;">
  <use xlink:href="#glyph0-1" x="24.523437" y="607.730469"/>
  <use xlink:href="#glyph0-2" x="31.743423" y="607.730469"/>
  <use xlink:href="#glyph0-3" x="37.853424" y="607.730469"/>
  <use xlink:href="#glyph0-4" x="41.743423" y="607.730469"/>
  <use xlink:href="#glyph0-5" x="47.853424" y="607.730469"/>
  <use xlink:href="#glyph0-6" x="53.963425" y="607.730469"/>
  <use xlink:href="#glyph0-7" x="59.523422" y="607.730469"/>
  <use xlink:href="#glyph0-8" x="65.08342" y="607.730469"/>
  <use xlink:href="#glyph0-9" x="68.413422" y="607.730469"/>
  <use xlink:href="#glyph0-3" x="73.973419" y="607.730469"/>
  <use xlink:href="#glyph0-10" x="77.863419" y="607.730469"/>
  <use xlink:href="#glyph0-11" x="80.643417" y="607.730469"/>
  <use xlink:href="#glyph0-12" x="86.753418" y="607.730469"/>
</g>
<g style="fill:rgb(0%,0%,0%);fill-opacity:1;">
  <use xlink:href="#glyph0-1" x="509.1875" y="227.273438"/>
  <use xlink:href="#glyph0-12" x="516.407486" y="227.273438"/>
  <use xlink:href="#glyph0-4" x="525.29747" y="227.273438"/>
  <use xlink:href="#glyph0-9" x="531.407471" y="227.273438"/>
  <use xlink:href="#glyph0-5" x="536.967468" y="227.273438"/>
  <use xlink:href="#glyph0-10" x="543.077469" y="227.273438"/>
  <use xlink:href="#glyph0-13" x="545.857468" y="227.273438"/>
  <use xlink:href="#glyph0-10" x="551.967468" y="227.273438"/>
  <use xlink:href="#glyph0-11" x="554.747467" y="227.273438"/>
  <use xlink:href="#glyph0-12" x="560.857468" y="227.273438"/>
</g>
<g style="fill:rgb(0%,0%,0%);fill-opacity:1;">
  <use xlink:href="#glyph0-1" x="123.105469" y="495.769531"/>
  <use xlink:href="#glyph0-14" x="130.325455" y="495.769531"/>
  <use xlink:href="#glyph0-11" x="136.435455" y="495.769531"/>
  <use xlink:href="#glyph0-10" x="142.545456" y="495.769531"/>
  <use xlink:href="#glyph0-15" x="145.325455" y="495.769531"/>
  <use xlink:href="#glyph0-9" x="148.655457" y="495.769531"/>
  <use xlink:href="#glyph0-16" x="154.215454" y="495.769531"/>
</g>
<g style="fill:rgb(0%,0%,0%);fill-opacity:1;">
  <use xlink:href="#glyph0-1" x="187.429687" y="607.359375"/>
  <use xlink:href="#glyph0-3" x="194.649673" y="607.359375"/>
  <use xlink:href="#glyph0-7" x="198.539673" y="607.359375"/>
  <use xlink:href="#glyph0-17" x="204.09967" y="607.359375"/>
  <use xlink:href="#glyph0-9" x="210.209671" y="607.359375"/>
  <use xlink:href="#glyph0-4" x="215.769669" y="607.359375"/>
  <use xlink:href="#glyph0-2" x="221.879669" y="607.359375"/>
  <use xlink:href="#glyph0-18" x="227.98967" y="607.359375"/>
  <use xlink:href="#glyph0-4" x="230.769669" y="607.359375"/>
  <use xlink:href="#glyph0-5" x="236.879669" y="607.359375"/>
  <use xlink:href="#glyph0-11" x="242.98967" y="607.359375"/>
  <use xlink:href="#glyph0-19" x="249.09967" y="607.359375"/>
</g>
<g style="fill:rgb(0%,0%,0%);fill-opacity:1;">
  <use xlink:href="#glyph0-20" x="28.386719" y="532.660156"/>
  <use xlink:href="#glyph0-6" x="35.606705" y="532.660156"/>
  <use xlink:href="#glyph0-7" x="41.166702" y="532.660156"/>
  <use xlink:href="#glyph0-10" x="46.7267" y="532.660156"/>
  <use xlink:href="#glyph0-18" x="49.506699" y="532.660156"/>
  <use xlink:href="#glyph0-18" x="52.286697" y="532.660156"/>
  <use xlink:href="#glyph0-11" x="55.066696" y="532.660156"/>
  <use xlink:href="#glyph0-19" x="61.176697" y="532.660156"/>
</g>
<g style="fill:rgb(0%,0%,0%);fill-opacity:1;">
  <use xlink:href="#glyph0-21" x="394.773438" y="103.898438"/>
  <use xlink:href="#glyph0-6" x="401.993423" y="103.898438"/>
  <use xlink:href="#glyph0-9" x="407.553421" y="103.898438"/>
  <use xlink:href="#glyph0-22" x="413.113419" y="103.898438"/>
  <use xlink:href="#glyph0-4" x="419.223419" y="103.898438"/>
  <use xlink:href="#glyph0-3" x="425.33342" y="103.898438"/>
  <use xlink:href="#glyph0-17" x="429.223419" y="103.898438"/>
  <use xlink:href="#glyph0-6" x="435.33342" y="103.898438"/>
  <use xlink:href="#glyph0-5" x="440.893417" y="103.898438"/>
  <use xlink:href="#glyph0-13" x="447.003418" y="103.898438"/>
  <use xlink:href="#glyph0-10" x="453.113419" y="103.898438"/>
  <use xlink:href="#glyph0-8" x="455.893417" y="103.898438"/>
  <use xlink:href="#glyph0-10" x="459.223419" y="103.898438"/>
  <use xlink:href="#glyph0-19" x="462.003418" y="103.898438"/>
</g>
<g style="fill:rgb(0%,0%,0%);fill-opacity:1;">
  <use xlink:href="#glyph0-21" x="-3.378906" y="719.8125"/>
  <use xlink:href="#glyph0-6" x="3.84108" y="719.8125"/>
  <use xlink:href="#glyph0-12" x="9.401077" y="719.8125"/>
  <use xlink:href="#glyph0-23" x="18.291061" y="719.8125"/>
  <use xlink:href="#glyph0-24" x="24.401062" y="719.8125"/>
  <use xlink:href="#glyph0-18" x="29.96106" y="719.8125"/>
  <use xlink:href="#glyph0-4" x="32.741058" y="719.8125"/>
  <use xlink:href="#glyph0-5" x="38.851059" y="719.8125"/>
  <use xlink:href="#glyph0-6" x="44.96106" y="719.8125"/>
  <use xlink:href="#glyph0-7" x="50.521057" y="719.8125"/>
  <use xlink:href="#glyph0-8" x="56.081055" y="719.8125"/>
  <use xlink:href="#glyph0-9" x="59.411057" y="719.8125"/>
  <use xlink:href="#glyph0-3" x="64.971054" y="719.8125"/>
</g>
<g style="fill:rgb(0%,0%,0%);fill-opacity:1;">
  <use xlink:href="#glyph0-21" x="553.746094" y="299.449219"/>
  <use xlink:href="#glyph0-6" x="560.96608" y="299.449219"/>
  <use xlink:href="#glyph0-22" x="566.526077" y="299.449219"/>
  <use xlink:href="#glyph0-13" x="572.636078" y="299.449219"/>
  <use xlink:href="#glyph0-10" x="578.746078" y="299.449219"/>
  <use xlink:href="#glyph0-13" x="581.526077" y="299.449219"/>
  <use xlink:href="#glyph0-6" x="587.636078" y="299.449219"/>
</g>
<g style="fill:rgb(0%,0%,0%);fill-opacity:1;">
  <use xlink:href="#glyph0-21" x="174.761719" y="636.453125"/>
  <use xlink:href="#glyph0-17" x="181.981705" y="636.453125"/>
  <use xlink:href="#glyph0-18" x="188.091705" y="636.453125"/>
  <use xlink:href="#glyph0-6" x="190.871704" y="636.453125"/>
  <use xlink:href="#glyph0-12" x="196.431702" y="636.453125"/>
  <use xlink:href="#glyph0-24" x="205.321686" y="636.453125"/>
  <use xlink:href="#glyph0-13" x="210.881683" y="636.453125"/>
  <use xlink:href="#glyph0-10" x="216.991684" y="636.453125"/>
  <use xlink:href="#glyph0-6" x="219.771683" y="636.453125"/>
</g>
<g style="fill:rgb(0%,0%,0%);fill-opacity:1;">
  <use xlink:href="#glyph0-21" x="486.574219" y="126.859375"/>
  <use xlink:href="#glyph0-3" x="493.794205" y="126.859375"/>
  <use xlink:href="#glyph0-24" x="497.684204" y="126.859375"/>
  <use xlink:href="#glyph0-23" x="503.244202" y="126.859375"/>
  <use xlink:href="#glyph0-8" x="509.354202" y="126.859375"/>
  <use xlink:href="#glyph0-4" x="512.684204" y="126.859375"/>
  <use xlink:href="#glyph0-5" x="518.794205" y="126.859375"/>
  <use xlink:href="#glyph0-3" x="524.904205" y="126.859375"/>
  <use xlink:href="#glyph0-6" x="528.794205" y="126.859375"/>
  <use xlink:href="#glyph0-22" x="534.354202" y="126.859375"/>
  <use xlink:href="#glyph0-7" x="540.464203" y="126.859375"/>
  <use xlink:href="#glyph0-17" x="546.0242" y="126.859375"/>
  <use xlink:href="#glyph0-11" x="552.134201" y="126.859375"/>
  <use xlink:href="#glyph0-19" x="558.244202" y="126.859375"/>
</g>
<g style="fill:rgb(0%,0%,0%);fill-opacity:1;">
  <use xlink:href="#glyph0-21" x="300.402344" y="164"/>
  <use xlink:href="#glyph0-3" x="307.62233" y="164"/>
  <use xlink:href="#glyph0-24" x="311.512329" y="164"/>
  <use xlink:href="#glyph0-23" x="317.072327" y="164"/>
  <use xlink:href="#glyph0-8" x="323.182327" y="164"/>
  <use xlink:href="#glyph0-4" x="326.512329" y="164"/>
  <use xlink:href="#glyph0-19" x="332.62233" y="164"/>
  <use xlink:href="#glyph0-23" x="338.182327" y="164"/>
  <use xlink:href="#glyph0-4" x="344.292328" y="164"/>
  <use xlink:href="#glyph0-3" x="350.402328" y="164"/>
  <use xlink:href="#glyph0-10" x="354.292328" y="164"/>
  <use xlink:href="#glyph0-13" x="357.072327" y="164"/>
  <use xlink:href="#glyph0-10" x="363.182327" y="164"/>
  <use xlink:href="#glyph0-11" x="365.962326" y="164"/>
  <use xlink:href="#glyph0-12" x="372.072327" y="164"/>
</g>
<g style="fill:rgb(0%,0%,0%);fill-opacity:1;">
  <use xlink:href="#glyph0-25" x="275.035156" y="701.910156"/>
  <use xlink:href="#glyph0-9" x="282.255142" y="701.910156"/>
  <use xlink:href="#glyph0-19" x="287.81514" y="701.910156"/>
  <use xlink:href="#glyph0-11" x="293.375137" y="701.910156"/>
  <use xlink:href="#glyph0-18" x="299.485138" y="701.910156"/>
  <use xlink:href="#glyph0-15" x="302.265137" y="701.910156"/>
  <use xlink:href="#glyph0-11" x="305.595139" y="701.910156"/>
  <use xlink:href="#glyph0-3" x="311.705139" y="701.910156"/>
  <use xlink:href="#glyph0-4" x="315.595139" y="701.910156"/>
  <use xlink:href="#glyph0-7" x="321.705139" y="701.910156"/>
  <use xlink:href="#glyph0-4" x="327.265137" y="701.910156"/>
  <use xlink:href="#glyph0-7" x="333.375137" y="701.910156"/>
  <use xlink:href="#glyph0-7" x="338.935135" y="701.910156"/>
  <use xlink:href="#glyph0-11" x="344.495132" y="701.910156"/>
  <use xlink:href="#glyph0-19" x="350.605133" y="701.910156"/>
</g>
<g style="fill:rgb(0%,0%,0%);fill-opacity:1;">
  <use xlink:href="#glyph0-25" x="552.835937" y="140.820313"/>
  <use xlink:href="#glyph0-10" x="560.055923" y="140.820313"/>
  <use xlink:href="#glyph0-7" x="562.835922" y="140.820313"/>
  <use xlink:href="#glyph0-8" x="568.39592" y="140.820313"/>
  <use xlink:href="#glyph0-24" x="571.725922" y="140.820313"/>
  <use xlink:href="#glyph0-4" x="577.285919" y="140.820313"/>
  <use xlink:href="#glyph0-19" x="583.39592" y="140.820313"/>
  <use xlink:href="#glyph0-8" x="588.955917" y="140.820313"/>
  <use xlink:href="#glyph0-9" x="592.285919" y="140.820313"/>
  <use xlink:href="#glyph0-18" x="597.845917" y="140.820313"/>
  <use xlink:href="#glyph0-10" x="600.625916" y="140.820313"/>
  <use xlink:href="#glyph0-11" x="603.405914" y="140.820313"/>
  <use xlink:href="#glyph0-12" x="609.515915" y="140.820313"/>
</g>
<g style="fill:rgb(0%,0%,0%);fill-opacity:1;">
  <use xlink:href="#glyph0-25" x="479.828125" y="112.328125"/>
  <use xlink:href="#glyph0-3" x="487.048111" y="112.328125"/>
  <use xlink:href="#glyph0-4" x="490.93811" y="112.328125"/>
  <use xlink:href="#glyph0-19" x="497.048111" y="112.328125"/>
  <use xlink:href="#glyph0-4" x="502.608109" y="112.328125"/>
  <use xlink:href="#glyph0-23" x="508.718109" y="112.328125"/>
  <use xlink:href="#glyph0-17" x="514.82811" y="112.328125"/>
  <use xlink:href="#glyph0-10" x="520.93811" y="112.328125"/>
  <use xlink:href="#glyph0-18" x="523.718109" y="112.328125"/>
  <use xlink:href="#glyph0-6" x="526.498108" y="112.328125"/>
</g>
<g style="fill:rgb(0%,0%,0%);fill-opacity:1;">
  <use xlink:href="#glyph0-26" x="3.246094" y="558.28125"/>
  <use xlink:href="#glyph0-19" x="9.916092" y="558.28125"/>
  <use xlink:href="#glyph0-7" x="15.476089" y="558.28125"/>
  <use xlink:href="#glyph0-17" x="21.036087" y="558.28125"/>
  <use xlink:href="#glyph0-9" x="27.146088" y="558.28125"/>
  <use xlink:href="#glyph0-3" x="32.706085" y="558.28125"/>
  <use xlink:href="#glyph0-10" x="36.596085" y="558.28125"/>
  <use xlink:href="#glyph0-7" x="39.376083" y="558.28125"/>
  <use xlink:href="#glyph0-17" x="44.936081" y="558.28125"/>
  <use xlink:href="#glyph0-10" x="51.046082" y="558.28125"/>
  <use xlink:href="#glyph0-6" x="53.82608" y="558.28125"/>
</g>
<g style="fill:rgb(0%,0%,0%);fill-opacity:1;">
  <use xlink:href="#glyph0-26" x="407.75" y="132.183594"/>
  <use xlink:href="#glyph0-11" x="414.419998" y="132.183594"/>
  <use xlink:href="#glyph0-2" x="420.529999" y="132.183594"/>
  <use xlink:href="#glyph0-18" x="426.639999" y="132.183594"/>
  <use xlink:href="#glyph0-9" x="429.419998" y="132.183594"/>
  <use xlink:href="#glyph0-22" x="434.979996" y="132.183594"/>
  <use xlink:href="#glyph0-6" x="441.089996" y="132.183594"/>
</g>
<g style="fill:rgb(0%,0%,0%);fill-opacity:1;">
  <use xlink:href="#glyph0-27" x="17.585937" y="437.445312"/>
  <use xlink:href="#glyph0-18" x="23.695938" y="437.445312"/>
  <use xlink:href="#glyph0-6" x="26.475937" y="437.445312"/>
  <use xlink:href="#glyph0-28" x="32.035934" y="437.445312"/>
  <use xlink:href="#glyph0-4" x="37.595932" y="437.445312"/>
  <use xlink:href="#glyph0-5" x="43.705933" y="437.445312"/>
  <use xlink:href="#glyph0-6" x="49.815933" y="437.445312"/>
  <use xlink:href="#glyph0-7" x="55.375931" y="437.445312"/>
  <use xlink:href="#glyph0-8" x="60.935928" y="437.445312"/>
  <use xlink:href="#glyph0-9" x="64.26593" y="437.445312"/>
  <use xlink:href="#glyph0-3" x="69.825928" y="437.445312"/>
  <use xlink:href="#glyph0-10" x="73.715927" y="437.445312"/>
  <use xlink:href="#glyph0-11" x="76.495926" y="437.445312"/>
  <use xlink:href="#glyph0-12" x="82.605927" y="437.445312"/>
</g>
<g style="fill:rgb(0%,0%,0%);fill-opacity:1;">
  <use xlink:href="#glyph0-29" x="330.816406" y="202.648438"/>
  <use xlink:href="#glyph0-9" x="338.596405" y="202.648438"/>
  <use xlink:href="#glyph0-18" x="344.156403" y="202.648438"/>
  <use xlink:href="#glyph0-10" x="346.936401" y="202.648438"/>
  <use xlink:href="#glyph0-13" x="349.7164" y="202.648438"/>
  <use xlink:href="#glyph0-10" x="355.826401" y="202.648438"/>
  <use xlink:href="#glyph0-11" x="358.6064" y="202.648438"/>
  <use xlink:href="#glyph0-12" x="364.7164" y="202.648438"/>
</g>
<g style="fill:rgb(0%,0%,0%);fill-opacity:1;">
  <use xlink:href="#glyph0-29" x="34.84375" y="537.816406"/>
  <use xlink:href="#glyph0-9" x="42.623749" y="537.816406"/>
  <use xlink:href="#glyph0-4" x="48.183746" y="537.816406"/>
  <use xlink:href="#glyph0-5" x="54.293747" y="537.816406"/>
  <use xlink:href="#glyph0-6" x="60.403748" y="537.816406"/>
  <use xlink:href="#glyph0-7" x="65.963745" y="537.816406"/>
  <use xlink:href="#glyph0-10" x="71.523743" y="537.816406"/>
  <use xlink:href="#glyph0-18" x="74.303741" y="537.816406"/>
  <use xlink:href="#glyph0-18" x="77.08374" y="537.816406"/>
  <use xlink:href="#glyph0-11" x="79.863739" y="537.816406"/>
  <use xlink:href="#glyph0-19" x="85.97374" y="537.816406"/>
</g>
<g style="fill:rgb(0%,0%,0%);fill-opacity:1;">
  <use xlink:href="#glyph0-30" x="209.433594" y="357.148438"/>
  <use xlink:href="#glyph0-6" x="216.65358" y="357.148438"/>
  <use xlink:href="#glyph0-18" x="222.213577" y="357.148438"/>
  <use xlink:href="#glyph0-4" x="224.993576" y="357.148438"/>
  <use xlink:href="#glyph0-6" x="231.103577" y="357.148438"/>
  <use xlink:href="#glyph0-3" x="236.663574" y="357.148438"/>
  <use xlink:href="#glyph0-7" x="240.553574" y="357.148438"/>
  <use xlink:href="#glyph0-11" x="246.113571" y="357.148438"/>
  <use xlink:href="#glyph0-18" x="252.223572" y="357.148438"/>
  <use xlink:href="#glyph0-6" x="255.003571" y="357.148438"/>
</g>
<g style="fill:rgb(0%,0%,0%);fill-opacity:1;">
  <use xlink:href="#glyph0-30" x="202.957031" y="366.820312"/>
  <use xlink:href="#glyph0-6" x="210.177017" y="366.820312"/>
  <use xlink:href="#glyph0-18" x="215.737015" y="366.820312"/>
  <use xlink:href="#glyph0-4" x="218.517014" y="366.820312"/>
  <use xlink:href="#glyph0-5" x="224.627014" y="366.820312"/>
  <use xlink:href="#glyph0-6" x="230.737015" y="366.820312"/>
  <use xlink:href="#glyph0-7" x="236.297012" y="366.820312"/>
  <use xlink:href="#glyph0-8" x="241.85701" y="366.820312"/>
  <use xlink:href="#glyph0-9" x="245.187012" y="366.820312"/>
  <use xlink:href="#glyph0-3" x="250.747009" y="366.820312"/>
  <use xlink:href="#glyph0-10" x="254.637009" y="366.820312"/>
  <use xlink:href="#glyph0-11" x="257.417007" y="366.820312"/>
  <use xlink:href="#glyph0-12" x="263.527008" y="366.820312"/>
</g>
<g style="fill:rgb(0%,0%,0%);fill-opacity:1;">
  <use xlink:href="#glyph0-30" x="220.871094" y="341.113281"/>
  <use xlink:href="#glyph0-6" x="228.09108" y="341.113281"/>
  <use xlink:href="#glyph0-18" x="233.651077" y="341.113281"/>
  <use xlink:href="#glyph0-4" x="236.431076" y="341.113281"/>
  <use xlink:href="#glyph0-15" x="242.541077" y="341.113281"/>
  <use xlink:href="#glyph0-9" x="245.871078" y="341.113281"/>
  <use xlink:href="#glyph0-3" x="251.431076" y="341.113281"/>
  <use xlink:href="#glyph0-6" x="255.321075" y="341.113281"/>
  <use xlink:href="#glyph0-16" x="260.881073" y="341.113281"/>
</g>
<g style="fill:rgb(0%,0%,0%);fill-opacity:1;">
  <use xlink:href="#glyph0-30" x="219.914062" y="281.035156"/>
  <use xlink:href="#glyph0-6" x="227.134048" y="281.035156"/>
  <use xlink:href="#glyph0-18" x="232.694046" y="281.035156"/>
  <use xlink:href="#glyph0-4" x="235.474045" y="281.035156"/>
  <use xlink:href="#glyph0-3" x="241.584045" y="281.035156"/>
  <use xlink:href="#glyph0-11" x="245.474045" y="281.035156"/>
  <use xlink:href="#glyph0-5" x="251.584045" y="281.035156"/>
  <use xlink:href="#glyph0-3" x="257.694046" y="281.035156"/>
  <use xlink:href="#glyph0-11" x="261.584045" y="281.035156"/>
  <use xlink:href="#glyph0-12" x="267.694046" y="281.035156"/>
</g>
<g style="fill:rgb(0%,0%,0%);fill-opacity:1;">
  <use xlink:href="#glyph0-30" x="487.394531" y="135.582031"/>
  <use xlink:href="#glyph0-4" x="494.614517" y="135.582031"/>
  <use xlink:href="#glyph0-12" x="500.724518" y="135.582031"/>
  <use xlink:href="#glyph0-4" x="509.614502" y="135.582031"/>
</g>
<g style="fill:rgb(0%,0%,0%);fill-opacity:1;">
  <use xlink:href="#glyph0-31" x="403.90625" y="581.550781"/>
  <use xlink:href="#glyph0-9" x="412.236237" y="581.550781"/>
  <use xlink:href="#glyph0-8" x="417.796234" y="581.550781"/>
  <use xlink:href="#glyph0-17" x="421.126236" y="581.550781"/>
  <use xlink:href="#glyph0-6" x="427.236237" y="581.550781"/>
  <use xlink:href="#glyph0-22" x="432.796234" y="581.550781"/>
  <use xlink:href="#glyph0-4" x="438.906235" y="581.550781"/>
  <use xlink:href="#glyph0-7" x="445.016235" y="581.550781"/>
  <use xlink:href="#glyph0-4" x="450.576233" y="581.550781"/>
  <use xlink:href="#glyph0-7" x="456.686234" y="581.550781"/>
  <use xlink:href="#glyph0-7" x="462.246231" y="581.550781"/>
  <use xlink:href="#glyph0-11" x="467.806229" y="581.550781"/>
  <use xlink:href="#glyph0-19" x="473.916229" y="581.550781"/>
</g>
<g style="fill:rgb(0%,0%,0%);fill-opacity:1;">
  <use xlink:href="#glyph0-31" x="181.773438" y="372.304688"/>
  <use xlink:href="#glyph0-9" x="190.103424" y="372.304688"/>
  <use xlink:href="#glyph0-8" x="195.663422" y="372.304688"/>
  <use xlink:href="#glyph0-17" x="198.993423" y="372.304688"/>
  <use xlink:href="#glyph0-6" x="205.103424" y="372.304688"/>
  <use xlink:href="#glyph0-22" x="210.663422" y="372.304688"/>
  <use xlink:href="#glyph0-4" x="216.773422" y="372.304688"/>
  <use xlink:href="#glyph0-18" x="222.883423" y="372.304688"/>
  <use xlink:href="#glyph0-4" x="225.663422" y="372.304688"/>
  <use xlink:href="#glyph0-5" x="231.773422" y="372.304688"/>
  <use xlink:href="#glyph0-11" x="237.883423" y="372.304688"/>
  <use xlink:href="#glyph0-19" x="243.993423" y="372.304688"/>
</g>
<g style="fill:rgb(0%,0%,0%);fill-opacity:1;">
  <use xlink:href="#glyph0-31" x="163.125" y="383.71875"/>
  <use xlink:href="#glyph0-9" x="171.454987" y="383.71875"/>
  <use xlink:href="#glyph0-8" x="177.014984" y="383.71875"/>
  <use xlink:href="#glyph0-17" x="180.344986" y="383.71875"/>
  <use xlink:href="#glyph0-6" x="186.454987" y="383.71875"/>
  <use xlink:href="#glyph0-22" x="192.014984" y="383.71875"/>
  <use xlink:href="#glyph0-4" x="198.124985" y="383.71875"/>
  <use xlink:href="#glyph0-19" x="204.234985" y="383.71875"/>
  <use xlink:href="#glyph0-6" x="209.794983" y="383.71875"/>
  <use xlink:href="#glyph0-3" x="215.35498" y="383.71875"/>
  <use xlink:href="#glyph0-7" x="219.24498" y="383.71875"/>
  <use xlink:href="#glyph0-10" x="224.804977" y="383.71875"/>
  <use xlink:href="#glyph0-22" x="227.584976" y="383.71875"/>
  <use xlink:href="#glyph0-6" x="233.694977" y="383.71875"/>
</g>
<g style="fill:rgb(0%,0%,0%);fill-opacity:1;">
  <use xlink:href="#glyph0-31" x="135.308594" y="387.929688"/>
  <use xlink:href="#glyph0-9" x="143.63858" y="387.929688"/>
  <use xlink:href="#glyph0-8" x="149.198578" y="387.929688"/>
  <use xlink:href="#glyph0-17" x="152.52858" y="387.929688"/>
  <use xlink:href="#glyph0-6" x="158.63858" y="387.929688"/>
  <use xlink:href="#glyph0-22" x="164.198578" y="387.929688"/>
  <use xlink:href="#glyph0-4" x="170.308578" y="387.929688"/>
  <use xlink:href="#glyph0-19" x="176.418579" y="387.929688"/>
  <use xlink:href="#glyph0-6" x="181.978577" y="387.929688"/>
  <use xlink:href="#glyph0-3" x="187.538574" y="387.929688"/>
  <use xlink:href="#glyph0-7" x="191.428574" y="387.929688"/>
  <use xlink:href="#glyph0-10" x="196.988571" y="387.929688"/>
  <use xlink:href="#glyph0-22" x="199.76857" y="387.929688"/>
  <use xlink:href="#glyph0-6" x="205.878571" y="387.929688"/>
  <use xlink:href="#glyph0-32" x="211.438568" y="387.929688"/>
  <use xlink:href="#glyph0-28" x="214.218567" y="387.929688"/>
</g>
<g style="fill:rgb(0%,0%,0%);fill-opacity:1;">
  <use xlink:href="#glyph0-31" x="392.308594" y="391.304688"/>
  <use xlink:href="#glyph0-9" x="400.63858" y="391.304688"/>
  <use xlink:href="#glyph0-8" x="406.198578" y="391.304688"/>
  <use xlink:href="#glyph0-17" x="409.52858" y="391.304688"/>
  <use xlink:href="#glyph0-6" x="415.63858" y="391.304688"/>
  <use xlink:href="#glyph0-22" x="421.198578" y="391.304688"/>
  <use xlink:href="#glyph0-4" x="427.308578" y="391.304688"/>
  <use xlink:href="#glyph0-19" x="433.418579" y="391.304688"/>
  <use xlink:href="#glyph0-23" x="438.978577" y="391.304688"/>
  <use xlink:href="#glyph0-10" x="445.088577" y="391.304688"/>
  <use xlink:href="#glyph0-3" x="447.868576" y="391.304688"/>
  <use xlink:href="#glyph0-10" x="451.758575" y="391.304688"/>
  <use xlink:href="#glyph0-18" x="454.538574" y="391.304688"/>
  <use xlink:href="#glyph0-18" x="457.318573" y="391.304688"/>
  <use xlink:href="#glyph0-11" x="460.098572" y="391.304688"/>
  <use xlink:href="#glyph0-12" x="466.208572" y="391.304688"/>
</g>
<g style="fill:rgb(0%,0%,0%);fill-opacity:1;">
  <use xlink:href="#glyph0-31" x="368.65625" y="619.019531"/>
  <use xlink:href="#glyph0-9" x="376.986237" y="619.019531"/>
  <use xlink:href="#glyph0-8" x="382.546234" y="619.019531"/>
  <use xlink:href="#glyph0-17" x="385.876236" y="619.019531"/>
  <use xlink:href="#glyph0-6" x="391.986237" y="619.019531"/>
  <use xlink:href="#glyph0-22" x="397.546234" y="619.019531"/>
  <use xlink:href="#glyph0-4" x="403.656235" y="619.019531"/>
  <use xlink:href="#glyph0-8" x="409.766235" y="619.019531"/>
  <use xlink:href="#glyph0-17" x="413.096237" y="619.019531"/>
  <use xlink:href="#glyph0-9" x="419.206238" y="619.019531"/>
  <use xlink:href="#glyph0-3" x="424.766235" y="619.019531"/>
  <use xlink:href="#glyph0-12" x="428.656235" y="619.019531"/>
  <use xlink:href="#glyph0-4" x="437.546219" y="619.019531"/>
  <use xlink:href="#glyph0-5" x="443.656219" y="619.019531"/>
  <use xlink:href="#glyph0-6" x="449.76622" y="619.019531"/>
  <use xlink:href="#glyph0-7" x="455.326218" y="619.019531"/>
  <use xlink:href="#glyph0-8" x="460.886215" y="619.019531"/>
  <use xlink:href="#glyph0-9" x="464.216217" y="619.019531"/>
  <use xlink:href="#glyph0-3" x="469.776215" y="619.019531"/>
</g>
<g style="fill:rgb(0%,0%,0%);fill-opacity:1;">
  <use xlink:href="#glyph0-31" x="385.144531" y="590.667969"/>
  <use xlink:href="#glyph0-9" x="393.474518" y="590.667969"/>
  <use xlink:href="#glyph0-8" x="399.034515" y="590.667969"/>
  <use xlink:href="#glyph0-17" x="402.364517" y="590.667969"/>
  <use xlink:href="#glyph0-6" x="408.474518" y="590.667969"/>
  <use xlink:href="#glyph0-22" x="414.034515" y="590.667969"/>
  <use xlink:href="#glyph0-4" x="420.144516" y="590.667969"/>
  <use xlink:href="#glyph0-8" x="426.254517" y="590.667969"/>
  <use xlink:href="#glyph0-17" x="429.584518" y="590.667969"/>
  <use xlink:href="#glyph0-9" x="435.694519" y="590.667969"/>
  <use xlink:href="#glyph0-3" x="441.254517" y="590.667969"/>
  <use xlink:href="#glyph0-12" x="445.144516" y="590.667969"/>
  <use xlink:href="#glyph0-4" x="454.0345" y="590.667969"/>
  <use xlink:href="#glyph0-7" x="460.144501" y="590.667969"/>
  <use xlink:href="#glyph0-4" x="465.704498" y="590.667969"/>
  <use xlink:href="#glyph0-7" x="471.814499" y="590.667969"/>
  <use xlink:href="#glyph0-7" x="477.374496" y="590.667969"/>
  <use xlink:href="#glyph0-11" x="482.934494" y="590.667969"/>
  <use xlink:href="#glyph0-19" x="489.044495" y="590.667969"/>
</g>
<g style="fill:rgb(0%,0%,0%);fill-opacity:1;">
  <use xlink:href="#glyph0-31" x="350.894531" y="573.636719"/>
  <use xlink:href="#glyph0-9" x="359.224518" y="573.636719"/>
  <use xlink:href="#glyph0-8" x="364.784515" y="573.636719"/>
  <use xlink:href="#glyph0-17" x="368.114517" y="573.636719"/>
  <use xlink:href="#glyph0-6" x="374.224518" y="573.636719"/>
  <use xlink:href="#glyph0-22" x="379.784515" y="573.636719"/>
  <use xlink:href="#glyph0-4" x="385.894516" y="573.636719"/>
  <use xlink:href="#glyph0-8" x="392.004517" y="573.636719"/>
  <use xlink:href="#glyph0-17" x="395.334518" y="573.636719"/>
  <use xlink:href="#glyph0-9" x="401.444519" y="573.636719"/>
  <use xlink:href="#glyph0-3" x="407.004517" y="573.636719"/>
  <use xlink:href="#glyph0-12" x="410.894516" y="573.636719"/>
  <use xlink:href="#glyph0-11" x="419.7845" y="573.636719"/>
  <use xlink:href="#glyph0-19" x="425.894501" y="573.636719"/>
</g>
<g style="fill:rgb(0%,0%,0%);fill-opacity:1;">
  <use xlink:href="#glyph0-33" x="414.828125" y="459.785156"/>
  <use xlink:href="#glyph0-6" x="422.048111" y="459.785156"/>
  <use xlink:href="#glyph0-22" x="427.608109" y="459.785156"/>
  <use xlink:href="#glyph0-4" x="433.718109" y="459.785156"/>
  <use xlink:href="#glyph0-6" x="439.82811" y="459.785156"/>
  <use xlink:href="#glyph0-3" x="445.388107" y="459.785156"/>
  <use xlink:href="#glyph0-7" x="449.278107" y="459.785156"/>
  <use xlink:href="#glyph0-17" x="454.838104" y="459.785156"/>
  <use xlink:href="#glyph0-6" x="460.948105" y="459.785156"/>
  <use xlink:href="#glyph0-9" x="466.508102" y="459.785156"/>
  <use xlink:href="#glyph0-11" x="472.0681" y="459.785156"/>
  <use xlink:href="#glyph0-12" x="478.178101" y="459.785156"/>
</g>
<g style="fill:rgb(0%,0%,0%);fill-opacity:1;">
  <use xlink:href="#glyph0-33" x="229.546875" y="329.132812"/>
  <use xlink:href="#glyph0-6" x="236.766861" y="329.132812"/>
  <use xlink:href="#glyph0-8" x="242.326859" y="329.132812"/>
  <use xlink:href="#glyph0-3" x="245.65686" y="329.132812"/>
  <use xlink:href="#glyph0-10" x="249.54686" y="329.132812"/>
  <use xlink:href="#glyph0-22" x="252.326859" y="329.132812"/>
  <use xlink:href="#glyph0-9" x="258.436859" y="329.132812"/>
  <use xlink:href="#glyph0-12" x="263.996857" y="329.132812"/>
  <use xlink:href="#glyph0-6" x="272.886841" y="329.132812"/>
</g>
<g style="fill:rgb(0%,0%,0%);fill-opacity:1;">
  <use xlink:href="#glyph0-33" x="296.410156" y="106.171875"/>
  <use xlink:href="#glyph0-4" x="303.630142" y="106.171875"/>
  <use xlink:href="#glyph0-19" x="309.740143" y="106.171875"/>
  <use xlink:href="#glyph0-9" x="315.30014" y="106.171875"/>
  <use xlink:href="#glyph0-12" x="320.860138" y="106.171875"/>
  <use xlink:href="#glyph0-6" x="329.750122" y="106.171875"/>
</g>
<g style="fill:rgb(0%,0%,0%);fill-opacity:1;">
  <use xlink:href="#glyph0-34" x="508.019531" y="200.953125"/>
  <use xlink:href="#glyph0-17" x="514.689529" y="200.953125"/>
  <use xlink:href="#glyph0-24" x="520.79953" y="200.953125"/>
  <use xlink:href="#glyph0-19" x="526.359528" y="200.953125"/>
  <use xlink:href="#glyph0-6" x="531.919525" y="200.953125"/>
  <use xlink:href="#glyph0-3" x="537.479523" y="200.953125"/>
  <use xlink:href="#glyph0-11" x="541.369522" y="200.953125"/>
  <use xlink:href="#glyph0-12" x="547.479523" y="200.953125"/>
</g>
<g style="fill:rgb(0%,0%,0%);fill-opacity:1;">
  <use xlink:href="#glyph0-34" x="282.226562" y="675.796875"/>
  <use xlink:href="#glyph0-24" x="288.896561" y="675.796875"/>
  <use xlink:href="#glyph0-3" x="294.456558" y="675.796875"/>
  <use xlink:href="#glyph0-4" x="298.346558" y="675.796875"/>
  <use xlink:href="#glyph0-5" x="304.456558" y="675.796875"/>
  <use xlink:href="#glyph0-6" x="310.566559" y="675.796875"/>
  <use xlink:href="#glyph0-7" x="316.126556" y="675.796875"/>
  <use xlink:href="#glyph0-11" x="321.686554" y="675.796875"/>
  <use xlink:href="#glyph0-18" x="327.796555" y="675.796875"/>
  <use xlink:href="#glyph0-11" x="330.576553" y="675.796875"/>
  <use xlink:href="#glyph0-12" x="336.686554" y="675.796875"/>
</g>
<g style="fill:rgb(0%,0%,0%);fill-opacity:1;">
  <use xlink:href="#glyph0-34" x="285.144531" y="550.683594"/>
  <use xlink:href="#glyph0-24" x="291.814529" y="550.683594"/>
  <use xlink:href="#glyph0-3" x="297.374527" y="550.683594"/>
  <use xlink:href="#glyph0-4" x="301.264526" y="550.683594"/>
  <use xlink:href="#glyph0-7" x="307.374527" y="550.683594"/>
  <use xlink:href="#glyph0-4" x="312.934525" y="550.683594"/>
  <use xlink:href="#glyph0-7" x="319.044525" y="550.683594"/>
  <use xlink:href="#glyph0-7" x="324.604523" y="550.683594"/>
  <use xlink:href="#glyph0-11" x="330.16452" y="550.683594"/>
  <use xlink:href="#glyph0-19" x="336.274521" y="550.683594"/>
</g>
<g style="fill:rgb(0%,0%,0%);fill-opacity:1;">
  <use xlink:href="#glyph0-35" x="539.265625" y="320.972656"/>
  <use xlink:href="#glyph0-6" x="545.935623" y="320.972656"/>
  <use xlink:href="#glyph0-7" x="551.495621" y="320.972656"/>
  <use xlink:href="#glyph0-7" x="557.055618" y="320.972656"/>
  <use xlink:href="#glyph0-17" x="562.615616" y="320.972656"/>
  <use xlink:href="#glyph0-6" x="568.725616" y="320.972656"/>
  <use xlink:href="#glyph0-3" x="574.285614" y="320.972656"/>
  <use xlink:href="#glyph0-4" x="578.175613" y="320.972656"/>
  <use xlink:href="#glyph0-12" x="584.285614" y="320.972656"/>
  <use xlink:href="#glyph0-24" x="593.175598" y="320.972656"/>
  <use xlink:href="#glyph0-7" x="598.735596" y="320.972656"/>
  <use xlink:href="#glyph0-9" x="604.295593" y="320.972656"/>
  <use xlink:href="#glyph0-19" x="609.855591" y="320.972656"/>
</g>
<g style="fill:rgb(0%,0%,0%);fill-opacity:1;">
  <use xlink:href="#glyph0-35" x="44.34375" y="515.417969"/>
  <use xlink:href="#glyph0-23" x="51.013748" y="515.417969"/>
  <use xlink:href="#glyph0-10" x="57.123749" y="515.417969"/>
  <use xlink:href="#glyph0-3" x="59.903748" y="515.417969"/>
  <use xlink:href="#glyph0-4" x="63.793747" y="515.417969"/>
  <use xlink:href="#glyph0-7" x="69.903748" y="515.417969"/>
  <use xlink:href="#glyph0-17" x="75.463745" y="515.417969"/>
  <use xlink:href="#glyph0-6" x="81.573746" y="515.417969"/>
  <use xlink:href="#glyph0-9" x="87.133743" y="515.417969"/>
  <use xlink:href="#glyph0-8" x="92.693741" y="515.417969"/>
  <use xlink:href="#glyph0-6" x="96.023743" y="515.417969"/>
</g>
<g style="fill:rgb(0%,0%,0%);fill-opacity:1;">
  <use xlink:href="#glyph0-35" x="130.070312" y="582.628906"/>
  <use xlink:href="#glyph0-8" x="136.740311" y="582.628906"/>
  <use xlink:href="#glyph0-3" x="140.070312" y="582.628906"/>
  <use xlink:href="#glyph0-9" x="143.960312" y="582.628906"/>
  <use xlink:href="#glyph0-23" x="149.520309" y="582.628906"/>
  <use xlink:href="#glyph0-8" x="155.63031" y="582.628906"/>
  <use xlink:href="#glyph0-4" x="158.960312" y="582.628906"/>
  <use xlink:href="#glyph0-12" x="165.070312" y="582.628906"/>
  <use xlink:href="#glyph0-24" x="173.960297" y="582.628906"/>
  <use xlink:href="#glyph0-7" x="179.520294" y="582.628906"/>
  <use xlink:href="#glyph0-9" x="185.080292" y="582.628906"/>
  <use xlink:href="#glyph0-19" x="190.640289" y="582.628906"/>
</g>
<g style="fill:rgb(0%,0%,0%);fill-opacity:1;">
  <use xlink:href="#glyph0-35" x="188.800781" y="699.828125"/>
  <use xlink:href="#glyph0-11" x="195.470779" y="699.828125"/>
  <use xlink:href="#glyph0-18" x="201.58078" y="699.828125"/>
  <use xlink:href="#glyph0-15" x="204.360779" y="699.828125"/>
  <use xlink:href="#glyph0-4" x="207.690781" y="699.828125"/>
  <use xlink:href="#glyph0-18" x="213.800781" y="699.828125"/>
  <use xlink:href="#glyph0-4" x="216.58078" y="699.828125"/>
  <use xlink:href="#glyph0-5" x="222.690781" y="699.828125"/>
  <use xlink:href="#glyph0-11" x="228.800781" y="699.828125"/>
  <use xlink:href="#glyph0-19" x="234.910782" y="699.828125"/>
</g>
<g style="fill:rgb(0%,0%,0%);fill-opacity:1;">
  <use xlink:href="#glyph0-36" x="290.511719" y="553.824219"/>
  <use xlink:href="#glyph0-17" x="296.621719" y="553.824219"/>
  <use xlink:href="#glyph0-9" x="302.73172" y="553.824219"/>
  <use xlink:href="#glyph0-3" x="308.291718" y="553.824219"/>
  <use xlink:href="#glyph0-12" x="312.181717" y="553.824219"/>
  <use xlink:href="#glyph0-4" x="321.071701" y="553.824219"/>
  <use xlink:href="#glyph0-7" x="327.181702" y="553.824219"/>
  <use xlink:href="#glyph0-4" x="332.741699" y="553.824219"/>
  <use xlink:href="#glyph0-7" x="338.8517" y="553.824219"/>
  <use xlink:href="#glyph0-7" x="344.411697" y="553.824219"/>
  <use xlink:href="#glyph0-11" x="349.971695" y="553.824219"/>
  <use xlink:href="#glyph0-19" x="356.081696" y="553.824219"/>
</g>
<g style="fill:rgb(0%,0%,0%);fill-opacity:1;">
  <use xlink:href="#glyph0-36" x="392.609375" y="506.375"/>
  <use xlink:href="#glyph0-17" x="398.719376" y="506.375"/>
  <use xlink:href="#glyph0-9" x="404.829376" y="506.375"/>
  <use xlink:href="#glyph0-3" x="410.389374" y="506.375"/>
  <use xlink:href="#glyph0-12" x="414.279373" y="506.375"/>
  <use xlink:href="#glyph0-4" x="423.169357" y="506.375"/>
  <use xlink:href="#glyph0-23" x="429.279358" y="506.375"/>
  <use xlink:href="#glyph0-18" x="435.389359" y="506.375"/>
  <use xlink:href="#glyph0-6" x="438.169357" y="506.375"/>
  <use xlink:href="#glyph0-19" x="443.729355" y="506.375"/>
  <use xlink:href="#glyph0-12" x="449.289352" y="506.375"/>
  <use xlink:href="#glyph0-6" x="458.179337" y="506.375"/>
</g>
<g style="fill:rgb(0%,0%,0%);fill-opacity:1;">
  <use xlink:href="#glyph0-36" x="166.90625" y="444.042969"/>
  <use xlink:href="#glyph0-17" x="173.016251" y="444.042969"/>
  <use xlink:href="#glyph0-9" x="179.126251" y="444.042969"/>
  <use xlink:href="#glyph0-3" x="184.686249" y="444.042969"/>
  <use xlink:href="#glyph0-12" x="188.576248" y="444.042969"/>
  <use xlink:href="#glyph0-4" x="197.466232" y="444.042969"/>
  <use xlink:href="#glyph0-8" x="203.576233" y="444.042969"/>
  <use xlink:href="#glyph0-4" x="206.906235" y="444.042969"/>
  <use xlink:href="#glyph0-2" x="213.016235" y="444.042969"/>
  <use xlink:href="#glyph0-6" x="219.126236" y="444.042969"/>
</g>
<g style="fill:rgb(0%,0%,0%);fill-opacity:1;">
  <use xlink:href="#glyph0-36" x="57.976562" y="575.65625"/>
  <use xlink:href="#glyph0-17" x="64.086563" y="575.65625"/>
  <use xlink:href="#glyph0-9" x="70.196564" y="575.65625"/>
  <use xlink:href="#glyph0-3" x="75.756561" y="575.65625"/>
  <use xlink:href="#glyph0-12" x="79.646561" y="575.65625"/>
  <use xlink:href="#glyph0-11" x="88.536545" y="575.65625"/>
  <use xlink:href="#glyph0-19" x="94.646545" y="575.65625"/>
</g>
<g style="fill:rgb(0%,0%,0%);fill-opacity:1;">
  <use xlink:href="#glyph0-37" x="491.921875" y="136.085938"/>
  <use xlink:href="#glyph0-9" x="498.591873" y="136.085938"/>
  <use xlink:href="#glyph0-22" x="504.151871" y="136.085938"/>
  <use xlink:href="#glyph0-4" x="510.261871" y="136.085938"/>
  <use xlink:href="#glyph0-23" x="516.371872" y="136.085938"/>
  <use xlink:href="#glyph0-11" x="522.481873" y="136.085938"/>
  <use xlink:href="#glyph0-19" x="528.591873" y="136.085938"/>
</g>
<g style="fill:rgb(0%,0%,0%);fill-opacity:1;">
  <use xlink:href="#glyph0-38" x="391.53125" y="80.417969"/>
  <use xlink:href="#glyph0-9" x="397.641251" y="80.417969"/>
  <use xlink:href="#glyph0-6" x="403.201248" y="80.417969"/>
</g>
</g>
</svg>
