<?xml version="1.0" encoding="UTF-8"?>
<svg xmlns="http://www.w3.org/2000/svg" xmlns:xlink="http://www.w3.org/1999/xlink" width="612pt" height="792pt" viewBox="0 0 612 792" version="1.1">
<defs>
<g>
<symbol overflow="visible" id="glyph0-0">
<path style="stroke:none;" d="M 0.5 1.765625 L 0.5 -7.046875 L 5.5 -7.046875 L 5.5 1.765625 L 0.5 1.765625 Z M 1.0625 1.21875 L 4.9375 1.21875 L 4.9375 -6.484375 L 1.0625 -6.484375 L 1.0625 1.21875 Z M 1.0625 1.21875 "/>
</symbol>
<symbol overflow="visible" id="glyph0-1">
<path style="stroke:none;" d="M 5.34375 -1.328125 L 2.40625 -1.328125 L 1.9375 0 L 0.046875 0 L 2.75 -7.296875 L 4.984375 -7.296875 L 7.6875 0 L 5.796875 0 L 5.34375 -1.328125 Z M 2.875 -2.6875 L 4.875 -2.6875 L 3.875 -5.578125 L 2.875 -2.6875 Z M 2.875 -2.6875 "/>
</symbol>
<symbol overflow="visible" id="glyph0-2">
<path style="stroke:none;" d="M 4.5625 -0.921875 C 4.320312 -0.609375 4.054688 -0.375 3.765625 -0.21875 C 3.472656 -0.0703125 3.140625 0 2.765625 0 C 2.097656 0 1.546875 -0.257812 1.109375 -0.78125 C 0.671875 -1.3125 0.453125 -1.984375 0.453125 -2.796875 C 0.453125 -3.617188 0.671875 -4.289062 1.109375 -4.8125 C 1.546875 -5.332031 2.097656 -5.59375 2.765625 -5.59375 C 3.140625 -5.59375 3.472656 -5.515625 3.765625 -5.359375 C 4.054688 -5.210938 4.320312 -4.976562 4.5625 -4.65625 L 4.5625 -5.46875 L 6.3125 -5.46875 L 6.3125 -0.546875 C 6.3125 0.328125 6.035156 0.992188 5.484375 1.453125 C 4.929688 1.921875 4.128906 2.15625 3.078125 2.15625 C 2.734375 2.15625 2.398438 2.128906 2.078125 2.078125 C 1.765625 2.023438 1.445312 1.945312 1.125 1.84375 L 1.125 0.484375 C 1.425781 0.660156 1.722656 0.789062 2.015625 0.875 C 2.304688 0.957031 2.601562 1 2.90625 1 C 3.476562 1 3.894531 0.875 4.15625 0.625 C 4.425781 0.375 4.5625 -0.015625 4.5625 -0.546875 L 4.5625 -0.921875 Z M 3.40625 -4.328125 C 3.039062 -4.328125 2.757812 -4.191406 2.5625 -3.921875 C 2.363281 -3.660156 2.265625 -3.285156 2.265625 -2.796875 C 2.265625 -2.296875 2.359375 -1.914062 2.546875 -1.65625 C 2.742188 -1.394531 3.03125 -1.265625 3.40625 -1.265625 C 3.769531 -1.265625 4.050781 -1.398438 4.25 -1.671875 C 4.457031 -1.941406 4.5625 -2.316406 4.5625 -2.796875 C 4.5625 -3.285156 4.457031 -3.660156 4.25 -3.921875 C 4.050781 -4.191406 3.769531 -4.328125 3.40625 -4.328125 Z M 3.40625 -4.328125 "/>
</symbol>
<symbol overflow="visible" id="glyph0-3">
<path style="stroke:none;" d="M 4.90625 -3.984375 C 4.75 -4.054688 4.59375 -4.109375 4.4375 -4.140625 C 4.289062 -4.171875 4.140625 -4.1875 3.984375 -4.1875 C 3.535156 -4.1875 3.191406 -4.039062 2.953125 -3.75 C 2.710938 -3.46875 2.59375 -3.054688 2.59375 -2.515625 L 2.59375 0 L 0.84375 0 L 0.84375 -5.46875 L 2.59375 -5.46875 L 2.59375 -4.578125 C 2.8125 -4.929688 3.066406 -5.1875 3.359375 -5.34375 C 3.648438 -5.507812 4 -5.59375 4.40625 -5.59375 C 4.46875 -5.59375 4.53125 -5.59375 4.59375 -5.59375 C 4.664062 -5.59375 4.765625 -5.582031 4.890625 -5.5625 L 4.90625 -3.984375 Z M 4.90625 -3.984375 "/>
</symbol>
<symbol overflow="visible" id="glyph0-4">
<path style="stroke:none;" d="M 3.4375 -4.34375 C 3.050781 -4.34375 2.753906 -4.203125 2.546875 -3.921875 C 2.347656 -3.648438 2.25 -3.253906 2.25 -2.734375 C 2.25 -2.203125 2.347656 -1.796875 2.546875 -1.515625 C 2.753906 -1.242188 3.050781 -1.109375 3.4375 -1.109375 C 3.820312 -1.109375 4.113281 -1.242188 4.3125 -1.515625 C 4.519531 -1.796875 4.625 -2.203125 4.625 -2.734375 C 4.625 -3.253906 4.519531 -3.648438 4.3125 -3.921875 C 4.113281 -4.203125 3.820312 -4.34375 3.4375 -4.34375 Z M 3.4375 -5.59375 C 4.382812 -5.59375 5.117188 -5.335938 5.640625 -4.828125 C 6.171875 -4.328125 6.4375 -3.628906 6.4375 -2.734375 C 6.4375 -1.828125 6.171875 -1.117188 5.640625 -0.609375 C 5.117188 -0.109375 4.382812 0.140625 3.4375 0.140625 C 2.5 0.140625 1.765625 -0.109375 1.234375 -0.609375 C 0.703125 -1.117188 0.4375 -1.828125 0.4375 -2.734375 C 0.4375 -3.628906 0.703125 -4.328125 1.234375 -4.828125 C 1.765625 -5.335938 2.5 -5.59375 3.4375 -5.59375 Z M 3.4375 -5.59375 "/>
</symbol>
<symbol overflow="visible" id="glyph0-5">
<path style="stroke:none;" d="M 3.75 -1.125 C 4.125 -1.125 4.410156 -1.257812 4.609375 -1.53125 C 4.804688 -1.8125 4.90625 -2.210938 4.90625 -2.734375 C 4.90625 -3.253906 4.804688 -3.648438 4.609375 -3.921875 C 4.410156 -4.191406 4.125 -4.328125 3.75 -4.328125 C 3.375 -4.328125 3.085938 -4.1875 2.890625 -3.90625 C 2.691406 -3.632812 2.59375 -3.242188 2.59375 -2.734375 C 2.59375 -2.210938 2.691406 -1.8125 2.890625 -1.53125 C 3.085938 -1.257812 3.375 -1.125 3.75 -1.125 Z M 2.59375 -4.671875 C 2.832031 -4.984375 3.097656 -5.210938 3.390625 -5.359375 C 3.679688 -5.515625 4.019531 -5.59375 4.40625 -5.59375 C 5.070312 -5.59375 5.617188 -5.328125 6.046875 -4.796875 C 6.484375 -4.265625 6.703125 -3.578125 6.703125 -2.734375 C 6.703125 -1.890625 6.484375 -1.195312 6.046875 -0.65625 C 5.617188 -0.125 5.070312 0.140625 4.40625 0.140625 C 4.019531 0.140625 3.679688 0.0664062 3.390625 -0.078125 C 3.097656 -0.234375 2.832031 -0.472656 2.59375 -0.796875 L 2.59375 0 L 0.84375 0 L 0.84375 -7.59375 L 2.59375 -7.59375 L 2.59375 -4.671875 Z M 2.59375 -4.671875 "/>
</symbol>
<symbol overflow="visible" id="glyph0-6">
<path style="stroke:none;" d="M 3.296875 -2.46875 C 2.929688 -2.46875 2.65625 -2.40625 2.46875 -2.28125 C 2.28125 -2.15625 2.1875 -1.972656 2.1875 -1.734375 C 2.1875 -1.503906 2.257812 -1.328125 2.40625 -1.203125 C 2.5625 -1.078125 2.769531 -1.015625 3.03125 -1.015625 C 3.363281 -1.015625 3.640625 -1.132812 3.859375 -1.375 C 4.085938 -1.613281 4.203125 -1.910156 4.203125 -2.265625 L 4.203125 -2.46875 L 3.296875 -2.46875 Z M 5.96875 -3.125 L 5.96875 0 L 4.203125 0 L 4.203125 -0.8125 C 3.960938 -0.476562 3.695312 -0.234375 3.40625 -0.078125 C 3.113281 0.0664062 2.757812 0.140625 2.34375 0.140625 C 1.769531 0.140625 1.304688 -0.0195312 0.953125 -0.34375 C 0.609375 -0.675781 0.4375 -1.109375 0.4375 -1.640625 C 0.4375 -2.285156 0.65625 -2.753906 1.09375 -3.046875 C 1.53125 -3.347656 2.222656 -3.5 3.171875 -3.5 L 4.203125 -3.5 L 4.203125 -3.640625 C 4.203125 -3.910156 4.09375 -4.109375 3.875 -4.234375 C 3.65625 -4.367188 3.316406 -4.4375 2.859375 -4.4375 C 2.484375 -4.4375 2.132812 -4.398438 1.8125 -4.328125 C 1.488281 -4.253906 1.1875 -4.140625 0.90625 -3.984375 L 0.90625 -5.328125 C 1.28125 -5.410156 1.65625 -5.472656 2.03125 -5.515625 C 2.414062 -5.566406 2.796875 -5.59375 3.171875 -5.59375 C 4.160156 -5.59375 4.875 -5.398438 5.3125 -5.015625 C 5.75 -4.628906 5.96875 -4 5.96875 -3.125 Z M 5.96875 -3.125 "/>
</symbol>
<symbol overflow="visible" id="glyph0-7">
<path style="stroke:none;" d="M 5.265625 -5.296875 L 5.265625 -3.875 C 5.023438 -4.03125 4.785156 -4.144531 4.546875 -4.21875 C 4.304688 -4.300781 4.054688 -4.34375 3.796875 -4.34375 C 3.304688 -4.34375 2.925781 -4.203125 2.65625 -3.921875 C 2.382812 -3.640625 2.25 -3.242188 2.25 -2.734375 C 2.25 -2.222656 2.382812 -1.820312 2.65625 -1.53125 C 2.925781 -1.25 3.304688 -1.109375 3.796875 -1.109375 C 4.066406 -1.109375 4.328125 -1.148438 4.578125 -1.234375 C 4.828125 -1.316406 5.054688 -1.4375 5.265625 -1.59375 L 5.265625 -0.15625 C 4.984375 -0.0625 4.703125 0.0078125 4.421875 0.0625 C 4.140625 0.113281 3.859375 0.140625 3.578125 0.140625 C 2.585938 0.140625 1.816406 -0.109375 1.265625 -0.609375 C 0.710938 -1.117188 0.4375 -1.828125 0.4375 -2.734375 C 0.4375 -3.628906 0.710938 -4.328125 1.265625 -4.828125 C 1.816406 -5.335938 2.585938 -5.59375 3.578125 -5.59375 C 3.867188 -5.59375 4.148438 -5.566406 4.421875 -5.515625 C 4.703125 -5.472656 4.984375 -5.398438 5.265625 -5.296875 Z M 5.265625 -5.296875 "/>
</symbol>
<symbol overflow="visible" id="glyph0-8">
<path style="stroke:none;" d="M 2.75 -7.015625 L 2.75 -5.46875 L 4.546875 -5.46875 L 4.546875 -4.21875 L 2.75 -4.21875 L 2.75 -1.90625 C 2.75 -1.644531 2.796875 -1.46875 2.890625 -1.375 C 2.992188 -1.289062 3.195312 -1.25 3.5 -1.25 L 4.40625 -1.25 L 4.40625 0 L 2.90625 0 C 2.207031 0 1.710938 -0.140625 1.421875 -0.421875 C 1.140625 -0.710938 1 -1.207031 1 -1.90625 L 1 -4.21875 L 0.125 -4.21875 L 0.125 -5.46875 L 1 -5.46875 L 1 -7.015625 L 2.75 -7.015625 Z M 2.75 -7.015625 "/>
</symbol>
<symbol overflow="visible" id="glyph0-9">
<path style="stroke:none;" d="M 6.296875 -2.75 L 6.296875 -2.25 L 2.21875 -2.25 C 2.257812 -1.84375 2.40625 -1.535156 2.65625 -1.328125 C 2.90625 -1.117188 3.257812 -1.015625 3.71875 -1.015625 C 4.082031 -1.015625 4.457031 -1.066406 4.84375 -1.171875 C 5.238281 -1.285156 5.640625 -1.457031 6.046875 -1.6875 L 6.046875 -0.328125 C 5.628906 -0.171875 5.210938 -0.0546875 4.796875 0.015625 C 4.390625 0.0976562 3.976562 0.140625 3.5625 0.140625 C 2.570312 0.140625 1.800781 -0.109375 1.25 -0.609375 C 0.707031 -1.117188 0.4375 -1.828125 0.4375 -2.734375 C 0.4375 -3.617188 0.703125 -4.316406 1.234375 -4.828125 C 1.773438 -5.335938 2.519531 -5.59375 3.46875 -5.59375 C 4.320312 -5.59375 5.003906 -5.332031 5.515625 -4.8125 C 6.035156 -4.300781 6.296875 -3.613281 6.296875 -2.75 Z M 4.5 -3.328125 C 4.5 -3.660156 4.398438 -3.925781 4.203125 -4.125 C 4.015625 -4.332031 3.765625 -4.4375 3.453125 -4.4375 C 3.109375 -4.4375 2.832031 -4.34375 2.625 -4.15625 C 2.414062 -3.96875 2.285156 -3.691406 2.234375 -3.328125 L 4.5 -3.328125 Z M 4.5 -3.328125 "/>
</symbol>
<symbol overflow="visible" id="glyph0-10">
<path style="stroke:none;" d="M 0.84375 -5.46875 L 2.59375 -5.46875 L 2.59375 0 L 0.84375 0 L 0.84375 -5.46875 Z M 0.84375 -7.59375 L 2.59375 -7.59375 L 2.59375 -6.171875 L 0.84375 -6.171875 L 0.84375 -7.59375 Z M 0.84375 -7.59375 "/>
</symbol>
<symbol overflow="visible" id="glyph0-11">
<path style="stroke:none;" d="M 0.78125 -2.125 L 0.78125 -5.46875 L 2.546875 -5.46875 L 2.546875 -4.921875 C 2.546875 -4.628906 2.539062 -4.257812 2.53125 -3.8125 C 2.53125 -3.363281 2.53125 -3.0625 2.53125 -2.90625 C 2.53125 -2.46875 2.539062 -2.148438 2.5625 -1.953125 C 2.582031 -1.765625 2.625 -1.625 2.6875 -1.53125 C 2.75 -1.425781 2.835938 -1.34375 2.953125 -1.28125 C 3.078125 -1.21875 3.210938 -1.1875 3.359375 -1.1875 C 3.722656 -1.1875 4.007812 -1.320312 4.21875 -1.59375 C 4.425781 -1.875 4.53125 -2.265625 4.53125 -2.765625 L 4.53125 -5.46875 L 6.28125 -5.46875 L 6.28125 0 L 4.53125 0 L 4.53125 -0.796875 C 4.269531 -0.472656 3.988281 -0.234375 3.6875 -0.078125 C 3.394531 0.0664062 3.070312 0.140625 2.71875 0.140625 C 2.082031 0.140625 1.597656 -0.0507812 1.265625 -0.4375 C 0.941406 -0.820312 0.78125 -1.382812 0.78125 -2.125 Z M 0.78125 -2.125 "/>
</symbol>
<symbol overflow="visible" id="glyph0-12">
<path style="stroke:none;" d="M 5.90625 -4.5625 C 6.125 -4.894531 6.382812 -5.148438 6.6875 -5.328125 C 7 -5.503906 7.335938 -5.59375 7.703125 -5.59375 C 8.328125 -5.59375 8.800781 -5.398438 9.125 -5.015625 C 9.457031 -4.628906 9.625 -4.066406 9.625 -3.328125 L 9.625 0 L 7.875 0 L 7.875 -2.859375 C 7.875 -2.898438 7.875 -2.941406 7.875 -2.984375 C 7.875 -3.023438 7.875 -3.085938 7.875 -3.171875 C 7.875 -3.566406 7.816406 -3.847656 7.703125 -4.015625 C 7.597656 -4.191406 7.414062 -4.28125 7.15625 -4.28125 C 6.820312 -4.28125 6.566406 -4.144531 6.390625 -3.875 C 6.210938 -3.601562 6.117188 -3.207031 6.109375 -2.6875 L 6.109375 0 L 4.34375 0 L 4.34375 -2.859375 C 4.34375 -3.460938 4.289062 -3.847656 4.1875 -4.015625 C 4.082031 -4.191406 3.898438 -4.28125 3.640625 -4.28125 C 3.304688 -4.28125 3.046875 -4.140625 2.859375 -3.859375 C 2.679688 -3.585938 2.59375 -3.195312 2.59375 -2.6875 L 2.59375 0 L 0.828125 0 L 0.828125 -5.46875 L 2.59375 -5.46875 L 2.59375 -4.671875 C 2.800781 -4.972656 3.046875 -5.203125 3.328125 -5.359375 C 3.609375 -5.515625 3.914062 -5.59375 4.25 -5.59375 C 4.625 -5.59375 4.957031 -5.5 5.25 -5.3125 C 5.539062 -5.132812 5.757812 -4.882812 5.90625 -4.5625 Z M 5.90625 -4.5625 "/>
</symbol>
<symbol overflow="visible" id="glyph0-13">
<path style="stroke:none;" d="M 3.84375 -4.46875 C 4.132812 -4.46875 4.351562 -4.53125 4.5 -4.65625 C 4.65625 -4.789062 4.734375 -4.984375 4.734375 -5.234375 C 4.734375 -5.484375 4.65625 -5.675781 4.5 -5.8125 C 4.351562 -5.945312 4.132812 -6.015625 3.84375 -6.015625 L 2.796875 -6.015625 L 2.796875 -4.46875 L 3.84375 -4.46875 Z M 3.90625 -1.28125 C 4.28125 -1.28125 4.5625 -1.359375 4.75 -1.515625 C 4.945312 -1.679688 5.046875 -1.921875 5.046875 -2.234375 C 5.046875 -2.554688 4.945312 -2.796875 4.75 -2.953125 C 4.5625 -3.109375 4.28125 -3.1875 3.90625 -3.1875 L 2.796875 -3.1875 L 2.796875 -1.28125 L 3.90625 -1.28125 Z M 5.65625 -3.90625 C 6.050781 -3.78125 6.359375 -3.5625 6.578125 -3.25 C 6.804688 -2.9375 6.921875 -2.550781 6.921875 -2.09375 C 6.921875 -1.382812 6.679688 -0.859375 6.203125 -0.515625 C 5.734375 -0.171875 5.007812 0 4.03125 0 L 0.921875 0 L 0.921875 -7.296875 L 3.734375 -7.296875 C 4.753906 -7.296875 5.488281 -7.140625 5.9375 -6.828125 C 6.394531 -6.523438 6.625 -6.035156 6.625 -5.359375 C 6.625 -5.003906 6.539062 -4.703125 6.375 -4.453125 C 6.207031 -4.203125 5.96875 -4.019531 5.65625 -3.90625 Z M 5.65625 -3.90625 "/>
</symbol>
<symbol overflow="visible" id="glyph0-14">
<path style="stroke:none;" d="M 0.84375 -7.59375 L 2.59375 -7.59375 L 2.59375 0 L 0.84375 0 L 0.84375 -7.59375 Z M 0.84375 -7.59375 "/>
</symbol>
<symbol overflow="visible" id="glyph0-15">
<path style="stroke:none;" d="M 5.109375 -5.296875 L 5.109375 -3.96875 C 4.734375 -4.125 4.367188 -4.238281 4.015625 -4.3125 C 3.671875 -4.394531 3.347656 -4.4375 3.046875 -4.4375 C 2.710938 -4.4375 2.460938 -4.394531 2.296875 -4.3125 C 2.140625 -4.226562 2.0625 -4.101562 2.0625 -3.9375 C 2.0625 -3.789062 2.117188 -3.679688 2.234375 -3.609375 C 2.359375 -3.535156 2.582031 -3.476562 2.90625 -3.4375 L 3.203125 -3.40625 C 4.097656 -3.289062 4.703125 -3.101562 5.015625 -2.84375 C 5.328125 -2.582031 5.484375 -2.171875 5.484375 -1.609375 C 5.484375 -1.023438 5.265625 -0.585938 4.828125 -0.296875 C 4.398438 -0.00390625 3.757812 0.140625 2.90625 0.140625 C 2.550781 0.140625 2.179688 0.109375 1.796875 0.046875 C 1.410156 -0.00390625 1.007812 -0.0859375 0.59375 -0.203125 L 0.59375 -1.53125 C 0.945312 -1.363281 1.304688 -1.234375 1.671875 -1.140625 C 2.035156 -1.054688 2.40625 -1.015625 2.78125 -1.015625 C 3.125 -1.015625 3.378906 -1.0625 3.546875 -1.15625 C 3.722656 -1.25 3.8125 -1.390625 3.8125 -1.578125 C 3.8125 -1.734375 3.753906 -1.847656 3.640625 -1.921875 C 3.523438 -2.003906 3.289062 -2.066406 2.9375 -2.109375 L 2.625 -2.15625 C 1.84375 -2.25 1.296875 -2.425781 0.984375 -2.6875 C 0.671875 -2.957031 0.515625 -3.359375 0.515625 -3.890625 C 0.515625 -4.472656 0.710938 -4.898438 1.109375 -5.171875 C 1.503906 -5.453125 2.113281 -5.59375 2.9375 -5.59375 C 3.257812 -5.59375 3.597656 -5.566406 3.953125 -5.515625 C 4.304688 -5.472656 4.691406 -5.398438 5.109375 -5.296875 Z M 5.109375 -5.296875 "/>
</symbol>
<symbol overflow="visible" id="glyph0-16">
<path style="stroke:none;" d="M 6.703125 -0.40625 C 6.359375 -0.21875 6 -0.0820312 5.625 0 C 5.25 0.09375 4.859375 0.140625 4.453125 0.140625 C 3.234375 0.140625 2.269531 -0.195312 1.5625 -0.875 C 0.851562 -1.550781 0.5 -2.472656 0.5 -3.640625 C 0.5 -4.804688 0.851562 -5.726562 1.5625 -6.40625 C 2.269531 -7.082031 3.234375 -7.421875 4.453125 -7.421875 C 4.859375 -7.421875 5.25 -7.375 5.625 -7.28125 C 6 -7.195312 6.359375 -7.0625 6.703125 -6.875 L 6.703125 -5.375 C 6.347656 -5.613281 6 -5.785156 5.65625 -5.890625 C 5.320312 -6.003906 4.96875 -6.0625 4.59375 -6.0625 C 3.925781 -6.0625 3.398438 -5.84375 3.015625 -5.40625 C 2.628906 -4.976562 2.4375 -4.390625 2.4375 -3.640625 C 2.4375 -2.890625 2.628906 -2.296875 3.015625 -1.859375 C 3.398438 -1.429688 3.925781 -1.21875 4.59375 -1.21875 C 4.96875 -1.21875 5.320312 -1.269531 5.65625 -1.375 C 6 -1.488281 6.347656 -1.664062 6.703125 -1.90625 L 6.703125 -0.40625 Z M 6.703125 -0.40625 "/>
</symbol>
<symbol overflow="visible" id="glyph0-17">
<path style="stroke:none;" d="M 6.34375 -3.328125 L 6.34375 0 L 4.578125 0 L 4.578125 -0.546875 L 4.578125 -2.546875 C 4.578125 -3.015625 4.566406 -3.335938 4.546875 -3.515625 C 4.523438 -3.703125 4.488281 -3.835938 4.4375 -3.921875 C 4.375 -4.035156 4.28125 -4.125 4.15625 -4.1875 C 4.039062 -4.25 3.910156 -4.28125 3.765625 -4.28125 C 3.398438 -4.28125 3.113281 -4.140625 2.90625 -3.859375 C 2.695312 -3.578125 2.59375 -3.1875 2.59375 -2.6875 L 2.59375 0 L 0.84375 0 L 0.84375 -5.46875 L 2.59375 -5.46875 L 2.59375 -4.671875 C 2.851562 -4.984375 3.128906 -5.210938 3.421875 -5.359375 C 3.722656 -5.515625 4.050781 -5.59375 4.40625 -5.59375 C 5.039062 -5.59375 5.519531 -5.398438 5.84375 -5.015625 C 6.175781 -4.628906 6.34375 -4.066406 6.34375 -3.328125 Z M 6.34375 -3.328125 "/>
</symbol>
<symbol overflow="visible" id="glyph0-18">
<path style="stroke:none;" d="M 6.34375 -3.328125 L 6.34375 0 L 4.578125 0 L 4.578125 -0.546875 L 4.578125 -2.546875 C 4.578125 -3.015625 4.566406 -3.335938 4.546875 -3.515625 C 4.523438 -3.703125 4.488281 -3.835938 4.4375 -3.921875 C 4.375 -4.035156 4.28125 -4.125 4.15625 -4.1875 C 4.039062 -4.25 3.910156 -4.28125 3.765625 -4.28125 C 3.398438 -4.28125 3.113281 -4.140625 2.90625 -3.859375 C 2.695312 -3.578125 2.59375 -3.1875 2.59375 -2.6875 L 2.59375 0 L 0.84375 0 L 0.84375 -7.59375 L 2.59375 -7.59375 L 2.59375 -4.671875 C 2.851562 -4.984375 3.128906 -5.210938 3.421875 -5.359375 C 3.722656 -5.515625 4.050781 -5.59375 4.40625 -5.59375 C 5.039062 -5.59375 5.519531 -5.398438 5.84375 -5.015625 C 6.175781 -4.628906 6.34375 -4.066406 6.34375 -3.328125 Z M 6.34375 -3.328125 "/>
</symbol>
<symbol overflow="visible" id="glyph0-19">
<path style="stroke:none;" d="M 4.5625 -4.671875 L 4.5625 -7.59375 L 6.3125 -7.59375 L 6.3125 0 L 4.5625 0 L 4.5625 -0.796875 C 4.320312 -0.472656 4.054688 -0.234375 3.765625 -0.078125 C 3.472656 0.0664062 3.140625 0.140625 2.765625 0.140625 C 2.085938 0.140625 1.53125 -0.125 1.09375 -0.65625 C 0.664062 -1.195312 0.453125 -1.890625 0.453125 -2.734375 C 0.453125 -3.578125 0.664062 -4.265625 1.09375 -4.796875 C 1.53125 -5.328125 2.085938 -5.59375 2.765625 -5.59375 C 3.140625 -5.59375 3.472656 -5.515625 3.765625 -5.359375 C 4.054688 -5.210938 4.320312 -4.984375 4.5625 -4.671875 Z M 3.40625 -1.125 C 3.78125 -1.125 4.066406 -1.257812 4.265625 -1.53125 C 4.460938 -1.8125 4.5625 -2.210938 4.5625 -2.734375 C 4.5625 -3.253906 4.460938 -3.648438 4.265625 -3.921875 C 4.066406 -4.191406 3.78125 -4.328125 3.40625 -4.328125 C 3.039062 -4.328125 2.757812 -4.191406 2.5625 -3.921875 C 2.363281 -3.648438 2.265625 -3.253906 2.265625 -2.734375 C 2.265625 -2.210938 2.363281 -1.8125 2.5625 -1.53125 C 2.757812 -1.257812 3.039062 -1.125 3.40625 -1.125 Z M 3.40625 -1.125 "/>
</symbol>
<symbol overflow="visible" id="glyph0-20">
<path style="stroke:none;" d="M 2.59375 -0.796875 L 2.59375 2.078125 L 0.84375 2.078125 L 0.84375 -5.46875 L 2.59375 -5.46875 L 2.59375 -4.671875 C 2.832031 -4.984375 3.097656 -5.210938 3.390625 -5.359375 C 3.679688 -5.515625 4.019531 -5.59375 4.40625 -5.59375 C 5.070312 -5.59375 5.617188 -5.328125 6.046875 -4.796875 C 6.484375 -4.265625 6.703125 -3.578125 6.703125 -2.734375 C 6.703125 -1.890625 6.484375 -1.195312 6.046875 -0.65625 C 5.617188 -0.125 5.070312 0.140625 4.40625 0.140625 C 4.019531 0.140625 3.679688 0.0664062 3.390625 -0.078125 C 3.097656 -0.234375 2.832031 -0.472656 2.59375 -0.796875 Z M 3.75 -4.328125 C 3.375 -4.328125 3.085938 -4.1875 2.890625 -3.90625 C 2.691406 -3.632812 2.59375 -3.242188 2.59375 -2.734375 C 2.59375 -2.210938 2.691406 -1.8125 2.890625 -1.53125 C 3.085938 -1.257812 3.375 -1.125 3.75 -1.125 C 4.125 -1.125 4.410156 -1.257812 4.609375 -1.53125 C 4.804688 -1.8125 4.90625 -2.210938 4.90625 -2.734375 C 4.90625 -3.253906 4.804688 -3.648438 4.609375 -3.921875 C 4.410156 -4.191406 4.125 -4.328125 3.75 -4.328125 Z M 3.75 -4.328125 "/>
</symbol>
<symbol overflow="visible" id="glyph0-21">
<path style="stroke:none;" d="M 0.125 -5.46875 L 1.875 -5.46875 L 3.34375 -1.765625 L 4.59375 -5.46875 L 6.34375 -5.46875 L 4.03125 0.515625 C 3.800781 1.128906 3.53125 1.554688 3.21875 1.796875 C 2.914062 2.035156 2.515625 2.15625 2.015625 2.15625 L 1 2.15625 L 1 1.015625 L 1.546875 1.015625 C 1.847656 1.015625 2.0625 0.96875 2.1875 0.875 C 2.320312 0.78125 2.429688 0.609375 2.515625 0.359375 L 2.5625 0.203125 L 0.125 -5.46875 Z M 0.125 -5.46875 "/>
</symbol>
<symbol overflow="visible" id="glyph0-22">
<path style="stroke:none;" d="M 2.796875 -5.875 L 2.796875 -1.421875 L 3.46875 -1.421875 C 4.238281 -1.421875 4.828125 -1.609375 5.234375 -1.984375 C 5.640625 -2.367188 5.84375 -2.925781 5.84375 -3.65625 C 5.84375 -4.375 5.640625 -4.921875 5.234375 -5.296875 C 4.828125 -5.679688 4.238281 -5.875 3.46875 -5.875 L 2.796875 -5.875 Z M 0.921875 -7.296875 L 2.90625 -7.296875 C 4.007812 -7.296875 4.832031 -7.210938 5.375 -7.046875 C 5.914062 -6.890625 6.378906 -6.625 6.765625 -6.25 C 7.109375 -5.914062 7.363281 -5.535156 7.53125 -5.109375 C 7.695312 -4.679688 7.78125 -4.195312 7.78125 -3.65625 C 7.78125 -3.101562 7.695312 -2.609375 7.53125 -2.171875 C 7.363281 -1.742188 7.109375 -1.367188 6.765625 -1.046875 C 6.378906 -0.660156 5.910156 -0.390625 5.359375 -0.234375 C 4.816406 -0.078125 4 0 2.90625 0 L 0.921875 0 L 0.921875 -7.296875 Z M 0.921875 -7.296875 "/>
</symbol>
<symbol overflow="visible" id="glyph0-23">
<path style="stroke:none;" d="M 0.921875 -7.296875 L 5.984375 -7.296875 L 5.984375 -5.875 L 2.796875 -5.875 L 2.796875 -4.515625 L 5.796875 -4.515625 L 5.796875 -3.09375 L 2.796875 -3.09375 L 2.796875 -1.421875 L 6.09375 -1.421875 L 6.09375 0 L 0.921875 0 L 0.921875 -7.296875 Z M 0.921875 -7.296875 "/>
</symbol>
<symbol overflow="visible" id="glyph0-24">
<path style="stroke:none;" d="M 0.921875 -7.296875 L 5.984375 -7.296875 L 5.984375 -5.875 L 2.796875 -5.875 L 2.796875 -4.515625 L 5.796875 -4.515625 L 5.796875 -3.09375 L 2.796875 -3.09375 L 2.796875 0 L 0.921875 0 L 0.921875 -7.296875 Z M 0.921875 -7.296875 "/>
</symbol>
<symbol overflow="visible" id="glyph0-25">
<path style="stroke:none;" d="M 0.15625 -5.46875 L 1.90625 -5.46875 L 3.265625 -1.6875 L 4.625 -5.46875 L 6.375 -5.46875 L 4.21875 0 L 2.296875 0 L 0.15625 -5.46875 Z M 0.15625 -5.46875 "/>
</symbol>
<symbol overflow="visible" id="glyph0-26">
<path style="stroke:none;" d="M 0.921875 -7.296875 L 2.796875 -7.296875 L 2.796875 -4.515625 L 5.578125 -4.515625 L 5.578125 -7.296875 L 7.453125 -7.296875 L 7.453125 0 L 5.578125 0 L 5.578125 -3.09375 L 2.796875 -3.09375 L 2.796875 0 L 0.921875 0 L 0.921875 -7.296875 Z M 0.921875 -7.296875 "/>
</symbol>
<symbol overflow="visible" id="glyph0-27">
<path style="stroke:none;" d="M 0.921875 -7.296875 L 3.3125 -7.296875 L 4.96875 -3.390625 L 6.640625 -7.296875 L 9.03125 -7.296875 L 9.03125 0 L 7.25 0 L 7.25 -5.328125 L 5.578125 -1.40625 L 4.375 -1.40625 L 2.703125 -5.328125 L 2.703125 0 L 0.921875 0 L 0.921875 -7.296875 Z M 0.921875 -7.296875 "/>
</symbol>
<symbol overflow="visible" id="glyph0-28">
<path style="stroke:none;" d="M 0.921875 -7.296875 L 3.015625 -7.296875 L 5.671875 -2.296875 L 5.671875 -7.296875 L 7.453125 -7.296875 L 7.453125 0 L 5.359375 0 L 2.703125 -5 L 2.703125 0 L 0.921875 0 L 0.921875 -7.296875 Z M 0.921875 -7.296875 "/>
</symbol>
<symbol overflow="visible" id="glyph0-29">
<path style="stroke:none;" d="M 0.921875 -7.296875 L 4.03125 -7.296875 C 4.96875 -7.296875 5.679688 -7.085938 6.171875 -6.671875 C 6.671875 -6.265625 6.921875 -5.675781 6.921875 -4.90625 C 6.921875 -4.144531 6.671875 -3.554688 6.171875 -3.140625 C 5.679688 -2.734375 4.96875 -2.53125 4.03125 -2.53125 L 2.796875 -2.53125 L 2.796875 0 L 0.921875 0 L 0.921875 -7.296875 Z M 2.796875 -5.921875 L 2.796875 -3.890625 L 3.84375 -3.890625 C 4.207031 -3.890625 4.488281 -3.976562 4.6875 -4.15625 C 4.882812 -4.332031 4.984375 -4.582031 4.984375 -4.90625 C 4.984375 -5.238281 4.882812 -5.488281 4.6875 -5.65625 C 4.488281 -5.832031 4.207031 -5.921875 3.84375 -5.921875 L 2.796875 -5.921875 Z M 2.796875 -5.921875 "/>
</symbol>
<symbol overflow="visible" id="glyph0-30">
<path style="stroke:none;" d="M 5.984375 -7.0625 L 5.984375 -5.515625 C 5.585938 -5.691406 5.195312 -5.828125 4.8125 -5.921875 C 4.4375 -6.015625 4.078125 -6.0625 3.734375 -6.0625 C 3.285156 -6.0625 2.953125 -6 2.734375 -5.875 C 2.523438 -5.75 2.421875 -5.554688 2.421875 -5.296875 C 2.421875 -5.097656 2.492188 -4.941406 2.640625 -4.828125 C 2.785156 -4.722656 3.046875 -4.632812 3.421875 -4.5625 L 4.234375 -4.40625 C 5.035156 -4.238281 5.609375 -3.988281 5.953125 -3.65625 C 6.296875 -3.320312 6.46875 -2.847656 6.46875 -2.234375 C 6.46875 -1.429688 6.226562 -0.832031 5.75 -0.4375 C 5.28125 -0.0507812 4.550781 0.140625 3.5625 0.140625 C 3.101562 0.140625 2.640625 0.09375 2.171875 0 C 1.710938 -0.0820312 1.25 -0.207031 0.78125 -0.375 L 0.78125 -1.96875 C 1.25 -1.71875 1.695312 -1.53125 2.125 -1.40625 C 2.5625 -1.28125 2.984375 -1.21875 3.390625 -1.21875 C 3.796875 -1.21875 4.109375 -1.285156 4.328125 -1.421875 C 4.546875 -1.554688 4.65625 -1.753906 4.65625 -2.015625 C 4.65625 -2.242188 4.582031 -2.414062 4.4375 -2.53125 C 4.289062 -2.65625 3.992188 -2.769531 3.546875 -2.875 L 2.828125 -3.03125 C 2.097656 -3.1875 1.5625 -3.4375 1.21875 -3.78125 C 0.882812 -4.125 0.71875 -4.582031 0.71875 -5.15625 C 0.71875 -5.882812 0.953125 -6.441406 1.421875 -6.828125 C 1.890625 -7.222656 2.5625 -7.421875 3.4375 -7.421875 C 3.84375 -7.421875 4.253906 -7.390625 4.671875 -7.328125 C 5.097656 -7.265625 5.535156 -7.175781 5.984375 -7.0625 Z M 5.984375 -7.0625 "/>
</symbol>
<symbol overflow="visible" id="glyph0-31">
<path style="stroke:none;" d="M 4.4375 -7.59375 L 4.4375 -6.453125 L 3.46875 -6.453125 C 3.21875 -6.453125 3.046875 -6.40625 2.953125 -6.3125 C 2.859375 -6.226562 2.8125 -6.070312 2.8125 -5.84375 L 2.8125 -5.46875 L 4.296875 -5.46875 L 4.296875 -4.21875 L 2.8125 -4.21875 L 2.8125 0 L 1.0625 0 L 1.0625 -4.21875 L 0.1875 -4.21875 L 0.1875 -5.46875 L 1.0625 -5.46875 L 1.0625 -5.84375 C 1.0625 -6.445312 1.226562 -6.890625 1.5625 -7.171875 C 1.894531 -7.453125 2.40625 -7.59375 3.09375 -7.59375 L 4.4375 -7.59375 Z M 4.4375 -7.59375 "/>
</symbol>
<symbol overflow="visible" id="glyph0-32">
<path style="stroke:none;" d="M 0.046875 -7.296875 L 6.765625 -7.296875 L 6.765625 -5.875 L 4.34375 -5.875 L 4.34375 0 L 2.46875 0 L 2.46875 -5.875 L 0.046875 -5.875 L 0.046875 -7.296875 Z M 0.046875 -7.296875 "/>
</symbol>
<symbol overflow="visible" id="glyph0-33">
<path style="stroke:none;" d="M 0.5625 -7.296875 L 6.6875 -7.296875 L 6.6875 -6.15625 L 2.78125 -1.421875 L 6.796875 -1.421875 L 6.796875 0 L 0.453125 0 L 0.453125 -1.140625 L 4.359375 -5.875 L 0.5625 -5.875 L 0.5625 -7.296875 Z M 0.5625 -7.296875 "/>
</symbol>
</g>
</defs>
<g id="surface0">
<path style="fill:none;stroke-width:0.000788776;stroke-linecap:butt;stroke-linejoin:miter;stroke:rgb(0%,0%,0%);stroke-opacity:1;stroke-miterlimit:10;" d="M -0.0206746 0.100299 L -0.0406328 0.0781718 " transform="matrix(2535.574604,0,0,2535.574604,380.808777,336.363662)"/>
<path style="fill:none;stroke-width:0.000788776;stroke-linecap:butt;stroke-linejoin:miter;stroke:rgb(0%,0%,0%);stroke-opacity:1;stroke-miterlimit:10;" d="M -0.00762285 0.0869131 L -0.0288659 0.065023 " transform="matrix(2535.574604,0,0,2535.574604,380.808777,336.363662)"/>
<path style="fill:none;stroke-width:0.000788776;stroke-linecap:butt;stroke-linejoin:miter;stroke:rgb(0%,0%,0%);stroke-opacity:1;stroke-miterlimit:10;" d="M 0.0104112 -0.0775251 L 0.00844692 -0.0681507 " transform="matrix(2535.574604,0,0,2535.574604,380.808777,336.363662)"/>
<path style="fill:none;stroke-width:0.000788776;stroke-linecap:butt;stroke-linejoin:miter;stroke:rgb(0%,0%,0%);stroke-opacity:1;stroke-miterlimit:10;" d="M -0.12605 0.0959347 L -0.0365487 0.0677699 " transform="matrix(2535.574604,0,0,2535.574604,380.808777,336.363662)"/>
<path style="fill:none;stroke-width:0.000788776;stroke-linecap:butt;stroke-linejoin:miter;stroke:rgb(0%,0%,0%);stroke-opacity:1;stroke-miterlimit:10;" d="M 0.0670428 -0.0896787 L 0.00671685 -0.0524846 " transform="matrix(2535.574604,0,0,2535.574604,380.808777,336.363662)"/>
<path style="fill:none;stroke-width:0.000788776;stroke-linecap:butt;stroke-linejoin:miter;stroke:rgb(0%,0%,0%);stroke-opacity:1;stroke-miterlimit:10;" d="M 0.0464915 -0.0323692 L 0.021243 -0.021254 " transform="matrix(2535.574604,0,0,2535.574604,380.808777,336.363662)"/>
<path style="fill:none;stroke-width:0.000788776;stroke-linecap:butt;stroke-linejoin:miter;stroke:rgb(0%,0%,0%);stroke-opacity:1;stroke-miterlimit:10;" d="M -0.0213124 -0.100865 L 0.00844692 -0.0681507 " transform="matrix(2535.574604,0,0,2535.574604,380.808777,336.363662)"/>
<path style="fill:none;stroke-width:0.000788776;stroke-linecap:butt;stroke-linejoin:miter;stroke:rgb(0%,0%,0%);stroke-opacity:1;stroke-miterlimit:10;" d="M -0.0172284 -0.0587547 L -0.00303809 -0.0441978 " transform="matrix(2535.574604,0,0,2535.574604,380.808777,336.363662)"/>
<path style="fill:none;stroke-width:0.000788776;stroke-linecap:butt;stroke-linejoin:miter;stroke:rgb(0%,0%,0%);stroke-opacity:1;stroke-miterlimit:10;" d="M -0.0342132 0.119033 L -0.0437016 0.0850505 " transform="matrix(2535.574604,0,0,2535.574604,380.808777,336.363662)"/>
<path style="fill:none;stroke-width:0.000788776;stroke-linecap:butt;stroke-linejoin:miter;stroke:rgb(0%,0%,0%);stroke-opacity:1;stroke-miterlimit:10;" d="M 0.0259325 -0.0458447 L 0.00547668 -0.0365026 " transform="matrix(2535.574604,0,0,2535.574604,380.808777,336.363662)"/>
<path style="fill:none;stroke-width:0.000788776;stroke-linecap:butt;stroke-linejoin:miter;stroke:rgb(0%,0%,0%);stroke-opacity:1;stroke-miterlimit:10;" d="M 0.00692174 0.0743512 L -0.0288659 0.065023 " transform="matrix(2535.574604,0,0,2535.574604,380.808777,336.363662)"/>
<path style="fill:none;stroke-width:0.000788776;stroke-linecap:butt;stroke-linejoin:miter;stroke:rgb(0%,0%,0%);stroke-opacity:1;stroke-miterlimit:10;" d="M -0.0449095 -0.0233491 L -0.0341347 0.00353394 " transform="matrix(2535.574604,0,0,2535.574604,380.808777,336.363662)"/>
<path style="fill:none;stroke-width:0.000788776;stroke-linecap:butt;stroke-linejoin:miter;stroke:rgb(0%,0%,0%);stroke-opacity:1;stroke-miterlimit:10;" d="M -0.0127915 -0.0480369 L -0.00303809 -0.0441978 " transform="matrix(2535.574604,0,0,2535.574604,380.808777,336.363662)"/>
<path style="fill:none;stroke-width:0.000788776;stroke-linecap:butt;stroke-linejoin:miter;stroke:rgb(0%,0%,0%);stroke-opacity:1;stroke-miterlimit:10;" d="M -0.0878962 -0.0395083 L -0.0782429 0.00196409 " transform="matrix(2535.574604,0,0,2535.574604,380.808777,336.363662)"/>
<path style="fill:none;stroke-width:0.000788776;stroke-linecap:butt;stroke-linejoin:miter;stroke:rgb(0%,0%,0%);stroke-opacity:1;stroke-miterlimit:10;" d="M 0.0159634 0.0380906 L -0.0368692 0.0310687 " transform="matrix(2535.574604,0,0,2535.574604,380.808777,336.363662)"/>
<path style="fill:none;stroke-width:0.000788776;stroke-linecap:butt;stroke-linejoin:miter;stroke:rgb(0%,0%,0%);stroke-opacity:1;stroke-miterlimit:10;" d="M 0.00475569 0.0532376 L -0.0338373 0.0396297 " transform="matrix(2535.574604,0,0,2535.574604,380.808777,336.363662)"/>
<path style="fill:none;stroke-width:0.000788776;stroke-linecap:butt;stroke-linejoin:miter;stroke:rgb(0%,0%,0%);stroke-opacity:1;stroke-miterlimit:10;" d="M -0.112475 0.00143413 L -0.0689332 0.0124369 " transform="matrix(2535.574604,0,0,2535.574604,380.808777,336.363662)"/>
<path style="fill:none;stroke-width:0.000788776;stroke-linecap:butt;stroke-linejoin:miter;stroke:rgb(0%,0%,0%);stroke-opacity:1;stroke-miterlimit:10;" d="M 0.0536228 0.0134522 L 0.0318991 -0.016187 " transform="matrix(2535.574604,0,0,2535.574604,380.808777,336.363662)"/>
<path style="fill:none;stroke-width:0.000788776;stroke-linecap:butt;stroke-linejoin:miter;stroke:rgb(0%,0%,0%);stroke-opacity:1;stroke-miterlimit:10;" d="M -0.111972 0.0462896 L -0.0764636 0.0286669 " transform="matrix(2535.574604,0,0,2535.574604,380.808777,336.363662)"/>
<path style="fill:none;stroke-width:0.000788776;stroke-linecap:butt;stroke-linejoin:miter;stroke:rgb(0%,0%,0%);stroke-opacity:1;stroke-miterlimit:10;" d="M -0.124342 0.0259694 L -0.0764636 0.0286669 " transform="matrix(2535.574604,0,0,2535.574604,380.808777,336.363662)"/>
<path style="fill:none;stroke-width:0.000788776;stroke-linecap:butt;stroke-linejoin:miter;stroke:rgb(0%,0%,0%);stroke-opacity:1;stroke-miterlimit:10;" d="M -0.0963632 -0.0126529 L -0.0782429 0.00196409 " transform="matrix(2535.574604,0,0,2535.574604,380.808777,336.363662)"/>
<path style="fill:none;stroke-width:0.000788776;stroke-linecap:butt;stroke-linejoin:miter;stroke:rgb(0%,0%,0%);stroke-opacity:1;stroke-miterlimit:10;" d="M -0.0623981 -0.0217978 L -0.0534782 0.0177011 " transform="matrix(2535.574604,0,0,2535.574604,380.808777,336.363662)"/>
<path style="fill:none;stroke-width:0.000788776;stroke-linecap:butt;stroke-linejoin:miter;stroke:rgb(0%,0%,0%);stroke-opacity:1;stroke-miterlimit:10;" d="M -0.0647336 0.147905 L -0.0562096 0.0980237 " transform="matrix(2535.574604,0,0,2535.574604,380.808777,336.363662)"/>
<path style="fill:none;stroke-width:0.000788776;stroke-linecap:butt;stroke-linejoin:miter;stroke:rgb(0%,0%,0%);stroke-opacity:1;stroke-miterlimit:10;" d="M -0.0648214 0.104902 L -0.0562096 0.0980237 " transform="matrix(2535.574604,0,0,2535.574604,380.808777,336.363662)"/>
<path style="fill:none;stroke-width:0.000788776;stroke-linecap:butt;stroke-linejoin:miter;stroke:rgb(0%,0%,0%);stroke-opacity:1;stroke-miterlimit:10;" d="M 0.0527324 -0.0151317 L 0.0318991 -0.016187 " transform="matrix(2535.574604,0,0,2535.574604,380.808777,336.363662)"/>
<path style="fill:none;stroke-width:0.000788776;stroke-linecap:butt;stroke-linejoin:miter;stroke:rgb(0%,0%,0%);stroke-opacity:1;stroke-miterlimit:10;" d="M 0.00671685 -0.0524846 L 0.00844692 -0.0681507 " transform="matrix(2535.574604,0,0,2535.574604,380.808777,336.363662)"/>
<path style="fill:none;stroke-width:0.000788776;stroke-linecap:butt;stroke-linejoin:miter;stroke:rgb(0%,0%,0%);stroke-opacity:1;stroke-miterlimit:10;" d="M -0.0339821 0.0592243 L -0.0288659 0.065023 " transform="matrix(2535.574604,0,0,2535.574604,380.808777,336.363662)"/>
<path style="fill:none;stroke-width:0.000788776;stroke-linecap:butt;stroke-linejoin:miter;stroke:rgb(0%,0%,0%);stroke-opacity:1;stroke-miterlimit:10;" d="M 0.000579185 -0.0414186 L -0.00303809 -0.0441978 " transform="matrix(2535.574604,0,0,2535.574604,380.808777,336.363662)"/>
<path style="fill:none;stroke-width:0.000788776;stroke-linecap:butt;stroke-linejoin:miter;stroke:rgb(0%,0%,0%);stroke-opacity:1;stroke-miterlimit:10;" d="M -0.0580306 0.0173406 L -0.0764636 0.0286669 " transform="matrix(2535.574604,0,0,2535.574604,380.808777,336.363662)"/>
<path style="fill:none;stroke-width:0.000788776;stroke-linecap:butt;stroke-linejoin:miter;stroke:rgb(0%,0%,0%);stroke-opacity:1;stroke-miterlimit:10;" d="M -0.0689332 0.0124369 L -0.0782429 0.00196409 " transform="matrix(2535.574604,0,0,2535.574604,380.808777,336.363662)"/>
<path style="fill:none;stroke-width:0.000788776;stroke-linecap:butt;stroke-linejoin:miter;stroke:rgb(0%,0%,0%);stroke-opacity:1;stroke-miterlimit:10;" d="M -0.0437016 0.0850505 L -0.0562096 0.0980237 " transform="matrix(2535.574604,0,0,2535.574604,380.808777,336.363662)"/>
<path style="fill:none;stroke-width:0.000788776;stroke-linecap:butt;stroke-linejoin:miter;stroke:rgb(0%,0%,0%);stroke-opacity:1;stroke-miterlimit:10;" d="M 0.021243 -0.021254 L 0.0318991 -0.016187 " transform="matrix(2535.574604,0,0,2535.574604,380.808777,336.363662)"/>
<path style="fill:none;stroke-width:0.000788776;stroke-linecap:butt;stroke-linejoin:miter;stroke:rgb(0%,0%,0%);stroke-opacity:1;stroke-miterlimit:10;" d="M 0.000579185 -0.0414186 L 0.00671685 -0.0524846 " transform="matrix(2535.574604,0,0,2535.574604,380.808777,336.363662)"/>
<path style="fill:none;stroke-width:0.000788776;stroke-linecap:butt;stroke-linejoin:miter;stroke:rgb(0%,0%,0%);stroke-opacity:1;stroke-miterlimit:10;" d="M -0.0580306 0.0173406 L -0.0689332 0.0124369 " transform="matrix(2535.574604,0,0,2535.574604,380.808777,336.363662)"/>
<path style="fill:none;stroke-width:0.000788776;stroke-linecap:butt;stroke-linejoin:miter;stroke:rgb(0%,0%,0%);stroke-opacity:1;stroke-miterlimit:10;" d="M -0.0406328 0.0781718 L -0.0437016 0.0850505 " transform="matrix(2535.574604,0,0,2535.574604,380.808777,336.363662)"/>
<path style="fill:none;stroke-width:0.000788776;stroke-linecap:butt;stroke-linejoin:miter;stroke:rgb(0%,0%,0%);stroke-opacity:1;stroke-miterlimit:10;" d="M 0.00760422 -0.0224017 L 0.021243 -0.021254 " transform="matrix(2535.574604,0,0,2535.574604,380.808777,336.363662)"/>
<path style="fill:none;stroke-width:0.000788776;stroke-linecap:butt;stroke-linejoin:miter;stroke:rgb(0%,0%,0%);stroke-opacity:1;stroke-miterlimit:10;" d="M 0.00547668 -0.0365026 L 0.000579185 -0.0414186 " transform="matrix(2535.574604,0,0,2535.574604,380.808777,336.363662)"/>
<path style="fill:none;stroke-width:0.000788776;stroke-linecap:butt;stroke-linejoin:miter;stroke:rgb(0%,0%,0%);stroke-opacity:1;stroke-miterlimit:10;" d="M -0.0534782 0.0177011 L -0.0580306 0.0173406 " transform="matrix(2535.574604,0,0,2535.574604,380.808777,336.363662)"/>
<path style="fill:none;stroke-width:0.000788776;stroke-linecap:butt;stroke-linejoin:miter;stroke:rgb(0%,0%,0%);stroke-opacity:1;stroke-miterlimit:10;" d="M -0.0365487 0.0677699 L -0.0406328 0.0781718 " transform="matrix(2535.574604,0,0,2535.574604,380.808777,336.363662)"/>
<path style="fill:none;stroke-width:0.000788776;stroke-linecap:butt;stroke-linejoin:miter;stroke:rgb(0%,0%,0%);stroke-opacity:1;stroke-miterlimit:10;" d="M 0.00760422 -0.0224017 L 0.00547668 -0.0365026 " transform="matrix(2535.574604,0,0,2535.574604,380.808777,336.363662)"/>
<path style="fill:none;stroke-width:0.000788776;stroke-linecap:butt;stroke-linejoin:miter;stroke:rgb(0%,0%,0%);stroke-opacity:1;stroke-miterlimit:10;" d="M -0.0413815 0.0207468 L -0.0534782 0.0177011 " transform="matrix(2535.574604,0,0,2535.574604,380.808777,336.363662)"/>
<path style="fill:none;stroke-width:0.000788776;stroke-linecap:butt;stroke-linejoin:miter;stroke:rgb(0%,0%,0%);stroke-opacity:1;stroke-miterlimit:10;" d="M -0.0339821 0.0592243 L -0.0365487 0.0677699 " transform="matrix(2535.574604,0,0,2535.574604,380.808777,336.363662)"/>
<path style="fill:none;stroke-width:0.000788776;stroke-linecap:butt;stroke-linejoin:miter;stroke:rgb(0%,0%,0%);stroke-opacity:1;stroke-miterlimit:10;" d="M -0.0341347 0.00353394 L 0.00760422 -0.0224017 " transform="matrix(2535.574604,0,0,2535.574604,380.808777,336.363662)"/>
<path style="fill:none;stroke-width:0.000788776;stroke-linecap:butt;stroke-linejoin:miter;stroke:rgb(0%,0%,0%);stroke-opacity:1;stroke-miterlimit:10;" d="M -0.0338373 0.0396297 L -0.0339821 0.0592243 " transform="matrix(2535.574604,0,0,2535.574604,380.808777,336.363662)"/>
<path style="fill:none;stroke-width:0.000788776;stroke-linecap:butt;stroke-linejoin:miter;stroke:rgb(0%,0%,0%);stroke-opacity:1;stroke-miterlimit:10;" d="M -0.0413815 0.0207468 L -0.0341347 0.00353394 " transform="matrix(2535.574604,0,0,2535.574604,380.808777,336.363662)"/>
<path style="fill:none;stroke-width:0.000788776;stroke-linecap:butt;stroke-linejoin:miter;stroke:rgb(0%,0%,0%);stroke-opacity:1;stroke-miterlimit:10;" d="M -0.0368692 0.0310687 L -0.0338373 0.0396297 " transform="matrix(2535.574604,0,0,2535.574604,380.808777,336.363662)"/>
<path style="fill:none;stroke-width:0.000788776;stroke-linecap:butt;stroke-linejoin:miter;stroke:rgb(0%,0%,0%);stroke-opacity:1;stroke-miterlimit:10;" d="M -0.0368692 0.0310687 L -0.0413815 0.0207468 " transform="matrix(2535.574604,0,0,2535.574604,380.808777,336.363662)"/>
<g style="fill:rgb(0%,0%,0%);fill-opacity:1;">
  <use xlink:href="#glyph0-1" x="330.539062" y="600.660156"/>
  <use xlink:href="#glyph0-2" x="338.27832" y="600.660156"/>
  <use xlink:href="#glyph0-3" x="345.436523" y="600.660156"/>
  <use xlink:href="#glyph0-4" x="350.368164" y="600.660156"/>
  <use xlink:href="#glyph0-5" x="357.238281" y="600.660156"/>
  <use xlink:href="#glyph0-6" x="364.396484" y="600.660156"/>
  <use xlink:href="#glyph0-7" x="371.144531" y="600.660156"/>
  <use xlink:href="#glyph0-8" x="377.072266" y="600.660156"/>
  <use xlink:href="#glyph0-9" x="381.852539" y="600.660156"/>
  <use xlink:href="#glyph0-3" x="388.634766" y="600.660156"/>
  <use xlink:href="#glyph0-10" x="393.566406" y="600.660156"/>
  <use xlink:href="#glyph0-11" x="396.994141" y="600.660156"/>
  <use xlink:href="#glyph0-12" x="404.113281" y="600.660156"/>
</g>
<g style="fill:rgb(0%,0%,0%);fill-opacity:1;">
  <use xlink:href="#glyph0-13" x="363.542969" y="564.816406"/>
  <use xlink:href="#glyph0-6" x="371.165039" y="564.816406"/>
  <use xlink:href="#glyph0-7" x="377.913086" y="564.816406"/>
  <use xlink:href="#glyph0-10" x="383.84082" y="564.816406"/>
  <use xlink:href="#glyph0-14" x="387.268555" y="564.816406"/>
  <use xlink:href="#glyph0-14" x="390.696289" y="564.816406"/>
  <use xlink:href="#glyph0-11" x="394.124023" y="564.816406"/>
  <use xlink:href="#glyph0-15" x="401.243164" y="564.816406"/>
</g>
<g style="fill:rgb(0%,0%,0%);fill-opacity:1;">
  <use xlink:href="#glyph0-16" x="407.816406" y="137.917969"/>
  <use xlink:href="#glyph0-6" x="415.155273" y="137.917969"/>
  <use xlink:href="#glyph0-9" x="421.90332" y="137.917969"/>
  <use xlink:href="#glyph0-17" x="428.685547" y="137.917969"/>
  <use xlink:href="#glyph0-4" x="435.804687" y="137.917969"/>
  <use xlink:href="#glyph0-3" x="442.674805" y="137.917969"/>
  <use xlink:href="#glyph0-18" x="447.606445" y="137.917969"/>
  <use xlink:href="#glyph0-6" x="454.725586" y="137.917969"/>
  <use xlink:href="#glyph0-5" x="461.473633" y="137.917969"/>
  <use xlink:href="#glyph0-19" x="468.631836" y="137.917969"/>
  <use xlink:href="#glyph0-10" x="475.790039" y="137.917969"/>
  <use xlink:href="#glyph0-8" x="479.217773" y="137.917969"/>
  <use xlink:href="#glyph0-10" x="483.998047" y="137.917969"/>
  <use xlink:href="#glyph0-15" x="487.425781" y="137.917969"/>
</g>
<g style="fill:rgb(0%,0%,0%);fill-opacity:1;">
  <use xlink:href="#glyph0-6" x="-18.817383" y="586.550781"/>
  <use xlink:href="#glyph0-12" x="-12.069336" y="586.550781"/>
  <use xlink:href="#glyph0-20" x="-1.649414" y="586.550781"/>
  <use xlink:href="#glyph0-21" x="5.508789" y="586.550781"/>
  <use xlink:href="#glyph0-14" x="12.027344" y="586.550781"/>
  <use xlink:href="#glyph0-4" x="15.455078" y="586.550781"/>
  <use xlink:href="#glyph0-5" x="22.325195" y="586.550781"/>
  <use xlink:href="#glyph0-6" x="29.483398" y="586.550781"/>
  <use xlink:href="#glyph0-7" x="36.231445" y="586.550781"/>
  <use xlink:href="#glyph0-8" x="42.15918" y="586.550781"/>
  <use xlink:href="#glyph0-9" x="46.939453" y="586.550781"/>
  <use xlink:href="#glyph0-3" x="53.72168" y="586.550781"/>
</g>
<g style="fill:rgb(0%,0%,0%);fill-opacity:1;">
  <use xlink:href="#glyph0-16" x="553.324219" y="109.765625"/>
  <use xlink:href="#glyph0-6" x="560.663086" y="109.765625"/>
  <use xlink:href="#glyph0-17" x="567.411133" y="109.765625"/>
  <use xlink:href="#glyph0-19" x="574.530273" y="109.765625"/>
  <use xlink:href="#glyph0-10" x="581.688477" y="109.765625"/>
  <use xlink:href="#glyph0-19" x="585.116211" y="109.765625"/>
  <use xlink:href="#glyph0-6" x="592.274414" y="109.765625"/>
</g>
<g style="fill:rgb(0%,0%,0%);fill-opacity:1;">
  <use xlink:href="#glyph0-16" x="501.636719" y="256.394531"/>
  <use xlink:href="#glyph0-3" x="508.975586" y="256.394531"/>
  <use xlink:href="#glyph0-21" x="513.907227" y="256.394531"/>
  <use xlink:href="#glyph0-20" x="520.425781" y="256.394531"/>
  <use xlink:href="#glyph0-8" x="527.583984" y="256.394531"/>
  <use xlink:href="#glyph0-4" x="532.364258" y="256.394531"/>
  <use xlink:href="#glyph0-15" x="539.234375" y="256.394531"/>
  <use xlink:href="#glyph0-20" x="545.186523" y="256.394531"/>
  <use xlink:href="#glyph0-4" x="552.344727" y="256.394531"/>
  <use xlink:href="#glyph0-3" x="559.214844" y="256.394531"/>
  <use xlink:href="#glyph0-10" x="564.146484" y="256.394531"/>
  <use xlink:href="#glyph0-19" x="567.574219" y="256.394531"/>
  <use xlink:href="#glyph0-10" x="574.732422" y="256.394531"/>
  <use xlink:href="#glyph0-11" x="578.160156" y="256.394531"/>
  <use xlink:href="#glyph0-12" x="585.279297" y="256.394531"/>
</g>
<g style="fill:rgb(0%,0%,0%);fill-opacity:1;">
  <use xlink:href="#glyph0-22" x="248.585937" y="80.402344"/>
  <use xlink:href="#glyph0-10" x="256.886719" y="80.402344"/>
  <use xlink:href="#glyph0-7" x="260.314453" y="80.402344"/>
  <use xlink:href="#glyph0-8" x="266.242187" y="80.402344"/>
  <use xlink:href="#glyph0-21" x="271.022461" y="80.402344"/>
  <use xlink:href="#glyph0-4" x="277.541016" y="80.402344"/>
  <use xlink:href="#glyph0-15" x="284.411133" y="80.402344"/>
  <use xlink:href="#glyph0-8" x="290.363281" y="80.402344"/>
  <use xlink:href="#glyph0-9" x="295.143555" y="80.402344"/>
  <use xlink:href="#glyph0-14" x="301.925781" y="80.402344"/>
  <use xlink:href="#glyph0-10" x="305.353516" y="80.402344"/>
  <use xlink:href="#glyph0-11" x="308.78125" y="80.402344"/>
  <use xlink:href="#glyph0-12" x="315.900391" y="80.402344"/>
</g>
<g style="fill:rgb(0%,0%,0%);fill-opacity:1;">
  <use xlink:href="#glyph0-22" x="275.78125" y="187.328125"/>
  <use xlink:href="#glyph0-3" x="284.082031" y="187.328125"/>
  <use xlink:href="#glyph0-4" x="289.013672" y="187.328125"/>
  <use xlink:href="#glyph0-15" x="295.883789" y="187.328125"/>
  <use xlink:href="#glyph0-4" x="301.835937" y="187.328125"/>
  <use xlink:href="#glyph0-20" x="308.706055" y="187.328125"/>
  <use xlink:href="#glyph0-18" x="315.864258" y="187.328125"/>
  <use xlink:href="#glyph0-10" x="322.983398" y="187.328125"/>
  <use xlink:href="#glyph0-14" x="326.411133" y="187.328125"/>
  <use xlink:href="#glyph0-6" x="329.838867" y="187.328125"/>
</g>
<g style="fill:rgb(0%,0%,0%);fill-opacity:1;">
  <use xlink:href="#glyph0-23" x="294.859375" y="647.699219"/>
  <use xlink:href="#glyph0-15" x="301.69043" y="647.699219"/>
  <use xlink:href="#glyph0-7" x="307.642578" y="647.699219"/>
  <use xlink:href="#glyph0-18" x="313.570312" y="647.699219"/>
  <use xlink:href="#glyph0-9" x="320.689453" y="647.699219"/>
  <use xlink:href="#glyph0-3" x="327.47168" y="647.699219"/>
  <use xlink:href="#glyph0-10" x="332.40332" y="647.699219"/>
  <use xlink:href="#glyph0-7" x="335.831055" y="647.699219"/>
  <use xlink:href="#glyph0-18" x="341.758789" y="647.699219"/>
  <use xlink:href="#glyph0-10" x="348.87793" y="647.699219"/>
  <use xlink:href="#glyph0-6" x="352.305664" y="647.699219"/>
</g>
<g style="fill:rgb(0%,0%,0%);fill-opacity:1;">
  <use xlink:href="#glyph0-23" x="449.488281" y="222.140625"/>
  <use xlink:href="#glyph0-11" x="456.319336" y="222.140625"/>
  <use xlink:href="#glyph0-2" x="463.438477" y="222.140625"/>
  <use xlink:href="#glyph0-14" x="470.59668" y="222.140625"/>
  <use xlink:href="#glyph0-9" x="474.024414" y="222.140625"/>
  <use xlink:href="#glyph0-17" x="480.806641" y="222.140625"/>
  <use xlink:href="#glyph0-6" x="487.925781" y="222.140625"/>
</g>
<g style="fill:rgb(0%,0%,0%);fill-opacity:1;">
  <use xlink:href="#glyph0-24" x="401.230469" y="530.234375"/>
  <use xlink:href="#glyph0-14" x="408.061523" y="530.234375"/>
  <use xlink:href="#glyph0-6" x="411.489258" y="530.234375"/>
  <use xlink:href="#glyph0-25" x="418.237305" y="530.234375"/>
  <use xlink:href="#glyph0-4" x="424.755859" y="530.234375"/>
  <use xlink:href="#glyph0-5" x="431.625977" y="530.234375"/>
  <use xlink:href="#glyph0-6" x="438.78418" y="530.234375"/>
  <use xlink:href="#glyph0-7" x="445.532227" y="530.234375"/>
  <use xlink:href="#glyph0-8" x="451.459961" y="530.234375"/>
  <use xlink:href="#glyph0-9" x="456.240234" y="530.234375"/>
  <use xlink:href="#glyph0-3" x="463.022461" y="530.234375"/>
  <use xlink:href="#glyph0-10" x="467.954102" y="530.234375"/>
  <use xlink:href="#glyph0-11" x="471.381836" y="530.234375"/>
  <use xlink:href="#glyph0-12" x="478.500977" y="530.234375"/>
</g>
<g style="fill:rgb(0%,0%,0%);fill-opacity:1;">
  <use xlink:href="#glyph0-26" x="200.453125" y="275.582031"/>
  <use xlink:href="#glyph0-6" x="208.822266" y="275.582031"/>
  <use xlink:href="#glyph0-14" x="215.570312" y="275.582031"/>
  <use xlink:href="#glyph0-4" x="218.998047" y="275.582031"/>
  <use xlink:href="#glyph0-3" x="225.868164" y="275.582031"/>
  <use xlink:href="#glyph0-11" x="230.799805" y="275.582031"/>
  <use xlink:href="#glyph0-5" x="237.918945" y="275.582031"/>
  <use xlink:href="#glyph0-3" x="245.077148" y="275.582031"/>
  <use xlink:href="#glyph0-11" x="250.008789" y="275.582031"/>
  <use xlink:href="#glyph0-12" x="257.12793" y="275.582031"/>
</g>
<g style="fill:rgb(0%,0%,0%);fill-opacity:1;">
  <use xlink:href="#glyph0-26" x="314.472656" y="216.183594"/>
  <use xlink:href="#glyph0-4" x="322.841797" y="216.183594"/>
  <use xlink:href="#glyph0-12" x="329.711914" y="216.183594"/>
  <use xlink:href="#glyph0-4" x="340.131836" y="216.183594"/>
</g>
<g style="fill:rgb(0%,0%,0%);fill-opacity:1;">
  <use xlink:href="#glyph0-27" x="71.5625" y="234.339844"/>
  <use xlink:href="#glyph0-9" x="81.513672" y="234.339844"/>
  <use xlink:href="#glyph0-8" x="88.295898" y="234.339844"/>
  <use xlink:href="#glyph0-18" x="93.076172" y="234.339844"/>
  <use xlink:href="#glyph0-6" x="100.195312" y="234.339844"/>
  <use xlink:href="#glyph0-17" x="106.943359" y="234.339844"/>
  <use xlink:href="#glyph0-4" x="114.0625" y="234.339844"/>
  <use xlink:href="#glyph0-7" x="120.932617" y="234.339844"/>
  <use xlink:href="#glyph0-4" x="126.860352" y="234.339844"/>
  <use xlink:href="#glyph0-7" x="133.730469" y="234.339844"/>
  <use xlink:href="#glyph0-7" x="139.658203" y="234.339844"/>
  <use xlink:href="#glyph0-11" x="145.585937" y="234.339844"/>
  <use xlink:href="#glyph0-15" x="152.705078" y="234.339844"/>
</g>
<g style="fill:rgb(0%,0%,0%);fill-opacity:1;">
  <use xlink:href="#glyph0-27" x="424.464844" y="438.683594"/>
  <use xlink:href="#glyph0-9" x="434.416016" y="438.683594"/>
  <use xlink:href="#glyph0-8" x="441.198242" y="438.683594"/>
  <use xlink:href="#glyph0-18" x="445.978516" y="438.683594"/>
  <use xlink:href="#glyph0-6" x="453.097656" y="438.683594"/>
  <use xlink:href="#glyph0-17" x="459.845703" y="438.683594"/>
  <use xlink:href="#glyph0-4" x="466.964844" y="438.683594"/>
  <use xlink:href="#glyph0-15" x="473.834961" y="438.683594"/>
  <use xlink:href="#glyph0-20" x="479.787109" y="438.683594"/>
  <use xlink:href="#glyph0-10" x="486.945312" y="438.683594"/>
  <use xlink:href="#glyph0-3" x="490.373047" y="438.683594"/>
  <use xlink:href="#glyph0-10" x="495.304687" y="438.683594"/>
  <use xlink:href="#glyph0-14" x="498.732422" y="438.683594"/>
  <use xlink:href="#glyph0-14" x="502.160156" y="438.683594"/>
  <use xlink:href="#glyph0-11" x="505.587891" y="438.683594"/>
  <use xlink:href="#glyph0-12" x="512.707031" y="438.683594"/>
</g>
<g style="fill:rgb(0%,0%,0%);fill-opacity:1;">
  <use xlink:href="#glyph0-27" x="395.664062" y="477.167969"/>
  <use xlink:href="#glyph0-9" x="405.615234" y="477.167969"/>
  <use xlink:href="#glyph0-8" x="412.397461" y="477.167969"/>
  <use xlink:href="#glyph0-18" x="417.177734" y="477.167969"/>
  <use xlink:href="#glyph0-6" x="424.296875" y="477.167969"/>
  <use xlink:href="#glyph0-17" x="431.044922" y="477.167969"/>
  <use xlink:href="#glyph0-4" x="438.164062" y="477.167969"/>
  <use xlink:href="#glyph0-8" x="445.03418" y="477.167969"/>
  <use xlink:href="#glyph0-18" x="449.814453" y="477.167969"/>
  <use xlink:href="#glyph0-9" x="456.933594" y="477.167969"/>
  <use xlink:href="#glyph0-3" x="463.71582" y="477.167969"/>
  <use xlink:href="#glyph0-12" x="468.647461" y="477.167969"/>
  <use xlink:href="#glyph0-4" x="479.067383" y="477.167969"/>
  <use xlink:href="#glyph0-5" x="485.9375" y="477.167969"/>
  <use xlink:href="#glyph0-6" x="493.095703" y="477.167969"/>
  <use xlink:href="#glyph0-7" x="499.84375" y="477.167969"/>
  <use xlink:href="#glyph0-8" x="505.771484" y="477.167969"/>
  <use xlink:href="#glyph0-9" x="510.551758" y="477.167969"/>
  <use xlink:href="#glyph0-3" x="517.333984" y="477.167969"/>
</g>
<g style="fill:rgb(0%,0%,0%);fill-opacity:1;">
  <use xlink:href="#glyph0-28" x="9.5625" y="342.429688"/>
  <use xlink:href="#glyph0-6" x="17.931641" y="342.429688"/>
  <use xlink:href="#glyph0-17" x="24.679687" y="342.429688"/>
  <use xlink:href="#glyph0-4" x="31.798828" y="342.429688"/>
  <use xlink:href="#glyph0-6" x="38.668945" y="342.429688"/>
  <use xlink:href="#glyph0-3" x="45.416992" y="342.429688"/>
  <use xlink:href="#glyph0-7" x="50.348633" y="342.429688"/>
  <use xlink:href="#glyph0-18" x="56.276367" y="342.429688"/>
  <use xlink:href="#glyph0-6" x="63.395508" y="342.429688"/>
  <use xlink:href="#glyph0-9" x="70.143555" y="342.429688"/>
  <use xlink:href="#glyph0-11" x="76.925781" y="342.429688"/>
  <use xlink:href="#glyph0-12" x="84.044922" y="342.429688"/>
</g>
<g style="fill:rgb(0%,0%,0%);fill-opacity:1;">
  <use xlink:href="#glyph0-28" x="518.503906" y="378.804687"/>
  <use xlink:href="#glyph0-4" x="526.873047" y="378.804687"/>
  <use xlink:href="#glyph0-15" x="533.743164" y="378.804687"/>
  <use xlink:href="#glyph0-9" x="539.695312" y="378.804687"/>
  <use xlink:href="#glyph0-12" x="546.477539" y="378.804687"/>
  <use xlink:href="#glyph0-6" x="556.897461" y="378.804687"/>
</g>
<g style="fill:rgb(0%,0%,0%);fill-opacity:1;">
  <use xlink:href="#glyph0-29" x="22.15625" y="461.664062"/>
  <use xlink:href="#glyph0-21" x="29.485352" y="461.664062"/>
  <use xlink:href="#glyph0-3" x="36.003906" y="461.664062"/>
  <use xlink:href="#glyph0-4" x="40.935547" y="461.664062"/>
  <use xlink:href="#glyph0-5" x="47.805664" y="461.664062"/>
  <use xlink:href="#glyph0-6" x="54.963867" y="461.664062"/>
  <use xlink:href="#glyph0-7" x="61.711914" y="461.664062"/>
  <use xlink:href="#glyph0-11" x="67.639648" y="461.664062"/>
  <use xlink:href="#glyph0-14" x="74.758789" y="461.664062"/>
  <use xlink:href="#glyph0-11" x="78.186523" y="461.664062"/>
  <use xlink:href="#glyph0-12" x="85.305664" y="461.664062"/>
</g>
<g style="fill:rgb(0%,0%,0%);fill-opacity:1;">
  <use xlink:href="#glyph0-30" x="4.261719" y="405.75"/>
  <use xlink:href="#glyph0-11" x="11.463867" y="405.75"/>
  <use xlink:href="#glyph0-14" x="18.583008" y="405.75"/>
  <use xlink:href="#glyph0-31" x="22.010742" y="405.75"/>
  <use xlink:href="#glyph0-4" x="26.361328" y="405.75"/>
  <use xlink:href="#glyph0-14" x="33.231445" y="405.75"/>
  <use xlink:href="#glyph0-4" x="36.65918" y="405.75"/>
  <use xlink:href="#glyph0-5" x="43.529297" y="405.75"/>
  <use xlink:href="#glyph0-11" x="50.6875" y="405.75"/>
  <use xlink:href="#glyph0-15" x="57.806641" y="405.75"/>
</g>
<g style="fill:rgb(0%,0%,0%);fill-opacity:1;">
  <use xlink:href="#glyph0-32" x="54.011719" y="304.464844"/>
  <use xlink:href="#glyph0-18" x="60.833008" y="304.464844"/>
  <use xlink:href="#glyph0-9" x="67.952148" y="304.464844"/>
  <use xlink:href="#glyph0-3" x="74.734375" y="304.464844"/>
  <use xlink:href="#glyph0-12" x="79.666016" y="304.464844"/>
  <use xlink:href="#glyph0-4" x="90.085938" y="304.464844"/>
  <use xlink:href="#glyph0-7" x="96.956055" y="304.464844"/>
  <use xlink:href="#glyph0-4" x="102.883789" y="304.464844"/>
  <use xlink:href="#glyph0-7" x="109.753906" y="304.464844"/>
  <use xlink:href="#glyph0-7" x="115.681641" y="304.464844"/>
  <use xlink:href="#glyph0-11" x="121.609375" y="304.464844"/>
  <use xlink:href="#glyph0-15" x="128.728516" y="304.464844"/>
</g>
<g style="fill:rgb(0%,0%,0%);fill-opacity:1;">
  <use xlink:href="#glyph0-32" x="139.316406" y="279.261719"/>
  <use xlink:href="#glyph0-18" x="146.137695" y="279.261719"/>
  <use xlink:href="#glyph0-9" x="153.256836" y="279.261719"/>
  <use xlink:href="#glyph0-3" x="160.039062" y="279.261719"/>
  <use xlink:href="#glyph0-12" x="164.970703" y="279.261719"/>
  <use xlink:href="#glyph0-4" x="175.390625" y="279.261719"/>
  <use xlink:href="#glyph0-20" x="182.260742" y="279.261719"/>
  <use xlink:href="#glyph0-14" x="189.418945" y="279.261719"/>
  <use xlink:href="#glyph0-6" x="192.84668" y="279.261719"/>
  <use xlink:href="#glyph0-15" x="199.594727" y="279.261719"/>
  <use xlink:href="#glyph0-12" x="205.546875" y="279.261719"/>
  <use xlink:href="#glyph0-6" x="215.966797" y="279.261719"/>
</g>
<g style="fill:rgb(0%,0%,0%);fill-opacity:1;">
  <use xlink:href="#glyph0-32" x="148.457031" y="723.039062"/>
  <use xlink:href="#glyph0-18" x="155.27832" y="723.039062"/>
  <use xlink:href="#glyph0-9" x="162.397461" y="723.039062"/>
  <use xlink:href="#glyph0-3" x="169.179687" y="723.039062"/>
  <use xlink:href="#glyph0-12" x="174.111328" y="723.039062"/>
  <use xlink:href="#glyph0-4" x="184.53125" y="723.039062"/>
  <use xlink:href="#glyph0-8" x="191.401367" y="723.039062"/>
  <use xlink:href="#glyph0-4" x="196.181641" y="723.039062"/>
  <use xlink:href="#glyph0-2" x="203.051758" y="723.039062"/>
  <use xlink:href="#glyph0-6" x="210.209961" y="723.039062"/>
</g>
<g style="fill:rgb(0%,0%,0%);fill-opacity:1;">
  <use xlink:href="#glyph0-32" x="165.5" y="609.878906"/>
  <use xlink:href="#glyph0-18" x="172.321289" y="609.878906"/>
  <use xlink:href="#glyph0-9" x="179.44043" y="609.878906"/>
  <use xlink:href="#glyph0-3" x="186.222656" y="609.878906"/>
  <use xlink:href="#glyph0-12" x="191.154297" y="609.878906"/>
  <use xlink:href="#glyph0-11" x="201.574219" y="609.878906"/>
  <use xlink:href="#glyph0-15" x="208.693359" y="609.878906"/>
</g>
<g style="fill:rgb(0%,0%,0%);fill-opacity:1;">
  <use xlink:href="#glyph0-33" x="517.441406" y="302.003906"/>
  <use xlink:href="#glyph0-9" x="524.692383" y="302.003906"/>
  <use xlink:href="#glyph0-6" x="531.474609" y="302.003906"/>
</g>
</g>
</svg>
