<?xml version="1.0" encoding="UTF-8"?>
<svg xmlns="http://www.w3.org/2000/svg" xmlns:xlink="http://www.w3.org/1999/xlink" width="612pt" height="792pt" viewBox="0 0 612 792" version="1.1">
<defs>
<g>
<symbol overflow="visible" id="glyph0-0">
<path style="stroke:none;" d="M 0.5 1.765625 L 0.5 -7.046875 L 5.5 -7.046875 L 5.5 1.765625 L 0.5 1.765625 Z M 1.0625 1.21875 L 4.9375 1.21875 L 4.9375 -6.484375 L 1.0625 -6.484375 L 1.0625 1.21875 Z M 1.0625 1.21875 "/>
</symbol>
<symbol overflow="visible" id="glyph0-1">
<path style="stroke:none;" d="M 5.34375 -1.328125 L 2.40625 -1.328125 L 1.9375 0 L 0.046875 0 L 2.75 -7.296875 L 4.984375 -7.296875 L 7.6875 0 L 5.796875 0 L 5.34375 -1.328125 Z M 2.875 -2.6875 L 4.875 -2.6875 L 3.875 -5.578125 L 2.875 -2.6875 Z M 2.875 -2.6875 "/>
</symbol>
<symbol overflow="visible" id="glyph0-2">
<path style="stroke:none;" d="M 4.5625 -0.921875 C 4.320312 -0.609375 4.054688 -0.375 3.765625 -0.21875 C 3.472656 -0.0703125 3.140625 0 2.765625 0 C 2.097656 0 1.546875 -0.257812 1.109375 -0.78125 C 0.671875 -1.3125 0.453125 -1.984375 0.453125 -2.796875 C 0.453125 -3.617188 0.671875 -4.289062 1.109375 -4.8125 C 1.546875 -5.332031 2.097656 -5.59375 2.765625 -5.59375 C 3.140625 -5.59375 3.472656 -5.515625 3.765625 -5.359375 C 4.054688 -5.210938 4.320312 -4.976562 4.5625 -4.65625 L 4.5625 -5.46875 L 6.3125 -5.46875 L 6.3125 -0.546875 C 6.3125 0.328125 6.035156 0.992188 5.484375 1.453125 C 4.929688 1.921875 4.128906 2.15625 3.078125 2.15625 C 2.734375 2.15625 2.398438 2.128906 2.078125 2.078125 C 1.765625 2.023438 1.445312 1.945312 1.125 1.84375 L 1.125 0.484375 C 1.425781 0.660156 1.722656 0.789062 2.015625 0.875 C 2.304688 0.957031 2.601562 1 2.90625 1 C 3.476562 1 3.894531 0.875 4.15625 0.625 C 4.425781 0.375 4.5625 -0.015625 4.5625 -0.546875 L 4.5625 -0.921875 Z M 3.40625 -4.328125 C 3.039062 -4.328125 2.757812 -4.191406 2.5625 -3.921875 C 2.363281 -3.660156 2.265625 -3.285156 2.265625 -2.796875 C 2.265625 -2.296875 2.359375 -1.914062 2.546875 -1.65625 C 2.742188 -1.394531 3.03125 -1.265625 3.40625 -1.265625 C 3.769531 -1.265625 4.050781 -1.398438 4.25 -1.671875 C 4.457031 -1.941406 4.5625 -2.316406 4.5625 -2.796875 C 4.5625 -3.285156 4.457031 -3.660156 4.25 -3.921875 C 4.050781 -4.191406 3.769531 -4.328125 3.40625 -4.328125 Z M 3.40625 -4.328125 "/>
</symbol>
<symbol overflow="visible" id="glyph0-3">
<path style="stroke:none;" d="M 4.90625 -3.984375 C 4.75 -4.054688 4.59375 -4.109375 4.4375 -4.140625 C 4.289062 -4.171875 4.140625 -4.1875 3.984375 -4.1875 C 3.535156 -4.1875 3.191406 -4.039062 2.953125 -3.75 C 2.710938 -3.46875 2.59375 -3.054688 2.59375 -2.515625 L 2.59375 0 L 0.84375 0 L 0.84375 -5.46875 L 2.59375 -5.46875 L 2.59375 -4.578125 C 2.8125 -4.929688 3.066406 -5.1875 3.359375 -5.34375 C 3.648438 -5.507812 4 -5.59375 4.40625 -5.59375 C 4.46875 -5.59375 4.53125 -5.59375 4.59375 -5.59375 C 4.664062 -5.59375 4.765625 -5.582031 4.890625 -5.5625 L 4.90625 -3.984375 Z M 4.90625 -3.984375 "/>
</symbol>
<symbol overflow="visible" id="glyph0-4">
<path style="stroke:none;" d="M 3.4375 -4.34375 C 3.050781 -4.34375 2.753906 -4.203125 2.546875 -3.921875 C 2.347656 -3.648438 2.25 -3.253906 2.25 -2.734375 C 2.25 -2.203125 2.347656 -1.796875 2.546875 -1.515625 C 2.753906 -1.242188 3.050781 -1.109375 3.4375 -1.109375 C 3.820312 -1.109375 4.113281 -1.242188 4.3125 -1.515625 C 4.519531 -1.796875 4.625 -2.203125 4.625 -2.734375 C 4.625 -3.253906 4.519531 -3.648438 4.3125 -3.921875 C 4.113281 -4.203125 3.820312 -4.34375 3.4375 -4.34375 Z M 3.4375 -5.59375 C 4.382812 -5.59375 5.117188 -5.335938 5.640625 -4.828125 C 6.171875 -4.328125 6.4375 -3.628906 6.4375 -2.734375 C 6.4375 -1.828125 6.171875 -1.117188 5.640625 -0.609375 C 5.117188 -0.109375 4.382812 0.140625 3.4375 0.140625 C 2.5 0.140625 1.765625 -0.109375 1.234375 -0.609375 C 0.703125 -1.117188 0.4375 -1.828125 0.4375 -2.734375 C 0.4375 -3.628906 0.703125 -4.328125 1.234375 -4.828125 C 1.765625 -5.335938 2.5 -5.59375 3.4375 -5.59375 Z M 3.4375 -5.59375 "/>
</symbol>
<symbol overflow="visible" id="glyph0-5">
<path style="stroke:none;" d="M 3.75 -1.125 C 4.125 -1.125 4.410156 -1.257812 4.609375 -1.53125 C 4.804688 -1.8125 4.90625 -2.210938 4.90625 -2.734375 C 4.90625 -3.253906 4.804688 -3.648438 4.609375 -3.921875 C 4.410156 -4.191406 4.125 -4.328125 3.75 -4.328125 C 3.375 -4.328125 3.085938 -4.1875 2.890625 -3.90625 C 2.691406 -3.632812 2.59375 -3.242188 2.59375 -2.734375 C 2.59375 -2.210938 2.691406 -1.8125 2.890625 -1.53125 C 3.085938 -1.257812 3.375 -1.125 3.75 -1.125 Z M 2.59375 -4.671875 C 2.832031 -4.984375 3.097656 -5.210938 3.390625 -5.359375 C 3.679688 -5.515625 4.019531 -5.59375 4.40625 -5.59375 C 5.070312 -5.59375 5.617188 -5.328125 6.046875 -4.796875 C 6.484375 -4.265625 6.703125 -3.578125 6.703125 -2.734375 C 6.703125 -1.890625 6.484375 -1.195312 6.046875 -0.65625 C 5.617188 -0.125 5.070312 0.140625 4.40625 0.140625 C 4.019531 0.140625 3.679688 0.0664062 3.390625 -0.078125 C 3.097656 -0.234375 2.832031 -0.472656 2.59375 -0.796875 L 2.59375 0 L 0.84375 0 L 0.84375 -7.59375 L 2.59375 -7.59375 L 2.59375 -4.671875 Z M 2.59375 -4.671875 "/>
</symbol>
<symbol overflow="visible" id="glyph0-6">
<path style="stroke:none;" d="M 3.296875 -2.46875 C 2.929688 -2.46875 2.65625 -2.40625 2.46875 -2.28125 C 2.28125 -2.15625 2.1875 -1.972656 2.1875 -1.734375 C 2.1875 -1.503906 2.257812 -1.328125 2.40625 -1.203125 C 2.5625 -1.078125 2.769531 -1.015625 3.03125 -1.015625 C 3.363281 -1.015625 3.640625 -1.132812 3.859375 -1.375 C 4.085938 -1.613281 4.203125 -1.910156 4.203125 -2.265625 L 4.203125 -2.46875 L 3.296875 -2.46875 Z M 5.96875 -3.125 L 5.96875 0 L 4.203125 0 L 4.203125 -0.8125 C 3.960938 -0.476562 3.695312 -0.234375 3.40625 -0.078125 C 3.113281 0.0664062 2.757812 0.140625 2.34375 0.140625 C 1.769531 0.140625 1.304688 -0.0195312 0.953125 -0.34375 C 0.609375 -0.675781 0.4375 -1.109375 0.4375 -1.640625 C 0.4375 -2.285156 0.65625 -2.753906 1.09375 -3.046875 C 1.53125 -3.347656 2.222656 -3.5 3.171875 -3.5 L 4.203125 -3.5 L 4.203125 -3.640625 C 4.203125 -3.910156 4.09375 -4.109375 3.875 -4.234375 C 3.65625 -4.367188 3.316406 -4.4375 2.859375 -4.4375 C 2.484375 -4.4375 2.132812 -4.398438 1.8125 -4.328125 C 1.488281 -4.253906 1.1875 -4.140625 0.90625 -3.984375 L 0.90625 -5.328125 C 1.28125 -5.410156 1.65625 -5.472656 2.03125 -5.515625 C 2.414062 -5.566406 2.796875 -5.59375 3.171875 -5.59375 C 4.160156 -5.59375 4.875 -5.398438 5.3125 -5.015625 C 5.75 -4.628906 5.96875 -4 5.96875 -3.125 Z M 5.96875 -3.125 "/>
</symbol>
<symbol overflow="visible" id="glyph0-7">
<path style="stroke:none;" d="M 5.265625 -5.296875 L 5.265625 -3.875 C 5.023438 -4.03125 4.785156 -4.144531 4.546875 -4.21875 C 4.304688 -4.300781 4.054688 -4.34375 3.796875 -4.34375 C 3.304688 -4.34375 2.925781 -4.203125 2.65625 -3.921875 C 2.382812 -3.640625 2.25 -3.242188 2.25 -2.734375 C 2.25 -2.222656 2.382812 -1.820312 2.65625 -1.53125 C 2.925781 -1.25 3.304688 -1.109375 3.796875 -1.109375 C 4.066406 -1.109375 4.328125 -1.148438 4.578125 -1.234375 C 4.828125 -1.316406 5.054688 -1.4375 5.265625 -1.59375 L 5.265625 -0.15625 C 4.984375 -0.0625 4.703125 0.0078125 4.421875 0.0625 C 4.140625 0.113281 3.859375 0.140625 3.578125 0.140625 C 2.585938 0.140625 1.816406 -0.109375 1.265625 -0.609375 C 0.710938 -1.117188 0.4375 -1.828125 0.4375 -2.734375 C 0.4375 -3.628906 0.710938 -4.328125 1.265625 -4.828125 C 1.816406 -5.335938 2.585938 -5.59375 3.578125 -5.59375 C 3.867188 -5.59375 4.148438 -5.566406 4.421875 -5.515625 C 4.703125 -5.472656 4.984375 -5.398438 5.265625 -5.296875 Z M 5.265625 -5.296875 "/>
</symbol>
<symbol overflow="visible" id="glyph0-8">
<path style="stroke:none;" d="M 2.75 -7.015625 L 2.75 -5.46875 L 4.546875 -5.46875 L 4.546875 -4.21875 L 2.75 -4.21875 L 2.75 -1.90625 C 2.75 -1.644531 2.796875 -1.46875 2.890625 -1.375 C 2.992188 -1.289062 3.195312 -1.25 3.5 -1.25 L 4.40625 -1.25 L 4.40625 0 L 2.90625 0 C 2.207031 0 1.710938 -0.140625 1.421875 -0.421875 C 1.140625 -0.710938 1 -1.207031 1 -1.90625 L 1 -4.21875 L 0.125 -4.21875 L 0.125 -5.46875 L 1 -5.46875 L 1 -7.015625 L 2.75 -7.015625 Z M 2.75 -7.015625 "/>
</symbol>
<symbol overflow="visible" id="glyph0-9">
<path style="stroke:none;" d="M 6.296875 -2.75 L 6.296875 -2.25 L 2.21875 -2.25 C 2.257812 -1.84375 2.40625 -1.535156 2.65625 -1.328125 C 2.90625 -1.117188 3.257812 -1.015625 3.71875 -1.015625 C 4.082031 -1.015625 4.457031 -1.066406 4.84375 -1.171875 C 5.238281 -1.285156 5.640625 -1.457031 6.046875 -1.6875 L 6.046875 -0.328125 C 5.628906 -0.171875 5.210938 -0.0546875 4.796875 0.015625 C 4.390625 0.0976562 3.976562 0.140625 3.5625 0.140625 C 2.570312 0.140625 1.800781 -0.109375 1.25 -0.609375 C 0.707031 -1.117188 0.4375 -1.828125 0.4375 -2.734375 C 0.4375 -3.617188 0.703125 -4.316406 1.234375 -4.828125 C 1.773438 -5.335938 2.519531 -5.59375 3.46875 -5.59375 C 4.320312 -5.59375 5.003906 -5.332031 5.515625 -4.8125 C 6.035156 -4.300781 6.296875 -3.613281 6.296875 -2.75 Z M 4.5 -3.328125 C 4.5 -3.660156 4.398438 -3.925781 4.203125 -4.125 C 4.015625 -4.332031 3.765625 -4.4375 3.453125 -4.4375 C 3.109375 -4.4375 2.832031 -4.34375 2.625 -4.15625 C 2.414062 -3.96875 2.285156 -3.691406 2.234375 -3.328125 L 4.5 -3.328125 Z M 4.5 -3.328125 "/>
</symbol>
<symbol overflow="visible" id="glyph0-10">
<path style="stroke:none;" d="M 0.84375 -5.46875 L 2.59375 -5.46875 L 2.59375 0 L 0.84375 0 L 0.84375 -5.46875 Z M 0.84375 -7.59375 L 2.59375 -7.59375 L 2.59375 -6.171875 L 0.84375 -6.171875 L 0.84375 -7.59375 Z M 0.84375 -7.59375 "/>
</symbol>
<symbol overflow="visible" id="glyph0-11">
<path style="stroke:none;" d="M 0.78125 -2.125 L 0.78125 -5.46875 L 2.546875 -5.46875 L 2.546875 -4.921875 C 2.546875 -4.628906 2.539062 -4.257812 2.53125 -3.8125 C 2.53125 -3.363281 2.53125 -3.0625 2.53125 -2.90625 C 2.53125 -2.46875 2.539062 -2.148438 2.5625 -1.953125 C 2.582031 -1.765625 2.625 -1.625 2.6875 -1.53125 C 2.75 -1.425781 2.835938 -1.34375 2.953125 -1.28125 C 3.078125 -1.21875 3.210938 -1.1875 3.359375 -1.1875 C 3.722656 -1.1875 4.007812 -1.320312 4.21875 -1.59375 C 4.425781 -1.875 4.53125 -2.265625 4.53125 -2.765625 L 4.53125 -5.46875 L 6.28125 -5.46875 L 6.28125 0 L 4.53125 0 L 4.53125 -0.796875 C 4.269531 -0.472656 3.988281 -0.234375 3.6875 -0.078125 C 3.394531 0.0664062 3.070312 0.140625 2.71875 0.140625 C 2.082031 0.140625 1.597656 -0.0507812 1.265625 -0.4375 C 0.941406 -0.820312 0.78125 -1.382812 0.78125 -2.125 Z M 0.78125 -2.125 "/>
</symbol>
<symbol overflow="visible" id="glyph0-12">
<path style="stroke:none;" d="M 5.90625 -4.5625 C 6.125 -4.894531 6.382812 -5.148438 6.6875 -5.328125 C 7 -5.503906 7.335938 -5.59375 7.703125 -5.59375 C 8.328125 -5.59375 8.800781 -5.398438 9.125 -5.015625 C 9.457031 -4.628906 9.625 -4.066406 9.625 -3.328125 L 9.625 0 L 7.875 0 L 7.875 -2.859375 C 7.875 -2.898438 7.875 -2.941406 7.875 -2.984375 C 7.875 -3.023438 7.875 -3.085938 7.875 -3.171875 C 7.875 -3.566406 7.816406 -3.847656 7.703125 -4.015625 C 7.597656 -4.191406 7.414062 -4.28125 7.15625 -4.28125 C 6.820312 -4.28125 6.566406 -4.144531 6.390625 -3.875 C 6.210938 -3.601562 6.117188 -3.207031 6.109375 -2.6875 L 6.109375 0 L 4.34375 0 L 4.34375 -2.859375 C 4.34375 -3.460938 4.289062 -3.847656 4.1875 -4.015625 C 4.082031 -4.191406 3.898438 -4.28125 3.640625 -4.28125 C 3.304688 -4.28125 3.046875 -4.140625 2.859375 -3.859375 C 2.679688 -3.585938 2.59375 -3.195312 2.59375 -2.6875 L 2.59375 0 L 0.828125 0 L 0.828125 -5.46875 L 2.59375 -5.46875 L 2.59375 -4.671875 C 2.800781 -4.972656 3.046875 -5.203125 3.328125 -5.359375 C 3.609375 -5.515625 3.914062 -5.59375 4.25 -5.59375 C 4.625 -5.59375 4.957031 -5.5 5.25 -5.3125 C 5.539062 -5.132812 5.757812 -4.882812 5.90625 -4.5625 Z M 5.90625 -4.5625 "/>
</symbol>
<symbol overflow="visible" id="glyph0-13">
<path style="stroke:none;" d="M 4.5625 -4.671875 L 4.5625 -7.59375 L 6.3125 -7.59375 L 6.3125 0 L 4.5625 0 L 4.5625 -0.796875 C 4.320312 -0.472656 4.054688 -0.234375 3.765625 -0.078125 C 3.472656 0.0664062 3.140625 0.140625 2.765625 0.140625 C 2.085938 0.140625 1.53125 -0.125 1.09375 -0.65625 C 0.664062 -1.195312 0.453125 -1.890625 0.453125 -2.734375 C 0.453125 -3.578125 0.664062 -4.265625 1.09375 -4.796875 C 1.53125 -5.328125 2.085938 -5.59375 2.765625 -5.59375 C 3.140625 -5.59375 3.472656 -5.515625 3.765625 -5.359375 C 4.054688 -5.210938 4.320312 -4.984375 4.5625 -4.671875 Z M 3.40625 -1.125 C 3.78125 -1.125 4.066406 -1.257812 4.265625 -1.53125 C 4.460938 -1.8125 4.5625 -2.210938 4.5625 -2.734375 C 4.5625 -3.253906 4.460938 -3.648438 4.265625 -3.921875 C 4.066406 -4.191406 3.78125 -4.328125 3.40625 -4.328125 C 3.039062 -4.328125 2.757812 -4.191406 2.5625 -3.921875 C 2.363281 -3.648438 2.265625 -3.253906 2.265625 -2.734375 C 2.265625 -2.210938 2.363281 -1.8125 2.5625 -1.53125 C 2.757812 -1.257812 3.039062 -1.125 3.40625 -1.125 Z M 3.40625 -1.125 "/>
</symbol>
<symbol overflow="visible" id="glyph0-14">
<path style="stroke:none;" d="M 3.40625 -4.328125 C 3.039062 -4.328125 2.757812 -4.191406 2.5625 -3.921875 C 2.363281 -3.648438 2.265625 -3.253906 2.265625 -2.734375 C 2.265625 -2.210938 2.363281 -1.8125 2.5625 -1.53125 C 2.757812 -1.257812 3.039062 -1.125 3.40625 -1.125 C 3.78125 -1.125 4.066406 -1.257812 4.265625 -1.53125 C 4.460938 -1.8125 4.5625 -2.210938 4.5625 -2.734375 C 4.5625 -3.253906 4.460938 -3.648438 4.265625 -3.921875 C 4.066406 -4.191406 3.78125 -4.328125 3.40625 -4.328125 Z M 4.5625 -0.796875 C 4.320312 -0.472656 4.054688 -0.234375 3.765625 -0.078125 C 3.472656 0.0664062 3.140625 0.140625 2.765625 0.140625 C 2.085938 0.140625 1.53125 -0.125 1.09375 -0.65625 C 0.664062 -1.195312 0.453125 -1.890625 0.453125 -2.734375 C 0.453125 -3.578125 0.664062 -4.265625 1.09375 -4.796875 C 1.53125 -5.328125 2.085938 -5.59375 2.765625 -5.59375 C 3.140625 -5.59375 3.472656 -5.515625 3.765625 -5.359375 C 4.054688 -5.210938 4.320312 -4.976562 4.5625 -4.65625 L 4.5625 -5.46875 L 6.3125 -5.46875 L 6.3125 2.078125 L 4.5625 2.078125 L 4.5625 -0.796875 Z M 4.5625 -0.796875 "/>
</symbol>
<symbol overflow="visible" id="glyph0-15">
<path style="stroke:none;" d="M 4.4375 -7.59375 L 4.4375 -6.453125 L 3.46875 -6.453125 C 3.21875 -6.453125 3.046875 -6.40625 2.953125 -6.3125 C 2.859375 -6.226562 2.8125 -6.070312 2.8125 -5.84375 L 2.8125 -5.46875 L 4.296875 -5.46875 L 4.296875 -4.21875 L 2.8125 -4.21875 L 2.8125 0 L 1.0625 0 L 1.0625 -4.21875 L 0.1875 -4.21875 L 0.1875 -5.46875 L 1.0625 -5.46875 L 1.0625 -5.84375 C 1.0625 -6.445312 1.226562 -6.890625 1.5625 -7.171875 C 1.894531 -7.453125 2.40625 -7.59375 3.09375 -7.59375 L 4.4375 -7.59375 Z M 4.4375 -7.59375 "/>
</symbol>
<symbol overflow="visible" id="glyph0-16">
<path style="stroke:none;" d="M 2.21875 -2.796875 L 0.25 -5.46875 L 2.09375 -5.46875 L 3.21875 -3.84375 L 4.34375 -5.46875 L 6.203125 -5.46875 L 4.234375 -2.8125 L 6.296875 0 L 4.453125 0 L 3.21875 -1.734375 L 2 0 L 0.15625 0 L 2.21875 -2.796875 Z M 2.21875 -2.796875 "/>
</symbol>
<symbol overflow="visible" id="glyph0-17">
<path style="stroke:none;" d="M 6.34375 -3.328125 L 6.34375 0 L 4.578125 0 L 4.578125 -0.546875 L 4.578125 -2.546875 C 4.578125 -3.015625 4.566406 -3.335938 4.546875 -3.515625 C 4.523438 -3.703125 4.488281 -3.835938 4.4375 -3.921875 C 4.375 -4.035156 4.28125 -4.125 4.15625 -4.1875 C 4.039062 -4.25 3.910156 -4.28125 3.765625 -4.28125 C 3.398438 -4.28125 3.113281 -4.140625 2.90625 -3.859375 C 2.695312 -3.578125 2.59375 -3.1875 2.59375 -2.6875 L 2.59375 0 L 0.84375 0 L 0.84375 -7.59375 L 2.59375 -7.59375 L 2.59375 -4.671875 C 2.851562 -4.984375 3.128906 -5.210938 3.421875 -5.359375 C 3.722656 -5.515625 4.050781 -5.59375 4.40625 -5.59375 C 5.039062 -5.59375 5.519531 -5.398438 5.84375 -5.015625 C 6.175781 -4.628906 6.34375 -4.066406 6.34375 -3.328125 Z M 6.34375 -3.328125 "/>
</symbol>
<symbol overflow="visible" id="glyph0-18">
<path style="stroke:none;" d="M 0.84375 -7.59375 L 2.59375 -7.59375 L 2.59375 0 L 0.84375 0 L 0.84375 -7.59375 Z M 0.84375 -7.59375 "/>
</symbol>
<symbol overflow="visible" id="glyph0-19">
<path style="stroke:none;" d="M 5.109375 -5.296875 L 5.109375 -3.96875 C 4.734375 -4.125 4.367188 -4.238281 4.015625 -4.3125 C 3.671875 -4.394531 3.347656 -4.4375 3.046875 -4.4375 C 2.710938 -4.4375 2.460938 -4.394531 2.296875 -4.3125 C 2.140625 -4.226562 2.0625 -4.101562 2.0625 -3.9375 C 2.0625 -3.789062 2.117188 -3.679688 2.234375 -3.609375 C 2.359375 -3.535156 2.582031 -3.476562 2.90625 -3.4375 L 3.203125 -3.40625 C 4.097656 -3.289062 4.703125 -3.101562 5.015625 -2.84375 C 5.328125 -2.582031 5.484375 -2.171875 5.484375 -1.609375 C 5.484375 -1.023438 5.265625 -0.585938 4.828125 -0.296875 C 4.398438 -0.00390625 3.757812 0.140625 2.90625 0.140625 C 2.550781 0.140625 2.179688 0.109375 1.796875 0.046875 C 1.410156 -0.00390625 1.007812 -0.0859375 0.59375 -0.203125 L 0.59375 -1.53125 C 0.945312 -1.363281 1.304688 -1.234375 1.671875 -1.140625 C 2.035156 -1.054688 2.40625 -1.015625 2.78125 -1.015625 C 3.125 -1.015625 3.378906 -1.0625 3.546875 -1.15625 C 3.722656 -1.25 3.8125 -1.390625 3.8125 -1.578125 C 3.8125 -1.734375 3.753906 -1.847656 3.640625 -1.921875 C 3.523438 -2.003906 3.289062 -2.066406 2.9375 -2.109375 L 2.625 -2.15625 C 1.84375 -2.25 1.296875 -2.425781 0.984375 -2.6875 C 0.671875 -2.957031 0.515625 -3.359375 0.515625 -3.890625 C 0.515625 -4.472656 0.710938 -4.898438 1.109375 -5.171875 C 1.503906 -5.453125 2.113281 -5.59375 2.9375 -5.59375 C 3.257812 -5.59375 3.597656 -5.566406 3.953125 -5.515625 C 4.304688 -5.472656 4.691406 -5.398438 5.109375 -5.296875 Z M 5.109375 -5.296875 "/>
</symbol>
<symbol overflow="visible" id="glyph0-20">
<path style="stroke:none;" d="M 3.84375 -4.46875 C 4.132812 -4.46875 4.351562 -4.53125 4.5 -4.65625 C 4.65625 -4.789062 4.734375 -4.984375 4.734375 -5.234375 C 4.734375 -5.484375 4.65625 -5.675781 4.5 -5.8125 C 4.351562 -5.945312 4.132812 -6.015625 3.84375 -6.015625 L 2.796875 -6.015625 L 2.796875 -4.46875 L 3.84375 -4.46875 Z M 3.90625 -1.28125 C 4.28125 -1.28125 4.5625 -1.359375 4.75 -1.515625 C 4.945312 -1.679688 5.046875 -1.921875 5.046875 -2.234375 C 5.046875 -2.554688 4.945312 -2.796875 4.75 -2.953125 C 4.5625 -3.109375 4.28125 -3.1875 3.90625 -3.1875 L 2.796875 -3.1875 L 2.796875 -1.28125 L 3.90625 -1.28125 Z M 5.65625 -3.90625 C 6.050781 -3.78125 6.359375 -3.5625 6.578125 -3.25 C 6.804688 -2.9375 6.921875 -2.550781 6.921875 -2.09375 C 6.921875 -1.382812 6.679688 -0.859375 6.203125 -0.515625 C 5.734375 -0.171875 5.007812 0 4.03125 0 L 0.921875 0 L 0.921875 -7.296875 L 3.734375 -7.296875 C 4.753906 -7.296875 5.488281 -7.140625 5.9375 -6.828125 C 6.394531 -6.523438 6.625 -6.035156 6.625 -5.359375 C 6.625 -5.003906 6.539062 -4.703125 6.375 -4.453125 C 6.207031 -4.203125 5.96875 -4.019531 5.65625 -3.90625 Z M 5.65625 -3.90625 "/>
</symbol>
<symbol overflow="visible" id="glyph0-21">
<path style="stroke:none;" d="M 6.703125 -0.40625 C 6.359375 -0.21875 6 -0.0820312 5.625 0 C 5.25 0.09375 4.859375 0.140625 4.453125 0.140625 C 3.234375 0.140625 2.269531 -0.195312 1.5625 -0.875 C 0.851562 -1.550781 0.5 -2.472656 0.5 -3.640625 C 0.5 -4.804688 0.851562 -5.726562 1.5625 -6.40625 C 2.269531 -7.082031 3.234375 -7.421875 4.453125 -7.421875 C 4.859375 -7.421875 5.25 -7.375 5.625 -7.28125 C 6 -7.195312 6.359375 -7.0625 6.703125 -6.875 L 6.703125 -5.375 C 6.347656 -5.613281 6 -5.785156 5.65625 -5.890625 C 5.320312 -6.003906 4.96875 -6.0625 4.59375 -6.0625 C 3.925781 -6.0625 3.398438 -5.84375 3.015625 -5.40625 C 2.628906 -4.976562 2.4375 -4.390625 2.4375 -3.640625 C 2.4375 -2.890625 2.628906 -2.296875 3.015625 -1.859375 C 3.398438 -1.429688 3.925781 -1.21875 4.59375 -1.21875 C 4.96875 -1.21875 5.320312 -1.269531 5.65625 -1.375 C 6 -1.488281 6.347656 -1.664062 6.703125 -1.90625 L 6.703125 -0.40625 Z M 6.703125 -0.40625 "/>
</symbol>
<symbol overflow="visible" id="glyph0-22">
<path style="stroke:none;" d="M 6.34375 -3.328125 L 6.34375 0 L 4.578125 0 L 4.578125 -0.546875 L 4.578125 -2.546875 C 4.578125 -3.015625 4.566406 -3.335938 4.546875 -3.515625 C 4.523438 -3.703125 4.488281 -3.835938 4.4375 -3.921875 C 4.375 -4.035156 4.28125 -4.125 4.15625 -4.1875 C 4.039062 -4.25 3.910156 -4.28125 3.765625 -4.28125 C 3.398438 -4.28125 3.113281 -4.140625 2.90625 -3.859375 C 2.695312 -3.578125 2.59375 -3.1875 2.59375 -2.6875 L 2.59375 0 L 0.84375 0 L 0.84375 -5.46875 L 2.59375 -5.46875 L 2.59375 -4.671875 C 2.851562 -4.984375 3.128906 -5.210938 3.421875 -5.359375 C 3.722656 -5.515625 4.050781 -5.59375 4.40625 -5.59375 C 5.039062 -5.59375 5.519531 -5.398438 5.84375 -5.015625 C 6.175781 -4.628906 6.34375 -4.066406 6.34375 -3.328125 Z M 6.34375 -3.328125 "/>
</symbol>
<symbol overflow="visible" id="glyph0-23">
<path style="stroke:none;" d="M 2.59375 -0.796875 L 2.59375 2.078125 L 0.84375 2.078125 L 0.84375 -5.46875 L 2.59375 -5.46875 L 2.59375 -4.671875 C 2.832031 -4.984375 3.097656 -5.210938 3.390625 -5.359375 C 3.679688 -5.515625 4.019531 -5.59375 4.40625 -5.59375 C 5.070312 -5.59375 5.617188 -5.328125 6.046875 -4.796875 C 6.484375 -4.265625 6.703125 -3.578125 6.703125 -2.734375 C 6.703125 -1.890625 6.484375 -1.195312 6.046875 -0.65625 C 5.617188 -0.125 5.070312 0.140625 4.40625 0.140625 C 4.019531 0.140625 3.679688 0.0664062 3.390625 -0.078125 C 3.097656 -0.234375 2.832031 -0.472656 2.59375 -0.796875 Z M 3.75 -4.328125 C 3.375 -4.328125 3.085938 -4.1875 2.890625 -3.90625 C 2.691406 -3.632812 2.59375 -3.242188 2.59375 -2.734375 C 2.59375 -2.210938 2.691406 -1.8125 2.890625 -1.53125 C 3.085938 -1.257812 3.375 -1.125 3.75 -1.125 C 4.125 -1.125 4.410156 -1.257812 4.609375 -1.53125 C 4.804688 -1.8125 4.90625 -2.210938 4.90625 -2.734375 C 4.90625 -3.253906 4.804688 -3.648438 4.609375 -3.921875 C 4.410156 -4.191406 4.125 -4.328125 3.75 -4.328125 Z M 3.75 -4.328125 "/>
</symbol>
<symbol overflow="visible" id="glyph0-24">
<path style="stroke:none;" d="M 0.125 -5.46875 L 1.875 -5.46875 L 3.34375 -1.765625 L 4.59375 -5.46875 L 6.34375 -5.46875 L 4.03125 0.515625 C 3.800781 1.128906 3.53125 1.554688 3.21875 1.796875 C 2.914062 2.035156 2.515625 2.15625 2.015625 2.15625 L 1 2.15625 L 1 1.015625 L 1.546875 1.015625 C 1.847656 1.015625 2.0625 0.96875 2.1875 0.875 C 2.320312 0.78125 2.429688 0.609375 2.515625 0.359375 L 2.5625 0.203125 L 0.125 -5.46875 Z M 0.125 -5.46875 "/>
</symbol>
<symbol overflow="visible" id="glyph0-25">
<path style="stroke:none;" d="M 2.796875 -5.875 L 2.796875 -1.421875 L 3.46875 -1.421875 C 4.238281 -1.421875 4.828125 -1.609375 5.234375 -1.984375 C 5.640625 -2.367188 5.84375 -2.925781 5.84375 -3.65625 C 5.84375 -4.375 5.640625 -4.921875 5.234375 -5.296875 C 4.828125 -5.679688 4.238281 -5.875 3.46875 -5.875 L 2.796875 -5.875 Z M 0.921875 -7.296875 L 2.90625 -7.296875 C 4.007812 -7.296875 4.832031 -7.210938 5.375 -7.046875 C 5.914062 -6.890625 6.378906 -6.625 6.765625 -6.25 C 7.109375 -5.914062 7.363281 -5.535156 7.53125 -5.109375 C 7.695312 -4.679688 7.78125 -4.195312 7.78125 -3.65625 C 7.78125 -3.101562 7.695312 -2.609375 7.53125 -2.171875 C 7.363281 -1.742188 7.109375 -1.367188 6.765625 -1.046875 C 6.378906 -0.660156 5.910156 -0.390625 5.359375 -0.234375 C 4.816406 -0.078125 4 0 2.90625 0 L 0.921875 0 L 0.921875 -7.296875 Z M 0.921875 -7.296875 "/>
</symbol>
<symbol overflow="visible" id="glyph0-26">
<path style="stroke:none;" d="M 0.921875 -7.296875 L 5.984375 -7.296875 L 5.984375 -5.875 L 2.796875 -5.875 L 2.796875 -4.515625 L 5.796875 -4.515625 L 5.796875 -3.09375 L 2.796875 -3.09375 L 2.796875 -1.421875 L 6.09375 -1.421875 L 6.09375 0 L 0.921875 0 L 0.921875 -7.296875 Z M 0.921875 -7.296875 "/>
</symbol>
<symbol overflow="visible" id="glyph0-27">
<path style="stroke:none;" d="M 0.921875 -7.296875 L 5.984375 -7.296875 L 5.984375 -5.875 L 2.796875 -5.875 L 2.796875 -4.515625 L 5.796875 -4.515625 L 5.796875 -3.09375 L 2.796875 -3.09375 L 2.796875 0 L 0.921875 0 L 0.921875 -7.296875 Z M 0.921875 -7.296875 "/>
</symbol>
<symbol overflow="visible" id="glyph0-28">
<path style="stroke:none;" d="M 0.15625 -5.46875 L 1.90625 -5.46875 L 3.265625 -1.6875 L 4.625 -5.46875 L 6.375 -5.46875 L 4.21875 0 L 2.296875 0 L 0.15625 -5.46875 Z M 0.15625 -5.46875 "/>
</symbol>
<symbol overflow="visible" id="glyph0-29">
<path style="stroke:none;" d="M 7.46875 -0.546875 C 7 -0.316406 6.507812 -0.144531 6 -0.03125 C 5.5 0.0820312 4.984375 0.140625 4.453125 0.140625 C 3.234375 0.140625 2.269531 -0.195312 1.5625 -0.875 C 0.851562 -1.550781 0.5 -2.472656 0.5 -3.640625 C 0.5 -4.816406 0.859375 -5.738281 1.578125 -6.40625 C 2.304688 -7.082031 3.296875 -7.421875 4.546875 -7.421875 C 5.035156 -7.421875 5.5 -7.375 5.9375 -7.28125 C 6.382812 -7.195312 6.804688 -7.0625 7.203125 -6.875 L 7.203125 -5.375 C 6.796875 -5.601562 6.390625 -5.773438 5.984375 -5.890625 C 5.585938 -6.003906 5.1875 -6.0625 4.78125 -6.0625 C 4.03125 -6.0625 3.453125 -5.851562 3.046875 -5.4375 C 2.640625 -5.019531 2.4375 -4.421875 2.4375 -3.640625 C 2.4375 -2.867188 2.628906 -2.269531 3.015625 -1.84375 C 3.410156 -1.425781 3.96875 -1.21875 4.6875 -1.21875 C 4.882812 -1.21875 5.066406 -1.226562 5.234375 -1.25 C 5.398438 -1.28125 5.550781 -1.320312 5.6875 -1.375 L 5.6875 -2.78125 L 4.546875 -2.78125 L 4.546875 -4.046875 L 7.46875 -4.046875 L 7.46875 -0.546875 Z M 7.46875 -0.546875 "/>
</symbol>
<symbol overflow="visible" id="glyph0-30">
<path style="stroke:none;" d="M 0.921875 -7.296875 L 2.796875 -7.296875 L 2.796875 -4.515625 L 5.578125 -4.515625 L 5.578125 -7.296875 L 7.453125 -7.296875 L 7.453125 0 L 5.578125 0 L 5.578125 -3.09375 L 2.796875 -3.09375 L 2.796875 0 L 0.921875 0 L 0.921875 -7.296875 Z M 0.921875 -7.296875 "/>
</symbol>
<symbol overflow="visible" id="glyph0-31">
<path style="stroke:none;" d="M 0.921875 -7.296875 L 3.3125 -7.296875 L 4.96875 -3.390625 L 6.640625 -7.296875 L 9.03125 -7.296875 L 9.03125 0 L 7.25 0 L 7.25 -5.328125 L 5.578125 -1.40625 L 4.375 -1.40625 L 2.703125 -5.328125 L 2.703125 0 L 0.921875 0 L 0.921875 -7.296875 Z M 0.921875 -7.296875 "/>
</symbol>
<symbol overflow="visible" id="glyph0-32">
<path style="stroke:none;" d="M 1.015625 -1.890625 L 2.78125 -1.890625 L 2.78125 0 L 1.015625 0 L 1.015625 -1.890625 Z M 1.015625 -1.890625 "/>
</symbol>
<symbol overflow="visible" id="glyph0-33">
<path style="stroke:none;" d="M 0.921875 -7.296875 L 3.015625 -7.296875 L 5.671875 -2.296875 L 5.671875 -7.296875 L 7.453125 -7.296875 L 7.453125 0 L 5.359375 0 L 2.703125 -5 L 2.703125 0 L 0.921875 0 L 0.921875 -7.296875 Z M 0.921875 -7.296875 "/>
</symbol>
<symbol overflow="visible" id="glyph0-34">
<path style="stroke:none;" d="M 0.921875 -7.296875 L 4.03125 -7.296875 C 4.96875 -7.296875 5.679688 -7.085938 6.171875 -6.671875 C 6.671875 -6.265625 6.921875 -5.675781 6.921875 -4.90625 C 6.921875 -4.144531 6.671875 -3.554688 6.171875 -3.140625 C 5.679688 -2.734375 4.96875 -2.53125 4.03125 -2.53125 L 2.796875 -2.53125 L 2.796875 0 L 0.921875 0 L 0.921875 -7.296875 Z M 2.796875 -5.921875 L 2.796875 -3.890625 L 3.84375 -3.890625 C 4.207031 -3.890625 4.488281 -3.976562 4.6875 -4.15625 C 4.882812 -4.332031 4.984375 -4.582031 4.984375 -4.90625 C 4.984375 -5.238281 4.882812 -5.488281 4.6875 -5.65625 C 4.488281 -5.832031 4.207031 -5.921875 3.84375 -5.921875 L 2.796875 -5.921875 Z M 2.796875 -5.921875 "/>
</symbol>
<symbol overflow="visible" id="glyph0-35">
<path style="stroke:none;" d="M 5.984375 -7.0625 L 5.984375 -5.515625 C 5.585938 -5.691406 5.195312 -5.828125 4.8125 -5.921875 C 4.4375 -6.015625 4.078125 -6.0625 3.734375 -6.0625 C 3.285156 -6.0625 2.953125 -6 2.734375 -5.875 C 2.523438 -5.75 2.421875 -5.554688 2.421875 -5.296875 C 2.421875 -5.097656 2.492188 -4.941406 2.640625 -4.828125 C 2.785156 -4.722656 3.046875 -4.632812 3.421875 -4.5625 L 4.234375 -4.40625 C 5.035156 -4.238281 5.609375 -3.988281 5.953125 -3.65625 C 6.296875 -3.320312 6.46875 -2.847656 6.46875 -2.234375 C 6.46875 -1.429688 6.226562 -0.832031 5.75 -0.4375 C 5.28125 -0.0507812 4.550781 0.140625 3.5625 0.140625 C 3.101562 0.140625 2.640625 0.09375 2.171875 0 C 1.710938 -0.0820312 1.25 -0.207031 0.78125 -0.375 L 0.78125 -1.96875 C 1.25 -1.71875 1.695312 -1.53125 2.125 -1.40625 C 2.5625 -1.28125 2.984375 -1.21875 3.390625 -1.21875 C 3.796875 -1.21875 4.109375 -1.285156 4.328125 -1.421875 C 4.546875 -1.554688 4.65625 -1.753906 4.65625 -2.015625 C 4.65625 -2.242188 4.582031 -2.414062 4.4375 -2.53125 C 4.289062 -2.65625 3.992188 -2.769531 3.546875 -2.875 L 2.828125 -3.03125 C 2.097656 -3.1875 1.5625 -3.4375 1.21875 -3.78125 C 0.882812 -4.125 0.71875 -4.582031 0.71875 -5.15625 C 0.71875 -5.882812 0.953125 -6.441406 1.421875 -6.828125 C 1.890625 -7.222656 2.5625 -7.421875 3.4375 -7.421875 C 3.84375 -7.421875 4.253906 -7.390625 4.671875 -7.328125 C 5.097656 -7.265625 5.535156 -7.175781 5.984375 -7.0625 Z M 5.984375 -7.0625 "/>
</symbol>
<symbol overflow="visible" id="glyph0-36">
<path style="stroke:none;" d="M 0.046875 -7.296875 L 6.765625 -7.296875 L 6.765625 -5.875 L 4.34375 -5.875 L 4.34375 0 L 2.46875 0 L 2.46875 -5.875 L 0.046875 -5.875 L 0.046875 -7.296875 Z M 0.046875 -7.296875 "/>
</symbol>
<symbol overflow="visible" id="glyph0-37">
<path style="stroke:none;" d="M 4.984375 -3.71875 L 7.515625 0 L 5.546875 0 L 3.84375 -2.484375 L 2.15625 0 L 0.1875 0 L 2.71875 -3.71875 L 0.28125 -7.296875 L 2.25 -7.296875 L 3.84375 -4.9375 L 5.4375 -7.296875 L 7.40625 -7.296875 L 4.984375 -3.71875 Z M 4.984375 -3.71875 "/>
</symbol>
<symbol overflow="visible" id="glyph0-38">
<path style="stroke:none;" d="M 0.5625 -7.296875 L 6.6875 -7.296875 L 6.6875 -6.15625 L 2.78125 -1.421875 L 6.796875 -1.421875 L 6.796875 0 L 0.453125 0 L 0.453125 -1.140625 L 4.359375 -5.875 L 0.5625 -5.875 L 0.5625 -7.296875 Z M 0.5625 -7.296875 "/>
</symbol>
</g>
</defs>
<g id="surface0">
<path style="fill:none;stroke-width:0.000584804;stroke-linecap:butt;stroke-linejoin:miter;stroke:rgb(0%,0%,0%);stroke-opacity:1;stroke-miterlimit:10;" d="M -0.0500326 0.081904 L -0.0256365 0.0799029 " transform="matrix(3419.950735,0,0,3419.950735,295.628521,262.298679)"/>
<path style="fill:none;stroke-width:0.000584804;stroke-linecap:butt;stroke-linejoin:miter;stroke:rgb(0%,0%,0%);stroke-opacity:1;stroke-miterlimit:10;" d="M -0.0240374 -0.0209244 L -0.024251 -0.0190044 " transform="matrix(3419.950735,0,0,3419.950735,295.628521,262.298679)"/>
<path style="fill:none;stroke-width:0.000584804;stroke-linecap:butt;stroke-linejoin:miter;stroke:rgb(0%,0%,0%);stroke-opacity:1;stroke-miterlimit:10;" d="M -0.0181733 0.0972791 L -0.0154161 0.0907834 " transform="matrix(3419.950735,0,0,3419.950735,295.628521,262.298679)"/>
<path style="fill:none;stroke-width:0.000584804;stroke-linecap:butt;stroke-linejoin:miter;stroke:rgb(0%,0%,0%);stroke-opacity:1;stroke-miterlimit:10;" d="M 0.0625056 0.0592074 L 0.0301027 0.0509745 " transform="matrix(3419.950735,0,0,3419.950735,295.628521,262.298679)"/>
<path style="fill:none;stroke-width:0.000584804;stroke-linecap:butt;stroke-linejoin:miter;stroke:rgb(0%,0%,0%);stroke-opacity:1;stroke-miterlimit:10;" d="M -0.0228609 0.113362 L -0.0110266 0.102716 " transform="matrix(3419.950735,0,0,3419.950735,295.628521,262.298679)"/>
<path style="fill:none;stroke-width:0.000584804;stroke-linecap:butt;stroke-linejoin:miter;stroke:rgb(0%,0%,0%);stroke-opacity:1;stroke-miterlimit:10;" d="M -0.0495654 -0.0125236 L -0.0330447 -0.00573092 " transform="matrix(3419.950735,0,0,3419.950735,295.628521,262.298679)"/>
<path style="fill:none;stroke-width:0.000584804;stroke-linecap:butt;stroke-linejoin:miter;stroke:rgb(0%,0%,0%);stroke-opacity:1;stroke-miterlimit:10;" d="M -0.0685476 0.102286 L -0.00842129 0.077759 " transform="matrix(3419.950735,0,0,3419.950735,295.628521,262.298679)"/>
<path style="fill:none;stroke-width:0.000584804;stroke-linecap:butt;stroke-linejoin:miter;stroke:rgb(0%,0%,0%);stroke-opacity:1;stroke-miterlimit:10;" d="M -0.0303651 -0.0502285 L -0.026725 -0.0479202 " transform="matrix(3419.950735,0,0,3419.950735,295.628521,262.298679)"/>
<path style="fill:none;stroke-width:0.000584804;stroke-linecap:butt;stroke-linejoin:miter;stroke:rgb(0%,0%,0%);stroke-opacity:1;stroke-miterlimit:10;" d="M -0.0292149 0.0935909 L -0.00842129 0.077759 " transform="matrix(3419.950735,0,0,3419.950735,295.628521,262.298679)"/>
<path style="fill:none;stroke-width:0.000584804;stroke-linecap:butt;stroke-linejoin:miter;stroke:rgb(0%,0%,0%);stroke-opacity:1;stroke-miterlimit:10;" d="M -0.0414718 -0.0141569 L -0.0379687 -0.0119959 " transform="matrix(3419.950735,0,0,3419.950735,295.628521,262.298679)"/>
<path style="fill:none;stroke-width:0.000584804;stroke-linecap:butt;stroke-linejoin:miter;stroke:rgb(0%,0%,0%);stroke-opacity:1;stroke-miterlimit:10;" d="M -0.0430641 0.0259113 L -0.0324051 0.0130628 " transform="matrix(3419.950735,0,0,3419.950735,295.628521,262.298679)"/>
<path style="fill:none;stroke-width:0.000584804;stroke-linecap:butt;stroke-linejoin:miter;stroke:rgb(0%,0%,0%);stroke-opacity:1;stroke-miterlimit:10;" d="M 0.0521253 0.109189 L 0.0402602 0.102514 " transform="matrix(3419.950735,0,0,3419.950735,295.628521,262.298679)"/>
<path style="fill:none;stroke-width:0.000584804;stroke-linecap:butt;stroke-linejoin:miter;stroke:rgb(0%,0%,0%);stroke-opacity:1;stroke-miterlimit:10;" d="M -0.00439391 -0.033508 L -0.0240202 -0.00742479 " transform="matrix(3419.950735,0,0,3419.950735,295.628521,262.298679)"/>
<path style="fill:none;stroke-width:0.000584804;stroke-linecap:butt;stroke-linejoin:miter;stroke:rgb(0%,0%,0%);stroke-opacity:1;stroke-miterlimit:10;" d="M -0.0475358 -0.00504103 L -0.0330447 -0.00573092 " transform="matrix(3419.950735,0,0,3419.950735,295.628521,262.298679)"/>
<path style="fill:none;stroke-width:0.000584804;stroke-linecap:butt;stroke-linejoin:miter;stroke:rgb(0%,0%,0%);stroke-opacity:1;stroke-miterlimit:10;" d="M -0.0474764 0.0632211 L -0.0256365 0.0799029 " transform="matrix(3419.950735,0,0,3419.950735,295.628521,262.298679)"/>
<path style="fill:none;stroke-width:0.000584804;stroke-linecap:butt;stroke-linejoin:miter;stroke:rgb(0%,0%,0%);stroke-opacity:1;stroke-miterlimit:10;" d="M -0.0298317 -0.0124367 L -0.0258832 0.00417191 " transform="matrix(3419.950735,0,0,3419.950735,295.628521,262.298679)"/>
<path style="fill:none;stroke-width:0.000584804;stroke-linecap:butt;stroke-linejoin:miter;stroke:rgb(0%,0%,0%);stroke-opacity:1;stroke-miterlimit:10;" d="M -0.000867955 0.130444 L -0.00523342 0.0995109 " transform="matrix(3419.950735,0,0,3419.950735,295.628521,262.298679)"/>
<path style="fill:none;stroke-width:0.000584804;stroke-linecap:butt;stroke-linejoin:miter;stroke:rgb(0%,0%,0%);stroke-opacity:1;stroke-miterlimit:10;" d="M -0.00828194 0.00246776 L -0.0176285 0.0107944 " transform="matrix(3419.950735,0,0,3419.950735,295.628521,262.298679)"/>
<path style="fill:none;stroke-width:0.000584804;stroke-linecap:butt;stroke-linejoin:miter;stroke:rgb(0%,0%,0%);stroke-opacity:1;stroke-miterlimit:10;" d="M -0.0122179 0.109326 L -0.0110266 0.102716 " transform="matrix(3419.950735,0,0,3419.950735,295.628521,262.298679)"/>
<path style="fill:none;stroke-width:0.000584804;stroke-linecap:butt;stroke-linejoin:miter;stroke:rgb(0%,0%,0%);stroke-opacity:1;stroke-miterlimit:10;" d="M 0.0546598 0.0536963 L 0.0301027 0.0509745 " transform="matrix(3419.950735,0,0,3419.950735,295.628521,262.298679)"/>
<path style="fill:none;stroke-width:0.000584804;stroke-linecap:butt;stroke-linejoin:miter;stroke:rgb(0%,0%,0%);stroke-opacity:1;stroke-miterlimit:10;" d="M 0.0493715 0.0506455 L 0.0301027 0.0509745 " transform="matrix(3419.950735,0,0,3419.950735,295.628521,262.298679)"/>
<path style="fill:none;stroke-width:0.000584804;stroke-linecap:butt;stroke-linejoin:miter;stroke:rgb(0%,0%,0%);stroke-opacity:1;stroke-miterlimit:10;" d="M 0.054468 0.047348 L 0.0301027 0.0509745 " transform="matrix(3419.950735,0,0,3419.950735,295.628521,262.298679)"/>
<path style="fill:none;stroke-width:0.000584804;stroke-linecap:butt;stroke-linejoin:miter;stroke:rgb(0%,0%,0%);stroke-opacity:1;stroke-miterlimit:10;" d="M 0.0647249 0.0406079 L 0.0301027 0.0509745 " transform="matrix(3419.950735,0,0,3419.950735,295.628521,262.298679)"/>
<path style="fill:none;stroke-width:0.000584804;stroke-linecap:butt;stroke-linejoin:miter;stroke:rgb(0%,0%,0%);stroke-opacity:1;stroke-miterlimit:10;" d="M -0.0388265 -0.0135253 L -0.0379687 -0.0119959 " transform="matrix(3419.950735,0,0,3419.950735,295.628521,262.298679)"/>
<path style="fill:none;stroke-width:0.000584804;stroke-linecap:butt;stroke-linejoin:miter;stroke:rgb(0%,0%,0%);stroke-opacity:1;stroke-miterlimit:10;" d="M 0.0445286 -0.00250422 L 0.043978 0.00522045 " transform="matrix(3419.950735,0,0,3419.950735,295.628521,262.298679)"/>
<path style="fill:none;stroke-width:0.000584804;stroke-linecap:butt;stroke-linejoin:miter;stroke:rgb(0%,0%,0%);stroke-opacity:1;stroke-miterlimit:10;" d="M 0.0294996 0.0163683 L 0.0272814 0.0251266 " transform="matrix(3419.950735,0,0,3419.950735,295.628521,262.298679)"/>
<path style="fill:none;stroke-width:0.000584804;stroke-linecap:butt;stroke-linejoin:miter;stroke:rgb(0%,0%,0%);stroke-opacity:1;stroke-miterlimit:10;" d="M 0.02637 0.0152695 L 0.0253408 0.0172717 " transform="matrix(3419.950735,0,0,3419.950735,295.628521,262.298679)"/>
<path style="fill:none;stroke-width:0.000584804;stroke-linecap:butt;stroke-linejoin:miter;stroke:rgb(0%,0%,0%);stroke-opacity:1;stroke-miterlimit:10;" d="M 0.0252952 0.0097778 L 0.0253408 0.0172717 " transform="matrix(3419.950735,0,0,3419.950735,295.628521,262.298679)"/>
<path style="fill:none;stroke-width:0.000584804;stroke-linecap:butt;stroke-linejoin:miter;stroke:rgb(0%,0%,0%);stroke-opacity:1;stroke-miterlimit:10;" d="M 0.0730263 0.0306663 L 0.0301027 0.0509745 " transform="matrix(3419.950735,0,0,3419.950735,295.628521,262.298679)"/>
<path style="fill:none;stroke-width:0.000584804;stroke-linecap:butt;stroke-linejoin:miter;stroke:rgb(0%,0%,0%);stroke-opacity:1;stroke-miterlimit:10;" d="M 0.0746128 0.0846441 L 0.0557061 0.0651217 " transform="matrix(3419.950735,0,0,3419.950735,295.628521,262.298679)"/>
<path style="fill:none;stroke-width:0.000584804;stroke-linecap:butt;stroke-linejoin:miter;stroke:rgb(0%,0%,0%);stroke-opacity:1;stroke-miterlimit:10;" d="M 0.0480328 0.00306512 L 0.043978 0.00522045 " transform="matrix(3419.950735,0,0,3419.950735,295.628521,262.298679)"/>
<path style="fill:none;stroke-width:0.000584804;stroke-linecap:butt;stroke-linejoin:miter;stroke:rgb(0%,0%,0%);stroke-opacity:1;stroke-miterlimit:10;" d="M 0.0667488 0.065317 L 0.0557061 0.0651217 " transform="matrix(3419.950735,0,0,3419.950735,295.628521,262.298679)"/>
<path style="fill:none;stroke-width:0.000584804;stroke-linecap:butt;stroke-linejoin:miter;stroke:rgb(0%,0%,0%);stroke-opacity:1;stroke-miterlimit:10;" d="M 0.0722108 0.0218599 L 0.0301027 0.0509745 " transform="matrix(3419.950735,0,0,3419.950735,295.628521,262.298679)"/>
<path style="fill:none;stroke-width:0.000584804;stroke-linecap:butt;stroke-linejoin:miter;stroke:rgb(0%,0%,0%);stroke-opacity:1;stroke-miterlimit:10;" d="M 0.0467913 0.0342699 L 0.0301027 0.0509745 " transform="matrix(3419.950735,0,0,3419.950735,295.628521,262.298679)"/>
<path style="fill:none;stroke-width:0.000584804;stroke-linecap:butt;stroke-linejoin:miter;stroke:rgb(0%,0%,0%);stroke-opacity:1;stroke-miterlimit:10;" d="M -0.0683899 0.0262882 L -0.0429818 0.0185841 " transform="matrix(3419.950735,0,0,3419.950735,295.628521,262.298679)"/>
<path style="fill:none;stroke-width:0.000584804;stroke-linecap:butt;stroke-linejoin:miter;stroke:rgb(0%,0%,0%);stroke-opacity:1;stroke-miterlimit:10;" d="M -0.0173293 -0.00935168 L -0.0240202 -0.00742479 " transform="matrix(3419.950735,0,0,3419.950735,295.628521,262.298679)"/>
<path style="fill:none;stroke-width:0.000584804;stroke-linecap:butt;stroke-linejoin:miter;stroke:rgb(0%,0%,0%);stroke-opacity:1;stroke-miterlimit:10;" d="M 0.0283494 0.108588 L 0.0311763 0.0806087 " transform="matrix(3419.950735,0,0,3419.950735,295.628521,262.298679)"/>
<path style="fill:none;stroke-width:0.000584804;stroke-linecap:butt;stroke-linejoin:miter;stroke:rgb(0%,0%,0%);stroke-opacity:1;stroke-miterlimit:10;" d="M 0.0474857 0.0739372 L 0.04695 0.0719966 " transform="matrix(3419.950735,0,0,3419.950735,295.628521,262.298679)"/>
<path style="fill:none;stroke-width:0.000584804;stroke-linecap:butt;stroke-linejoin:miter;stroke:rgb(0%,0%,0%);stroke-opacity:1;stroke-miterlimit:10;" d="M -0.0240328 -0.0522548 L -0.026725 -0.0479202 " transform="matrix(3419.950735,0,0,3419.950735,295.628521,262.298679)"/>
<path style="fill:none;stroke-width:0.000584804;stroke-linecap:butt;stroke-linejoin:miter;stroke:rgb(0%,0%,0%);stroke-opacity:1;stroke-miterlimit:10;" d="M 0.00016002 0.104848 L -0.00523342 0.0995109 " transform="matrix(3419.950735,0,0,3419.950735,295.628521,262.298679)"/>
<path style="fill:none;stroke-width:0.000584804;stroke-linecap:butt;stroke-linejoin:miter;stroke:rgb(0%,0%,0%);stroke-opacity:1;stroke-miterlimit:10;" d="M -0.0259289 0.0961414 L -0.00842129 0.077759 " transform="matrix(3419.950735,0,0,3419.950735,295.628521,262.298679)"/>
<path style="fill:none;stroke-width:0.000584804;stroke-linecap:butt;stroke-linejoin:miter;stroke:rgb(0%,0%,0%);stroke-opacity:1;stroke-miterlimit:10;" d="M 0.0412002 0.116667 L 0.0402602 0.102514 " transform="matrix(3419.950735,0,0,3419.950735,295.628521,262.298679)"/>
<path style="fill:none;stroke-width:0.000584804;stroke-linecap:butt;stroke-linejoin:miter;stroke:rgb(0%,0%,0%);stroke-opacity:1;stroke-miterlimit:10;" d="M 0.0493738 0.0757099 L 0.04695 0.0719966 " transform="matrix(3419.950735,0,0,3419.950735,295.628521,262.298679)"/>
<path style="fill:none;stroke-width:0.000584804;stroke-linecap:butt;stroke-linejoin:miter;stroke:rgb(0%,0%,0%);stroke-opacity:1;stroke-miterlimit:10;" d="M 0.0562144 0.0110434 L 0.0301027 0.0509745 " transform="matrix(3419.950735,0,0,3419.950735,295.628521,262.298679)"/>
<path style="fill:none;stroke-width:0.000584804;stroke-linecap:butt;stroke-linejoin:miter;stroke:rgb(0%,0%,0%);stroke-opacity:1;stroke-miterlimit:10;" d="M -0.0314685 0.107775 L -0.0154161 0.0907834 " transform="matrix(3419.950735,0,0,3419.950735,295.628521,262.298679)"/>
<path style="fill:none;stroke-width:0.000584804;stroke-linecap:butt;stroke-linejoin:miter;stroke:rgb(0%,0%,0%);stroke-opacity:1;stroke-miterlimit:10;" d="M -0.0403057 0.0756013 L -0.0256365 0.0799029 " transform="matrix(3419.950735,0,0,3419.950735,295.628521,262.298679)"/>
<path style="fill:none;stroke-width:0.000584804;stroke-linecap:butt;stroke-linejoin:miter;stroke:rgb(0%,0%,0%);stroke-opacity:1;stroke-miterlimit:10;" d="M -0.0379996 -0.0150684 L -0.0366232 -0.0109827 " transform="matrix(3419.950735,0,0,3419.950735,295.628521,262.298679)"/>
<path style="fill:none;stroke-width:0.000584804;stroke-linecap:butt;stroke-linejoin:miter;stroke:rgb(0%,0%,0%);stroke-opacity:1;stroke-miterlimit:10;" d="M -0.0588526 0.00935405 L -0.0429818 0.0185841 " transform="matrix(3419.950735,0,0,3419.950735,295.628521,262.298679)"/>
<path style="fill:none;stroke-width:0.000584804;stroke-linecap:butt;stroke-linejoin:miter;stroke:rgb(0%,0%,0%);stroke-opacity:1;stroke-miterlimit:10;" d="M -0.00876166 0.0944316 L -0.0110266 0.102716 " transform="matrix(3419.950735,0,0,3419.950735,295.628521,262.298679)"/>
<path style="fill:none;stroke-width:0.000584804;stroke-linecap:butt;stroke-linejoin:miter;stroke:rgb(0%,0%,0%);stroke-opacity:1;stroke-miterlimit:10;" d="M -0.0366232 -0.0109827 L -0.0379687 -0.0119959 " transform="matrix(3419.950735,0,0,3419.950735,295.628521,262.298679)"/>
<path style="fill:none;stroke-width:0.000584804;stroke-linecap:butt;stroke-linejoin:miter;stroke:rgb(0%,0%,0%);stroke-opacity:1;stroke-miterlimit:10;" d="M 0.0272814 0.0251266 L 0.0253408 0.0172717 " transform="matrix(3419.950735,0,0,3419.950735,295.628521,262.298679)"/>
<path style="fill:none;stroke-width:0.000584804;stroke-linecap:butt;stroke-linejoin:miter;stroke:rgb(0%,0%,0%);stroke-opacity:1;stroke-miterlimit:10;" d="M 0.0301027 0.0509745 L 0.043978 0.00522045 " transform="matrix(3419.950735,0,0,3419.950735,295.628521,262.298679)"/>
<path style="fill:none;stroke-width:0.000584804;stroke-linecap:butt;stroke-linejoin:miter;stroke:rgb(0%,0%,0%);stroke-opacity:1;stroke-miterlimit:10;" d="M 0.0301027 0.0509745 L 0.0557061 0.0651217 " transform="matrix(3419.950735,0,0,3419.950735,295.628521,262.298679)"/>
<path style="fill:none;stroke-width:0.000584804;stroke-linecap:butt;stroke-linejoin:miter;stroke:rgb(0%,0%,0%);stroke-opacity:1;stroke-miterlimit:10;" d="M -0.024251 -0.0190044 L -0.026725 -0.0479202 " transform="matrix(3419.950735,0,0,3419.950735,295.628521,262.298679)"/>
<path style="fill:none;stroke-width:0.000584804;stroke-linecap:butt;stroke-linejoin:miter;stroke:rgb(0%,0%,0%);stroke-opacity:1;stroke-miterlimit:10;" d="M -0.00876166 0.0944316 L -0.00523342 0.0995109 " transform="matrix(3419.950735,0,0,3419.950735,295.628521,262.298679)"/>
<path style="fill:none;stroke-width:0.000584804;stroke-linecap:butt;stroke-linejoin:miter;stroke:rgb(0%,0%,0%);stroke-opacity:1;stroke-miterlimit:10;" d="M 0.0311763 0.0806087 L 0.0402602 0.102514 " transform="matrix(3419.950735,0,0,3419.950735,295.628521,262.298679)"/>
<path style="fill:none;stroke-width:0.000584804;stroke-linecap:butt;stroke-linejoin:miter;stroke:rgb(0%,0%,0%);stroke-opacity:1;stroke-miterlimit:10;" d="M 0.0301027 0.0509745 L 0.04695 0.0719966 " transform="matrix(3419.950735,0,0,3419.950735,295.628521,262.298679)"/>
<path style="fill:none;stroke-width:0.000584804;stroke-linecap:butt;stroke-linejoin:miter;stroke:rgb(0%,0%,0%);stroke-opacity:1;stroke-miterlimit:10;" d="M -0.00842129 0.077759 L -0.0154161 0.0907834 " transform="matrix(3419.950735,0,0,3419.950735,295.628521,262.298679)"/>
<path style="fill:none;stroke-width:0.000584804;stroke-linecap:butt;stroke-linejoin:miter;stroke:rgb(0%,0%,0%);stroke-opacity:1;stroke-miterlimit:10;" d="M -0.00842129 0.077759 L -0.0256365 0.0799029 " transform="matrix(3419.950735,0,0,3419.950735,295.628521,262.298679)"/>
<path style="fill:none;stroke-width:0.000584804;stroke-linecap:butt;stroke-linejoin:miter;stroke:rgb(0%,0%,0%);stroke-opacity:1;stroke-miterlimit:10;" d="M -0.0324051 0.0130628 L -0.0429818 0.0185841 " transform="matrix(3419.950735,0,0,3419.950735,295.628521,262.298679)"/>
<path style="fill:none;stroke-width:0.000584804;stroke-linecap:butt;stroke-linejoin:miter;stroke:rgb(0%,0%,0%);stroke-opacity:1;stroke-miterlimit:10;" d="M -0.0330447 -0.00573092 L -0.0366232 -0.0109827 " transform="matrix(3419.950735,0,0,3419.950735,295.628521,262.298679)"/>
<path style="fill:none;stroke-width:0.000584804;stroke-linecap:butt;stroke-linejoin:miter;stroke:rgb(0%,0%,0%);stroke-opacity:1;stroke-miterlimit:10;" d="M 0.0301027 0.0509745 L 0.0272814 0.0251266 " transform="matrix(3419.950735,0,0,3419.950735,295.628521,262.298679)"/>
<path style="fill:none;stroke-width:0.000584804;stroke-linecap:butt;stroke-linejoin:miter;stroke:rgb(0%,0%,0%);stroke-opacity:1;stroke-miterlimit:10;" d="M -0.0240202 -0.00742479 L -0.024251 -0.0190044 " transform="matrix(3419.950735,0,0,3419.950735,295.628521,262.298679)"/>
<path style="fill:none;stroke-width:0.000584804;stroke-linecap:butt;stroke-linejoin:miter;stroke:rgb(0%,0%,0%);stroke-opacity:1;stroke-miterlimit:10;" d="M -0.00842129 0.077759 L -0.00876166 0.0944316 " transform="matrix(3419.950735,0,0,3419.950735,295.628521,262.298679)"/>
<path style="fill:none;stroke-width:0.000584804;stroke-linecap:butt;stroke-linejoin:miter;stroke:rgb(0%,0%,0%);stroke-opacity:1;stroke-miterlimit:10;" d="M 0.0301027 0.0509745 L 0.0311763 0.0806087 " transform="matrix(3419.950735,0,0,3419.950735,295.628521,262.298679)"/>
<path style="fill:none;stroke-width:0.000584804;stroke-linecap:butt;stroke-linejoin:miter;stroke:rgb(0%,0%,0%);stroke-opacity:1;stroke-miterlimit:10;" d="M -0.0245457 0.00979494 L -0.0324051 0.0130628 " transform="matrix(3419.950735,0,0,3419.950735,295.628521,262.298679)"/>
<path style="fill:none;stroke-width:0.000584804;stroke-linecap:butt;stroke-linejoin:miter;stroke:rgb(0%,0%,0%);stroke-opacity:1;stroke-miterlimit:10;" d="M -0.0258832 0.00417191 L -0.0330447 -0.00573092 " transform="matrix(3419.950735,0,0,3419.950735,295.628521,262.298679)"/>
<path style="fill:none;stroke-width:0.000584804;stroke-linecap:butt;stroke-linejoin:miter;stroke:rgb(0%,0%,0%);stroke-opacity:1;stroke-miterlimit:10;" d="M -0.0258832 0.00417191 L -0.0240202 -0.00742479 " transform="matrix(3419.950735,0,0,3419.950735,295.628521,262.298679)"/>
<path style="fill:none;stroke-width:0.000584804;stroke-linecap:butt;stroke-linejoin:miter;stroke:rgb(0%,0%,0%);stroke-opacity:1;stroke-miterlimit:10;" d="M 0.0301027 0.0509745 L -0.00842129 0.077759 " transform="matrix(3419.950735,0,0,3419.950735,295.628521,262.298679)"/>
<path style="fill:none;stroke-width:0.000584804;stroke-linecap:butt;stroke-linejoin:miter;stroke:rgb(0%,0%,0%);stroke-opacity:1;stroke-miterlimit:10;" d="M -0.0245457 0.00979494 L -0.0258832 0.00417191 " transform="matrix(3419.950735,0,0,3419.950735,295.628521,262.298679)"/>
<path style="fill:none;stroke-width:0.000584804;stroke-linecap:butt;stroke-linejoin:miter;stroke:rgb(0%,0%,0%);stroke-opacity:1;stroke-miterlimit:10;" d="M -0.0176285 0.0107944 L 0.0301027 0.0509745 " transform="matrix(3419.950735,0,0,3419.950735,295.628521,262.298679)"/>
<path style="fill:none;stroke-width:0.000584804;stroke-linecap:butt;stroke-linejoin:miter;stroke:rgb(0%,0%,0%);stroke-opacity:1;stroke-miterlimit:10;" d="M -0.0176285 0.0107944 L -0.0245457 0.00979494 " transform="matrix(3419.950735,0,0,3419.950735,295.628521,262.298679)"/>
<path style="fill-rule:nonzero;fill:rgb(100%,100%,100%);fill-opacity:1;stroke-width:0.000292402;stroke-linecap:butt;stroke-linejoin:miter;stroke:rgb(0%,0%,0%);stroke-opacity:1;stroke-dasharray:0.00175441,0.00175441;stroke-miterlimit:10;" d="M -0.0248152 0.0799029 C -0.0248152 0.0809971 -0.0264577 0.0809971 -0.0264577 0.0799029 C -0.0264577 0.0788075 -0.0248152 0.0788075 -0.0248152 0.0799029 " transform="matrix(3419.950735,0,0,3419.950735,295.628521,262.298679)"/>
<path style="fill-rule:nonzero;fill:rgb(100%,100%,100%);fill-opacity:1;stroke-width:0.000292402;stroke-linecap:butt;stroke-linejoin:miter;stroke:rgb(0%,0%,0%);stroke-opacity:1;stroke-dasharray:0.00175441,0.00175441;stroke-miterlimit:10;" d="M -0.0324131 -0.00573092 C -0.0324131 -0.00488912 -0.0336764 -0.00488912 -0.0336764 -0.00573092 C -0.0336764 -0.00657386 -0.0324131 -0.00657386 -0.0324131 -0.00573092 " transform="matrix(3419.950735,0,0,3419.950735,295.628521,262.298679)"/>
<path style="fill-rule:nonzero;fill:rgb(100%,100%,100%);fill-opacity:1;stroke-width:0.000292402;stroke-linecap:butt;stroke-linejoin:miter;stroke:rgb(0%,0%,0%);stroke-opacity:1;stroke-dasharray:0.00175441,0.00175441;stroke-miterlimit:10;" d="M -0.0218135 -0.00742479 C -0.0218135 -0.00620607 -0.0228015 -0.00521807 -0.0240202 -0.00521807 C -0.025239 -0.00521807 -0.026227 -0.00620607 -0.026227 -0.00742479 C -0.026227 -0.00864352 -0.025239 -0.00963151 -0.0240202 -0.00963151 C -0.0228015 -0.00963151 -0.0218135 -0.00864352 -0.0218135 -0.00742479 " transform="matrix(3419.950735,0,0,3419.950735,295.628521,262.298679)"/>
<path style="fill-rule:nonzero;fill:rgb(100%,100%,100%);fill-opacity:1;stroke-width:0.000292402;stroke-linecap:butt;stroke-linejoin:miter;stroke:rgb(0%,0%,0%);stroke-opacity:1;stroke-dasharray:0.00175441,0.00175441;stroke-miterlimit:10;" d="M 0.00151238 0.077759 C 0.00151238 0.0832449 -0.00293533 0.0876926 -0.00842129 0.0876926 C -0.0139084 0.0876926 -0.018355 0.0832449 -0.018355 0.077759 C -0.018355 0.0722718 -0.0139084 0.0678253 -0.00842129 0.0678253 C -0.00293533 0.0678253 0.00151238 0.0722718 0.00151238 0.077759 " transform="matrix(3419.950735,0,0,3419.950735,295.628521,262.298679)"/>
<path style="fill-rule:nonzero;fill:rgb(100%,100%,100%);fill-opacity:1;stroke-width:0.000292402;stroke-linecap:butt;stroke-linejoin:miter;stroke:rgb(0%,0%,0%);stroke-opacity:1;stroke-dasharray:0.00175441,0.00175441;stroke-miterlimit:10;" d="M -0.0248586 0.00417191 C -0.0248586 0.00553683 -0.0269066 0.00553683 -0.0269066 0.00417191 C -0.0269066 0.00280585 -0.0248586 0.00280585 -0.0248586 0.00417191 " transform="matrix(3419.950735,0,0,3419.950735,295.628521,262.298679)"/>
<path style="fill-rule:nonzero;fill:rgb(100%,100%,100%);fill-opacity:1;stroke-width:0.000292402;stroke-linecap:butt;stroke-linejoin:miter;stroke:rgb(0%,0%,0%);stroke-opacity:1;stroke-dasharray:0.00175441,0.00175441;stroke-miterlimit:10;" d="M 0.0476536 0.0509745 C 0.0476536 0.0606672 0.0397953 0.0685255 0.0301027 0.0685255 C 0.02041 0.0685255 0.0125517 0.0606672 0.0125517 0.0509745 C 0.0125517 0.0412818 0.02041 0.0334235 0.0301027 0.0334235 C 0.0397953 0.0334235 0.0476536 0.0412818 0.0476536 0.0509745 " transform="matrix(3419.950735,0,0,3419.950735,295.628521,262.298679)"/>
<g style="fill:rgb(0%,0%,0%);fill-opacity:1;">
  <use xlink:href="#glyph0-1" x="38.160156" y="547.84375"/>
  <use xlink:href="#glyph0-2" x="45.899414" y="547.84375"/>
  <use xlink:href="#glyph0-3" x="53.057617" y="547.84375"/>
  <use xlink:href="#glyph0-4" x="57.989258" y="547.84375"/>
  <use xlink:href="#glyph0-5" x="64.859375" y="547.84375"/>
  <use xlink:href="#glyph0-6" x="72.017578" y="547.84375"/>
  <use xlink:href="#glyph0-7" x="78.765625" y="547.84375"/>
  <use xlink:href="#glyph0-8" x="84.693359" y="547.84375"/>
  <use xlink:href="#glyph0-9" x="89.473633" y="547.84375"/>
  <use xlink:href="#glyph0-3" x="96.255859" y="547.84375"/>
  <use xlink:href="#glyph0-10" x="101.1875" y="547.84375"/>
  <use xlink:href="#glyph0-11" x="104.615234" y="547.84375"/>
  <use xlink:href="#glyph0-12" x="111.734375" y="547.84375"/>
</g>
<g style="fill:rgb(0%,0%,0%);fill-opacity:1;">
  <use xlink:href="#glyph0-1" x="213.753906" y="188.773437"/>
  <use xlink:href="#glyph0-12" x="221.493164" y="188.773437"/>
  <use xlink:href="#glyph0-4" x="231.913086" y="188.773437"/>
  <use xlink:href="#glyph0-9" x="238.783203" y="188.773437"/>
  <use xlink:href="#glyph0-5" x="245.56543" y="188.773437"/>
  <use xlink:href="#glyph0-10" x="252.723633" y="188.773437"/>
  <use xlink:href="#glyph0-13" x="256.151367" y="188.773437"/>
  <use xlink:href="#glyph0-10" x="263.30957" y="188.773437"/>
  <use xlink:href="#glyph0-11" x="266.737305" y="188.773437"/>
  <use xlink:href="#glyph0-12" x="273.856445" y="188.773437"/>
</g>
<g style="fill:rgb(0%,0%,0%);fill-opacity:1;">
  <use xlink:href="#glyph0-1" x="189.394531" y="606.117188"/>
  <use xlink:href="#glyph0-14" x="197.133789" y="606.117188"/>
  <use xlink:href="#glyph0-11" x="204.291992" y="606.117188"/>
  <use xlink:href="#glyph0-10" x="211.411133" y="606.117188"/>
  <use xlink:href="#glyph0-15" x="214.838867" y="606.117188"/>
  <use xlink:href="#glyph0-9" x="219.189453" y="606.117188"/>
  <use xlink:href="#glyph0-16" x="225.97168" y="606.117188"/>
</g>
<g style="fill:rgb(0%,0%,0%);fill-opacity:1;">
  <use xlink:href="#glyph0-1" x="512.511719" y="471.351562"/>
  <use xlink:href="#glyph0-3" x="520.250977" y="471.351562"/>
  <use xlink:href="#glyph0-7" x="525.182617" y="471.351562"/>
  <use xlink:href="#glyph0-17" x="531.110352" y="471.351562"/>
  <use xlink:href="#glyph0-9" x="538.229492" y="471.351562"/>
  <use xlink:href="#glyph0-4" x="545.011719" y="471.351562"/>
  <use xlink:href="#glyph0-2" x="551.881836" y="471.351562"/>
  <use xlink:href="#glyph0-18" x="559.040039" y="471.351562"/>
  <use xlink:href="#glyph0-4" x="562.467773" y="471.351562"/>
  <use xlink:href="#glyph0-5" x="569.337891" y="471.351562"/>
  <use xlink:href="#glyph0-11" x="576.496094" y="471.351562"/>
  <use xlink:href="#glyph0-19" x="583.615234" y="471.351562"/>
</g>
<g style="fill:rgb(0%,0%,0%);fill-opacity:1;">
  <use xlink:href="#glyph0-20" x="172.976562" y="657.785156"/>
  <use xlink:href="#glyph0-6" x="180.598633" y="657.785156"/>
  <use xlink:href="#glyph0-7" x="187.34668" y="657.785156"/>
  <use xlink:href="#glyph0-10" x="193.274414" y="657.785156"/>
  <use xlink:href="#glyph0-18" x="196.702148" y="657.785156"/>
  <use xlink:href="#glyph0-18" x="200.129883" y="657.785156"/>
  <use xlink:href="#glyph0-11" x="203.557617" y="657.785156"/>
  <use xlink:href="#glyph0-19" x="210.676758" y="657.785156"/>
</g>
<g style="fill:rgb(0%,0%,0%);fill-opacity:1;">
  <use xlink:href="#glyph0-21" x="38.78125" y="221.105469"/>
  <use xlink:href="#glyph0-6" x="46.120117" y="221.105469"/>
  <use xlink:href="#glyph0-9" x="52.868164" y="221.105469"/>
  <use xlink:href="#glyph0-22" x="59.650391" y="221.105469"/>
  <use xlink:href="#glyph0-4" x="66.769531" y="221.105469"/>
  <use xlink:href="#glyph0-3" x="73.639648" y="221.105469"/>
  <use xlink:href="#glyph0-17" x="78.571289" y="221.105469"/>
  <use xlink:href="#glyph0-6" x="85.69043" y="221.105469"/>
  <use xlink:href="#glyph0-5" x="92.438477" y="221.105469"/>
  <use xlink:href="#glyph0-13" x="99.59668" y="221.105469"/>
  <use xlink:href="#glyph0-10" x="106.754883" y="221.105469"/>
  <use xlink:href="#glyph0-8" x="110.182617" y="221.105469"/>
  <use xlink:href="#glyph0-10" x="114.962891" y="221.105469"/>
  <use xlink:href="#glyph0-19" x="118.390625" y="221.105469"/>
</g>
<g style="fill:rgb(0%,0%,0%);fill-opacity:1;">
  <use xlink:href="#glyph0-6" x="-18.727539" y="619.585938"/>
  <use xlink:href="#glyph0-12" x="-11.979492" y="619.585938"/>
  <use xlink:href="#glyph0-23" x="-1.55957" y="619.585938"/>
  <use xlink:href="#glyph0-24" x="5.598633" y="619.585938"/>
  <use xlink:href="#glyph0-18" x="12.117188" y="619.585938"/>
  <use xlink:href="#glyph0-4" x="15.544922" y="619.585938"/>
  <use xlink:href="#glyph0-5" x="22.415039" y="619.585938"/>
  <use xlink:href="#glyph0-6" x="29.573242" y="619.585938"/>
  <use xlink:href="#glyph0-7" x="36.321289" y="619.585938"/>
  <use xlink:href="#glyph0-8" x="42.249023" y="619.585938"/>
  <use xlink:href="#glyph0-9" x="47.029297" y="619.585938"/>
  <use xlink:href="#glyph0-3" x="53.811523" y="619.585938"/>
</g>
<g style="fill:rgb(0%,0%,0%);fill-opacity:1;">
  <use xlink:href="#glyph0-21" x="144.855469" y="91.246094"/>
  <use xlink:href="#glyph0-6" x="152.194336" y="91.246094"/>
  <use xlink:href="#glyph0-22" x="158.942383" y="91.246094"/>
  <use xlink:href="#glyph0-13" x="166.061523" y="91.246094"/>
  <use xlink:href="#glyph0-10" x="173.219727" y="91.246094"/>
  <use xlink:href="#glyph0-13" x="176.647461" y="91.246094"/>
  <use xlink:href="#glyph0-6" x="183.805664" y="91.246094"/>
</g>
<g style="fill:rgb(0%,0%,0%);fill-opacity:1;">
  <use xlink:href="#glyph0-21" x="135.527344" y="591.414062"/>
  <use xlink:href="#glyph0-17" x="142.866211" y="591.414062"/>
  <use xlink:href="#glyph0-18" x="149.985352" y="591.414062"/>
  <use xlink:href="#glyph0-6" x="153.413086" y="591.414062"/>
  <use xlink:href="#glyph0-12" x="160.161133" y="591.414062"/>
  <use xlink:href="#glyph0-24" x="170.581055" y="591.414062"/>
  <use xlink:href="#glyph0-13" x="177.099609" y="591.414062"/>
  <use xlink:href="#glyph0-10" x="184.257813" y="591.414062"/>
  <use xlink:href="#glyph0-6" x="187.685547" y="591.414062"/>
</g>
<g style="fill:rgb(0%,0%,0%);fill-opacity:1;">
  <use xlink:href="#glyph0-21" x="62.351562" y="215.148438"/>
  <use xlink:href="#glyph0-3" x="69.69043" y="215.148438"/>
  <use xlink:href="#glyph0-24" x="74.62207" y="215.148438"/>
  <use xlink:href="#glyph0-23" x="81.140625" y="215.148438"/>
  <use xlink:href="#glyph0-8" x="88.298828" y="215.148438"/>
  <use xlink:href="#glyph0-4" x="93.079102" y="215.148438"/>
  <use xlink:href="#glyph0-5" x="99.949219" y="215.148438"/>
  <use xlink:href="#glyph0-3" x="107.107422" y="215.148438"/>
  <use xlink:href="#glyph0-6" x="112.039063" y="215.148438"/>
  <use xlink:href="#glyph0-22" x="118.787109" y="215.148438"/>
  <use xlink:href="#glyph0-7" x="125.90625" y="215.148438"/>
  <use xlink:href="#glyph0-17" x="131.833984" y="215.148438"/>
  <use xlink:href="#glyph0-11" x="138.953125" y="215.148438"/>
  <use xlink:href="#glyph0-19" x="146.072266" y="215.148438"/>
</g>
<g style="fill:rgb(0%,0%,0%);fill-opacity:1;">
  <use xlink:href="#glyph0-21" x="53.527344" y="361.082031"/>
  <use xlink:href="#glyph0-3" x="60.866211" y="361.082031"/>
  <use xlink:href="#glyph0-24" x="65.797852" y="361.082031"/>
  <use xlink:href="#glyph0-23" x="72.316406" y="361.082031"/>
  <use xlink:href="#glyph0-8" x="79.474609" y="361.082031"/>
  <use xlink:href="#glyph0-4" x="84.254883" y="361.082031"/>
  <use xlink:href="#glyph0-19" x="91.125" y="361.082031"/>
  <use xlink:href="#glyph0-23" x="97.077148" y="361.082031"/>
  <use xlink:href="#glyph0-4" x="104.235352" y="361.082031"/>
  <use xlink:href="#glyph0-3" x="111.105469" y="361.082031"/>
  <use xlink:href="#glyph0-10" x="116.037109" y="361.082031"/>
  <use xlink:href="#glyph0-13" x="119.464844" y="361.082031"/>
  <use xlink:href="#glyph0-10" x="126.623047" y="361.082031"/>
  <use xlink:href="#glyph0-11" x="130.050781" y="361.082031"/>
  <use xlink:href="#glyph0-12" x="137.169922" y="361.082031"/>
</g>
<g style="fill:rgb(0%,0%,0%);fill-opacity:1;">
  <use xlink:href="#glyph0-25" x="476.480469" y="642.460938"/>
  <use xlink:href="#glyph0-9" x="484.78125" y="642.460938"/>
  <use xlink:href="#glyph0-19" x="491.563477" y="642.460938"/>
  <use xlink:href="#glyph0-11" x="497.515625" y="642.460938"/>
  <use xlink:href="#glyph0-18" x="504.634766" y="642.460938"/>
  <use xlink:href="#glyph0-15" x="508.0625" y="642.460938"/>
  <use xlink:href="#glyph0-11" x="512.413086" y="642.460938"/>
  <use xlink:href="#glyph0-3" x="519.532227" y="642.460938"/>
  <use xlink:href="#glyph0-4" x="524.463867" y="642.460938"/>
  <use xlink:href="#glyph0-7" x="531.333984" y="642.460938"/>
  <use xlink:href="#glyph0-4" x="537.261719" y="642.460938"/>
  <use xlink:href="#glyph0-7" x="544.131836" y="642.460938"/>
  <use xlink:href="#glyph0-7" x="550.05957" y="642.460938"/>
  <use xlink:href="#glyph0-11" x="555.987305" y="642.460938"/>
  <use xlink:href="#glyph0-19" x="563.106445" y="642.460938"/>
</g>
<g style="fill:rgb(0%,0%,0%);fill-opacity:1;">
  <use xlink:href="#glyph0-25" x="282.535156" y="147.085937"/>
  <use xlink:href="#glyph0-10" x="290.835938" y="147.085937"/>
  <use xlink:href="#glyph0-7" x="294.263672" y="147.085937"/>
  <use xlink:href="#glyph0-8" x="300.191406" y="147.085937"/>
  <use xlink:href="#glyph0-24" x="304.97168" y="147.085937"/>
  <use xlink:href="#glyph0-4" x="311.490234" y="147.085937"/>
  <use xlink:href="#glyph0-19" x="318.360352" y="147.085937"/>
  <use xlink:href="#glyph0-8" x="324.3125" y="147.085937"/>
  <use xlink:href="#glyph0-9" x="329.092773" y="147.085937"/>
  <use xlink:href="#glyph0-18" x="335.875" y="147.085937"/>
  <use xlink:href="#glyph0-10" x="339.302734" y="147.085937"/>
  <use xlink:href="#glyph0-11" x="342.730469" y="147.085937"/>
  <use xlink:href="#glyph0-12" x="349.849609" y="147.085937"/>
</g>
<g style="fill:rgb(0%,0%,0%);fill-opacity:1;">
  <use xlink:href="#glyph0-25" x="70.75" y="250.222656"/>
  <use xlink:href="#glyph0-3" x="79.050781" y="250.222656"/>
  <use xlink:href="#glyph0-4" x="83.982422" y="250.222656"/>
  <use xlink:href="#glyph0-19" x="90.852539" y="250.222656"/>
  <use xlink:href="#glyph0-4" x="96.804687" y="250.222656"/>
  <use xlink:href="#glyph0-23" x="103.674805" y="250.222656"/>
  <use xlink:href="#glyph0-17" x="110.833008" y="250.222656"/>
  <use xlink:href="#glyph0-10" x="117.952148" y="250.222656"/>
  <use xlink:href="#glyph0-18" x="121.379883" y="250.222656"/>
  <use xlink:href="#glyph0-6" x="124.807617" y="250.222656"/>
</g>
<g style="fill:rgb(0%,0%,0%);fill-opacity:1;">
  <use xlink:href="#glyph0-26" x="68.410156" y="478.816406"/>
  <use xlink:href="#glyph0-19" x="75.241211" y="478.816406"/>
  <use xlink:href="#glyph0-7" x="81.193359" y="478.816406"/>
  <use xlink:href="#glyph0-17" x="87.121094" y="478.816406"/>
  <use xlink:href="#glyph0-9" x="94.240234" y="478.816406"/>
  <use xlink:href="#glyph0-3" x="101.022461" y="478.816406"/>
  <use xlink:href="#glyph0-10" x="105.954102" y="478.816406"/>
  <use xlink:href="#glyph0-7" x="109.381836" y="478.816406"/>
  <use xlink:href="#glyph0-17" x="115.30957" y="478.816406"/>
  <use xlink:href="#glyph0-10" x="122.428711" y="478.816406"/>
  <use xlink:href="#glyph0-6" x="125.856445" y="478.816406"/>
</g>
<g style="fill:rgb(0%,0%,0%);fill-opacity:1;">
  <use xlink:href="#glyph0-26" x="149.375" y="217.949219"/>
  <use xlink:href="#glyph0-11" x="156.206055" y="217.949219"/>
  <use xlink:href="#glyph0-2" x="163.325195" y="217.949219"/>
  <use xlink:href="#glyph0-18" x="170.483398" y="217.949219"/>
  <use xlink:href="#glyph0-9" x="173.911133" y="217.949219"/>
  <use xlink:href="#glyph0-22" x="180.693359" y="217.949219"/>
  <use xlink:href="#glyph0-6" x="187.8125" y="217.949219"/>
</g>
<g style="fill:rgb(0%,0%,0%);fill-opacity:1;">
  <use xlink:href="#glyph0-27" x="293.074219" y="718.085938"/>
  <use xlink:href="#glyph0-18" x="299.905273" y="718.085938"/>
  <use xlink:href="#glyph0-6" x="303.333008" y="718.085938"/>
  <use xlink:href="#glyph0-28" x="310.081055" y="718.085938"/>
  <use xlink:href="#glyph0-4" x="316.599609" y="718.085938"/>
  <use xlink:href="#glyph0-5" x="323.469727" y="718.085938"/>
  <use xlink:href="#glyph0-6" x="330.62793" y="718.085938"/>
  <use xlink:href="#glyph0-7" x="337.375977" y="718.085938"/>
  <use xlink:href="#glyph0-8" x="343.303711" y="718.085938"/>
  <use xlink:href="#glyph0-9" x="348.083984" y="718.085938"/>
  <use xlink:href="#glyph0-3" x="354.866211" y="718.085938"/>
  <use xlink:href="#glyph0-10" x="359.797852" y="718.085938"/>
  <use xlink:href="#glyph0-11" x="363.225586" y="718.085938"/>
  <use xlink:href="#glyph0-12" x="370.344727" y="718.085938"/>
</g>
<g style="fill:rgb(0%,0%,0%);fill-opacity:1;">
  <use xlink:href="#glyph0-29" x="269.523438" y="270.703125"/>
  <use xlink:href="#glyph0-9" x="277.731445" y="270.703125"/>
  <use xlink:href="#glyph0-18" x="284.513672" y="270.703125"/>
  <use xlink:href="#glyph0-10" x="287.941406" y="270.703125"/>
  <use xlink:href="#glyph0-13" x="291.369141" y="270.703125"/>
  <use xlink:href="#glyph0-10" x="298.527344" y="270.703125"/>
  <use xlink:href="#glyph0-11" x="301.955078" y="270.703125"/>
  <use xlink:href="#glyph0-12" x="309.074219" y="270.703125"/>
</g>
<g style="fill:rgb(0%,0%,0%);fill-opacity:1;">
  <use xlink:href="#glyph0-29" x="189.234375" y="645.828125"/>
  <use xlink:href="#glyph0-9" x="197.442383" y="645.828125"/>
  <use xlink:href="#glyph0-4" x="204.224609" y="645.828125"/>
  <use xlink:href="#glyph0-5" x="211.094727" y="645.828125"/>
  <use xlink:href="#glyph0-6" x="218.25293" y="645.828125"/>
  <use xlink:href="#glyph0-7" x="225.000977" y="645.828125"/>
  <use xlink:href="#glyph0-10" x="230.928711" y="645.828125"/>
  <use xlink:href="#glyph0-18" x="234.356445" y="645.828125"/>
  <use xlink:href="#glyph0-18" x="237.78418" y="645.828125"/>
  <use xlink:href="#glyph0-11" x="241.211914" y="645.828125"/>
  <use xlink:href="#glyph0-19" x="248.331055" y="645.828125"/>
</g>
<g style="fill:rgb(0%,0%,0%);fill-opacity:1;">
  <use xlink:href="#glyph0-30" x="485.511719" y="450.453125"/>
  <use xlink:href="#glyph0-6" x="493.880859" y="450.453125"/>
  <use xlink:href="#glyph0-18" x="500.628906" y="450.453125"/>
  <use xlink:href="#glyph0-4" x="504.056641" y="450.453125"/>
  <use xlink:href="#glyph0-6" x="510.926758" y="450.453125"/>
  <use xlink:href="#glyph0-3" x="517.674805" y="450.453125"/>
  <use xlink:href="#glyph0-7" x="522.606445" y="450.453125"/>
  <use xlink:href="#glyph0-11" x="528.53418" y="450.453125"/>
  <use xlink:href="#glyph0-18" x="535.65332" y="450.453125"/>
  <use xlink:href="#glyph0-6" x="539.081055" y="450.453125"/>
</g>
<g style="fill:rgb(0%,0%,0%);fill-opacity:1;">
  <use xlink:href="#glyph0-30" x="467.445312" y="439.269531"/>
  <use xlink:href="#glyph0-6" x="475.814453" y="439.269531"/>
  <use xlink:href="#glyph0-18" x="482.5625" y="439.269531"/>
  <use xlink:href="#glyph0-4" x="485.990234" y="439.269531"/>
  <use xlink:href="#glyph0-5" x="492.860352" y="439.269531"/>
  <use xlink:href="#glyph0-6" x="500.018555" y="439.269531"/>
  <use xlink:href="#glyph0-7" x="506.766602" y="439.269531"/>
  <use xlink:href="#glyph0-8" x="512.694336" y="439.269531"/>
  <use xlink:href="#glyph0-9" x="517.474609" y="439.269531"/>
  <use xlink:href="#glyph0-3" x="524.256836" y="439.269531"/>
  <use xlink:href="#glyph0-10" x="529.188477" y="439.269531"/>
  <use xlink:href="#glyph0-11" x="532.616211" y="439.269531"/>
  <use xlink:href="#glyph0-12" x="539.735352" y="439.269531"/>
</g>
<g style="fill:rgb(0%,0%,0%);fill-opacity:1;">
  <use xlink:href="#glyph0-30" x="484.839844" y="427.230469"/>
  <use xlink:href="#glyph0-6" x="493.208984" y="427.230469"/>
  <use xlink:href="#glyph0-18" x="499.957031" y="427.230469"/>
  <use xlink:href="#glyph0-4" x="503.384766" y="427.230469"/>
  <use xlink:href="#glyph0-15" x="510.254883" y="427.230469"/>
  <use xlink:href="#glyph0-9" x="514.605469" y="427.230469"/>
  <use xlink:href="#glyph0-3" x="521.387695" y="427.230469"/>
  <use xlink:href="#glyph0-6" x="526.319336" y="427.230469"/>
  <use xlink:href="#glyph0-16" x="533.067383" y="427.230469"/>
</g>
<g style="fill:rgb(0%,0%,0%);fill-opacity:1;">
  <use xlink:href="#glyph0-30" x="519.828125" y="403.359375"/>
  <use xlink:href="#glyph0-6" x="528.197266" y="403.359375"/>
  <use xlink:href="#glyph0-18" x="534.945312" y="403.359375"/>
  <use xlink:href="#glyph0-4" x="538.373047" y="403.359375"/>
  <use xlink:href="#glyph0-3" x="545.243164" y="403.359375"/>
  <use xlink:href="#glyph0-11" x="550.174805" y="403.359375"/>
  <use xlink:href="#glyph0-5" x="557.293945" y="403.359375"/>
  <use xlink:href="#glyph0-3" x="564.452148" y="403.359375"/>
  <use xlink:href="#glyph0-11" x="569.383789" y="403.359375"/>
  <use xlink:href="#glyph0-12" x="576.50293" y="403.359375"/>
</g>
<g style="fill:rgb(0%,0%,0%);fill-opacity:1;">
  <use xlink:href="#glyph0-30" x="130.238281" y="214.773438"/>
  <use xlink:href="#glyph0-4" x="138.607422" y="214.773438"/>
  <use xlink:href="#glyph0-12" x="145.477539" y="214.773438"/>
  <use xlink:href="#glyph0-4" x="155.897461" y="214.773438"/>
</g>
<g style="fill:rgb(0%,0%,0%);fill-opacity:1;">
  <use xlink:href="#glyph0-31" x="448.125" y="251.75"/>
  <use xlink:href="#glyph0-9" x="458.076172" y="251.75"/>
  <use xlink:href="#glyph0-8" x="464.858398" y="251.75"/>
  <use xlink:href="#glyph0-17" x="469.638672" y="251.75"/>
  <use xlink:href="#glyph0-6" x="476.757812" y="251.75"/>
  <use xlink:href="#glyph0-22" x="483.505859" y="251.75"/>
  <use xlink:href="#glyph0-4" x="490.625" y="251.75"/>
  <use xlink:href="#glyph0-7" x="497.495117" y="251.75"/>
  <use xlink:href="#glyph0-4" x="503.422852" y="251.75"/>
  <use xlink:href="#glyph0-7" x="510.292969" y="251.75"/>
  <use xlink:href="#glyph0-7" x="516.220703" y="251.75"/>
  <use xlink:href="#glyph0-11" x="522.148438" y="251.75"/>
  <use xlink:href="#glyph0-19" x="529.267578" y="251.75"/>
</g>
<g style="fill:rgb(0%,0%,0%);fill-opacity:1;">
  <use xlink:href="#glyph0-31" x="397.242188" y="316.457031"/>
  <use xlink:href="#glyph0-9" x="407.193359" y="316.457031"/>
  <use xlink:href="#glyph0-8" x="413.975586" y="316.457031"/>
  <use xlink:href="#glyph0-17" x="418.755859" y="316.457031"/>
  <use xlink:href="#glyph0-6" x="425.875" y="316.457031"/>
  <use xlink:href="#glyph0-22" x="432.623047" y="316.457031"/>
  <use xlink:href="#glyph0-4" x="439.742188" y="316.457031"/>
  <use xlink:href="#glyph0-18" x="446.612305" y="316.457031"/>
  <use xlink:href="#glyph0-4" x="450.040039" y="316.457031"/>
  <use xlink:href="#glyph0-5" x="456.910156" y="316.457031"/>
  <use xlink:href="#glyph0-11" x="464.068359" y="316.457031"/>
  <use xlink:href="#glyph0-19" x="471.1875" y="316.457031"/>
</g>
<g style="fill:rgb(0%,0%,0%);fill-opacity:1;">
  <use xlink:href="#glyph0-31" x="387.167969" y="313.167969"/>
  <use xlink:href="#glyph0-9" x="397.119141" y="313.167969"/>
  <use xlink:href="#glyph0-8" x="403.901367" y="313.167969"/>
  <use xlink:href="#glyph0-17" x="408.681641" y="313.167969"/>
  <use xlink:href="#glyph0-6" x="415.800781" y="313.167969"/>
  <use xlink:href="#glyph0-22" x="422.548828" y="313.167969"/>
  <use xlink:href="#glyph0-4" x="429.667969" y="313.167969"/>
  <use xlink:href="#glyph0-19" x="436.538086" y="313.167969"/>
  <use xlink:href="#glyph0-6" x="442.490234" y="313.167969"/>
  <use xlink:href="#glyph0-3" x="449.238281" y="313.167969"/>
  <use xlink:href="#glyph0-7" x="454.169922" y="313.167969"/>
  <use xlink:href="#glyph0-10" x="460.097656" y="313.167969"/>
  <use xlink:href="#glyph0-22" x="463.525391" y="313.167969"/>
  <use xlink:href="#glyph0-6" x="470.644531" y="313.167969"/>
</g>
<g style="fill:rgb(0%,0%,0%);fill-opacity:1;">
  <use xlink:href="#glyph0-31" x="282.640625" y="293.738281"/>
  <use xlink:href="#glyph0-9" x="292.591797" y="293.738281"/>
  <use xlink:href="#glyph0-8" x="299.374023" y="293.738281"/>
  <use xlink:href="#glyph0-17" x="304.154297" y="293.738281"/>
  <use xlink:href="#glyph0-6" x="311.273438" y="293.738281"/>
  <use xlink:href="#glyph0-22" x="318.021484" y="293.738281"/>
  <use xlink:href="#glyph0-4" x="325.140625" y="293.738281"/>
  <use xlink:href="#glyph0-19" x="332.010742" y="293.738281"/>
  <use xlink:href="#glyph0-6" x="337.962891" y="293.738281"/>
  <use xlink:href="#glyph0-3" x="344.710938" y="293.738281"/>
  <use xlink:href="#glyph0-7" x="349.642578" y="293.738281"/>
  <use xlink:href="#glyph0-10" x="355.570312" y="293.738281"/>
  <use xlink:href="#glyph0-22" x="358.998047" y="293.738281"/>
  <use xlink:href="#glyph0-6" x="366.117188" y="293.738281"/>
  <use xlink:href="#glyph0-32" x="372.865234" y="293.738281"/>
  <use xlink:href="#glyph0-28" x="376.664062" y="293.738281"/>
</g>
<g style="fill:rgb(0%,0%,0%);fill-opacity:1;">
  <use xlink:href="#glyph0-31" x="548.273438" y="369.089844"/>
  <use xlink:href="#glyph0-9" x="558.224609" y="369.089844"/>
  <use xlink:href="#glyph0-8" x="565.006836" y="369.089844"/>
  <use xlink:href="#glyph0-17" x="569.787109" y="369.089844"/>
  <use xlink:href="#glyph0-6" x="576.90625" y="369.089844"/>
  <use xlink:href="#glyph0-22" x="583.654297" y="369.089844"/>
  <use xlink:href="#glyph0-4" x="590.773438" y="369.089844"/>
  <use xlink:href="#glyph0-19" x="597.643555" y="369.089844"/>
  <use xlink:href="#glyph0-23" x="603.595703" y="369.089844"/>
  <use xlink:href="#glyph0-10" x="610.753906" y="369.089844"/>
  <use xlink:href="#glyph0-3" x="614.181641" y="369.089844"/>
  <use xlink:href="#glyph0-10" x="619.113281" y="369.089844"/>
</g>
<g style="fill:rgb(0%,0%,0%);fill-opacity:1;">
  <use xlink:href="#glyph0-31" x="552.863281" y="559.859375"/>
  <use xlink:href="#glyph0-9" x="562.814453" y="559.859375"/>
  <use xlink:href="#glyph0-8" x="569.59668" y="559.859375"/>
  <use xlink:href="#glyph0-17" x="574.376953" y="559.859375"/>
  <use xlink:href="#glyph0-6" x="581.496094" y="559.859375"/>
  <use xlink:href="#glyph0-22" x="588.244141" y="559.859375"/>
  <use xlink:href="#glyph0-4" x="595.363281" y="559.859375"/>
  <use xlink:href="#glyph0-8" x="602.233398" y="559.859375"/>
  <use xlink:href="#glyph0-17" x="607.013672" y="559.859375"/>
  <use xlink:href="#glyph0-9" x="614.132812" y="559.859375"/>
  <use xlink:href="#glyph0-3" x="620.915039" y="559.859375"/>
</g>
<g style="fill:rgb(0%,0%,0%);fill-opacity:1;">
  <use xlink:href="#glyph0-31" x="462.519531" y="273.898438"/>
  <use xlink:href="#glyph0-9" x="472.470703" y="273.898438"/>
  <use xlink:href="#glyph0-8" x="479.25293" y="273.898438"/>
  <use xlink:href="#glyph0-17" x="484.033203" y="273.898438"/>
  <use xlink:href="#glyph0-6" x="491.152344" y="273.898438"/>
  <use xlink:href="#glyph0-22" x="497.900391" y="273.898438"/>
  <use xlink:href="#glyph0-4" x="505.019531" y="273.898438"/>
  <use xlink:href="#glyph0-8" x="511.889648" y="273.898438"/>
  <use xlink:href="#glyph0-17" x="516.669922" y="273.898438"/>
  <use xlink:href="#glyph0-9" x="523.789062" y="273.898438"/>
  <use xlink:href="#glyph0-3" x="530.571289" y="273.898438"/>
  <use xlink:href="#glyph0-12" x="535.50293" y="273.898438"/>
  <use xlink:href="#glyph0-4" x="545.922852" y="273.898438"/>
  <use xlink:href="#glyph0-7" x="552.792969" y="273.898438"/>
  <use xlink:href="#glyph0-4" x="558.720703" y="273.898438"/>
  <use xlink:href="#glyph0-7" x="565.59082" y="273.898438"/>
  <use xlink:href="#glyph0-7" x="571.518555" y="273.898438"/>
  <use xlink:href="#glyph0-11" x="577.446289" y="273.898438"/>
  <use xlink:href="#glyph0-19" x="584.56543" y="273.898438"/>
</g>
<g style="fill:rgb(0%,0%,0%);fill-opacity:1;">
  <use xlink:href="#glyph0-31" x="526.875" y="489.652344"/>
  <use xlink:href="#glyph0-9" x="536.826172" y="489.652344"/>
  <use xlink:href="#glyph0-8" x="543.608398" y="489.652344"/>
  <use xlink:href="#glyph0-17" x="548.388672" y="489.652344"/>
  <use xlink:href="#glyph0-6" x="555.507812" y="489.652344"/>
  <use xlink:href="#glyph0-22" x="562.255859" y="489.652344"/>
  <use xlink:href="#glyph0-4" x="569.375" y="489.652344"/>
  <use xlink:href="#glyph0-8" x="576.245117" y="489.652344"/>
  <use xlink:href="#glyph0-17" x="581.025391" y="489.652344"/>
  <use xlink:href="#glyph0-9" x="588.144531" y="489.652344"/>
  <use xlink:href="#glyph0-3" x="594.926758" y="489.652344"/>
  <use xlink:href="#glyph0-12" x="599.858398" y="489.652344"/>
  <use xlink:href="#glyph0-11" x="610.27832" y="489.652344"/>
  <use xlink:href="#glyph0-19" x="617.397461" y="489.652344"/>
</g>
<g style="fill:rgb(0%,0%,0%);fill-opacity:1;">
  <use xlink:href="#glyph0-33" x="545.027344" y="337.585938"/>
  <use xlink:href="#glyph0-6" x="553.396484" y="337.585938"/>
  <use xlink:href="#glyph0-22" x="560.144531" y="337.585938"/>
  <use xlink:href="#glyph0-4" x="567.263672" y="337.585938"/>
  <use xlink:href="#glyph0-6" x="574.133789" y="337.585938"/>
  <use xlink:href="#glyph0-3" x="580.881836" y="337.585938"/>
  <use xlink:href="#glyph0-7" x="585.813477" y="337.585938"/>
  <use xlink:href="#glyph0-17" x="591.741211" y="337.585938"/>
  <use xlink:href="#glyph0-6" x="598.860352" y="337.585938"/>
  <use xlink:href="#glyph0-9" x="605.608398" y="337.585938"/>
  <use xlink:href="#glyph0-11" x="612.390625" y="337.585938"/>
  <use xlink:href="#glyph0-12" x="619.509766" y="337.585938"/>
</g>
<g style="fill:rgb(0%,0%,0%);fill-opacity:1;">
  <use xlink:href="#glyph0-33" x="457.75" y="379.21875"/>
  <use xlink:href="#glyph0-6" x="466.119141" y="379.21875"/>
  <use xlink:href="#glyph0-8" x="472.867188" y="379.21875"/>
  <use xlink:href="#glyph0-3" x="477.647461" y="379.21875"/>
  <use xlink:href="#glyph0-10" x="482.579102" y="379.21875"/>
  <use xlink:href="#glyph0-22" x="486.006836" y="379.21875"/>
  <use xlink:href="#glyph0-9" x="493.125977" y="379.21875"/>
  <use xlink:href="#glyph0-12" x="499.908203" y="379.21875"/>
  <use xlink:href="#glyph0-6" x="510.328125" y="379.21875"/>
</g>
<g style="fill:rgb(0%,0%,0%);fill-opacity:1;">
  <use xlink:href="#glyph0-33" x="15.492188" y="357.582031"/>
  <use xlink:href="#glyph0-4" x="23.861328" y="357.582031"/>
  <use xlink:href="#glyph0-19" x="30.731445" y="357.582031"/>
  <use xlink:href="#glyph0-9" x="36.683594" y="357.582031"/>
  <use xlink:href="#glyph0-12" x="43.46582" y="357.582031"/>
  <use xlink:href="#glyph0-6" x="53.885742" y="357.582031"/>
</g>
<g style="fill:rgb(0%,0%,0%);fill-opacity:1;">
  <use xlink:href="#glyph0-34" x="239.457031" y="233.289062"/>
  <use xlink:href="#glyph0-17" x="246.786133" y="233.289062"/>
  <use xlink:href="#glyph0-24" x="253.905273" y="233.289062"/>
  <use xlink:href="#glyph0-19" x="260.423828" y="233.289062"/>
  <use xlink:href="#glyph0-6" x="266.375977" y="233.289062"/>
  <use xlink:href="#glyph0-3" x="273.124023" y="233.289062"/>
  <use xlink:href="#glyph0-11" x="278.055664" y="233.289062"/>
  <use xlink:href="#glyph0-12" x="285.174805" y="233.289062"/>
</g>
<g style="fill:rgb(0%,0%,0%);fill-opacity:1;">
  <use xlink:href="#glyph0-34" x="320.40625" y="645.378906"/>
  <use xlink:href="#glyph0-24" x="327.735352" y="645.378906"/>
  <use xlink:href="#glyph0-3" x="334.253906" y="645.378906"/>
  <use xlink:href="#glyph0-4" x="339.185547" y="645.378906"/>
  <use xlink:href="#glyph0-5" x="346.055664" y="645.378906"/>
  <use xlink:href="#glyph0-6" x="353.213867" y="645.378906"/>
  <use xlink:href="#glyph0-7" x="359.961914" y="645.378906"/>
  <use xlink:href="#glyph0-11" x="365.889648" y="645.378906"/>
  <use xlink:href="#glyph0-18" x="373.008789" y="645.378906"/>
  <use xlink:href="#glyph0-11" x="376.436523" y="645.378906"/>
  <use xlink:href="#glyph0-12" x="383.555664" y="645.378906"/>
</g>
<g style="fill:rgb(0%,0%,0%);fill-opacity:1;">
  <use xlink:href="#glyph0-34" x="458.875" y="526.371094"/>
  <use xlink:href="#glyph0-24" x="466.204102" y="526.371094"/>
  <use xlink:href="#glyph0-3" x="472.722656" y="526.371094"/>
  <use xlink:href="#glyph0-4" x="477.654297" y="526.371094"/>
  <use xlink:href="#glyph0-7" x="484.524414" y="526.371094"/>
  <use xlink:href="#glyph0-4" x="490.452148" y="526.371094"/>
  <use xlink:href="#glyph0-7" x="497.322266" y="526.371094"/>
  <use xlink:href="#glyph0-7" x="503.25" y="526.371094"/>
  <use xlink:href="#glyph0-11" x="509.177734" y="526.371094"/>
  <use xlink:href="#glyph0-19" x="516.296875" y="526.371094"/>
</g>
<g style="fill:rgb(0%,0%,0%);fill-opacity:1;">
  <use xlink:href="#glyph0-35" x="215.132812" y="82.625"/>
  <use xlink:href="#glyph0-6" x="222.334961" y="82.625"/>
  <use xlink:href="#glyph0-7" x="229.083008" y="82.625"/>
  <use xlink:href="#glyph0-7" x="235.010742" y="82.625"/>
  <use xlink:href="#glyph0-17" x="240.938477" y="82.625"/>
  <use xlink:href="#glyph0-6" x="248.057617" y="82.625"/>
  <use xlink:href="#glyph0-3" x="254.805664" y="82.625"/>
  <use xlink:href="#glyph0-4" x="259.737305" y="82.625"/>
  <use xlink:href="#glyph0-12" x="266.607422" y="82.625"/>
  <use xlink:href="#glyph0-24" x="277.027344" y="82.625"/>
  <use xlink:href="#glyph0-7" x="283.545898" y="82.625"/>
  <use xlink:href="#glyph0-9" x="289.473633" y="82.625"/>
  <use xlink:href="#glyph0-19" x="296.255859" y="82.625"/>
</g>
<g style="fill:rgb(0%,0%,0%);fill-opacity:1;">
  <use xlink:href="#glyph0-35" x="298.457031" y="630.519531"/>
  <use xlink:href="#glyph0-23" x="305.65918" y="630.519531"/>
  <use xlink:href="#glyph0-10" x="312.817383" y="630.519531"/>
  <use xlink:href="#glyph0-3" x="316.245117" y="630.519531"/>
  <use xlink:href="#glyph0-4" x="321.176758" y="630.519531"/>
  <use xlink:href="#glyph0-7" x="328.046875" y="630.519531"/>
  <use xlink:href="#glyph0-17" x="333.974609" y="630.519531"/>
  <use xlink:href="#glyph0-6" x="341.09375" y="630.519531"/>
  <use xlink:href="#glyph0-9" x="347.841797" y="630.519531"/>
  <use xlink:href="#glyph0-8" x="354.624023" y="630.519531"/>
  <use xlink:href="#glyph0-6" x="359.404297" y="630.519531"/>
</g>
<g style="fill:rgb(0%,0%,0%);fill-opacity:1;">
  <use xlink:href="#glyph0-35" x="127.832031" y="600.804688"/>
  <use xlink:href="#glyph0-8" x="135.03418" y="600.804688"/>
  <use xlink:href="#glyph0-3" x="139.814453" y="600.804688"/>
  <use xlink:href="#glyph0-9" x="144.746094" y="600.804688"/>
  <use xlink:href="#glyph0-23" x="151.52832" y="600.804688"/>
  <use xlink:href="#glyph0-8" x="158.686523" y="600.804688"/>
  <use xlink:href="#glyph0-4" x="163.466797" y="600.804688"/>
  <use xlink:href="#glyph0-12" x="170.336914" y="600.804688"/>
  <use xlink:href="#glyph0-24" x="180.756836" y="600.804688"/>
  <use xlink:href="#glyph0-7" x="187.275391" y="600.804688"/>
  <use xlink:href="#glyph0-9" x="193.203125" y="600.804688"/>
  <use xlink:href="#glyph0-19" x="199.985352" y="600.804688"/>
</g>
<g style="fill:rgb(0%,0%,0%);fill-opacity:1;">
  <use xlink:href="#glyph0-35" x="436.726562" y="671.011719"/>
  <use xlink:href="#glyph0-11" x="443.928711" y="671.011719"/>
  <use xlink:href="#glyph0-18" x="451.047852" y="671.011719"/>
  <use xlink:href="#glyph0-15" x="454.475586" y="671.011719"/>
  <use xlink:href="#glyph0-4" x="458.826172" y="671.011719"/>
  <use xlink:href="#glyph0-18" x="465.696289" y="671.011719"/>
  <use xlink:href="#glyph0-4" x="469.124023" y="671.011719"/>
  <use xlink:href="#glyph0-5" x="475.994141" y="671.011719"/>
  <use xlink:href="#glyph0-11" x="483.152344" y="671.011719"/>
  <use xlink:href="#glyph0-19" x="490.271484" y="671.011719"/>
</g>
<g style="fill:rgb(0%,0%,0%);fill-opacity:1;">
  <use xlink:href="#glyph0-36" x="466.109375" y="530.003906"/>
  <use xlink:href="#glyph0-17" x="472.930664" y="530.003906"/>
  <use xlink:href="#glyph0-9" x="480.049805" y="530.003906"/>
  <use xlink:href="#glyph0-3" x="486.832031" y="530.003906"/>
  <use xlink:href="#glyph0-12" x="491.763672" y="530.003906"/>
  <use xlink:href="#glyph0-4" x="502.183594" y="530.003906"/>
  <use xlink:href="#glyph0-7" x="509.053711" y="530.003906"/>
  <use xlink:href="#glyph0-4" x="514.981445" y="530.003906"/>
  <use xlink:href="#glyph0-7" x="521.851562" y="530.003906"/>
  <use xlink:href="#glyph0-7" x="527.779297" y="530.003906"/>
  <use xlink:href="#glyph0-11" x="533.707031" y="530.003906"/>
  <use xlink:href="#glyph0-19" x="540.826172" y="530.003906"/>
</g>
<g style="fill:rgb(0%,0%,0%);fill-opacity:1;">
  <use xlink:href="#glyph0-36" x="489.632812" y="299.179688"/>
  <use xlink:href="#glyph0-17" x="496.454102" y="299.179688"/>
  <use xlink:href="#glyph0-9" x="503.573242" y="299.179688"/>
  <use xlink:href="#glyph0-3" x="510.355469" y="299.179688"/>
  <use xlink:href="#glyph0-12" x="515.287109" y="299.179688"/>
  <use xlink:href="#glyph0-4" x="525.707031" y="299.179688"/>
  <use xlink:href="#glyph0-23" x="532.577148" y="299.179688"/>
  <use xlink:href="#glyph0-18" x="539.735352" y="299.179688"/>
  <use xlink:href="#glyph0-6" x="543.163086" y="299.179688"/>
  <use xlink:href="#glyph0-19" x="549.911133" y="299.179688"/>
  <use xlink:href="#glyph0-12" x="555.863281" y="299.179688"/>
  <use xlink:href="#glyph0-6" x="566.283203" y="299.179688"/>
</g>
<g style="fill:rgb(0%,0%,0%);fill-opacity:1;">
  <use xlink:href="#glyph0-36" x="118.121094" y="640.753906"/>
  <use xlink:href="#glyph0-17" x="124.942383" y="640.753906"/>
  <use xlink:href="#glyph0-9" x="132.061523" y="640.753906"/>
  <use xlink:href="#glyph0-3" x="138.84375" y="640.753906"/>
  <use xlink:href="#glyph0-12" x="143.775391" y="640.753906"/>
  <use xlink:href="#glyph0-4" x="154.195312" y="640.753906"/>
  <use xlink:href="#glyph0-8" x="161.06543" y="640.753906"/>
  <use xlink:href="#glyph0-4" x="165.845703" y="640.753906"/>
  <use xlink:href="#glyph0-2" x="172.71582" y="640.753906"/>
  <use xlink:href="#glyph0-6" x="179.874023" y="640.753906"/>
</g>
<g style="fill:rgb(0%,0%,0%);fill-opacity:1;">
  <use xlink:href="#glyph0-36" x="106.308594" y="523.070312"/>
  <use xlink:href="#glyph0-17" x="113.129883" y="523.070312"/>
  <use xlink:href="#glyph0-9" x="120.249023" y="523.070312"/>
  <use xlink:href="#glyph0-3" x="127.03125" y="523.070312"/>
  <use xlink:href="#glyph0-12" x="131.962891" y="523.070312"/>
  <use xlink:href="#glyph0-11" x="142.382812" y="523.070312"/>
  <use xlink:href="#glyph0-19" x="149.501953" y="523.070312"/>
</g>
<g style="fill:rgb(0%,0%,0%);fill-opacity:1;">
  <use xlink:href="#glyph0-37" x="116.605469" y="209.117187"/>
  <use xlink:href="#glyph0-9" x="124.31543" y="209.117187"/>
  <use xlink:href="#glyph0-22" x="131.097656" y="209.117187"/>
  <use xlink:href="#glyph0-4" x="138.216797" y="209.117187"/>
  <use xlink:href="#glyph0-23" x="145.086914" y="209.117187"/>
  <use xlink:href="#glyph0-11" x="152.245117" y="209.117187"/>
  <use xlink:href="#glyph0-19" x="159.364258" y="209.117187"/>
</g>
<g style="fill:rgb(0%,0%,0%);fill-opacity:1;">
  <use xlink:href="#glyph0-38" x="72.277344" y="295.132812"/>
  <use xlink:href="#glyph0-9" x="79.52832" y="295.132812"/>
  <use xlink:href="#glyph0-6" x="86.310547" y="295.132812"/>
</g>
</g>
</svg>
