<?xml version="1.0" encoding="UTF-8"?>
<svg xmlns="http://www.w3.org/2000/svg" xmlns:xlink="http://www.w3.org/1999/xlink" width="612pt" height="792pt" viewBox="0 0 612 792" version="1.1">
<defs>
<g>
<symbol overflow="visible" id="glyph0-0">
<path style="stroke:none;" d="M 0.5 1.765625 L 0.5 -7.046875 L 5.5 -7.046875 L 5.5 1.765625 L 0.5 1.765625 Z M 1.0625 1.21875 L 4.9375 1.21875 L 4.9375 -6.484375 L 1.0625 -6.484375 L 1.0625 1.21875 Z M 1.0625 1.21875 "/>
</symbol>
<symbol overflow="visible" id="glyph0-1">
<path style="stroke:none;" d="M 5.34375 -1.328125 L 2.40625 -1.328125 L 1.9375 0 L 0.046875 0 L 2.75 -7.296875 L 4.984375 -7.296875 L 7.6875 0 L 5.796875 0 L 5.34375 -1.328125 Z M 2.875 -2.6875 L 4.875 -2.6875 L 3.875 -5.578125 L 2.875 -2.6875 Z M 2.875 -2.6875 "/>
</symbol>
<symbol overflow="visible" id="glyph0-2">
<path style="stroke:none;" d="M 4.5625 -0.921875 C 4.320312 -0.609375 4.054688 -0.375 3.765625 -0.21875 C 3.472656 -0.0703125 3.140625 0 2.765625 0 C 2.097656 0 1.546875 -0.257812 1.109375 -0.78125 C 0.671875 -1.3125 0.453125 -1.984375 0.453125 -2.796875 C 0.453125 -3.617188 0.671875 -4.289062 1.109375 -4.8125 C 1.546875 -5.332031 2.097656 -5.59375 2.765625 -5.59375 C 3.140625 -5.59375 3.472656 -5.515625 3.765625 -5.359375 C 4.054688 -5.210938 4.320312 -4.976562 4.5625 -4.65625 L 4.5625 -5.46875 L 6.3125 -5.46875 L 6.3125 -0.546875 C 6.3125 0.328125 6.035156 0.992188 5.484375 1.453125 C 4.929688 1.921875 4.128906 2.15625 3.078125 2.15625 C 2.734375 2.15625 2.398438 2.128906 2.078125 2.078125 C 1.765625 2.023438 1.445312 1.945312 1.125 1.84375 L 1.125 0.484375 C 1.425781 0.660156 1.722656 0.789062 2.015625 0.875 C 2.304688 0.957031 2.601562 1 2.90625 1 C 3.476562 1 3.894531 0.875 4.15625 0.625 C 4.425781 0.375 4.5625 -0.015625 4.5625 -0.546875 L 4.5625 -0.921875 Z M 3.40625 -4.328125 C 3.039062 -4.328125 2.757812 -4.191406 2.5625 -3.921875 C 2.363281 -3.660156 2.265625 -3.285156 2.265625 -2.796875 C 2.265625 -2.296875 2.359375 -1.914062 2.546875 -1.65625 C 2.742188 -1.394531 3.03125 -1.265625 3.40625 -1.265625 C 3.769531 -1.265625 4.050781 -1.398438 4.25 -1.671875 C 4.457031 -1.941406 4.5625 -2.316406 4.5625 -2.796875 C 4.5625 -3.285156 4.457031 -3.660156 4.25 -3.921875 C 4.050781 -4.191406 3.769531 -4.328125 3.40625 -4.328125 Z M 3.40625 -4.328125 "/>
</symbol>
<symbol overflow="visible" id="glyph0-3">
<path style="stroke:none;" d="M 4.90625 -3.984375 C 4.75 -4.054688 4.59375 -4.109375 4.4375 -4.140625 C 4.289062 -4.171875 4.140625 -4.1875 3.984375 -4.1875 C 3.535156 -4.1875 3.191406 -4.039062 2.953125 -3.75 C 2.710938 -3.46875 2.59375 -3.054688 2.59375 -2.515625 L 2.59375 0 L 0.84375 0 L 0.84375 -5.46875 L 2.59375 -5.46875 L 2.59375 -4.578125 C 2.8125 -4.929688 3.066406 -5.1875 3.359375 -5.34375 C 3.648438 -5.507812 4 -5.59375 4.40625 -5.59375 C 4.46875 -5.59375 4.53125 -5.59375 4.59375 -5.59375 C 4.664062 -5.59375 4.765625 -5.582031 4.890625 -5.5625 L 4.90625 -3.984375 Z M 4.90625 -3.984375 "/>
</symbol>
<symbol overflow="visible" id="glyph0-4">
<path style="stroke:none;" d="M 3.4375 -4.34375 C 3.050781 -4.34375 2.753906 -4.203125 2.546875 -3.921875 C 2.347656 -3.648438 2.25 -3.253906 2.25 -2.734375 C 2.25 -2.203125 2.347656 -1.796875 2.546875 -1.515625 C 2.753906 -1.242188 3.050781 -1.109375 3.4375 -1.109375 C 3.820312 -1.109375 4.113281 -1.242188 4.3125 -1.515625 C 4.519531 -1.796875 4.625 -2.203125 4.625 -2.734375 C 4.625 -3.253906 4.519531 -3.648438 4.3125 -3.921875 C 4.113281 -4.203125 3.820312 -4.34375 3.4375 -4.34375 Z M 3.4375 -5.59375 C 4.382812 -5.59375 5.117188 -5.335938 5.640625 -4.828125 C 6.171875 -4.328125 6.4375 -3.628906 6.4375 -2.734375 C 6.4375 -1.828125 6.171875 -1.117188 5.640625 -0.609375 C 5.117188 -0.109375 4.382812 0.140625 3.4375 0.140625 C 2.5 0.140625 1.765625 -0.109375 1.234375 -0.609375 C 0.703125 -1.117188 0.4375 -1.828125 0.4375 -2.734375 C 0.4375 -3.628906 0.703125 -4.328125 1.234375 -4.828125 C 1.765625 -5.335938 2.5 -5.59375 3.4375 -5.59375 Z M 3.4375 -5.59375 "/>
</symbol>
<symbol overflow="visible" id="glyph0-5">
<path style="stroke:none;" d="M 3.75 -1.125 C 4.125 -1.125 4.410156 -1.257812 4.609375 -1.53125 C 4.804688 -1.8125 4.90625 -2.210938 4.90625 -2.734375 C 4.90625 -3.253906 4.804688 -3.648438 4.609375 -3.921875 C 4.410156 -4.191406 4.125 -4.328125 3.75 -4.328125 C 3.375 -4.328125 3.085938 -4.1875 2.890625 -3.90625 C 2.691406 -3.632812 2.59375 -3.242188 2.59375 -2.734375 C 2.59375 -2.210938 2.691406 -1.8125 2.890625 -1.53125 C 3.085938 -1.257812 3.375 -1.125 3.75 -1.125 Z M 2.59375 -4.671875 C 2.832031 -4.984375 3.097656 -5.210938 3.390625 -5.359375 C 3.679688 -5.515625 4.019531 -5.59375 4.40625 -5.59375 C 5.070312 -5.59375 5.617188 -5.328125 6.046875 -4.796875 C 6.484375 -4.265625 6.703125 -3.578125 6.703125 -2.734375 C 6.703125 -1.890625 6.484375 -1.195312 6.046875 -0.65625 C 5.617188 -0.125 5.070312 0.140625 4.40625 0.140625 C 4.019531 0.140625 3.679688 0.0664062 3.390625 -0.078125 C 3.097656 -0.234375 2.832031 -0.472656 2.59375 -0.796875 L 2.59375 0 L 0.84375 0 L 0.84375 -7.59375 L 2.59375 -7.59375 L 2.59375 -4.671875 Z M 2.59375 -4.671875 "/>
</symbol>
<symbol overflow="visible" id="glyph0-6">
<path style="stroke:none;" d="M 3.296875 -2.46875 C 2.929688 -2.46875 2.65625 -2.40625 2.46875 -2.28125 C 2.28125 -2.15625 2.1875 -1.972656 2.1875 -1.734375 C 2.1875 -1.503906 2.257812 -1.328125 2.40625 -1.203125 C 2.5625 -1.078125 2.769531 -1.015625 3.03125 -1.015625 C 3.363281 -1.015625 3.640625 -1.132812 3.859375 -1.375 C 4.085938 -1.613281 4.203125 -1.910156 4.203125 -2.265625 L 4.203125 -2.46875 L 3.296875 -2.46875 Z M 5.96875 -3.125 L 5.96875 0 L 4.203125 0 L 4.203125 -0.8125 C 3.960938 -0.476562 3.695312 -0.234375 3.40625 -0.078125 C 3.113281 0.0664062 2.757812 0.140625 2.34375 0.140625 C 1.769531 0.140625 1.304688 -0.0195312 0.953125 -0.34375 C 0.609375 -0.675781 0.4375 -1.109375 0.4375 -1.640625 C 0.4375 -2.285156 0.65625 -2.753906 1.09375 -3.046875 C 1.53125 -3.347656 2.222656 -3.5 3.171875 -3.5 L 4.203125 -3.5 L 4.203125 -3.640625 C 4.203125 -3.910156 4.09375 -4.109375 3.875 -4.234375 C 3.65625 -4.367188 3.316406 -4.4375 2.859375 -4.4375 C 2.484375 -4.4375 2.132812 -4.398438 1.8125 -4.328125 C 1.488281 -4.253906 1.1875 -4.140625 0.90625 -3.984375 L 0.90625 -5.328125 C 1.28125 -5.410156 1.65625 -5.472656 2.03125 -5.515625 C 2.414062 -5.566406 2.796875 -5.59375 3.171875 -5.59375 C 4.160156 -5.59375 4.875 -5.398438 5.3125 -5.015625 C 5.75 -4.628906 5.96875 -4 5.96875 -3.125 Z M 5.96875 -3.125 "/>
</symbol>
<symbol overflow="visible" id="glyph0-7">
<path style="stroke:none;" d="M 5.265625 -5.296875 L 5.265625 -3.875 C 5.023438 -4.03125 4.785156 -4.144531 4.546875 -4.21875 C 4.304688 -4.300781 4.054688 -4.34375 3.796875 -4.34375 C 3.304688 -4.34375 2.925781 -4.203125 2.65625 -3.921875 C 2.382812 -3.640625 2.25 -3.242188 2.25 -2.734375 C 2.25 -2.222656 2.382812 -1.820312 2.65625 -1.53125 C 2.925781 -1.25 3.304688 -1.109375 3.796875 -1.109375 C 4.066406 -1.109375 4.328125 -1.148438 4.578125 -1.234375 C 4.828125 -1.316406 5.054688 -1.4375 5.265625 -1.59375 L 5.265625 -0.15625 C 4.984375 -0.0625 4.703125 0.0078125 4.421875 0.0625 C 4.140625 0.113281 3.859375 0.140625 3.578125 0.140625 C 2.585938 0.140625 1.816406 -0.109375 1.265625 -0.609375 C 0.710938 -1.117188 0.4375 -1.828125 0.4375 -2.734375 C 0.4375 -3.628906 0.710938 -4.328125 1.265625 -4.828125 C 1.816406 -5.335938 2.585938 -5.59375 3.578125 -5.59375 C 3.867188 -5.59375 4.148438 -5.566406 4.421875 -5.515625 C 4.703125 -5.472656 4.984375 -5.398438 5.265625 -5.296875 Z M 5.265625 -5.296875 "/>
</symbol>
<symbol overflow="visible" id="glyph0-8">
<path style="stroke:none;" d="M 2.75 -7.015625 L 2.75 -5.46875 L 4.546875 -5.46875 L 4.546875 -4.21875 L 2.75 -4.21875 L 2.75 -1.90625 C 2.75 -1.644531 2.796875 -1.46875 2.890625 -1.375 C 2.992188 -1.289062 3.195312 -1.25 3.5 -1.25 L 4.40625 -1.25 L 4.40625 0 L 2.90625 0 C 2.207031 0 1.710938 -0.140625 1.421875 -0.421875 C 1.140625 -0.710938 1 -1.207031 1 -1.90625 L 1 -4.21875 L 0.125 -4.21875 L 0.125 -5.46875 L 1 -5.46875 L 1 -7.015625 L 2.75 -7.015625 Z M 2.75 -7.015625 "/>
</symbol>
<symbol overflow="visible" id="glyph0-9">
<path style="stroke:none;" d="M 6.296875 -2.75 L 6.296875 -2.25 L 2.21875 -2.25 C 2.257812 -1.84375 2.40625 -1.535156 2.65625 -1.328125 C 2.90625 -1.117188 3.257812 -1.015625 3.71875 -1.015625 C 4.082031 -1.015625 4.457031 -1.066406 4.84375 -1.171875 C 5.238281 -1.285156 5.640625 -1.457031 6.046875 -1.6875 L 6.046875 -0.328125 C 5.628906 -0.171875 5.210938 -0.0546875 4.796875 0.015625 C 4.390625 0.0976562 3.976562 0.140625 3.5625 0.140625 C 2.570312 0.140625 1.800781 -0.109375 1.25 -0.609375 C 0.707031 -1.117188 0.4375 -1.828125 0.4375 -2.734375 C 0.4375 -3.617188 0.703125 -4.316406 1.234375 -4.828125 C 1.773438 -5.335938 2.519531 -5.59375 3.46875 -5.59375 C 4.320312 -5.59375 5.003906 -5.332031 5.515625 -4.8125 C 6.035156 -4.300781 6.296875 -3.613281 6.296875 -2.75 Z M 4.5 -3.328125 C 4.5 -3.660156 4.398438 -3.925781 4.203125 -4.125 C 4.015625 -4.332031 3.765625 -4.4375 3.453125 -4.4375 C 3.109375 -4.4375 2.832031 -4.34375 2.625 -4.15625 C 2.414062 -3.96875 2.285156 -3.691406 2.234375 -3.328125 L 4.5 -3.328125 Z M 4.5 -3.328125 "/>
</symbol>
<symbol overflow="visible" id="glyph0-10">
<path style="stroke:none;" d="M 0.84375 -5.46875 L 2.59375 -5.46875 L 2.59375 0 L 0.84375 0 L 0.84375 -5.46875 Z M 0.84375 -7.59375 L 2.59375 -7.59375 L 2.59375 -6.171875 L 0.84375 -6.171875 L 0.84375 -7.59375 Z M 0.84375 -7.59375 "/>
</symbol>
<symbol overflow="visible" id="glyph0-11">
<path style="stroke:none;" d="M 0.78125 -2.125 L 0.78125 -5.46875 L 2.546875 -5.46875 L 2.546875 -4.921875 C 2.546875 -4.628906 2.539062 -4.257812 2.53125 -3.8125 C 2.53125 -3.363281 2.53125 -3.0625 2.53125 -2.90625 C 2.53125 -2.46875 2.539062 -2.148438 2.5625 -1.953125 C 2.582031 -1.765625 2.625 -1.625 2.6875 -1.53125 C 2.75 -1.425781 2.835938 -1.34375 2.953125 -1.28125 C 3.078125 -1.21875 3.210938 -1.1875 3.359375 -1.1875 C 3.722656 -1.1875 4.007812 -1.320312 4.21875 -1.59375 C 4.425781 -1.875 4.53125 -2.265625 4.53125 -2.765625 L 4.53125 -5.46875 L 6.28125 -5.46875 L 6.28125 0 L 4.53125 0 L 4.53125 -0.796875 C 4.269531 -0.472656 3.988281 -0.234375 3.6875 -0.078125 C 3.394531 0.0664062 3.070312 0.140625 2.71875 0.140625 C 2.082031 0.140625 1.597656 -0.0507812 1.265625 -0.4375 C 0.941406 -0.820312 0.78125 -1.382812 0.78125 -2.125 Z M 0.78125 -2.125 "/>
</symbol>
<symbol overflow="visible" id="glyph0-12">
<path style="stroke:none;" d="M 5.90625 -4.5625 C 6.125 -4.894531 6.382812 -5.148438 6.6875 -5.328125 C 7 -5.503906 7.335938 -5.59375 7.703125 -5.59375 C 8.328125 -5.59375 8.800781 -5.398438 9.125 -5.015625 C 9.457031 -4.628906 9.625 -4.066406 9.625 -3.328125 L 9.625 0 L 7.875 0 L 7.875 -2.859375 C 7.875 -2.898438 7.875 -2.941406 7.875 -2.984375 C 7.875 -3.023438 7.875 -3.085938 7.875 -3.171875 C 7.875 -3.566406 7.816406 -3.847656 7.703125 -4.015625 C 7.597656 -4.191406 7.414062 -4.28125 7.15625 -4.28125 C 6.820312 -4.28125 6.566406 -4.144531 6.390625 -3.875 C 6.210938 -3.601562 6.117188 -3.207031 6.109375 -2.6875 L 6.109375 0 L 4.34375 0 L 4.34375 -2.859375 C 4.34375 -3.460938 4.289062 -3.847656 4.1875 -4.015625 C 4.082031 -4.191406 3.898438 -4.28125 3.640625 -4.28125 C 3.304688 -4.28125 3.046875 -4.140625 2.859375 -3.859375 C 2.679688 -3.585938 2.59375 -3.195312 2.59375 -2.6875 L 2.59375 0 L 0.828125 0 L 0.828125 -5.46875 L 2.59375 -5.46875 L 2.59375 -4.671875 C 2.800781 -4.972656 3.046875 -5.203125 3.328125 -5.359375 C 3.609375 -5.515625 3.914062 -5.59375 4.25 -5.59375 C 4.625 -5.59375 4.957031 -5.5 5.25 -5.3125 C 5.539062 -5.132812 5.757812 -4.882812 5.90625 -4.5625 Z M 5.90625 -4.5625 "/>
</symbol>
<symbol overflow="visible" id="glyph0-13">
<path style="stroke:none;" d="M 4.5625 -4.671875 L 4.5625 -7.59375 L 6.3125 -7.59375 L 6.3125 0 L 4.5625 0 L 4.5625 -0.796875 C 4.320312 -0.472656 4.054688 -0.234375 3.765625 -0.078125 C 3.472656 0.0664062 3.140625 0.140625 2.765625 0.140625 C 2.085938 0.140625 1.53125 -0.125 1.09375 -0.65625 C 0.664062 -1.195312 0.453125 -1.890625 0.453125 -2.734375 C 0.453125 -3.578125 0.664062 -4.265625 1.09375 -4.796875 C 1.53125 -5.328125 2.085938 -5.59375 2.765625 -5.59375 C 3.140625 -5.59375 3.472656 -5.515625 3.765625 -5.359375 C 4.054688 -5.210938 4.320312 -4.984375 4.5625 -4.671875 Z M 3.40625 -1.125 C 3.78125 -1.125 4.066406 -1.257812 4.265625 -1.53125 C 4.460938 -1.8125 4.5625 -2.210938 4.5625 -2.734375 C 4.5625 -3.253906 4.460938 -3.648438 4.265625 -3.921875 C 4.066406 -4.191406 3.78125 -4.328125 3.40625 -4.328125 C 3.039062 -4.328125 2.757812 -4.191406 2.5625 -3.921875 C 2.363281 -3.648438 2.265625 -3.253906 2.265625 -2.734375 C 2.265625 -2.210938 2.363281 -1.8125 2.5625 -1.53125 C 2.757812 -1.257812 3.039062 -1.125 3.40625 -1.125 Z M 3.40625 -1.125 "/>
</symbol>
<symbol overflow="visible" id="glyph0-14">
<path style="stroke:none;" d="M 3.40625 -4.328125 C 3.039062 -4.328125 2.757812 -4.191406 2.5625 -3.921875 C 2.363281 -3.648438 2.265625 -3.253906 2.265625 -2.734375 C 2.265625 -2.210938 2.363281 -1.8125 2.5625 -1.53125 C 2.757812 -1.257812 3.039062 -1.125 3.40625 -1.125 C 3.78125 -1.125 4.066406 -1.257812 4.265625 -1.53125 C 4.460938 -1.8125 4.5625 -2.210938 4.5625 -2.734375 C 4.5625 -3.253906 4.460938 -3.648438 4.265625 -3.921875 C 4.066406 -4.191406 3.78125 -4.328125 3.40625 -4.328125 Z M 4.5625 -0.796875 C 4.320312 -0.472656 4.054688 -0.234375 3.765625 -0.078125 C 3.472656 0.0664062 3.140625 0.140625 2.765625 0.140625 C 2.085938 0.140625 1.53125 -0.125 1.09375 -0.65625 C 0.664062 -1.195312 0.453125 -1.890625 0.453125 -2.734375 C 0.453125 -3.578125 0.664062 -4.265625 1.09375 -4.796875 C 1.53125 -5.328125 2.085938 -5.59375 2.765625 -5.59375 C 3.140625 -5.59375 3.472656 -5.515625 3.765625 -5.359375 C 4.054688 -5.210938 4.320312 -4.976562 4.5625 -4.65625 L 4.5625 -5.46875 L 6.3125 -5.46875 L 6.3125 2.078125 L 4.5625 2.078125 L 4.5625 -0.796875 Z M 4.5625 -0.796875 "/>
</symbol>
<symbol overflow="visible" id="glyph0-15">
<path style="stroke:none;" d="M 4.4375 -7.59375 L 4.4375 -6.453125 L 3.46875 -6.453125 C 3.21875 -6.453125 3.046875 -6.40625 2.953125 -6.3125 C 2.859375 -6.226562 2.8125 -6.070312 2.8125 -5.84375 L 2.8125 -5.46875 L 4.296875 -5.46875 L 4.296875 -4.21875 L 2.8125 -4.21875 L 2.8125 0 L 1.0625 0 L 1.0625 -4.21875 L 0.1875 -4.21875 L 0.1875 -5.46875 L 1.0625 -5.46875 L 1.0625 -5.84375 C 1.0625 -6.445312 1.226562 -6.890625 1.5625 -7.171875 C 1.894531 -7.453125 2.40625 -7.59375 3.09375 -7.59375 L 4.4375 -7.59375 Z M 4.4375 -7.59375 "/>
</symbol>
<symbol overflow="visible" id="glyph0-16">
<path style="stroke:none;" d="M 2.21875 -2.796875 L 0.25 -5.46875 L 2.09375 -5.46875 L 3.21875 -3.84375 L 4.34375 -5.46875 L 6.203125 -5.46875 L 4.234375 -2.8125 L 6.296875 0 L 4.453125 0 L 3.21875 -1.734375 L 2 0 L 0.15625 0 L 2.21875 -2.796875 Z M 2.21875 -2.796875 "/>
</symbol>
<symbol overflow="visible" id="glyph0-17">
<path style="stroke:none;" d="M 6.34375 -3.328125 L 6.34375 0 L 4.578125 0 L 4.578125 -0.546875 L 4.578125 -2.546875 C 4.578125 -3.015625 4.566406 -3.335938 4.546875 -3.515625 C 4.523438 -3.703125 4.488281 -3.835938 4.4375 -3.921875 C 4.375 -4.035156 4.28125 -4.125 4.15625 -4.1875 C 4.039062 -4.25 3.910156 -4.28125 3.765625 -4.28125 C 3.398438 -4.28125 3.113281 -4.140625 2.90625 -3.859375 C 2.695312 -3.578125 2.59375 -3.1875 2.59375 -2.6875 L 2.59375 0 L 0.84375 0 L 0.84375 -7.59375 L 2.59375 -7.59375 L 2.59375 -4.671875 C 2.851562 -4.984375 3.128906 -5.210938 3.421875 -5.359375 C 3.722656 -5.515625 4.050781 -5.59375 4.40625 -5.59375 C 5.039062 -5.59375 5.519531 -5.398438 5.84375 -5.015625 C 6.175781 -4.628906 6.34375 -4.066406 6.34375 -3.328125 Z M 6.34375 -3.328125 "/>
</symbol>
<symbol overflow="visible" id="glyph0-18">
<path style="stroke:none;" d="M 0.84375 -7.59375 L 2.59375 -7.59375 L 2.59375 0 L 0.84375 0 L 0.84375 -7.59375 Z M 0.84375 -7.59375 "/>
</symbol>
<symbol overflow="visible" id="glyph0-19">
<path style="stroke:none;" d="M 5.109375 -5.296875 L 5.109375 -3.96875 C 4.734375 -4.125 4.367188 -4.238281 4.015625 -4.3125 C 3.671875 -4.394531 3.347656 -4.4375 3.046875 -4.4375 C 2.710938 -4.4375 2.460938 -4.394531 2.296875 -4.3125 C 2.140625 -4.226562 2.0625 -4.101562 2.0625 -3.9375 C 2.0625 -3.789062 2.117188 -3.679688 2.234375 -3.609375 C 2.359375 -3.535156 2.582031 -3.476562 2.90625 -3.4375 L 3.203125 -3.40625 C 4.097656 -3.289062 4.703125 -3.101562 5.015625 -2.84375 C 5.328125 -2.582031 5.484375 -2.171875 5.484375 -1.609375 C 5.484375 -1.023438 5.265625 -0.585938 4.828125 -0.296875 C 4.398438 -0.00390625 3.757812 0.140625 2.90625 0.140625 C 2.550781 0.140625 2.179688 0.109375 1.796875 0.046875 C 1.410156 -0.00390625 1.007812 -0.0859375 0.59375 -0.203125 L 0.59375 -1.53125 C 0.945312 -1.363281 1.304688 -1.234375 1.671875 -1.140625 C 2.035156 -1.054688 2.40625 -1.015625 2.78125 -1.015625 C 3.125 -1.015625 3.378906 -1.0625 3.546875 -1.15625 C 3.722656 -1.25 3.8125 -1.390625 3.8125 -1.578125 C 3.8125 -1.734375 3.753906 -1.847656 3.640625 -1.921875 C 3.523438 -2.003906 3.289062 -2.066406 2.9375 -2.109375 L 2.625 -2.15625 C 1.84375 -2.25 1.296875 -2.425781 0.984375 -2.6875 C 0.671875 -2.957031 0.515625 -3.359375 0.515625 -3.890625 C 0.515625 -4.472656 0.710938 -4.898438 1.109375 -5.171875 C 1.503906 -5.453125 2.113281 -5.59375 2.9375 -5.59375 C 3.257812 -5.59375 3.597656 -5.566406 3.953125 -5.515625 C 4.304688 -5.472656 4.691406 -5.398438 5.109375 -5.296875 Z M 5.109375 -5.296875 "/>
</symbol>
<symbol overflow="visible" id="glyph0-20">
<path style="stroke:none;" d="M 3.84375 -4.46875 C 4.132812 -4.46875 4.351562 -4.53125 4.5 -4.65625 C 4.65625 -4.789062 4.734375 -4.984375 4.734375 -5.234375 C 4.734375 -5.484375 4.65625 -5.675781 4.5 -5.8125 C 4.351562 -5.945312 4.132812 -6.015625 3.84375 -6.015625 L 2.796875 -6.015625 L 2.796875 -4.46875 L 3.84375 -4.46875 Z M 3.90625 -1.28125 C 4.28125 -1.28125 4.5625 -1.359375 4.75 -1.515625 C 4.945312 -1.679688 5.046875 -1.921875 5.046875 -2.234375 C 5.046875 -2.554688 4.945312 -2.796875 4.75 -2.953125 C 4.5625 -3.109375 4.28125 -3.1875 3.90625 -3.1875 L 2.796875 -3.1875 L 2.796875 -1.28125 L 3.90625 -1.28125 Z M 5.65625 -3.90625 C 6.050781 -3.78125 6.359375 -3.5625 6.578125 -3.25 C 6.804688 -2.9375 6.921875 -2.550781 6.921875 -2.09375 C 6.921875 -1.382812 6.679688 -0.859375 6.203125 -0.515625 C 5.734375 -0.171875 5.007812 0 4.03125 0 L 0.921875 0 L 0.921875 -7.296875 L 3.734375 -7.296875 C 4.753906 -7.296875 5.488281 -7.140625 5.9375 -6.828125 C 6.394531 -6.523438 6.625 -6.035156 6.625 -5.359375 C 6.625 -5.003906 6.539062 -4.703125 6.375 -4.453125 C 6.207031 -4.203125 5.96875 -4.019531 5.65625 -3.90625 Z M 5.65625 -3.90625 "/>
</symbol>
<symbol overflow="visible" id="glyph0-21">
<path style="stroke:none;" d="M 6.703125 -0.40625 C 6.359375 -0.21875 6 -0.0820312 5.625 0 C 5.25 0.09375 4.859375 0.140625 4.453125 0.140625 C 3.234375 0.140625 2.269531 -0.195312 1.5625 -0.875 C 0.851562 -1.550781 0.5 -2.472656 0.5 -3.640625 C 0.5 -4.804688 0.851562 -5.726562 1.5625 -6.40625 C 2.269531 -7.082031 3.234375 -7.421875 4.453125 -7.421875 C 4.859375 -7.421875 5.25 -7.375 5.625 -7.28125 C 6 -7.195312 6.359375 -7.0625 6.703125 -6.875 L 6.703125 -5.375 C 6.347656 -5.613281 6 -5.785156 5.65625 -5.890625 C 5.320312 -6.003906 4.96875 -6.0625 4.59375 -6.0625 C 3.925781 -6.0625 3.398438 -5.84375 3.015625 -5.40625 C 2.628906 -4.976562 2.4375 -4.390625 2.4375 -3.640625 C 2.4375 -2.890625 2.628906 -2.296875 3.015625 -1.859375 C 3.398438 -1.429688 3.925781 -1.21875 4.59375 -1.21875 C 4.96875 -1.21875 5.320312 -1.269531 5.65625 -1.375 C 6 -1.488281 6.347656 -1.664062 6.703125 -1.90625 L 6.703125 -0.40625 Z M 6.703125 -0.40625 "/>
</symbol>
<symbol overflow="visible" id="glyph0-22">
<path style="stroke:none;" d="M 6.34375 -3.328125 L 6.34375 0 L 4.578125 0 L 4.578125 -0.546875 L 4.578125 -2.546875 C 4.578125 -3.015625 4.566406 -3.335938 4.546875 -3.515625 C 4.523438 -3.703125 4.488281 -3.835938 4.4375 -3.921875 C 4.375 -4.035156 4.28125 -4.125 4.15625 -4.1875 C 4.039062 -4.25 3.910156 -4.28125 3.765625 -4.28125 C 3.398438 -4.28125 3.113281 -4.140625 2.90625 -3.859375 C 2.695312 -3.578125 2.59375 -3.1875 2.59375 -2.6875 L 2.59375 0 L 0.84375 0 L 0.84375 -5.46875 L 2.59375 -5.46875 L 2.59375 -4.671875 C 2.851562 -4.984375 3.128906 -5.210938 3.421875 -5.359375 C 3.722656 -5.515625 4.050781 -5.59375 4.40625 -5.59375 C 5.039062 -5.59375 5.519531 -5.398438 5.84375 -5.015625 C 6.175781 -4.628906 6.34375 -4.066406 6.34375 -3.328125 Z M 6.34375 -3.328125 "/>
</symbol>
<symbol overflow="visible" id="glyph0-23">
<path style="stroke:none;" d="M 2.59375 -0.796875 L 2.59375 2.078125 L 0.84375 2.078125 L 0.84375 -5.46875 L 2.59375 -5.46875 L 2.59375 -4.671875 C 2.832031 -4.984375 3.097656 -5.210938 3.390625 -5.359375 C 3.679688 -5.515625 4.019531 -5.59375 4.40625 -5.59375 C 5.070312 -5.59375 5.617188 -5.328125 6.046875 -4.796875 C 6.484375 -4.265625 6.703125 -3.578125 6.703125 -2.734375 C 6.703125 -1.890625 6.484375 -1.195312 6.046875 -0.65625 C 5.617188 -0.125 5.070312 0.140625 4.40625 0.140625 C 4.019531 0.140625 3.679688 0.0664062 3.390625 -0.078125 C 3.097656 -0.234375 2.832031 -0.472656 2.59375 -0.796875 Z M 3.75 -4.328125 C 3.375 -4.328125 3.085938 -4.1875 2.890625 -3.90625 C 2.691406 -3.632812 2.59375 -3.242188 2.59375 -2.734375 C 2.59375 -2.210938 2.691406 -1.8125 2.890625 -1.53125 C 3.085938 -1.257812 3.375 -1.125 3.75 -1.125 C 4.125 -1.125 4.410156 -1.257812 4.609375 -1.53125 C 4.804688 -1.8125 4.90625 -2.210938 4.90625 -2.734375 C 4.90625 -3.253906 4.804688 -3.648438 4.609375 -3.921875 C 4.410156 -4.191406 4.125 -4.328125 3.75 -4.328125 Z M 3.75 -4.328125 "/>
</symbol>
<symbol overflow="visible" id="glyph0-24">
<path style="stroke:none;" d="M 0.125 -5.46875 L 1.875 -5.46875 L 3.34375 -1.765625 L 4.59375 -5.46875 L 6.34375 -5.46875 L 4.03125 0.515625 C 3.800781 1.128906 3.53125 1.554688 3.21875 1.796875 C 2.914062 2.035156 2.515625 2.15625 2.015625 2.15625 L 1 2.15625 L 1 1.015625 L 1.546875 1.015625 C 1.847656 1.015625 2.0625 0.96875 2.1875 0.875 C 2.320312 0.78125 2.429688 0.609375 2.515625 0.359375 L 2.5625 0.203125 L 0.125 -5.46875 Z M 0.125 -5.46875 "/>
</symbol>
<symbol overflow="visible" id="glyph0-25">
<path style="stroke:none;" d="M 2.796875 -5.875 L 2.796875 -1.421875 L 3.46875 -1.421875 C 4.238281 -1.421875 4.828125 -1.609375 5.234375 -1.984375 C 5.640625 -2.367188 5.84375 -2.925781 5.84375 -3.65625 C 5.84375 -4.375 5.640625 -4.921875 5.234375 -5.296875 C 4.828125 -5.679688 4.238281 -5.875 3.46875 -5.875 L 2.796875 -5.875 Z M 0.921875 -7.296875 L 2.90625 -7.296875 C 4.007812 -7.296875 4.832031 -7.210938 5.375 -7.046875 C 5.914062 -6.890625 6.378906 -6.625 6.765625 -6.25 C 7.109375 -5.914062 7.363281 -5.535156 7.53125 -5.109375 C 7.695312 -4.679688 7.78125 -4.195312 7.78125 -3.65625 C 7.78125 -3.101562 7.695312 -2.609375 7.53125 -2.171875 C 7.363281 -1.742188 7.109375 -1.367188 6.765625 -1.046875 C 6.378906 -0.660156 5.910156 -0.390625 5.359375 -0.234375 C 4.816406 -0.078125 4 0 2.90625 0 L 0.921875 0 L 0.921875 -7.296875 Z M 0.921875 -7.296875 "/>
</symbol>
<symbol overflow="visible" id="glyph0-26">
<path style="stroke:none;" d="M 0.921875 -7.296875 L 5.984375 -7.296875 L 5.984375 -5.875 L 2.796875 -5.875 L 2.796875 -4.515625 L 5.796875 -4.515625 L 5.796875 -3.09375 L 2.796875 -3.09375 L 2.796875 -1.421875 L 6.09375 -1.421875 L 6.09375 0 L 0.921875 0 L 0.921875 -7.296875 Z M 0.921875 -7.296875 "/>
</symbol>
<symbol overflow="visible" id="glyph0-27">
<path style="stroke:none;" d="M 0.15625 -5.46875 L 1.90625 -5.46875 L 3.265625 -1.6875 L 4.625 -5.46875 L 6.375 -5.46875 L 4.21875 0 L 2.296875 0 L 0.15625 -5.46875 Z M 0.15625 -5.46875 "/>
</symbol>
<symbol overflow="visible" id="glyph0-28">
<path style="stroke:none;" d="M 7.46875 -0.546875 C 7 -0.316406 6.507812 -0.144531 6 -0.03125 C 5.5 0.0820312 4.984375 0.140625 4.453125 0.140625 C 3.234375 0.140625 2.269531 -0.195312 1.5625 -0.875 C 0.851562 -1.550781 0.5 -2.472656 0.5 -3.640625 C 0.5 -4.816406 0.859375 -5.738281 1.578125 -6.40625 C 2.304688 -7.082031 3.296875 -7.421875 4.546875 -7.421875 C 5.035156 -7.421875 5.5 -7.375 5.9375 -7.28125 C 6.382812 -7.195312 6.804688 -7.0625 7.203125 -6.875 L 7.203125 -5.375 C 6.796875 -5.601562 6.390625 -5.773438 5.984375 -5.890625 C 5.585938 -6.003906 5.1875 -6.0625 4.78125 -6.0625 C 4.03125 -6.0625 3.453125 -5.851562 3.046875 -5.4375 C 2.640625 -5.019531 2.4375 -4.421875 2.4375 -3.640625 C 2.4375 -2.867188 2.628906 -2.269531 3.015625 -1.84375 C 3.410156 -1.425781 3.96875 -1.21875 4.6875 -1.21875 C 4.882812 -1.21875 5.066406 -1.226562 5.234375 -1.25 C 5.398438 -1.28125 5.550781 -1.320312 5.6875 -1.375 L 5.6875 -2.78125 L 4.546875 -2.78125 L 4.546875 -4.046875 L 7.46875 -4.046875 L 7.46875 -0.546875 Z M 7.46875 -0.546875 "/>
</symbol>
<symbol overflow="visible" id="glyph0-29">
<path style="stroke:none;" d="M 0.921875 -7.296875 L 2.796875 -7.296875 L 2.796875 -4.515625 L 5.578125 -4.515625 L 5.578125 -7.296875 L 7.453125 -7.296875 L 7.453125 0 L 5.578125 0 L 5.578125 -3.09375 L 2.796875 -3.09375 L 2.796875 0 L 0.921875 0 L 0.921875 -7.296875 Z M 0.921875 -7.296875 "/>
</symbol>
<symbol overflow="visible" id="glyph0-30">
<path style="stroke:none;" d="M 0.921875 -7.296875 L 3.3125 -7.296875 L 4.96875 -3.390625 L 6.640625 -7.296875 L 9.03125 -7.296875 L 9.03125 0 L 7.25 0 L 7.25 -5.328125 L 5.578125 -1.40625 L 4.375 -1.40625 L 2.703125 -5.328125 L 2.703125 0 L 0.921875 0 L 0.921875 -7.296875 Z M 0.921875 -7.296875 "/>
</symbol>
<symbol overflow="visible" id="glyph0-31">
<path style="stroke:none;" d="M 1.015625 -1.890625 L 2.78125 -1.890625 L 2.78125 0 L 1.015625 0 L 1.015625 -1.890625 Z M 1.015625 -1.890625 "/>
</symbol>
<symbol overflow="visible" id="glyph0-32">
<path style="stroke:none;" d="M 0.921875 -7.296875 L 3.015625 -7.296875 L 5.671875 -2.296875 L 5.671875 -7.296875 L 7.453125 -7.296875 L 7.453125 0 L 5.359375 0 L 2.703125 -5 L 2.703125 0 L 0.921875 0 L 0.921875 -7.296875 Z M 0.921875 -7.296875 "/>
</symbol>
<symbol overflow="visible" id="glyph0-33">
<path style="stroke:none;" d="M 0.921875 -7.296875 L 4.03125 -7.296875 C 4.96875 -7.296875 5.679688 -7.085938 6.171875 -6.671875 C 6.671875 -6.265625 6.921875 -5.675781 6.921875 -4.90625 C 6.921875 -4.144531 6.671875 -3.554688 6.171875 -3.140625 C 5.679688 -2.734375 4.96875 -2.53125 4.03125 -2.53125 L 2.796875 -2.53125 L 2.796875 0 L 0.921875 0 L 0.921875 -7.296875 Z M 2.796875 -5.921875 L 2.796875 -3.890625 L 3.84375 -3.890625 C 4.207031 -3.890625 4.488281 -3.976562 4.6875 -4.15625 C 4.882812 -4.332031 4.984375 -4.582031 4.984375 -4.90625 C 4.984375 -5.238281 4.882812 -5.488281 4.6875 -5.65625 C 4.488281 -5.832031 4.207031 -5.921875 3.84375 -5.921875 L 2.796875 -5.921875 Z M 2.796875 -5.921875 "/>
</symbol>
<symbol overflow="visible" id="glyph0-34">
<path style="stroke:none;" d="M 5.984375 -7.0625 L 5.984375 -5.515625 C 5.585938 -5.691406 5.195312 -5.828125 4.8125 -5.921875 C 4.4375 -6.015625 4.078125 -6.0625 3.734375 -6.0625 C 3.285156 -6.0625 2.953125 -6 2.734375 -5.875 C 2.523438 -5.75 2.421875 -5.554688 2.421875 -5.296875 C 2.421875 -5.097656 2.492188 -4.941406 2.640625 -4.828125 C 2.785156 -4.722656 3.046875 -4.632812 3.421875 -4.5625 L 4.234375 -4.40625 C 5.035156 -4.238281 5.609375 -3.988281 5.953125 -3.65625 C 6.296875 -3.320312 6.46875 -2.847656 6.46875 -2.234375 C 6.46875 -1.429688 6.226562 -0.832031 5.75 -0.4375 C 5.28125 -0.0507812 4.550781 0.140625 3.5625 0.140625 C 3.101562 0.140625 2.640625 0.09375 2.171875 0 C 1.710938 -0.0820312 1.25 -0.207031 0.78125 -0.375 L 0.78125 -1.96875 C 1.25 -1.71875 1.695312 -1.53125 2.125 -1.40625 C 2.5625 -1.28125 2.984375 -1.21875 3.390625 -1.21875 C 3.796875 -1.21875 4.109375 -1.285156 4.328125 -1.421875 C 4.546875 -1.554688 4.65625 -1.753906 4.65625 -2.015625 C 4.65625 -2.242188 4.582031 -2.414062 4.4375 -2.53125 C 4.289062 -2.65625 3.992188 -2.769531 3.546875 -2.875 L 2.828125 -3.03125 C 2.097656 -3.1875 1.5625 -3.4375 1.21875 -3.78125 C 0.882812 -4.125 0.71875 -4.582031 0.71875 -5.15625 C 0.71875 -5.882812 0.953125 -6.441406 1.421875 -6.828125 C 1.890625 -7.222656 2.5625 -7.421875 3.4375 -7.421875 C 3.84375 -7.421875 4.253906 -7.390625 4.671875 -7.328125 C 5.097656 -7.265625 5.535156 -7.175781 5.984375 -7.0625 Z M 5.984375 -7.0625 "/>
</symbol>
<symbol overflow="visible" id="glyph0-35">
<path style="stroke:none;" d="M 0.046875 -7.296875 L 6.765625 -7.296875 L 6.765625 -5.875 L 4.34375 -5.875 L 4.34375 0 L 2.46875 0 L 2.46875 -5.875 L 0.046875 -5.875 L 0.046875 -7.296875 Z M 0.046875 -7.296875 "/>
</symbol>
<symbol overflow="visible" id="glyph0-36">
<path style="stroke:none;" d="M 4.984375 -3.71875 L 7.515625 0 L 5.546875 0 L 3.84375 -2.484375 L 2.15625 0 L 0.1875 0 L 2.71875 -3.71875 L 0.28125 -7.296875 L 2.25 -7.296875 L 3.84375 -4.9375 L 5.4375 -7.296875 L 7.40625 -7.296875 L 4.984375 -3.71875 Z M 4.984375 -3.71875 "/>
</symbol>
<symbol overflow="visible" id="glyph0-37">
<path style="stroke:none;" d="M 0.5625 -7.296875 L 6.6875 -7.296875 L 6.6875 -6.15625 L 2.78125 -1.421875 L 6.796875 -1.421875 L 6.796875 0 L 0.453125 0 L 0.453125 -1.140625 L 4.359375 -5.875 L 0.5625 -5.875 L 0.5625 -7.296875 Z M 0.5625 -7.296875 "/>
</symbol>
</g>
</defs>
<g id="surface0">
<path style="fill:none;stroke-width:0.000605265;stroke-linecap:butt;stroke-linejoin:miter;stroke:rgb(0%,0%,0%);stroke-opacity:1;stroke-miterlimit:10;" d="M 0.0267845 0.0801263 L 0.0498732 0.0881354 " transform="matrix(3304.336278,0,0,3304.336278,-0.657358,194.653654)"/>
<path style="fill:none;stroke-width:0.000605265;stroke-linecap:butt;stroke-linejoin:miter;stroke:rgb(0%,0%,0%);stroke-opacity:1;stroke-miterlimit:10;" d="M 0.0942775 -0.00480824 L 0.0932171 -0.00317922 " transform="matrix(3304.336278,0,0,3304.336278,-0.657358,194.653654)"/>
<path style="fill:none;stroke-width:0.000605265;stroke-linecap:butt;stroke-linejoin:miter;stroke:rgb(0%,0%,0%);stroke-opacity:1;stroke-miterlimit:10;" d="M 0.0575218 0.108919 L 0.0678917 0.09335 " transform="matrix(3304.336278,0,0,3304.336278,-0.657358,194.653654)"/>
<path style="fill:none;stroke-width:0.000605265;stroke-linecap:butt;stroke-linejoin:miter;stroke:rgb(0%,0%,0%);stroke-opacity:1;stroke-miterlimit:10;" d="M 0.120355 0.105815 L 0.113081 0.0719895 " transform="matrix(3304.336278,0,0,3304.336278,-0.657358,194.653654)"/>
<path style="fill:none;stroke-width:0.000605265;stroke-linecap:butt;stroke-linejoin:miter;stroke:rgb(0%,0%,0%);stroke-opacity:1;stroke-miterlimit:10;" d="M 0.0372147 0.111634 L 0.053019 0.107416 " transform="matrix(3304.336278,0,0,3304.336278,-0.657358,194.653654)"/>
<path style="fill:none;stroke-width:0.000605265;stroke-linecap:butt;stroke-linejoin:miter;stroke:rgb(0%,0%,0%);stroke-opacity:1;stroke-miterlimit:10;" d="M 0.0415461 0.0261974 L 0.0590007 0.0224984 " transform="matrix(3304.336278,0,0,3304.336278,-0.657358,194.653654)"/>
<path style="fill:none;stroke-width:0.000605265;stroke-linecap:butt;stroke-linejoin:miter;stroke:rgb(0%,0%,0%);stroke-opacity:1;stroke-miterlimit:10;" d="M 0.04259 0.156808 L 0.0678917 0.09335 " transform="matrix(3304.336278,0,0,3304.336278,-0.657358,194.653654)"/>
<path style="fill:none;stroke-width:0.000605265;stroke-linecap:butt;stroke-linejoin:miter;stroke:rgb(0%,0%,0%);stroke-opacity:1;stroke-miterlimit:10;" d="M 0.0837965 -0.0349403 L 0.0858463 -0.0311834 " transform="matrix(3304.336278,0,0,3304.336278,-0.657358,194.653654)"/>
<path style="fill:none;stroke-width:0.000605265;stroke-linecap:butt;stroke-linejoin:miter;stroke:rgb(0%,0%,0%);stroke-opacity:1;stroke-miterlimit:10;" d="M 0.0632269 0.122487 L 0.0678917 0.09335 " transform="matrix(3304.336278,0,0,3304.336278,-0.657358,194.653654)"/>
<path style="fill:none;stroke-width:0.000605265;stroke-linecap:butt;stroke-linejoin:miter;stroke:rgb(0%,0%,0%);stroke-opacity:1;stroke-miterlimit:10;" d="M 0.0475172 0.0198244 L 0.0516228 0.0197239 " transform="matrix(3304.336278,0,0,3304.336278,-0.657358,194.653654)"/>
<path style="fill:none;stroke-width:0.000605265;stroke-linecap:butt;stroke-linejoin:miter;stroke:rgb(0%,0%,0%);stroke-opacity:1;stroke-miterlimit:10;" d="M 0.0538843 -0.00375493 L 0.069503 0.0020471 " transform="matrix(3304.336278,0,0,3304.336278,-0.657358,194.653654)"/>
<path style="fill:none;stroke-width:0.000605265;stroke-linecap:butt;stroke-linejoin:miter;stroke:rgb(0%,0%,0%);stroke-opacity:1;stroke-miterlimit:10;" d="M 0.150724 0.0184578 L 0.144712 0.0303078 " transform="matrix(3304.336278,0,0,3304.336278,-0.657358,194.653654)"/>
<path style="fill:none;stroke-width:0.000605265;stroke-linecap:butt;stroke-linejoin:miter;stroke:rgb(0%,0%,0%);stroke-opacity:1;stroke-miterlimit:10;" d="M 0.115834 -0.00811946 L 0.0864303 0.00605935 " transform="matrix(3304.336278,0,0,3304.336278,-0.657358,194.653654)"/>
<path style="fill:none;stroke-width:0.000605265;stroke-linecap:butt;stroke-linejoin:miter;stroke:rgb(0%,0%,0%);stroke-opacity:1;stroke-miterlimit:10;" d="M 0.0474806 0.031192 L 0.0590007 0.0224984 " transform="matrix(3304.336278,0,0,3304.336278,-0.657358,194.653654)"/>
<path style="fill:none;stroke-width:0.000605265;stroke-linecap:butt;stroke-linejoin:miter;stroke:rgb(0%,0%,0%);stroke-opacity:1;stroke-miterlimit:10;" d="M 0.0393047 0.0626528 L 0.0498732 0.0881354 " transform="matrix(3304.336278,0,0,3304.336278,-0.657358,194.653654)"/>
<path style="fill:none;stroke-width:0.000605265;stroke-linecap:butt;stroke-linejoin:miter;stroke:rgb(0%,0%,0%);stroke-opacity:1;stroke-miterlimit:10;" d="M 0.0533984 0.00914715 L 0.0735944 0.0155202 " transform="matrix(3304.336278,0,0,3304.336278,-0.657358,194.653654)"/>
<path style="fill:none;stroke-width:0.000605265;stroke-linecap:butt;stroke-linejoin:miter;stroke:rgb(0%,0%,0%);stroke-opacity:1;stroke-miterlimit:10;" d="M 0.0188463 0.0926584 L 0.0499619 0.0962037 " transform="matrix(3304.336278,0,0,3304.336278,-0.657358,194.653654)"/>
<path style="fill:none;stroke-width:0.000605265;stroke-linecap:butt;stroke-linejoin:miter;stroke:rgb(0%,0%,0%);stroke-opacity:1;stroke-miterlimit:10;" d="M 0.057387 0.00665398 L 0.0735944 0.0155202 " transform="matrix(3304.336278,0,0,3304.336278,-0.657358,194.653654)"/>
<path style="fill:none;stroke-width:0.000605265;stroke-linecap:butt;stroke-linejoin:miter;stroke:rgb(0%,0%,0%);stroke-opacity:1;stroke-miterlimit:10;" d="M 0.0485729 0.111896 L 0.053019 0.107416 " transform="matrix(3304.336278,0,0,3304.336278,-0.657358,194.653654)"/>
<path style="fill:none;stroke-width:0.000605265;stroke-linecap:butt;stroke-linejoin:miter;stroke:rgb(0%,0%,0%);stroke-opacity:1;stroke-miterlimit:10;" d="M 0.123887 0.0953738 L 0.113081 0.0719895 " transform="matrix(3304.336278,0,0,3304.336278,-0.657358,194.653654)"/>
<path style="fill:none;stroke-width:0.000605265;stroke-linecap:butt;stroke-linejoin:miter;stroke:rgb(0%,0%,0%);stroke-opacity:1;stroke-miterlimit:10;" d="M 0.12364 0.0894287 L 0.113081 0.0719895 " transform="matrix(3304.336278,0,0,3304.336278,-0.657358,194.653654)"/>
<path style="fill:none;stroke-width:0.000605265;stroke-linecap:butt;stroke-linejoin:miter;stroke:rgb(0%,0%,0%);stroke-opacity:1;stroke-miterlimit:10;" d="M 0.129177 0.0920649 L 0.113081 0.0719895 " transform="matrix(3304.336278,0,0,3304.336278,-0.657358,194.653654)"/>
<path style="fill:none;stroke-width:0.000605265;stroke-linecap:butt;stroke-linejoin:miter;stroke:rgb(0%,0%,0%);stroke-opacity:1;stroke-miterlimit:10;" d="M 0.13961 0.0973622 L 0.113081 0.0719895 " transform="matrix(3304.336278,0,0,3304.336278,-0.657358,194.653654)"/>
<path style="fill:none;stroke-width:0.000605265;stroke-linecap:butt;stroke-linejoin:miter;stroke:rgb(0%,0%,0%);stroke-opacity:1;stroke-miterlimit:10;" d="M 0.0500565 0.0189555 L 0.0516228 0.0197239 " transform="matrix(3304.336278,0,0,3304.336278,-0.657358,194.653654)"/>
<path style="fill:none;stroke-width:0.000605265;stroke-linecap:butt;stroke-linejoin:miter;stroke:rgb(0%,0%,0%);stroke-opacity:1;stroke-miterlimit:10;" d="M 0.166763 0.0519484 L 0.159626 0.0568354 " transform="matrix(3304.336278,0,0,3304.336278,-0.657358,194.653654)"/>
<path style="fill:none;stroke-width:0.000605265;stroke-linecap:butt;stroke-linejoin:miter;stroke:rgb(0%,0%,0%);stroke-opacity:1;stroke-miterlimit:10;" d="M 0.143092 0.052608 L 0.134565 0.0555528 " transform="matrix(3304.336278,0,0,3304.336278,-0.657358,194.653654)"/>
<path style="fill:none;stroke-width:0.000605265;stroke-linecap:butt;stroke-linejoin:miter;stroke:rgb(0%,0%,0%);stroke-opacity:1;stroke-miterlimit:10;" d="M 0.142986 0.0500534 L 0.140852 0.0505156 " transform="matrix(3304.336278,0,0,3304.336278,-0.657358,194.653654)"/>
<path style="fill:none;stroke-width:0.000605265;stroke-linecap:butt;stroke-linejoin:miter;stroke:rgb(0%,0%,0%);stroke-opacity:1;stroke-miterlimit:10;" d="M 0.147291 0.046657 L 0.140852 0.0505156 " transform="matrix(3304.336278,0,0,3304.336278,-0.657358,194.653654)"/>
<path style="fill:none;stroke-width:0.000605265;stroke-linecap:butt;stroke-linejoin:miter;stroke:rgb(0%,0%,0%);stroke-opacity:1;stroke-miterlimit:10;" d="M 0.15258 0.100821 L 0.113081 0.0719895 " transform="matrix(3304.336278,0,0,3304.336278,-0.657358,194.653654)"/>
<path style="fill:none;stroke-width:0.000605265;stroke-linecap:butt;stroke-linejoin:miter;stroke:rgb(0%,0%,0%);stroke-opacity:1;stroke-miterlimit:10;" d="M 0.105222 0.130062 L 0.106099 0.102729 " transform="matrix(3304.336278,0,0,3304.336278,-0.657358,194.653654)"/>
<path style="fill:none;stroke-width:0.000605265;stroke-linecap:butt;stroke-linejoin:miter;stroke:rgb(0%,0%,0%);stroke-opacity:1;stroke-miterlimit:10;" d="M 0.16304 0.0582434 L 0.159626 0.0568354 " transform="matrix(3304.336278,0,0,3304.336278,-0.657358,194.653654)"/>
<path style="fill:none;stroke-width:0.000605265;stroke-linecap:butt;stroke-linejoin:miter;stroke:rgb(0%,0%,0%);stroke-opacity:1;stroke-miterlimit:10;" d="M 0.112601 0.111059 L 0.106099 0.102729 " transform="matrix(3304.336278,0,0,3304.336278,-0.657358,194.653654)"/>
<path style="fill:none;stroke-width:0.000605265;stroke-linecap:butt;stroke-linejoin:miter;stroke:rgb(0%,0%,0%);stroke-opacity:1;stroke-miterlimit:10;" d="M 0.158668 0.0966895 L 0.113081 0.0719895 " transform="matrix(3304.336278,0,0,3304.336278,-0.657358,194.653654)"/>
<path style="fill:none;stroke-width:0.000605265;stroke-linecap:butt;stroke-linejoin:miter;stroke:rgb(0%,0%,0%);stroke-opacity:1;stroke-miterlimit:10;" d="M 0.136245 0.0807103 L 0.113081 0.0719895 " transform="matrix(3304.336278,0,0,3304.336278,-0.657358,194.653654)"/>
<path style="fill:none;stroke-width:0.000605265;stroke-linecap:butt;stroke-linejoin:miter;stroke:rgb(0%,0%,0%);stroke-opacity:1;stroke-miterlimit:10;" d="M 0.0430888 -0.0240621 L 0.0648607 -0.00872946 " transform="matrix(3304.336278,0,0,3304.336278,-0.657358,194.653654)"/>
<path style="fill:none;stroke-width:0.000605265;stroke-linecap:butt;stroke-linejoin:miter;stroke:rgb(0%,0%,0%);stroke-opacity:1;stroke-miterlimit:10;" d="M 0.0933389 0.00632652 L 0.0864303 0.00605935 " transform="matrix(3304.336278,0,0,3304.336278,-0.657358,194.653654)"/>
<path style="fill:none;stroke-width:0.000605265;stroke-linecap:butt;stroke-linejoin:miter;stroke:rgb(0%,0%,0%);stroke-opacity:1;stroke-miterlimit:10;" d="M 0.131485 0.0166479 L 0.125038 0.0434889 " transform="matrix(3304.336278,0,0,3304.336278,-0.657358,194.653654)"/>
<path style="fill:none;stroke-width:0.000605265;stroke-linecap:butt;stroke-linejoin:miter;stroke:rgb(0%,0%,0%);stroke-opacity:1;stroke-miterlimit:10;" d="M 0.132935 0.0764143 L 0.113081 0.0719895 " transform="matrix(3304.336278,0,0,3304.336278,-0.657358,194.653654)"/>
<path style="fill:none;stroke-width:0.000605265;stroke-linecap:butt;stroke-linejoin:miter;stroke:rgb(0%,0%,0%);stroke-opacity:1;stroke-miterlimit:10;" d="M 0.0896801 -0.0345691 L 0.0858463 -0.0311834 " transform="matrix(3304.336278,0,0,3304.336278,-0.657358,194.653654)"/>
<path style="fill:none;stroke-width:0.000605265;stroke-linecap:butt;stroke-linejoin:miter;stroke:rgb(0%,0%,0%);stroke-opacity:1;stroke-miterlimit:10;" d="M 0.0430475 0.0989936 L 0.0499619 0.0962037 " transform="matrix(3304.336278,0,0,3304.336278,-0.657358,194.653654)"/>
<path style="fill:none;stroke-width:0.000605265;stroke-linecap:butt;stroke-linejoin:miter;stroke:rgb(0%,0%,0%);stroke-opacity:1;stroke-miterlimit:10;" d="M 0.0701449 0.119584 L 0.0678917 0.09335 " transform="matrix(3304.336278,0,0,3304.336278,-0.657358,194.653654)"/>
<path style="fill:none;stroke-width:0.000605265;stroke-linecap:butt;stroke-linejoin:miter;stroke:rgb(0%,0%,0%);stroke-opacity:1;stroke-miterlimit:10;" d="M 0.159036 0.0291327 L 0.144712 0.0303078 " transform="matrix(3304.336278,0,0,3304.336278,-0.657358,194.653654)"/>
<path style="fill:none;stroke-width:0.000605265;stroke-linecap:butt;stroke-linejoin:miter;stroke:rgb(0%,0%,0%);stroke-opacity:1;stroke-miterlimit:10;" d="M 0.135371 0.0735772 L 0.113081 0.0719895 " transform="matrix(3304.336278,0,0,3304.336278,-0.657358,194.653654)"/>
<path style="fill:none;stroke-width:0.000605265;stroke-linecap:butt;stroke-linejoin:miter;stroke:rgb(0%,0%,0%);stroke-opacity:1;stroke-miterlimit:10;" d="M 0.161854 0.0676191 L 0.113081 0.0719895 " transform="matrix(3304.336278,0,0,3304.336278,-0.657358,194.653654)"/>
<path style="fill:none;stroke-width:0.000605265;stroke-linecap:butt;stroke-linejoin:miter;stroke:rgb(0%,0%,0%);stroke-opacity:1;stroke-miterlimit:10;" d="M 0.0806224 0.126182 L 0.0678917 0.09335 " transform="matrix(3304.336278,0,0,3304.336278,-0.657358,194.653654)"/>
<path style="fill:none;stroke-width:0.000605265;stroke-linecap:butt;stroke-linejoin:miter;stroke:rgb(0%,0%,0%);stroke-opacity:1;stroke-miterlimit:10;" d="M 0.0388614 0.0777573 L 0.0498732 0.0881354 " transform="matrix(3304.336278,0,0,3304.336278,-0.657358,194.653654)"/>
<path style="fill:none;stroke-width:0.000605265;stroke-linecap:butt;stroke-linejoin:miter;stroke:rgb(0%,0%,0%);stroke-opacity:1;stroke-miterlimit:10;" d="M 0.0497905 0.0173951 L 0.0533015 0.0198551 " transform="matrix(3304.336278,0,0,3304.336278,-0.657358,194.653654)"/>
<path style="fill:none;stroke-width:0.000605265;stroke-linecap:butt;stroke-linejoin:miter;stroke:rgb(0%,0%,0%);stroke-opacity:1;stroke-miterlimit:10;" d="M 0.062533 -0.0267751 L 0.0648607 -0.00872946 " transform="matrix(3304.336278,0,0,3304.336278,-0.657358,194.653654)"/>
<path style="fill:none;stroke-width:0.000605265;stroke-linecap:butt;stroke-linejoin:miter;stroke:rgb(0%,0%,0%);stroke-opacity:1;stroke-miterlimit:10;" d="M 0.0678917 0.09335 L 0.053019 0.107416 " transform="matrix(3304.336278,0,0,3304.336278,-0.657358,194.653654)"/>
<path style="fill:none;stroke-width:0.000605265;stroke-linecap:butt;stroke-linejoin:miter;stroke:rgb(0%,0%,0%);stroke-opacity:1;stroke-miterlimit:10;" d="M 0.0533015 0.0198551 L 0.0516228 0.0197239 " transform="matrix(3304.336278,0,0,3304.336278,-0.657358,194.653654)"/>
<path style="fill:none;stroke-width:0.000605265;stroke-linecap:butt;stroke-linejoin:miter;stroke:rgb(0%,0%,0%);stroke-opacity:1;stroke-miterlimit:10;" d="M 0.134565 0.0555528 L 0.140852 0.0505156 " transform="matrix(3304.336278,0,0,3304.336278,-0.657358,194.653654)"/>
<path style="fill:none;stroke-width:0.000605265;stroke-linecap:butt;stroke-linejoin:miter;stroke:rgb(0%,0%,0%);stroke-opacity:1;stroke-miterlimit:10;" d="M 0.113081 0.0719895 L 0.159626 0.0568354 " transform="matrix(3304.336278,0,0,3304.336278,-0.657358,194.653654)"/>
<path style="fill:none;stroke-width:0.000605265;stroke-linecap:butt;stroke-linejoin:miter;stroke:rgb(0%,0%,0%);stroke-opacity:1;stroke-miterlimit:10;" d="M 0.113081 0.0719895 L 0.106099 0.102729 " transform="matrix(3304.336278,0,0,3304.336278,-0.657358,194.653654)"/>
<path style="fill:none;stroke-width:0.000605265;stroke-linecap:butt;stroke-linejoin:miter;stroke:rgb(0%,0%,0%);stroke-opacity:1;stroke-miterlimit:10;" d="M 0.0932171 -0.00317922 L 0.0858463 -0.0311834 " transform="matrix(3304.336278,0,0,3304.336278,-0.657358,194.653654)"/>
<path style="fill:none;stroke-width:0.000605265;stroke-linecap:butt;stroke-linejoin:miter;stroke:rgb(0%,0%,0%);stroke-opacity:1;stroke-miterlimit:10;" d="M 0.0678917 0.09335 L 0.0499619 0.0962037 " transform="matrix(3304.336278,0,0,3304.336278,-0.657358,194.653654)"/>
<path style="fill:none;stroke-width:0.000605265;stroke-linecap:butt;stroke-linejoin:miter;stroke:rgb(0%,0%,0%);stroke-opacity:1;stroke-miterlimit:10;" d="M 0.125038 0.0434889 L 0.144712 0.0303078 " transform="matrix(3304.336278,0,0,3304.336278,-0.657358,194.653654)"/>
<path style="fill:none;stroke-width:0.000605265;stroke-linecap:butt;stroke-linejoin:miter;stroke:rgb(0%,0%,0%);stroke-opacity:1;stroke-miterlimit:10;" d="M 0.0678917 0.09335 L 0.0498732 0.0881354 " transform="matrix(3304.336278,0,0,3304.336278,-0.657358,194.653654)"/>
<path style="fill:none;stroke-width:0.000605265;stroke-linecap:butt;stroke-linejoin:miter;stroke:rgb(0%,0%,0%);stroke-opacity:1;stroke-miterlimit:10;" d="M 0.069503 0.0020471 L 0.0648607 -0.00872946 " transform="matrix(3304.336278,0,0,3304.336278,-0.657358,194.653654)"/>
<path style="fill:none;stroke-width:0.000605265;stroke-linecap:butt;stroke-linejoin:miter;stroke:rgb(0%,0%,0%);stroke-opacity:1;stroke-miterlimit:10;" d="M 0.0590007 0.0224984 L 0.0533015 0.0198551 " transform="matrix(3304.336278,0,0,3304.336278,-0.657358,194.653654)"/>
<path style="fill:none;stroke-width:0.000605265;stroke-linecap:butt;stroke-linejoin:miter;stroke:rgb(0%,0%,0%);stroke-opacity:1;stroke-miterlimit:10;" d="M 0.113081 0.0719895 L 0.134565 0.0555528 " transform="matrix(3304.336278,0,0,3304.336278,-0.657358,194.653654)"/>
<path style="fill:none;stroke-width:0.000605265;stroke-linecap:butt;stroke-linejoin:miter;stroke:rgb(0%,0%,0%);stroke-opacity:1;stroke-miterlimit:10;" d="M 0.0864303 0.00605935 L 0.0932171 -0.00317922 " transform="matrix(3304.336278,0,0,3304.336278,-0.657358,194.653654)"/>
<path style="fill:none;stroke-width:0.000605265;stroke-linecap:butt;stroke-linejoin:miter;stroke:rgb(0%,0%,0%);stroke-opacity:1;stroke-miterlimit:10;" d="M 0.113081 0.0719895 L 0.125038 0.0434889 " transform="matrix(3304.336278,0,0,3304.336278,-0.657358,194.653654)"/>
<path style="fill:none;stroke-width:0.000605265;stroke-linecap:butt;stroke-linejoin:miter;stroke:rgb(0%,0%,0%);stroke-opacity:1;stroke-miterlimit:10;" d="M 0.113081 0.0719895 L 0.0678917 0.09335 " transform="matrix(3304.336278,0,0,3304.336278,-0.657358,194.653654)"/>
<path style="fill:none;stroke-width:0.000605265;stroke-linecap:butt;stroke-linejoin:miter;stroke:rgb(0%,0%,0%);stroke-opacity:1;stroke-miterlimit:10;" d="M 0.0735944 0.0155202 L 0.069503 0.0020471 " transform="matrix(3304.336278,0,0,3304.336278,-0.657358,194.653654)"/>
<path style="fill:none;stroke-width:0.000605265;stroke-linecap:butt;stroke-linejoin:miter;stroke:rgb(0%,0%,0%);stroke-opacity:1;stroke-miterlimit:10;" d="M 0.0735944 0.0155202 L 0.0590007 0.0224984 " transform="matrix(3304.336278,0,0,3304.336278,-0.657358,194.653654)"/>
<path style="fill:none;stroke-width:0.000605265;stroke-linecap:butt;stroke-linejoin:miter;stroke:rgb(0%,0%,0%);stroke-opacity:1;stroke-miterlimit:10;" d="M 0.0735944 0.0155202 L 0.0864303 0.00605935 " transform="matrix(3304.336278,0,0,3304.336278,-0.657358,194.653654)"/>
<path style="fill:none;stroke-width:0.000605265;stroke-linecap:butt;stroke-linejoin:miter;stroke:rgb(0%,0%,0%);stroke-opacity:1;stroke-miterlimit:10;" d="M 0.0735944 0.0155202 L 0.113081 0.0719895 " transform="matrix(3304.336278,0,0,3304.336278,-0.657358,194.653654)"/>
<path style="fill-rule:nonzero;fill:rgb(100%,100%,100%);fill-opacity:1;stroke-width:0.000302633;stroke-linecap:butt;stroke-linejoin:miter;stroke:rgb(0%,0%,0%);stroke-opacity:1;stroke-dasharray:0.0018158,0.0018158;stroke-miterlimit:10;" d="M 0.0506724 0.0881354 C 0.0506724 0.0892006 0.0490741 0.0892006 0.0490741 0.0881354 C 0.0490741 0.0870691 0.0506724 0.0870691 0.0506724 0.0881354 " transform="matrix(3304.336278,0,0,3304.336278,-0.657358,194.653654)"/>
<path style="fill-rule:nonzero;fill:rgb(100%,100%,100%);fill-opacity:1;stroke-width:0.000302633;stroke-linecap:butt;stroke-linejoin:miter;stroke:rgb(0%,0%,0%);stroke-opacity:1;stroke-dasharray:0.0018158,0.0018158;stroke-miterlimit:10;" d="M 0.0793055 0.09335 C 0.0793055 0.0996532 0.074195 0.104764 0.0678917 0.104764 C 0.0615884 0.104764 0.056478 0.0996532 0.056478 0.09335 C 0.056478 0.0870467 0.0615884 0.0819362 0.0678917 0.0819362 C 0.074195 0.0819362 0.0793055 0.0870467 0.0793055 0.09335 " transform="matrix(3304.336278,0,0,3304.336278,-0.657358,194.653654)"/>
<path style="fill-rule:nonzero;fill:rgb(100%,100%,100%);fill-opacity:1;stroke-width:0.000302633;stroke-linecap:butt;stroke-linejoin:miter;stroke:rgb(0%,0%,0%);stroke-opacity:1;stroke-dasharray:0.0018158,0.0018158;stroke-miterlimit:10;" d="M 0.0596391 0.0224984 C 0.0596391 0.0233496 0.0583623 0.0233496 0.0583623 0.0224984 C 0.0583623 0.0216473 0.0596391 0.0216473 0.0596391 0.0224984 " transform="matrix(3304.336278,0,0,3304.336278,-0.657358,194.653654)"/>
<path style="fill-rule:nonzero;fill:rgb(100%,100%,100%);fill-opacity:1;stroke-width:0.000302633;stroke-linecap:butt;stroke-linejoin:miter;stroke:rgb(0%,0%,0%);stroke-opacity:1;stroke-dasharray:0.0018158,0.0018158;stroke-miterlimit:10;" d="M 0.0885972 0.00605935 C 0.0885972 0.00725688 0.0876279 0.00822743 0.0864303 0.00822743 C 0.085234 0.00822743 0.0842634 0.00725688 0.0842634 0.00605935 C 0.0842634 0.004863 0.085234 0.00389245 0.0864303 0.00389245 C 0.0876279 0.00389245 0.0885972 0.004863 0.0885972 0.00605935 " transform="matrix(3304.336278,0,0,3304.336278,-0.657358,194.653654)"/>
<path style="fill-rule:nonzero;fill:rgb(100%,100%,100%);fill-opacity:1;stroke-width:0.000302633;stroke-linecap:butt;stroke-linejoin:miter;stroke:rgb(0%,0%,0%);stroke-opacity:1;stroke-dasharray:0.0018158,0.0018158;stroke-miterlimit:10;" d="M 0.131777 0.0719895 C 0.131777 0.0823145 0.123407 0.0906854 0.113081 0.0906854 C 0.102755 0.0906854 0.0943839 0.0823145 0.0943839 0.0719895 C 0.0943839 0.0616634 0.102755 0.0532925 0.113081 0.0532925 C 0.123407 0.0532925 0.131777 0.0616634 0.131777 0.0719895 " transform="matrix(3304.336278,0,0,3304.336278,-0.657358,194.653654)"/>
<path style="fill-rule:nonzero;fill:rgb(100%,100%,100%);fill-opacity:1;stroke-width:0.000302633;stroke-linecap:butt;stroke-linejoin:miter;stroke:rgb(0%,0%,0%);stroke-opacity:1;stroke-dasharray:0.0018158,0.0018158;stroke-miterlimit:10;" d="M 0.0789425 0.0155202 C 0.0789425 0.0184744 0.0765487 0.0208683 0.0735944 0.0208683 C 0.0706414 0.0208683 0.0682475 0.0184744 0.0682475 0.0155202 C 0.0682475 0.0125671 0.0706414 0.0101733 0.0735944 0.0101733 C 0.0765487 0.0101733 0.0789425 0.0125671 0.0789425 0.0155202 " transform="matrix(3304.336278,0,0,3304.336278,-0.657358,194.653654)"/>
<g style="fill:rgb(0%,0%,0%);fill-opacity:1;">
  <use xlink:href="#glyph0-1" x="1.65625" y="462.042969"/>
  <use xlink:href="#glyph0-2" x="9.395508" y="462.042969"/>
  <use xlink:href="#glyph0-3" x="16.553711" y="462.042969"/>
  <use xlink:href="#glyph0-4" x="21.485352" y="462.042969"/>
  <use xlink:href="#glyph0-5" x="28.355469" y="462.042969"/>
  <use xlink:href="#glyph0-6" x="35.513672" y="462.042969"/>
  <use xlink:href="#glyph0-7" x="42.261719" y="462.042969"/>
  <use xlink:href="#glyph0-8" x="48.189453" y="462.042969"/>
  <use xlink:href="#glyph0-9" x="52.969727" y="462.042969"/>
  <use xlink:href="#glyph0-3" x="59.751953" y="462.042969"/>
  <use xlink:href="#glyph0-10" x="64.683594" y="462.042969"/>
  <use xlink:href="#glyph0-11" x="68.111328" y="462.042969"/>
  <use xlink:href="#glyph0-12" x="75.230469" y="462.042969"/>
</g>
<g style="fill:rgb(0%,0%,0%);fill-opacity:1;">
  <use xlink:href="#glyph0-1" x="312.488281" y="177.71875"/>
  <use xlink:href="#glyph0-12" x="320.227539" y="177.71875"/>
  <use xlink:href="#glyph0-4" x="330.647461" y="177.71875"/>
  <use xlink:href="#glyph0-9" x="337.517578" y="177.71875"/>
  <use xlink:href="#glyph0-5" x="344.299805" y="177.71875"/>
  <use xlink:href="#glyph0-10" x="351.458008" y="177.71875"/>
  <use xlink:href="#glyph0-13" x="354.885742" y="177.71875"/>
  <use xlink:href="#glyph0-10" x="362.043945" y="177.71875"/>
  <use xlink:href="#glyph0-11" x="365.47168" y="177.71875"/>
  <use xlink:href="#glyph0-12" x="372.59082" y="177.71875"/>
</g>
<g style="fill:rgb(0%,0%,0%);fill-opacity:1;">
  <use xlink:href="#glyph0-1" x="144.808594" y="565.082031"/>
  <use xlink:href="#glyph0-14" x="152.547852" y="565.082031"/>
  <use xlink:href="#glyph0-11" x="159.706055" y="565.082031"/>
  <use xlink:href="#glyph0-10" x="166.825195" y="565.082031"/>
  <use xlink:href="#glyph0-15" x="170.25293" y="565.082031"/>
  <use xlink:href="#glyph0-9" x="174.603516" y="565.082031"/>
  <use xlink:href="#glyph0-16" x="181.385742" y="565.082031"/>
</g>
<g style="fill:rgb(0%,0%,0%);fill-opacity:1;">
  <use xlink:href="#glyph0-1" x="397.710937" y="555.894531"/>
  <use xlink:href="#glyph0-3" x="405.450195" y="555.894531"/>
  <use xlink:href="#glyph0-7" x="410.381836" y="555.894531"/>
  <use xlink:href="#glyph0-17" x="416.30957" y="555.894531"/>
  <use xlink:href="#glyph0-9" x="423.428711" y="555.894531"/>
  <use xlink:href="#glyph0-4" x="430.210938" y="555.894531"/>
  <use xlink:href="#glyph0-2" x="437.081055" y="555.894531"/>
  <use xlink:href="#glyph0-18" x="444.239258" y="555.894531"/>
  <use xlink:href="#glyph0-4" x="447.666992" y="555.894531"/>
  <use xlink:href="#glyph0-5" x="454.537109" y="555.894531"/>
  <use xlink:href="#glyph0-11" x="461.695312" y="555.894531"/>
  <use xlink:href="#glyph0-19" x="468.814453" y="555.894531"/>
</g>
<g style="fill:rgb(0%,0%,0%);fill-opacity:1;">
  <use xlink:href="#glyph0-20" x="77.183594" y="568.914062"/>
  <use xlink:href="#glyph0-6" x="84.805664" y="568.914062"/>
  <use xlink:href="#glyph0-7" x="91.553711" y="568.914062"/>
  <use xlink:href="#glyph0-10" x="97.481445" y="568.914062"/>
  <use xlink:href="#glyph0-18" x="100.90918" y="568.914062"/>
  <use xlink:href="#glyph0-18" x="104.336914" y="568.914062"/>
  <use xlink:href="#glyph0-11" x="107.764648" y="568.914062"/>
  <use xlink:href="#glyph0-19" x="114.883789" y="568.914062"/>
</g>
<g style="fill:rgb(0%,0%,0%);fill-opacity:1;">
  <use xlink:href="#glyph0-21" x="49.128906" y="286.300781"/>
  <use xlink:href="#glyph0-6" x="56.467773" y="286.300781"/>
  <use xlink:href="#glyph0-9" x="63.21582" y="286.300781"/>
  <use xlink:href="#glyph0-22" x="69.998047" y="286.300781"/>
  <use xlink:href="#glyph0-4" x="77.117187" y="286.300781"/>
  <use xlink:href="#glyph0-3" x="83.987305" y="286.300781"/>
  <use xlink:href="#glyph0-17" x="88.918945" y="286.300781"/>
  <use xlink:href="#glyph0-6" x="96.038086" y="286.300781"/>
  <use xlink:href="#glyph0-5" x="102.786133" y="286.300781"/>
  <use xlink:href="#glyph0-13" x="109.944336" y="286.300781"/>
  <use xlink:href="#glyph0-10" x="117.102539" y="286.300781"/>
  <use xlink:href="#glyph0-8" x="120.530273" y="286.300781"/>
  <use xlink:href="#glyph0-10" x="125.310547" y="286.300781"/>
  <use xlink:href="#glyph0-19" x="128.738281" y="286.300781"/>
</g>
<g style="fill:rgb(0%,0%,0%);fill-opacity:1;">
  <use xlink:href="#glyph0-21" x="54.597656" y="724.0625"/>
  <use xlink:href="#glyph0-6" x="61.936523" y="724.0625"/>
  <use xlink:href="#glyph0-12" x="68.68457" y="724.0625"/>
  <use xlink:href="#glyph0-23" x="79.104492" y="724.0625"/>
  <use xlink:href="#glyph0-24" x="86.262695" y="724.0625"/>
  <use xlink:href="#glyph0-18" x="92.78125" y="724.0625"/>
  <use xlink:href="#glyph0-4" x="96.208984" y="724.0625"/>
  <use xlink:href="#glyph0-5" x="103.079102" y="724.0625"/>
  <use xlink:href="#glyph0-6" x="110.237305" y="724.0625"/>
  <use xlink:href="#glyph0-7" x="116.985352" y="724.0625"/>
  <use xlink:href="#glyph0-8" x="122.913086" y="724.0625"/>
  <use xlink:href="#glyph0-9" x="127.693359" y="724.0625"/>
  <use xlink:href="#glyph0-3" x="134.475586" y="724.0625"/>
</g>
<g style="fill:rgb(0%,0%,0%);fill-opacity:1;">
  <use xlink:href="#glyph0-21" x="230.394531" y="77.917969"/>
  <use xlink:href="#glyph0-6" x="237.733398" y="77.917969"/>
  <use xlink:href="#glyph0-22" x="244.481445" y="77.917969"/>
  <use xlink:href="#glyph0-13" x="251.600586" y="77.917969"/>
  <use xlink:href="#glyph0-10" x="258.758789" y="77.917969"/>
  <use xlink:href="#glyph0-13" x="262.186523" y="77.917969"/>
  <use xlink:href="#glyph0-6" x="269.344727" y="77.917969"/>
</g>
<g style="fill:rgb(0%,0%,0%);fill-opacity:1;">
  <use xlink:href="#glyph0-21" x="150.128906" y="611.054688"/>
  <use xlink:href="#glyph0-17" x="157.467773" y="611.054688"/>
  <use xlink:href="#glyph0-18" x="164.586914" y="611.054688"/>
  <use xlink:href="#glyph0-6" x="168.014648" y="611.054688"/>
  <use xlink:href="#glyph0-12" x="174.762695" y="611.054688"/>
  <use xlink:href="#glyph0-24" x="185.182617" y="611.054688"/>
  <use xlink:href="#glyph0-13" x="191.701172" y="611.054688"/>
  <use xlink:href="#glyph0-10" x="198.859375" y="611.054688"/>
  <use xlink:href="#glyph0-6" x="202.287109" y="611.054688"/>
</g>
<g style="fill:rgb(0%,0%,0%);fill-opacity:1;">
  <use xlink:href="#glyph0-21" x="64.433594" y="265.199219"/>
  <use xlink:href="#glyph0-3" x="71.772461" y="265.199219"/>
  <use xlink:href="#glyph0-24" x="76.704102" y="265.199219"/>
  <use xlink:href="#glyph0-23" x="83.222656" y="265.199219"/>
  <use xlink:href="#glyph0-8" x="90.380859" y="265.199219"/>
  <use xlink:href="#glyph0-4" x="95.161133" y="265.199219"/>
  <use xlink:href="#glyph0-5" x="102.03125" y="265.199219"/>
  <use xlink:href="#glyph0-3" x="109.189453" y="265.199219"/>
  <use xlink:href="#glyph0-6" x="114.121094" y="265.199219"/>
  <use xlink:href="#glyph0-22" x="120.869141" y="265.199219"/>
  <use xlink:href="#glyph0-7" x="127.988281" y="265.199219"/>
  <use xlink:href="#glyph0-17" x="133.916016" y="265.199219"/>
  <use xlink:href="#glyph0-11" x="141.035156" y="265.199219"/>
  <use xlink:href="#glyph0-19" x="148.154297" y="265.199219"/>
</g>
<g style="fill:rgb(0%,0%,0%);fill-opacity:1;">
  <use xlink:href="#glyph0-21" x="81.609375" y="184.726562"/>
  <use xlink:href="#glyph0-3" x="88.948242" y="184.726562"/>
  <use xlink:href="#glyph0-24" x="93.879883" y="184.726562"/>
  <use xlink:href="#glyph0-23" x="100.398437" y="184.726562"/>
  <use xlink:href="#glyph0-8" x="107.556641" y="184.726562"/>
  <use xlink:href="#glyph0-4" x="112.336914" y="184.726562"/>
  <use xlink:href="#glyph0-19" x="119.207031" y="184.726562"/>
  <use xlink:href="#glyph0-23" x="125.15918" y="184.726562"/>
  <use xlink:href="#glyph0-4" x="132.317383" y="184.726562"/>
  <use xlink:href="#glyph0-3" x="139.1875" y="184.726562"/>
  <use xlink:href="#glyph0-10" x="144.119141" y="184.726562"/>
  <use xlink:href="#glyph0-13" x="147.546875" y="184.726562"/>
  <use xlink:href="#glyph0-10" x="154.705078" y="184.726562"/>
  <use xlink:href="#glyph0-11" x="158.132812" y="184.726562"/>
  <use xlink:href="#glyph0-12" x="165.251953" y="184.726562"/>
</g>
<g style="fill:rgb(0%,0%,0%);fill-opacity:1;">
  <use xlink:href="#glyph0-25" x="498.726562" y="254.28125"/>
  <use xlink:href="#glyph0-9" x="507.027344" y="254.28125"/>
  <use xlink:href="#glyph0-19" x="513.80957" y="254.28125"/>
  <use xlink:href="#glyph0-11" x="519.761719" y="254.28125"/>
  <use xlink:href="#glyph0-18" x="526.880859" y="254.28125"/>
  <use xlink:href="#glyph0-15" x="530.308594" y="254.28125"/>
  <use xlink:href="#glyph0-11" x="534.65918" y="254.28125"/>
  <use xlink:href="#glyph0-3" x="541.77832" y="254.28125"/>
  <use xlink:href="#glyph0-4" x="546.709961" y="254.28125"/>
  <use xlink:href="#glyph0-7" x="553.580078" y="254.28125"/>
  <use xlink:href="#glyph0-4" x="559.507812" y="254.28125"/>
  <use xlink:href="#glyph0-7" x="566.37793" y="254.28125"/>
  <use xlink:href="#glyph0-7" x="572.305664" y="254.28125"/>
  <use xlink:href="#glyph0-11" x="578.233398" y="254.28125"/>
  <use xlink:href="#glyph0-19" x="585.352539" y="254.28125"/>
</g>
<g style="fill:rgb(0%,0%,0%);fill-opacity:1;">
  <use xlink:href="#glyph0-25" x="384.996094" y="169.710938"/>
  <use xlink:href="#glyph0-10" x="393.296875" y="169.710938"/>
  <use xlink:href="#glyph0-7" x="396.724609" y="169.710938"/>
  <use xlink:href="#glyph0-8" x="402.652344" y="169.710938"/>
  <use xlink:href="#glyph0-24" x="407.432617" y="169.710938"/>
  <use xlink:href="#glyph0-4" x="413.951172" y="169.710938"/>
  <use xlink:href="#glyph0-19" x="420.821289" y="169.710938"/>
  <use xlink:href="#glyph0-8" x="426.773437" y="169.710938"/>
  <use xlink:href="#glyph0-9" x="431.553711" y="169.710938"/>
  <use xlink:href="#glyph0-18" x="438.335937" y="169.710938"/>
  <use xlink:href="#glyph0-10" x="441.763672" y="169.710938"/>
  <use xlink:href="#glyph0-11" x="445.191406" y="169.710938"/>
  <use xlink:href="#glyph0-12" x="452.310547" y="169.710938"/>
</g>
<g style="fill:rgb(0%,0%,0%);fill-opacity:1;">
  <use xlink:href="#glyph0-25" x="94.566406" y="306.675781"/>
  <use xlink:href="#glyph0-3" x="102.867187" y="306.675781"/>
  <use xlink:href="#glyph0-4" x="107.798828" y="306.675781"/>
  <use xlink:href="#glyph0-19" x="114.668945" y="306.675781"/>
  <use xlink:href="#glyph0-4" x="120.621094" y="306.675781"/>
  <use xlink:href="#glyph0-23" x="127.491211" y="306.675781"/>
  <use xlink:href="#glyph0-17" x="134.649414" y="306.675781"/>
  <use xlink:href="#glyph0-10" x="141.768555" y="306.675781"/>
  <use xlink:href="#glyph0-18" x="145.196289" y="306.675781"/>
  <use xlink:href="#glyph0-6" x="148.624023" y="306.675781"/>
</g>
<g style="fill:rgb(0%,0%,0%);fill-opacity:1;">
  <use xlink:href="#glyph0-26" x="65.589844" y="400.128906"/>
  <use xlink:href="#glyph0-19" x="72.420898" y="400.128906"/>
  <use xlink:href="#glyph0-7" x="78.373047" y="400.128906"/>
  <use xlink:href="#glyph0-17" x="84.300781" y="400.128906"/>
  <use xlink:href="#glyph0-9" x="91.419922" y="400.128906"/>
  <use xlink:href="#glyph0-3" x="98.202148" y="400.128906"/>
  <use xlink:href="#glyph0-10" x="103.133789" y="400.128906"/>
  <use xlink:href="#glyph0-7" x="106.561523" y="400.128906"/>
  <use xlink:href="#glyph0-17" x="112.489258" y="400.128906"/>
  <use xlink:href="#glyph0-10" x="119.608398" y="400.128906"/>
  <use xlink:href="#glyph0-6" x="123.036133" y="400.128906"/>
</g>
<g style="fill:rgb(0%,0%,0%);fill-opacity:1;">
  <use xlink:href="#glyph0-26" x="129.234375" y="227.683594"/>
  <use xlink:href="#glyph0-11" x="136.06543" y="227.683594"/>
  <use xlink:href="#glyph0-2" x="143.18457" y="227.683594"/>
  <use xlink:href="#glyph0-18" x="150.342773" y="227.683594"/>
  <use xlink:href="#glyph0-9" x="153.770508" y="227.683594"/>
  <use xlink:href="#glyph0-22" x="160.552734" y="227.683594"/>
  <use xlink:href="#glyph0-6" x="167.671875" y="227.683594"/>
</g>
<g style="fill:rgb(0%,0%,0%);fill-opacity:1;">
  <use xlink:href="#glyph0-6" x="-17.045898" y="504.03125"/>
  <use xlink:href="#glyph0-27" x="-10.297852" y="504.03125"/>
  <use xlink:href="#glyph0-4" x="-3.779297" y="504.03125"/>
  <use xlink:href="#glyph0-5" x="3.09082" y="504.03125"/>
  <use xlink:href="#glyph0-6" x="10.249023" y="504.03125"/>
  <use xlink:href="#glyph0-7" x="16.99707" y="504.03125"/>
  <use xlink:href="#glyph0-8" x="22.924805" y="504.03125"/>
  <use xlink:href="#glyph0-9" x="27.705078" y="504.03125"/>
  <use xlink:href="#glyph0-3" x="34.487305" y="504.03125"/>
  <use xlink:href="#glyph0-10" x="39.418945" y="504.03125"/>
  <use xlink:href="#glyph0-11" x="42.84668" y="504.03125"/>
  <use xlink:href="#glyph0-12" x="49.96582" y="504.03125"/>
</g>
<g style="fill:rgb(0%,0%,0%);fill-opacity:1;">
  <use xlink:href="#glyph0-28" x="137.6875" y="217.695312"/>
  <use xlink:href="#glyph0-9" x="145.895508" y="217.695312"/>
  <use xlink:href="#glyph0-18" x="152.677734" y="217.695312"/>
  <use xlink:href="#glyph0-10" x="156.105469" y="217.695312"/>
  <use xlink:href="#glyph0-13" x="159.533203" y="217.695312"/>
  <use xlink:href="#glyph0-10" x="166.691406" y="217.695312"/>
  <use xlink:href="#glyph0-11" x="170.119141" y="217.695312"/>
  <use xlink:href="#glyph0-12" x="177.238281" y="217.695312"/>
</g>
<g style="fill:rgb(0%,0%,0%);fill-opacity:1;">
  <use xlink:href="#glyph0-28" x="93.675781" y="572.425781"/>
  <use xlink:href="#glyph0-9" x="101.883789" y="572.425781"/>
  <use xlink:href="#glyph0-4" x="108.666016" y="572.425781"/>
  <use xlink:href="#glyph0-5" x="115.536133" y="572.425781"/>
  <use xlink:href="#glyph0-6" x="122.694336" y="572.425781"/>
  <use xlink:href="#glyph0-7" x="129.442383" y="572.425781"/>
  <use xlink:href="#glyph0-10" x="135.370117" y="572.425781"/>
  <use xlink:href="#glyph0-18" x="138.797852" y="572.425781"/>
  <use xlink:href="#glyph0-18" x="142.225586" y="572.425781"/>
  <use xlink:href="#glyph0-11" x="145.65332" y="572.425781"/>
  <use xlink:href="#glyph0-19" x="152.772461" y="572.425781"/>
</g>
<g style="fill:rgb(0%,0%,0%);fill-opacity:1;">
  <use xlink:href="#glyph0-29" x="409.953125" y="518.992188"/>
  <use xlink:href="#glyph0-6" x="418.322266" y="518.992188"/>
  <use xlink:href="#glyph0-18" x="425.070312" y="518.992188"/>
  <use xlink:href="#glyph0-4" x="428.498047" y="518.992188"/>
  <use xlink:href="#glyph0-6" x="435.368164" y="518.992188"/>
  <use xlink:href="#glyph0-3" x="442.116211" y="518.992188"/>
  <use xlink:href="#glyph0-7" x="447.047852" y="518.992188"/>
  <use xlink:href="#glyph0-11" x="452.975586" y="518.992188"/>
  <use xlink:href="#glyph0-18" x="460.094727" y="518.992188"/>
  <use xlink:href="#glyph0-6" x="463.522461" y="518.992188"/>
</g>
<g style="fill:rgb(0%,0%,0%);fill-opacity:1;">
  <use xlink:href="#glyph0-29" x="409.425781" y="499.042969"/>
  <use xlink:href="#glyph0-6" x="417.794922" y="499.042969"/>
  <use xlink:href="#glyph0-18" x="424.542969" y="499.042969"/>
  <use xlink:href="#glyph0-4" x="427.970703" y="499.042969"/>
  <use xlink:href="#glyph0-5" x="434.84082" y="499.042969"/>
  <use xlink:href="#glyph0-6" x="441.999023" y="499.042969"/>
  <use xlink:href="#glyph0-7" x="448.74707" y="499.042969"/>
  <use xlink:href="#glyph0-8" x="454.674805" y="499.042969"/>
  <use xlink:href="#glyph0-9" x="459.455078" y="499.042969"/>
  <use xlink:href="#glyph0-3" x="466.237305" y="499.042969"/>
  <use xlink:href="#glyph0-10" x="471.168945" y="499.042969"/>
  <use xlink:href="#glyph0-11" x="474.59668" y="499.042969"/>
  <use xlink:href="#glyph0-12" x="481.71582" y="499.042969"/>
</g>
<g style="fill:rgb(0%,0%,0%);fill-opacity:1;">
  <use xlink:href="#glyph0-29" x="428.042969" y="507.3125"/>
  <use xlink:href="#glyph0-6" x="436.412109" y="507.3125"/>
  <use xlink:href="#glyph0-18" x="443.160156" y="507.3125"/>
  <use xlink:href="#glyph0-4" x="446.587891" y="507.3125"/>
  <use xlink:href="#glyph0-15" x="453.458008" y="507.3125"/>
  <use xlink:href="#glyph0-9" x="457.808594" y="507.3125"/>
  <use xlink:href="#glyph0-3" x="464.59082" y="507.3125"/>
  <use xlink:href="#glyph0-6" x="469.522461" y="507.3125"/>
  <use xlink:href="#glyph0-16" x="476.270508" y="507.3125"/>
</g>
<g style="fill:rgb(0%,0%,0%);fill-opacity:1;">
  <use xlink:href="#glyph0-29" x="462.804688" y="524.296875"/>
  <use xlink:href="#glyph0-6" x="471.173828" y="524.296875"/>
  <use xlink:href="#glyph0-18" x="477.921875" y="524.296875"/>
  <use xlink:href="#glyph0-4" x="481.349609" y="524.296875"/>
  <use xlink:href="#glyph0-3" x="488.219727" y="524.296875"/>
  <use xlink:href="#glyph0-11" x="493.151367" y="524.296875"/>
  <use xlink:href="#glyph0-5" x="500.270508" y="524.296875"/>
  <use xlink:href="#glyph0-3" x="507.428711" y="524.296875"/>
  <use xlink:href="#glyph0-11" x="512.360352" y="524.296875"/>
  <use xlink:href="#glyph0-12" x="519.479492" y="524.296875"/>
</g>
<g style="fill:rgb(0%,0%,0%);fill-opacity:1;">
  <use xlink:href="#glyph0-29" x="130.941406" y="258.492188"/>
  <use xlink:href="#glyph0-4" x="139.310547" y="258.492188"/>
  <use xlink:href="#glyph0-12" x="146.180664" y="258.492188"/>
  <use xlink:href="#glyph0-4" x="156.600586" y="258.492188"/>
</g>
<g style="fill:rgb(0%,0%,0%);fill-opacity:1;">
  <use xlink:href="#glyph0-30" x="552.832031" y="366.859375"/>
  <use xlink:href="#glyph0-9" x="562.783203" y="366.859375"/>
  <use xlink:href="#glyph0-8" x="569.56543" y="366.859375"/>
  <use xlink:href="#glyph0-17" x="574.345703" y="366.859375"/>
  <use xlink:href="#glyph0-6" x="581.464844" y="366.859375"/>
  <use xlink:href="#glyph0-22" x="588.212891" y="366.859375"/>
  <use xlink:href="#glyph0-4" x="595.332031" y="366.859375"/>
  <use xlink:href="#glyph0-7" x="602.202148" y="366.859375"/>
  <use xlink:href="#glyph0-4" x="608.129883" y="366.859375"/>
  <use xlink:href="#glyph0-7" x="615" y="366.859375"/>
  <use xlink:href="#glyph0-7" x="620.927734" y="366.859375"/>
</g>
<g style="fill:rgb(0%,0%,0%);fill-opacity:1;">
  <use xlink:href="#glyph0-30" x="474.972656" y="370.441406"/>
  <use xlink:href="#glyph0-9" x="484.923828" y="370.441406"/>
  <use xlink:href="#glyph0-8" x="491.706055" y="370.441406"/>
  <use xlink:href="#glyph0-17" x="496.486328" y="370.441406"/>
  <use xlink:href="#glyph0-6" x="503.605469" y="370.441406"/>
  <use xlink:href="#glyph0-22" x="510.353516" y="370.441406"/>
  <use xlink:href="#glyph0-4" x="517.472656" y="370.441406"/>
  <use xlink:href="#glyph0-18" x="524.342773" y="370.441406"/>
  <use xlink:href="#glyph0-4" x="527.770508" y="370.441406"/>
  <use xlink:href="#glyph0-5" x="534.640625" y="370.441406"/>
  <use xlink:href="#glyph0-11" x="541.798828" y="370.441406"/>
  <use xlink:href="#glyph0-19" x="548.917969" y="370.441406"/>
</g>
<g style="fill:rgb(0%,0%,0%);fill-opacity:1;">
  <use xlink:href="#glyph0-30" x="474.714844" y="362.667969"/>
  <use xlink:href="#glyph0-9" x="484.666016" y="362.667969"/>
  <use xlink:href="#glyph0-8" x="491.448242" y="362.667969"/>
  <use xlink:href="#glyph0-17" x="496.228516" y="362.667969"/>
  <use xlink:href="#glyph0-6" x="503.347656" y="362.667969"/>
  <use xlink:href="#glyph0-22" x="510.095703" y="362.667969"/>
  <use xlink:href="#glyph0-4" x="517.214844" y="362.667969"/>
  <use xlink:href="#glyph0-19" x="524.084961" y="362.667969"/>
  <use xlink:href="#glyph0-6" x="530.037109" y="362.667969"/>
  <use xlink:href="#glyph0-3" x="536.785156" y="362.667969"/>
  <use xlink:href="#glyph0-7" x="541.716797" y="362.667969"/>
  <use xlink:href="#glyph0-10" x="547.644531" y="362.667969"/>
  <use xlink:href="#glyph0-22" x="551.072266" y="362.667969"/>
  <use xlink:href="#glyph0-6" x="558.191406" y="362.667969"/>
</g>
<g style="fill:rgb(0%,0%,0%);fill-opacity:1;">
  <use xlink:href="#glyph0-30" x="488.589844" y="349.679688"/>
  <use xlink:href="#glyph0-9" x="498.541016" y="349.679688"/>
  <use xlink:href="#glyph0-8" x="505.323242" y="349.679688"/>
  <use xlink:href="#glyph0-17" x="510.103516" y="349.679688"/>
  <use xlink:href="#glyph0-6" x="517.222656" y="349.679688"/>
  <use xlink:href="#glyph0-22" x="523.970703" y="349.679688"/>
  <use xlink:href="#glyph0-4" x="531.089844" y="349.679688"/>
  <use xlink:href="#glyph0-19" x="537.959961" y="349.679688"/>
  <use xlink:href="#glyph0-6" x="543.912109" y="349.679688"/>
  <use xlink:href="#glyph0-3" x="550.660156" y="349.679688"/>
  <use xlink:href="#glyph0-7" x="555.591797" y="349.679688"/>
  <use xlink:href="#glyph0-10" x="561.519531" y="349.679688"/>
  <use xlink:href="#glyph0-22" x="564.947266" y="349.679688"/>
  <use xlink:href="#glyph0-6" x="572.066406" y="349.679688"/>
  <use xlink:href="#glyph0-31" x="578.814453" y="349.679688"/>
  <use xlink:href="#glyph0-27" x="582.613281" y="349.679688"/>
</g>
<g style="fill:rgb(0%,0%,0%);fill-opacity:1;">
  <use xlink:href="#glyph0-30" x="506.109375" y="536.667969"/>
  <use xlink:href="#glyph0-9" x="516.060547" y="536.667969"/>
  <use xlink:href="#glyph0-8" x="522.842773" y="536.667969"/>
  <use xlink:href="#glyph0-17" x="527.623047" y="536.667969"/>
  <use xlink:href="#glyph0-6" x="534.742188" y="536.667969"/>
  <use xlink:href="#glyph0-22" x="541.490234" y="536.667969"/>
  <use xlink:href="#glyph0-4" x="548.609375" y="536.667969"/>
  <use xlink:href="#glyph0-19" x="555.479492" y="536.667969"/>
  <use xlink:href="#glyph0-23" x="561.431641" y="536.667969"/>
  <use xlink:href="#glyph0-10" x="568.589844" y="536.667969"/>
  <use xlink:href="#glyph0-3" x="572.017578" y="536.667969"/>
  <use xlink:href="#glyph0-10" x="576.949219" y="536.667969"/>
  <use xlink:href="#glyph0-18" x="580.376953" y="536.667969"/>
  <use xlink:href="#glyph0-18" x="583.804688" y="536.667969"/>
  <use xlink:href="#glyph0-11" x="587.232422" y="536.667969"/>
  <use xlink:href="#glyph0-12" x="594.351563" y="536.667969"/>
</g>
<g style="fill:rgb(0%,0%,0%);fill-opacity:1;">
  <use xlink:href="#glyph0-30" x="221.28125" y="634.15625"/>
  <use xlink:href="#glyph0-9" x="231.232422" y="634.15625"/>
  <use xlink:href="#glyph0-8" x="238.014648" y="634.15625"/>
  <use xlink:href="#glyph0-17" x="242.794922" y="634.15625"/>
  <use xlink:href="#glyph0-6" x="249.914062" y="634.15625"/>
  <use xlink:href="#glyph0-22" x="256.662109" y="634.15625"/>
  <use xlink:href="#glyph0-4" x="263.78125" y="634.15625"/>
  <use xlink:href="#glyph0-8" x="270.651367" y="634.15625"/>
  <use xlink:href="#glyph0-17" x="275.431641" y="634.15625"/>
  <use xlink:href="#glyph0-9" x="282.550781" y="634.15625"/>
  <use xlink:href="#glyph0-3" x="289.333008" y="634.15625"/>
  <use xlink:href="#glyph0-12" x="294.264648" y="634.15625"/>
  <use xlink:href="#glyph0-4" x="304.68457" y="634.15625"/>
  <use xlink:href="#glyph0-5" x="311.554687" y="634.15625"/>
  <use xlink:href="#glyph0-6" x="318.712891" y="634.15625"/>
  <use xlink:href="#glyph0-7" x="325.460937" y="634.15625"/>
  <use xlink:href="#glyph0-8" x="331.388672" y="634.15625"/>
  <use xlink:href="#glyph0-9" x="336.168945" y="634.15625"/>
  <use xlink:href="#glyph0-3" x="342.951172" y="634.15625"/>
</g>
<g style="fill:rgb(0%,0%,0%);fill-opacity:1;">
  <use xlink:href="#glyph0-30" x="540.824219" y="393.214844"/>
  <use xlink:href="#glyph0-9" x="550.775391" y="393.214844"/>
  <use xlink:href="#glyph0-8" x="557.557617" y="393.214844"/>
  <use xlink:href="#glyph0-17" x="562.337891" y="393.214844"/>
  <use xlink:href="#glyph0-6" x="569.457031" y="393.214844"/>
  <use xlink:href="#glyph0-22" x="576.205078" y="393.214844"/>
  <use xlink:href="#glyph0-4" x="583.324219" y="393.214844"/>
  <use xlink:href="#glyph0-8" x="590.194336" y="393.214844"/>
  <use xlink:href="#glyph0-17" x="594.974609" y="393.214844"/>
  <use xlink:href="#glyph0-9" x="602.09375" y="393.214844"/>
  <use xlink:href="#glyph0-3" x="608.875977" y="393.214844"/>
  <use xlink:href="#glyph0-12" x="613.807617" y="393.214844"/>
</g>
<g style="fill:rgb(0%,0%,0%);fill-opacity:1;">
  <use xlink:href="#glyph0-30" x="373.238281" y="570.121094"/>
  <use xlink:href="#glyph0-9" x="383.189453" y="570.121094"/>
  <use xlink:href="#glyph0-8" x="389.97168" y="570.121094"/>
  <use xlink:href="#glyph0-17" x="394.751953" y="570.121094"/>
  <use xlink:href="#glyph0-6" x="401.871094" y="570.121094"/>
  <use xlink:href="#glyph0-22" x="408.619141" y="570.121094"/>
  <use xlink:href="#glyph0-4" x="415.738281" y="570.121094"/>
  <use xlink:href="#glyph0-8" x="422.608398" y="570.121094"/>
  <use xlink:href="#glyph0-17" x="427.388672" y="570.121094"/>
  <use xlink:href="#glyph0-9" x="434.507812" y="570.121094"/>
  <use xlink:href="#glyph0-3" x="441.290039" y="570.121094"/>
  <use xlink:href="#glyph0-12" x="446.22168" y="570.121094"/>
  <use xlink:href="#glyph0-11" x="456.641602" y="570.121094"/>
  <use xlink:href="#glyph0-19" x="463.760742" y="570.121094"/>
</g>
<g style="fill:rgb(0%,0%,0%);fill-opacity:1;">
  <use xlink:href="#glyph0-32" x="526.246094" y="520.8125"/>
  <use xlink:href="#glyph0-6" x="534.615234" y="520.8125"/>
  <use xlink:href="#glyph0-22" x="541.363281" y="520.8125"/>
  <use xlink:href="#glyph0-4" x="548.482422" y="520.8125"/>
  <use xlink:href="#glyph0-6" x="555.352539" y="520.8125"/>
  <use xlink:href="#glyph0-3" x="562.100586" y="520.8125"/>
  <use xlink:href="#glyph0-7" x="567.032227" y="520.8125"/>
  <use xlink:href="#glyph0-17" x="572.959961" y="520.8125"/>
  <use xlink:href="#glyph0-6" x="580.079102" y="520.8125"/>
  <use xlink:href="#glyph0-9" x="586.827148" y="520.8125"/>
  <use xlink:href="#glyph0-11" x="593.609375" y="520.8125"/>
  <use xlink:href="#glyph0-12" x="600.728516" y="520.8125"/>
</g>
<g style="fill:rgb(0%,0%,0%);fill-opacity:1;">
  <use xlink:href="#glyph0-32" x="452.316406" y="467.28125"/>
  <use xlink:href="#glyph0-6" x="460.685547" y="467.28125"/>
  <use xlink:href="#glyph0-8" x="467.433594" y="467.28125"/>
  <use xlink:href="#glyph0-3" x="472.213867" y="467.28125"/>
  <use xlink:href="#glyph0-10" x="477.145508" y="467.28125"/>
  <use xlink:href="#glyph0-22" x="480.573242" y="467.28125"/>
  <use xlink:href="#glyph0-9" x="487.692383" y="467.28125"/>
  <use xlink:href="#glyph0-12" x="494.474609" y="467.28125"/>
  <use xlink:href="#glyph0-6" x="504.894531" y="467.28125"/>
</g>
<g style="fill:rgb(0%,0%,0%);fill-opacity:1;">
  <use xlink:href="#glyph0-32" x="95.886719" y="115.570312"/>
  <use xlink:href="#glyph0-4" x="104.255859" y="115.570312"/>
  <use xlink:href="#glyph0-19" x="111.125977" y="115.570312"/>
  <use xlink:href="#glyph0-9" x="117.078125" y="115.570312"/>
  <use xlink:href="#glyph0-12" x="123.860352" y="115.570312"/>
  <use xlink:href="#glyph0-6" x="134.280273" y="115.570312"/>
</g>
<g style="fill:rgb(0%,0%,0%);fill-opacity:1;">
  <use xlink:href="#glyph0-33" x="310.980469" y="220.699219"/>
  <use xlink:href="#glyph0-17" x="318.30957" y="220.699219"/>
  <use xlink:href="#glyph0-24" x="325.428711" y="220.699219"/>
  <use xlink:href="#glyph0-19" x="331.947266" y="220.699219"/>
  <use xlink:href="#glyph0-6" x="337.899414" y="220.699219"/>
  <use xlink:href="#glyph0-3" x="344.647461" y="220.699219"/>
  <use xlink:href="#glyph0-11" x="349.579102" y="220.699219"/>
  <use xlink:href="#glyph0-12" x="356.698242" y="220.699219"/>
</g>
<g style="fill:rgb(0%,0%,0%);fill-opacity:1;">
  <use xlink:href="#glyph0-33" x="434.566406" y="247.855469"/>
  <use xlink:href="#glyph0-24" x="441.895508" y="247.855469"/>
  <use xlink:href="#glyph0-3" x="448.414062" y="247.855469"/>
  <use xlink:href="#glyph0-4" x="453.345703" y="247.855469"/>
  <use xlink:href="#glyph0-5" x="460.21582" y="247.855469"/>
  <use xlink:href="#glyph0-6" x="467.374023" y="247.855469"/>
  <use xlink:href="#glyph0-7" x="474.12207" y="247.855469"/>
  <use xlink:href="#glyph0-11" x="480.049805" y="247.855469"/>
  <use xlink:href="#glyph0-18" x="487.168945" y="247.855469"/>
  <use xlink:href="#glyph0-11" x="490.59668" y="247.855469"/>
  <use xlink:href="#glyph0-12" x="497.71582" y="247.855469"/>
</g>
<g style="fill:rgb(0%,0%,0%);fill-opacity:1;">
  <use xlink:href="#glyph0-33" x="441.710937" y="453.339844"/>
  <use xlink:href="#glyph0-24" x="449.040039" y="453.339844"/>
  <use xlink:href="#glyph0-3" x="455.558594" y="453.339844"/>
  <use xlink:href="#glyph0-4" x="460.490234" y="453.339844"/>
  <use xlink:href="#glyph0-7" x="467.360352" y="453.339844"/>
  <use xlink:href="#glyph0-4" x="473.288086" y="453.339844"/>
  <use xlink:href="#glyph0-7" x="480.158203" y="453.339844"/>
  <use xlink:href="#glyph0-7" x="486.085937" y="453.339844"/>
  <use xlink:href="#glyph0-11" x="492.013672" y="453.339844"/>
  <use xlink:href="#glyph0-19" x="499.132812" y="453.339844"/>
</g>
<g style="fill:rgb(0%,0%,0%);fill-opacity:1;">
  <use xlink:href="#glyph0-34" x="298.089844" y="80.75"/>
  <use xlink:href="#glyph0-6" x="305.291992" y="80.75"/>
  <use xlink:href="#glyph0-7" x="312.040039" y="80.75"/>
  <use xlink:href="#glyph0-7" x="317.967773" y="80.75"/>
  <use xlink:href="#glyph0-17" x="323.895508" y="80.75"/>
  <use xlink:href="#glyph0-6" x="331.014648" y="80.75"/>
  <use xlink:href="#glyph0-3" x="337.762695" y="80.75"/>
  <use xlink:href="#glyph0-4" x="342.694336" y="80.75"/>
  <use xlink:href="#glyph0-12" x="349.564453" y="80.75"/>
  <use xlink:href="#glyph0-24" x="359.984375" y="80.75"/>
  <use xlink:href="#glyph0-7" x="366.50293" y="80.75"/>
  <use xlink:href="#glyph0-9" x="372.430664" y="80.75"/>
  <use xlink:href="#glyph0-19" x="379.212891" y="80.75"/>
</g>
<g style="fill:rgb(0%,0%,0%);fill-opacity:1;">
  <use xlink:href="#glyph0-34" x="72.414062" y="529.152344"/>
  <use xlink:href="#glyph0-23" x="79.616211" y="529.152344"/>
  <use xlink:href="#glyph0-10" x="86.774414" y="529.152344"/>
  <use xlink:href="#glyph0-3" x="90.202148" y="529.152344"/>
  <use xlink:href="#glyph0-4" x="95.133789" y="529.152344"/>
  <use xlink:href="#glyph0-7" x="102.003906" y="529.152344"/>
  <use xlink:href="#glyph0-17" x="107.931641" y="529.152344"/>
  <use xlink:href="#glyph0-6" x="115.050781" y="529.152344"/>
  <use xlink:href="#glyph0-9" x="121.798828" y="529.152344"/>
  <use xlink:href="#glyph0-8" x="128.581055" y="529.152344"/>
  <use xlink:href="#glyph0-6" x="133.361328" y="529.152344"/>
</g>
<g style="fill:rgb(0%,0%,0%);fill-opacity:1;">
  <use xlink:href="#glyph0-34" x="231.398438" y="601.355469"/>
  <use xlink:href="#glyph0-8" x="238.600586" y="601.355469"/>
  <use xlink:href="#glyph0-3" x="243.380859" y="601.355469"/>
  <use xlink:href="#glyph0-9" x="248.3125" y="601.355469"/>
  <use xlink:href="#glyph0-23" x="255.094727" y="601.355469"/>
  <use xlink:href="#glyph0-8" x="262.25293" y="601.355469"/>
  <use xlink:href="#glyph0-4" x="267.033203" y="601.355469"/>
  <use xlink:href="#glyph0-12" x="273.90332" y="601.355469"/>
  <use xlink:href="#glyph0-24" x="284.323242" y="601.355469"/>
  <use xlink:href="#glyph0-7" x="290.841797" y="601.355469"/>
  <use xlink:href="#glyph0-9" x="296.769531" y="601.355469"/>
  <use xlink:href="#glyph0-19" x="303.551758" y="601.355469"/>
</g>
<g style="fill:rgb(0%,0%,0%);fill-opacity:1;">
  <use xlink:href="#glyph0-34" x="527.808594" y="294.304688"/>
  <use xlink:href="#glyph0-11" x="535.010742" y="294.304688"/>
  <use xlink:href="#glyph0-18" x="542.129883" y="294.304688"/>
  <use xlink:href="#glyph0-15" x="545.557617" y="294.304688"/>
  <use xlink:href="#glyph0-4" x="549.908203" y="294.304688"/>
  <use xlink:href="#glyph0-18" x="556.77832" y="294.304688"/>
  <use xlink:href="#glyph0-4" x="560.206055" y="294.304688"/>
  <use xlink:href="#glyph0-5" x="567.076172" y="294.304688"/>
  <use xlink:href="#glyph0-11" x="574.234375" y="294.304688"/>
  <use xlink:href="#glyph0-19" x="581.353516" y="294.304688"/>
</g>
<g style="fill:rgb(0%,0%,0%);fill-opacity:1;">
  <use xlink:href="#glyph0-35" x="449.609375" y="442.058594"/>
  <use xlink:href="#glyph0-17" x="456.430664" y="442.058594"/>
  <use xlink:href="#glyph0-9" x="463.549805" y="442.058594"/>
  <use xlink:href="#glyph0-3" x="470.332031" y="442.058594"/>
  <use xlink:href="#glyph0-12" x="475.263672" y="442.058594"/>
  <use xlink:href="#glyph0-4" x="485.683594" y="442.058594"/>
  <use xlink:href="#glyph0-7" x="492.553711" y="442.058594"/>
  <use xlink:href="#glyph0-4" x="498.481445" y="442.058594"/>
  <use xlink:href="#glyph0-7" x="505.351562" y="442.058594"/>
  <use xlink:href="#glyph0-7" x="511.279297" y="442.058594"/>
  <use xlink:href="#glyph0-11" x="517.207031" y="442.058594"/>
  <use xlink:href="#glyph0-19" x="524.326172" y="442.058594"/>
</g>
<g style="fill:rgb(0%,0%,0%);fill-opacity:1;">
  <use xlink:href="#glyph0-35" x="537.359375" y="422.316406"/>
  <use xlink:href="#glyph0-17" x="544.180664" y="422.316406"/>
  <use xlink:href="#glyph0-9" x="551.299805" y="422.316406"/>
  <use xlink:href="#glyph0-3" x="558.082031" y="422.316406"/>
  <use xlink:href="#glyph0-12" x="563.013672" y="422.316406"/>
  <use xlink:href="#glyph0-4" x="573.433594" y="422.316406"/>
  <use xlink:href="#glyph0-23" x="580.303711" y="422.316406"/>
  <use xlink:href="#glyph0-18" x="587.461914" y="422.316406"/>
  <use xlink:href="#glyph0-6" x="590.889648" y="422.316406"/>
  <use xlink:href="#glyph0-19" x="597.637695" y="422.316406"/>
  <use xlink:href="#glyph0-12" x="603.589844" y="422.316406"/>
  <use xlink:href="#glyph0-6" x="614.009766" y="422.316406"/>
</g>
<g style="fill:rgb(0%,0%,0%);fill-opacity:1;">
  <use xlink:href="#glyph0-35" x="266.910156" y="622.886719"/>
  <use xlink:href="#glyph0-17" x="273.731445" y="622.886719"/>
  <use xlink:href="#glyph0-9" x="280.850586" y="622.886719"/>
  <use xlink:href="#glyph0-3" x="287.632812" y="622.886719"/>
  <use xlink:href="#glyph0-12" x="292.564453" y="622.886719"/>
  <use xlink:href="#glyph0-4" x="302.984375" y="622.886719"/>
  <use xlink:href="#glyph0-8" x="309.854492" y="622.886719"/>
  <use xlink:href="#glyph0-4" x="314.634766" y="622.886719"/>
  <use xlink:href="#glyph0-2" x="321.504883" y="622.886719"/>
  <use xlink:href="#glyph0-6" x="328.663086" y="622.886719"/>
</g>
<g style="fill:rgb(0%,0%,0%);fill-opacity:1;">
  <use xlink:href="#glyph0-35" x="76.964844" y="451.433594"/>
  <use xlink:href="#glyph0-17" x="83.786133" y="451.433594"/>
  <use xlink:href="#glyph0-9" x="90.905273" y="451.433594"/>
  <use xlink:href="#glyph0-3" x="97.6875" y="451.433594"/>
  <use xlink:href="#glyph0-12" x="102.619141" y="451.433594"/>
  <use xlink:href="#glyph0-11" x="113.039062" y="451.433594"/>
  <use xlink:href="#glyph0-19" x="120.158203" y="451.433594"/>
</g>
<g style="fill:rgb(0%,0%,0%);fill-opacity:1;">
  <use xlink:href="#glyph0-36" x="113.214844" y="252.984375"/>
  <use xlink:href="#glyph0-9" x="120.924805" y="252.984375"/>
  <use xlink:href="#glyph0-22" x="127.707031" y="252.984375"/>
  <use xlink:href="#glyph0-4" x="134.826172" y="252.984375"/>
  <use xlink:href="#glyph0-23" x="141.696289" y="252.984375"/>
  <use xlink:href="#glyph0-11" x="148.854492" y="252.984375"/>
  <use xlink:href="#glyph0-19" x="155.973633" y="252.984375"/>
</g>
<g style="fill:rgb(0%,0%,0%);fill-opacity:1;">
  <use xlink:href="#glyph0-37" x="186.050781" y="104.226562"/>
  <use xlink:href="#glyph0-9" x="193.301758" y="104.226562"/>
  <use xlink:href="#glyph0-6" x="200.083984" y="104.226562"/>
</g>
</g>
</svg>
