<?xml version="1.0" encoding="UTF-8"?>
<svg xmlns="http://www.w3.org/2000/svg" xmlns:xlink="http://www.w3.org/1999/xlink" width="612pt" height="792pt" viewBox="0 0 612 792" version="1.1">
<defs>
<g>
<symbol overflow="visible" id="glyph0-0">
<path style="stroke:none;" d=""/>
</symbol>
<symbol overflow="visible" id="glyph0-1">
<path style="stroke:none;" d="M 5.015625 -1.46875 L 5.484375 0 L 7.03125 0 L 4.515625 -7.296875 L 2.84375 -7.296875 L 0.265625 0 L 1.796875 0 L 2.28125 -1.46875 L 5.015625 -1.46875 Z M 4.59375 -2.71875 L 2.703125 -2.71875 L 3.65625 -5.5625 L 4.59375 -2.71875 Z M 4.59375 -2.71875 "/>
</symbol>
<symbol overflow="visible" id="glyph0-2">
<path style="stroke:none;" d="M 4.078125 -5.40625 L 4.078125 -4.5625 C 3.65625 -5.203125 3.203125 -5.484375 2.578125 -5.484375 C 1.296875 -5.484375 0.34375 -4.234375 0.34375 -2.5625 C 0.34375 -0.890625 1.21875 0.234375 2.546875 0.234375 C 3.1875 0.234375 3.5625 0.046875 4.078125 -0.546875 L 4.078125 0.1875 C 4.078125 0.828125 3.59375 1.28125 2.890625 1.28125 C 2.359375 1.28125 2.015625 1.0625 1.90625 0.65625 L 0.453125 0.65625 C 0.453125 1.0625 0.625 1.359375 0.984375 1.65625 C 1.40625 2.015625 2.015625 2.1875 2.84375 2.1875 C 4.46875 2.1875 5.40625 1.453125 5.40625 0.1875 L 5.40625 -5.40625 L 4.078125 -5.40625 Z M 2.875 -4.3125 C 3.578125 -4.3125 4.09375 -3.59375 4.09375 -2.59375 C 4.09375 -1.609375 3.59375 -0.9375 2.859375 -0.9375 C 2.203125 -0.9375 1.734375 -1.609375 1.734375 -2.59375 C 1.734375 -3.609375 2.203125 -4.3125 2.875 -4.3125 Z M 2.875 -4.3125 "/>
</symbol>
<symbol overflow="visible" id="glyph0-3">
<path style="stroke:none;" d="M 0.625 -5.40625 L 0.625 0 L 2.03125 0 L 2.03125 -2.875 C 2.03125 -3.6875 2.4375 -4.09375 3.265625 -4.09375 C 3.40625 -4.09375 3.515625 -4.09375 3.703125 -4.0625 L 3.703125 -5.484375 C 3.625 -5.484375 3.5625 -5.484375 3.53125 -5.484375 C 2.890625 -5.484375 2.328125 -5.0625 2.03125 -4.34375 L 2.03125 -5.40625 L 0.625 -5.40625 Z M 0.625 -5.40625 "/>
</symbol>
<symbol overflow="visible" id="glyph0-4">
<path style="stroke:none;" d="M 3.015625 -5.484375 C 1.359375 -5.484375 0.34375 -4.40625 0.34375 -2.625 C 0.34375 -0.84375 1.359375 0.234375 3.015625 0.234375 C 4.65625 0.234375 5.6875 -0.859375 5.6875 -2.59375 C 5.6875 -4.421875 4.703125 -5.484375 3.015625 -5.484375 Z M 3.015625 -4.359375 C 3.796875 -4.359375 4.296875 -3.671875 4.296875 -2.609375 C 4.296875 -1.59375 3.765625 -0.90625 3.015625 -0.90625 C 2.265625 -0.90625 1.75 -1.59375 1.75 -2.625 C 1.75 -3.65625 2.265625 -4.359375 3.015625 -4.359375 Z M 3.015625 -4.359375 "/>
</symbol>
<symbol overflow="visible" id="glyph0-5">
<path style="stroke:none;" d="M 0.59375 -7.296875 L 0.59375 0 L 1.984375 0 L 1.984375 -0.546875 C 2.328125 -0.015625 2.796875 0.234375 3.484375 0.234375 C 4.765625 0.234375 5.75 -1 5.75 -2.625 C 5.75 -3.359375 5.53125 -4.09375 5.171875 -4.625 C 4.796875 -5.15625 4.140625 -5.484375 3.484375 -5.484375 C 2.8125 -5.484375 2.328125 -5.234375 1.984375 -4.703125 L 1.984375 -7.296875 L 0.59375 -7.296875 Z M 3.171875 -4.3125 C 3.859375 -4.3125 4.34375 -3.625 4.34375 -2.625 C 4.34375 -1.640625 3.859375 -0.9375 3.171875 -0.9375 C 2.453125 -0.9375 1.984375 -1.625 1.984375 -2.65625 C 1.984375 -3.625 2.46875 -4.3125 3.171875 -4.3125 Z M 3.171875 -4.3125 "/>
</symbol>
<symbol overflow="visible" id="glyph0-6">
<path style="stroke:none;" d="M 5.234375 -0.171875 C 4.984375 -0.40625 4.921875 -0.546875 4.921875 -0.828125 L 4.921875 -3.828125 C 4.921875 -4.9375 4.171875 -5.484375 2.703125 -5.484375 C 1.25 -5.484375 0.484375 -4.875 0.40625 -3.625 L 1.75 -3.625 C 1.8125 -4.1875 2.046875 -4.359375 2.734375 -4.359375 C 3.28125 -4.359375 3.546875 -4.1875 3.546875 -3.8125 C 3.546875 -3.640625 3.453125 -3.484375 3.3125 -3.40625 C 3.125 -3.296875 3.125 -3.296875 2.4375 -3.1875 L 1.875 -3.09375 C 0.796875 -2.90625 0.28125 -2.359375 0.28125 -1.390625 C 0.28125 -0.9375 0.40625 -0.546875 0.65625 -0.28125 C 0.96875 0.046875 1.4375 0.234375 1.921875 0.234375 C 2.515625 0.234375 3.0625 -0.03125 3.5625 -0.546875 C 3.5625 -0.265625 3.59375 -0.15625 3.71875 0 L 5.234375 0 L 5.234375 -0.171875 Z M 3.546875 -2.171875 C 3.546875 -1.359375 3.15625 -0.90625 2.4375 -0.90625 C 1.96875 -0.90625 1.6875 -1.15625 1.6875 -1.546875 C 1.6875 -1.96875 1.90625 -2.171875 2.484375 -2.296875 L 2.953125 -2.375 C 3.328125 -2.453125 3.390625 -2.46875 3.546875 -2.546875 L 3.546875 -2.171875 Z M 3.546875 -2.171875 "/>
</symbol>
<symbol overflow="visible" id="glyph0-7">
<path style="stroke:none;" d="M 5.21875 -3.375 C 5.125 -4.703125 4.234375 -5.484375 2.890625 -5.484375 C 1.28125 -5.484375 0.34375 -4.4375 0.34375 -2.59375 C 0.34375 -0.8125 1.265625 0.234375 2.875 0.234375 C 4.1875 0.234375 5.09375 -0.578125 5.21875 -1.875 L 3.875 -1.875 C 3.703125 -1.171875 3.421875 -0.90625 2.875 -0.90625 C 2.171875 -0.90625 1.734375 -1.546875 1.734375 -2.59375 C 1.734375 -3.09375 1.84375 -3.578125 2.015625 -3.90625 C 2.171875 -4.203125 2.484375 -4.359375 2.875 -4.359375 C 3.453125 -4.359375 3.71875 -4.09375 3.875 -3.375 L 5.21875 -3.375 Z M 5.21875 -3.375 "/>
</symbol>
<symbol overflow="visible" id="glyph0-8">
<path style="stroke:none;" d="M 3.015625 -5.296875 L 2.234375 -5.296875 L 2.234375 -6.734375 L 0.828125 -6.734375 L 0.828125 -5.296875 L 0.140625 -5.296875 L 0.140625 -4.359375 L 0.828125 -4.359375 L 0.828125 -1.046875 C 0.828125 -0.1875 1.28125 0.234375 2.203125 0.234375 C 2.515625 0.234375 2.765625 0.203125 3.015625 0.125 L 3.015625 -0.859375 C 2.875 -0.84375 2.796875 -0.828125 2.6875 -0.828125 C 2.3125 -0.828125 2.234375 -0.9375 2.234375 -1.421875 L 2.234375 -4.359375 L 3.015625 -4.359375 L 3.015625 -5.296875 Z M 3.015625 -5.296875 "/>
</symbol>
<symbol overflow="visible" id="glyph0-9">
<path style="stroke:none;" d="M 5.234375 -2.265625 C 5.25 -2.375 5.25 -2.4375 5.25 -2.5 C 5.25 -3.046875 5.171875 -3.546875 5.046875 -3.921875 C 4.6875 -4.90625 3.8125 -5.484375 2.71875 -5.484375 C 1.171875 -5.484375 0.21875 -4.375 0.21875 -2.5625 C 0.21875 -0.828125 1.15625 0.234375 2.6875 0.234375 C 3.90625 0.234375 4.875 -0.453125 5.1875 -1.515625 L 3.8125 -1.515625 C 3.640625 -1.09375 3.25 -0.84375 2.734375 -0.84375 C 2.34375 -0.84375 2.015625 -1.015625 1.8125 -1.3125 C 1.6875 -1.515625 1.640625 -1.75 1.625 -2.265625 L 5.234375 -2.265625 Z M 1.640625 -3.1875 C 1.734375 -4.015625 2.078125 -4.421875 2.703125 -4.421875 C 3.046875 -4.421875 3.375 -4.25 3.5625 -3.96875 C 3.703125 -3.765625 3.765625 -3.5625 3.796875 -3.1875 L 1.640625 -3.1875 Z M 1.640625 -3.1875 "/>
</symbol>
<symbol overflow="visible" id="glyph0-10">
<path style="stroke:none;" d="M 2.0625 -5.40625 L 0.671875 -5.40625 L 0.671875 0 L 2.0625 0 L 2.0625 -5.40625 Z M 2.0625 -7.296875 L 0.671875 -7.296875 L 0.671875 -6.046875 L 2.0625 -6.046875 L 2.0625 -7.296875 Z M 2.0625 -7.296875 "/>
</symbol>
<symbol overflow="visible" id="glyph0-11">
<path style="stroke:none;" d="M 5.40625 0 L 5.40625 -5.40625 L 4.015625 -5.40625 L 4.015625 -2.015625 C 4.015625 -1.375 3.5625 -0.953125 2.875 -0.953125 C 2.28125 -0.953125 1.984375 -1.28125 1.984375 -1.9375 L 1.984375 -5.40625 L 0.578125 -5.40625 L 0.578125 -1.640625 C 0.578125 -0.453125 1.234375 0.234375 2.390625 0.234375 C 3.125 0.234375 3.609375 -0.046875 4.015625 -0.640625 L 4.015625 0 L 5.40625 0 Z M 5.40625 0 "/>
</symbol>
<symbol overflow="visible" id="glyph0-12">
<path style="stroke:none;" d="M 0.59375 -5.40625 L 0.59375 0 L 2 0 L 2 -3.234375 C 2 -3.90625 2.359375 -4.296875 2.953125 -4.296875 C 3.4375 -4.296875 3.71875 -4.03125 3.71875 -3.59375 L 3.71875 0 L 5.125 0 L 5.125 -3.234375 C 5.125 -3.90625 5.484375 -4.296875 6.078125 -4.296875 C 6.546875 -4.296875 6.84375 -4.03125 6.84375 -3.59375 L 6.84375 0 L 8.234375 0 L 8.234375 -3.8125 C 8.234375 -4.875 7.59375 -5.484375 6.515625 -5.484375 C 5.84375 -5.484375 5.359375 -5.25 4.9375 -4.6875 C 4.6875 -5.203125 4.140625 -5.484375 3.46875 -5.484375 C 2.84375 -5.484375 2.453125 -5.28125 1.984375 -4.734375 L 1.984375 -5.40625 L 0.59375 -5.40625 Z M 0.59375 -5.40625 "/>
</symbol>
<symbol overflow="visible" id="glyph0-13">
<path style="stroke:none;" d="M 0.8125 0 L 4.09375 0 C 4.9375 0 5.5 -0.15625 5.9375 -0.53125 C 6.375 -0.90625 6.65625 -1.515625 6.65625 -2.09375 C 6.65625 -2.8125 6.265625 -3.390625 5.453125 -3.875 C 6.171875 -4.328125 6.453125 -4.75 6.453125 -5.375 C 6.453125 -5.875 6.203125 -6.40625 5.796875 -6.765625 C 5.359375 -7.125 4.84375 -7.296875 4.0625 -7.296875 L 0.8125 -7.296875 L 0.8125 0 Z M 2.3125 -6.046875 L 3.953125 -6.046875 C 4.640625 -6.046875 5.015625 -5.75 5.015625 -5.203125 C 5.015625 -4.6875 4.640625 -4.390625 3.953125 -4.390625 L 2.3125 -4.390625 L 2.3125 -6.046875 Z M 2.3125 -3.140625 L 4.109375 -3.140625 C 4.84375 -3.140625 5.21875 -2.8125 5.21875 -2.1875 C 5.21875 -1.578125 4.84375 -1.25 4.109375 -1.25 L 2.3125 -1.25 L 2.3125 -3.140625 Z M 2.3125 -3.140625 "/>
</symbol>
<symbol overflow="visible" id="glyph0-14">
<path style="stroke:none;" d="M 2.0625 -7.296875 L 0.671875 -7.296875 L 0.671875 0 L 2.0625 0 L 2.0625 -7.296875 Z M 2.0625 -7.296875 "/>
</symbol>
<symbol overflow="visible" id="glyph0-15">
<path style="stroke:none;" d="M 5.046875 -3.65625 C 5.03125 -4.796875 4.15625 -5.484375 2.703125 -5.484375 C 1.328125 -5.484375 0.484375 -4.796875 0.484375 -3.6875 C 0.484375 -3.328125 0.59375 -3.015625 0.78125 -2.8125 C 0.96875 -2.625 1.140625 -2.53125 1.65625 -2.359375 L 3.328125 -1.84375 C 3.6875 -1.734375 3.796875 -1.625 3.796875 -1.40625 C 3.796875 -1.0625 3.40625 -0.875 2.765625 -0.875 C 2.40625 -0.875 2.109375 -0.9375 1.9375 -1.0625 C 1.78125 -1.171875 1.71875 -1.28125 1.65625 -1.5625 L 0.296875 -1.5625 C 0.328125 -0.390625 1.203125 0.234375 2.84375 0.234375 C 3.59375 0.234375 4.15625 0.0625 4.5625 -0.25 C 4.953125 -0.5625 5.203125 -1.0625 5.203125 -1.59375 C 5.203125 -2.296875 4.84375 -2.75 4.140625 -2.953125 L 2.375 -3.46875 C 1.984375 -3.59375 1.875 -3.671875 1.875 -3.890625 C 1.875 -4.1875 2.203125 -4.390625 2.6875 -4.390625 C 3.359375 -4.390625 3.6875 -4.15625 3.703125 -3.65625 L 5.046875 -3.65625 Z M 5.046875 -3.65625 "/>
</symbol>
<symbol overflow="visible" id="glyph0-16">
<path style="stroke:none;" d="M 6.8125 -4.8125 C 6.765625 -5.453125 6.640625 -5.84375 6.328125 -6.265625 C 5.765625 -7 4.875 -7.40625 3.78125 -7.40625 C 1.71875 -7.40625 0.4375 -5.9375 0.4375 -3.578125 C 0.4375 -1.234375 1.703125 0.234375 3.734375 0.234375 C 5.546875 0.234375 6.765625 -0.8125 6.84375 -2.484375 L 5.390625 -2.484375 C 5.296875 -1.5625 4.703125 -1.03125 3.78125 -1.03125 C 2.625 -1.03125 1.9375 -1.96875 1.9375 -3.5625 C 1.9375 -5.171875 2.65625 -6.125 3.828125 -6.125 C 4.34375 -6.125 4.78125 -5.953125 5.0625 -5.59375 C 5.21875 -5.40625 5.296875 -5.203125 5.390625 -4.8125 L 6.8125 -4.8125 Z M 6.8125 -4.8125 "/>
</symbol>
<symbol overflow="visible" id="glyph0-17">
<path style="stroke:none;" d="M 0.625 -5.40625 L 0.625 0 L 2.03125 0 L 2.03125 -3.234375 C 2.03125 -3.875 2.484375 -4.296875 3.15625 -4.296875 C 3.765625 -4.296875 4.0625 -3.96875 4.0625 -3.328125 L 4.0625 0 L 5.453125 0 L 5.453125 -3.625 C 5.453125 -4.8125 4.796875 -5.484375 3.65625 -5.484375 C 2.921875 -5.484375 2.4375 -5.21875 2.03125 -4.625 L 2.03125 -5.40625 L 0.625 -5.40625 Z M 0.625 -5.40625 "/>
</symbol>
<symbol overflow="visible" id="glyph0-18">
<path style="stroke:none;" d="M 0.671875 -7.296875 L 0.671875 0 L 2.0625 0 L 2.0625 -3.234375 C 2.0625 -3.859375 2.515625 -4.296875 3.15625 -4.296875 C 3.453125 -4.296875 3.6875 -4.1875 3.84375 -3.96875 C 3.96875 -3.796875 4.015625 -3.65625 4.015625 -3.296875 L 4.015625 0 L 5.40625 0 L 5.40625 -3.625 C 5.40625 -4.296875 5.234375 -4.765625 4.859375 -5.078125 C 4.546875 -5.34375 4.09375 -5.484375 3.65625 -5.484375 C 2.953125 -5.484375 2.453125 -5.203125 2.0625 -4.625 L 2.0625 -7.296875 L 0.671875 -7.296875 Z M 0.671875 -7.296875 "/>
</symbol>
<symbol overflow="visible" id="glyph0-19">
<path style="stroke:none;" d="M 4.046875 0 L 5.453125 0 L 5.453125 -7.296875 L 4.046875 -7.296875 L 4.046875 -4.703125 C 3.703125 -5.234375 3.234375 -5.484375 2.5625 -5.484375 C 1.265625 -5.484375 0.296875 -4.25 0.296875 -2.625 C 0.296875 -1.890625 0.515625 -1.15625 0.875 -0.625 C 1.234375 -0.109375 1.90625 0.234375 2.5625 0.234375 C 3.234375 0.234375 3.703125 -0.015625 4.046875 -0.546875 L 4.046875 0 Z M 2.875 -4.3125 C 3.578125 -4.3125 4.046875 -3.625 4.046875 -2.59375 C 4.046875 -1.625 3.5625 -0.9375 2.875 -0.9375 C 2.171875 -0.9375 1.6875 -1.625 1.6875 -2.625 C 1.6875 -3.625 2.171875 -4.3125 2.875 -4.3125 Z M 2.875 -4.3125 "/>
</symbol>
<symbol overflow="visible" id="glyph0-20">
<path style="stroke:none;" d="M 1.984375 -5.40625 L 0.578125 -5.40625 L 0.578125 2.1875 L 1.984375 2.1875 L 1.984375 -0.640625 C 2.3125 -0.046875 2.796875 0.234375 3.484375 0.234375 C 4.78125 0.234375 5.734375 -0.984375 5.734375 -2.625 C 5.734375 -3.375 5.515625 -4.140625 5.15625 -4.640625 C 4.796875 -5.15625 4.125 -5.484375 3.484375 -5.484375 C 2.796875 -5.484375 2.3125 -5.203125 1.984375 -4.59375 L 1.984375 -5.40625 Z M 3.15625 -4.3125 C 3.875 -4.3125 4.34375 -3.625 4.34375 -2.59375 C 4.34375 -1.625 3.84375 -0.9375 3.15625 -0.9375 C 2.453125 -0.9375 1.984375 -1.609375 1.984375 -2.625 C 1.984375 -3.625 2.453125 -4.3125 3.15625 -4.3125 Z M 3.15625 -4.3125 "/>
</symbol>
<symbol overflow="visible" id="glyph0-21">
<path style="stroke:none;" d="M 3.9375 -5.40625 L 2.8125 -1.46875 L 1.625 -5.40625 L 0.09375 -5.40625 L 2.09375 0.21875 L 2.09375 0.234375 L 2.09375 0.265625 C 2.09375 0.765625 1.71875 1.15625 1.234375 1.15625 C 1.125 1.15625 1.046875 1.15625 0.859375 1.09375 L 0.859375 2.15625 C 1.0625 2.1875 1.1875 2.1875 1.359375 2.1875 C 1.703125 2.1875 2.125 2.125 2.375 2.015625 C 2.765625 1.859375 2.9375 1.625 3.15625 0.984375 L 5.375 -5.40625 L 3.9375 -5.40625 Z M 3.9375 -5.40625 "/>
</symbol>
<symbol overflow="visible" id="glyph0-22">
<path style="stroke:none;" d="M 0.765625 0 L 3.625 0 C 4.734375 0 5.4375 -0.265625 5.921875 -0.84375 C 6.5 -1.53125 6.8125 -2.515625 6.8125 -3.65625 C 6.8125 -4.765625 6.5 -5.765625 5.921875 -6.453125 C 5.4375 -7.046875 4.734375 -7.296875 3.625 -7.296875 L 0.765625 -7.296875 L 0.765625 0 Z M 2.265625 -1.25 L 2.265625 -6.046875 L 3.625 -6.046875 C 4.75 -6.046875 5.3125 -5.25 5.3125 -3.640625 C 5.3125 -2.046875 4.75 -1.25 3.625 -1.25 L 2.265625 -1.25 Z M 2.265625 -1.25 "/>
</symbol>
<symbol overflow="visible" id="glyph0-23">
<path style="stroke:none;" d="M 2.296875 -3.140625 L 5.78125 -3.140625 L 5.78125 -4.390625 L 2.296875 -4.390625 L 2.296875 -6.046875 L 6.0625 -6.046875 L 6.0625 -7.296875 L 0.796875 -7.296875 L 0.796875 0 L 6.234375 0 L 6.234375 -1.25 L 2.296875 -1.25 L 2.296875 -3.140625 Z M 2.296875 -3.140625 "/>
</symbol>
<symbol overflow="visible" id="glyph0-24">
<path style="stroke:none;" d="M 2.234375 -3.140625 L 5.4375 -3.140625 L 5.4375 -4.390625 L 2.234375 -4.390625 L 2.234375 -6.046875 L 5.859375 -6.046875 L 5.859375 -7.296875 L 0.734375 -7.296875 L 0.734375 0 L 2.234375 0 L 2.234375 -3.140625 Z M 2.234375 -3.140625 "/>
</symbol>
<symbol overflow="visible" id="glyph0-25">
<path style="stroke:none;" d="M 3.5 0 L 5.359375 -5.40625 L 3.875 -5.40625 L 2.796875 -1.453125 L 1.625 -5.40625 L 0.140625 -5.40625 L 2.03125 0 L 3.5 0 Z M 3.5 0 "/>
</symbol>
<symbol overflow="visible" id="glyph0-26">
<path style="stroke:none;" d="M 5.0625 -3.3125 L 5.0625 0 L 6.5625 0 L 6.5625 -7.296875 L 5.0625 -7.296875 L 5.0625 -4.5625 L 2.1875 -4.5625 L 2.1875 -7.296875 L 0.6875 -7.296875 L 0.6875 0 L 2.1875 0 L 2.1875 -3.3125 L 5.0625 -3.3125 Z M 5.0625 -3.3125 "/>
</symbol>
<symbol overflow="visible" id="glyph0-27">
<path style="stroke:none;" d="M 2.15625 -5.6875 L 3.46875 0 L 4.96875 0 L 6.265625 -5.6875 L 6.265625 0 L 7.765625 0 L 7.765625 -7.296875 L 5.5 -7.296875 L 4.21875 -1.484375 L 2.90625 -7.296875 L 0.65625 -7.296875 L 0.65625 0 L 2.15625 0 L 2.15625 -5.6875 Z M 2.15625 -5.6875 "/>
</symbol>
<symbol overflow="visible" id="glyph0-28">
<path style="stroke:none;" d="M 5.109375 0 L 6.609375 0 L 6.609375 -7.296875 L 5.109375 -7.296875 L 5.109375 -2.328125 L 2.21875 -7.296875 L 0.6875 -7.296875 L 0.6875 0 L 2.1875 0 L 2.1875 -5.046875 L 5.109375 0 Z M 5.109375 0 "/>
</symbol>
<symbol overflow="visible" id="glyph0-29">
<path style="stroke:none;" d="M 2.265625 -2.59375 L 4.125 -2.59375 C 5.46875 -2.59375 6.328125 -3.546875 6.328125 -5.03125 C 6.328125 -6.484375 5.5 -7.296875 3.984375 -7.296875 L 0.765625 -7.296875 L 0.765625 0 L 2.265625 0 L 2.265625 -2.59375 Z M 2.265625 -3.84375 L 2.265625 -6.046875 L 3.65625 -6.046875 C 4.453125 -6.046875 4.828125 -5.6875 4.828125 -4.9375 C 4.828125 -4.203125 4.453125 -3.84375 3.65625 -3.84375 L 2.265625 -3.84375 Z M 2.265625 -3.84375 "/>
</symbol>
<symbol overflow="visible" id="glyph0-30">
<path style="stroke:none;" d="M 6.0625 -5.0625 C 6.0625 -5.734375 5.921875 -6.1875 5.5625 -6.578125 C 5.0625 -7.125 4.265625 -7.40625 3.203125 -7.40625 C 1.453125 -7.40625 0.453125 -6.59375 0.453125 -5.171875 C 0.453125 -4.046875 1.015625 -3.484375 2.5 -3.203125 L 3.515625 -3.015625 C 4.515625 -2.8125 4.890625 -2.546875 4.890625 -1.953125 C 4.890625 -1.34375 4.328125 -0.96875 3.421875 -0.96875 C 2.40625 -0.96875 1.828125 -1.40625 1.78125 -2.1875 L 0.3125 -2.1875 C 0.40625 -0.625 1.484375 0.234375 3.34375 0.234375 C 5.21875 0.234375 6.328125 -0.65625 6.328125 -2.125 C 6.328125 -3.28125 5.75 -3.875 4.40625 -4.140625 L 3.265625 -4.359375 C 2.1875 -4.5625 1.875 -4.78125 1.875 -5.3125 C 1.875 -5.859375 2.375 -6.203125 3.140625 -6.203125 C 4.09375 -6.203125 4.625 -5.8125 4.671875 -5.0625 L 6.0625 -5.0625 Z M 6.0625 -5.0625 "/>
</symbol>
<symbol overflow="visible" id="glyph0-31">
<path style="stroke:none;" d="M 3.125 -5.296875 L 2.296875 -5.296875 L 2.296875 -5.8125 C 2.296875 -6.09375 2.421875 -6.234375 2.6875 -6.234375 C 2.796875 -6.234375 2.953125 -6.234375 3.078125 -6.203125 L 3.078125 -7.265625 C 2.8125 -7.28125 2.46875 -7.296875 2.28125 -7.296875 C 1.34375 -7.296875 0.90625 -6.84375 0.90625 -5.9375 L 0.90625 -5.296875 L 0.140625 -5.296875 L 0.140625 -4.359375 L 0.90625 -4.359375 L 0.90625 0 L 2.296875 0 L 2.296875 -4.359375 L 3.125 -4.359375 L 3.125 -5.296875 Z M 3.125 -5.296875 "/>
</symbol>
<symbol overflow="visible" id="glyph0-32">
<path style="stroke:none;" d="M 3.84375 -6.046875 L 5.984375 -6.046875 L 5.984375 -7.296875 L 0.140625 -7.296875 L 0.140625 -6.046875 L 2.34375 -6.046875 L 2.34375 0 L 3.84375 0 L 3.84375 -6.046875 Z M 3.84375 -6.046875 "/>
</symbol>
<symbol overflow="visible" id="glyph0-33">
<path style="stroke:none;" d="M 5.78125 -7.296875 L 0.296875 -7.296875 L 0.296875 -6.046875 L 4.03125 -6.046875 L 0.296875 -1.25 L 0.296875 0 L 5.78125 0 L 5.78125 -1.25 L 2.0625 -1.25 L 5.78125 -6.046875 L 5.78125 -7.296875 Z M 5.78125 -7.296875 "/>
</symbol>
</g>
</defs>
<g id="surface0">
<path style="fill:none;stroke-width:0.00786788;stroke-linecap:butt;stroke-linejoin:miter;stroke:rgb(0%,0%,0%);stroke-opacity:1;stroke-miterlimit:10;" d="M 0.651663 0.950551 L 0.458977 0.696336 " transform="matrix(254.198058,0,0,254.198058,219.621996,361.801426)"/>
<path style="fill:none;stroke-width:0.00786788;stroke-linecap:butt;stroke-linejoin:miter;stroke:rgb(0%,0%,0%);stroke-opacity:1;stroke-miterlimit:10;" d="M 0.812002 0.556558 L 0.50666 0.508936 " transform="matrix(254.198058,0,0,254.198058,219.621996,361.801426)"/>
<path style="fill:none;stroke-width:0.00786788;stroke-linecap:butt;stroke-linejoin:miter;stroke:rgb(0%,0%,0%);stroke-opacity:1;stroke-miterlimit:10;" d="M 0.653445 -0.841589 L 0.633945 -0.753706 " transform="matrix(254.198058,0,0,254.198058,219.621996,361.801426)"/>
<path style="fill:none;stroke-width:0.00786788;stroke-linecap:butt;stroke-linejoin:miter;stroke:rgb(0%,0%,0%);stroke-opacity:1;stroke-miterlimit:10;" d="M 1.294125 1.024989 L 0.43293 0.591041 " transform="matrix(254.198058,0,0,254.198058,219.621996,361.801426)"/>
<path style="fill:none;stroke-width:0.00786788;stroke-linecap:butt;stroke-linejoin:miter;stroke:rgb(0%,0%,0%);stroke-opacity:1;stroke-miterlimit:10;" d="M 1.18379 -1.068006 L 0.656273 -0.592998 " transform="matrix(254.198058,0,0,254.198058,219.621996,361.801426)"/>
<path style="fill:none;stroke-width:0.00786788;stroke-linecap:butt;stroke-linejoin:miter;stroke:rgb(0%,0%,0%);stroke-opacity:1;stroke-miterlimit:10;" d="M 0.138591 -0.764923 L 0.287205 -0.535157 " transform="matrix(254.198058,0,0,254.198058,219.621996,361.801426)"/>
<path style="fill:none;stroke-width:0.00786788;stroke-linecap:butt;stroke-linejoin:miter;stroke:rgb(0%,0%,0%);stroke-opacity:1;stroke-miterlimit:10;" d="M 0.366483 -1.11174 L 0.633945 -0.753706 " transform="matrix(254.198058,0,0,254.198058,219.621996,361.801426)"/>
<path style="fill:none;stroke-width:0.00786788;stroke-linecap:butt;stroke-linejoin:miter;stroke:rgb(0%,0%,0%);stroke-opacity:1;stroke-miterlimit:10;" d="M 0.778932 -0.401618 L 0.610818 -0.501088 " transform="matrix(254.198058,0,0,254.198058,219.621996,361.801426)"/>
<path style="fill:none;stroke-width:0.00786788;stroke-linecap:butt;stroke-linejoin:miter;stroke:rgb(0%,0%,0%);stroke-opacity:1;stroke-miterlimit:10;" d="M 0.167942 1.030429 L 0.41764 0.764411 " transform="matrix(254.198058,0,0,254.198058,219.621996,361.801426)"/>
<path style="fill:none;stroke-width:0.00786788;stroke-linecap:butt;stroke-linejoin:miter;stroke:rgb(0%,0%,0%);stroke-opacity:1;stroke-miterlimit:10;" d="M 0.683073 -0.319036 L 0.512838 -0.460043 " transform="matrix(254.198058,0,0,254.198058,219.621996,361.801426)"/>
<path style="fill:none;stroke-width:0.00786788;stroke-linecap:butt;stroke-linejoin:miter;stroke:rgb(0%,0%,0%);stroke-opacity:1;stroke-miterlimit:10;" d="M 0.845302 0.351916 L 0.50666 0.508936 " transform="matrix(254.198058,0,0,254.198058,219.621996,361.801426)"/>
<path style="fill:none;stroke-width:0.00786788;stroke-linecap:butt;stroke-linejoin:miter;stroke:rgb(0%,0%,0%);stroke-opacity:1;stroke-miterlimit:10;" d="M -0.100519 -0.222531 L 0.101418 -0.00250735 " transform="matrix(254.198058,0,0,254.198058,219.621996,361.801426)"/>
<path style="fill:none;stroke-width:0.00786788;stroke-linecap:butt;stroke-linejoin:miter;stroke:rgb(0%,0%,0%);stroke-opacity:1;stroke-miterlimit:10;" d="M 0.709781 -0.51332 L 0.610818 -0.501088 " transform="matrix(254.198058,0,0,254.198058,219.621996,361.801426)"/>
<path style="fill:none;stroke-width:0.00786788;stroke-linecap:butt;stroke-linejoin:miter;stroke:rgb(0%,0%,0%);stroke-opacity:1;stroke-miterlimit:10;" d="M -0.614513 -0.00762454 L -0.22599 0.178853 " transform="matrix(254.198058,0,0,254.198058,219.621996,361.801426)"/>
<path style="fill:none;stroke-width:0.00786788;stroke-linecap:butt;stroke-linejoin:miter;stroke:rgb(0%,0%,0%);stroke-opacity:1;stroke-miterlimit:10;" d="M 0.713791 -0.01623 L 0.247128 0.239768 " transform="matrix(254.198058,0,0,254.198058,219.621996,361.801426)"/>
<path style="fill:none;stroke-width:0.00786788;stroke-linecap:butt;stroke-linejoin:miter;stroke:rgb(0%,0%,0%);stroke-opacity:1;stroke-miterlimit:10;" d="M 0.725209 0.198185 L 0.316863 0.303403 " transform="matrix(254.198058,0,0,254.198058,219.621996,361.801426)"/>
<path style="fill:none;stroke-width:0.00786788;stroke-linecap:butt;stroke-linejoin:miter;stroke:rgb(0%,0%,0%);stroke-opacity:1;stroke-miterlimit:10;" d="M -0.356824 -0.192366 L -0.0810796 0.185553 " transform="matrix(254.198058,0,0,254.198058,219.621996,361.801426)"/>
<path style="fill:none;stroke-width:0.00786788;stroke-linecap:butt;stroke-linejoin:miter;stroke:rgb(0%,0%,0%);stroke-opacity:1;stroke-miterlimit:10;" d="M -0.0894085 -0.803879 L 0.163701 -0.530439 " transform="matrix(254.198058,0,0,254.198058,219.621996,361.801426)"/>
<path style="fill:none;stroke-width:0.00786788;stroke-linecap:butt;stroke-linejoin:miter;stroke:rgb(0%,0%,0%);stroke-opacity:1;stroke-miterlimit:10;" d="M -0.133542 0.887009 L -0.0718441 0.486315 " transform="matrix(254.198058,0,0,254.198058,219.621996,361.801426)"/>
<path style="fill:none;stroke-width:0.00786788;stroke-linecap:butt;stroke-linejoin:miter;stroke:rgb(0%,0%,0%);stroke-opacity:1;stroke-miterlimit:10;" d="M -0.446675 0.806317 L -0.0718441 0.486315 " transform="matrix(254.198058,0,0,254.198058,219.621996,361.801426)"/>
<path style="fill:none;stroke-width:0.00786788;stroke-linecap:butt;stroke-linejoin:miter;stroke:rgb(0%,0%,0%);stroke-opacity:1;stroke-miterlimit:10;" d="M -0.452729 0.255596 L -0.22599 0.178853 " transform="matrix(254.198058,0,0,254.198058,219.621996,361.801426)"/>
<path style="fill:none;stroke-width:0.00786788;stroke-linecap:butt;stroke-linejoin:miter;stroke:rgb(0%,0%,0%);stroke-opacity:1;stroke-miterlimit:10;" d="M -0.372514 0.449834 L 0.00340791 0.278109 " transform="matrix(254.198058,0,0,254.198058,219.621996,361.801426)"/>
<path style="fill:none;stroke-width:0.00786788;stroke-linecap:butt;stroke-linejoin:miter;stroke:rgb(0%,0%,0%);stroke-opacity:1;stroke-miterlimit:10;" d="M 0.657195 1.380811 L 0.38208 0.95238 " transform="matrix(254.198058,0,0,254.198058,219.621996,361.801426)"/>
<path style="fill:none;stroke-width:0.00786788;stroke-linecap:butt;stroke-linejoin:miter;stroke:rgb(0%,0%,0%);stroke-opacity:1;stroke-miterlimit:10;" d="M 0.35379 1.042645 L 0.38208 0.95238 " transform="matrix(254.198058,0,0,254.198058,219.621996,361.801426)"/>
<path style="fill:none;stroke-width:0.00786788;stroke-linecap:butt;stroke-linejoin:miter;stroke:rgb(0%,0%,0%);stroke-opacity:1;stroke-miterlimit:10;" d="M -0.0379446 -0.555564 L 0.163701 -0.530439 " transform="matrix(254.198058,0,0,254.198058,219.621996,361.801426)"/>
<path style="fill:none;stroke-width:0.00786788;stroke-linecap:butt;stroke-linejoin:miter;stroke:rgb(0%,0%,0%);stroke-opacity:1;stroke-miterlimit:10;" d="M 0.656273 -0.592998 L 0.633945 -0.753706 " transform="matrix(254.198058,0,0,254.198058,219.621996,361.801426)"/>
<path style="fill:none;stroke-width:0.00786788;stroke-linecap:butt;stroke-linejoin:miter;stroke:rgb(0%,0%,0%);stroke-opacity:1;stroke-miterlimit:10;" d="M 0.429902 0.486669 L 0.50666 0.508936 " transform="matrix(254.198058,0,0,254.198058,219.621996,361.801426)"/>
<path style="fill:none;stroke-width:0.00786788;stroke-linecap:butt;stroke-linejoin:miter;stroke:rgb(0%,0%,0%);stroke-opacity:1;stroke-miterlimit:10;" d="M 0.570095 -0.495095 L 0.610818 -0.501088 " transform="matrix(254.198058,0,0,254.198058,219.621996,361.801426)"/>
<path style="fill:none;stroke-width:0.00786788;stroke-linecap:butt;stroke-linejoin:miter;stroke:rgb(0%,0%,0%);stroke-opacity:1;stroke-miterlimit:10;" d="M 0.00340791 0.278109 L -0.0718441 0.486315 " transform="matrix(254.198058,0,0,254.198058,219.621996,361.801426)"/>
<path style="fill:none;stroke-width:0.00786788;stroke-linecap:butt;stroke-linejoin:miter;stroke:rgb(0%,0%,0%);stroke-opacity:1;stroke-miterlimit:10;" d="M -0.0810796 0.185553 L -0.22599 0.178853 " transform="matrix(254.198058,0,0,254.198058,219.621996,361.801426)"/>
<path style="fill:none;stroke-width:0.00786788;stroke-linecap:butt;stroke-linejoin:miter;stroke:rgb(0%,0%,0%);stroke-opacity:1;stroke-miterlimit:10;" d="M 0.41764 0.764411 L 0.38208 0.95238 " transform="matrix(254.198058,0,0,254.198058,219.621996,361.801426)"/>
<path style="fill:none;stroke-width:0.00786788;stroke-linecap:butt;stroke-linejoin:miter;stroke:rgb(0%,0%,0%);stroke-opacity:1;stroke-miterlimit:10;" d="M 0.287205 -0.535157 L 0.163701 -0.530439 " transform="matrix(254.198058,0,0,254.198058,219.621996,361.801426)"/>
<path style="fill:none;stroke-width:0.00786788;stroke-linecap:butt;stroke-linejoin:miter;stroke:rgb(0%,0%,0%);stroke-opacity:1;stroke-miterlimit:10;" d="M 0.570095 -0.495095 L 0.656273 -0.592998 " transform="matrix(254.198058,0,0,254.198058,219.621996,361.801426)"/>
<path style="fill:none;stroke-width:0.00786788;stroke-linecap:butt;stroke-linejoin:miter;stroke:rgb(0%,0%,0%);stroke-opacity:1;stroke-miterlimit:10;" d="M 0.0412721 0.233068 L 0.00340791 0.278109 " transform="matrix(254.198058,0,0,254.198058,219.621996,361.801426)"/>
<path style="fill:none;stroke-width:0.00786788;stroke-linecap:butt;stroke-linejoin:miter;stroke:rgb(0%,0%,0%);stroke-opacity:1;stroke-miterlimit:10;" d="M 0.0412721 0.233068 L -0.0810796 0.185553 " transform="matrix(254.198058,0,0,254.198058,219.621996,361.801426)"/>
<path style="fill:none;stroke-width:0.00786788;stroke-linecap:butt;stroke-linejoin:miter;stroke:rgb(0%,0%,0%);stroke-opacity:1;stroke-miterlimit:10;" d="M 0.458977 0.696336 L 0.41764 0.764411 " transform="matrix(254.198058,0,0,254.198058,219.621996,361.801426)"/>
<path style="fill:none;stroke-width:0.00786788;stroke-linecap:butt;stroke-linejoin:miter;stroke:rgb(0%,0%,0%);stroke-opacity:1;stroke-miterlimit:10;" d="M 0.378469 -0.413497 L 0.287205 -0.535157 " transform="matrix(254.198058,0,0,254.198058,219.621996,361.801426)"/>
<path style="fill:none;stroke-width:0.00786788;stroke-linecap:butt;stroke-linejoin:miter;stroke:rgb(0%,0%,0%);stroke-opacity:1;stroke-miterlimit:10;" d="M 0.512838 -0.460043 L 0.570095 -0.495095 " transform="matrix(254.198058,0,0,254.198058,219.621996,361.801426)"/>
<path style="fill:none;stroke-width:0.00786788;stroke-linecap:butt;stroke-linejoin:miter;stroke:rgb(0%,0%,0%);stroke-opacity:1;stroke-miterlimit:10;" d="M 0.151561 0.178116 L 0.0412721 0.233068 " transform="matrix(254.198058,0,0,254.198058,219.621996,361.801426)"/>
<path style="fill:none;stroke-width:0.00786788;stroke-linecap:butt;stroke-linejoin:miter;stroke:rgb(0%,0%,0%);stroke-opacity:1;stroke-miterlimit:10;" d="M 0.43293 0.591041 L 0.458977 0.696336 " transform="matrix(254.198058,0,0,254.198058,219.621996,361.801426)"/>
<path style="fill:none;stroke-width:0.00786788;stroke-linecap:butt;stroke-linejoin:miter;stroke:rgb(0%,0%,0%);stroke-opacity:1;stroke-miterlimit:10;" d="M 0.378469 -0.413497 L 0.512838 -0.460043 " transform="matrix(254.198058,0,0,254.198058,219.621996,361.801426)"/>
<path style="fill:none;stroke-width:0.00786788;stroke-linecap:butt;stroke-linejoin:miter;stroke:rgb(0%,0%,0%);stroke-opacity:1;stroke-miterlimit:10;" d="M 0.429902 0.486669 L 0.43293 0.591041 " transform="matrix(254.198058,0,0,254.198058,219.621996,361.801426)"/>
<path style="fill:none;stroke-width:0.00786788;stroke-linecap:butt;stroke-linejoin:miter;stroke:rgb(0%,0%,0%);stroke-opacity:1;stroke-miterlimit:10;" d="M 0.101418 -0.00250735 L 0.378469 -0.413497 " transform="matrix(254.198058,0,0,254.198058,219.621996,361.801426)"/>
<path style="fill:none;stroke-width:0.00786788;stroke-linecap:butt;stroke-linejoin:miter;stroke:rgb(0%,0%,0%);stroke-opacity:1;stroke-miterlimit:10;" d="M 0.316863 0.303403 L 0.429902 0.486669 " transform="matrix(254.198058,0,0,254.198058,219.621996,361.801426)"/>
<path style="fill:none;stroke-width:0.00786788;stroke-linecap:butt;stroke-linejoin:miter;stroke:rgb(0%,0%,0%);stroke-opacity:1;stroke-miterlimit:10;" d="M 0.151561 0.178116 L 0.101418 -0.00250735 " transform="matrix(254.198058,0,0,254.198058,219.621996,361.801426)"/>
<path style="fill:none;stroke-width:0.00786788;stroke-linecap:butt;stroke-linejoin:miter;stroke:rgb(0%,0%,0%);stroke-opacity:1;stroke-miterlimit:10;" d="M 0.247128 0.239768 L 0.316863 0.303403 " transform="matrix(254.198058,0,0,254.198058,219.621996,361.801426)"/>
<path style="fill:none;stroke-width:0.00786788;stroke-linecap:butt;stroke-linejoin:miter;stroke:rgb(0%,0%,0%);stroke-opacity:1;stroke-miterlimit:10;" d="M 0.247128 0.239768 L 0.151561 0.178116 " transform="matrix(254.198058,0,0,254.198058,219.621996,361.801426)"/>
<g style="fill:rgb(0%,0%,0%);fill-opacity:1;">
  <use xlink:href="#glyph0-1" x="387.195312" y="613.546875"/>
  <use xlink:href="#glyph0-2" x="394.415298" y="613.546875"/>
  <use xlink:href="#glyph0-3" x="400.525299" y="613.546875"/>
  <use xlink:href="#glyph0-4" x="404.415298" y="613.546875"/>
  <use xlink:href="#glyph0-5" x="410.525299" y="613.546875"/>
  <use xlink:href="#glyph0-6" x="416.6353" y="613.546875"/>
  <use xlink:href="#glyph0-7" x="422.195297" y="613.546875"/>
  <use xlink:href="#glyph0-8" x="427.755295" y="613.546875"/>
  <use xlink:href="#glyph0-9" x="431.085297" y="613.546875"/>
  <use xlink:href="#glyph0-3" x="436.645294" y="613.546875"/>
  <use xlink:href="#glyph0-10" x="440.535294" y="613.546875"/>
  <use xlink:href="#glyph0-11" x="443.315292" y="613.546875"/>
  <use xlink:href="#glyph0-12" x="449.425293" y="613.546875"/>
</g>
<g style="fill:rgb(0%,0%,0%);fill-opacity:1;">
  <use xlink:href="#glyph0-13" x="428.9375" y="507.933594"/>
  <use xlink:href="#glyph0-6" x="436.157486" y="507.933594"/>
  <use xlink:href="#glyph0-7" x="441.717484" y="507.933594"/>
  <use xlink:href="#glyph0-10" x="447.277481" y="507.933594"/>
  <use xlink:href="#glyph0-14" x="450.05748" y="507.933594"/>
  <use xlink:href="#glyph0-14" x="452.837479" y="507.933594"/>
  <use xlink:href="#glyph0-11" x="455.617477" y="507.933594"/>
  <use xlink:href="#glyph0-15" x="461.727478" y="507.933594"/>
</g>
<g style="fill:rgb(0%,0%,0%);fill-opacity:1;">
  <use xlink:href="#glyph0-16" x="386.367188" y="146.011719"/>
  <use xlink:href="#glyph0-6" x="393.587173" y="146.011719"/>
  <use xlink:href="#glyph0-9" x="399.147171" y="146.011719"/>
  <use xlink:href="#glyph0-17" x="404.707169" y="146.011719"/>
  <use xlink:href="#glyph0-4" x="410.817169" y="146.011719"/>
  <use xlink:href="#glyph0-3" x="416.92717" y="146.011719"/>
  <use xlink:href="#glyph0-18" x="420.817169" y="146.011719"/>
  <use xlink:href="#glyph0-6" x="426.92717" y="146.011719"/>
  <use xlink:href="#glyph0-5" x="432.487167" y="146.011719"/>
  <use xlink:href="#glyph0-19" x="438.597168" y="146.011719"/>
  <use xlink:href="#glyph0-10" x="444.707169" y="146.011719"/>
  <use xlink:href="#glyph0-8" x="447.487167" y="146.011719"/>
  <use xlink:href="#glyph0-10" x="450.817169" y="146.011719"/>
  <use xlink:href="#glyph0-15" x="453.597168" y="146.011719"/>
</g>
<g style="fill:rgb(0%,0%,0%);fill-opacity:1;">
  <use xlink:href="#glyph0-16" x="551.441406" y="630.207031"/>
  <use xlink:href="#glyph0-6" x="558.661392" y="630.207031"/>
  <use xlink:href="#glyph0-12" x="564.22139" y="630.207031"/>
  <use xlink:href="#glyph0-20" x="573.111374" y="630.207031"/>
  <use xlink:href="#glyph0-21" x="579.221375" y="630.207031"/>
  <use xlink:href="#glyph0-14" x="584.781372" y="630.207031"/>
  <use xlink:href="#glyph0-4" x="587.561371" y="630.207031"/>
  <use xlink:href="#glyph0-5" x="593.671371" y="630.207031"/>
  <use xlink:href="#glyph0-6" x="599.781372" y="630.207031"/>
  <use xlink:href="#glyph0-7" x="605.34137" y="630.207031"/>
  <use xlink:href="#glyph0-8" x="610.901367" y="630.207031"/>
  <use xlink:href="#glyph0-9" x="614.231369" y="630.207031"/>
  <use xlink:href="#glyph0-3" x="619.791367" y="630.207031"/>
</g>
<g style="fill:rgb(0%,0%,0%);fill-opacity:1;">
  <use xlink:href="#glyph0-16" x="522.734375" y="90.242188"/>
  <use xlink:href="#glyph0-6" x="529.954361" y="90.242188"/>
  <use xlink:href="#glyph0-17" x="535.514359" y="90.242188"/>
  <use xlink:href="#glyph0-19" x="541.624359" y="90.242188"/>
  <use xlink:href="#glyph0-10" x="547.73436" y="90.242188"/>
  <use xlink:href="#glyph0-19" x="550.514359" y="90.242188"/>
  <use xlink:href="#glyph0-6" x="556.624359" y="90.242188"/>
</g>
<g style="fill:rgb(0%,0%,0%);fill-opacity:1;">
  <use xlink:href="#glyph0-16" x="173.648438" y="166.449219"/>
  <use xlink:href="#glyph0-3" x="180.868423" y="166.449219"/>
  <use xlink:href="#glyph0-21" x="184.758423" y="166.449219"/>
  <use xlink:href="#glyph0-20" x="190.31842" y="166.449219"/>
  <use xlink:href="#glyph0-8" x="196.428421" y="166.449219"/>
  <use xlink:href="#glyph0-4" x="199.758423" y="166.449219"/>
  <use xlink:href="#glyph0-15" x="205.868423" y="166.449219"/>
  <use xlink:href="#glyph0-20" x="211.428421" y="166.449219"/>
  <use xlink:href="#glyph0-4" x="217.538422" y="166.449219"/>
  <use xlink:href="#glyph0-3" x="223.648422" y="166.449219"/>
  <use xlink:href="#glyph0-10" x="227.538422" y="166.449219"/>
  <use xlink:href="#glyph0-19" x="230.31842" y="166.449219"/>
  <use xlink:href="#glyph0-10" x="236.428421" y="166.449219"/>
  <use xlink:href="#glyph0-11" x="239.20842" y="166.449219"/>
  <use xlink:href="#glyph0-12" x="245.31842" y="166.449219"/>
</g>
<g style="fill:rgb(0%,0%,0%);fill-opacity:1;">
  <use xlink:href="#glyph0-22" x="246.726562" y="78.539062"/>
  <use xlink:href="#glyph0-10" x="253.946548" y="78.539062"/>
  <use xlink:href="#glyph0-7" x="256.726547" y="78.539062"/>
  <use xlink:href="#glyph0-8" x="262.286545" y="78.539062"/>
  <use xlink:href="#glyph0-21" x="265.616547" y="78.539062"/>
  <use xlink:href="#glyph0-4" x="271.176544" y="78.539062"/>
  <use xlink:href="#glyph0-15" x="277.286545" y="78.539062"/>
  <use xlink:href="#glyph0-8" x="282.846542" y="78.539062"/>
  <use xlink:href="#glyph0-9" x="286.176544" y="78.539062"/>
  <use xlink:href="#glyph0-14" x="291.736542" y="78.539062"/>
  <use xlink:href="#glyph0-10" x="294.516541" y="78.539062"/>
  <use xlink:href="#glyph0-11" x="297.296539" y="78.539062"/>
  <use xlink:href="#glyph0-12" x="303.40654" y="78.539062"/>
</g>
<g style="fill:rgb(0%,0%,0%);fill-opacity:1;">
  <use xlink:href="#glyph0-22" x="420.367188" y="267.886719"/>
  <use xlink:href="#glyph0-3" x="427.587173" y="267.886719"/>
  <use xlink:href="#glyph0-4" x="431.477173" y="267.886719"/>
  <use xlink:href="#glyph0-15" x="437.587173" y="267.886719"/>
  <use xlink:href="#glyph0-4" x="443.147171" y="267.886719"/>
  <use xlink:href="#glyph0-20" x="449.257172" y="267.886719"/>
  <use xlink:href="#glyph0-18" x="455.367172" y="267.886719"/>
  <use xlink:href="#glyph0-10" x="461.477173" y="267.886719"/>
  <use xlink:href="#glyph0-14" x="464.257172" y="267.886719"/>
  <use xlink:href="#glyph0-6" x="467.03717" y="267.886719"/>
</g>
<g style="fill:rgb(0%,0%,0%);fill-opacity:1;">
  <use xlink:href="#glyph0-23" x="205.28125" y="631.703125"/>
  <use xlink:href="#glyph0-15" x="211.951248" y="631.703125"/>
  <use xlink:href="#glyph0-7" x="217.511246" y="631.703125"/>
  <use xlink:href="#glyph0-18" x="223.071243" y="631.703125"/>
  <use xlink:href="#glyph0-9" x="229.181244" y="631.703125"/>
  <use xlink:href="#glyph0-3" x="234.741241" y="631.703125"/>
  <use xlink:href="#glyph0-10" x="238.631241" y="631.703125"/>
  <use xlink:href="#glyph0-7" x="241.41124" y="631.703125"/>
  <use xlink:href="#glyph0-18" x="246.971237" y="631.703125"/>
  <use xlink:href="#glyph0-10" x="253.081238" y="631.703125"/>
  <use xlink:href="#glyph0-6" x="255.861237" y="631.703125"/>
</g>
<g style="fill:rgb(0%,0%,0%);fill-opacity:1;">
  <use xlink:href="#glyph0-23" x="395.710938" y="289.746094"/>
  <use xlink:href="#glyph0-11" x="402.380936" y="289.746094"/>
  <use xlink:href="#glyph0-2" x="408.490936" y="289.746094"/>
  <use xlink:href="#glyph0-14" x="414.600937" y="289.746094"/>
  <use xlink:href="#glyph0-9" x="417.380936" y="289.746094"/>
  <use xlink:href="#glyph0-17" x="422.940933" y="289.746094"/>
  <use xlink:href="#glyph0-6" x="429.050934" y="289.746094"/>
</g>
<g style="fill:rgb(0%,0%,0%);fill-opacity:1;">
  <use xlink:href="#glyph0-24" x="437.164062" y="452.597656"/>
  <use xlink:href="#glyph0-14" x="443.274063" y="452.597656"/>
  <use xlink:href="#glyph0-6" x="446.054062" y="452.597656"/>
  <use xlink:href="#glyph0-25" x="451.614059" y="452.597656"/>
  <use xlink:href="#glyph0-4" x="457.174057" y="452.597656"/>
  <use xlink:href="#glyph0-5" x="463.284058" y="452.597656"/>
  <use xlink:href="#glyph0-6" x="469.394058" y="452.597656"/>
  <use xlink:href="#glyph0-7" x="474.954056" y="452.597656"/>
  <use xlink:href="#glyph0-8" x="480.514053" y="452.597656"/>
  <use xlink:href="#glyph0-9" x="483.844055" y="452.597656"/>
  <use xlink:href="#glyph0-3" x="489.404053" y="452.597656"/>
  <use xlink:href="#glyph0-10" x="493.294052" y="452.597656"/>
  <use xlink:href="#glyph0-11" x="496.074051" y="452.597656"/>
  <use xlink:href="#glyph0-12" x="502.184052" y="452.597656"/>
</g>
<g style="fill:rgb(0%,0%,0%);fill-opacity:1;">
  <use xlink:href="#glyph0-26" x="136.757812" y="304.753906"/>
  <use xlink:href="#glyph0-6" x="143.977798" y="304.753906"/>
  <use xlink:href="#glyph0-14" x="149.537796" y="304.753906"/>
  <use xlink:href="#glyph0-4" x="152.317795" y="304.753906"/>
  <use xlink:href="#glyph0-3" x="158.427795" y="304.753906"/>
  <use xlink:href="#glyph0-11" x="162.317795" y="304.753906"/>
  <use xlink:href="#glyph0-5" x="168.427795" y="304.753906"/>
  <use xlink:href="#glyph0-3" x="174.537796" y="304.753906"/>
  <use xlink:href="#glyph0-11" x="178.427795" y="304.753906"/>
  <use xlink:href="#glyph0-12" x="184.537796" y="304.753906"/>
</g>
<g style="fill:rgb(0%,0%,0%);fill-opacity:1;">
  <use xlink:href="#glyph0-26" x="402.964844" y="234.375"/>
  <use xlink:href="#glyph0-4" x="410.18483" y="234.375"/>
  <use xlink:href="#glyph0-12" x="416.29483" y="234.375"/>
  <use xlink:href="#glyph0-4" x="425.184814" y="234.375"/>
</g>
<g style="fill:rgb(0%,0%,0%);fill-opacity:1;">
  <use xlink:href="#glyph0-27" x="-13.796875" y="361.132812"/>
  <use xlink:href="#glyph0-9" x="-5.466888" y="361.132812"/>
  <use xlink:href="#glyph0-8" x="0.0931091" y="361.132812"/>
  <use xlink:href="#glyph0-18" x="3.423111" y="361.132812"/>
  <use xlink:href="#glyph0-6" x="9.533112" y="361.132812"/>
  <use xlink:href="#glyph0-17" x="15.093109" y="361.132812"/>
  <use xlink:href="#glyph0-4" x="21.20311" y="361.132812"/>
  <use xlink:href="#glyph0-7" x="27.31311" y="361.132812"/>
  <use xlink:href="#glyph0-4" x="32.873108" y="361.132812"/>
  <use xlink:href="#glyph0-7" x="38.983109" y="361.132812"/>
  <use xlink:href="#glyph0-7" x="44.543106" y="361.132812"/>
  <use xlink:href="#glyph0-11" x="50.103104" y="361.132812"/>
  <use xlink:href="#glyph0-15" x="56.213104" y="361.132812"/>
</g>
<g style="fill:rgb(0%,0%,0%);fill-opacity:1;">
  <use xlink:href="#glyph0-27" x="403.859375" y="359.175781"/>
  <use xlink:href="#glyph0-9" x="412.189362" y="359.175781"/>
  <use xlink:href="#glyph0-8" x="417.749359" y="359.175781"/>
  <use xlink:href="#glyph0-18" x="421.079361" y="359.175781"/>
  <use xlink:href="#glyph0-6" x="427.189362" y="359.175781"/>
  <use xlink:href="#glyph0-17" x="432.749359" y="359.175781"/>
  <use xlink:href="#glyph0-4" x="438.85936" y="359.175781"/>
  <use xlink:href="#glyph0-15" x="444.96936" y="359.175781"/>
  <use xlink:href="#glyph0-20" x="450.529358" y="359.175781"/>
  <use xlink:href="#glyph0-10" x="456.639359" y="359.175781"/>
  <use xlink:href="#glyph0-3" x="459.419357" y="359.175781"/>
  <use xlink:href="#glyph0-10" x="463.309357" y="359.175781"/>
  <use xlink:href="#glyph0-14" x="466.089355" y="359.175781"/>
  <use xlink:href="#glyph0-14" x="468.869354" y="359.175781"/>
  <use xlink:href="#glyph0-11" x="471.649353" y="359.175781"/>
  <use xlink:href="#glyph0-12" x="477.759354" y="359.175781"/>
</g>
<g style="fill:rgb(0%,0%,0%);fill-opacity:1;">
  <use xlink:href="#glyph0-27" x="406.816406" y="414.507812"/>
  <use xlink:href="#glyph0-9" x="415.146393" y="414.507812"/>
  <use xlink:href="#glyph0-8" x="420.70639" y="414.507812"/>
  <use xlink:href="#glyph0-18" x="424.036392" y="414.507812"/>
  <use xlink:href="#glyph0-6" x="430.146393" y="414.507812"/>
  <use xlink:href="#glyph0-17" x="435.70639" y="414.507812"/>
  <use xlink:href="#glyph0-4" x="441.816391" y="414.507812"/>
  <use xlink:href="#glyph0-8" x="447.926392" y="414.507812"/>
  <use xlink:href="#glyph0-18" x="451.256393" y="414.507812"/>
  <use xlink:href="#glyph0-9" x="457.366394" y="414.507812"/>
  <use xlink:href="#glyph0-3" x="462.926392" y="414.507812"/>
  <use xlink:href="#glyph0-12" x="466.816391" y="414.507812"/>
  <use xlink:href="#glyph0-4" x="475.706375" y="414.507812"/>
  <use xlink:href="#glyph0-5" x="481.816376" y="414.507812"/>
  <use xlink:href="#glyph0-6" x="487.926376" y="414.507812"/>
  <use xlink:href="#glyph0-7" x="493.486374" y="414.507812"/>
  <use xlink:href="#glyph0-8" x="499.046371" y="414.507812"/>
  <use xlink:href="#glyph0-9" x="502.376373" y="414.507812"/>
  <use xlink:href="#glyph0-3" x="507.936371" y="414.507812"/>
</g>
<g style="fill:rgb(0%,0%,0%);fill-opacity:1;">
  <use xlink:href="#glyph0-28" x="56.289062" y="312.011719"/>
  <use xlink:href="#glyph0-6" x="63.509048" y="312.011719"/>
  <use xlink:href="#glyph0-17" x="69.069046" y="312.011719"/>
  <use xlink:href="#glyph0-4" x="75.179047" y="312.011719"/>
  <use xlink:href="#glyph0-6" x="81.289047" y="312.011719"/>
  <use xlink:href="#glyph0-3" x="86.849045" y="312.011719"/>
  <use xlink:href="#glyph0-7" x="90.739044" y="312.011719"/>
  <use xlink:href="#glyph0-18" x="96.299042" y="312.011719"/>
  <use xlink:href="#glyph0-6" x="102.409042" y="312.011719"/>
  <use xlink:href="#glyph0-9" x="107.96904" y="312.011719"/>
  <use xlink:href="#glyph0-11" x="113.529037" y="312.011719"/>
  <use xlink:href="#glyph0-12" x="119.639038" y="312.011719"/>
</g>
<g style="fill:rgb(0%,0%,0%);fill-opacity:1;">
  <use xlink:href="#glyph0-28" x="157.007812" y="156.988281"/>
  <use xlink:href="#glyph0-4" x="164.227798" y="156.988281"/>
  <use xlink:href="#glyph0-15" x="170.337799" y="156.988281"/>
  <use xlink:href="#glyph0-9" x="175.897797" y="156.988281"/>
  <use xlink:href="#glyph0-12" x="181.457794" y="156.988281"/>
  <use xlink:href="#glyph0-6" x="190.347778" y="156.988281"/>
</g>
<g style="fill:rgb(0%,0%,0%);fill-opacity:1;">
  <use xlink:href="#glyph0-29" x="123.261719" y="598.683594"/>
  <use xlink:href="#glyph0-21" x="129.931717" y="598.683594"/>
  <use xlink:href="#glyph0-3" x="135.491714" y="598.683594"/>
  <use xlink:href="#glyph0-4" x="139.381714" y="598.683594"/>
  <use xlink:href="#glyph0-5" x="145.491714" y="598.683594"/>
  <use xlink:href="#glyph0-6" x="151.601715" y="598.683594"/>
  <use xlink:href="#glyph0-7" x="157.161713" y="598.683594"/>
  <use xlink:href="#glyph0-11" x="162.72171" y="598.683594"/>
  <use xlink:href="#glyph0-14" x="168.831711" y="598.683594"/>
  <use xlink:href="#glyph0-11" x="171.61171" y="598.683594"/>
  <use xlink:href="#glyph0-12" x="177.72171" y="598.683594"/>
</g>
<g style="fill:rgb(0%,0%,0%);fill-opacity:1;">
  <use xlink:href="#glyph0-30" x="52.828125" y="574.363281"/>
  <use xlink:href="#glyph0-11" x="59.498123" y="574.363281"/>
  <use xlink:href="#glyph0-14" x="65.608124" y="574.363281"/>
  <use xlink:href="#glyph0-31" x="68.388123" y="574.363281"/>
  <use xlink:href="#glyph0-4" x="71.718124" y="574.363281"/>
  <use xlink:href="#glyph0-14" x="77.828125" y="574.363281"/>
  <use xlink:href="#glyph0-4" x="80.608124" y="574.363281"/>
  <use xlink:href="#glyph0-5" x="86.718124" y="574.363281"/>
  <use xlink:href="#glyph0-11" x="92.828125" y="574.363281"/>
  <use xlink:href="#glyph0-15" x="98.938126" y="574.363281"/>
</g>
<g style="fill:rgb(0%,0%,0%);fill-opacity:1;">
  <use xlink:href="#glyph0-32" x="31.121094" y="432.390625"/>
  <use xlink:href="#glyph0-18" x="37.231094" y="432.390625"/>
  <use xlink:href="#glyph0-9" x="43.341095" y="432.390625"/>
  <use xlink:href="#glyph0-3" x="48.901093" y="432.390625"/>
  <use xlink:href="#glyph0-12" x="52.791092" y="432.390625"/>
  <use xlink:href="#glyph0-4" x="61.681076" y="432.390625"/>
  <use xlink:href="#glyph0-7" x="67.791077" y="432.390625"/>
  <use xlink:href="#glyph0-4" x="73.351074" y="432.390625"/>
  <use xlink:href="#glyph0-7" x="79.461075" y="432.390625"/>
  <use xlink:href="#glyph0-7" x="85.021072" y="432.390625"/>
  <use xlink:href="#glyph0-11" x="90.58107" y="432.390625"/>
  <use xlink:href="#glyph0-15" x="96.691071" y="432.390625"/>
</g>
<g style="fill:rgb(0%,0%,0%);fill-opacity:1;">
  <use xlink:href="#glyph0-32" x="51.371094" y="483.695312"/>
  <use xlink:href="#glyph0-18" x="57.481094" y="483.695312"/>
  <use xlink:href="#glyph0-9" x="63.591095" y="483.695312"/>
  <use xlink:href="#glyph0-3" x="69.151093" y="483.695312"/>
  <use xlink:href="#glyph0-12" x="73.041092" y="483.695312"/>
  <use xlink:href="#glyph0-4" x="81.931076" y="483.695312"/>
  <use xlink:href="#glyph0-20" x="88.041077" y="483.695312"/>
  <use xlink:href="#glyph0-14" x="94.151077" y="483.695312"/>
  <use xlink:href="#glyph0-6" x="96.931076" y="483.695312"/>
  <use xlink:href="#glyph0-15" x="102.491074" y="483.695312"/>
  <use xlink:href="#glyph0-12" x="108.051071" y="483.695312"/>
  <use xlink:href="#glyph0-6" x="116.941055" y="483.695312"/>
</g>
<g style="fill:rgb(0%,0%,0%);fill-opacity:1;">
  <use xlink:href="#glyph0-32" x="388.402344" y="723.214844"/>
  <use xlink:href="#glyph0-18" x="394.512344" y="723.214844"/>
  <use xlink:href="#glyph0-9" x="400.622345" y="723.214844"/>
  <use xlink:href="#glyph0-3" x="406.182343" y="723.214844"/>
  <use xlink:href="#glyph0-12" x="410.072342" y="723.214844"/>
  <use xlink:href="#glyph0-4" x="418.962326" y="723.214844"/>
  <use xlink:href="#glyph0-8" x="425.072327" y="723.214844"/>
  <use xlink:href="#glyph0-4" x="428.402328" y="723.214844"/>
  <use xlink:href="#glyph0-2" x="434.512329" y="723.214844"/>
  <use xlink:href="#glyph0-6" x="440.62233" y="723.214844"/>
</g>
<g style="fill:rgb(0%,0%,0%);fill-opacity:1;">
  <use xlink:href="#glyph0-32" x="266.941406" y="636.109375"/>
  <use xlink:href="#glyph0-18" x="273.051407" y="636.109375"/>
  <use xlink:href="#glyph0-9" x="279.161407" y="636.109375"/>
  <use xlink:href="#glyph0-3" x="284.721405" y="636.109375"/>
  <use xlink:href="#glyph0-12" x="288.611404" y="636.109375"/>
  <use xlink:href="#glyph0-11" x="297.501389" y="636.109375"/>
  <use xlink:href="#glyph0-15" x="303.611389" y="636.109375"/>
</g>
<g style="fill:rgb(0%,0%,0%);fill-opacity:1;">
  <use xlink:href="#glyph0-33" x="190.453125" y="223.628906"/>
  <use xlink:href="#glyph0-9" x="196.563126" y="223.628906"/>
  <use xlink:href="#glyph0-6" x="202.123123" y="223.628906"/>
</g>
</g>
</svg>
