<?xml version="1.0" encoding="UTF-8"?>
<svg xmlns="http://www.w3.org/2000/svg" xmlns:xlink="http://www.w3.org/1999/xlink" width="612" height="792" viewBox="0 0 612 792">
<defs>
<g>
<g id="glyph-0-0">
<path d="M 5.265625 0 L 4.75 -1.703125 L 2.15625 -1.703125 L 1.625 0 L 0 0 L 2.515625 -7.171875 L 4.375 -7.171875 L 6.90625 0 Z M 3.875 -4.625 C 3.832031 -4.738281 3.785156 -4.878906 3.734375 -5.046875 C 3.679688 -5.222656 3.628906 -5.398438 3.578125 -5.578125 C 3.523438 -5.765625 3.484375 -5.925781 3.453125 -6.0625 C 3.421875 -5.925781 3.375 -5.757812 3.3125 -5.5625 C 3.257812 -5.363281 3.207031 -5.175781 3.15625 -5 C 3.101562 -4.820312 3.066406 -4.695312 3.046875 -4.625 L 2.53125 -2.96875 L 4.390625 -2.96875 Z M 3.875 -4.625 "/>
</g>
<g id="glyph-0-1">
<path d="M 2.546875 -5.5625 C 3.222656 -5.5625 3.75 -5.296875 4.125 -4.765625 L 4.171875 -4.765625 L 4.296875 -5.453125 L 5.546875 -5.453125 L 5.546875 0.015625 C 5.546875 0.796875 5.316406 1.390625 4.859375 1.796875 C 4.398438 2.203125 3.71875 2.40625 2.8125 2.40625 C 2.425781 2.40625 2.066406 2.378906 1.734375 2.328125 C 1.410156 2.285156 1.09375 2.203125 0.78125 2.078125 L 0.78125 0.890625 C 1.457031 1.171875 2.164062 1.3125 2.90625 1.3125 C 3.675781 1.3125 4.0625 0.894531 4.0625 0.0625 L 4.0625 -0.046875 C 4.0625 -0.148438 4.066406 -0.257812 4.078125 -0.375 C 4.085938 -0.5 4.09375 -0.609375 4.09375 -0.703125 L 4.0625 -0.703125 C 3.875 -0.421875 3.648438 -0.21875 3.390625 -0.09375 C 3.128906 0.03125 2.835938 0.09375 2.515625 0.09375 C 1.867188 0.09375 1.363281 -0.148438 1 -0.640625 C 0.632812 -1.140625 0.453125 -1.832031 0.453125 -2.71875 C 0.453125 -3.613281 0.632812 -4.3125 1 -4.8125 C 1.375 -5.3125 1.890625 -5.5625 2.546875 -5.5625 Z M 3.015625 -4.34375 C 2.316406 -4.34375 1.96875 -3.796875 1.96875 -2.703125 C 1.96875 -1.609375 2.328125 -1.0625 3.046875 -1.0625 C 3.421875 -1.0625 3.695312 -1.171875 3.875 -1.390625 C 4.0625 -1.609375 4.15625 -1.988281 4.15625 -2.53125 L 4.15625 -2.703125 C 4.15625 -3.296875 4.066406 -3.71875 3.890625 -3.96875 C 3.710938 -4.21875 3.421875 -4.34375 3.015625 -4.34375 Z M 3.015625 -4.34375 "/>
</g>
<g id="glyph-0-2">
<path d="M 3.828125 -5.5625 C 3.898438 -5.5625 3.984375 -5.554688 4.078125 -5.546875 C 4.179688 -5.546875 4.265625 -5.535156 4.328125 -5.515625 L 4.21875 -4.125 C 4.175781 -4.132812 4.109375 -4.144531 4.015625 -4.15625 C 3.921875 -4.164062 3.84375 -4.171875 3.78125 -4.171875 C 3.53125 -4.171875 3.285156 -4.125 3.046875 -4.03125 C 2.816406 -3.945312 2.628906 -3.800781 2.484375 -3.59375 C 2.335938 -3.394531 2.265625 -3.125 2.265625 -2.78125 L 2.265625 0 L 0.78125 0 L 0.78125 -5.453125 L 1.90625 -5.453125 L 2.125 -4.546875 L 2.203125 -4.546875 C 2.359375 -4.816406 2.578125 -5.050781 2.859375 -5.25 C 3.140625 -5.457031 3.460938 -5.5625 3.828125 -5.5625 Z M 3.828125 -5.5625 "/>
</g>
<g id="glyph-0-3">
<path d="M 5.734375 -2.734375 C 5.734375 -1.828125 5.492188 -1.128906 5.015625 -0.640625 C 4.546875 -0.148438 3.898438 0.09375 3.078125 0.09375 C 2.566406 0.09375 2.113281 -0.015625 1.71875 -0.234375 C 1.320312 -0.453125 1.007812 -0.769531 0.78125 -1.1875 C 0.5625 -1.613281 0.453125 -2.128906 0.453125 -2.734375 C 0.453125 -3.640625 0.6875 -4.335938 1.15625 -4.828125 C 1.632812 -5.316406 2.285156 -5.5625 3.109375 -5.5625 C 3.617188 -5.5625 4.070312 -5.453125 4.46875 -5.234375 C 4.863281 -5.015625 5.171875 -4.695312 5.390625 -4.28125 C 5.617188 -3.863281 5.734375 -3.347656 5.734375 -2.734375 Z M 1.96875 -2.734375 C 1.96875 -2.203125 2.054688 -1.796875 2.234375 -1.515625 C 2.410156 -1.234375 2.695312 -1.09375 3.09375 -1.09375 C 3.488281 -1.09375 3.773438 -1.234375 3.953125 -1.515625 C 4.128906 -1.796875 4.21875 -2.203125 4.21875 -2.734375 C 4.21875 -3.273438 4.128906 -3.679688 3.953125 -3.953125 C 3.773438 -4.222656 3.488281 -4.359375 3.09375 -4.359375 C 2.695312 -4.359375 2.410156 -4.222656 2.234375 -3.953125 C 2.054688 -3.679688 1.96875 -3.273438 1.96875 -2.734375 Z M 1.96875 -2.734375 "/>
</g>
<g id="glyph-0-4">
<path d="M 2.265625 -5.828125 C 2.265625 -5.617188 2.257812 -5.414062 2.25 -5.21875 C 2.238281 -5.019531 2.222656 -4.863281 2.203125 -4.75 L 2.265625 -4.75 C 2.410156 -4.976562 2.609375 -5.171875 2.859375 -5.328125 C 3.109375 -5.484375 3.425781 -5.5625 3.8125 -5.5625 C 4.425781 -5.5625 4.921875 -5.320312 5.296875 -4.84375 C 5.679688 -4.363281 5.875 -3.660156 5.875 -2.734375 C 5.875 -1.804688 5.679688 -1.101562 5.296875 -0.625 C 4.910156 -0.144531 4.40625 0.09375 3.78125 0.09375 C 3.382812 0.09375 3.066406 0.0234375 2.828125 -0.109375 C 2.597656 -0.253906 2.410156 -0.414062 2.265625 -0.59375 L 2.171875 -0.59375 L 1.921875 0 L 0.78125 0 L 0.78125 -7.59375 L 2.265625 -7.59375 Z M 3.34375 -4.375 C 2.957031 -4.375 2.6875 -4.253906 2.53125 -4.015625 C 2.375 -3.773438 2.285156 -3.40625 2.265625 -2.90625 L 2.265625 -2.75 C 2.265625 -2.21875 2.34375 -1.8125 2.5 -1.53125 C 2.65625 -1.25 2.941406 -1.109375 3.359375 -1.109375 C 3.660156 -1.109375 3.898438 -1.25 4.078125 -1.53125 C 4.265625 -1.8125 4.359375 -2.222656 4.359375 -2.765625 C 4.359375 -3.296875 4.265625 -3.695312 4.078125 -3.96875 C 3.898438 -4.238281 3.65625 -4.375 3.34375 -4.375 Z M 3.34375 -4.375 "/>
</g>
<g id="glyph-0-5">
<path d="M 3.015625 -5.5625 C 3.753906 -5.5625 4.316406 -5.40625 4.703125 -5.09375 C 5.097656 -4.78125 5.296875 -4.296875 5.296875 -3.640625 L 5.296875 0 L 4.25 0 L 3.953125 -0.734375 L 3.921875 -0.734375 C 3.679688 -0.441406 3.429688 -0.226562 3.171875 -0.09375 C 2.921875 0.03125 2.566406 0.09375 2.109375 0.09375 C 1.617188 0.09375 1.210938 -0.046875 0.890625 -0.328125 C 0.578125 -0.609375 0.421875 -1.039062 0.421875 -1.625 C 0.421875 -2.207031 0.625 -2.632812 1.03125 -2.90625 C 1.4375 -3.1875 2.046875 -3.34375 2.859375 -3.375 L 3.8125 -3.40625 L 3.8125 -3.640625 C 3.8125 -3.921875 3.734375 -4.128906 3.578125 -4.265625 C 3.429688 -4.398438 3.222656 -4.46875 2.953125 -4.46875 C 2.691406 -4.46875 2.429688 -4.425781 2.171875 -4.34375 C 1.921875 -4.269531 1.671875 -4.175781 1.421875 -4.0625 L 0.9375 -5.078125 C 1.226562 -5.234375 1.550781 -5.351562 1.90625 -5.4375 C 2.257812 -5.519531 2.628906 -5.5625 3.015625 -5.5625 Z M 3.234375 -2.515625 C 2.753906 -2.492188 2.421875 -2.40625 2.234375 -2.25 C 2.046875 -2.09375 1.953125 -1.882812 1.953125 -1.625 C 1.953125 -1.394531 2.015625 -1.226562 2.140625 -1.125 C 2.273438 -1.03125 2.453125 -0.984375 2.671875 -0.984375 C 2.992188 -0.984375 3.265625 -1.078125 3.484375 -1.265625 C 3.703125 -1.460938 3.8125 -1.734375 3.8125 -2.078125 L 3.8125 -2.53125 Z M 3.234375 -2.515625 "/>
</g>
<g id="glyph-0-6">
<path d="M 3 0.09375 C 2.1875 0.09375 1.554688 -0.128906 1.109375 -0.578125 C 0.671875 -1.023438 0.453125 -1.734375 0.453125 -2.703125 C 0.453125 -3.367188 0.5625 -3.910156 0.78125 -4.328125 C 1.007812 -4.742188 1.328125 -5.050781 1.734375 -5.25 C 2.140625 -5.457031 2.601562 -5.5625 3.125 -5.5625 C 3.5 -5.5625 3.820312 -5.523438 4.09375 -5.453125 C 4.375 -5.378906 4.617188 -5.289062 4.828125 -5.1875 L 4.390625 -4.046875 C 4.160156 -4.140625 3.941406 -4.210938 3.734375 -4.265625 C 3.535156 -4.328125 3.332031 -4.359375 3.125 -4.359375 C 2.351562 -4.359375 1.96875 -3.804688 1.96875 -2.703125 C 1.96875 -2.160156 2.066406 -1.757812 2.265625 -1.5 C 2.472656 -1.238281 2.757812 -1.109375 3.125 -1.109375 C 3.4375 -1.109375 3.710938 -1.148438 3.953125 -1.234375 C 4.191406 -1.316406 4.425781 -1.429688 4.65625 -1.578125 L 4.65625 -0.3125 C 4.425781 -0.164062 4.1875 -0.0625 3.9375 0 C 3.6875 0.0625 3.375 0.09375 3 0.09375 Z M 3 0.09375 "/>
</g>
<g id="glyph-0-7">
<path d="M 3.078125 -1.09375 C 3.242188 -1.09375 3.40625 -1.109375 3.5625 -1.140625 C 3.71875 -1.171875 3.867188 -1.210938 4.015625 -1.265625 L 4.015625 -0.15625 C 3.859375 -0.0820312 3.660156 -0.0234375 3.421875 0.015625 C 3.179688 0.0664062 2.925781 0.09375 2.65625 0.09375 C 2.320312 0.09375 2.023438 0.0390625 1.765625 -0.0625 C 1.515625 -0.164062 1.3125 -0.347656 1.15625 -0.609375 C 1.007812 -0.878906 0.9375 -1.242188 0.9375 -1.703125 L 0.9375 -4.34375 L 0.234375 -4.34375 L 0.234375 -4.96875 L 1.046875 -5.46875 L 1.484375 -6.625 L 2.4375 -6.625 L 2.4375 -5.453125 L 3.953125 -5.453125 L 3.953125 -4.34375 L 2.4375 -4.34375 L 2.4375 -1.703125 C 2.4375 -1.503906 2.492188 -1.351562 2.609375 -1.25 C 2.734375 -1.144531 2.890625 -1.09375 3.078125 -1.09375 Z M 3.078125 -1.09375 "/>
</g>
<g id="glyph-0-8">
<path d="M 3.03125 -5.5625 C 3.78125 -5.5625 4.375 -5.34375 4.8125 -4.90625 C 5.257812 -4.476562 5.484375 -3.867188 5.484375 -3.078125 L 5.484375 -2.359375 L 1.953125 -2.359375 C 1.972656 -1.941406 2.097656 -1.613281 2.328125 -1.375 C 2.566406 -1.132812 2.894531 -1.015625 3.3125 -1.015625 C 3.664062 -1.015625 3.984375 -1.046875 4.265625 -1.109375 C 4.554688 -1.179688 4.859375 -1.289062 5.171875 -1.4375 L 5.171875 -0.296875 C 4.898438 -0.160156 4.613281 -0.0625 4.3125 0 C 4.019531 0.0625 3.664062 0.09375 3.25 0.09375 C 2.707031 0.09375 2.222656 -0.00390625 1.796875 -0.203125 C 1.378906 -0.410156 1.050781 -0.71875 0.8125 -1.125 C 0.570312 -1.539062 0.453125 -2.0625 0.453125 -2.6875 C 0.453125 -3.332031 0.554688 -3.863281 0.765625 -4.28125 C 0.984375 -4.707031 1.285156 -5.023438 1.671875 -5.234375 C 2.066406 -5.453125 2.519531 -5.5625 3.03125 -5.5625 Z M 3.046875 -4.5 C 2.753906 -4.5 2.515625 -4.40625 2.328125 -4.21875 C 2.140625 -4.03125 2.023438 -3.738281 1.984375 -3.34375 L 4.078125 -3.34375 C 4.066406 -3.675781 3.976562 -3.953125 3.8125 -4.171875 C 3.644531 -4.390625 3.390625 -4.5 3.046875 -4.5 Z M 3.046875 -4.5 "/>
</g>
<g id="glyph-0-9">
<path d="M 1.53125 -7.59375 C 1.75 -7.59375 1.9375 -7.539062 2.09375 -7.4375 C 2.257812 -7.34375 2.34375 -7.15625 2.34375 -6.875 C 2.34375 -6.59375 2.257812 -6.398438 2.09375 -6.296875 C 1.9375 -6.191406 1.75 -6.140625 1.53125 -6.140625 C 1.300781 -6.140625 1.109375 -6.191406 0.953125 -6.296875 C 0.796875 -6.398438 0.71875 -6.59375 0.71875 -6.875 C 0.71875 -7.15625 0.796875 -7.34375 0.953125 -7.4375 C 1.109375 -7.539062 1.300781 -7.59375 1.53125 -7.59375 Z M 2.265625 -5.453125 L 2.265625 0 L 0.78125 0 L 0.78125 -5.453125 Z M 2.265625 -5.453125 "/>
</g>
<g id="glyph-0-10">
<path d="M 5.796875 -5.453125 L 5.796875 0 L 4.65625 0 L 4.453125 -0.703125 L 4.375 -0.703125 C 4.195312 -0.421875 3.957031 -0.21875 3.65625 -0.09375 C 3.351562 0.03125 3.03125 0.09375 2.6875 0.09375 C 2.101562 0.09375 1.632812 -0.0625 1.28125 -0.375 C 0.925781 -0.6875 0.75 -1.195312 0.75 -1.90625 L 0.75 -5.453125 L 2.234375 -5.453125 L 2.234375 -2.265625 C 2.234375 -1.878906 2.300781 -1.585938 2.4375 -1.390625 C 2.582031 -1.191406 2.8125 -1.09375 3.125 -1.09375 C 3.570312 -1.09375 3.878906 -1.242188 4.046875 -1.546875 C 4.210938 -1.859375 4.296875 -2.304688 4.296875 -2.890625 L 4.296875 -5.453125 Z M 5.796875 -5.453125 "/>
</g>
<g id="glyph-0-11">
<path d="M 7.1875 -5.5625 C 7.8125 -5.5625 8.28125 -5.398438 8.59375 -5.078125 C 8.90625 -4.765625 9.0625 -4.257812 9.0625 -3.5625 L 9.0625 0 L 7.578125 0 L 7.578125 -3.1875 C 7.578125 -3.976562 7.304688 -4.375 6.765625 -4.375 C 6.367188 -4.375 6.085938 -4.234375 5.921875 -3.953125 C 5.753906 -3.671875 5.671875 -3.265625 5.671875 -2.734375 L 5.671875 0 L 4.1875 0 L 4.1875 -3.1875 C 4.1875 -3.976562 3.910156 -4.375 3.359375 -4.375 C 2.941406 -4.375 2.65625 -4.21875 2.5 -3.90625 C 2.34375 -3.59375 2.265625 -3.144531 2.265625 -2.5625 L 2.265625 0 L 0.78125 0 L 0.78125 -5.453125 L 1.921875 -5.453125 L 2.125 -4.765625 L 2.203125 -4.765625 C 2.367188 -5.046875 2.59375 -5.25 2.875 -5.375 C 3.164062 -5.5 3.472656 -5.5625 3.796875 -5.5625 C 4.191406 -5.5625 4.53125 -5.492188 4.8125 -5.359375 C 5.09375 -5.234375 5.304688 -5.035156 5.453125 -4.765625 L 5.578125 -4.765625 C 5.742188 -5.046875 5.972656 -5.25 6.265625 -5.375 C 6.566406 -5.5 6.875 -5.5625 7.1875 -5.5625 Z M 7.1875 -5.5625 "/>
</g>
<g id="glyph-0-12">
<path d="M 3.125 -7.140625 C 4.070312 -7.140625 4.789062 -7.003906 5.28125 -6.734375 C 5.769531 -6.472656 6.015625 -6.003906 6.015625 -5.328125 C 6.015625 -4.921875 5.914062 -4.578125 5.71875 -4.296875 C 5.53125 -4.015625 5.257812 -3.847656 4.90625 -3.796875 L 4.90625 -3.734375 C 5.144531 -3.691406 5.359375 -3.609375 5.546875 -3.484375 C 5.742188 -3.367188 5.898438 -3.195312 6.015625 -2.96875 C 6.128906 -2.738281 6.1875 -2.4375 6.1875 -2.0625 C 6.1875 -1.414062 5.953125 -0.910156 5.484375 -0.546875 C 5.023438 -0.179688 4.382812 0 3.5625 0 L 0.90625 0 L 0.90625 -7.140625 Z M 3.296875 -4.3125 C 3.734375 -4.3125 4.035156 -4.378906 4.203125 -4.515625 C 4.367188 -4.660156 4.453125 -4.863281 4.453125 -5.125 C 4.453125 -5.40625 4.351562 -5.601562 4.15625 -5.71875 C 3.957031 -5.84375 3.640625 -5.90625 3.203125 -5.90625 L 2.40625 -5.90625 L 2.40625 -4.3125 Z M 2.40625 -3.109375 L 2.40625 -1.25 L 3.40625 -1.25 C 3.851562 -1.25 4.164062 -1.335938 4.34375 -1.515625 C 4.53125 -1.691406 4.625 -1.925781 4.625 -2.21875 C 4.625 -2.488281 4.53125 -2.703125 4.34375 -2.859375 C 4.15625 -3.023438 3.820312 -3.109375 3.34375 -3.109375 Z M 2.40625 -3.109375 "/>
</g>
<g id="glyph-0-13">
<path d="M 2.265625 0 L 0.78125 0 L 0.78125 -7.59375 L 2.265625 -7.59375 Z M 2.265625 0 "/>
</g>
<g id="glyph-0-14">
<path d="M 4.59375 -1.625 C 4.59375 -1.070312 4.394531 -0.644531 4 -0.34375 C 3.613281 -0.0507812 3.035156 0.09375 2.265625 0.09375 C 1.878906 0.09375 1.550781 0.0664062 1.28125 0.015625 C 1.007812 -0.0234375 0.734375 -0.101562 0.453125 -0.21875 L 0.453125 -1.453125 C 0.753906 -1.316406 1.070312 -1.203125 1.40625 -1.109375 C 1.75 -1.023438 2.050781 -0.984375 2.3125 -0.984375 C 2.601562 -0.984375 2.8125 -1.023438 2.9375 -1.109375 C 3.0625 -1.203125 3.125 -1.316406 3.125 -1.453125 C 3.125 -1.546875 3.097656 -1.628906 3.046875 -1.703125 C 2.992188 -1.773438 2.882812 -1.859375 2.71875 -1.953125 C 2.550781 -2.046875 2.289062 -2.164062 1.9375 -2.3125 C 1.601562 -2.46875 1.320312 -2.613281 1.09375 -2.75 C 0.875 -2.894531 0.710938 -3.066406 0.609375 -3.265625 C 0.503906 -3.472656 0.453125 -3.734375 0.453125 -4.046875 C 0.453125 -4.546875 0.644531 -4.921875 1.03125 -5.171875 C 1.425781 -5.429688 1.953125 -5.5625 2.609375 -5.5625 C 2.953125 -5.5625 3.273438 -5.523438 3.578125 -5.453125 C 3.890625 -5.390625 4.207031 -5.28125 4.53125 -5.125 L 4.078125 -4.0625 C 3.816406 -4.175781 3.5625 -4.269531 3.3125 -4.34375 C 3.070312 -4.414062 2.832031 -4.453125 2.59375 -4.453125 C 2.15625 -4.453125 1.9375 -4.332031 1.9375 -4.09375 C 1.9375 -4.007812 1.960938 -3.929688 2.015625 -3.859375 C 2.066406 -3.796875 2.175781 -3.722656 2.34375 -3.640625 C 2.507812 -3.554688 2.75 -3.445312 3.0625 -3.3125 C 3.382812 -3.1875 3.65625 -3.054688 3.875 -2.921875 C 4.101562 -2.785156 4.28125 -2.613281 4.40625 -2.40625 C 4.53125 -2.207031 4.59375 -1.945312 4.59375 -1.625 Z M 4.59375 -1.625 "/>
</g>
<g id="glyph-0-15">
<path d="M 3.9375 -5.984375 C 3.351562 -5.984375 2.90625 -5.765625 2.59375 -5.328125 C 2.289062 -4.898438 2.140625 -4.304688 2.140625 -3.546875 C 2.140625 -2.785156 2.28125 -2.195312 2.5625 -1.78125 C 2.84375 -1.363281 3.300781 -1.15625 3.9375 -1.15625 C 4.226562 -1.15625 4.515625 -1.1875 4.796875 -1.25 C 5.085938 -1.320312 5.40625 -1.421875 5.75 -1.546875 L 5.75 -0.265625 C 5.4375 -0.140625 5.125 -0.0507812 4.8125 0 C 4.507812 0.0625 4.171875 0.09375 3.796875 0.09375 C 3.054688 0.09375 2.445312 -0.0546875 1.96875 -0.359375 C 1.5 -0.660156 1.148438 -1.082031 0.921875 -1.625 C 0.691406 -2.175781 0.578125 -2.820312 0.578125 -3.5625 C 0.578125 -4.28125 0.707031 -4.914062 0.96875 -5.46875 C 1.226562 -6.019531 1.601562 -6.453125 2.09375 -6.765625 C 2.59375 -7.078125 3.207031 -7.234375 3.9375 -7.234375 C 4.28125 -7.234375 4.628906 -7.1875 4.984375 -7.09375 C 5.347656 -7.007812 5.691406 -6.890625 6.015625 -6.734375 L 5.53125 -5.515625 C 5.257812 -5.640625 4.988281 -5.75 4.71875 -5.84375 C 4.445312 -5.9375 4.1875 -5.984375 3.9375 -5.984375 Z M 3.9375 -5.984375 "/>
</g>
<g id="glyph-0-16">
<path d="M 3.875 -5.5625 C 4.46875 -5.5625 4.9375 -5.398438 5.28125 -5.078125 C 5.632812 -4.765625 5.8125 -4.257812 5.8125 -3.5625 L 5.8125 0 L 4.328125 0 L 4.328125 -3.1875 C 4.328125 -3.582031 4.253906 -3.878906 4.109375 -4.078125 C 3.972656 -4.273438 3.753906 -4.375 3.453125 -4.375 C 2.992188 -4.375 2.679688 -4.21875 2.515625 -3.90625 C 2.347656 -3.59375 2.265625 -3.144531 2.265625 -2.5625 L 2.265625 0 L 0.78125 0 L 0.78125 -5.453125 L 1.921875 -5.453125 L 2.125 -4.765625 L 2.203125 -4.765625 C 2.367188 -5.046875 2.601562 -5.25 2.90625 -5.375 C 3.21875 -5.5 3.539062 -5.5625 3.875 -5.5625 Z M 3.875 -5.5625 "/>
</g>
<g id="glyph-0-17">
<path d="M 2.265625 -6.046875 C 2.265625 -5.785156 2.253906 -5.53125 2.234375 -5.28125 C 2.222656 -5.03125 2.210938 -4.859375 2.203125 -4.765625 L 2.28125 -4.765625 C 2.457031 -5.046875 2.679688 -5.25 2.953125 -5.375 C 3.222656 -5.5 3.523438 -5.5625 3.859375 -5.5625 C 4.453125 -5.5625 4.925781 -5.398438 5.28125 -5.078125 C 5.632812 -4.765625 5.8125 -4.257812 5.8125 -3.5625 L 5.8125 0 L 4.328125 0 L 4.328125 -3.1875 C 4.328125 -3.976562 4.035156 -4.375 3.453125 -4.375 C 3.003906 -4.375 2.691406 -4.21875 2.515625 -3.90625 C 2.347656 -3.59375 2.265625 -3.144531 2.265625 -2.5625 L 2.265625 0 L 0.78125 0 L 0.78125 -7.59375 L 2.265625 -7.59375 Z M 2.265625 -6.046875 "/>
</g>
<g id="glyph-0-18">
<path d="M 2.515625 0.09375 C 1.898438 0.09375 1.398438 -0.140625 1.015625 -0.609375 C 0.640625 -1.085938 0.453125 -1.789062 0.453125 -2.71875 C 0.453125 -3.65625 0.644531 -4.363281 1.03125 -4.84375 C 1.414062 -5.320312 1.921875 -5.5625 2.546875 -5.5625 C 2.941406 -5.5625 3.265625 -5.484375 3.515625 -5.328125 C 3.773438 -5.171875 3.976562 -4.984375 4.125 -4.765625 L 4.171875 -4.765625 C 4.148438 -4.867188 4.125 -5.019531 4.09375 -5.21875 C 4.070312 -5.425781 4.0625 -5.632812 4.0625 -5.84375 L 4.0625 -7.59375 L 5.546875 -7.59375 L 5.546875 0 L 4.40625 0 L 4.125 -0.703125 L 4.0625 -0.703125 C 3.914062 -0.484375 3.71875 -0.296875 3.46875 -0.140625 C 3.21875 0.015625 2.898438 0.09375 2.515625 0.09375 Z M 3.03125 -1.09375 C 3.445312 -1.09375 3.738281 -1.210938 3.90625 -1.453125 C 4.070312 -1.691406 4.15625 -2.054688 4.15625 -2.546875 L 4.15625 -2.703125 C 4.15625 -3.242188 4.070312 -3.648438 3.90625 -3.921875 C 3.75 -4.203125 3.453125 -4.34375 3.015625 -4.34375 C 2.679688 -4.34375 2.421875 -4.203125 2.234375 -3.921875 C 2.046875 -3.640625 1.953125 -3.234375 1.953125 -2.703125 C 1.953125 -2.171875 2.046875 -1.769531 2.234375 -1.5 C 2.421875 -1.226562 2.6875 -1.09375 3.03125 -1.09375 Z M 3.03125 -1.09375 "/>
</g>
<g id="glyph-0-19">
<path d="M 3.8125 -5.5625 C 4.425781 -5.5625 4.921875 -5.320312 5.296875 -4.84375 C 5.679688 -4.363281 5.875 -3.660156 5.875 -2.734375 C 5.875 -1.804688 5.675781 -1.101562 5.28125 -0.625 C 4.894531 -0.144531 4.394531 0.09375 3.78125 0.09375 C 3.382812 0.09375 3.066406 0.0234375 2.828125 -0.109375 C 2.597656 -0.253906 2.410156 -0.414062 2.265625 -0.59375 L 2.1875 -0.59375 C 2.238281 -0.320312 2.265625 -0.0546875 2.265625 0.203125 L 2.265625 2.40625 L 0.78125 2.40625 L 0.78125 -5.453125 L 1.984375 -5.453125 L 2.203125 -4.75 L 2.265625 -4.75 C 2.410156 -4.96875 2.609375 -5.15625 2.859375 -5.3125 C 3.109375 -5.476562 3.425781 -5.5625 3.8125 -5.5625 Z M 3.34375 -4.375 C 2.957031 -4.375 2.6875 -4.253906 2.53125 -4.015625 C 2.375 -3.773438 2.285156 -3.40625 2.265625 -2.90625 L 2.265625 -2.75 C 2.265625 -2.21875 2.34375 -1.8125 2.5 -1.53125 C 2.65625 -1.25 2.941406 -1.109375 3.359375 -1.109375 C 3.703125 -1.109375 3.953125 -1.25 4.109375 -1.53125 C 4.273438 -1.8125 4.359375 -2.222656 4.359375 -2.765625 C 4.359375 -3.835938 4.019531 -4.375 3.34375 -4.375 Z M 3.34375 -4.375 "/>
</g>
<g id="glyph-0-20">
<path d="M 0 -5.453125 L 1.625 -5.453125 L 2.65625 -2.390625 C 2.707031 -2.242188 2.742188 -2.09375 2.765625 -1.9375 C 2.796875 -1.78125 2.820312 -1.613281 2.84375 -1.4375 L 2.875 -1.4375 C 2.894531 -1.613281 2.921875 -1.78125 2.953125 -1.9375 C 2.992188 -2.09375 3.035156 -2.242188 3.078125 -2.390625 L 4.09375 -5.453125 L 5.6875 -5.453125 L 3.375 0.703125 C 3.164062 1.265625 2.863281 1.6875 2.46875 1.96875 C 2.070312 2.257812 1.613281 2.40625 1.09375 2.40625 C 0.925781 2.40625 0.78125 2.394531 0.65625 2.375 C 0.539062 2.351562 0.4375 2.332031 0.34375 2.3125 L 0.34375 1.140625 C 0.414062 1.148438 0.503906 1.160156 0.609375 1.171875 C 0.710938 1.191406 0.820312 1.203125 0.9375 1.203125 C 1.25 1.203125 1.492188 1.101562 1.671875 0.90625 C 1.859375 0.71875 1.992188 0.492188 2.078125 0.234375 L 2.171875 -0.046875 Z M 0 -5.453125 "/>
</g>
<g id="glyph-0-21">
<path d="M 6.8125 -3.640625 C 6.8125 -2.429688 6.46875 -1.519531 5.78125 -0.90625 C 5.101562 -0.300781 4.148438 0 2.921875 0 L 0.90625 0 L 0.90625 -7.140625 L 3.140625 -7.140625 C 3.890625 -7.140625 4.535156 -7.003906 5.078125 -6.734375 C 5.628906 -6.472656 6.054688 -6.082031 6.359375 -5.5625 C 6.660156 -5.050781 6.8125 -4.410156 6.8125 -3.640625 Z M 5.25 -3.59375 C 5.25 -4.394531 5.070312 -4.976562 4.71875 -5.34375 C 4.375 -5.71875 3.875 -5.90625 3.21875 -5.90625 L 2.40625 -5.90625 L 2.40625 -1.25 L 3.0625 -1.25 C 4.519531 -1.25 5.25 -2.03125 5.25 -3.59375 Z M 5.25 -3.59375 "/>
</g>
<g id="glyph-0-22">
<path d="M 5.015625 0 L 0.90625 0 L 0.90625 -7.140625 L 5.015625 -7.140625 L 5.015625 -5.90625 L 2.40625 -5.90625 L 2.40625 -4.328125 L 4.828125 -4.328125 L 4.828125 -3.09375 L 2.40625 -3.09375 L 2.40625 -1.25 L 5.015625 -1.25 Z M 5.015625 0 "/>
</g>
<g id="glyph-0-23">
<path d="M 2.390625 0 L 0.90625 0 L 0.90625 -7.140625 L 4.984375 -7.140625 L 4.984375 -5.90625 L 2.390625 -5.90625 L 2.390625 -4.0625 L 4.8125 -4.0625 L 4.8125 -2.8125 L 2.390625 -2.8125 Z M 2.390625 0 "/>
</g>
<g id="glyph-0-24">
<path d="M 2.078125 0 L 0 -5.453125 L 1.5625 -5.453125 L 2.609375 -2.34375 C 2.671875 -2.15625 2.71875 -1.960938 2.75 -1.765625 C 2.789062 -1.566406 2.8125 -1.390625 2.8125 -1.234375 L 2.859375 -1.234375 C 2.878906 -1.585938 2.953125 -1.957031 3.078125 -2.34375 L 4.125 -5.453125 L 5.6875 -5.453125 L 3.609375 0 Z M 2.078125 0 "/>
</g>
<g id="glyph-0-25">
<path d="M 6.75 0 L 5.234375 0 L 5.234375 -3.078125 L 2.40625 -3.078125 L 2.40625 0 L 0.90625 0 L 0.90625 -7.140625 L 2.40625 -7.140625 L 2.40625 -4.34375 L 5.234375 -4.34375 L 5.234375 -7.140625 L 6.75 -7.140625 Z M 6.75 0 "/>
</g>
<g id="glyph-0-26">
<path d="M 3.921875 0 L 2.203125 -5.59375 L 2.15625 -5.59375 C 2.164062 -5.46875 2.175781 -5.269531 2.1875 -5 C 2.195312 -4.726562 2.207031 -4.441406 2.21875 -4.140625 C 2.238281 -3.835938 2.25 -3.5625 2.25 -3.3125 L 2.25 0 L 0.90625 0 L 0.90625 -7.140625 L 2.953125 -7.140625 L 4.65625 -1.6875 L 4.6875 -1.6875 L 6.46875 -7.140625 L 8.53125 -7.140625 L 8.53125 0 L 7.125 0 L 7.125 -3.375 C 7.125 -3.601562 7.128906 -3.863281 7.140625 -4.15625 C 7.148438 -4.445312 7.160156 -4.722656 7.171875 -4.984375 C 7.179688 -5.253906 7.1875 -5.457031 7.1875 -5.59375 L 7.15625 -5.59375 L 5.3125 0 Z M 3.921875 0 "/>
</g>
<g id="glyph-0-27">
<path d="M 7.234375 0 L 5.3125 0 L 2.203125 -5.40625 L 2.15625 -5.40625 C 2.175781 -5.0625 2.191406 -4.71875 2.203125 -4.375 C 2.222656 -4.039062 2.238281 -3.703125 2.25 -3.359375 L 2.25 0 L 0.90625 0 L 0.90625 -7.140625 L 2.8125 -7.140625 L 5.90625 -1.796875 L 5.9375 -1.796875 C 5.9375 -2.128906 5.925781 -2.457031 5.90625 -2.78125 C 5.894531 -3.101562 5.882812 -3.429688 5.875 -3.765625 L 5.875 -7.140625 L 7.234375 -7.140625 Z M 7.234375 0 "/>
</g>
<g id="glyph-0-28">
<path d="M 3.1875 -7.140625 C 4.101562 -7.140625 4.769531 -6.941406 5.1875 -6.546875 C 5.613281 -6.148438 5.828125 -5.601562 5.828125 -4.90625 C 5.828125 -4.5 5.738281 -4.113281 5.5625 -3.75 C 5.394531 -3.382812 5.109375 -3.09375 4.703125 -2.875 C 4.296875 -2.65625 3.75 -2.546875 3.0625 -2.546875 L 2.40625 -2.546875 L 2.40625 0 L 0.90625 0 L 0.90625 -7.140625 Z M 3.09375 -5.90625 L 2.40625 -5.90625 L 2.40625 -3.78125 L 2.90625 -3.78125 C 3.332031 -3.78125 3.671875 -3.863281 3.921875 -4.03125 C 4.171875 -4.207031 4.296875 -4.484375 4.296875 -4.859375 C 4.296875 -5.554688 3.894531 -5.90625 3.09375 -5.90625 Z M 3.09375 -5.90625 "/>
</g>
<g id="glyph-0-29">
<path d="M 5.109375 -1.984375 C 5.109375 -1.347656 4.878906 -0.84375 4.421875 -0.46875 C 3.960938 -0.09375 3.316406 0.09375 2.484375 0.09375 C 1.722656 0.09375 1.046875 -0.046875 0.453125 -0.328125 L 0.453125 -1.734375 C 0.796875 -1.585938 1.148438 -1.453125 1.515625 -1.328125 C 1.878906 -1.210938 2.238281 -1.15625 2.59375 -1.15625 C 2.96875 -1.15625 3.234375 -1.222656 3.390625 -1.359375 C 3.546875 -1.503906 3.625 -1.6875 3.625 -1.90625 C 3.625 -2.09375 3.5625 -2.25 3.4375 -2.375 C 3.320312 -2.5 3.160156 -2.613281 2.953125 -2.71875 C 2.742188 -2.832031 2.503906 -2.953125 2.234375 -3.078125 C 2.066406 -3.160156 1.882812 -3.253906 1.6875 -3.359375 C 1.5 -3.472656 1.316406 -3.609375 1.140625 -3.765625 C 0.960938 -3.929688 0.816406 -4.128906 0.703125 -4.359375 C 0.597656 -4.597656 0.546875 -4.878906 0.546875 -5.203125 C 0.546875 -5.847656 0.757812 -6.347656 1.1875 -6.703125 C 1.625 -7.054688 2.210938 -7.234375 2.953125 -7.234375 C 3.328125 -7.234375 3.679688 -7.191406 4.015625 -7.109375 C 4.359375 -7.023438 4.710938 -6.898438 5.078125 -6.734375 L 4.59375 -5.5625 C 4.257812 -5.695312 3.960938 -5.800781 3.703125 -5.875 C 3.441406 -5.945312 3.175781 -5.984375 2.90625 -5.984375 C 2.625 -5.984375 2.40625 -5.914062 2.25 -5.78125 C 2.09375 -5.644531 2.015625 -5.472656 2.015625 -5.265625 C 2.015625 -5.003906 2.128906 -4.800781 2.359375 -4.65625 C 2.585938 -4.507812 2.925781 -4.332031 3.375 -4.125 C 3.738281 -3.945312 4.046875 -3.765625 4.296875 -3.578125 C 4.554688 -3.390625 4.753906 -3.171875 4.890625 -2.921875 C 5.035156 -2.671875 5.109375 -2.359375 5.109375 -1.984375 Z M 5.109375 -1.984375 "/>
</g>
<g id="glyph-0-30">
<path d="M 3.796875 -4.34375 L 2.515625 -4.34375 L 2.515625 0 L 1.015625 0 L 1.015625 -4.34375 L 0.203125 -4.34375 L 0.203125 -5.0625 L 1.015625 -5.453125 L 1.015625 -5.859375 C 1.015625 -6.328125 1.09375 -6.6875 1.25 -6.9375 C 1.40625 -7.195312 1.628906 -7.378906 1.921875 -7.484375 C 2.210938 -7.597656 2.554688 -7.65625 2.953125 -7.65625 C 3.242188 -7.65625 3.503906 -7.628906 3.734375 -7.578125 C 3.972656 -7.535156 4.164062 -7.484375 4.3125 -7.421875 L 3.9375 -6.328125 C 3.820312 -6.359375 3.695312 -6.390625 3.5625 -6.421875 C 3.4375 -6.453125 3.285156 -6.46875 3.109375 -6.46875 C 2.898438 -6.46875 2.75 -6.40625 2.65625 -6.28125 C 2.5625 -6.15625 2.515625 -5.992188 2.515625 -5.796875 L 2.515625 -5.453125 L 3.796875 -5.453125 Z M 3.796875 -4.34375 "/>
</g>
<g id="glyph-0-31">
<path d="M 3.65625 0 L 2.140625 0 L 2.140625 -5.875 L 0.203125 -5.875 L 0.203125 -7.140625 L 5.59375 -7.140625 L 5.59375 -5.875 L 3.65625 -5.875 Z M 3.65625 0 "/>
</g>
<g id="glyph-0-32">
<path d="M 5.546875 0 L 0.234375 0 L 0.234375 -0.984375 L 3.65625 -5.890625 L 0.328125 -5.890625 L 0.328125 -7.140625 L 5.453125 -7.140625 L 5.453125 -6.15625 L 2.046875 -1.25 L 5.546875 -1.25 Z M 5.546875 0 "/>
</g>
</g>
</defs>
<path fill="none" stroke-width="0.0105375" stroke-linecap="butt" stroke-linejoin="miter" stroke="rgb(0%, 0%, 0%)" stroke-opacity="1" stroke-miterlimit="10" d="M 1.971417 0.791495 L 2.306375 0.554174 " transform="matrix(189.797496, 0, 0, 189.797496, -47.181747, 354.698138)"/>
<path fill="none" stroke-width="0.0105375" stroke-linecap="butt" stroke-linejoin="miter" stroke="rgb(0%, 0%, 0%)" stroke-opacity="1" stroke-miterlimit="10" d="M 2.710116 0.410991 L 2.383431 0.378658 " transform="matrix(189.797496, 0, 0, 189.797496, -47.181747, 354.698138)"/>
<path fill="none" stroke-width="0.0105375" stroke-linecap="butt" stroke-linejoin="miter" stroke="rgb(0%, 0%, 0%)" stroke-opacity="1" stroke-miterlimit="10" d="M 1.857007 -1.254209 L 1.863366 -1.171144 " transform="matrix(189.797496, 0, 0, 189.797496, -47.181747, 354.698138)"/>
<path fill="none" stroke-width="0.0105375" stroke-linecap="butt" stroke-linejoin="miter" stroke="rgb(0%, 0%, 0%)" stroke-opacity="1" stroke-miterlimit="10" d="M 1.598075 1.880608 L 2.38763 0.818662 " transform="matrix(189.797496, 0, 0, 189.797496, -47.181747, 354.698138)"/>
<path fill="none" stroke-width="0.0105375" stroke-linecap="butt" stroke-linejoin="miter" stroke="rgb(0%, 0%, 0%)" stroke-opacity="1" stroke-miterlimit="10" d="M 3.150634 -0.856252 L 2.310594 -1.032571 " transform="matrix(189.797496, 0, 0, 189.797496, -47.181747, 354.698138)"/>
<path fill="none" stroke-width="0.0105375" stroke-linecap="butt" stroke-linejoin="miter" stroke="rgb(0%, 0%, 0%)" stroke-opacity="1" stroke-miterlimit="10" d="M 2.454415 -0.65184 L 2.154034 -0.750074 " transform="matrix(189.797496, 0, 0, 189.797496, -47.181747, 354.698138)"/>
<path fill="none" stroke-width="0.0105375" stroke-linecap="butt" stroke-linejoin="miter" stroke="rgb(0%, 0%, 0%)" stroke-opacity="1" stroke-miterlimit="10" d="M 1.40453 -1.339395 L 1.863366 -1.171144 " transform="matrix(189.797496, 0, 0, 189.797496, -47.181747, 354.698138)"/>
<path fill="none" stroke-width="0.0105375" stroke-linecap="butt" stroke-linejoin="miter" stroke="rgb(0%, 0%, 0%)" stroke-opacity="1" stroke-miterlimit="10" d="M 1.722221 -0.940182 L 1.936944 -0.99569 " transform="matrix(189.797496, 0, 0, 189.797496, -47.181747, 354.698138)"/>
<path fill="none" stroke-width="0.0105375" stroke-linecap="butt" stroke-linejoin="miter" stroke="rgb(0%, 0%, 0%)" stroke-opacity="1" stroke-miterlimit="10" d="M 2.785504 0.722383 L 2.30123 0.633884 " transform="matrix(189.797496, 0, 0, 189.797496, -47.181747, 354.698138)"/>
<path fill="none" stroke-width="0.0105375" stroke-linecap="butt" stroke-linejoin="miter" stroke="rgb(0%, 0%, 0%)" stroke-opacity="1" stroke-miterlimit="10" d="M 2.052157 -1.268554 L 2.074261 -1.000115 " transform="matrix(189.797496, 0, 0, 189.797496, -47.181747, 354.698138)"/>
<path fill="none" stroke-width="0.0105375" stroke-linecap="butt" stroke-linejoin="miter" stroke="rgb(0%, 0%, 0%)" stroke-opacity="1" stroke-miterlimit="10" d="M 2.837739 0.121908 L 2.383431 0.378658 " transform="matrix(189.797496, 0, 0, 189.797496, -47.181747, 354.698138)"/>
<path fill="none" stroke-width="0.0105375" stroke-linecap="butt" stroke-linejoin="miter" stroke="rgb(0%, 0%, 0%)" stroke-opacity="1" stroke-miterlimit="10" d="M 1.321012 -0.645481 L 1.599269 -0.335673 " transform="matrix(189.797496, 0, 0, 189.797496, -47.181747, 354.698138)"/>
<path fill="none" stroke-width="0.0105375" stroke-linecap="butt" stroke-linejoin="miter" stroke="rgb(0%, 0%, 0%)" stroke-opacity="1" stroke-miterlimit="10" d="M 1.926241 -0.891055 L 1.936944 -0.99569 " transform="matrix(189.797496, 0, 0, 189.797496, -47.181747, 354.698138)"/>
<path fill="none" stroke-width="0.0105375" stroke-linecap="butt" stroke-linejoin="miter" stroke="rgb(0%, 0%, 0%)" stroke-opacity="1" stroke-miterlimit="10" d="M 0.571035 -0.163532 L 1.130821 -0.0364024 " transform="matrix(189.797496, 0, 0, 189.797496, -47.181747, 354.698138)"/>
<path fill="none" stroke-width="0.0105375" stroke-linecap="butt" stroke-linejoin="miter" stroke="rgb(0%, 0%, 0%)" stroke-opacity="1" stroke-miterlimit="10" d="M 0.785861 0.360011 L 1.360425 0.00451297 " transform="matrix(189.797496, 0, 0, 189.797496, -47.181747, 354.698138)"/>
<path fill="none" stroke-width="0.0105375" stroke-linecap="butt" stroke-linejoin="miter" stroke="rgb(0%, 0%, 0%)" stroke-opacity="1" stroke-miterlimit="10" d="M 2.405885 -0.209078 L 1.784437 -0.0270173 " transform="matrix(189.797496, 0, 0, 189.797496, -47.181747, 354.698138)"/>
<path fill="none" stroke-width="0.0105375" stroke-linecap="butt" stroke-linejoin="miter" stroke="rgb(0%, 0%, 0%)" stroke-opacity="1" stroke-miterlimit="10" d="M 0.861682 -0.397766 L 1.33902 -0.0689206 " transform="matrix(189.797496, 0, 0, 189.797496, -47.181747, 354.698138)"/>
<path fill="none" stroke-width="0.0105375" stroke-linecap="butt" stroke-linejoin="miter" stroke="rgb(0%, 0%, 0%)" stroke-opacity="1" stroke-miterlimit="10" d="M 2.740576 -1.445388 L 2.406976 -1.157128 " transform="matrix(189.797496, 0, 0, 189.797496, -47.181747, 354.698138)"/>
<path fill="none" stroke-width="0.0105375" stroke-linecap="butt" stroke-linejoin="miter" stroke="rgb(0%, 0%, 0%)" stroke-opacity="1" stroke-miterlimit="10" d="M 1.181821 0.802423 L 1.28024 0.266326 " transform="matrix(189.797496, 0, 0, 189.797496, -47.181747, 354.698138)"/>
<path fill="none" stroke-width="0.0105375" stroke-linecap="butt" stroke-linejoin="miter" stroke="rgb(0%, 0%, 0%)" stroke-opacity="1" stroke-miterlimit="10" d="M 0.846904 0.759203 L 1.28024 0.266326 " transform="matrix(189.797496, 0, 0, 189.797496, -47.181747, 354.698138)"/>
<path fill="none" stroke-width="0.0105375" stroke-linecap="butt" stroke-linejoin="miter" stroke="rgb(0%, 0%, 0%)" stroke-opacity="1" stroke-miterlimit="10" d="M 0.885556 0.0528169 L 1.130821 -0.0364024 " transform="matrix(189.797496, 0, 0, 189.797496, -47.181747, 354.698138)"/>
<path fill="none" stroke-width="0.0105375" stroke-linecap="butt" stroke-linejoin="miter" stroke="rgb(0%, 0%, 0%)" stroke-opacity="1" stroke-miterlimit="10" d="M 1.140741 -0.501763 L 1.505789 -0.115084 " transform="matrix(189.797496, 0, 0, 189.797496, -47.181747, 354.698138)"/>
<path fill="none" stroke-width="0.0105375" stroke-linecap="butt" stroke-linejoin="miter" stroke="rgb(0%, 0%, 0%)" stroke-opacity="1" stroke-miterlimit="10" d="M 3.041102 1.210054 L 2.420333 1.033117 " transform="matrix(189.797496, 0, 0, 189.797496, -47.181747, 354.698138)"/>
<path fill="none" stroke-width="0.0105375" stroke-linecap="butt" stroke-linejoin="miter" stroke="rgb(0%, 0%, 0%)" stroke-opacity="1" stroke-miterlimit="10" d="M 2.461001 1.128367 L 2.420333 1.033117 " transform="matrix(189.797496, 0, 0, 189.797496, -47.181747, 354.698138)"/>
<path fill="none" stroke-width="0.0105375" stroke-linecap="butt" stroke-linejoin="miter" stroke="rgb(0%, 0%, 0%)" stroke-opacity="1" stroke-miterlimit="10" d="M 2.361203 -1.388687 L 2.406976 -1.157128 " transform="matrix(189.797496, 0, 0, 189.797496, -47.181747, 354.698138)"/>
<path fill="none" stroke-width="0.0105375" stroke-linecap="butt" stroke-linejoin="miter" stroke="rgb(0%, 0%, 0%)" stroke-opacity="1" stroke-miterlimit="10" d="M 1.988973 -1.008491 L 1.863366 -1.171144 " transform="matrix(189.797496, 0, 0, 189.797496, -47.181747, 354.698138)"/>
<path fill="none" stroke-width="0.0105375" stroke-linecap="butt" stroke-linejoin="miter" stroke="rgb(0%, 0%, 0%)" stroke-opacity="1" stroke-miterlimit="10" d="M 2.250003 0.418544 L 2.383431 0.378658 " transform="matrix(189.797496, 0, 0, 189.797496, -47.181747, 354.698138)"/>
<path fill="none" stroke-width="0.0105375" stroke-linecap="butt" stroke-linejoin="miter" stroke="rgb(0%, 0%, 0%)" stroke-opacity="1" stroke-miterlimit="10" d="M 1.988973 -1.008491 L 1.936944 -0.99569 " transform="matrix(189.797496, 0, 0, 189.797496, -47.181747, 354.698138)"/>
<path fill="none" stroke-width="0.0105375" stroke-linecap="butt" stroke-linejoin="miter" stroke="rgb(0%, 0%, 0%)" stroke-opacity="1" stroke-miterlimit="10" d="M 1.360425 0.00451297 L 1.28024 0.266326 " transform="matrix(189.797496, 0, 0, 189.797496, -47.181747, 354.698138)"/>
<path fill="none" stroke-width="0.0105375" stroke-linecap="butt" stroke-linejoin="miter" stroke="rgb(0%, 0%, 0%)" stroke-opacity="1" stroke-miterlimit="10" d="M 1.33902 -0.0689206 L 1.130821 -0.0364024 " transform="matrix(189.797496, 0, 0, 189.797496, -47.181747, 354.698138)"/>
<path fill="none" stroke-width="0.0105375" stroke-linecap="butt" stroke-linejoin="miter" stroke="rgb(0%, 0%, 0%)" stroke-opacity="1" stroke-miterlimit="10" d="M 2.38763 0.818662 L 2.420333 1.033117 " transform="matrix(189.797496, 0, 0, 189.797496, -47.181747, 354.698138)"/>
<path fill="none" stroke-width="0.0105375" stroke-linecap="butt" stroke-linejoin="miter" stroke="rgb(0%, 0%, 0%)" stroke-opacity="1" stroke-miterlimit="10" d="M 2.310594 -1.032571 L 2.406976 -1.157128 " transform="matrix(189.797496, 0, 0, 189.797496, -47.181747, 354.698138)"/>
<path fill="none" stroke-width="0.0105375" stroke-linecap="butt" stroke-linejoin="miter" stroke="rgb(0%, 0%, 0%)" stroke-opacity="1" stroke-miterlimit="10" d="M 2.074261 -1.000115 L 1.988973 -1.008491 " transform="matrix(189.797496, 0, 0, 189.797496, -47.181747, 354.698138)"/>
<path fill="none" stroke-width="0.0105375" stroke-linecap="butt" stroke-linejoin="miter" stroke="rgb(0%, 0%, 0%)" stroke-opacity="1" stroke-miterlimit="10" d="M 1.453307 -0.0867233 L 1.360425 0.00451297 " transform="matrix(189.797496, 0, 0, 189.797496, -47.181747, 354.698138)"/>
<path fill="none" stroke-width="0.0105375" stroke-linecap="butt" stroke-linejoin="miter" stroke="rgb(0%, 0%, 0%)" stroke-opacity="1" stroke-miterlimit="10" d="M 1.453307 -0.0867233 L 1.33902 -0.0689206 " transform="matrix(189.797496, 0, 0, 189.797496, -47.181747, 354.698138)"/>
<path fill="none" stroke-width="0.0105375" stroke-linecap="butt" stroke-linejoin="miter" stroke="rgb(0%, 0%, 0%)" stroke-opacity="1" stroke-miterlimit="10" d="M 2.30123 0.633884 L 2.38763 0.818662 " transform="matrix(189.797496, 0, 0, 189.797496, -47.181747, 354.698138)"/>
<path fill="none" stroke-width="0.0105375" stroke-linecap="butt" stroke-linejoin="miter" stroke="rgb(0%, 0%, 0%)" stroke-opacity="1" stroke-miterlimit="10" d="M 2.15957 -0.886301 L 2.310594 -1.032571 " transform="matrix(189.797496, 0, 0, 189.797496, -47.181747, 354.698138)"/>
<path fill="none" stroke-width="0.0105375" stroke-linecap="butt" stroke-linejoin="miter" stroke="rgb(0%, 0%, 0%)" stroke-opacity="1" stroke-miterlimit="10" d="M 2.15957 -0.886301 L 2.074261 -1.000115 " transform="matrix(189.797496, 0, 0, 189.797496, -47.181747, 354.698138)"/>
<path fill="none" stroke-width="0.0105375" stroke-linecap="butt" stroke-linejoin="miter" stroke="rgb(0%, 0%, 0%)" stroke-opacity="1" stroke-miterlimit="10" d="M 1.505789 -0.115084 L 1.453307 -0.0867233 " transform="matrix(189.797496, 0, 0, 189.797496, -47.181747, 354.698138)"/>
<path fill="none" stroke-width="0.0105375" stroke-linecap="butt" stroke-linejoin="miter" stroke="rgb(0%, 0%, 0%)" stroke-opacity="1" stroke-miterlimit="10" d="M 2.306375 0.554174 L 2.30123 0.633884 " transform="matrix(189.797496, 0, 0, 189.797496, -47.181747, 354.698138)"/>
<path fill="none" stroke-width="0.0105375" stroke-linecap="butt" stroke-linejoin="miter" stroke="rgb(0%, 0%, 0%)" stroke-opacity="1" stroke-miterlimit="10" d="M 2.154034 -0.750074 L 2.15957 -0.886301 " transform="matrix(189.797496, 0, 0, 189.797496, -47.181747, 354.698138)"/>
<path fill="none" stroke-width="0.0105375" stroke-linecap="butt" stroke-linejoin="miter" stroke="rgb(0%, 0%, 0%)" stroke-opacity="1" stroke-miterlimit="10" d="M 1.588237 -0.132166 L 1.505789 -0.115084 " transform="matrix(189.797496, 0, 0, 189.797496, -47.181747, 354.698138)"/>
<path fill="none" stroke-width="0.0105375" stroke-linecap="butt" stroke-linejoin="miter" stroke="rgb(0%, 0%, 0%)" stroke-opacity="1" stroke-miterlimit="10" d="M 2.250003 0.418544 L 2.306375 0.554174 " transform="matrix(189.797496, 0, 0, 189.797496, -47.181747, 354.698138)"/>
<path fill="none" stroke-width="0.0105375" stroke-linecap="butt" stroke-linejoin="miter" stroke="rgb(0%, 0%, 0%)" stroke-opacity="1" stroke-miterlimit="10" d="M 1.599269 -0.335673 L 2.154034 -0.750074 " transform="matrix(189.797496, 0, 0, 189.797496, -47.181747, 354.698138)"/>
<path fill="none" stroke-width="0.0105375" stroke-linecap="butt" stroke-linejoin="miter" stroke="rgb(0%, 0%, 0%)" stroke-opacity="1" stroke-miterlimit="10" d="M 1.784437 -0.0270173 L 2.250003 0.418544 " transform="matrix(189.797496, 0, 0, 189.797496, -47.181747, 354.698138)"/>
<path fill="none" stroke-width="0.0105375" stroke-linecap="butt" stroke-linejoin="miter" stroke="rgb(0%, 0%, 0%)" stroke-opacity="1" stroke-miterlimit="10" d="M 1.588237 -0.132166 L 1.599269 -0.335673 " transform="matrix(189.797496, 0, 0, 189.797496, -47.181747, 354.698138)"/>
<path fill="none" stroke-width="0.0105375" stroke-linecap="butt" stroke-linejoin="miter" stroke="rgb(0%, 0%, 0%)" stroke-opacity="1" stroke-miterlimit="10" d="M 1.588237 -0.132166 L 1.784437 -0.0270173 " transform="matrix(189.797496, 0, 0, 189.797496, -47.181747, 354.698138)"/>
<g fill="rgb(0%, 0%, 0%)" fill-opacity="1">
<use xlink:href="#glyph-0-0" x="249.386719" y="513.96875"/>
<use xlink:href="#glyph-0-1" x="256.286719" y="513.96875"/>
<use xlink:href="#glyph-0-2" x="262.616719" y="513.96875"/>
<use xlink:href="#glyph-0-3" x="267.156719" y="513.96875"/>
<use xlink:href="#glyph-0-4" x="273.346719" y="513.96875"/>
<use xlink:href="#glyph-0-5" x="279.676719" y="513.96875"/>
<use xlink:href="#glyph-0-6" x="285.716719" y="513.96875"/>
<use xlink:href="#glyph-0-7" x="290.856719" y="513.96875"/>
<use xlink:href="#glyph-0-8" x="295.196719" y="513.96875"/>
<use xlink:href="#glyph-0-2" x="301.106719" y="513.96875"/>
<use xlink:href="#glyph-0-9" x="305.646719" y="513.96875"/>
<use xlink:href="#glyph-0-10" x="308.696719" y="513.96875"/>
<use xlink:href="#glyph-0-11" x="315.266719" y="513.96875"/>
</g>
<g fill="rgb(0%, 0%, 0%)" fill-opacity="1">
<use xlink:href="#glyph-0-12" x="470.140625" y="437.128906"/>
<use xlink:href="#glyph-0-5" x="476.860625" y="437.128906"/>
<use xlink:href="#glyph-0-6" x="482.900625" y="437.128906"/>
<use xlink:href="#glyph-0-9" x="488.040625" y="437.128906"/>
<use xlink:href="#glyph-0-13" x="491.090625" y="437.128906"/>
<use xlink:href="#glyph-0-13" x="494.140625" y="437.128906"/>
<use xlink:href="#glyph-0-10" x="497.190625" y="437.128906"/>
<use xlink:href="#glyph-0-14" x="503.760625" y="437.128906"/>
</g>
<g fill="rgb(0%, 0%, 0%)" fill-opacity="1">
<use xlink:href="#glyph-0-15" x="229.707031" y="114.667969"/>
<use xlink:href="#glyph-0-5" x="236.077031" y="114.667969"/>
<use xlink:href="#glyph-0-8" x="242.117031" y="114.667969"/>
<use xlink:href="#glyph-0-16" x="248.027031" y="114.667969"/>
<use xlink:href="#glyph-0-3" x="254.597031" y="114.667969"/>
<use xlink:href="#glyph-0-2" x="260.787031" y="114.667969"/>
<use xlink:href="#glyph-0-17" x="265.327031" y="114.667969"/>
<use xlink:href="#glyph-0-5" x="271.897031" y="114.667969"/>
<use xlink:href="#glyph-0-4" x="277.937031" y="114.667969"/>
<use xlink:href="#glyph-0-18" x="284.267031" y="114.667969"/>
<use xlink:href="#glyph-0-9" x="290.597031" y="114.667969"/>
<use xlink:href="#glyph-0-7" x="293.647031" y="114.667969"/>
<use xlink:href="#glyph-0-9" x="297.987031" y="114.667969"/>
<use xlink:href="#glyph-0-14" x="301.037031" y="114.667969"/>
</g>
<g fill="rgb(0%, 0%, 0%)" fill-opacity="1">
<use xlink:href="#glyph-0-15" x="179.191406" y="722.25"/>
<use xlink:href="#glyph-0-5" x="185.561406" y="722.25"/>
<use xlink:href="#glyph-0-11" x="191.601406" y="722.25"/>
<use xlink:href="#glyph-0-19" x="201.421406" y="722.25"/>
<use xlink:href="#glyph-0-20" x="207.751406" y="722.25"/>
<use xlink:href="#glyph-0-13" x="213.441406" y="722.25"/>
<use xlink:href="#glyph-0-3" x="216.491406" y="722.25"/>
<use xlink:href="#glyph-0-4" x="222.681406" y="722.25"/>
<use xlink:href="#glyph-0-5" x="229.011406" y="722.25"/>
<use xlink:href="#glyph-0-6" x="235.051406" y="722.25"/>
<use xlink:href="#glyph-0-7" x="240.191406" y="722.25"/>
<use xlink:href="#glyph-0-8" x="244.531406" y="722.25"/>
<use xlink:href="#glyph-0-2" x="250.441406" y="722.25"/>
</g>
<g fill="rgb(0%, 0%, 0%)" fill-opacity="1">
<use xlink:href="#glyph-0-15" x="553.699219" y="197.234375"/>
<use xlink:href="#glyph-0-5" x="560.069219" y="197.234375"/>
<use xlink:href="#glyph-0-16" x="566.109219" y="197.234375"/>
<use xlink:href="#glyph-0-18" x="572.679219" y="197.234375"/>
<use xlink:href="#glyph-0-9" x="579.009219" y="197.234375"/>
<use xlink:href="#glyph-0-18" x="582.059219" y="197.234375"/>
<use xlink:href="#glyph-0-5" x="588.389219" y="197.234375"/>
</g>
<g fill="rgb(0%, 0%, 0%)" fill-opacity="1">
<use xlink:href="#glyph-0-15" x="421.75" y="238.15625"/>
<use xlink:href="#glyph-0-2" x="428.12" y="238.15625"/>
<use xlink:href="#glyph-0-20" x="432.66" y="238.15625"/>
<use xlink:href="#glyph-0-19" x="438.35" y="238.15625"/>
<use xlink:href="#glyph-0-7" x="444.68" y="238.15625"/>
<use xlink:href="#glyph-0-3" x="449.02" y="238.15625"/>
<use xlink:href="#glyph-0-14" x="455.21" y="238.15625"/>
<use xlink:href="#glyph-0-19" x="460.18" y="238.15625"/>
<use xlink:href="#glyph-0-3" x="466.51" y="238.15625"/>
<use xlink:href="#glyph-0-2" x="472.7" y="238.15625"/>
<use xlink:href="#glyph-0-9" x="477.24" y="238.15625"/>
<use xlink:href="#glyph-0-18" x="480.29" y="238.15625"/>
<use xlink:href="#glyph-0-9" x="486.62" y="238.15625"/>
<use xlink:href="#glyph-0-10" x="489.67" y="238.15625"/>
<use xlink:href="#glyph-0-11" x="496.24" y="238.15625"/>
</g>
<g fill="rgb(0%, 0%, 0%)" fill-opacity="1">
<use xlink:href="#glyph-0-21" x="148.476562" y="103.074219"/>
<use xlink:href="#glyph-0-9" x="155.876562" y="103.074219"/>
<use xlink:href="#glyph-0-6" x="158.926562" y="103.074219"/>
<use xlink:href="#glyph-0-7" x="164.066562" y="103.074219"/>
<use xlink:href="#glyph-0-20" x="168.406562" y="103.074219"/>
<use xlink:href="#glyph-0-3" x="174.096562" y="103.074219"/>
<use xlink:href="#glyph-0-14" x="180.286562" y="103.074219"/>
<use xlink:href="#glyph-0-7" x="185.256562" y="103.074219"/>
<use xlink:href="#glyph-0-8" x="189.596562" y="103.074219"/>
<use xlink:href="#glyph-0-13" x="195.506562" y="103.074219"/>
<use xlink:href="#glyph-0-9" x="198.556562" y="103.074219"/>
<use xlink:href="#glyph-0-10" x="201.606562" y="103.074219"/>
<use xlink:href="#glyph-0-11" x="208.176562" y="103.074219"/>
</g>
<g fill="rgb(0%, 0%, 0%)" fill-opacity="1">
<use xlink:href="#glyph-0-21" x="223.863281" y="183.007812"/>
<use xlink:href="#glyph-0-2" x="231.263281" y="183.007812"/>
<use xlink:href="#glyph-0-3" x="235.803281" y="183.007812"/>
<use xlink:href="#glyph-0-14" x="241.993281" y="183.007812"/>
<use xlink:href="#glyph-0-3" x="246.963281" y="183.007812"/>
<use xlink:href="#glyph-0-19" x="253.153281" y="183.007812"/>
<use xlink:href="#glyph-0-17" x="259.483281" y="183.007812"/>
<use xlink:href="#glyph-0-9" x="266.053281" y="183.007812"/>
<use xlink:href="#glyph-0-13" x="269.103281" y="183.007812"/>
<use xlink:href="#glyph-0-5" x="272.153281" y="183.007812"/>
</g>
<g fill="rgb(0%, 0%, 0%)" fill-opacity="1">
<use xlink:href="#glyph-0-22" x="484.414062" y="496.707031"/>
<use xlink:href="#glyph-0-14" x="490.014062" y="496.707031"/>
<use xlink:href="#glyph-0-6" x="494.984062" y="496.707031"/>
<use xlink:href="#glyph-0-17" x="500.124062" y="496.707031"/>
<use xlink:href="#glyph-0-8" x="506.694062" y="496.707031"/>
<use xlink:href="#glyph-0-2" x="512.604062" y="496.707031"/>
<use xlink:href="#glyph-0-9" x="517.144062" y="496.707031"/>
<use xlink:href="#glyph-0-6" x="520.194062" y="496.707031"/>
<use xlink:href="#glyph-0-17" x="525.334062" y="496.707031"/>
<use xlink:href="#glyph-0-9" x="531.904063" y="496.707031"/>
<use xlink:href="#glyph-0-5" x="534.954062" y="496.707031"/>
</g>
<g fill="rgb(0%, 0%, 0%)" fill-opacity="1">
<use xlink:href="#glyph-0-22" x="303.625" y="111.953125"/>
<use xlink:href="#glyph-0-10" x="309.225" y="111.953125"/>
<use xlink:href="#glyph-0-1" x="315.795" y="111.953125"/>
<use xlink:href="#glyph-0-13" x="322.125" y="111.953125"/>
<use xlink:href="#glyph-0-8" x="325.175" y="111.953125"/>
<use xlink:href="#glyph-0-16" x="331.085" y="111.953125"/>
<use xlink:href="#glyph-0-5" x="337.655" y="111.953125"/>
</g>
<g fill="rgb(0%, 0%, 0%)" fill-opacity="1">
<use xlink:href="#glyph-0-23" x="493.992187" y="378.804688"/>
<use xlink:href="#glyph-0-13" x="499.482187" y="378.804688"/>
<use xlink:href="#glyph-0-5" x="502.532188" y="378.804688"/>
<use xlink:href="#glyph-0-24" x="508.572187" y="378.804688"/>
<use xlink:href="#glyph-0-3" x="514.262187" y="378.804688"/>
<use xlink:href="#glyph-0-4" x="520.452188" y="378.804688"/>
<use xlink:href="#glyph-0-5" x="526.782187" y="378.804688"/>
<use xlink:href="#glyph-0-6" x="532.822188" y="378.804688"/>
<use xlink:href="#glyph-0-7" x="537.962188" y="378.804688"/>
<use xlink:href="#glyph-0-8" x="542.302187" y="378.804688"/>
<use xlink:href="#glyph-0-2" x="548.212188" y="378.804688"/>
<use xlink:href="#glyph-0-9" x="552.752187" y="378.804688"/>
<use xlink:href="#glyph-0-10" x="555.802188" y="378.804688"/>
<use xlink:href="#glyph-0-11" x="562.372188" y="378.804688"/>
</g>
<g fill="rgb(0%, 0%, 0%)" fill-opacity="1">
<use xlink:href="#glyph-0-25" x="141.914062" y="231.683594"/>
<use xlink:href="#glyph-0-5" x="149.564062" y="231.683594"/>
<use xlink:href="#glyph-0-13" x="155.604062" y="231.683594"/>
<use xlink:href="#glyph-0-3" x="158.654062" y="231.683594"/>
<use xlink:href="#glyph-0-2" x="164.844062" y="231.683594"/>
<use xlink:href="#glyph-0-10" x="169.384062" y="231.683594"/>
<use xlink:href="#glyph-0-4" x="175.954062" y="231.683594"/>
<use xlink:href="#glyph-0-2" x="182.284062" y="231.683594"/>
<use xlink:href="#glyph-0-10" x="186.824062" y="231.683594"/>
<use xlink:href="#glyph-0-11" x="193.394062" y="231.683594"/>
</g>
<g fill="rgb(0%, 0%, 0%)" fill-opacity="1">
<use xlink:href="#glyph-0-25" x="289.621094" y="194.789063"/>
<use xlink:href="#glyph-0-3" x="297.271094" y="194.789063"/>
<use xlink:href="#glyph-0-11" x="303.461094" y="194.789063"/>
<use xlink:href="#glyph-0-3" x="313.281094" y="194.789063"/>
</g>
<g fill="rgb(0%, 0%, 0%)" fill-opacity="1">
<use xlink:href="#glyph-0-26" x="-18.609375" y="326.214844"/>
<use xlink:href="#glyph-0-8" x="-9.179375" y="326.214844"/>
<use xlink:href="#glyph-0-7" x="-3.269375" y="326.214844"/>
<use xlink:href="#glyph-0-17" x="1.070625" y="326.214844"/>
<use xlink:href="#glyph-0-5" x="7.640625" y="326.214844"/>
<use xlink:href="#glyph-0-16" x="13.680625" y="326.214844"/>
<use xlink:href="#glyph-0-3" x="20.250625" y="326.214844"/>
<use xlink:href="#glyph-0-6" x="26.440625" y="326.214844"/>
<use xlink:href="#glyph-0-3" x="31.580625" y="326.214844"/>
<use xlink:href="#glyph-0-6" x="37.770625" y="326.214844"/>
<use xlink:href="#glyph-0-6" x="42.910625" y="326.214844"/>
<use xlink:href="#glyph-0-10" x="48.050625" y="326.214844"/>
<use xlink:href="#glyph-0-14" x="54.620625" y="326.214844"/>
</g>
<g fill="rgb(0%, 0%, 0%)" fill-opacity="1">
<use xlink:href="#glyph-0-26" x="11.378906" y="431.710938"/>
<use xlink:href="#glyph-0-8" x="20.808906" y="431.710938"/>
<use xlink:href="#glyph-0-7" x="26.718906" y="431.710938"/>
<use xlink:href="#glyph-0-17" x="31.058906" y="431.710938"/>
<use xlink:href="#glyph-0-5" x="37.628906" y="431.710938"/>
<use xlink:href="#glyph-0-16" x="43.668906" y="431.710938"/>
<use xlink:href="#glyph-0-3" x="50.238906" y="431.710938"/>
<use xlink:href="#glyph-0-14" x="56.428906" y="431.710938"/>
<use xlink:href="#glyph-0-19" x="61.398906" y="431.710938"/>
<use xlink:href="#glyph-0-9" x="67.728906" y="431.710938"/>
<use xlink:href="#glyph-0-2" x="70.778906" y="431.710938"/>
<use xlink:href="#glyph-0-9" x="75.318906" y="431.710938"/>
<use xlink:href="#glyph-0-13" x="78.368906" y="431.710938"/>
<use xlink:href="#glyph-0-13" x="81.418906" y="431.710938"/>
<use xlink:href="#glyph-0-10" x="84.468906" y="431.710938"/>
<use xlink:href="#glyph-0-11" x="91.038906" y="431.710938"/>
</g>
<g fill="rgb(0%, 0%, 0%)" fill-opacity="1">
<use xlink:href="#glyph-0-26" x="412.292969" y="317.21875"/>
<use xlink:href="#glyph-0-8" x="421.722969" y="317.21875"/>
<use xlink:href="#glyph-0-7" x="427.632969" y="317.21875"/>
<use xlink:href="#glyph-0-17" x="431.972969" y="317.21875"/>
<use xlink:href="#glyph-0-5" x="438.542969" y="317.21875"/>
<use xlink:href="#glyph-0-16" x="444.582969" y="317.21875"/>
<use xlink:href="#glyph-0-3" x="451.152969" y="317.21875"/>
<use xlink:href="#glyph-0-7" x="457.342969" y="317.21875"/>
<use xlink:href="#glyph-0-17" x="461.682969" y="317.21875"/>
<use xlink:href="#glyph-0-8" x="468.252969" y="317.21875"/>
<use xlink:href="#glyph-0-2" x="474.162969" y="317.21875"/>
<use xlink:href="#glyph-0-11" x="478.702969" y="317.21875"/>
<use xlink:href="#glyph-0-3" x="488.522969" y="317.21875"/>
<use xlink:href="#glyph-0-4" x="494.712969" y="317.21875"/>
<use xlink:href="#glyph-0-5" x="501.042969" y="317.21875"/>
<use xlink:href="#glyph-0-6" x="507.082969" y="317.21875"/>
<use xlink:href="#glyph-0-7" x="512.222969" y="317.21875"/>
<use xlink:href="#glyph-0-8" x="516.562969" y="317.21875"/>
<use xlink:href="#glyph-0-2" x="522.472969" y="317.21875"/>
</g>
<g fill="rgb(0%, 0%, 0%)" fill-opacity="1">
<use xlink:href="#glyph-0-27" x="38.015625" y="279.734375"/>
<use xlink:href="#glyph-0-5" x="46.145625" y="279.734375"/>
<use xlink:href="#glyph-0-16" x="52.185625" y="279.734375"/>
<use xlink:href="#glyph-0-3" x="58.755625" y="279.734375"/>
<use xlink:href="#glyph-0-5" x="64.945625" y="279.734375"/>
<use xlink:href="#glyph-0-2" x="70.985625" y="279.734375"/>
<use xlink:href="#glyph-0-6" x="75.525625" y="279.734375"/>
<use xlink:href="#glyph-0-17" x="80.665625" y="279.734375"/>
<use xlink:href="#glyph-0-5" x="87.235625" y="279.734375"/>
<use xlink:href="#glyph-0-8" x="93.275625" y="279.734375"/>
<use xlink:href="#glyph-0-10" x="99.185625" y="279.734375"/>
<use xlink:href="#glyph-0-11" x="105.755625" y="279.734375"/>
</g>
<g fill="rgb(0%, 0%, 0%)" fill-opacity="1">
<use xlink:href="#glyph-0-27" x="475.171875" y="80.3125"/>
<use xlink:href="#glyph-0-3" x="483.301875" y="80.3125"/>
<use xlink:href="#glyph-0-14" x="489.491875" y="80.3125"/>
<use xlink:href="#glyph-0-8" x="494.461875" y="80.3125"/>
<use xlink:href="#glyph-0-11" x="500.371875" y="80.3125"/>
<use xlink:href="#glyph-0-5" x="510.191875" y="80.3125"/>
</g>
<g fill="rgb(0%, 0%, 0%)" fill-opacity="1">
<use xlink:href="#glyph-0-28" x="111.96875" y="518.882812"/>
<use xlink:href="#glyph-0-20" x="118.24875" y="518.882812"/>
<use xlink:href="#glyph-0-2" x="123.93875" y="518.882812"/>
<use xlink:href="#glyph-0-3" x="128.47875" y="518.882812"/>
<use xlink:href="#glyph-0-4" x="134.66875" y="518.882812"/>
<use xlink:href="#glyph-0-5" x="140.99875" y="518.882812"/>
<use xlink:href="#glyph-0-6" x="147.03875" y="518.882812"/>
<use xlink:href="#glyph-0-10" x="152.17875" y="518.882812"/>
<use xlink:href="#glyph-0-13" x="158.74875" y="518.882812"/>
<use xlink:href="#glyph-0-10" x="161.79875" y="518.882812"/>
<use xlink:href="#glyph-0-11" x="168.36875" y="518.882812"/>
</g>
<g fill="rgb(0%, 0%, 0%)" fill-opacity="1">
<use xlink:href="#glyph-0-29" x="60.140625" y="507.082031"/>
<use xlink:href="#glyph-0-10" x="65.650625" y="507.082031"/>
<use xlink:href="#glyph-0-13" x="72.220625" y="507.082031"/>
<use xlink:href="#glyph-0-30" x="75.270625" y="507.082031"/>
<use xlink:href="#glyph-0-3" x="79.140625" y="507.082031"/>
<use xlink:href="#glyph-0-13" x="85.330625" y="507.082031"/>
<use xlink:href="#glyph-0-3" x="88.380625" y="507.082031"/>
<use xlink:href="#glyph-0-4" x="94.570625" y="507.082031"/>
<use xlink:href="#glyph-0-10" x="100.900625" y="507.082031"/>
<use xlink:href="#glyph-0-14" x="107.470625" y="507.082031"/>
</g>
<g fill="rgb(0%, 0%, 0%)" fill-opacity="1">
<use xlink:href="#glyph-0-31" x="46.71875" y="370.570312"/>
<use xlink:href="#glyph-0-17" x="52.50875" y="370.570312"/>
<use xlink:href="#glyph-0-8" x="59.07875" y="370.570312"/>
<use xlink:href="#glyph-0-2" x="64.98875" y="370.570312"/>
<use xlink:href="#glyph-0-11" x="69.52875" y="370.570312"/>
<use xlink:href="#glyph-0-3" x="79.34875" y="370.570312"/>
<use xlink:href="#glyph-0-6" x="85.53875" y="370.570312"/>
<use xlink:href="#glyph-0-3" x="90.67875" y="370.570312"/>
<use xlink:href="#glyph-0-6" x="96.86875" y="370.570312"/>
<use xlink:href="#glyph-0-6" x="102.00875" y="370.570312"/>
<use xlink:href="#glyph-0-10" x="107.14875" y="370.570312"/>
<use xlink:href="#glyph-0-14" x="113.71875" y="370.570312"/>
</g>
<g fill="rgb(0%, 0%, 0%)" fill-opacity="1">
<use xlink:href="#glyph-0-31" x="92.976562" y="259.375"/>
<use xlink:href="#glyph-0-17" x="98.766562" y="259.375"/>
<use xlink:href="#glyph-0-8" x="105.336562" y="259.375"/>
<use xlink:href="#glyph-0-2" x="111.246562" y="259.375"/>
<use xlink:href="#glyph-0-11" x="115.786562" y="259.375"/>
<use xlink:href="#glyph-0-3" x="125.606562" y="259.375"/>
<use xlink:href="#glyph-0-19" x="131.796562" y="259.375"/>
<use xlink:href="#glyph-0-13" x="138.126562" y="259.375"/>
<use xlink:href="#glyph-0-5" x="141.176562" y="259.375"/>
<use xlink:href="#glyph-0-14" x="147.216562" y="259.375"/>
<use xlink:href="#glyph-0-11" x="152.186562" y="259.375"/>
<use xlink:href="#glyph-0-5" x="162.006562" y="259.375"/>
</g>
<g fill="rgb(0%, 0%, 0%)" fill-opacity="1">
<use xlink:href="#glyph-0-31" x="533.136719" y="591.28125"/>
<use xlink:href="#glyph-0-17" x="538.926719" y="591.28125"/>
<use xlink:href="#glyph-0-8" x="545.496719" y="591.28125"/>
<use xlink:href="#glyph-0-2" x="551.406719" y="591.28125"/>
<use xlink:href="#glyph-0-11" x="555.946719" y="591.28125"/>
<use xlink:href="#glyph-0-3" x="565.766719" y="591.28125"/>
<use xlink:href="#glyph-0-7" x="571.956719" y="591.28125"/>
<use xlink:href="#glyph-0-3" x="576.296719" y="591.28125"/>
<use xlink:href="#glyph-0-1" x="582.486719" y="591.28125"/>
<use xlink:href="#glyph-0-5" x="588.816719" y="591.28125"/>
</g>
<g fill="rgb(0%, 0%, 0%)" fill-opacity="1">
<use xlink:href="#glyph-0-31" x="421.074219" y="578.089844"/>
<use xlink:href="#glyph-0-17" x="426.864219" y="578.089844"/>
<use xlink:href="#glyph-0-8" x="433.434219" y="578.089844"/>
<use xlink:href="#glyph-0-2" x="439.344219" y="578.089844"/>
<use xlink:href="#glyph-0-11" x="443.884219" y="578.089844"/>
<use xlink:href="#glyph-0-10" x="453.704219" y="578.089844"/>
<use xlink:href="#glyph-0-14" x="460.274219" y="578.089844"/>
</g>
<g fill="rgb(0%, 0%, 0%)" fill-opacity="1">
<use xlink:href="#glyph-0-32" x="383.65625" y="89.238281"/>
<use xlink:href="#glyph-0-8" x="389.44625" y="89.238281"/>
<use xlink:href="#glyph-0-5" x="395.35625" y="89.238281"/>
</g>
</svg>
